<?xml version="1.0" encoding="UTF-8"?>
<svg xmlns="http://www.w3.org/2000/svg" xmlns:xlink="http://www.w3.org/1999/xlink" width="300px" height="445px" viewBox="0 0 300 426" version="1.1">
<g id="surface1">
<path style=" stroke:none;fill-rule:nonzero;fill:rgb(0%,0%,0%);fill-opacity:1;" d="M 0 213.050781 L 0 426.101562 L 300 426.101562 L 300 0 L 0 0 Z M 129.222656 31.917969 L 129.222656 40.027344 L 119.085938 40.027344 L 119.085938 123.117188 L 98.3125 123.117188 L 98.3125 40.078125 L 93.140625 39.925781 L 87.921875 39.773438 L 87.769531 31.769531 L 87.617188 23.8125 L 129.222656 23.8125 Z M 152.027344 42.054688 L 152.027344 60.292969 L 158.109375 60.292969 L 158.109375 23.8125 L 178.886719 23.8125 L 178.886719 123.117188 L 158.109375 123.117188 L 158.109375 76.503906 L 152.027344 76.503906 L 152.027344 123.117188 L 131.25 123.117188 L 131.25 23.8125 L 152.027344 23.8125 Z M 212.835938 31.667969 L 212.835938 39.46875 L 207.164062 39.621094 L 201.4375 39.773438 L 201.4375 60.039062 L 212.6875 60.546875 L 206.960938 68.601562 L 201.183594 76.65625 L 201.183594 106.398438 L 212.835938 106.398438 L 212.835938 123.117188 L 180.40625 123.117188 L 180.40625 23.8125 L 212.835938 23.8125 Z M 82.246094 125.09375 C 84.679688 125.855469 87.464844 128.285156 88.683594 130.71875 C 90.203125 133.65625 90.710938 138.269531 90.710938 148.804688 L 90.710938 158.585938 L 69.933594 158.585938 L 69.933594 150.984375 C 69.933594 142.21875 69.628906 141.054688 66.839844 140.34375 C 65.777344 140.039062 64.710938 139.535156 64.511719 139.179688 C 63.953125 138.316406 63.546875 161.371094 63.75 186.550781 L 63.851562 207.679688 L 65.269531 206.921875 C 66.03125 206.566406 67.042969 206.210938 67.5 206.210938 C 68.007812 206.210938 68.765625 205.652344 69.171875 204.996094 C 69.832031 204.03125 69.933594 202.359375 69.832031 196.027344 C 69.679688 188.324219 69.679688 188.222656 68.5625 188.273438 C 67.90625 188.273438 67.398438 188.121094 67.398438 187.871094 C 67.398438 187.464844 70.84375 182.5 71.960938 181.230469 C 72.164062 180.980469 73.988281 182.296875 76.011719 184.171875 C 79.761719 187.617188 83.363281 189.695312 88.074219 191.214844 L 90.710938 192.125 L 90.710938 218.726562 L 88.023438 221.257812 C 85.640625 223.539062 85.1875 223.742188 83.460938 223.539062 C 81.636719 223.335938 81.4375 223.082031 79.761719 219.789062 L 77.988281 216.242188 L 76.265625 218.523438 C 73.125 222.625 67.957031 224.246094 59.039062 223.792969 C 52.5 223.488281 49.664062 222.574219 47.027344 220.042969 C 43.175781 216.292969 43.328125 218.21875 43.175781 174.542969 C 43.023438 132.035156 42.972656 132.695312 45.914062 128.894531 C 47.433594 126.867188 50.980469 125.09375 54.679688 124.585938 C 58.9375 124.03125 79.964844 124.386719 82.246094 125.09375 Z M 127.855469 125.195312 C 129.882812 125.5 132.261719 126.160156 133.226562 126.613281 L 134.898438 127.527344 L 131.960938 129.199219 C 128.160156 131.328125 124.105469 135.582031 121.316406 140.34375 C 120.101562 142.421875 119.085938 143.6875 119.085938 143.183594 C 119.085938 141.8125 117.617188 140.34375 116.351562 140.34375 C 115.742188 140.34375 114.730469 139.992188 114.121094 139.535156 L 113.007812 138.773438 L 113.007812 165.730469 L 114.121094 164.96875 C 114.730469 164.511719 115.691406 164.15625 116.25 164.15625 C 117.972656 164.15625 119.085938 162.6875 119.085938 160.257812 L 119.085938 158.078125 L 123.34375 158.078125 C 128.5625 158.078125 131.910156 158.789062 136.011719 160.8125 C 139.511719 162.585938 139.914062 163.5 138.699219 167.148438 C 137.9375 169.222656 137.9375 169.222656 139.511719 170.492188 C 140.371094 171.148438 141.183594 171.65625 141.234375 171.554688 C 141.285156 171.503906 141.183594 170.695312 140.929688 169.832031 C 140.625 168.820312 140.625 168.210938 140.929688 168.210938 C 141.183594 168.210938 141.539062 168.871094 141.738281 169.730469 C 141.890625 170.542969 142.195312 171.25 142.449219 171.25 C 142.703125 171.25 142.90625 171.453125 142.90625 171.757812 C 142.90625 172.011719 142.550781 172.113281 142.09375 171.910156 C 141.386719 171.65625 141.335938 171.757812 141.839844 172.667969 C 142.195312 173.277344 142.195312 173.835938 141.941406 174.039062 C 141.6875 174.191406 141.335938 173.886719 141.183594 173.378906 C 140.980469 172.871094 140.167969 171.757812 139.308594 170.945312 L 137.789062 169.476562 L 136.164062 171.351562 C 135.253906 172.367188 133.683594 173.582031 132.566406 174.039062 C 130.742188 174.796875 130.691406 174.898438 131.503906 175.8125 C 132.71875 177.128906 132.164062 178.34375 129.324219 180.726562 C 127.652344 182.09375 126.539062 182.652344 125.574219 182.601562 C 120.960938 182.195312 104.039062 178.039062 97.042969 175.609375 L 92.484375 174.039062 L 92.332031 149.3125 L 92.230469 124.636719 L 108.191406 124.636719 C 117.414062 124.636719 125.777344 124.890625 127.855469 125.195312 Z M 174.273438 132.492188 L 174.273438 140.34375 L 162.667969 140.34375 L 162.667969 161.066406 L 173.816406 161.371094 L 168.242188 169.125 L 162.667969 176.875 L 162.667969 207.222656 L 174.070312 207.222656 L 174.222656 210.265625 L 174.375 213.253906 L 172.550781 213.050781 C 171.539062 212.898438 170.21875 212.542969 169.613281 212.238281 C 169.003906 211.886719 168.648438 211.835938 168.851562 212.039062 C 169.5625 212.796875 167.535156 213.761719 165.304688 213.8125 C 163.9375 213.8125 163.226562 214.011719 163.429688 214.316406 C 163.632812 214.621094 163.175781 215.535156 162.464844 216.394531 C 161.757812 217.257812 161.148438 218.167969 161.148438 218.421875 C 161.148438 218.675781 160.792969 218.878906 160.386719 218.878906 C 159.679688 218.878906 159.375 219.484375 159.578125 220.550781 C 159.628906 220.75 159.273438 221.054688 158.867188 221.207031 C 158.460938 221.410156 158.109375 221.714844 158.109375 222.019531 C 158.109375 222.273438 158.363281 222.324219 158.664062 222.121094 C 158.96875 221.96875 159.425781 222.121094 159.679688 222.472656 C 160.488281 223.742188 160.136719 223.84375 158.261719 222.878906 L 156.335938 221.867188 L 155.421875 222.980469 C 154.511719 224.097656 154.511719 224.097656 154.863281 222.070312 C 155.066406 220.800781 154.964844 219.636719 154.613281 219.078125 C 154.207031 218.421875 154.054688 218.371094 154.105469 218.878906 C 154.257812 219.890625 153.546875 221.410156 152.9375 221.410156 C 152.6875 221.410156 152.636719 221.207031 152.789062 220.902344 C 152.9375 220.652344 152.835938 219.535156 152.535156 218.472656 C 152.28125 217.355469 151.925781 215.433594 151.773438 214.164062 C 151.519531 211.582031 149.238281 205.652344 147.210938 202.410156 C 145.640625 199.878906 144.628906 197.699219 144.222656 196.078125 C 144.070312 195.367188 144.070312 195.113281 144.222656 195.417969 C 144.730469 196.585938 145.4375 196.128906 145.4375 194.660156 C 145.4375 192.886719 144.273438 189.644531 143.210938 188.425781 C 142.550781 187.667969 141.992188 187.515625 140.675781 187.71875 L 139.003906 188.074219 L 138.546875 183.96875 C 138.039062 179.558594 138.191406 179.207031 140.269531 180.675781 C 140.929688 181.132812 141.386719 181.230469 141.386719 180.878906 C 141.386719 180.574219 141.636719 180.472656 141.890625 180.625 C 142.347656 180.929688 142.652344 178.75 142.449219 176.925781 C 142.398438 176.570312 142.90625 176.316406 143.613281 176.316406 C 144.78125 176.316406 144.882812 176.164062 144.578125 174.644531 C 144.425781 173.785156 144.121094 172.71875 143.917969 172.316406 C 143.664062 171.808594 143.917969 171.25 144.679688 170.644531 C 146.097656 169.527344 146.300781 169.527344 146.300781 170.492188 C 146.300781 170.898438 146.097656 171.097656 145.894531 170.945312 C 145.4375 170.695312 144.730469 171.707031 145.085938 172.113281 C 145.238281 172.214844 146.148438 171.960938 147.164062 171.503906 L 148.9375 170.644531 L 151.113281 172.46875 C 153.496094 174.492188 154.308594 174.089844 152.585938 171.707031 C 152.027344 170.945312 151.519531 170.035156 151.519531 169.730469 C 151.519531 169.425781 151.316406 169.324219 151.011719 169.476562 C 150.710938 169.679688 150.507812 169.074219 150.507812 168.007812 C 150.507812 166.996094 150.304688 166.183594 150.101562 166.183594 C 149.339844 166.183594 148.582031 167.351562 148.835938 168.160156 C 149.039062 168.871094 148.988281 168.871094 148.53125 168.109375 C 147.972656 167.300781 148.277344 165.679688 148.9375 165.679688 C 149.796875 165.679688 154.054688 160.914062 154.054688 160.003906 C 154.054688 159.140625 153.800781 158.988281 152.484375 159.191406 C 151.164062 159.394531 150.660156 159.140625 149.136719 157.367188 C 146.757812 154.582031 144.730469 151.035156 142.957031 146.375 C 141.488281 142.675781 141.4375 142.320312 141.488281 133.960938 C 141.488281 129.25 141.636719 125.246094 141.738281 124.992188 C 141.839844 124.789062 149.238281 124.636719 158.109375 124.636719 L 174.273438 124.636719 Z M 208.277344 132.492188 L 208.277344 140.34375 L 196.621094 140.34375 L 196.621094 161.117188 L 207.871094 161.117188 L 206.960938 162.484375 C 206.503906 163.296875 203.96875 166.84375 201.335938 170.390625 L 196.621094 176.875 L 196.621094 207.222656 L 208.277344 207.222656 L 208.277344 223.4375 L 180.40625 223.4375 L 180.40625 224.703125 C 180.40625 225.414062 180.710938 225.96875 181.0625 225.96875 C 181.417969 225.96875 182.789062 226.628906 184.054688 227.441406 C 187.753906 229.769531 189.019531 232.960938 189.628906 241.324219 C 189.882812 244.96875 190.238281 249.53125 190.386719 251.457031 C 190.488281 253.332031 190.386719 255.964844 190.085938 257.332031 C 189.476562 260.171875 190.1875 270.910156 191.046875 271.773438 C 191.402344 272.128906 191.554688 265.035156 191.554688 248.667969 L 191.554688 225.058594 L 201.386719 225.058594 C 206.808594 225.109375 211.46875 225.261719 211.773438 225.414062 C 212.128906 225.667969 212.382812 231.644531 212.433594 243.753906 L 212.585938 261.691406 L 218.160156 261.691406 L 218.414062 243.449219 L 218.664062 225.210938 L 238.9375 225.210938 L 239.085938 274.710938 L 239.1875 324.261719 L 218.414062 324.261719 L 218.414062 278.15625 L 212.332031 278.15625 L 212.332031 324.261719 L 191.605469 324.261719 L 191.453125 311.949219 C 191.351562 305.210938 191.402344 298.980469 191.554688 298.117188 C 191.808594 296.648438 191.910156 296.597656 193.480469 297.003906 C 194.59375 297.308594 195.304688 297.867188 195.660156 298.828125 C 195.914062 299.589844 197.128906 301.160156 198.292969 302.324219 C 201.539062 305.515625 202.195312 306.328125 202.195312 306.933594 C 202.195312 308 204.222656 306.429688 204.527344 305.109375 C 204.730469 304.503906 205.035156 303.996094 205.238281 303.996094 C 206.097656 303.996094 206.25 302.273438 205.4375 301.414062 C 204.984375 300.90625 204.78125 300.296875 204.933594 300.042969 C 205.085938 299.789062 204.933594 299.539062 204.578125 299.589844 C 203.007812 299.640625 202.144531 299.386719 202.449219 298.929688 C 202.601562 298.675781 203.109375 298.574219 203.613281 298.726562 C 204.070312 298.828125 203.816406 298.625 202.957031 298.21875 C 202.144531 297.816406 200.929688 297.460938 200.320312 297.410156 C 199.054688 297.410156 198.597656 296.851562 198.140625 294.671875 C 197.886719 293.40625 197.585938 293.101562 196.570312 293.203125 C 195.40625 293.355469 195.40625 293.304688 196.316406 292.597656 C 197.535156 291.683594 196.773438 290.570312 194.59375 290.113281 C 193.582031 289.960938 192.871094 289.40625 192.566406 288.59375 C 192.3125 287.933594 191.859375 287.226562 191.605469 287.023438 C 191.300781 286.871094 190.792969 286.261719 190.539062 285.757812 C 190.136719 284.996094 190.1875 284.84375 190.691406 285.046875 C 191.148438 285.199219 191.351562 284.792969 191.351562 283.527344 C 191.351562 282.566406 191.199219 281.855469 190.996094 282.007812 C 190.792969 282.109375 190.488281 282.007812 190.289062 281.703125 C 190.136719 281.449219 189.628906 281.195312 189.171875 281.195312 C 188.511719 281.195312 188.460938 281.296875 189.070312 282.058594 C 189.730469 282.917969 189.730469 282.917969 188.511719 282.058594 C 187.804688 281.601562 186.386719 280.640625 185.371094 279.929688 C 182.382812 277.953125 180.558594 275.875 180.152344 274.152344 C 179.949219 273.242188 179.492188 271.925781 179.085938 271.164062 C 178.683594 270.40625 178.429688 269.339844 178.429688 268.785156 C 178.480469 268.125 178.632812 268.328125 178.988281 269.390625 C 179.289062 270.304688 179.746094 271.0625 179.949219 271.0625 C 180.507812 271.0625 180.507812 270.707031 179.949219 269.644531 C 179.695312 269.1875 179.339844 267.414062 179.1875 265.792969 C 179.039062 264.121094 178.683594 262.550781 178.378906 262.246094 C 177.617188 261.488281 177.769531 260.726562 178.53125 261.335938 C 179.039062 261.742188 179.1875 261.640625 179.1875 260.929688 C 179.1875 260.421875 178.988281 260.019531 178.734375 260.070312 C 177.71875 260.269531 176.300781 257.535156 176.453125 255.609375 C 176.605469 253.785156 176.65625 253.734375 177.363281 254.597656 C 177.820312 255.152344 177.871094 255.40625 177.515625 255.152344 C 177.0625 254.953125 176.859375 255.101562 176.859375 255.609375 C 176.859375 256.167969 177.113281 256.371094 177.617188 256.167969 C 178.378906 255.863281 179.644531 257.585938 179.1875 258.347656 C 179.039062 258.546875 179.238281 258.75 179.644531 258.75 C 180.660156 258.75 180.558594 257.585938 179.441406 255.003906 C 178.886719 253.835938 178.582031 252.773438 178.734375 252.621094 C 178.886719 252.46875 178.734375 251.960938 178.328125 251.507812 C 177.71875 250.746094 177.71875 250.644531 178.378906 250.898438 C 178.785156 251 179.441406 251.910156 179.796875 252.875 L 180.40625 254.597656 L 180.253906 252.925781 L 180.050781 251.253906 L 181.773438 252.925781 C 183.445312 254.546875 183.496094 254.699219 183.140625 257.128906 C 182.9375 258.5 182.789062 261.84375 182.835938 264.476562 C 182.886719 268.832031 182.789062 269.1875 182.179688 268.023438 C 181.773438 267.3125 181.46875 266.960938 181.46875 267.261719 C 181.46875 267.515625 181.773438 268.328125 182.179688 269.035156 C 183.039062 270.554688 183.242188 272.277344 182.382812 271.0625 C 182.027344 270.507812 181.976562 270.859375 182.179688 272.328125 C 182.382812 273.445312 182.585938 274.8125 182.636719 275.371094 C 182.886719 277.246094 183.546875 278.15625 184.710938 278.15625 C 185.320312 278.15625 186.335938 278.613281 186.941406 279.121094 C 188.664062 280.640625 190.996094 281.449219 191.65625 280.792969 C 192.0625 280.386719 191.859375 280.082031 190.84375 279.675781 C 190.085938 279.421875 189.628906 278.917969 189.78125 278.664062 C 189.984375 278.359375 190.335938 278.257812 190.589844 278.410156 C 190.84375 278.613281 191.046875 278.410156 191.046875 278.003906 C 191.046875 277.398438 190.035156 276.6875 188.007812 275.925781 C 187.601562 275.773438 188.109375 275.675781 189.171875 275.773438 C 191.046875 275.925781 191.707031 275.320312 190.289062 274.8125 C 189.78125 274.609375 189.527344 273.75 189.527344 272.078125 C 189.527344 270.65625 189.222656 269.441406 188.816406 269.085938 C 188.109375 268.480469 188.3125 266.300781 189.070312 266.757812 C 189.273438 266.910156 189.019531 265.742188 188.511719 264.171875 C 187.296875 260.777344 187.296875 260.625 188.160156 261.335938 C 188.613281 261.742188 188.765625 260.878906 188.765625 257.382812 C 188.816406 254.902344 188.613281 253.027344 188.414062 253.128906 C 188.210938 253.28125 188.007812 252.925781 188.007812 252.367188 C 188.007812 250.949219 187.144531 250.59375 186.839844 251.859375 C 186.488281 253.128906 185.320312 252.671875 185.574219 251.40625 C 185.675781 250.898438 185.117188 249.984375 184.359375 249.378906 C 183.546875 248.71875 182.9375 247.859375 182.9375 247.453125 C 182.9375 247.097656 181.875 246.1875 180.558594 245.527344 C 178.023438 244.261719 174.628906 240.96875 173.109375 238.382812 L 172.246094 236.863281 L 173.664062 238.433594 C 174.425781 239.296875 175.589844 240.613281 176.25 241.371094 C 177.3125 242.640625 177.667969 242.742188 179.796875 242.539062 L 182.179688 242.234375 L 180.253906 242.894531 L 178.277344 243.5 L 180.101562 244.464844 C 181.0625 245.019531 182.027344 245.273438 182.230469 245.070312 C 182.433594 244.867188 182.332031 244.71875 182.027344 244.71875 C 181.621094 244.71875 181.570312 244.363281 181.875 243.550781 C 182.382812 242.183594 182.078125 241.171875 181.164062 241.171875 C 180.8125 241.171875 180.203125 240.816406 179.847656 240.359375 C 179.289062 239.699219 179.339844 239.5 180.050781 239.09375 C 181.316406 238.382812 180.050781 236.609375 178.277344 236.609375 C 177.414062 236.609375 176.859375 236.304688 176.707031 235.699219 C 176.503906 234.988281 176.453125 235.039062 176.402344 235.902344 C 176.402344 236.457031 176.554688 237.167969 176.859375 237.523438 C 177.113281 237.878906 176.707031 237.523438 175.894531 236.761719 C 175.085938 235.953125 174.273438 234.785156 174.070312 234.078125 C 173.714844 232.910156 173.765625 232.859375 174.425781 233.773438 C 175.136719 234.683594 175.238281 234.683594 176.503906 233.875 C 178.429688 232.558594 181.214844 227.492188 180 227.492188 C 179.695312 227.492188 179.339844 228.046875 179.1875 228.757812 C 178.886719 230.023438 177.871094 230.53125 177.871094 229.414062 C 177.871094 229.113281 177.363281 228.25 176.757812 227.542969 C 176.097656 226.832031 175.996094 226.527344 176.453125 226.933594 C 177.515625 227.742188 179.238281 227.238281 179.644531 226.019531 C 179.898438 225.261719 179.238281 222.625 178.125 219.636719 C 177.769531 218.828125 177.820312 218.726562 178.429688 219.230469 C 179.390625 220.144531 180.152344 220.042969 179.390625 219.128906 C 179.039062 218.726562 178.480469 218.421875 178.175781 218.472656 C 177.871094 218.523438 177.113281 218.167969 176.453125 217.609375 C 175.84375 217.054688 174.476562 216.34375 173.414062 216.039062 L 171.539062 215.433594 L 173.414062 215.382812 C 174.425781 215.332031 175.4375 215.535156 175.589844 215.835938 C 175.742188 216.089844 176.148438 216.34375 176.503906 216.34375 C 176.910156 216.34375 176.910156 216.191406 176.453125 215.734375 C 175.996094 215.28125 175.84375 204.386719 175.84375 169.882812 L 175.84375 124.636719 L 208.277344 124.636719 Z M 230.21875 125.753906 C 230.371094 126.410156 231.234375 130.667969 232.09375 135.277344 C 235.84375 155.089844 239.238281 172.570312 239.390625 173.023438 C 239.542969 173.277344 239.644531 162.535156 239.644531 149.058594 L 239.695312 124.636719 L 257.9375 124.636719 L 257.9375 223.4375 L 236.402344 223.4375 L 232.144531 201.246094 C 229.8125 189.085938 227.6875 178.75 227.484375 178.34375 C 227.230469 177.9375 227.027344 187.921875 227.027344 200.484375 L 227.027344 223.4375 L 209.796875 223.4375 L 209.796875 124.636719 L 219.882812 124.636719 C 229.914062 124.636719 229.964844 124.636719 230.21875 125.753906 Z M 137.179688 154.125 C 137.027344 154.53125 136.875 154.378906 136.875 153.820312 C 136.824219 153.265625 136.976562 152.960938 137.128906 153.164062 C 137.28125 153.316406 137.332031 153.769531 137.179688 154.125 Z M 138.089844 155.542969 C 137.9375 155.796875 137.484375 156.050781 137.179688 156.050781 C 136.824219 156.050781 136.875 155.847656 137.332031 155.542969 C 138.292969 154.9375 138.496094 154.9375 138.089844 155.542969 Z M 142.398438 166.183594 C 142.398438 166.691406 142.144531 167.300781 141.890625 167.453125 C 141.585938 167.652344 141.386719 167.199219 141.488281 166.234375 C 141.585938 164.613281 142.398438 164.5625 142.398438 166.183594 Z M 149.847656 168.3125 C 149.695312 168.667969 149.59375 168.414062 149.59375 167.703125 C 149.59375 166.996094 149.695312 166.742188 149.847656 167.046875 C 149.949219 167.402344 149.949219 168.007812 149.847656 168.3125 Z M 140.625 174.140625 C 141.4375 175.355469 141.4375 175.507812 140.523438 176.773438 C 139.964844 177.484375 138.953125 178.34375 138.292969 178.699219 C 137.636719 179.054688 137.078125 179.558594 137.078125 179.8125 C 137.078125 180.117188 136.773438 180.625 136.46875 180.929688 C 136.113281 181.28125 135.8125 181.433594 135.8125 181.28125 C 135.8125 181.082031 135.253906 181.433594 134.59375 182.042969 C 133.886719 182.652344 133.429688 183.257812 133.582031 183.359375 C 133.683594 183.460938 134.238281 183.15625 134.796875 182.652344 C 135.761719 181.789062 135.8125 181.789062 136.214844 182.953125 C 136.875 184.726562 137.332031 189.492188 136.875 189.492188 C 136.671875 189.492188 135.304688 188.222656 133.835938 186.652344 L 131.25 183.765625 L 135.050781 180.066406 C 137.128906 177.988281 139.105469 176.316406 139.359375 176.316406 C 140.117188 176.316406 139.964844 174.898438 139.054688 173.480469 C 138.292969 172.367188 138.292969 172.265625 139.003906 172.570312 C 139.460938 172.71875 140.167969 173.429688 140.625 174.140625 Z M 73.480469 172.972656 C 73.480469 173.074219 73.074219 173.480469 72.617188 173.835938 C 71.808594 174.492188 71.757812 174.441406 72.414062 173.632812 C 73.074219 172.820312 73.480469 172.570312 73.480469 172.972656 Z M 138.34375 173.785156 C 139.054688 174.292969 139.460938 174.847656 139.257812 175.050781 C 139.105469 175.203125 138.34375 174.796875 137.585938 174.089844 C 135.960938 172.570312 136.46875 172.367188 138.34375 173.785156 Z M 72.972656 176.316406 C 72.972656 176.824219 72.769531 177.433594 72.464844 177.585938 C 72.164062 177.785156 71.960938 177.230469 71.960938 176.316406 C 71.960938 175.40625 72.164062 174.847656 72.464844 175.050781 C 72.769531 175.203125 72.972656 175.8125 72.972656 176.316406 Z M 132.921875 187.667969 C 133.53125 188.121094 133.632812 188.476562 133.277344 188.730469 C 133.023438 188.882812 132.871094 189.289062 133.023438 189.542969 C 133.429688 190.097656 133.175781 190.097656 131.554688 189.492188 C 130.84375 189.238281 130.238281 188.78125 130.238281 188.476562 C 130.238281 188.171875 130.488281 188.074219 130.742188 188.222656 C 131.046875 188.375 131.25 188.171875 131.25 187.769531 C 131.25 186.804688 131.707031 186.753906 132.921875 187.667969 Z M 133.023438 190.960938 C 133.175781 191.214844 133.074219 191.566406 132.820312 191.71875 C 132.566406 191.871094 132.261719 191.667969 132.0625 191.265625 C 131.757812 190.453125 132.515625 190.199219 133.023438 190.960938 Z M 100.894531 194 C 104.339844 194.558594 108.496094 195.164062 110.117188 195.367188 C 112.296875 195.621094 113.007812 195.875 113.007812 196.535156 C 113.007812 196.988281 110.21875 199.980469 106.824219 203.171875 C 103.378906 206.363281 99.628906 210.011719 98.414062 211.378906 C 97.195312 212.695312 95.320312 214.46875 94.207031 215.332031 L 92.230469 216.953125 L 92.230469 192.429688 L 93.394531 192.734375 C 94.054688 192.886719 97.398438 193.441406 100.894531 194 Z M 132.515625 193.039062 C 132.667969 193.289062 132.566406 193.542969 132.3125 193.542969 C 132.011719 193.542969 131.757812 193.289062 131.757812 193.039062 C 131.757812 192.734375 131.859375 192.53125 131.960938 192.53125 C 132.113281 192.53125 132.363281 192.734375 132.515625 193.039062 Z M 128.261719 198.8125 C 129.933594 199.421875 131.097656 200.332031 132.261719 201.902344 C 133.226562 203.171875 134.085938 204.183594 134.238281 204.183594 C 134.390625 204.183594 135.203125 204.996094 135.960938 205.957031 C 137.078125 207.375 137.484375 208.542969 137.835938 211.785156 C 138.089844 214.011719 138.648438 216.34375 139.105469 216.953125 C 139.5625 217.660156 139.863281 219.179688 139.863281 220.75 L 139.863281 223.4375 L 119.085938 223.4375 L 119.085938 211.023438 C 119.085938 202.5625 119.289062 198.308594 119.644531 197.648438 C 120.203125 196.835938 120.507812 196.785156 123.089844 197.394531 C 124.664062 197.699219 126.992188 198.359375 128.261719 198.8125 Z M 117.261719 199.015625 C 116.148438 200.03125 114.375 201.601562 113.363281 202.511719 C 111.386719 204.234375 110.980469 204.996094 112.246094 204.488281 C 112.90625 204.234375 113.007812 205.5 113.007812 213.8125 L 113.007812 223.4375 L 102.769531 223.4375 C 94.15625 223.4375 92.636719 223.335938 93.242188 222.777344 C 101.808594 214.925781 109.460938 207.476562 109.460938 207.019531 C 109.460938 206.71875 109.105469 206.871094 108.75 207.324219 C 108.394531 207.832031 107.9375 208.238281 107.738281 208.238281 C 107.585938 208.238281 106.621094 209.148438 105.558594 210.265625 C 103.53125 212.59375 99.984375 215.28125 101.351562 213.558594 C 101.757812 213 102.515625 212.1875 103.023438 211.683594 C 103.480469 211.175781 103.886719 210.617188 103.886719 210.367188 C 103.886719 210.164062 104.695312 209.453125 105.710938 208.792969 C 107.28125 207.679688 111.738281 203.324219 115.792969 198.863281 C 116.65625 197.953125 117.769531 197.191406 118.328125 197.140625 C 119.136719 197.140625 118.9375 197.496094 117.261719 199.015625 Z M 146.453125 204.335938 C 146.808594 206.363281 147.3125 208.542969 147.566406 209.25 C 149.085938 213.304688 149.441406 218.980469 148.277344 222.273438 L 147.617188 224.148438 L 147.011719 221.105469 C 145.84375 215.230469 145.539062 213.101562 145.84375 212.390625 C 146.046875 211.835938 145.894531 211.734375 145.4375 212.039062 C 144.933594 212.339844 144.832031 212.1875 145.085938 211.277344 C 145.238281 210.617188 144.933594 208.792969 144.324219 207.121094 C 143.765625 205.449219 143.460938 203.980469 143.613281 203.828125 C 143.765625 203.625 143.917969 203.878906 143.917969 204.335938 C 143.917969 205.703125 144.78125 205.753906 145.035156 204.4375 C 145.1875 203.777344 145.136719 203.273438 144.984375 203.425781 C 144.78125 203.527344 144.628906 202.714844 144.679688 201.652344 C 144.679688 198.558594 145.792969 200.128906 146.453125 204.335938 Z M 99.578125 215.835938 C 99.070312 216.394531 98.511719 216.75 98.414062 216.597656 C 98.261719 216.445312 98.5625 215.988281 99.121094 215.582031 C 100.488281 214.570312 100.640625 214.671875 99.578125 215.835938 Z M 175.238281 219.789062 C 175.589844 220.042969 175.742188 220.601562 175.539062 221.054688 C 175.136719 222.121094 174.882812 222.121094 173.5625 221.105469 C 172.703125 220.449219 172.652344 220.296875 173.3125 219.890625 C 174.222656 219.28125 174.425781 219.28125 175.238281 219.789062 Z M 92.230469 222.675781 C 91.570312 223.386719 90.8125 223.945312 90.558594 223.945312 C 90.253906 223.945312 90.558594 223.386719 91.214844 222.675781 C 91.875 221.96875 92.636719 221.410156 92.886719 221.410156 C 93.191406 221.410156 92.886719 221.96875 92.230469 222.675781 Z M 178.683594 223.539062 C 178.734375 224.097656 178.53125 224.296875 178.074219 224.097656 C 177.210938 223.792969 177.113281 222.273438 177.972656 222.523438 C 178.277344 222.625 178.582031 223.082031 178.683594 223.539062 Z M 157.042969 225.617188 C 157.09375 226.121094 156.890625 226.375 156.585938 226.222656 C 156.335938 226.070312 156.082031 225.160156 156.132812 224.296875 C 156.132812 222.929688 156.234375 222.828125 156.585938 223.691406 C 156.839844 224.246094 157.042969 225.109375 157.042969 225.617188 Z M 158.613281 224.957031 C 158.613281 225.464844 158.414062 226.070312 158.109375 226.222656 C 157.804688 226.425781 157.601562 225.871094 157.601562 224.957031 C 157.601562 224.046875 157.804688 223.488281 158.109375 223.691406 C 158.414062 223.84375 158.613281 224.449219 158.613281 224.957031 Z M 88.582031 226.070312 C 87.921875 226.933594 86.808594 227.996094 86.148438 228.453125 C 85.035156 229.214844 84.984375 229.214844 85.539062 228.148438 C 86.046875 227.1875 89.085938 224.449219 89.644531 224.449219 C 89.746094 224.449219 89.289062 225.160156 88.582031 226.070312 Z M 165 229.871094 C 167.382812 233.824219 167.433594 235.953125 165.152344 236.761719 C 164.59375 236.964844 164.085938 236.507812 163.480469 235.292969 C 162.515625 233.214844 162.464844 231.949219 163.277344 231.136719 C 163.734375 230.683594 163.734375 230.53125 163.277344 230.53125 C 162.921875 230.53125 162.667969 229.972656 162.667969 229.363281 C 162.667969 228.707031 162.515625 227.996094 162.3125 227.792969 C 162.0625 227.59375 161.910156 227.136719 161.910156 226.832031 C 161.859375 226.476562 161.605469 226.273438 161.25 226.324219 C 160.894531 226.425781 160.640625 225.96875 160.640625 225.3125 C 160.691406 224.296875 160.792969 224.347656 162.210938 225.96875 C 163.023438 226.933594 164.289062 228.707031 165 229.871094 Z M 39.019531 243.550781 C 39.019531 253.785156 39.222656 261.945312 39.425781 261.640625 C 39.679688 261.386719 41.199219 253.53125 42.820312 244.210938 C 44.441406 234.886719 45.914062 226.78125 46.164062 226.171875 C 46.519531 225.160156 46.875 225.109375 55.84375 225.058594 C 60.960938 225.007812 65.371094 225.160156 65.726562 225.363281 C 66.132812 225.617188 64.761719 231.949219 60.960938 247.808594 L 55.589844 269.847656 L 61.773438 295.941406 C 65.167969 310.277344 68.109375 322.488281 68.261719 323.097656 L 68.511719 324.261719 L 47.886719 324.261719 L 45.710938 312.710938 C 40.894531 287.074219 39.832031 281.957031 39.425781 281.449219 C 39.222656 281.195312 39.019531 290.722656 39.019531 302.628906 L 39.019531 324.261719 L 18.242188 324.261719 L 18.242188 274.964844 C 18.242188 247.808594 18.34375 225.515625 18.445312 225.414062 C 18.546875 225.3125 23.261719 225.160156 28.835938 225.109375 L 39.019531 224.957031 Z M 78.75 230.074219 C 74.644531 234.230469 73.835938 235.292969 73.683594 236.8125 C 73.582031 237.828125 73.632812 238.636719 73.785156 238.636719 C 75.152344 238.636719 79.613281 235.242188 86.402344 229.113281 C 89.441406 226.324219 89.949219 226.019531 90.304688 226.832031 C 90.507812 227.339844 92.179688 235.597656 94.003906 245.222656 C 95.828125 254.851562 97.855469 265.1875 98.460938 268.277344 L 99.578125 273.851562 L 99.730469 249.683594 L 99.832031 225.515625 L 101.503906 225.210938 C 102.464844 225.007812 106.46875 224.957031 110.523438 225.058594 L 117.820312 225.261719 L 117.972656 251.910156 L 118.074219 278.5625 L 114.324219 280.890625 C 107.988281 284.84375 102.871094 291.078125 102.871094 294.875 C 102.871094 295.28125 102.515625 295.992188 102.011719 296.496094 C 101.554688 297.003906 101.453125 297.410156 101.757812 297.410156 C 102.011719 297.410156 102.769531 296.34375 103.378906 294.976562 C 103.988281 293.660156 104.644531 292.292969 104.796875 291.886719 C 105.457031 290.722656 109.308594 288.1875 110.21875 288.390625 C 111.03125 288.542969 110.980469 288.695312 109.863281 290.0625 C 108.191406 292.089844 107.535156 294.421875 107.535156 298.421875 C 107.484375 300.90625 107.585938 301.363281 107.886719 300.195312 C 108.089844 299.335938 108.648438 297.96875 109.15625 297.15625 C 110.117188 295.484375 110.117188 295.28125 108.902344 300.703125 C 108.140625 304.148438 109.003906 307.746094 110.523438 307.289062 C 111.234375 307.035156 111.585938 307.289062 111.941406 308.152344 C 112.449219 309.46875 115.136719 311.597656 116.300781 311.597656 C 117.3125 311.597656 117.261719 312.558594 116.25 313.722656 C 115.539062 314.433594 115.539062 314.738281 116.046875 315.394531 C 116.402344 315.800781 117.011719 316.15625 117.363281 316.15625 C 117.921875 316.15625 118.074219 317.117188 118.074219 320.210938 L 118.074219 324.261719 L 96.539062 324.261719 L 95.117188 316.765625 C 90.761719 293.761719 88.074219 280.335938 87.667969 279.421875 C 87.414062 278.816406 87.210938 287.53125 87.210938 301.3125 L 87.164062 324.261719 L 69.933594 324.261719 L 69.933594 225.160156 L 76.773438 225.210938 L 83.613281 225.210938 Z M 129.222656 225.820312 C 129.425781 226.070312 131.554688 229.011719 133.988281 232.457031 L 138.394531 238.6875 L 136.671875 240.664062 C 134.644531 243.046875 132.3125 250.390625 131.097656 258.042969 C 130.640625 261.03125 129.832031 264.019531 129.019531 265.640625 C 127.398438 268.933594 124.003906 273.445312 121.519531 275.574219 L 119.59375 277.246094 L 119.59375 251.40625 C 119.59375 227.1875 119.644531 225.515625 120.507812 225.261719 C 121.722656 224.90625 128.816406 225.363281 129.222656 225.820312 Z M 281.910156 225.414062 C 282.113281 225.464844 282.261719 229.011719 282.261719 233.316406 L 282.261719 241.171875 L 272.128906 241.171875 L 272.128906 324.261719 L 251.351562 324.261719 L 251.351562 241.171875 L 240.710938 241.171875 L 240.710938 233.367188 C 240.710938 227.59375 240.863281 225.464844 241.367188 225.3125 C 241.824219 225.109375 280.1875 225.210938 281.910156 225.414062 Z M 168.496094 229.164062 C 168.292969 228.707031 168.445312 228.605469 169.003906 228.808594 C 170.015625 229.214844 171.386719 231.796875 171.285156 233.214844 C 171.132812 234.9375 171.234375 235.597656 171.6875 235.597656 C 171.890625 235.597656 171.992188 234.734375 171.890625 233.671875 C 171.789062 232.253906 171.839844 232 172.246094 232.558594 C 172.550781 232.960938 172.804688 233.875 172.804688 234.582031 C 172.804688 235.292969 173.363281 236.304688 174.222656 237.015625 L 175.589844 238.179688 L 174.121094 237.269531 C 172.296875 236.203125 171.285156 236.003906 171.285156 236.761719 C 171.285156 238.078125 170.269531 235.75 170.269531 234.433594 C 170.269531 232.757812 169.460938 231.035156 168.699219 231.035156 C 167.886719 231.035156 166.265625 228.910156 166.214844 227.84375 C 166.214844 227.085938 166.46875 227.1875 167.535156 228.351562 C 168.242188 229.113281 168.699219 229.464844 168.496094 229.164062 Z M 172.550781 251.355469 C 172.957031 253.128906 173.160156 254.699219 173.058594 254.800781 C 172.957031 254.902344 172.703125 254.292969 172.550781 253.53125 C 172.347656 252.722656 171.890625 250.949219 171.539062 249.582031 C 171.132812 248.164062 171.082031 247.351562 171.386719 247.65625 C 171.636719 247.910156 172.195312 249.632812 172.550781 251.355469 Z M 176.351562 251.101562 C 176.351562 251.65625 174.832031 250.1875 173.714844 248.566406 C 172.753906 247.148438 172.855469 247.199219 174.476562 248.921875 C 175.539062 249.933594 176.351562 250.949219 176.351562 251.101562 Z M 172.804688 278.054688 C 172.804688 278.714844 172.90625 278.765625 173.261719 278.257812 C 173.867188 277.296875 174.425781 279.574219 173.816406 280.640625 C 173.414062 281.347656 173.363281 281.347656 173.160156 280.691406 C 173.007812 280.285156 172.652344 279.167969 172.347656 278.257812 C 172.042969 277.246094 172.042969 276.738281 172.296875 276.890625 C 172.601562 277.09375 172.804688 277.597656 172.804688 278.054688 Z M 176.910156 278.003906 C 177.566406 278.816406 177.515625 278.867188 176.757812 278.207031 C 175.894531 277.546875 175.640625 277.144531 176.046875 277.144531 C 176.148438 277.144531 176.554688 277.546875 176.910156 278.003906 Z M 185.472656 282.464844 C 186.082031 282.664062 186.488281 283.171875 186.386719 283.628906 C 186.335938 284.085938 186.4375 284.792969 186.636719 285.097656 C 186.941406 285.554688 186.789062 285.65625 186.285156 285.453125 C 185.21875 285.046875 185.21875 286.058594 186.285156 286.667969 C 186.738281 286.921875 187.042969 287.277344 187.042969 287.480469 C 186.992188 287.683594 187.296875 288.1875 187.753906 288.59375 C 188.160156 289.050781 188.511719 289.203125 188.511719 289 C 188.511719 288.796875 188.917969 288.949219 189.425781 289.355469 C 189.882812 289.757812 190.945312 290.417969 191.707031 290.824219 C 192.515625 291.226562 192.871094 291.632812 192.566406 291.734375 C 191.707031 292.039062 187.90625 290.0625 186.6875 288.695312 C 185.371094 287.125 184.15625 284.84375 183.546875 282.714844 C 183.292969 281.753906 182.886719 280.488281 182.6875 279.929688 C 182.484375 279.371094 182.789062 279.625 183.34375 280.539062 C 183.902344 281.398438 184.863281 282.261719 185.472656 282.464844 Z M 124.664062 280.941406 C 124.308594 281.347656 123.851562 281.703125 123.597656 281.703125 C 123.34375 281.703125 123.292969 281.347656 123.445312 280.941406 C 123.648438 280.539062 124.105469 280.183594 124.511719 280.183594 C 125.167969 280.183594 125.167969 280.335938 124.664062 280.941406 Z M 181.164062 289 C 181.011719 290.976562 180.914062 293.507812 180.914062 294.621094 C 180.960938 297.054688 182.382812 300.144531 183.496094 300.347656 C 183.953125 300.449219 185.269531 299.691406 186.4375 298.675781 C 187.652344 297.714844 188.867188 296.902344 189.171875 296.902344 C 189.628906 296.902344 189.730469 300.550781 189.628906 310.835938 L 189.476562 324.769531 L 180.914062 324.769531 L 179.59375 322.183594 C 178.886719 320.714844 178.378906 319.042969 178.53125 318.386719 C 178.632812 317.726562 178.53125 317.320312 178.328125 317.472656 C 178.074219 317.625 177.871094 318.386719 177.871094 319.144531 C 177.871094 319.90625 177.617188 320.765625 177.261719 321.121094 C 176.859375 321.527344 176.859375 321.730469 177.210938 321.730469 C 178.023438 321.730469 178.378906 323.554688 177.667969 324.3125 C 177.261719 324.769531 177.3125 324.871094 178.023438 324.617188 C 178.9375 324.261719 179.238281 325.023438 178.328125 325.527344 C 178.023438 325.730469 177.921875 326.1875 178.074219 326.59375 C 178.226562 327 178.023438 327.453125 177.617188 327.605469 C 177.113281 327.808594 176.960938 328.316406 177.210938 329.226562 C 177.464844 330.242188 177.363281 330.445312 176.707031 330.191406 C 176.199219 329.988281 175.742188 330.394531 175.289062 331.507812 C 174.730469 332.773438 174.730469 333.078125 175.289062 333.28125 C 175.84375 333.484375 175.84375 333.585938 175.289062 333.941406 C 174.78125 334.242188 174.832031 334.445312 175.640625 334.75 C 176.402344 335.054688 176.605469 335.410156 176.402344 336.117188 C 176.097656 336.980469 175.945312 336.878906 175.085938 335.613281 C 174.578125 334.800781 173.867188 333.992188 173.511719 333.738281 C 173.007812 333.484375 173.210938 333.027344 174.171875 332.066406 C 175.289062 330.949219 175.4375 330.445312 175.1875 328.570312 C 175.085938 327.351562 175.085938 326.339844 175.289062 326.390625 C 176.300781 326.492188 176.402344 326.1875 175.539062 325.527344 C 174.578125 324.769531 174.578125 324.769531 175.589844 325.125 C 176.503906 325.429688 176.503906 325.378906 175.4375 324.007812 C 174.730469 323.097656 174.425781 322.183594 174.578125 321.527344 C 175.136719 319.601562 176.503906 316.664062 176.859375 316.664062 C 177.0625 316.664062 177.464844 315.699219 177.769531 314.484375 C 179.085938 309.316406 178.9375 308.707031 177.261719 312.457031 C 176.707031 313.773438 175.640625 315.394531 174.984375 316.105469 L 173.714844 317.421875 L 174.070312 316.15625 C 174.273438 315.445312 174.628906 314.789062 174.832031 314.636719 C 175.4375 314.230469 178.886719 306.78125 178.835938 305.972656 C 178.835938 305.566406 178.53125 305.820312 178.226562 306.53125 C 177.566406 307.898438 175.894531 309.773438 175.539062 309.46875 C 175.4375 309.367188 175.84375 308.050781 176.402344 306.582031 C 177.3125 304.148438 177.3125 303.84375 176.605469 303.285156 C 175.386719 302.425781 175.945312 299.539062 177.921875 296.648438 C 179.339844 294.574219 179.59375 293.660156 179.746094 290.621094 C 179.898438 287.125 179.898438 287.074219 179.085938 288.441406 C 178.683594 289.253906 178.175781 289.757812 178.023438 289.605469 C 177.871094 289.453125 178.226562 288.492188 178.835938 287.480469 C 179.492188 286.363281 179.847656 285.148438 179.695312 284.488281 C 179.289062 282.816406 179.949219 282.566406 180.761719 284.085938 C 181.214844 284.996094 181.367188 286.464844 181.164062 289 Z M 178.886719 284.1875 C 178.886719 284.84375 175.894531 287.78125 175.1875 287.78125 C 174.882812 287.78125 175.539062 286.871094 176.65625 285.757812 C 178.835938 283.578125 178.886719 283.527344 178.886719 284.1875 Z M 117.820312 289.808594 C 117.972656 290.0625 117.921875 290.316406 117.617188 290.316406 C 117.363281 290.316406 116.960938 290.0625 116.808594 289.808594 C 116.65625 289.503906 116.707031 289.304688 117.011719 289.304688 C 117.261719 289.304688 117.667969 289.503906 117.820312 289.808594 Z M 193.429688 293.152344 C 193.277344 293.304688 192.820312 293.355469 192.464844 293.203125 C 192.0625 293.050781 192.210938 292.898438 192.769531 292.898438 C 193.328125 292.851562 193.632812 293 193.429688 293.152344 Z M 113.714844 294.117188 C 113.511719 294.523438 113.3125 294.875 113.210938 294.875 C 113.109375 294.875 113.007812 294.523438 113.007812 294.117188 C 113.007812 293.710938 113.210938 293.355469 113.511719 293.355469 C 113.765625 293.355469 113.867188 293.710938 113.714844 294.117188 Z M 160.136719 295.128906 C 161.148438 296.394531 160.289062 303.035156 158.511719 307.238281 C 157.703125 309.214844 156.789062 311.496094 156.488281 312.355469 C 155.828125 314.230469 155.21875 315.648438 154.664062 316.664062 C 152.433594 320.613281 152.027344 321.730469 152.738281 321.730469 C 153.140625 321.730469 153.648438 321.527344 153.800781 321.222656 C 153.953125 320.96875 154.613281 320.460938 155.21875 320.109375 C 156.285156 319.550781 156.285156 319.601562 155.574219 320.460938 C 155.066406 321.121094 155.878906 320.867188 158.109375 319.652344 C 160.035156 318.589844 162.0625 317.015625 162.972656 315.800781 L 164.542969 313.722656 L 164.441406 315.800781 C 164.390625 316.964844 164.136719 318.335938 163.9375 318.839844 C 163.734375 319.347656 163.683594 320.613281 163.835938 321.679688 C 164.238281 324.820312 163.988281 324.921875 157.753906 324.667969 C 151.875 324.414062 150.609375 324.109375 151.519531 322.996094 C 151.925781 322.539062 151.773438 322.285156 151.011719 322.082031 C 149.847656 321.78125 149.695312 320.613281 150.710938 319.042969 C 151.113281 318.4375 151.570312 317.117188 151.773438 316.15625 C 151.976562 315.195312 152.585938 313.976562 153.089844 313.472656 C 153.953125 312.660156 154.308594 310.835938 154.105469 308.453125 C 154.054688 308 154.511719 307.289062 155.167969 306.832031 C 156.03125 306.226562 156.132812 306.023438 155.472656 306.023438 C 154.410156 306.023438 153.851562 305.210938 154.410156 304.351562 C 154.613281 304.046875 154.710938 303.335938 154.613281 302.78125 C 154.5625 302.273438 154.761719 301.664062 155.066406 301.464844 C 155.421875 301.261719 155.777344 300.246094 155.929688 299.183594 C 156.132812 297.460938 158.210938 294.371094 159.121094 294.371094 C 159.324219 294.371094 159.78125 294.722656 160.136719 295.128906 Z M 173.460938 306.277344 C 173.3125 306.730469 173.058594 306.984375 172.957031 306.832031 C 172.804688 306.679688 172.855469 306.378906 173.058594 306.074219 C 173.511719 305.261719 173.816406 305.414062 173.460938 306.277344 Z M 121.265625 316.5625 C 121.417969 317.371094 122.484375 318.941406 123.597656 320.058594 C 124.761719 321.171875 125.675781 322.488281 125.675781 322.894531 C 125.675781 323.351562 126.082031 323.804688 126.585938 323.90625 C 127.042969 324.058594 125.675781 324.160156 123.546875 324.210938 L 119.59375 324.261719 L 119.59375 320.058594 C 119.59375 317.726562 119.746094 315.648438 119.949219 315.496094 C 120.609375 314.839844 121.011719 315.144531 121.265625 316.5625 Z M 160.640625 317.472656 C 160.238281 317.878906 159.476562 318.488281 158.917969 318.738281 C 158.261719 319.09375 158.460938 318.789062 159.375 317.980469 C 161.097656 316.511719 161.554688 316.308594 160.640625 317.472656 Z M 149.039062 325.578125 C 148.683594 327.152344 148.582031 327.300781 148.53125 326.1875 C 148.480469 324.820312 148.988281 323.046875 149.289062 323.402344 C 149.441406 323.503906 149.289062 324.515625 149.039062 325.578125 Z M 146.300781 330.445312 C 146.199219 331.101562 146.097656 330.695312 146.097656 329.582031 C 146.046875 328.46875 146.148438 327.960938 146.300781 328.417969 C 146.402344 328.925781 146.402344 329.835938 146.300781 330.445312 Z M 144.070312 334.140625 C 144.273438 335.511719 144.222656 335.914062 143.917969 335.410156 C 143.511719 334.800781 143.414062 334.902344 143.414062 335.816406 C 143.414062 336.472656 143.613281 336.828125 143.917969 336.675781 C 144.222656 336.523438 144.273438 336.726562 144.121094 337.132812 C 143.210938 339.511719 142.246094 335.863281 143.109375 333.230469 C 143.613281 331.507812 143.714844 331.558594 144.070312 334.140625 Z M 175.085938 340.980469 C 174.984375 342.855469 174.527344 343.414062 173.664062 342.554688 C 173.363281 342.199219 173.3125 341.945312 173.5625 341.996094 C 174.882812 342.25 174.984375 341.894531 173.816406 340.933594 C 173.007812 340.273438 172.855469 339.96875 173.414062 340.171875 C 173.917969 340.324219 174.425781 340.222656 174.578125 339.96875 C 175.085938 339.160156 175.1875 339.359375 175.085938 340.980469 Z M 220.4375 378.527344 C 220.4375 378.828125 220.238281 378.878906 219.933594 378.730469 C 219.679688 378.578125 219.425781 378.171875 219.425781 377.917969 C 219.425781 377.613281 219.679688 377.5625 219.933594 377.714844 C 220.238281 377.867188 220.4375 378.273438 220.4375 378.527344 Z M 220.4375 378.527344 "/>
<path style=" stroke:none;fill-rule:nonzero;fill:rgb(0%,0%,0%);fill-opacity:1;" d="M 152.027344 166.945312 C 151.265625 167.855469 151.824219 170.746094 152.789062 170.746094 C 153.140625 170.746094 153.699219 170.390625 154.054688 169.984375 C 154.613281 169.324219 154.5625 169.273438 153.851562 169.527344 C 153.242188 169.78125 153.039062 169.527344 153.039062 168.71875 C 153.039062 167.90625 153.242188 167.703125 153.800781 167.90625 C 154.710938 168.261719 154.8125 167.652344 153.953125 166.792969 C 153.140625 165.980469 152.789062 166.03125 152.027344 166.945312 Z M 152.027344 166.945312 "/>
<path style=" stroke:none;fill-rule:nonzero;fill:rgb(0%,0%,0%);fill-opacity:1;" d="M 140.472656 185.4375 C 140.472656 186.148438 140.574219 186.398438 140.726562 186.046875 C 140.828125 185.742188 140.828125 185.132812 140.726562 184.777344 C 140.574219 184.476562 140.472656 184.726562 140.472656 185.4375 Z M 140.472656 185.4375 "/>
<path style=" stroke:none;fill-rule:nonzero;fill:rgb(0%,0%,0%);fill-opacity:1;" d="M 189.070312 256.675781 C 189.070312 257.230469 189.222656 257.382812 189.375 256.976562 C 189.527344 256.625 189.476562 256.167969 189.324219 256.015625 C 189.171875 255.8125 189.019531 256.117188 189.070312 256.675781 Z M 189.070312 256.675781 "/>
<path style=" stroke:none;fill-rule:nonzero;fill:rgb(0%,0%,0%);fill-opacity:1;" d="M 180.253906 260.421875 C 180.40625 260.980469 180.609375 261.4375 180.710938 261.4375 C 180.8125 261.4375 180.914062 260.980469 180.914062 260.421875 C 180.914062 259.867188 180.710938 259.410156 180.457031 259.410156 C 180.203125 259.410156 180.101562 259.867188 180.253906 260.421875 Z M 180.253906 260.421875 "/>
<path style=" stroke:none;fill-rule:nonzero;fill:rgb(0%,0%,0%);fill-opacity:1;" d="M 192.566406 286.261719 C 192.566406 286.820312 192.667969 287.277344 192.769531 287.277344 C 192.871094 287.277344 193.074219 286.820312 193.226562 286.261719 C 193.378906 285.707031 193.277344 285.25 193.023438 285.25 C 192.769531 285.25 192.566406 285.707031 192.566406 286.261719 Z M 192.566406 286.261719 "/>
<path style=" stroke:none;fill-rule:nonzero;fill:rgb(0%,0%,0%);fill-opacity:1;" d="M 147.820312 217.609375 C 147.617188 218.015625 147.71875 218.472656 147.972656 218.625 C 148.277344 218.828125 148.480469 218.472656 148.480469 217.914062 C 148.480469 216.648438 148.175781 216.546875 147.820312 217.609375 Z M 147.820312 217.609375 "/>
<path style=" stroke:none;fill-rule:nonzero;fill:rgb(0%,0%,0%);fill-opacity:1;" d="M 180.457031 305.3125 C 180.457031 305.871094 180.609375 306.023438 180.761719 305.617188 C 180.914062 305.261719 180.863281 304.808594 180.710938 304.65625 C 180.558594 304.453125 180.40625 304.757812 180.457031 305.3125 Z M 180.457031 305.3125 "/>
<path style=" stroke:none;fill-rule:nonzero;fill:rgb(0%,0%,0%);fill-opacity:1;" d="M 180.152344 307.035156 C 180 307.289062 180.101562 307.542969 180.355469 307.542969 C 180.660156 307.542969 180.914062 307.289062 180.914062 307.035156 C 180.914062 306.730469 180.8125 306.53125 180.710938 306.53125 C 180.558594 306.53125 180.304688 306.730469 180.152344 307.035156 Z M 180.152344 307.035156 "/>
<path style=" stroke:none;fill-rule:nonzero;fill:rgb(0%,0%,0%);fill-opacity:1;" d="M 179.644531 310.582031 C 179.492188 310.835938 179.59375 311.089844 179.847656 311.089844 C 180.152344 311.089844 180.40625 310.835938 180.40625 310.582031 C 180.40625 310.277344 180.304688 310.074219 180.203125 310.074219 C 180.050781 310.074219 179.796875 310.277344 179.644531 310.582031 Z M 179.644531 310.582031 "/>
<path style=" stroke:none;fill-rule:nonzero;fill:rgb(0%,0%,0%);fill-opacity:1;" d="M 179.746094 311.949219 C 179.339844 312.660156 178.785156 315.394531 179.085938 315.09375 C 179.492188 314.6875 180.40625 311.597656 180.152344 311.597656 C 180.050781 311.597656 179.847656 311.75 179.746094 311.949219 Z M 179.746094 311.949219 "/>
</g>
</svg>
