<?xml version="1.0" standalone="no"?>
<!DOCTYPE svg PUBLIC "-//W3C//DTD SVG 20010904//EN"
 "http://www.w3.org/TR/2001/REC-SVG-20010904/DTD/svg10.dtd">
<svg version="1.0" xmlns="http://www.w3.org/2000/svg"
 width="660.000000pt" height="450.000000pt" viewBox="0 0 660.000000 450.000000"
 preserveAspectRatio="xMidYMid meet">

<g transform="translate(0.000000,450.000000) scale(0.100000,-0.100000)"
fill="#000000" stroke="none">
<path d="M0 4295 l0 -205 270 0 270 0 0 -30 c0 -16 -5 -30 -11 -30 -17 0 -122
-71 -146 -99 -15 -17 -23 -39 -23 -63 l0 -38 -180 0 -180 0 0 -35 0 -35 189 0
189 0 7 -56 c6 -54 7 -55 25 -39 19 17 19 16 10 -16 -6 -19 -10 -44 -10 -55 0
-24 41 -69 62 -69 7 0 13 -9 13 -20 0 -11 -5 -20 -12 -20 -6 0 -15 -4 -20 -9
-5 -5 1 -7 15 -3 26 6 27 -2 11 -89 -11 -59 1 -207 21 -260 6 -13 4 -26 -3
-33 -9 -9 -8 -11 5 -6 12 5 18 18 18 38 l0 30 23 -22 c15 -13 30 -19 40 -15
20 7 24 -25 6 -43 -8 -8 -18 -4 -35 15 -19 21 -23 23 -17 7 4 -11 13 -31 20
-45 17 -34 16 -41 -4 -33 -16 6 -17 5 -3 -12 11 -13 17 -56 21 -154 4 -75 10
-146 14 -158 l7 -23 -174 0 c-96 0 -230 -3 -296 -7 l-122 -6 0 -587 0 -588 49
-108 c26 -60 103 -228 170 -374 141 -305 185 -401 271 -593 34 -76 86 -189
115 -252 l54 -115 1373 2 c1367 3 1373 3 1370 23 -2 11 -6 202 -9 425 -5 421
2 571 32 616 22 34 39 30 18 -3 -17 -28 -17 -28 3 -10 11 9 24 14 27 10 4 -3
13 10 21 29 16 38 78 98 101 98 8 0 15 9 15 20 0 27 30 40 92 40 40 0 62 -6
88 -24 52 -35 129 -64 188 -70 44 -4 52 -3 53 12 0 9 4 52 8 96 12 107 -20
316 -48 316 -3 0 -40 -18 -81 -39 -46 -25 -98 -63 -135 -100 -44 -45 -66 -61
-87 -61 -22 0 -26 4 -21 18 5 13 1 12 -19 -5 -30 -28 -40 -29 -63 -3 -10 11
-44 30 -77 41 l-58 22 0 83 c0 46 3 84 6 84 4 0 15 -10 25 -22 16 -18 19 -19
19 -4 0 11 4 14 13 9 6 -4 22 -6 35 -4 12 1 22 -2 22 -7 0 -6 7 -12 15 -16 11
-4 15 1 15 19 0 20 -5 25 -24 25 -14 0 -28 4 -31 10 -3 5 -16 10 -29 10 -12 0
-41 9 -64 20 -22 11 -47 20 -53 20 -7 0 -20 6 -28 13 -9 7 -46 26 -83 41 -36
15 -74 36 -84 47 -9 10 -22 19 -29 19 -20 0 -162 131 -224 208 l-60 73 6 -473
6 -474 -117 -32 c-64 -18 -120 -32 -125 -32 -12 0 -20 263 -27 895 -9 723 -15
921 -33 937 -11 11 -12 9 -7 -9 4 -12 0 -38 -9 -58 -18 -45 -22 -230 -4 -205
9 12 10 12 5 -3 -3 -10 -6 -21 -6 -23 0 -2 -4 -4 -10 -4 -5 0 -10 7 -10 15 0
9 -9 15 -25 15 -14 0 -25 -4 -25 -10 0 -5 -7 -10 -15 -10 -8 0 -15 7 -15 15 0
8 7 15 15 15 8 0 15 5 15 10 0 6 11 10 25 10 42 0 30 29 -15 36 -22 4 -40 10
-40 15 0 5 -18 9 -40 9 -22 0 -40 -4 -40 -10 0 -5 14 -10 31 -10 30 0 30 -1
28 -46 -4 -53 7 -64 64 -64 20 0 37 -4 37 -10 0 -5 -17 -10 -38 -10 -21 0 -47
-6 -58 -14 -19 -13 -52 -20 -84 -17 -8 1 0 8 18 16 17 8 32 19 32 25 0 6 -15
17 -32 25 -19 8 -26 14 -15 15 11 0 17 8 17 25 0 30 -19 32 -43 5 -21 -25 -62
-18 -88 14 -14 17 -19 18 -32 7 -9 -7 -19 -21 -22 -32 -9 -26 -17 -24 -38 12
l-17 31 -39 -33 c-43 -37 -49 -49 -26 -49 8 0 15 -9 15 -20 0 -11 -7 -20 -15
-20 -8 0 -15 -4 -15 -10 0 -5 5 -10 10 -10 15 0 12 -27 -3 -33 -20 -8 -65 3
-78 19 -12 15 -39 19 -39 6 0 -5 7 -17 15 -28 8 -10 15 -29 15 -41 0 -20 -5
-23 -40 -23 -34 0 -40 3 -40 20 0 12 7 32 16 46 19 28 18 31 -11 36 -18 3 -20
-2 -19 -39 1 -36 -2 -43 -19 -43 -12 0 -17 5 -14 13 3 8 8 39 12 69 8 61 -2
77 -34 56 -11 -7 -24 -8 -28 -4 -4 5 -2 11 5 13 14 6 16 39 2 48 -14 9 -12 43
2 48 10 3 10 7 0 20 -15 18 -8 37 13 37 19 0 31 48 16 63 -9 9 -14 8 -21 -3
-14 -23 -25 -2 -14 28 7 20 16 26 33 24 12 -1 32 5 44 13 21 15 21 15 -7 15
-19 0 -29 6 -33 20 -6 22 -19 26 -25 8 -3 -9 -6 -9 -12 0 -4 7 -2 12 3 12 6 0
11 7 11 16 0 12 -7 14 -32 9 -41 -9 -67 -40 -68 -80 0 -22 -3 -26 -9 -15 -6 8
-8 17 -5 21 2 4 -3 12 -11 19 -18 15 -10 31 10 23 8 -3 15 0 15 5 0 19 -17 22
-51 10 -25 -9 -34 -9 -37 0 -5 15 -48 16 -57 2 -8 -12 -95 -13 -95 -1 0 5 -13
11 -30 13 -47 7 -37 -19 13 -34 l42 -13 -85 -6 c-65 -4 -43 -6 93 -7 l177 -2
0 -182 c0 -101 7 -655 15 -1233 8 -577 15 -1147 14 -1265 0 -209 0 -214 -18
-193 -11 13 -21 46 -24 82 -4 33 -18 89 -32 123 -14 35 -32 92 -39 128 -8 36
-46 153 -85 260 -54 151 -70 187 -71 158 0 -33 -9 -48 -65 -107 -53 -55 -79
-74 -138 -99 -40 -17 -89 -33 -108 -37 -34 -6 -40 -3 -74 34 -21 23 -46 41
-55 41 -19 0 -54 44 -64 80 -4 14 -12 35 -18 47 -6 12 -7 30 -3 40 7 17 8 16
18 -4 6 -14 25 -27 46 -33 43 -12 176 -13 146 -1 -11 5 -20 17 -21 27 -3 49
-5 54 -24 54 -11 0 -20 7 -20 15 0 8 -7 15 -16 15 -11 0 -14 6 -8 23 3 12 11
27 16 34 13 16 1 33 -24 33 -14 0 -18 5 -14 15 3 8 2 24 -2 35 -7 18 -10 19
-27 6 -17 -12 -22 -12 -45 2 -49 32 -53 56 -10 71 40 13 40 35 0 26 -27 -6
-30 -4 -28 15 3 19 -3 22 -37 25 -22 2 -66 -3 -98 -11 -47 -12 -65 -12 -98 -3
-40 12 -79 53 -79 82 0 27 -12 47 -27 47 -11 0 -13 -7 -9 -25 4 -17 2 -25 -7
-25 -18 0 -63 49 -72 78 -3 12 -23 42 -43 66 -53 63 -72 89 -72 98 0 4 -11 8
-24 8 -13 0 -29 6 -35 14 -18 22 -61 106 -61 120 0 8 -11 21 -25 30 -14 9 -25
25 -25 35 0 10 -6 24 -14 30 -7 6 -21 37 -31 68 -17 55 -17 57 1 70 21 15 60
10 84 -12 8 -8 26 -41 40 -75 19 -45 41 -76 86 -118 50 -47 141 -119 164 -130
3 -1 5 67 5 150 0 173 9 209 57 229 23 9 37 10 62 1 19 -7 60 -10 97 -7 45 3
55 2 34 -4 -16 -5 -45 -9 -62 -10 -18 0 -33 -6 -33 -11 0 -7 25 -10 64 -9 62
2 64 3 70 31 10 50 83 60 122 17 13 -14 15 -30 11 -66 -8 -70 -16 -102 -33
-136 -12 -23 -14 -45 -9 -93 5 -45 3 -64 -5 -64 -6 0 -8 -5 -5 -10 4 -6 1 -18
-7 -27 -11 -15 -11 -16 7 -10 19 7 19 6 1 -7 -10 -8 -15 -19 -11 -25 3 -6 1
-12 -4 -12 -21 -3 -26 -4 -39 -13 -7 -4 -19 -3 -27 4 -19 16 -30 -22 -15 -51
12 -22 13 -22 100 -5 9 2 16 16 18 37 4 40 20 62 39 55 9 -4 21 6 31 26 9 17
29 42 45 56 15 14 27 34 27 44 0 17 39 97 61 124 5 6 18 40 29 75 11 35 25 74
32 87 23 45 98 17 98 -38 0 -31 -28 -107 -52 -142 -10 -14 -18 -36 -18 -47 0
-19 -25 -85 -51 -133 -5 -10 -9 -24 -9 -32 0 -7 -7 -19 -15 -26 -9 -7 -13 -21
-10 -30 3 -10 1 -29 -4 -44 -7 -17 -7 -26 -1 -26 6 0 10 4 10 10 0 18 130
-116 151 -156 12 -22 22 -60 23 -89 1 -44 27 -118 57 -165 5 -8 12 -22 15 -31
3 -9 16 -21 29 -27 13 -6 26 -21 29 -34 6 -28 -4 1251 -13 1562 l-6 225 -317
-4 -317 -3 6 69 c3 39 0 92 -6 123 -19 86 -27 241 -20 365 1 22 -4 97 -11 166
-13 121 -10 166 9 155 26 -16 70 87 71 165 0 23 6 39 15 43 8 3 228 6 489 6
438 1 475 3 473 18 0 9 8 48 18 85 14 54 16 70 6 76 -10 6 -9 16 3 44 9 23 11
37 4 39 -7 3 -7 19 -1 48 7 35 13 45 28 45 22 0 37 14 29 27 -3 4 -14 8 -24 8
-22 0 -39 22 -22 28 17 5 15 32 -3 32 -19 0 -19 29 0 36 8 4 15 12 15 19 0 7
-7 15 -15 19 -20 7 -20 62 0 70 8 3 22 3 30 0 23 -9 18 6 -10 28 -14 11 -23
24 -20 29 4 5 1 9 -5 9 -7 0 -9 8 -5 20 3 11 3 29 0 40 -5 16 -15 20 -56 20
l-49 0 0 -335 0 -335 -445 0 -445 0 -1 43 c-1 57 -11 88 -31 101 -24 15 -30 4
-17 -33 20 -56 -33 -80 -81 -36 -19 18 -20 18 -20 -2 0 -10 -6 -28 -14 -38 -8
-11 -12 -25 -9 -32 3 -8 -3 -13 -18 -14 l-24 0 23 -9 c12 -5 22 -14 22 -19 0
-8 -23 -9 -77 -2 -7 0 -13 11 -13 24 0 23 -16 47 -32 47 -4 0 -3 -11 2 -25 7
-20 6 -25 -5 -25 -13 0 -20 19 -16 43 3 17 -40 -15 -53 -41 -14 -25 -15 -25
-16 -5 0 12 5 23 12 25 19 7 -1 28 -27 28 -19 0 -22 4 -18 21 6 21 7 21 19 4
12 -17 14 -17 20 -1 4 9 4 20 0 23 -3 4 6 15 21 25 22 14 28 25 28 55 0 30 4
38 20 41 11 3 26 13 33 23 16 23 42 25 42 4 0 -9 9 -15 21 -15 12 0 19 5 17
12 -12 35 13 38 419 40 l398 3 3 120 c2 66 0 157 -3 203 l-7 82 -744 0 -744 0
0 -205z m612 69 c7 -7 -36 -54 -49 -54 -6 0 -20 9 -32 20 l-23 19 28 6 c16 4
34 8 39 10 17 6 31 5 37 -1z m-114 -74 c0 -29 -3 -48 -9 -45 -11 8 -12 95 -1
95 5 0 9 -23 10 -50z m83 -27 c-11 -4 -11 -7 0 -14 17 -10 5 -23 -16 -16 -24
10 -18 37 8 36 12 0 16 -3 8 -6z m-23 -88 c15 -33 15 -35 -3 -35 -8 0 -15 6
-15 14 0 8 -3 21 -6 30 -10 27 12 18 24 -9z m-26 -60 c9 -20 9 -20 -6 -1 -9
11 -16 27 -15 35 0 14 1 14 6 1 3 -8 10 -24 15 -35z m62 2 c16 -12 17 -16 5
-35 -16 -26 -25 -28 -33 -6 -4 10 -2 13 7 8 6 -4 4 2 -5 13 -10 11 -18 23 -18
26 0 12 25 8 44 -6z m-90 -138 c-31 -12 -40 -9 -20 6 10 8 24 11 29 8 6 -4 2
-10 -9 -14z m36 -19 c0 -5 -4 -10 -10 -10 -5 0 -10 5 -10 10 0 6 5 10 10 10 6
0 10 -4 10 -10z m-120 -48 c0 -10 -4 -10 -16 2 -8 9 -12 21 -8 27 7 13 24 -7
24 -29z m60 29 c0 -5 -11 -8 -25 -7 -38 4 -43 16 -7 16 18 0 32 -4 32 -9z
m347 -113 c-3 -8 -6 -5 -6 6 -1 11 2 17 5 13 3 -3 4 -12 1 -19z m-427 -8 c0
-5 -4 -10 -9 -10 -6 0 -13 5 -16 10 -3 6 1 10 9 10 9 0 16 -4 16 -10z m150
-26 c0 -9 -7 -14 -17 -12 -25 5 -28 28 -4 28 12 0 21 -6 21 -16z m260 -4 c0
-11 -4 -20 -10 -20 -5 0 -10 9 -10 20 0 11 5 20 10 20 6 0 10 -9 10 -20z
m-165 -52 c27 -12 33 -28 11 -28 -27 0 -67 20 -61 30 8 13 18 13 50 -2z m-44
-25 c53 -24 71 -43 39 -43 -26 0 -131 50 -125 60 7 11 37 5 86 -17z m-106 -15
c-9 -42 -13 -48 -31 -48 -16 0 -19 33 -4 61 6 10 18 19 26 19 12 0 14 -7 9
-32z m286 -14 l24 -27 -27 7 c-16 4 -28 2 -28 -3 0 -6 -7 -8 -16 -4 -11 4 -12
8 -4 13 9 6 9 9 1 14 -14 9 -5 26 13 26 7 0 23 -12 37 -26z m-151 -34 c38 -16
77 -30 87 -30 10 0 25 -5 33 -10 22 -14 -28 -13 -70 1 -25 9 -34 9 -40 -1 -4
-7 -12 -10 -17 -7 -6 4 -24 2 -42 -3 -19 -5 -31 -5 -31 1 0 5 8 9 17 9 15 0
15 2 -2 14 -10 7 -27 11 -37 8 -12 -3 -18 1 -18 12 0 9 1 16 3 16 1 0 20 -7
42 -15 54 -19 76 -19 51 0 -11 8 -30 15 -43 15 -13 0 -23 5 -23 10 0 16 17 12
90 -20z m-180 -61 c0 -5 5 -7 10 -4 11 7 26 -22 17 -31 -3 -3 -15 -3 -26 1
-21 6 -30 45 -11 45 6 0 10 -5 10 -11z m99 -13 c7 -6 19 -11 25 -12 50 -5 51
-6 23 -14 -16 -5 -39 -5 -50 -1 -12 5 -28 6 -36 3 -10 -3 -12 0 -8 12 4 9 2
16 -3 16 -6 0 -10 4 -10 9 0 11 40 2 59 -13z m171 -2 c0 -2 -7 -4 -15 -4 -8 0
-15 4 -15 10 0 5 7 7 15 4 8 -4 15 -8 15 -10z m-17 -14 c12 0 17 -4 12 -9 -6
-4 -27 -6 -49 -3 -26 3 -34 7 -25 13 8 5 20 7 27 4 8 -3 23 -5 35 -5z m-6 -70
c-3 -13 2 -25 16 -35 20 -14 22 -24 20 -93 -1 -42 -5 -93 -8 -112 l-7 -35 -13
31 c-7 17 -16 63 -20 102 -7 67 -9 72 -31 72 -32 0 -31 26 3 62 31 33 47 36
40 8z m-159 -153 c18 -21 27 -97 12 -97 -21 0 -39 33 -40 73 0 38 10 47 28 24z
m82 -12 c0 -8 6 -15 13 -15 8 0 7 -3 -3 -10 -11 -7 -17 -5 -22 8 -10 25 -9 32
2 32 6 0 10 -7 10 -15z m103 -191 c19 -7 22 -21 8 -43 -7 -10 -12 -10 -30 5
-23 20 -30 60 -8 50 6 -3 20 -9 30 -12z m-53 -36 c0 -47 12 -68 36 -68 13 0
24 -4 24 -10 0 -16 -47 -12 -64 6 -9 8 -16 23 -16 32 0 9 -3 27 -6 40 -5 16
-2 22 10 22 10 0 16 -9 16 -22z m-70 -98 c0 -5 -4 -10 -10 -10 -5 0 -10 5 -10
10 0 6 5 10 10 10 6 0 10 -4 10 -10z m1089 -34 c-10 -8 -73 -16 -64 -7 6 5 21
11 35 13 25 4 37 1 29 -6z m101 -42 c0 -17 -6 -24 -20 -24 -20 0 -25 15 -14
44 8 22 34 8 34 -20z m-1198 4 c-7 -7 -12 -8 -12 -2 0 14 12 26 19 19 2 -3 -1
-11 -7 -17z m138 3 c0 -25 -30 -36 -48 -17 -19 18 -7 36 24 36 17 0 24 -6 24
-19z m41 -48 c3 -43 -9 -113 -20 -113 -12 0 -31 48 -31 78 0 44 48 76 51 35z
m1470 -266 c-6 -6 -14 -7 -18 -2 -5 4 -2 10 5 12 6 3 13 12 13 21 1 14 2 14 6
-2 3 -10 0 -23 -6 -29z m-31 23 c0 -5 -11 -10 -25 -10 -14 0 -25 5 -25 10 0 6
11 10 25 10 14 0 25 -4 25 -10z m140 -20 c0 -5 -7 -10 -15 -10 -8 0 -15 5 -15
10 0 6 7 10 15 10 8 0 15 -4 15 -10z m-150 -20 c0 -5 -9 -10 -20 -10 -11 0
-20 5 -20 10 0 6 9 10 20 10 11 0 20 -4 20 -10z m307 -16 c-3 -3 -12 -4 -19
-1 -8 3 -5 6 6 6 11 1 17 -2 13 -5z m-1755 -69 c-7 -15 -8 -25 -2 -25 5 0 13
-12 16 -27 4 -16 12 -31 18 -35 24 -16 -14 -26 -129 -36 -121 -10 -141 -7
-126 16 7 12 51 20 114 21 29 1 38 20 10 22 -11 0 -13 3 -5 6 6 2 10 9 7 13
-3 5 -12 7 -19 4 -9 -4 -13 3 -13 21 0 22 2 24 15 13 12 -10 14 -10 8 0 -4 7
-1 12 9 12 9 0 24 -13 33 -30 9 -16 20 -30 25 -30 6 0 11 23 8 42 0 4 4 19 9
34 8 20 14 24 22 16 9 -9 9 -18 0 -37z m1811 39 c2 6 7 9 10 6 14 -13 11 -294
-3 -285 -5 3 -10 1 -10 -4 0 -6 -11 -11 -25 -11 -14 0 -25 4 -25 8 0 15 38 44
48 38 5 -3 10 14 10 38 1 36 -2 45 -18 49 -23 6 -27 27 -6 27 15 0 26 21 26
50 0 17 -30 40 -72 56 -10 3 -18 12 -18 19 0 9 11 10 40 5 26 -5 41 -3 43 4z
m-203 -34 c0 -11 -4 -20 -10 -20 -5 0 -10 9 -10 20 0 11 5 20 10 20 6 0 10 -9
10 -20z m-516 -24 c-3 -15 -8 -25 -11 -23 -2 3 -1 17 3 31 3 15 8 25 11 23 2
-3 1 -17 -3 -31z m-1028 -41 c4 -8 17 -15 31 -15 13 0 21 -4 18 -10 -13 -22
-75 4 -75 32 0 14 20 9 26 -7z m1431 -17 c-3 -7 -5 -2 -5 12 0 14 2 19 5 13 2
-7 2 -19 0 -25z m-1627 12 c0 -5 -7 -10 -15 -10 -8 0 -15 5 -15 10 0 6 7 10
15 10 8 0 15 -4 15 -10z m1605 -16 c21 -33 14 -40 -24 -24 -26 10 -29 15 -20
31 13 26 23 24 44 -7z m-365 1 c0 -8 -4 -15 -10 -15 -5 0 -10 7 -10 15 0 8 5
15 10 15 6 0 10 -7 10 -15z m-1456 -30 c-4 -8 -10 -15 -14 -15 -5 0 -11 -10
-13 -22 -4 -20 -4 -20 -6 4 0 16 6 31 17 37 22 13 22 13 16 -4z m563 -21 c1
-25 0 -26 -4 -4 -3 14 -10 29 -17 33 -7 6 -6 7 4 4 8 -2 16 -16 17 -33z m1387
-4 c-4 -27 -3 -40 5 -40 6 0 11 -17 11 -40 0 -22 -4 -40 -9 -40 -8 0 -12 20
-23 120 -2 14 -8 25 -15 25 -6 0 -15 3 -19 8 -4 4 7 7 24 7 32 0 32 0 26 -40z
m43 8 c-3 -8 -6 -5 -6 6 -1 11 2 17 5 13 3 -3 4 -12 1 -19z m-477 -8 c0 -5 -4
-10 -10 -10 -5 0 -10 5 -10 10 0 6 5 10 10 10 6 0 10 -4 10 -10z m-886 -39
c-6 -6 -24 19 -24 34 1 6 7 1 15 -9 8 -11 12 -22 9 -25z m-260 14 c-3 -22 -53
-35 -141 -35 -51 0 -95 4 -98 10 -3 6 3 10 13 10 11 0 33 7 48 15 33 17 180
17 178 0z m1689 -12 c-13 -2 -33 -2 -45 0 -13 2 -3 4 22 4 25 0 35 -2 23 -4z
m-2063 -14 c0 -6 -14 -22 -30 -36 -17 -13 -27 -30 -23 -35 3 -7 1 -8 -6 -4
-12 8 -9 15 24 59 21 28 35 34 35 16z m1593 4 c-7 -2 -19 -2 -25 0 -7 3 -2 5
12 5 14 0 19 -2 13 -5z m490 -62 c3 -14 0 -17 -15 -13 -10 2 -27 -3 -38 -13
-18 -16 -20 -16 -35 -1 -15 15 -14 16 10 16 14 0 28 7 31 15 9 21 41 19 47 -4z
m-537 -16 c-8 -8 -17 -15 -20 -15 -3 0 -6 7 -6 15 0 9 9 15 21 15 18 0 19 -2
5 -15z m234 -16 c0 -5 -4 -9 -10 -9 -5 0 -10 7 -10 16 0 8 5 12 10 9 6 -3 10
-10 10 -16z m388 -60 c-23 -15 -29 -10 -13 14 13 21 13 23 -5 24 -11 1 -22 -2
-25 -8 -9 -14 -42 -11 -48 5 -4 9 -1 13 7 10 7 -3 25 2 41 10 16 8 32 13 37
10 4 -3 9 1 10 8 1 7 3 -5 5 -26 3 -25 0 -42 -9 -47z m-201 55 c-3 -3 -12 -4
-19 -1 -8 3 -5 6 6 6 11 1 17 -2 13 -5z m-172 -34 c3 -5 -3 -10 -14 -10 -12 0
-21 5 -21 10 0 6 6 10 14 10 8 0 18 -4 21 -10z m165 -16 c0 -2 -9 -4 -20 -4
-11 0 -20 4 -20 9 0 5 9 7 20 4 11 -3 20 -7 20 -9z m-470 -20 c0 -8 -4 -12
-10 -9 -5 3 -10 10 -10 16 0 5 5 9 10 9 6 0 10 -7 10 -16z m170 -3 c0 -12 -39
-25 -48 -16 -7 7 17 25 36 25 6 0 12 -4 12 -9z m517 -53 c-2 -13 -4 -3 -4 22
0 25 2 35 4 23 2 -13 2 -33 0 -45z m-17 17 c0 -9 -6 -12 -16 -8 -13 5 -13 7
-2 14 17 11 18 11 18 -6z m-240 -35 c0 -5 -6 -10 -14 -10 -8 0 -18 5 -21 10
-3 6 3 10 14 10 12 0 21 -4 21 -10z m240 0 c0 -5 -7 -10 -15 -10 -8 0 -15 5
-15 10 0 6 7 10 15 10 8 0 15 -4 15 -10z m-417 -47 c-13 -2 -33 -2 -45 0 -13
2 -3 4 22 4 25 0 35 -2 23 -4z m112 -13 c3 -5 1 -10 -4 -10 -6 0 -11 5 -11 10
0 6 2 10 4 10 3 0 8 -4 11 -10z m65 0 c0 -5 -5 -10 -11 -10 -5 0 -7 5 -4 10 3
6 8 10 11 10 2 0 4 -4 4 -10z m260 -27 c0 -12 -3 -14 -8 -7 -4 7 -16 14 -27
17 -15 4 -14 5 8 6 20 1 27 -4 27 -16z m-1790 -13 c22 -14 12 -17 -77 -23 -86
-5 -116 8 -40 17 45 6 89 13 97 14 3 1 12 -2 20 -8z m1710 0 c0 -5 -4 -10 -10
-10 -5 0 -10 5 -10 10 0 6 5 10 10 10 6 0 10 -4 10 -10z m-1327 -20 c31 0 38
-3 27 -10 -20 -13 -117 -13 -125 0 -12 19 5 30 31 20 14 -6 44 -10 67 -10z
m1130 13 c-13 -2 -33 -2 -45 0 -13 2 -3 4 22 4 25 0 35 -2 23 -4z m-1893 -63
c0 -11 -103 -33 -132 -28 -15 3 -4 8 32 16 30 7 62 17 70 22 15 9 30 5 30 -10z
m2165 -20 c3 -5 1 -10 -4 -10 -6 0 -11 5 -11 10 0 6 2 10 4 10 3 0 8 -4 11
-10z m-8 -72 c-3 -7 -5 -2 -5 12 0 14 2 19 5 13 2 -7 2 -19 0 -25z m-120 -684
c-3 -3 -12 -4 -19 -1 -8 3 -5 6 6 6 11 1 17 -2 13 -5z m-1617 -51 l25 -27 -32
19 c-18 11 -33 23 -33 27 0 15 15 8 40 -19z m79 -31 c0 -4 -4 -15 -8 -25 -7
-18 -8 -18 -21 -1 -8 10 -10 15 -4 11 6 -3 11 0 11 7 0 8 -6 12 -14 9 -13 -5
-18 9 -7 20 8 7 44 -10 43 -21z m1603 16 c-9 -9 -15 -9 -24 0 -9 9 -7 12 12
12 19 0 21 -3 12 -12z m-42 -18 c-8 -5 -19 -10 -25 -10 -5 0 -3 5 5 10 8 5 20
10 25 10 6 0 3 -5 -5 -10z m-40 -21 c0 -14 -17 -10 -23 5 -4 10 -1 13 9 9 7
-3 14 -9 14 -14z m-69 -62 c-10 -9 -11 -8 -5 6 3 10 9 15 12 12 3 -3 0 -11 -7
-18z m-28 -37 c-3 -12 -8 -19 -11 -16 -5 6 5 36 12 36 2 0 2 -9 -1 -20z m-30
-60 c-5 -19 -23 -29 -23 -12 0 7 20 32 26 32 1 0 0 -9 -3 -20z m-48 -80 c3 -5
1 -10 -4 -10 -6 0 -11 5 -11 10 0 6 2 10 4 10 3 0 8 -4 11 -10z m-25 -24 c0
-3 -4 -8 -10 -11 -5 -3 -10 -1 -10 4 0 6 5 11 10 11 6 0 10 -2 10 -4z m-30
-46 c0 -5 -4 -10 -10 -10 -5 0 -10 5 -10 10 0 6 5 10 10 10 6 0 10 -4 10 -10z
m-13 -52 c-3 -8 -6 -5 -6 6 -1 11 2 17 5 13 3 -3 4 -12 1 -19z m-2 -28 c-3 -5
-11 -10 -16 -10 -6 0 -7 5 -4 10 3 6 11 10 16 10 6 0 7 -4 4 -10z m-84 -88
c-4 -10 -11 -24 -14 -32 -2 -8 -4 1 -3 21 1 24 5 35 13 32 8 -3 10 -11 4 -21z"/>
<path d="M2560 2510 c0 -5 5 -10 11 -10 5 0 7 5 4 10 -3 6 -8 10 -11 10 -2 0
-4 -4 -4 -10z"/>
<path d="M2094 4484 c3 -9 6 -20 6 -25 0 -17 17 -1 23 21 4 15 0 20 -15 20
-14 0 -18 -5 -14 -16z"/>
<path d="M2260 4492 c0 -4 7 -18 16 -30 15 -22 44 -30 44 -12 0 6 -4 10 -9 10
-5 0 -13 9 -16 20 -6 19 -35 29 -35 12z"/>
<path d="M2401 4460 c0 -40 2 -42 11 -22 8 16 8 28 0 45 -9 19 -11 17 -11 -23z"/>
<path d="M2450 4485 c0 -10 8 -14 22 -12 32 5 35 27 4 27 -16 0 -26 -6 -26
-15z"/>
<path d="M2615 4480 c-15 -16 -16 -24 -6 -47 6 -16 11 -53 11 -83 1 -191 4
-261 11 -266 5 -3 4 -14 -1 -25 -8 -14 -8 -21 2 -24 10 -4 12 -28 10 -92 -3
-60 0 -88 9 -93 16 -11 3 -41 -15 -34 -8 3 -17 1 -20 -5 -8 -12 28 -33 39 -23
4 4 0 -5 -9 -20 -20 -31 -14 -48 15 -48 12 0 17 4 14 11 -4 6 -13 8 -21 5 -8
-3 -14 -1 -14 4 0 4 13 11 30 15 31 7 54 -1 45 -14 -2 -5 6 -6 18 -4 12 2 51
-1 87 -6 l65 -8 -85 -3 c-62 -2 -77 -4 -55 -10 l30 -8 -27 -1 c-18 -1 -28 -7
-28 -16 0 -11 11 -15 40 -15 29 0 40 4 40 15 0 13 4 14 22 4 l22 -12 -22 -17
c-12 -10 -22 -23 -22 -29 0 -18 45 -12 67 9 21 19 21 19 37 -3 l15 -22 21 25
c11 14 19 35 17 47 -3 14 0 20 9 16 7 -2 14 -17 16 -31 5 -42 51 -43 94 -1 25
24 31 35 21 42 -8 6 -4 7 11 4 16 -4 33 3 56 24 19 16 40 29 47 30 8 0 28 9
44 20 17 10 39 23 50 28 13 6 -91 10 -302 10 l-323 1 0 153 c0 85 -3 236 -7
335 -5 162 -8 182 -23 182 -9 0 -25 -9 -35 -20z m431 -735 c14 -13 14 -15 0
-15 -9 0 -16 4 -16 10 0 5 -57 11 -137 13 l-138 3 138 2 c112 2 141 -1 153
-13z m-56 -21 c0 -2 -7 -4 -15 -4 -8 0 -15 4 -15 10 0 5 7 7 15 4 8 -4 15 -8
15 -10z"/>
<path d="M2937 4298 c3 -112 7 -205 9 -207 3 -3 2826 25 3179 32 l110 2 -1 40
c-1 22 -2 106 -3 188 l-1 147 -1649 0 -1649 0 5 -202z"/>
<path d="M6498 4186 l5 -314 -434 -6 c-239 -4 -735 -11 -1102 -15 -368 -5
-671 -11 -674 -14 -2 -3 26 -20 64 -38 105 -51 291 -213 350 -307 9 -15 26
-38 38 -52 11 -14 42 -71 68 -125 27 -55 53 -108 58 -117 5 -10 9 -27 9 -37 0
-11 5 -23 10 -26 6 -3 10 -24 10 -45 0 -21 5 -42 10 -45 6 -3 10 -25 10 -47
l0 -41 759 7 759 6 6 -407 c3 -225 8 -516 11 -648 3 -132 7 -494 11 -805 3
-311 7 -593 9 -627 3 -70 -2 -74 -50 -45 -16 10 -43 22 -59 26 -32 8 -101 53
-128 82 -18 20 -26 331 -44 1584 -3 245 -7 474 -8 510 l-1 65 -595 -3 c-327
-2 -612 -5 -632 -8 l-38 -6 0 -67 c0 -37 -4 -71 -8 -77 -5 -5 -14 -36 -21 -69
-7 -33 -17 -67 -22 -75 -5 -8 -12 -22 -15 -30 -3 -8 -15 -34 -25 -57 -10 -24
-19 -49 -19 -57 0 -7 -7 -19 -15 -26 -8 -7 -15 -18 -15 -24 0 -6 -17 -34 -38
-61 -20 -28 -50 -70 -67 -94 -16 -24 -54 -65 -84 -90 -29 -25 -73 -63 -96 -83
-23 -21 -45 -38 -49 -38 -4 0 -24 -12 -43 -27 -20 -16 -39 -26 -42 -23 -3 3
-5 -11 -3 -30 2 -27 -5 -46 -33 -85 -72 -100 -135 -213 -173 -311 -45 -115
-131 -405 -196 -654 -25 -96 -72 -264 -106 -374 -33 -109 -63 -220 -66 -247
l-7 -49 1412 0 1411 0 0 2230 0 2230 -53 0 -54 0 5 -314z m-796 -2948 c25 -38
31 -68 15 -68 -20 0 -33 19 -42 58 -8 37 6 42 27 10z m-1456 -185 c-11 -11
-19 6 -11 24 8 17 8 17 12 0 3 -10 2 -21 -1 -24z m-6 -57 c0 -3 -7 -12 -16
-20 -17 -18 -44 -21 -44 -6 0 6 9 10 19 10 11 0 23 5 26 10 6 10 15 13 15 6z
m-57 -121 c-8 -22 -22 -18 -16 5 3 11 9 17 14 15 4 -3 6 -12 2 -20z m37 -30
c0 -8 -4 -15 -10 -15 -5 0 -7 7 -4 15 4 8 8 15 10 15 2 0 4 -7 4 -15z m-40
-30 c0 -8 -4 -15 -9 -15 -13 0 -22 16 -14 24 11 11 23 6 23 -9z m757 -400 c3
-9 3 -18 1 -21 -9 -8 -235 -51 -426 -80 -193 -29 -217 -28 -191 14 18 28 69
39 274 57 94 8 199 21 235 29 86 19 100 19 107 1z"/>
<path d="M1916 4451 c4 -14 1 -26 -6 -31 -7 -4 -8 -10 -4 -13 5 -3 14 1 20 7
9 9 8 19 -3 37 l-14 24 7 -24z"/>
<path d="M2450 4435 c0 -8 5 -15 10 -15 6 0 10 -18 10 -40 0 -33 -3 -40 -20
-40 -13 0 -20 -7 -20 -20 0 -20 1 -20 25 -4 20 13 25 24 25 59 l0 43 42 -6
c41 -5 42 -5 24 13 -14 14 -20 15 -26 5 -6 -10 -13 -9 -31 4 -29 20 -39 20
-39 1z"/>
<path d="M2160 4430 c0 -5 5 -10 10 -10 6 0 10 5 10 10 0 6 -4 10 -10 10 -5 0
-10 -4 -10 -10z"/>
<path d="M2220 4430 c0 -5 5 -10 10 -10 6 0 10 5 10 10 0 6 -4 10 -10 10 -5 0
-10 -4 -10 -10z"/>
<path d="M2291 4411 c-16 -10 -6 -31 15 -31 17 0 19 -26 2 -33 -7 -3 -3 -6 10
-6 19 -1 22 4 22 39 0 41 -16 52 -49 31z"/>
<path d="M2063 4360 c-31 -13 -29 -20 7 -20 20 0 30 5 30 15 0 17 -5 18 -37 5z"/>
<path d="M2127 4304 c-9 -10 2 -24 19 -24 8 0 14 7 14 15 0 15 -21 21 -33 9z"/>
<path d="M2130 4250 c0 -5 7 -10 15 -10 8 0 15 5 15 10 0 6 -7 10 -15 10 -8 0
-15 -4 -15 -10z"/>
<path d="M2495 4250 c-3 -6 -3 -19 0 -31 5 -16 10 -18 21 -8 7 6 21 9 29 5 10
-4 15 1 15 14 0 12 -5 17 -14 14 -8 -3 -17 -1 -21 5 -8 14 -22 14 -30 1z"/>
<path d="M1900 4225 c0 -8 5 -15 10 -15 6 0 10 7 10 15 0 8 -4 15 -10 15 -5 0
-10 -7 -10 -15z"/>
<path d="M2300 4150 c0 -5 5 -10 10 -10 6 0 10 5 10 10 0 6 -4 10 -10 10 -5 0
-10 -4 -10 -10z"/>
<path d="M2035 4139 c-4 -6 -5 -13 -2 -16 8 -7 47 7 47 18 0 13 -37 11 -45 -2z"/>
<path d="M2307 4064 c-14 -14 -6 -24 19 -24 16 0 24 5 22 13 -5 14 -31 21 -41
11z"/>
<path d="M2580 4050 c0 -5 5 -10 11 -10 5 0 7 5 4 10 -3 6 -8 10 -11 10 -2 0
-4 -4 -4 -10z"/>
<path d="M738 4023 c24 -17 30 -35 8 -27 -8 3 -17 1 -20 -4 -3 -5 3 -12 14
-15 22 -6 60 2 60 12 0 8 -64 51 -76 50 -5 0 1 -7 14 -16z"/>
<path d="M640 4000 c0 -5 5 -10 10 -10 6 0 10 -11 10 -25 0 -14 5 -25 10 -25
14 0 13 43 -2 58 -15 15 -28 16 -28 2z"/>
<path d="M695 3990 c-3 -5 -1 -10 4 -10 6 0 11 5 11 10 0 6 -2 10 -4 10 -3 0
-8 -4 -11 -10z"/>
<path d="M1907 3966 c-4 -10 -5 -21 -2 -24 9 -9 17 6 13 25 -3 17 -4 17 -11
-1z"/>
<path d="M2440 3960 c0 -13 11 -13 30 0 12 8 11 10 -7 10 -13 0 -23 -4 -23
-10z"/>
<path d="M566 3945 c-3 -9 1 -18 10 -22 19 -7 28 2 21 22 -8 19 -23 19 -31 0z"/>
<path d="M2255 3900 c0 -22 4 -40 8 -40 5 0 5 -9 2 -20 -5 -16 -2 -20 15 -20
17 0 20 4 14 18 -4 9 -9 36 -12 60 -5 54 -27 56 -27 2z"/>
<path d="M3670 3785 c-110 -23 -143 -32 -200 -53 -150 -54 -257 -120 -362
-226 -43 -43 -78 -82 -78 -87 0 -5 308 -9 770 -9 424 0 770 3 770 8 0 18 -181
184 -245 224 -76 48 -178 98 -198 98 -7 0 -17 4 -22 9 -6 5 -28 11 -50 14 -22
3 -60 10 -85 15 -81 19 -230 22 -300 7z"/>
<path d="M2321 3764 c0 -11 3 -14 6 -6 3 7 2 16 -1 19 -3 4 -6 -2 -5 -13z"/>
<path d="M2380 3770 c0 -5 11 -12 25 -15 14 -3 36 -7 50 -10 14 -3 25 -1 25 5
0 5 -18 10 -40 10 -22 0 -40 5 -40 10 0 6 -4 10 -10 10 -5 0 -10 -4 -10 -10z"/>
<path d="M2205 3740 c3 -5 11 -10 16 -10 6 0 7 5 4 10 -3 6 -11 10 -16 10 -6
0 -7 -4 -4 -10z"/>
<path d="M876 3731 c-4 -5 3 -7 14 -4 23 6 26 13 6 13 -8 0 -17 -4 -20 -9z"/>
<path d="M1768 3733 c6 -2 18 -2 25 0 6 3 1 5 -13 5 -14 0 -19 -2 -12 -5z"/>
<path d="M988 3723 c6 -2 18 -2 25 0 6 3 1 5 -13 5 -14 0 -19 -2 -12 -5z"/>
<path d="M1418 3723 c6 -2 18 -2 25 0 6 3 1 5 -13 5 -14 0 -19 -2 -12 -5z"/>
<path d="M1568 3723 c6 -2 18 -2 25 0 6 3 1 5 -13 5 -14 0 -19 -2 -12 -5z"/>
<path d="M1728 3713 c6 -2 18 -2 25 0 6 3 1 5 -13 5 -14 0 -19 -2 -12 -5z"/>
<path d="M2305 3670 c-3 -5 -1 -10 4 -10 6 0 11 5 11 10 0 6 -2 10 -4 10 -3 0
-8 -4 -11 -10z"/>
<path d="M882 3640 c0 -14 2 -19 5 -12 2 6 2 18 0 25 -3 6 -5 1 -5 -13z"/>
<path d="M2320 3632 c0 -7 -8 -12 -17 -13 -15 0 -15 -2 2 -9 25 -10 44 5 27
22 -9 9 -12 9 -12 0z"/>
<path d="M2952 3622 c-7 -2 -12 -10 -12 -18 0 -8 -9 -14 -20 -14 -11 0 -20 7
-20 15 0 8 -4 15 -10 15 -5 0 -10 -18 -10 -40 0 -39 1 -40 35 -40 19 0 35 4
35 9 0 6 14 23 31 39 l31 29 -24 5 c-13 2 -29 3 -36 0z"/>
<path d="M2058 3613 c7 -3 16 -2 19 1 4 3 -2 6 -13 5 -11 0 -14 -3 -6 -6z"/>
<path d="M160 3586 c0 -9 5 -16 10 -16 6 0 10 4 10 9 0 6 -4 13 -10 16 -5 3
-10 -1 -10 -9z"/>
<path d="M2730 3500 c0 -33 3 -40 20 -40 17 0 20 7 20 40 0 33 -3 40 -20 40
-17 0 -20 -7 -20 -40z"/>
<path d="M2188 3463 c6 -2 18 -2 25 0 6 3 1 5 -13 5 -14 0 -19 -2 -12 -5z"/>
<path d="M1360 3444 c0 -8 5 -12 10 -9 6 3 10 10 10 16 0 5 -4 9 -10 9 -5 0
-10 -7 -10 -16z"/>
<path d="M2830 3395 c-8 -9 -8 -15 -2 -15 12 0 26 19 19 26 -2 2 -10 -2 -17
-11z"/>
<path d="M1578 3373 c7 -3 16 -2 19 1 4 3 -2 6 -13 5 -11 0 -14 -3 -6 -6z"/>
<path d="M2378 3373 c7 -3 16 -2 19 1 4 3 -2 6 -13 5 -11 0 -14 -3 -6 -6z"/>
<path d="M2800 3344 c0 -8 5 -12 10 -9 6 3 10 10 10 16 0 5 -4 9 -10 9 -5 0
-10 -7 -10 -16z"/>
<path d="M2320 3336 c0 -9 5 -16 10 -16 6 0 10 4 10 9 0 6 -4 13 -10 16 -5 3
-10 -1 -10 -9z"/>
<path d="M2578 3343 c12 -2 32 -2 45 0 12 2 2 4 -23 4 -25 0 -35 -2 -22 -4z"/>
<path d="M195 3331 c-6 -11 9 -23 19 -14 9 9 7 23 -3 23 -6 0 -12 -4 -16 -9z"/>
<path d="M2396 3323 c-6 -14 -5 -15 5 -6 7 7 10 15 7 18 -3 3 -9 -2 -12 -12z"/>
<path d="M2080 3300 c0 -5 7 -10 15 -10 8 0 15 5 15 10 0 6 -7 10 -15 10 -8 0
-15 -4 -15 -10z"/>
<path d="M2610 3296 c0 -2 7 -9 15 -16 12 -10 15 -10 15 4 0 9 -7 16 -15 16
-8 0 -15 -2 -15 -4z"/>
<path d="M2964 3286 c-6 -15 77 -172 108 -206 18 -20 36 -20 731 -20 556 0
717 3 728 13 14 11 89 129 119 186 10 19 9 25 -1 32 -8 5 -389 9 -847 9 -714
0 -833 -2 -838 -14z"/>
<path d="M2480 3260 c0 -11 5 -20 10 -20 6 0 10 9 10 20 0 11 -4 20 -10 20 -5
0 -10 -9 -10 -20z"/>
<path d="M2397 3254 c-11 -11 3 -24 18 -18 8 4 12 10 9 15 -6 11 -18 12 -27 3z"/>
<path d="M2400 3205 c0 -11 11 -15 40 -15 29 0 40 4 40 15 0 11 -11 15 -40 15
-29 0 -40 -4 -40 -15z"/>
<path d="M1840 3194 c0 -8 5 -12 10 -9 6 4 8 11 5 16 -9 14 -15 11 -15 -7z"/>
<path d="M1905 3201 c-3 -5 -1 -12 5 -16 5 -3 10 1 10 9 0 18 -6 21 -15 7z"/>
<path d="M1920 3155 c0 -8 7 -15 16 -15 14 0 14 3 4 15 -7 8 -14 15 -16 15 -2
0 -4 -7 -4 -15z"/>
<path d="M2510 3155 c0 -8 4 -15 9 -15 5 0 16 -3 25 -6 26 -10 18 12 -9 24
-21 10 -25 9 -25 -3z"/>
<path d="M2620 3155 c-10 -12 -10 -15 4 -15 9 0 16 7 16 15 0 8 -2 15 -4 15
-2 0 -9 -7 -16 -15z"/>
<path d="M1760 3125 c0 -8 5 -15 10 -15 6 0 10 7 10 15 0 8 -4 15 -10 15 -5 0
-10 -7 -10 -15z"/>
<path d="M2857 3083 c-36 -116 -41 -152 -41 -298 1 -154 4 -176 56 -330 41
-125 135 -281 227 -378 111 -118 357 -250 504 -272 80 -12 75 4 -71 245 -52
85 -104 171 -114 190 -11 19 -24 40 -28 45 -4 6 -19 31 -34 58 -55 99 -80 142
-192 334 -64 109 -125 213 -136 232 -11 19 -35 59 -54 88 -19 29 -34 56 -34
58 0 14 -46 75 -57 75 -6 0 -18 -21 -26 -47z"/>
<path d="M4698 3088 c-14 -18 -37 -54 -52 -80 l-27 -48 -724 0 c-738 0 -738 0
-740 -35 -1 -5 5 -18 13 -27 14 -17 61 -18 714 -18 384 0 698 -2 698 -4 0 -2
-25 -45 -55 -95 -30 -51 -55 -94 -55 -96 0 -3 -20 -36 -45 -75 -25 -39 -45
-73 -45 -76 0 -3 -16 -30 -35 -60 -19 -30 -35 -57 -35 -60 0 -3 -8 -18 -19
-32 -10 -15 -29 -47 -43 -72 -14 -25 -69 -119 -123 -210 -54 -91 -106 -180
-116 -198 -11 -18 -26 -44 -35 -57 -33 -50 5 -54 136 -13 138 42 294 143 410
264 119 125 187 244 247 438 32 102 43 310 22 421 -16 86 -41 157 -56 162 -6
2 -22 -11 -35 -29z"/>
<path d="M2380 3100 c0 -5 5 -10 10 -10 6 0 10 5 10 10 0 6 -4 10 -10 10 -5 0
-10 -4 -10 -10z"/>
<path d="M2480 3100 c0 -5 5 -10 10 -10 6 0 10 5 10 10 0 6 -4 10 -10 10 -5 0
-10 -4 -10 -10z"/>
<path d="M2220 3075 c-10 -12 -10 -15 4 -15 9 0 16 7 16 15 0 8 -2 15 -4 15
-2 0 -9 -7 -16 -15z"/>
<path d="M510 3070 c-9 -6 -10 -10 -3 -10 6 0 15 5 18 10 8 12 4 12 -15 0z"/>
<path d="M945 3060 c3 -5 8 -10 11 -10 2 0 4 5 4 10 0 6 -5 10 -11 10 -5 0 -7
-4 -4 -10z"/>
<path d="M2320 3059 c0 -5 5 -7 10 -4 6 3 10 8 10 11 0 2 -4 4 -10 4 -5 0 -10
-5 -10 -11z"/>
<path d="M1815 3050 c3 -5 10 -10 16 -10 5 0 9 5 9 10 0 6 -7 10 -16 10 -8 0
-12 -4 -9 -10z"/>
<path d="M2160 3050 c0 -5 7 -10 15 -10 8 0 15 5 15 10 0 6 -7 10 -15 10 -8 0
-15 -4 -15 -10z"/>
<path d="M2577 3043 c-15 -17 -15 -20 4 -31 17 -11 25 -11 45 3 27 17 32 35
10 35 -8 0 -21 2 -28 5 -8 3 -22 -2 -31 -12z"/>
<path d="M2386 3041 c-4 -7 -5 -15 -2 -18 9 -9 19 4 14 18 -4 11 -6 11 -12 0z"/>
<path d="M1538 3023 c12 -2 32 -2 45 0 12 2 2 4 -23 4 -25 0 -35 -2 -22 -4z"/>
<path d="M2320 3000 c0 -15 5 -20 18 -18 9 2 17 10 17 18 0 8 -8 16 -17 18
-13 2 -18 -3 -18 -18z"/>
<path d="M2140 2995 c0 -8 5 -15 10 -15 6 0 10 7 10 15 0 8 -4 15 -10 15 -5 0
-10 -7 -10 -15z"/>
<path d="M2270 2990 c0 -5 -7 -10 -15 -10 -12 0 -11 -4 5 -20 37 -37 71 -21
40 18 -20 24 -30 28 -30 12z"/>
<path d="M2480 2990 c0 -5 12 -10 26 -10 14 0 23 4 19 10 -3 6 -15 10 -26 10
-10 0 -19 -4 -19 -10z"/>
<path d="M2682 2980 c0 -14 2 -19 5 -12 2 6 2 18 0 25 -3 6 -5 1 -5 -13z"/>
<path d="M115 2980 c-8 -13 15 -13 35 0 12 8 11 10 -7 10 -12 0 -25 -4 -28
-10z"/>
<path d="M1266 2983 c-13 -14 -5 -23 19 -21 14 1 25 3 25 5 0 7 -38 21 -44 16z"/>
<path d="M2377 2983 c-4 -3 -7 -24 -7 -45 0 -27 4 -38 15 -38 11 0 15 12 15
45 0 42 -7 54 -23 38z"/>
<path d="M248 2973 c7 -3 16 -2 19 1 4 3 -2 6 -13 5 -11 0 -14 -3 -6 -6z"/>
<path d="M328 2973 c7 -3 16 -2 19 1 4 3 -2 6 -13 5 -11 0 -14 -3 -6 -6z"/>
<path d="M838 2973 c7 -3 16 -2 19 1 4 3 -2 6 -13 5 -11 0 -14 -3 -6 -6z"/>
<path d="M1020 2970 c-13 -8 -12 -10 3 -10 9 0 17 5 17 10 0 12 -1 12 -20 0z"/>
<path d="M1180 2972 c0 -4 11 -9 26 -10 14 -1 23 2 19 8 -7 12 -45 14 -45 2z"/>
<path d="M2000 2970 c0 -5 6 -10 14 -10 8 0 18 5 21 10 3 6 -3 10 -14 10 -12
0 -21 -4 -21 -10z"/>
<path d="M530 2960 c-23 -7 -23 -8 -3 -9 12 -1 24 -7 26 -13 3 -7 6 -3 6 10 1
12 0 22 -1 21 -2 -1 -14 -5 -28 -9z"/>
<path d="M230 2950 c10 -6 -5 -10 -50 -13 -56 -3 -52 -3 25 -5 87 -1 89 -1 56
13 -38 17 -53 19 -31 5z"/>
<path d="M283 2953 c9 -2 23 -2 30 0 6 3 -1 5 -18 5 -16 0 -22 -2 -12 -5z"/>
<path d="M388 2953 c17 -2 47 -2 65 0 17 2 3 4 -33 4 -36 0 -50 -2 -32 -4z"/>
<path d="M816 2945 c4 -8 8 -15 10 -15 2 0 4 7 4 15 0 8 -4 15 -10 15 -5 0 -7
-7 -4 -15z"/>
<path d="M850 2945 c0 -8 5 -15 10 -15 6 0 10 7 10 15 0 8 -4 15 -10 15 -5 0
-10 -7 -10 -15z"/>
<path d="M2068 2953 c-24 -6 -23 -30 1 -43 11 -5 53 -10 95 -10 47 0 76 -4 78
-11 3 -8 16 -9 43 -4 l40 9 -40 5 c-25 4 -35 9 -27 14 36 24 -17 43 -59 21
-39 -20 -72 -18 -87 6 -12 20 -14 21 -44 13z"/>
<path d="M2624 2948 c-3 -4 1 -8 8 -8 7 0 23 -3 36 -6 12 -4 22 -2 22 4 0 12
-59 22 -66 10z"/>
<path d="M898 2943 c12 -2 32 -2 45 0 12 2 2 4 -23 4 -25 0 -35 -2 -22 -4z"/>
<path d="M1073 2943 c54 -2 139 -2 190 0 51 1 7 3 -98 3 -104 0 -146 -2 -92
-3z"/>
<path d="M18 2933 c12 -2 30 -2 40 0 9 3 -1 5 -23 4 -22 0 -30 -2 -17 -4z"/>
<path d="M88 2933 c7 -3 16 -2 19 1 4 3 -2 6 -13 5 -11 0 -14 -3 -6 -6z"/>
<path d="M363 2933 c26 -2 68 -2 95 0 26 2 4 3 -48 3 -52 0 -74 -1 -47 -3z"/>
<path d="M2564 2895 c-3 -8 -4 -20 -2 -27 3 -7 7 -1 10 15 6 29 1 36 -8 12z"/>
<path d="M1892 2854 c9 -9 21 -13 27 -10 20 13 11 26 -16 26 -25 0 -26 -1 -11
-16z"/>
<path d="M2280 2835 c-11 -13 -8 -15 14 -15 16 0 26 5 26 15 0 8 -6 15 -14 15
-7 0 -19 -7 -26 -15z"/>
<path d="M2103 2809 c11 -7 23 -7 35 0 14 9 11 10 -18 10 -29 0 -32 -1 -17
-10z"/>
<path d="M2370 2806 c0 -12 11 -13 55 -9 38 4 55 2 55 -6 0 -6 17 -11 40 -11
27 0 40 4 40 14 0 9 -20 15 -61 20 -98 10 -129 8 -129 -8z"/>
<path d="M1870 2774 c0 -8 5 -12 10 -9 6 4 8 11 5 16 -9 14 -15 11 -15 -7z"/>
<path d="M3257 2783 c-3 -5 -2 -15 2 -23 6 -14 159 -274 317 -535 74 -123 83
-139 169 -288 33 -57 56 -87 68 -87 9 0 17 5 17 10 0 6 11 29 26 51 14 22 33
55 43 72 10 18 62 106 115 196 53 90 96 165 96 167 0 2 21 36 47 76 91 141
204 342 199 355 -4 11 -109 13 -550 13 -300 0 -547 -3 -549 -7z"/>
<path d="M2095 2770 c-8 -13 20 -24 41 -16 20 8 9 26 -16 26 -10 0 -22 -5 -25
-10z"/>
<path d="M2320 2744 c0 -31 23 -28 28 4 2 15 -2 22 -12 22 -11 0 -16 -9 -16
-26z"/>
<path d="M1840 2731 c0 -19 23 -71 31 -71 5 0 9 18 9 40 0 33 -3 40 -20 40
-11 0 -20 -4 -20 -9z"/>
<path d="M1948 2728 c9 -9 15 -9 24 0 9 9 7 12 -12 12 -19 0 -21 -3 -12 -12z"/>
<path d="M1913 2665 c0 -22 2 -30 4 -17 2 12 2 30 0 40 -3 9 -5 -1 -4 -23z"/>
<path d="M720 1785 c0 -25 -4 -45 -8 -45 -5 0 -15 -18 -22 -41 -12 -34 -12
-48 0 -87 19 -68 23 -144 8 -155 -9 -6 -6 -7 10 -4 12 3 20 2 18 -2 -3 -4 -1
-13 4 -21 6 -10 15 -8 41 14 31 26 32 31 30 87 -1 32 2 83 8 112 5 28 12 81
15 116 l6 64 -40 -6 c-22 -3 -43 -1 -46 4 -13 22 -24 6 -24 -36z"/>
<path d="M3610 1526 c0 -2 8 -10 18 -17 15 -13 16 -12 3 4 -13 16 -21 21 -21
13z"/>
<path d="M835 1510 c3 -5 18 -10 33 -10 21 0 24 2 12 10 -20 13 -53 13 -45 0z"/>
<path d="M580 1490 c-22 -5 -23 -7 -7 -13 26 -10 67 -9 67 2 0 13 -31 18 -60
11z"/>
<path d="M580 1434 c0 -15 10 -43 22 -63 l23 -36 6 45 c4 25 6 45 5 46 0 0
-13 8 -28 17 -28 17 -28 17 -28 -9z"/>
<path d="M1185 1300 c-3 -5 -1 -10 4 -10 6 0 11 5 11 10 0 6 -2 10 -4 10 -3 0
-8 -4 -11 -10z"/>
<path d="M1140 1243 c-22 -23 -27 -32 -14 -25 18 9 61 62 51 62 -1 0 -18 -16
-37 -37z"/>
<path d="M957 1093 c-12 -12 -7 -22 8 -17 8 4 15 10 15 15 0 11 -14 12 -23 2z"/>
<path d="M0 115 l0 -75 54 0 54 0 -31 75 c-26 63 -35 75 -54 75 -22 0 -23 -3
-23 -75z"/>
</g>
</svg>
