<?xml version="1.0" encoding="UTF-8"?>
<svg xmlns="http://www.w3.org/2000/svg" xmlns:xlink="http://www.w3.org/1999/xlink" width="300px" height="445px" viewBox="0 0 300 447" version="1.1">
<g id="surface1">
<path style=" stroke:none;fill-rule:nonzero;fill:rgb(0%,0%,0%);fill-opacity:1;" d="M 0 223.617188 L 0 447.347656 L 22.523438 447.347656 C 39.472656 447.464844 45.277344 447.117188 45.625 445.957031 C 46.089844 444.914062 46.324219 444.914062 46.324219 445.957031 C 46.441406 447 49.226562 447.464844 56.308594 447.464844 C 65.132812 447.464844 66.058594 447.230469 65.480469 445.492188 C 64.898438 443.523438 64.898438 443.523438 66.175781 445.492188 C 67.6875 447.925781 69.660156 447.117188 69.660156 443.984375 C 69.660156 441.785156 71.515625 440.855469 76.972656 440.625 C 78.832031 440.625 79.992188 440.972656 79.527344 441.667969 C 79.179688 442.363281 77.089844 442.828125 75 442.828125 C 72.097656 442.828125 70.9375 443.40625 70.472656 445.144531 C 69.890625 447.347656 70.472656 447.464844 80.109375 447.464844 C 87.191406 447.464844 90.558594 447 90.90625 445.957031 C 91.371094 444.914062 91.601562 444.914062 91.601562 445.957031 C 91.71875 448.042969 98.683594 447.925781 98.683594 445.957031 C 98.683594 445.144531 99.960938 441.667969 101.585938 438.421875 C 103.792969 433.785156 104.488281 430.769531 104.257812 425.671875 C 104.023438 415.585938 101.933594 411.527344 95.316406 407.816406 C 88.234375 403.761719 86.609375 401.90625 88.003906 399.125 C 88.582031 397.964844 89.511719 394.601562 89.859375 391.472656 L 90.671875 386.023438 L 97.988281 386.023438 C 102.050781 386.023438 108.550781 386.371094 112.5 386.71875 L 119.582031 387.53125 L 119.582031 400.050781 C 119.582031 413.265625 118.074219 416.859375 116.679688 406.773438 C 115.402344 397.5 110.410156 394.023438 105.535156 398.890625 C 103.445312 400.976562 103.210938 402.371094 103.558594 409.324219 C 104.023438 415.46875 104.722656 418.019531 106.578125 419.988281 C 107.972656 421.382812 109.945312 425.324219 110.992188 428.683594 C 112.382812 432.742188 113.3125 434.363281 114.007812 433.320312 C 114.589844 432.394531 114.9375 433.089844 114.820312 435.292969 L 114.820312 438.769531 L 111.917969 435.292969 C 110.0625 433.207031 109.367188 432.742188 110.179688 434.25 C 110.757812 435.523438 112.152344 437.261719 113.082031 438.191406 C 114.125 439 114.9375 441.4375 114.9375 443.523438 C 114.9375 445.726562 115.519531 447.464844 116.097656 447.464844 C 116.796875 447.464844 117.261719 444.566406 117.261719 441.089844 C 117.261719 437.378906 117.722656 434.710938 118.539062 434.710938 C 119.351562 434.710938 119.464844 436.914062 119.117188 441.089844 L 118.421875 447.578125 L 126.199219 447.230469 C 133.050781 446.882812 134.09375 446.535156 134.441406 444.566406 C 135.253906 439.464844 135.835938 438.886719 137.578125 441.203125 C 138.507812 442.363281 139.320312 444.332031 139.320312 445.378906 C 139.320312 448.273438 150.582031 448.390625 152.671875 445.492188 C 154.296875 443.40625 153.019531 435.640625 151.042969 434.945312 C 150.117188 434.597656 150.117188 433.785156 151.042969 432.277344 C 151.625 431.003906 151.859375 429.496094 151.507812 428.914062 C 150.582031 427.292969 152.089844 427.523438 155.457031 429.378906 C 157.777344 430.65625 158.589844 430.65625 160.332031 429.148438 C 163.121094 426.714844 173.566406 426.25 175.425781 428.453125 C 176.46875 429.726562 176.46875 430.539062 175.542969 431.464844 C 173.800781 433.207031 173.683594 435.871094 175.308594 435.871094 C 176.007812 435.871094 176.46875 435.058594 176.46875 434.132812 C 176.46875 433.207031 177.285156 432.394531 178.210938 432.394531 C 179.835938 432.394531 179.722656 432.742188 177.980469 435.175781 C 176.121094 437.609375 175.65625 437.726562 173.566406 436.335938 C 170.316406 434.015625 169.503906 434.363281 169.503906 437.84375 C 169.503906 439.695312 169.039062 441.667969 168.574219 442.480469 C 167.414062 444.332031 162.191406 443.058594 163.003906 441.089844 C 163.234375 440.390625 163.003906 439 162.421875 438.074219 C 161.726562 436.914062 161.378906 437.496094 161.378906 440.160156 C 161.378906 442.132812 160.914062 444.21875 160.214844 444.566406 C 156.851562 446.652344 160.214844 447.464844 171.710938 447.464844 L 184.367188 447.464844 L 184.480469 418.25 C 184.597656 402.253906 184.828125 388.921875 184.945312 388.804688 C 185.0625 388.574219 193.539062 388.804688 203.753906 389.269531 L 222.328125 390.082031 L 222.328125 393.792969 C 222.328125 395.761719 222.679688 397.847656 223.257812 398.3125 C 224.769531 399.820312 224.1875 402.253906 222.445312 401.558594 C 221.167969 401.09375 220.589844 402.253906 220.007812 406.195312 C 219.3125 410.484375 219.542969 411.757812 221.632812 413.960938 C 224.1875 416.742188 224.882812 420.800781 222.792969 420.800781 C 222.097656 420.800781 221.75 420.105469 222.097656 419.179688 C 222.445312 418.25 221.632812 416.511719 220.238281 415.351562 C 218.148438 413.5 217.222656 413.265625 215.246094 414.308594 C 212.808594 415.585938 212.808594 415.816406 217.222656 419.527344 C 219.890625 421.613281 222.5625 423.003906 223.492188 422.65625 C 225.695312 421.84375 225.695312 422.191406 223.257812 427.175781 C 221.167969 431.582031 213.621094 437.148438 213.621094 434.132812 C 213.621094 433.320312 214.667969 432.160156 216.058594 431.8125 C 217.570312 431.351562 218.148438 430.421875 217.800781 429.265625 C 217.453125 428.335938 217.105469 427.175781 217.105469 426.597656 C 217.105469 426.132812 216.058594 425.4375 214.667969 425.089844 C 212.460938 424.511719 212.34375 424.625 214.085938 426.480469 C 215.132812 427.640625 215.945312 429.265625 215.945312 430.191406 C 215.828125 431.351562 215.363281 431.117188 214.085938 429.496094 C 213.15625 428.21875 211.765625 427.292969 211.183594 427.523438 C 210.488281 427.640625 208.976562 426.597656 207.816406 425.207031 L 205.613281 422.539062 L 205.496094 428.453125 C 205.496094 432.394531 204.914062 434.945312 203.753906 435.871094 C 202.707031 436.683594 202.246094 437.609375 202.476562 437.84375 C 202.824219 438.191406 204.566406 436.683594 206.425781 434.480469 C 208.398438 432.394531 210.253906 431.003906 210.71875 431.351562 C 211.066406 431.8125 209.792969 433.785156 207.816406 435.753906 C 205.726562 437.84375 204.566406 439.929688 205.03125 440.738281 C 205.613281 441.667969 205.261719 441.785156 203.753906 441.203125 C 201.78125 440.507812 199.804688 442.015625 199.691406 444.21875 C 199.691406 445.609375 204.21875 444.679688 204.796875 443.175781 C 205.613281 441.320312 209.210938 441.203125 211.066406 443.058594 C 212.113281 444.21875 212.925781 443.984375 214.550781 442.363281 C 216.410156 440.277344 216.410156 440.160156 214.433594 440.972656 C 212.578125 441.550781 212.695312 441.203125 215.015625 438.304688 L 217.6875 435.058594 L 218.730469 438.304688 C 219.425781 440.738281 219.195312 442.363281 217.800781 444.566406 L 215.945312 447.464844 L 299.535156 447.464844 L 299.535156 0 L 263.542969 0 C 232.199219 0 227.671875 0.230469 228.25 1.738281 C 228.714844 2.667969 229.410156 3.128906 229.992188 2.78125 C 231.734375 1.738281 231.152344 2.898438 228.714844 5.796875 C 226.972656 7.765625 226.742188 8.808594 227.671875 9.390625 C 228.597656 9.96875 229.0625 13.445312 228.949219 19.476562 C 228.714844 29.675781 229.761719 31.761719 232.664062 27.242188 C 233.707031 25.617188 235.332031 24.34375 236.261719 24.34375 C 237.191406 24.34375 238.003906 23.996094 238.003906 23.417969 C 238.003906 22.953125 239.164062 21.910156 240.558594 20.980469 L 242.996094 19.476562 L 240.789062 23.300781 C 239.628906 25.269531 238.234375 26.777344 237.886719 26.546875 C 236.726562 25.851562 232.199219 30.257812 232.777344 31.414062 C 233.125 31.878906 232.3125 32.574219 231.039062 33.039062 C 228.132812 33.964844 228.019531 35.472656 231.039062 37.09375 C 232.3125 37.789062 233.359375 39.53125 233.359375 41.035156 C 233.359375 42.542969 234.402344 44.628906 235.679688 45.789062 C 237.304688 47.179688 237.769531 48.6875 237.304688 50.542969 C 236.84375 52.511719 237.074219 53.324219 238.234375 53.324219 C 239.164062 53.324219 241.253906 55.410156 242.996094 58.078125 C 245.898438 62.367188 246.015625 63.0625 244.503906 66.539062 C 243.691406 68.625 240.90625 72.21875 238.582031 74.539062 C 234.867188 78.132812 234.402344 79.058594 235.679688 80.566406 C 237.074219 82.191406 236.609375 82.421875 231.039062 82.074219 C 225.347656 81.726562 224.769531 81.492188 223.722656 78.363281 C 222.910156 75.929688 223.140625 73.378906 224.535156 68.742188 C 228.019531 57.960938 227.902344 40.804688 224.304688 27.9375 C 223.375 24.808594 217.6875 21.097656 214.433594 21.5625 C 213.390625 21.675781 212.460938 21.328125 212.460938 20.632812 C 212.460938 19.9375 211.417969 19.707031 210.140625 20.054688 C 208.863281 20.402344 207.816406 20.285156 207.816406 19.9375 C 207.816406 19.476562 206.074219 19.128906 204.101562 19.128906 C 202.011719 19.242188 199.921875 18.664062 199.457031 17.96875 C 198.878906 17.273438 198.53125 17.273438 198.53125 18.199219 C 198.53125 19.011719 197.949219 19.707031 197.253906 19.707031 C 196.671875 19.707031 196.441406 19.242188 196.789062 18.546875 C 197.253906 17.851562 196.554688 17.734375 194.699219 18.433594 C 192.609375 19.242188 191.214844 19.128906 189.472656 17.851562 C 187.964844 16.808594 186.804688 16.578125 186.339844 17.386719 C 185.875 18.085938 185.179688 18.316406 184.597656 17.96875 C 184.015625 17.621094 182.277344 18.085938 180.765625 19.128906 C 179.257812 20.054688 177.632812 20.519531 177.285156 20.054688 C 176.820312 19.707031 176.46875 15.070312 176.46875 9.96875 L 176.46875 0.578125 L 171.828125 0.230469 C 166.835938 -0.117188 166.601562 0.117188 168.34375 3.59375 C 169.386719 5.449219 169.15625 5.796875 167.183594 5.796875 C 165.09375 5.796875 164.28125 4.519531 164.746094 1.855469 C 164.859375 1.273438 164.164062 1.390625 163.234375 2.320312 C 161.726562 3.476562 161.378906 3.476562 161.378906 1.96875 C 161.378906 0.347656 157.777344 0.117188 129.449219 0 C 101.585938 0 97.640625 0.230469 98.21875 1.738281 C 98.683594 2.667969 99.378906 3.128906 99.960938 2.78125 C 100.542969 2.433594 101.007812 3.015625 101.007812 3.941406 C 101.007812 4.984375 100.195312 5.796875 99.265625 5.796875 C 97.640625 5.796875 96.941406 7.765625 97.292969 11.59375 C 97.640625 14.953125 97.753906 26.082031 97.523438 27.242188 C 97.40625 27.820312 97.292969 28.75 97.40625 29.210938 C 97.40625 29.792969 96.476562 30.140625 95.203125 30.140625 C 93.925781 30.140625 92.878906 30.953125 92.878906 31.878906 C 92.878906 32.804688 93.34375 33.617188 93.925781 33.617188 C 94.503906 33.617188 94.738281 34.660156 94.386719 35.820312 C 94.039062 37.210938 93.113281 37.789062 92.183594 37.441406 C 91.136719 37.09375 90.789062 35.9375 91.136719 34.660156 C 91.949219 32.109375 89.628906 31.648438 88.699219 34.199219 C 88.234375 35.125 87.304688 35.9375 86.492188 35.9375 C 84.519531 35.9375 80.921875 40.226562 80.6875 42.777344 C 80.574219 44.628906 81.152344 44.863281 84.636719 44.398438 C 86.957031 44.050781 91.023438 42.429688 93.808594 40.804688 C 96.59375 39.296875 98.917969 38.140625 99.148438 38.371094 C 99.378906 38.601562 99.960938 43.933594 100.425781 50.078125 L 101.238281 61.4375 L 94.503906 59.121094 C 90.90625 57.84375 86.957031 56.800781 85.796875 56.800781 C 84.519531 56.800781 83.476562 55.527344 83.011719 53.207031 C 81.851562 47.875 77.671875 41.382812 76.394531 42.660156 C 75.582031 43.472656 72.910156 43.007812 68.730469 41.617188 C 65.246094 40.457031 60.835938 39.414062 58.863281 39.414062 C 55.726562 39.414062 55.496094 39.644531 55.960938 43.355469 L 56.425781 47.296875 L 52.476562 45.441406 L 48.644531 43.585938 L 51.664062 42.082031 C 53.171875 41.152344 54.914062 39.066406 55.261719 37.328125 C 55.726562 35.589844 57.003906 33.152344 58.050781 31.878906 C 61.765625 27.820312 65.246094 19.824219 65.363281 15.417969 C 65.480469 11.941406 64.785156 10.550781 61.066406 7.417969 C 51.316406 -0.925781 43.074219 -0.117188 38.429688 9.851562 C 37.035156 12.867188 36.105469 15.648438 36.457031 15.882812 C 36.804688 16.230469 36.339844 17.96875 35.410156 19.824219 C 34.480469 21.5625 33.667969 25.617188 33.667969 28.75 C 33.667969 31.878906 33.320312 36.050781 32.972656 37.789062 C 32.390625 40.804688 31.8125 41.152344 27.863281 41.152344 C 25.425781 41.152344 23.683594 40.804688 23.917969 40.339844 C 24.730469 39.066406 20.550781 40.6875 18.460938 42.542969 C 15.441406 45.09375 15.09375 42.542969 15.09375 20.171875 L 15.09375 0 L 0 0 Z M 146.285156 3.710938 C 146.285156 6.144531 146.285156 6.144531 147.910156 3.941406 C 148.839844 2.78125 150 2.085938 150.464844 2.550781 C 150.929688 3.015625 151.972656 2.898438 152.902344 2.085938 C 155.574219 0 157.546875 2.78125 156.039062 6.722656 C 154.644531 10.433594 155.6875 16.925781 157.664062 16.460938 C 158.476562 16.34375 159.054688 17.503906 159.054688 19.128906 C 159.054688 20.75 159.753906 22.375 160.679688 22.722656 C 161.609375 23.070312 162.886719 24.921875 163.582031 26.894531 C 164.628906 29.675781 165.207031 30.140625 167.183594 29.558594 C 169.386719 28.863281 169.621094 29.210938 169.273438 32.574219 C 168.925781 35.9375 168.34375 36.515625 165.09375 37.210938 C 163.003906 37.675781 160.214844 38.949219 158.824219 40.109375 C 156.386719 42.3125 156.386719 42.3125 157.3125 39.992188 C 157.777344 38.71875 158.359375 36.632812 158.476562 35.355469 C 158.589844 34.082031 159.171875 31.53125 159.636719 29.792969 C 160.214844 27.472656 159.984375 25.96875 158.589844 24.460938 C 157.546875 23.300781 156.734375 21.792969 156.734375 21.097656 C 156.734375 20.285156 154.992188 19.707031 152.785156 19.707031 C 149.417969 19.707031 148.957031 19.359375 149.417969 17.386719 C 149.769531 16.113281 150.582031 15.070312 151.160156 15.070312 C 151.859375 15.070312 152.089844 14.257812 151.625 13.332031 C 151.277344 12.402344 151.507812 11.59375 152.089844 11.59375 C 153.832031 11.59375 153.484375 8.113281 151.859375 8 C 151.042969 7.882812 148.957031 7.765625 147.214844 7.765625 C 144.425781 7.652344 143.960938 7.1875 143.960938 4.40625 C 143.960938 2.667969 144.542969 1.160156 145.125 1.160156 C 145.820312 1.160156 146.285156 2.320312 146.285156 3.710938 Z M 211.53125 34.199219 C 214.898438 36.398438 216.292969 38.488281 217.570312 43.007812 C 219.660156 50.078125 219.3125 51.238281 215.363281 49.5 C 211.878906 47.761719 211.648438 46.71875 214.898438 45.789062 C 216.757812 45.210938 216.988281 44.628906 215.828125 43.355469 C 214.085938 41.269531 210.253906 41.269531 209.441406 43.472656 C 209.09375 44.398438 209.792969 47.066406 211.183594 49.382812 C 212.578125 51.585938 213.15625 53.207031 212.695312 52.859375 C 212.230469 52.628906 209.558594 52.050781 206.773438 51.703125 C 202.359375 51.238281 201.433594 51.585938 198.992188 54.484375 C 197.136719 56.570312 194.699219 57.960938 191.796875 58.308594 C 189.472656 58.65625 186.339844 59.238281 184.945312 59.699219 C 182.507812 60.511719 182.277344 60.164062 182.277344 56.222656 C 182.277344 51.46875 190.984375 36.167969 195.394531 33.039062 C 199.34375 30.371094 206.65625 30.835938 211.53125 34.199219 Z M 44.699219 47.179688 C 42.609375 50.425781 42.609375 50.425781 44.929688 48.339844 C 46.207031 47.296875 48.066406 46.371094 49.226562 46.371094 C 50.621094 46.371094 51.082031 47.066406 50.734375 48.339844 C 49.574219 52.511719 48.414062 59.699219 48.644531 61.089844 C 48.761719 61.902344 48.296875 62.597656 47.601562 62.597656 C 47.019531 62.597656 46.441406 63.292969 46.441406 64.222656 C 46.441406 66.65625 43.421875 68.859375 42.375 67.121094 C 41.679688 66.191406 41.214844 66.308594 40.519531 67.351562 C 39.820312 68.511719 39.472656 68.046875 39.472656 65.84375 C 39.472656 64.105469 38.660156 60.628906 37.730469 58.308594 C 36.804688 55.875 36.105469 52.398438 36.339844 50.425781 C 36.570312 47.527344 37.269531 46.832031 41.214844 45.671875 C 43.769531 44.863281 46.089844 44.167969 46.324219 44.167969 C 46.554688 44.050781 45.742188 45.441406 44.699219 47.179688 Z M 34.25 112.097656 C 33.785156 113.257812 32.507812 116.964844 31.347656 120.328125 C 29.953125 124.847656 28.445312 127.050781 25.65625 128.789062 C 23.683594 129.949219 21.710938 130.992188 21.476562 130.992188 C 20.550781 130.992188 20.78125 111.75 21.710938 110.9375 C 22.058594 110.476562 25.308594 110.128906 28.792969 110.128906 C 34.367188 110.128906 34.945312 110.359375 34.25 112.097656 Z M 153.019531 112.097656 C 152.785156 113.140625 151.160156 114.417969 149.1875 114.996094 C 145.125 116.039062 129.101562 114.878906 128.171875 113.488281 C 127.824219 112.910156 127.128906 112.445312 126.546875 112.445312 C 125.039062 112.445312 124.109375 116.039062 125.269531 117.546875 C 125.851562 118.242188 126.546875 120.097656 126.894531 121.71875 C 127.359375 124.5 127.359375 124.5 127.59375 121.253906 C 127.707031 118.707031 128.058594 118.125 129.796875 118.820312 C 130.84375 119.285156 134.792969 120.097656 138.507812 120.792969 C 144.542969 121.835938 145.125 122.183594 143.613281 123.921875 C 142.6875 124.964844 141.988281 126.589844 141.988281 127.515625 C 141.875 129.71875 140.710938 137.601562 139.785156 141.65625 C 139.433594 143.28125 139.667969 145.597656 140.246094 146.757812 C 141.175781 148.382812 140.828125 149.65625 138.390625 152.4375 C 136.765625 154.292969 135.023438 155.800781 134.558594 155.683594 C 132.585938 155.105469 135.023438 158.699219 136.996094 159.394531 C 138.273438 159.742188 139.550781 162.292969 140.597656 166.003906 C 141.988281 171.101562 142.917969 172.378906 146.632812 174.347656 C 153.25 177.828125 152.089844 178.984375 142.570312 177.941406 C 137.925781 177.476562 132.238281 177.015625 130.03125 176.898438 L 125.96875 176.78125 L 125.851562 170.40625 C 125.734375 165.191406 125.386719 163.914062 123.644531 163.566406 C 122.019531 163.335938 121.789062 163.683594 122.484375 165.304688 C 123.066406 166.582031 123.53125 169.59375 123.53125 172.144531 L 123.644531 176.78125 L 114.707031 177.128906 L 105.765625 177.476562 L 105.417969 170.175781 C 105.070312 163.21875 104.953125 162.871094 102.167969 162.871094 C 100.542969 162.871094 97.292969 162.0625 94.96875 161.132812 C 91.371094 159.859375 90.558594 158.929688 90.558594 156.378906 C 90.558594 154.640625 89.746094 153.019531 88.816406 152.554688 C 86.609375 151.742188 86.609375 149.078125 88.816406 146.757812 C 90.09375 145.597656 90.324219 144.324219 89.628906 142.933594 C 89.046875 141.773438 87.65625 138.992188 86.492188 136.671875 C 85.214844 133.890625 83.824219 132.5 82.546875 132.730469 C 81.5 132.964844 80.222656 133.195312 79.644531 133.195312 C 77.902344 133.425781 79.992188 140.152344 82.664062 142.816406 L 85.332031 145.484375 L 80.6875 146.179688 C 75.117188 147.105469 74.882812 146.992188 76.859375 143.746094 C 78.132812 141.65625 78.132812 141.078125 76.394531 139.804688 C 74.652344 138.527344 74.535156 138.066406 76.160156 135.863281 C 77.671875 133.660156 77.671875 133.195312 75.582031 131.109375 C 74.304688 129.835938 72.5625 129.023438 71.75 129.253906 C 69.660156 130.066406 66.875 128.09375 67.800781 126.472656 C 68.265625 125.777344 69.777344 125.429688 71.167969 125.777344 C 72.5625 126.125 74.535156 125.894531 75.464844 125.195312 C 76.972656 124.152344 76.742188 123.574219 74.304688 121.488281 C 71.980469 119.515625 71.867188 119.167969 73.722656 119.863281 C 75.929688 120.675781 75.929688 120.558594 73.957031 118.589844 C 72.214844 116.851562 69.890625 116.503906 60.371094 116.503906 L 48.761719 116.503906 L 48.761719 110.128906 L 101.121094 110.128906 C 148.722656 110.242188 153.367188 110.359375 153.019531 112.097656 Z M 271.671875 127.515625 C 271.671875 138.414062 271.207031 145.949219 270.277344 147.800781 C 269.117188 150.351562 269.234375 151.046875 270.625 151.976562 C 271.671875 152.785156 268.652344 152.902344 261.222656 152.4375 C 255.1875 152.089844 245.550781 151.511719 239.746094 151.164062 C 234.054688 150.816406 228.949219 150.238281 228.484375 149.773438 C 228.019531 149.308594 228.132812 145.136719 228.832031 140.5 C 230.109375 131.339844 230.222656 131.574219 222.328125 119.402344 C 220.820312 117.199219 219.3125 114.183594 218.847656 112.675781 L 218.148438 110.128906 L 271.671875 110.128906 Z M 33.320312 167.160156 C 32.855469 170.640625 33.089844 171.449219 34.015625 170.523438 C 34.714844 169.828125 35.992188 169.246094 36.917969 169.246094 C 37.847656 169.246094 39.359375 168.320312 40.171875 167.160156 C 41.5625 165.421875 41.679688 165.539062 41.097656 168.320312 C 40.75 170.40625 41.097656 171.566406 41.910156 171.566406 C 44.234375 171.566406 50.96875 177.246094 52.824219 180.839844 C 53.753906 182.695312 54.566406 185.710938 54.566406 187.5625 C 54.566406 191.851562 50.269531 198.34375 46.089844 200.316406 C 43.421875 201.589844 42.957031 202.519531 42.957031 206.921875 C 42.957031 209.9375 43.886719 213.761719 45.277344 216.195312 C 46.554688 218.515625 47.367188 220.832031 47.019531 221.53125 C 46.554688 222.109375 47.019531 222.574219 47.832031 222.574219 C 48.992188 222.574219 48.992188 222.804688 47.832031 223.617188 C 45.394531 225.121094 48.644531 235.789062 51.664062 236.25 C 53.40625 236.484375 53.636719 236.367188 52.359375 235.554688 C 51.433594 234.859375 51.316406 234.164062 52.011719 233.703125 C 52.59375 233.351562 53.40625 233.816406 53.871094 234.746094 C 54.21875 235.671875 55.261719 236.484375 56.308594 236.484375 C 57.238281 236.484375 58.050781 236.945312 58.050781 237.527344 C 58.050781 239.035156 48.296875 239.730469 47.253906 238.339844 C 46.554688 237.410156 46.089844 237.527344 45.625 238.453125 C 44.929688 240.191406 38.3125 240.425781 38.3125 238.800781 C 38.3125 238.105469 36.6875 238.6875 34.828125 240.191406 C 32.855469 241.585938 31.578125 243.4375 31.8125 244.25 C 32.625 246.105469 31.460938 249.234375 30.070312 249.234375 C 29.605469 249.234375 29.375 248.421875 29.722656 247.496094 C 30.1875 246.570312 29.835938 245.757812 29.140625 245.757812 C 28.328125 245.757812 27.515625 246.570312 27.167969 247.496094 C 26.121094 250.046875 24.496094 249.582031 25.195312 246.917969 C 25.65625 245.0625 25.425781 244.714844 23.683594 245.410156 C 21.59375 246.105469 21.59375 246.105469 23.566406 243.785156 C 24.613281 242.511719 25.542969 240.65625 25.542969 239.613281 C 25.542969 238.570312 26.355469 237.644531 27.398438 237.644531 C 28.558594 237.644531 29.023438 236.832031 28.675781 235.554688 C 28.445312 234.511719 29.023438 231.960938 30.070312 230.109375 C 32.160156 225.933594 32.390625 224.425781 32.855469 213.53125 C 33.089844 209.007812 32.738281 205.183594 32.160156 205.183594 C 31.578125 205.183594 31.347656 204.488281 31.695312 203.675781 C 31.925781 202.980469 31 200.664062 29.488281 198.578125 C 22.523438 189.1875 20.898438 184.550781 20.898438 173.421875 L 21.015625 162.871094 L 22.988281 168.550781 C 24.03125 171.683594 25.65625 174.582031 26.46875 174.8125 C 27.632812 175.160156 27.632812 174.464844 26.121094 171.683594 C 23.917969 167.394531 22.523438 157.539062 23.683594 154.527344 C 24.378906 152.671875 25.195312 153.132812 29.257812 157.421875 C 33.550781 162.0625 33.902344 162.871094 33.320312 167.160156 Z M 238.933594 163.335938 C 241.371094 164.609375 244.039062 166.929688 244.96875 168.550781 C 246.015625 170.523438 247.523438 171.566406 249.496094 171.566406 C 251.585938 171.566406 252.050781 171.21875 251.121094 170.292969 C 248.800781 167.972656 255.070312 163.21875 259.945312 163.683594 C 265.285156 164.148438 265.867188 166.8125 261.804688 171.914062 C 260.0625 174 257.738281 178.40625 256.695312 181.769531 L 254.605469 187.796875 L 257.390625 188.492188 C 258.902344 188.953125 262.382812 188.605469 265.285156 187.910156 C 271.671875 186.289062 271.671875 186.289062 271.671875 188.375 C 271.671875 189.300781 271.324219 190 270.859375 190 C 270.277344 189.882812 267.609375 189.882812 264.820312 190 L 259.597656 190.113281 L 262.730469 193.359375 C 268.304688 199.15625 267.144531 200.199219 256.347656 199.386719 L 249.03125 198.808594 L 249.378906 187.101562 C 249.960938 172.378906 247.871094 169.828125 246.59375 183.507812 C 246.128906 188.722656 245.898438 194.171875 246.015625 195.5625 C 246.128906 196.835938 245.78125 198.230469 245.316406 198.578125 C 243.808594 199.503906 224.652344 196.953125 224.304688 195.792969 C 224.070312 195.332031 222.679688 193.011719 221.167969 190.808594 C 217.335938 185.128906 216.757812 182.578125 218.847656 180.375 C 219.890625 179.449219 220.472656 177.476562 220.125 175.738281 C 219.890625 174.234375 220.355469 171.796875 221.402344 170.523438 C 222.792969 168.4375 223.492188 168.203125 224.882812 169.363281 C 226.277344 170.640625 226.394531 170.40625 225.8125 167.742188 C 224.1875 161.25 230.6875 159.164062 238.933594 163.335938 Z M 92.296875 176.203125 C 92.648438 176.78125 92.414062 179.332031 91.71875 181.769531 C 90.789062 185.59375 90.90625 187.214844 92.996094 191.96875 C 95.085938 196.488281 95.433594 198.925781 94.851562 205.53125 C 94.039062 214.574219 92.761719 216.777344 88.234375 216.777344 C 84.171875 216.777344 83.125 214.109375 85.332031 209.820312 C 87.65625 205.300781 87.539062 203.214844 84.636719 201.707031 C 81.964844 200.199219 79.527344 201.589844 78.25 205.414062 C 77.554688 207.617188 68.613281 217.472656 68.035156 216.542969 C 67.917969 216.429688 66.988281 214.226562 65.945312 211.90625 C 64.085938 207.964844 64.085938 207.386719 66.058594 203.214844 C 67.222656 200.777344 68.730469 195.792969 69.542969 192.199219 C 71.050781 185.011719 71.050781 185.011719 75.582031 183.96875 C 77.785156 183.390625 78.597656 183.621094 78.597656 185.128906 C 78.597656 186.058594 77.671875 187.214844 76.625 187.449219 C 74.535156 188.027344 71.980469 192.433594 71.980469 195.214844 C 71.980469 197.183594 76.507812 202.75 76.625 200.894531 C 76.625 200.199219 76.042969 199.386719 75.347656 199.15625 C 71.980469 197.996094 74.882812 188.953125 78.484375 188.953125 C 79.527344 188.953125 80.109375 187.5625 80.109375 184.78125 C 80.109375 182.464844 81.269531 178.523438 82.664062 176.085938 C 85.101562 171.796875 85.214844 171.683594 88.351562 173.304688 C 90.09375 174.234375 91.835938 175.507812 92.296875 176.203125 Z M 213.621094 206.34375 C 217.453125 208.3125 220.589844 210.402344 220.589844 210.980469 C 220.589844 213.296875 229.527344 220.484375 248.21875 233.351562 C 261.457031 242.394531 266.449219 246.453125 264.820312 246.683594 C 263.429688 246.917969 255.1875 242.046875 243.226562 233.703125 C 232.546875 226.28125 223.027344 220.253906 221.867188 220.253906 C 219.195312 220.253906 217.105469 218.050781 217.917969 215.847656 C 218.382812 214.691406 218.148438 214.34375 217.222656 214.921875 C 215.597656 215.964844 203.171875 207.851562 203.171875 205.765625 C 203.171875 204.140625 204.335938 202.867188 205.726562 202.867188 C 206.308594 202.867188 209.792969 204.488281 213.621094 206.34375 Z M 39.242188 268.941406 C 40.054688 268.941406 41.332031 270.21875 42.027344 271.839844 C 42.722656 273.464844 44.234375 274.738281 45.511719 274.738281 C 47.253906 274.738281 47.601562 275.664062 47.601562 280.535156 C 47.601562 285.402344 47.949219 286.332031 49.804688 286.332031 C 52.359375 286.332031 53.40625 284.128906 53.40625 278.679688 C 53.40625 275.898438 53.984375 274.738281 55.148438 274.738281 C 56.539062 274.738281 56.886719 276.359375 56.886719 282.273438 C 56.886719 288.183594 56.539062 289.808594 55.148438 289.808594 C 54.21875 289.808594 53.40625 289.226562 53.40625 288.417969 C 53.40625 287.375 53.058594 287.375 52.011719 288.417969 C 50.039062 290.386719 45.625 290.15625 44.351562 287.953125 C 43.304688 286.097656 43.074219 286.097656 40.519531 287.953125 C 39.007812 288.996094 36.457031 289.808594 34.828125 289.808594 C 31.230469 289.808594 26.703125 286.792969 26.703125 284.476562 C 26.703125 282.390625 29.488281 282.390625 31.347656 284.589844 C 33.203125 286.792969 37.847656 286.792969 38.777344 284.589844 C 39.359375 282.851562 36.339844 280.535156 33.320312 280.535156 C 32.390625 280.535156 30.417969 279.605469 29.023438 278.449219 C 24.03125 274.390625 28.792969 266.972656 35.410156 268.363281 C 36.6875 268.710938 38.429688 268.941406 39.242188 268.941406 Z M 182.042969 270.914062 C 182.738281 271.957031 183.4375 273.230469 183.4375 273.8125 C 183.4375 275.316406 179.953125 274.855469 178.097656 273 C 176.007812 270.914062 175.308594 270.914062 172.988281 272.417969 C 171.476562 273.464844 171.59375 273.8125 173.453125 275.316406 C 174.730469 276.246094 176.585938 277.054688 177.632812 277.054688 C 178.675781 277.054688 180.535156 277.753906 181.695312 278.679688 C 183.667969 280.070312 184.015625 279.953125 185.179688 277.867188 C 185.875 276.476562 187.847656 274.855469 189.589844 274.273438 C 192.144531 273.347656 193.421875 273.578125 196.207031 275.664062 C 198.992188 277.753906 199.691406 277.867188 199.691406 276.476562 C 199.691406 275.550781 200.503906 274.738281 201.433594 274.738281 C 202.707031 274.738281 203.171875 276.011719 203.171875 279.027344 C 203.171875 284.359375 204.683594 286.910156 207.121094 285.984375 C 208.398438 285.402344 208.976562 283.78125 208.976562 279.953125 C 208.976562 275.433594 209.328125 274.738281 211.300781 274.738281 C 213.507812 274.738281 213.738281 275.316406 213.390625 281.925781 L 213.042969 289.113281 L 207.585938 289.34375 C 203.289062 289.578125 201.78125 289.226562 200.503906 287.488281 C 198.992188 285.285156 198.878906 285.285156 197.019531 287.488281 C 194.582031 290.386719 190.285156 290.503906 186.917969 287.722656 C 184.25 285.636719 184.132812 285.636719 182.042969 287.722656 C 178.210938 291.546875 167.183594 289.226562 167.183594 284.476562 C 167.183594 282.273438 169.96875 282.390625 171.828125 284.707031 C 173.683594 286.910156 179.375 286.445312 179.375 284.011719 C 179.375 282.96875 177.398438 281.695312 174.730469 280.765625 C 172.175781 279.953125 169.386719 278.5625 168.460938 277.636719 C 166.253906 275.433594 167.761719 270.21875 171.015625 268.941406 C 174.496094 267.433594 180.1875 268.476562 182.042969 270.914062 Z M 160.214844 269.636719 C 160.214844 270.101562 159.289062 271.144531 158.242188 271.957031 C 156.386719 273.347656 156.386719 273.695312 157.894531 274.855469 C 159.171875 275.78125 159.289062 276.246094 158.242188 276.707031 C 157.3125 277.054688 156.734375 279.605469 156.734375 283.664062 C 156.734375 288.996094 156.386719 289.925781 154.761719 289.578125 C 153.132812 289.34375 152.554688 287.722656 151.972656 282.851562 L 151.394531 276.476562 L 150.8125 281.695312 C 150.464844 285.75 149.652344 287.140625 147.328125 288.53125 C 143.5 290.734375 138.507812 289.34375 136.765625 285.75 C 133.863281 279.375 139.667969 272.304688 146.050781 274.507812 C 149.882812 275.78125 151.160156 275.316406 153.132812 271.492188 C 154.410156 269.171875 160.214844 267.667969 160.214844 269.636719 Z M 71.402344 274.855469 C 72.097656 274.855469 73.605469 274.621094 75 274.160156 C 79.0625 272.882812 81.269531 276.246094 81.269531 283.546875 C 81.269531 288.996094 80.921875 289.925781 79.296875 289.578125 C 77.671875 289.34375 77.089844 287.722656 76.625 283.433594 C 76.160156 279.257812 75.582031 277.636719 74.304688 277.636719 C 73.027344 277.636719 72.445312 279.257812 72.214844 283.78125 C 71.867188 288.878906 71.515625 289.925781 69.890625 289.578125 C 68.5 289.34375 67.800781 287.605469 67.335938 283.433594 C 66.875 279.257812 66.292969 277.636719 65.015625 277.636719 C 63.738281 277.636719 63.15625 279.257812 62.695312 283.433594 C 62.230469 287.605469 61.648438 289.226562 60.371094 289.226562 C 59.09375 289.226562 58.515625 287.488281 58.28125 282.042969 L 57.933594 274.855469 L 61.765625 274.390625 C 63.855469 274.160156 66.640625 274.160156 67.917969 274.390625 C 69.195312 274.738281 70.820312 274.855469 71.402344 274.855469 Z M 93.691406 274.855469 C 94.621094 275.78125 95.664062 275.78125 97.292969 274.855469 C 100.65625 273.113281 101.820312 273.230469 104.257812 276.011719 C 106.113281 277.867188 106.695312 277.984375 107.160156 276.707031 C 108.203125 274.042969 113.660156 273.230469 116.796875 275.316406 C 118.304688 276.246094 119.582031 276.59375 119.582031 275.898438 C 119.582031 275.203125 120.976562 274.738281 122.832031 274.855469 C 124.574219 274.96875 126.664062 274.855469 127.59375 274.621094 C 130.496094 273.8125 130.261719 277.054688 127.246094 278.214844 C 124.574219 279.144531 124.226562 279.953125 124.226562 284.589844 C 124.226562 288.53125 123.761719 289.808594 122.484375 289.808594 C 121.441406 289.808594 120.394531 288.996094 120.046875 288.070312 C 119.464844 286.5625 119.117188 286.5625 117.609375 288.070312 C 115.402344 290.273438 111.457031 290.273438 108.320312 288.070312 C 106.113281 286.5625 105.765625 286.5625 105.1875 288.183594 C 103.910156 291.664062 101.585938 288.996094 101.007812 283.316406 C 100.542969 279.257812 99.960938 277.636719 98.683594 277.636719 C 97.40625 277.636719 96.828125 279.257812 96.363281 283.433594 C 95.898438 287.605469 95.316406 289.226562 94.039062 289.226562 C 92.761719 289.226562 92.183594 287.605469 91.71875 283.433594 C 91.253906 279.257812 90.671875 277.636719 89.394531 277.636719 C 88.121094 277.636719 87.539062 279.257812 87.074219 283.433594 C 86.609375 287.722656 86.03125 289.34375 84.519531 289.578125 C 82.664062 289.925781 82.429688 288.996094 82.429688 282.273438 C 82.429688 275.203125 82.664062 274.507812 84.636719 275.085938 C 85.796875 275.316406 87.539062 275.203125 88.351562 274.621094 C 90.558594 273.230469 92.183594 273.347656 93.691406 274.855469 Z M 46.554688 383.707031 L 50.96875 383.707031 L 51.316406 390.3125 C 51.664062 395.992188 52.011719 397.035156 53.984375 397.386719 C 55.84375 397.734375 55.960938 397.5 54.914062 396.339844 C 53.871094 395.296875 53.871094 394.140625 55.261719 391.472656 C 56.308594 389.617188 56.539062 388.457031 55.84375 388.804688 C 53.871094 390.082031 54.335938 387.53125 56.539062 385.445312 C 57.816406 384.054688 59.441406 383.707031 61.878906 384.167969 C 63.738281 384.515625 66.175781 384.863281 67.222656 384.863281 C 68.613281 384.863281 69.195312 386.140625 69.3125 389.503906 C 69.542969 392.050781 70.125 395.183594 70.820312 396.339844 C 71.867188 398.3125 71.285156 398.777344 66.058594 400.515625 C 60.253906 402.484375 54.566406 402.136719 54.566406 399.820312 C 54.566406 399.238281 53.871094 399.355469 52.941406 400.167969 C 52.011719 400.976562 51.546875 402.136719 51.894531 402.71875 C 52.246094 403.179688 52.941406 402.949219 53.523438 402.136719 C 54.21875 400.976562 54.566406 400.976562 54.566406 401.90625 C 54.566406 403.296875 52.476562 405.152344 50.851562 405.152344 C 50.386719 405.152344 48.066406 408.050781 45.625 411.527344 C 43.1875 415.003906 38.894531 419.527344 35.992188 421.730469 C 28.558594 427.410156 26.007812 431.699219 27.746094 435.640625 L 29.140625 438.769531 L 26.933594 435.988281 C 25.425781 434.25 23.453125 433.207031 21.015625 433.089844 L 17.183594 432.972656 L 17.996094 420.800781 C 18.34375 414.078125 19.039062 407.238281 19.273438 405.382812 L 19.96875 402.136719 L 34.945312 402.949219 C 45.394531 403.527344 49.921875 403.414062 49.921875 402.484375 C 49.921875 401.789062 48.761719 401.441406 47.367188 401.675781 C 44.8125 402.136719 44.8125 402.136719 46.902344 400.515625 C 48.179688 399.585938 48.761719 398.777344 48.066406 398.777344 C 47.484375 398.777344 47.714844 398.3125 48.53125 397.734375 C 49.457031 397.152344 44.117188 396.574219 35.527344 396.226562 C 27.398438 395.878906 20.664062 395.414062 20.550781 395.183594 C 20.316406 394.949219 20.433594 391.9375 20.664062 388.457031 L 21.128906 382.199219 L 31.695312 383.011719 C 37.382812 383.359375 44.117188 383.707031 46.554688 383.707031 Z M 46.554688 383.707031 "/>
</g>
</svg>
