<?xml version="1.0" standalone="no"?>
<!DOCTYPE svg PUBLIC "-//W3C//DTD SVG 20010904//EN"
 "http://www.w3.org/TR/2001/REC-SVG-20010904/DTD/svg10.dtd">
<svg version="1.0" xmlns="http://www.w3.org/2000/svg"
 width="446.000000pt" height="324.000000pt" viewBox="0 0 446.000000 324.000000"
 preserveAspectRatio="xMidYMid meet">

<g transform="translate(0.000000,324.000000) scale(0.100000,-0.100000)"
fill="#000000" stroke="none">
<path d="M451 2831 c-11 -7 -12 -28 -7 -106 8 -107 24 -171 25 -99 1 45 11 54
61 54 24 0 28 -4 34 -39 3 -22 11 -43 18 -47 8 -5 9 1 5 22 -3 16 -9 69 -13
118 -6 80 -9 88 -31 97 -31 11 -74 11 -92 0z m94 -67 c7 -52 -1 -64 -47 -64
-27 0 -28 2 -28 55 l0 55 34 0 c32 0 34 -2 41 -46z"/>
<path d="M725 2828 c-4 -10 -5 -36 -3 -58 4 -43 -3 -50 -52 -50 -25 0 -28 4
-33 41 -6 42 -13 57 -23 46 -6 -6 12 -165 22 -199 3 -10 10 -18 16 -18 7 0 8
16 3 46 -7 52 1 64 48 64 22 0 27 -4 27 -24 0 -40 12 -86 23 -86 11 0 1 180
-13 227 -6 23 -9 25 -15 11z"/>
<path d="M823 2825 c-26 -18 -47 -107 -38 -159 8 -39 38 -72 77 -81 21 -5 33
-1 52 19 21 21 26 34 26 78 0 67 -30 135 -65 148 -32 12 -27 13 -52 -5z m70
-53 c25 -42 28 -125 5 -148 -24 -24 -63 -11 -78 26 -8 19 -10 50 -7 81 10 85
44 102 80 41z"/>
<path d="M1012 2823 c-14 -12 -24 -36 -30 -73 -13 -92 9 -151 63 -164 71 -18
107 50 81 151 -22 84 -72 121 -114 86z m62 -32 c25 -28 43 -123 28 -155 -14
-32 -51 -34 -78 -5 -14 16 -19 35 -18 78 2 90 30 124 68 82z"/>
<path d="M1289 2833 c-36 -9 -60 -124 -39 -187 12 -36 50 -66 85 -66 9 0 27
11 40 25 30 29 33 87 9 158 -20 59 -50 82 -95 70z m63 -63 c21 -40 24 -130 6
-148 -18 -18 -45 -15 -68 8 -23 23 -27 96 -9 149 15 43 48 39 71 -9z"/>
<path d="M1851 2821 c-38 -38 -40 -176 -4 -212 29 -29 75 -34 103 -11 21 17
25 29 25 74 0 69 -28 142 -61 157 -34 15 -41 14 -63 -8z m56 -19 c35 -22 57
-154 31 -180 -19 -19 -55 -14 -72 10 -18 25 -21 113 -6 152 10 26 25 32 47 18z"/>
<path d="M2045 2831 l-40 -6 3 -55 c4 -78 20 -162 33 -175 8 -7 10 6 7 45 -3
52 -2 55 22 58 42 6 48 22 8 22 -29 0 -37 4 -42 23 -12 46 -7 67 17 67 35 0
67 11 61 21 -6 10 -7 10 -69 0z"/>
<path d="M2173 2825 c-26 -18 -47 -107 -38 -159 8 -39 38 -72 77 -81 21 -5 33
-1 52 19 21 21 26 34 26 78 0 67 -30 135 -65 148 -32 12 -27 13 -52 -5z m70
-53 c25 -42 28 -125 5 -148 -24 -24 -63 -11 -78 26 -8 19 -10 50 -7 81 10 85
44 102 80 41z"/>
<path d="M2336 2833 c-17 -5 -18 -12 -12 -81 3 -41 6 -89 6 -106 0 -53 11 -60
69 -46 63 15 67 29 6 22 -45 -5 -45 -4 -46 27 -1 17 -2 37 -3 43 -1 7 8 14 19
16 36 7 41 22 7 22 -31 0 -32 2 -32 39 0 39 0 39 48 46 37 6 43 9 27 16 -22 8
-60 9 -89 2z"/>
<path d="M2508 2829 c-36 -21 -22 -68 46 -153 29 -37 29 -62 0 -73 -11 -4 -23
2 -35 16 -22 27 -34 12 -13 -17 17 -24 62 -30 82 -10 24 24 13 68 -33 127 -49
63 -52 72 -30 91 13 10 19 10 35 -5 18 -16 20 -16 20 -2 0 9 -9 21 -19 27 -24
12 -31 12 -53 -1z"/>
<path d="M362 2785 c-15 -24 -30 -45 -33 -45 -3 0 -14 18 -24 40 -10 22 -22
40 -27 40 -11 0 -4 -27 23 -89 10 -24 19 -54 19 -66 0 -12 3 -37 6 -55 10 -46
24 -18 24 48 0 38 8 69 30 112 35 70 22 81 -18 15z"/>
<path d="M1548 2744 l-3 -89 -44 73 c-68 114 -80 111 -61 -15 16 -112 33 -144
26 -49 -3 38 -2 66 2 62 4 -4 25 -37 47 -73 22 -36 45 -64 50 -62 12 5 7 220
-6 233 -4 5 -9 -30 -11 -80z"/>
<path d="M1701 2788 c1 -64 14 -186 21 -193 9 -9 88 6 82 16 -3 5 -18 9 -33 9
-27 0 -29 2 -35 63 -12 113 -18 147 -27 147 -5 0 -9 -19 -8 -42z"/>
<path d="M2625 2740 c-7 -12 2 -30 16 -30 12 0 12 27 0 35 -5 3 -12 1 -16 -5z"/>
<path d="M2625 2610 c-7 -12 2 -30 16 -30 12 0 12 27 0 35 -5 3 -12 1 -16 -5z"/>
<path d="M301 2361 c-11 -7 -13 -29 -8 -110 6 -106 26 -175 27 -94 0 37 3 43
24 49 45 11 60 1 69 -44 4 -23 11 -42 15 -42 9 0 -11 226 -20 236 -12 11 -92
15 -107 5z m92 -68 c6 -53 -1 -63 -45 -63 -23 0 -28 4 -28 24 0 13 -3 38 -6
55 -6 31 -6 31 33 31 l40 0 6 -47z"/>
<path d="M587 2350 c-4 -14 -7 -56 -7 -95 l0 -69 -46 74 c-54 89 -52 86 -64
74 -6 -6 -3 -45 7 -107 18 -108 30 -119 25 -24 l-3 62 47 -77 c69 -117 76
-110 60 62 -8 82 -14 116 -19 100z"/>
<path d="M1156 2363 c-18 -5 -19 -13 -13 -116 4 -61 11 -115 16 -120 11 -11
111 10 111 24 0 5 -18 6 -41 3 -47 -8 -59 3 -59 52 0 27 4 33 33 40 l32 8 -32
3 c-31 4 -33 7 -33 42 0 38 0 39 48 46 37 6 43 9 27 16 -22 8 -60 9 -89 2z"/>
<path d="M1312 2359 c-12 -5 -22 -11 -22 -15 0 -34 34 -211 42 -219 7 -7 9 3
5 33 -8 63 25 55 75 -18 12 -18 17 -21 17 -9 1 9 -10 32 -23 52 -20 29 -22 37
-10 49 56 56 -9 155 -84 127z m62 -35 c9 -8 16 -25 16 -36 0 -24 -27 -58 -45
-58 -13 0 -25 43 -25 86 0 28 30 33 54 8z"/>
<path d="M1693 2363 c-21 -4 -22 -8 -17 -91 7 -115 13 -152 25 -152 23 0 99
23 99 30 0 4 -20 5 -45 2 l-45 -5 0 47 c0 39 3 46 19 46 11 0 23 5 26 10 4 6
-7 10 -24 10 -29 0 -31 2 -31 39 0 39 0 39 48 46 37 6 43 9 27 16 -21 8 -46 9
-82 2z"/>
<path d="M2725 2358 c-4 -10 -5 -36 -3 -58 4 -43 -3 -50 -52 -50 -25 0 -28 4
-33 41 -6 42 -13 57 -23 46 -6 -6 12 -165 22 -199 3 -10 10 -18 16 -18 7 0 8
16 3 46 -7 52 1 64 48 64 22 0 27 -4 27 -24 0 -40 12 -86 23 -86 11 0 1 180
-13 227 -6 23 -9 25 -15 11z"/>
<path d="M918 2274 l-3 -89 -44 73 c-68 114 -80 111 -61 -15 16 -112 33 -144
26 -49 -3 38 -2 66 2 62 4 -4 25 -37 47 -73 22 -36 45 -64 50 -62 12 5 7 220
-6 233 -4 5 -9 -30 -11 -80z"/>
<path d="M1010 2353 c-42 -14 -44 -16 -15 -22 29 -6 30 -8 38 -80 4 -41 15
-88 22 -105 14 -30 15 -28 10 39 -3 39 -8 87 -11 107 -5 34 -3 39 20 48 14 5
26 12 26 15 0 6 -70 5 -90 -2z"/>
<path d="M1547 2312 c-9 -30 -19 -69 -23 -89 -8 -41 -16 -35 -38 32 -22 68
-39 91 -33 45 9 -66 49 -180 62 -180 16 0 19 10 40 123 20 105 15 143 -8 69z"/>
<path d="M1999 2260 l-32 -101 -26 40 c-27 42 -61 55 -61 24 0 -10 -4 -24 -9
-32 -6 -9 -17 13 -37 70 -15 46 -29 77 -31 69 -5 -23 50 -203 64 -207 7 -3 17
13 23 38 l12 43 19 -24 c10 -14 21 -33 25 -42 3 -10 13 -18 23 -18 14 0 23 22
45 116 15 64 25 118 22 121 -2 3 -19 -41 -37 -97z"/>
<path d="M2500 2353 c-42 -14 -44 -16 -15 -22 29 -6 30 -8 38 -80 4 -41 15
-88 22 -105 14 -30 15 -28 10 39 -3 39 -8 87 -11 107 -5 34 -3 39 20 48 14 5
26 12 26 15 0 6 -70 5 -90 -2z"/>
<path d="M735 2341 c-9 -16 5 -200 16 -207 12 -7 11 187 0 205 -6 9 -10 10
-16 2z"/>
<path d="M1610 2293 c0 -80 11 -163 21 -163 10 0 12 142 3 189 -10 51 -24 35
-24 -26z"/>
<path d="M2325 2263 c-16 -51 -32 -93 -36 -93 -4 0 -16 16 -28 35 -25 44 -49
45 -58 4 -8 -39 -16 -29 -43 54 -25 76 -45 92 -25 20 41 -155 57 -188 70 -150
2 6 9 26 16 42 l11 30 25 -42 c31 -53 49 -54 62 -5 34 131 42 166 38 181 -2 9
-16 -26 -32 -76z"/>
<path d="M2400 2293 c0 -80 11 -163 21 -163 10 0 12 142 3 189 -10 51 -24 35
-24 -26z"/>
<path d="M3440 2149 c-163 -19 -350 -96 -445 -182 -135 -122 -221 -384 -196
-600 17 -148 70 -236 180 -300 l44 -26 -2 -113 c-4 -185 36 -316 118 -391 69
-62 241 -144 374 -178 l78 -20 77 21 c42 12 120 39 172 62 249 105 311 199
316 477 l2 143 49 28 c103 59 160 157 173 298 20 213 -48 442 -172 577 -51 56
-176 125 -310 171 -118 40 -297 53 -458 33z m415 -54 c108 -32 253 -98 261
-119 8 -20 -23 -71 -52 -87 -20 -10 -34 -7 -105 25 -251 115 -491 112 -767 -9
l-63 -28 -27 20 c-14 11 -32 34 -39 52 l-13 32 92 44 c188 88 275 106 478 100
120 -3 161 -8 235 -30z m-45 -158 c47 -14 116 -39 153 -56 38 -17 75 -31 82
-31 7 0 30 12 51 26 l39 26 40 -44 c37 -41 105 -163 105 -189 0 -6 -19 6 -42
25 -23 20 -60 41 -82 47 -45 12 -169 6 -228 -11 l-37 -11 16 -45 c34 -99 -1
-206 -102 -313 l-61 -64 -155 -2 -154 -1 -59 59 c-36 37 -70 85 -89 124 -27
59 -29 71 -24 136 3 40 7 81 9 92 2 16 -6 21 -47 31 -64 15 -159 17 -207 4
-21 -6 -58 -26 -82 -45 -42 -32 -45 -33 -36 -10 25 65 72 144 108 178 l39 38
38 -25 c21 -14 43 -26 50 -26 7 0 41 13 76 29 155 70 257 92 404 87 80 -3 133
-11 195 -29z m-780 5 c0 -5 -20 -29 -44 -55 -40 -41 -94 -136 -126 -221 -6
-16 -13 -26 -16 -24 -6 6 35 117 66 177 34 67 120 155 120 123z m1169 -28 c44
-49 74 -99 98 -164 40 -103 34 -105 -16 -5 -31 64 -65 116 -94 145 -41 40 -50
60 -27 60 4 0 22 -16 39 -36z m-1006 -203 c21 -5 41 -12 44 -15 4 -3 -7 -55
-24 -116 -26 -93 -28 -113 -17 -128 12 -16 13 -16 14 0 0 9 5 29 10 43 10 26
11 25 45 -41 19 -38 57 -95 86 -127 55 -62 55 -60 6 -88 -33 -19 -13 -18 58 2
95 26 255 26 350 0 l70 -19 -29 23 -29 23 57 70 c31 39 70 97 85 128 23 47 29
55 34 39 4 -11 32 -112 63 -225 31 -113 59 -216 63 -230 4 -14 14 -25 22 -25
10 0 16 -19 21 -65 8 -68 1 -160 -11 -160 -4 0 -33 29 -65 65 -32 36 -72 73
-89 82 -73 38 -216 7 -248 -54 -8 -14 -14 -52 -14 -84 0 -47 4 -63 23 -81 l22
-22 0 26 c0 28 16 38 58 38 41 0 105 37 130 75 l23 36 30 -18 c16 -10 37 -28
45 -41 9 -13 31 -40 49 -61 l33 -37 -29 -61 c-19 -40 -47 -78 -79 -105 -64
-57 -194 -121 -310 -154 -106 -30 -133 -28 -282 26 -161 58 -265 137 -312 236
l-26 54 51 66 c28 35 64 71 79 79 27 14 29 14 48 -20 25 -41 71 -67 132 -74
34 -5 47 -11 55 -29 14 -31 28 -23 41 25 15 51 2 118 -28 150 -46 49 -164 62
-235 25 -23 -12 -62 -48 -89 -82 -26 -33 -52 -59 -58 -57 -26 8 -17 217 9 217
8 0 19 18 26 43 6 23 24 89 40 146 16 58 29 106 29 108 0 2 -8 -1 -18 -6 -12
-6 -27 -46 -47 -121 -16 -62 -35 -115 -42 -117 -24 -9 -108 32 -149 73 -87 86
-114 252 -64 384 28 76 107 163 161 178 44 13 133 14 182 3z m995 -17 c65 -32
105 -80 138 -165 23 -58 26 -78 22 -155 -5 -141 -60 -235 -164 -284 -78 -36
-74 -42 -133 173 -29 105 -68 246 -87 311 -18 66 -31 122 -29 125 9 8 80 19
141 20 46 1 72 -5 112 -25z m-844 -809 c14 -49 37 -52 49 -6 l8 34 22 -22 c25
-25 17 -46 -26 -71 -24 -13 -29 -13 -54 2 -31 19 -68 82 -58 98 15 25 48 5 59
-35z m544 22 c5 -23 -21 -62 -53 -83 -21 -14 -30 -14 -55 -4 -41 17 -53 41
-34 68 20 30 28 28 39 -10 15 -48 33 -46 47 7 10 37 16 45 33 43 11 -2 21 -11
23 -21z"/>
<path d="M3036 1685 c-182 -65 -248 -335 -122 -500 24 -30 131 -94 141 -83 5
5 55 175 55 186 -1 4 -7 -7 -15 -25 -17 -39 -48 -58 -74 -44 -55 30 -56 182
-1 293 27 54 56 77 95 78 37 0 55 -15 56 -49 0 -15 10 10 23 54 l21 80 -35 12
c-47 16 -97 15 -144 -2z"/>
<path d="M3692 1107 c-24 -28 -42 -88 -41 -134 l1 -48 14 62 c7 35 21 77 29
94 18 33 15 48 -3 26z"/>
<path d="M3476 1095 c3 -11 13 -36 20 -55 7 -19 13 -52 14 -73 0 -23 4 -36 10
-32 23 14 3 118 -31 157 -18 20 -20 21 -13 3z"/>
<path d="M3533 653 c-20 -8 -15 -39 12 -71 14 -17 25 -35 25 -41 0 -23 -40
-51 -74 -51 -18 0 -45 9 -59 20 -30 24 -37 25 -37 6 0 -47 121 -76 162 -39 18
16 21 16 47 0 45 -26 116 -22 146 8 42 41 32 60 -12 25 -49 -38 -133 -16 -133
36 0 13 5 24 10 24 18 0 40 63 28 78 -10 12 -90 16 -115 5z m81 -32 c8 -13
-21 -34 -39 -27 -25 9 -18 36 9 36 14 0 27 -4 30 -9z"/>
<path d="M3974 1683 c-8 -6 -3 -36 16 -103 14 -52 51 -182 80 -287 30 -107 59
-193 65 -193 29 0 110 68 143 119 31 49 36 65 40 134 9 146 -34 251 -124 303
-39 23 -62 28 -128 31 -45 2 -86 0 -92 -4z m169 -103 c50 -44 80 -120 80 -205
1 -72 -25 -158 -42 -139 -7 8 -22 57 -87 292 -22 79 -22 82 -4 82 11 0 35 -13
53 -30z"/>
<path d="M452 1782 c-77 -28 -109 -58 -149 -140 -23 -48 -25 -63 -21 -140 5
-93 20 -135 67 -185 79 -85 242 -102 341 -35 42 29 45 39 22 68 l-19 23 -45
-27 c-53 -31 -122 -35 -175 -10 -101 49 -134 216 -61 315 49 67 156 89 231 49
20 -11 43 -20 49 -20 16 1 51 47 44 58 -2 4 -26 19 -53 32 -64 32 -159 37
-231 12z"/>
<path d="M2201 1778 c-55 -30 -81 -75 -81 -145 0 -71 38 -111 135 -143 85 -27
115 -52 115 -95 0 -76 -94 -104 -182 -52 -24 14 -49 23 -55 19 -16 -11 -35
-51 -28 -62 15 -24 94 -53 155 -57 86 -6 145 22 178 87 57 113 7 201 -137 240
-57 15 -105 61 -96 92 18 60 87 78 165 43 l42 -19 19 25 c24 31 21 38 -26 63
-61 31 -150 33 -204 4z"/>
<path d="M830 1520 l0 -270 45 0 44 0 3 118 3 117 130 0 130 0 3 -117 3 -118
44 0 45 0 0 270 0 270 -45 0 -44 0 -3 -117 -3 -118 -130 0 -130 0 -3 118 -3
117 -44 0 -45 0 0 -270z"/>
<path d="M1390 1520 l0 -270 50 0 49 0 3 108 3 107 30 -3 c41 -5 47 -12 117
-119 l60 -93 54 0 55 0 -62 93 c-34 50 -71 102 -81 114 l-20 21 28 15 c70 37
104 112 84 186 -23 87 -79 111 -254 111 l-116 0 0 -270z m255 170 c27 -26 34
-75 14 -112 -14 -27 -69 -48 -124 -48 l-45 0 0 96 0 96 65 -4 c50 -3 70 -9 90
-28z"/>
<path d="M1910 1520 l0 -270 45 0 45 0 0 270 0 270 -45 0 -45 0 0 -270z"/>
<path d="M1081 838 c-57 -145 -106 -269 -108 -276 -4 -10 6 -12 42 -10 l48 3
26 65 26 65 119 0 119 0 18 -54 c25 -72 34 -81 84 -81 l42 0 -107 273 -107
272 -50 3 -50 3 -102 -263z m239 -80 c0 -5 -38 -8 -85 -8 -65 0 -85 3 -85 13
0 8 16 59 36 113 19 54 38 106 41 114 4 12 92 -208 93 -232z"/>
<path d="M1915 1091 l-49 -6 -53 -135 c-29 -74 -63 -164 -76 -200 -12 -36 -27
-67 -32 -69 -6 -2 -25 36 -43 85 -18 49 -53 142 -78 207 l-46 117 -49 0 -49 0
17 -42 c9 -24 58 -144 108 -268 l91 -225 46 -3 45 -3 111 276 c61 151 110 274
109 273 -1 0 -24 -4 -52 -7z"/>
<path d="M2050 823 l0 -273 45 0 45 0 0 269 0 269 -45 4 -45 3 0 -272z"/>
<path d="M2355 1086 c-84 -37 -117 -133 -76 -215 20 -39 39 -50 154 -92 65
-23 91 -53 82 -92 -18 -70 -97 -89 -184 -43 l-50 26 -21 -27 c-11 -14 -19 -31
-17 -37 2 -6 26 -22 53 -35 37 -19 65 -25 114 -26 116 0 180 51 188 152 8 93
-22 131 -133 167 -85 28 -115 51 -115 89 0 66 77 96 150 58 52 -27 64 -27 78
4 18 38 16 41 -37 64 -57 24 -140 27 -186 7z"/>
<path d="M460 819 l0 -271 153 4 c172 4 205 14 267 84 48 56 64 99 64 184 1
126 -58 218 -165 255 -29 11 -84 15 -180 15 l-139 0 0 -271z m290 179 c25 -13
55 -38 67 -56 28 -42 38 -125 23 -182 -26 -97 -73 -130 -196 -138 l-84 -5 0
202 0 201 73 0 c56 0 83 -5 117 -22z"/>
</g>
</svg>
