<?xml version="1.0" encoding="UTF-8"?>
<svg xmlns="http://www.w3.org/2000/svg" xmlns:xlink="http://www.w3.org/1999/xlink" width="300px" height="445px" viewBox="0 0 300 300" version="1.1">
<g id="surface1">
<path style=" stroke:none;fill-rule:nonzero;fill:rgb(0%,0%,0%);fill-opacity:1;" d="M 0 150 L 0 300 L 300 300 L 300 0 L 0 0 Z M 121.25 25.582031 C 121.25 25.707031 121.082031 25.917969 120.832031 26.042969 C 120.625 26.167969 120.417969 26.082031 120.417969 25.875 C 120.417969 25.625 120.625 25.417969 120.832031 25.417969 C 121.082031 25.417969 121.25 25.5 121.25 25.582031 Z M 123.792969 28.375 C 124.167969 28.832031 124.667969 29.167969 124.957031 29.167969 C 125.207031 29.167969 125.417969 29.457031 125.417969 29.792969 C 125.417969 30.125 125.832031 30.625 126.375 30.875 C 126.875 31.167969 127.5 31.667969 127.792969 32.042969 C 128.042969 32.417969 128.417969 32.582031 128.542969 32.417969 C 128.707031 32.25 129.5 32.375 130.25 32.707031 C 131.042969 33.042969 131.667969 33.125 131.667969 32.875 C 131.667969 32.292969 132.292969 32.417969 133.292969 33.292969 C 133.832031 33.75 134.457031 34.207031 134.667969 34.25 C 134.957031 34.375 135 34.667969 134.707031 35.207031 C 134.457031 35.667969 134.042969 36.5 133.792969 37.082031 C 133.082031 38.707031 133.667969 41.582031 134.625 41.042969 C 134.832031 40.875 135 41.375 135 42.042969 C 135 43.125 135.25 43.457031 136.542969 44.042969 C 138.917969 45.167969 139.25 46.207031 138.25 49.542969 C 137.792969 51.042969 137.292969 52.957031 137.082031 53.75 C 136.917969 54.542969 136.625 55.542969 136.457031 55.957031 C 136.125 56.75 133.375 58.332031 132.375 58.332031 C 132.042969 58.332031 131.542969 58.582031 131.292969 58.917969 C 131 59.25 130.417969 59.417969 129.957031 59.292969 C 129 59.042969 129 58.917969 130.582031 61.957031 C 131.417969 63.582031 131.457031 66.082031 130.625 68.042969 C 130.292969 68.875 130 70.082031 130 70.75 C 130 71.375 129.832031 72.082031 129.582031 72.332031 C 129.125 72.792969 127.207031 78.25 126.707031 80.542969 C 126.5 81.417969 126.042969 82.457031 125.667969 82.832031 C 124.875 83.707031 125.457031 84.582031 126.832031 84.582031 C 128.292969 84.582031 128.75 85.167969 129 87.207031 C 129.25 88.875 129.167969 89.167969 128.667969 88.957031 C 128.292969 88.792969 127.917969 88.957031 127.792969 89.332031 C 127.625 89.707031 127.875 90.042969 128.417969 90.25 C 129.125 90.457031 129.167969 90.582031 128.707031 91.042969 C 128.375 91.332031 127.75 91.667969 127.292969 91.75 C 126.417969 91.875 125.917969 92.207031 124.542969 93.417969 C 124.125 93.832031 123.582031 94.167969 123.332031 94.167969 C 122.375 94.167969 123 95.375 124.167969 95.792969 C 124.875 96 125.417969 96.417969 125.417969 96.667969 C 125.417969 96.917969 125.625 97 125.875 96.832031 C 126.25 96.625 126.292969 97.207031 126.082031 99.082031 C 125.667969 102.625 126.167969 103.417969 128.542969 103.292969 C 130.667969 103.167969 130.667969 103.167969 131.042969 104.582031 C 131.25 105.457031 130.957031 106 129.625 107.457031 C 127.542969 109.75 127.332031 111.332031 129.082031 112.207031 C 131.75 113.582031 136.207031 114.292969 140.25 114 C 142.832031 113.832031 144.167969 113.875 144.167969 114.167969 C 144.167969 114.375 144.417969 114.582031 144.75 114.582031 C 145.457031 114.582031 145.832031 118.042969 145.292969 119.667969 C 144.832031 121.125 144.542969 121.125 143 119.542969 C 141.832031 118.332031 141.542969 118.25 139.75 118.457031 C 138.667969 118.582031 137.542969 118.917969 137.332031 119.25 C 136.917969 119.75 135.832031 120.417969 132.417969 122.125 C 132 122.332031 130.707031 122.5 129.5 122.5 C 127.042969 122.5 125.832031 121.707031 125.832031 120.042969 C 125.832031 119.457031 125.667969 118.75 125.5 118.542969 C 125 117.875 121.25 117.832031 118.125 118.5 C 115.792969 119 114.957031 119.417969 113.832031 120.625 C 112.207031 122.332031 111.417969 122.457031 111.167969 121.042969 C 111 120.207031 111.375 119.667969 113.25 118.042969 C 114.542969 116.957031 115.792969 116.082031 116.082031 116.082031 C 116.375 116.125 116.5 115.917969 116.417969 115.667969 C 116.292969 115.375 117.082031 114.832031 118.125 114.417969 C 119.167969 113.957031 120 113.457031 120 113.25 C 120 113.042969 120.25 113 120.542969 113.167969 C 120.792969 113.332031 120.917969 113.332031 120.75 113.125 C 120.582031 112.957031 120.625 112.542969 120.875 112.207031 C 121.207031 111.832031 121.207031 111.667969 120.917969 111.667969 C 120.667969 111.667969 120.332031 111.875 120.207031 112.082031 C 120.042969 112.332031 119.75 112.375 119.5 112.25 C 119.25 112.082031 119.667969 111.707031 120.417969 111.417969 C 122 110.707031 122.957031 110.667969 122.082031 111.292969 C 121.625 111.625 121.792969 111.667969 122.875 111.5 C 125.667969 111 126 110 124.417969 106.582031 C 122.042969 101.417969 121.25 99.457031 119.25 93.542969 C 115.292969 81.875 114.207031 74.875 115.417969 68.667969 C 116.292969 64.292969 116.167969 64.542969 117.417969 64.832031 C 118.625 65.082031 121.375 67.792969 121 68.375 C 120.917969 68.542969 121.375 69 122.125 69.375 C 123.207031 69.957031 123.625 69.957031 124.625 69.582031 C 125.292969 69.292969 125.832031 68.832031 125.832031 68.542969 C 125.832031 68.25 126.125 67.792969 126.457031 67.5 C 126.832031 67.207031 127.042969 66.707031 126.917969 66.375 C 126.792969 66.082031 126.875 65.832031 127.082031 65.832031 C 127.292969 65.832031 127.667969 65.5 127.875 65.042969 C 128.207031 64.457031 128 63.832031 127.042969 62.25 C 125.957031 60.625 125.832031 60.167969 126.332031 59.832031 C 127.332031 59.042969 126.707031 58.125 124.417969 57.25 C 122.75 56.582031 121.792969 56.457031 120.375 56.667969 C 119 56.875 118.707031 57.042969 119.292969 57.292969 C 119.707031 57.457031 120.292969 58.125 120.667969 58.792969 C 121.25 60 121.25 60 119.792969 60.707031 C 119 61.082031 118.332031 61.582031 118.332031 61.75 C 118.332031 61.957031 117.832031 62.042969 117.207031 61.957031 C 115.582031 61.75 115.207031 59.667969 115.875 54.5 C 116.292969 51.292969 116.292969 49.75 115.875 47.417969 C 115.625 45.75 115.207031 43.332031 115 42.082031 C 114.792969 40.832031 114.792969 38.957031 114.917969 37.917969 C 115.082031 36.875 115.207031 35.582031 115.167969 35 C 115.125 34.457031 115.375 33.542969 115.707031 33.042969 C 116.042969 32.542969 116.207031 31.917969 116.042969 31.667969 C 115.917969 31.457031 116 31.25 116.207031 31.25 C 116.457031 31.25 116.667969 31 116.667969 30.667969 C 116.667969 29.832031 118.667969 28.332031 119.792969 28.332031 C 120.332031 28.332031 120.875 28.042969 121 27.667969 C 121.292969 26.875 122.792969 27.25 123.792969 28.375 Z M 165.417969 54.667969 C 165.875 56.5 166 56.625 166.917969 56.417969 C 167.5 56.25 167.917969 56.332031 167.917969 56.582031 C 167.917969 56.832031 168.167969 57.292969 168.5 57.625 C 168.832031 57.917969 169.375 59.042969 169.75 60.042969 C 170.082031 61.042969 170.375 61.542969 170.417969 61.125 C 170.417969 60.167969 171.125 60.207031 171.667969 61.207031 C 172.25 62.332031 172.207031 62.917969 171.542969 62.667969 C 171.207031 62.542969 170.957031 62.75 170.957031 63.082031 C 170.957031 63.417969 171.125 63.625 171.332031 63.5 C 171.542969 63.332031 171.625 64 171.457031 64.957031 C 171.292969 66 171.375 66.667969 171.625 66.667969 C 171.875 66.667969 171.957031 66.957031 171.832031 67.292969 C 171.667969 67.625 171.792969 67.917969 172.042969 67.917969 C 172.292969 67.917969 172.5 68.207031 172.5 68.542969 C 172.5 68.875 172.792969 69.167969 173.167969 69.167969 C 173.5 69.167969 173.667969 69.332031 173.542969 69.582031 C 173.417969 69.792969 173.5 70 173.707031 70 C 173.957031 70 174.167969 70.292969 174.167969 70.707031 C 174.167969 71.292969 174.25 71.292969 175 70.625 C 175.832031 69.875 175.875 69.875 176.75 70.75 C 177.25 71.207031 177.667969 72.042969 177.75 72.582031 C 177.792969 73.125 177.875 73.542969 177.917969 73.542969 C 177.957031 73.542969 178.042969 74.417969 178.125 75.5 C 178.207031 76.625 178.125 77.5 177.917969 77.5 C 177.667969 77.5 177.5 76.625 177.5 75.542969 C 177.5 73.542969 177.042969 73.375 176.75 75.292969 C 176.667969 75.917969 176.25 76.707031 175.832031 77.082031 C 175.375 77.457031 175.042969 78.125 175.082031 78.582031 C 175.082031 79 174.875 79.917969 174.667969 80.625 C 173.917969 82.75 172.917969 86.5 172.917969 87.125 C 172.917969 87.582031 173.417969 87.667969 174.957031 87.582031 L 177.042969 87.417969 L 176.832031 89.457031 C 176.75 90.542969 176.457031 93.5 176.207031 96.042969 C 175.957031 98.542969 175.667969 103.125 175.542969 106.125 C 175.375 111.582031 175.167969 112.207031 173.957031 111.332031 C 173.375 110.917969 171.875 106.917969 171.207031 104.042969 C 170.582031 101.082031 169.832031 100.667969 166.457031 101.292969 C 165.207031 101.5 164 101.625 163.792969 101.5 C 163.625 101.375 163.125 100.042969 162.707031 98.542969 C 162.332031 97.042969 161.832031 95.707031 161.625 95.582031 C 161.417969 95.457031 161.25 95 161.25 94.5 C 161.25 93.207031 159.957031 91.292969 159 91.167969 C 158.207031 91.042969 158.082031 90.667969 157.875 87.832031 C 157.707031 85.667969 157.332031 84.167969 156.707031 83.207031 C 155.332031 80.957031 155.542969 79 157.417969 76.5 C 159.332031 73.957031 159.75 73 159.167969 72.292969 C 158.875 71.957031 158.875 71.417969 159.125 70.792969 C 159.417969 69.957031 159.292969 69.707031 158.332031 69.167969 C 156.292969 68.042969 153.75 65.75 153.75 65 C 153.75 64.582031 154.042969 64.125 154.417969 64 C 154.957031 63.792969 155 63.625 154.625 63.167969 C 154.207031 62.707031 154.292969 62.5 154.832031 62.167969 C 155.207031 61.957031 155.875 61.875 156.292969 61.957031 C 156.75 62.082031 157.082031 61.957031 157.082031 61.707031 C 157.082031 61.457031 156.917969 61.25 156.75 61.25 C 156.582031 61.25 156.125 60.582031 155.75 59.792969 C 155.042969 58.25 155.167969 57.75 156.707031 54.917969 C 156.917969 54.5 157.082031 53.75 157.082031 53.25 C 157.082031 52.542969 157.207031 52.457031 157.582031 52.832031 C 157.875 53.125 158.332031 53.332031 158.625 53.332031 C 159.042969 53.332031 159.042969 53.125 158.542969 52.332031 C 157.917969 51.375 157.917969 51.292969 158.75 51.042969 C 159.25 50.875 160.207031 51 160.917969 51.292969 C 162.042969 51.75 162.25 51.707031 162.625 51.042969 C 163 50.332031 163.125 50.332031 164 51.457031 C 164.542969 52.125 165.167969 53.582031 165.417969 54.667969 Z M 145.832031 62.292969 C 147.417969 63.082031 147.457031 63.667969 145.957031 63.457031 C 144.792969 63.332031 144.792969 63.332031 145.792969 63.75 C 147.25 64.375 146.667969 64.625 144.332031 64.292969 L 142.292969 64.042969 L 143.542969 63.5 C 144.707031 63 144.75 62.957031 143.792969 62.917969 C 142.792969 62.917969 142.792969 62.917969 143.582031 62.292969 C 144.582031 61.542969 144.375 61.542969 145.832031 62.292969 Z M 119.667969 63.832031 C 119.375 64.125 119.167969 64.167969 119.167969 63.917969 C 119.167969 63.332031 119.667969 62.832031 119.957031 63.125 C 120.042969 63.25 119.917969 63.582031 119.667969 63.832031 Z M 5.082031 64.582031 C 5.375 65.042969 6.082031 65.417969 6.667969 65.417969 C 7.25 65.457031 8.167969 65.707031 8.75 66.042969 C 9.332031 66.375 10.25 66.625 10.792969 66.667969 C 11.332031 66.667969 12 66.957031 12.25 67.25 C 12.5 67.625 13.582031 67.917969 14.792969 68 C 15.957031 68.082031 16.957031 68.207031 17.082031 68.332031 C 17.625 68.875 20.875 70.832031 21.25 70.832031 C 21.457031 70.832031 21.667969 71.082031 21.667969 71.375 C 21.667969 71.707031 22.042969 72.292969 22.542969 72.75 C 23.875 73.957031 24.707031 75.792969 24.207031 76.417969 C 24 76.667969 23.75 78.542969 23.707031 80.542969 C 23.667969 82.542969 23.542969 84.167969 23.417969 84.167969 C 23.292969 84.167969 22.957031 83.832031 22.625 83.417969 C 22.082031 82.75 22.042969 82.75 21.417969 83.625 C 20.832031 84.417969 20.332031 84.582031 18.332031 84.582031 C 15.125 84.582031 13.332031 84.957031 13.332031 85.667969 C 13.332031 86.457031 11.875 86.417969 11.082031 85.625 C 10.75 85.292969 10.292969 85 10.042969 85 C 9.792969 85 9.582031 84.832031 9.582031 84.625 C 9.582031 84.457031 8.792969 83.75 7.832031 83.082031 C 6.875 82.417969 5.582031 81.417969 4.957031 80.832031 C 3.917969 79.917969 3.875 79.707031 4.375 79 C 5.082031 78.082031 4.832031 77.5 3.75 77.5 C 3.332031 77.5 2.875 77.207031 2.75 76.832031 C 2.375 75.875 3.292969 74.917969 4.332031 75.167969 C 5.042969 75.332031 5.375 75.042969 5.957031 73.792969 C 6.332031 72.917969 6.667969 72.082031 6.667969 71.917969 C 6.667969 71.75 5.832031 70.542969 4.792969 69.207031 C 2.792969 66.625 2.707031 66.457031 3.332031 64.832031 C 3.792969 63.542969 4.375 63.457031 5.082031 64.582031 Z M 189.792969 65 C 189.917969 65.207031 189.75 65.417969 189.417969 65.417969 C 189.082031 65.417969 188.667969 65.207031 188.542969 65 C 188.417969 64.75 188.582031 64.582031 188.917969 64.582031 C 189.25 64.582031 189.667969 64.75 189.792969 65 Z M 152.707031 66.667969 C 152.832031 66.875 152.792969 67.082031 152.542969 67.082031 C 152.332031 67.082031 152 66.875 151.875 66.667969 C 151.75 66.417969 151.792969 66.25 152.042969 66.25 C 152.25 66.25 152.582031 66.417969 152.707031 66.667969 Z M 186.832031 72.292969 C 186.832031 74.25 186.667969 75.957031 186.457031 76.207031 C 186.125 76.542969 186.042969 76.25 186.167969 75.292969 C 186.25 74.542969 186.042969 73.207031 185.667969 72.375 C 185.332031 71.5 185.125 70.582031 185.207031 70.292969 C 185.292969 70.042969 185.457031 69.25 185.625 68.542969 C 186.082031 66.375 186.75 68.417969 186.832031 72.292969 Z M 280.667969 69.125 C 280.5 69.332031 280.667969 69.625 280.917969 69.707031 C 281.207031 69.832031 281.042969 69.957031 280.542969 69.957031 C 279.582031 70 279 69.457031 279.457031 69 C 279.875 68.582031 280.917969 68.707031 280.667969 69.125 Z M 185.417969 78.332031 C 185.167969 78.832031 184.832031 79.167969 184.707031 79.042969 C 184.625 78.917969 184.75 78.457031 185.042969 77.957031 C 185.75 76.875 186.042969 77.167969 185.417969 78.332031 Z M 186.707031 78.875 C 186.292969 79.25 186.25 79.207031 186.5 78.625 C 186.625 78.207031 186.875 78 187 78.125 C 187.125 78.25 187 78.582031 186.707031 78.875 Z M 182.042969 81.5 C 181.792969 81.792969 181.875 82.167969 182.292969 82.5 C 183.542969 83.542969 182.75 85.25 180.667969 86 C 179.917969 86.25 179.875 86.25 180.5 85.542969 C 180.875 85.125 181.292969 84.375 181.417969 83.875 C 181.667969 83.082031 181.582031 82.957031 180.957031 83.207031 C 180.542969 83.375 179.957031 83.832031 179.667969 84.25 C 179.375 84.667969 178.957031 85 178.75 85 C 178.25 85 178.792969 83.167969 179.457031 82.792969 C 179.75 82.625 180 82.125 180 81.75 C 180 80.542969 180.792969 79.957031 181.707031 80.542969 C 182.207031 80.832031 182.332031 81.167969 182.042969 81.5 Z M 131 89.375 C 130.875 89.957031 130.582031 90.417969 130.332031 90.417969 C 130.125 90.417969 130.042969 90.25 130.207031 90.042969 C 130.332031 89.832031 130.25 89.542969 130.082031 89.417969 C 129.875 89.292969 129.792969 88.707031 129.875 88.167969 C 130.082031 87.25 130.167969 87.207031 130.667969 87.707031 C 131.042969 88.082031 131.167969 88.667969 131 89.375 Z M 24.457031 89.917969 C 24.875 90.332031 25 90.332031 25 89.957031 C 25 89.667969 25.332031 89.75 25.875 90.25 L 26.75 91.042969 L 24.957031 91.292969 C 22.707031 91.625 22.5 91.5 22.5 90 C 22.5 88.832031 23.375 88.042969 23.707031 88.917969 C 23.792969 89.167969 24.125 89.625 24.457031 89.917969 Z M 130.417969 99.25 C 130.417969 100.042969 130.332031 100.082031 130 99.582031 C 129.457031 98.792969 129.457031 98.332031 130 98.332031 C 130.25 98.332031 130.417969 98.75 130.417969 99.25 Z M 118.167969 112.707031 C 117.75 113.042969 116.207031 113.917969 114.792969 114.667969 C 111.667969 116.25 110.582031 117.75 109.5 121.707031 C 109.082031 123.375 108.125 125.5 107.457031 126.5 C 106.167969 128.25 106.167969 128.25 105.332031 127.417969 C 104.582031 126.667969 104.457031 126.667969 103.792969 127.25 C 103.375 127.625 102.667969 127.917969 102.167969 127.917969 C 101.667969 127.917969 101.25 128.082031 101.25 128.292969 C 101.25 128.5 99.332031 129.625 97 130.832031 C 94.625 132.042969 91.957031 133.542969 91.082031 134.207031 C 90.167969 134.875 89.207031 135.417969 88.917969 135.417969 C 88.625 135.417969 87.625 136.167969 86.667969 137.082031 C 85.417969 138.292969 84.75 139.375 84.292969 141.042969 C 83.542969 143.625 83.917969 144.582031 85.667969 144.582031 C 86.207031 144.582031 86.667969 144.75 86.667969 144.917969 C 86.667969 145.125 87.042969 145.667969 87.542969 146.207031 C 88.125 146.832031 88.332031 147.457031 88.167969 148.082031 C 87.542969 150.625 84.792969 151.917969 83.957031 150.082031 C 83.707031 149.5 83.167969 149.167969 82.582031 149.167969 C 81.375 149.167969 79.167969 147.917969 79.167969 147.25 C 79.167969 146.957031 79.042969 146.667969 78.875 146.582031 C 78.667969 146.5 77.917969 144.457031 77.125 142 L 75.667969 137.5 L 76.917969 136.207031 C 78.207031 134.832031 84.625 130.457031 88.125 128.542969 C 89.292969 127.917969 90.417969 127.25 90.625 127.082031 C 90.875 126.917969 94.875 124.792969 99.582031 122.417969 C 107.792969 118.167969 109.292969 117.375 112.5 115.5 C 115.125 113.957031 118.542969 112.125 118.75 112.125 C 118.875 112.125 118.582031 112.375 118.167969 112.707031 Z M 29.167969 115.832031 C 29.167969 116 28.917969 116.375 28.582031 116.625 C 27.875 117.207031 27.292969 116.542969 27.667969 115.625 C 27.875 115 29.167969 115.207031 29.167969 115.832031 Z M 109.167969 126.292969 C 109.167969 126.542969 109 126.582031 108.75 126.457031 C 108.542969 126.332031 108.332031 126 108.332031 125.792969 C 108.332031 125.542969 108.542969 125.5 108.75 125.625 C 109 125.75 109.167969 126.082031 109.167969 126.292969 Z M 108.25 129.457031 C 108.292969 132.707031 107.207031 133.625 106.417969 131.042969 C 106.042969 129.917969 106.082031 129.417969 106.542969 128.75 C 107.5 127.417969 108.25 127.707031 108.25 129.457031 Z M 11.25 131.167969 C 11.25 131.375 10.957031 131.875 10.582031 132.332031 C 10 133.042969 9.957031 133.042969 10.167969 132.375 C 10.292969 131.957031 10.417969 131.417969 10.417969 131.207031 C 10.417969 131 10.625 130.832031 10.832031 130.832031 C 11.082031 130.832031 11.25 131 11.25 131.167969 Z M 100.957031 134.25 C 101.082031 134.667969 101.332031 134.667969 102.125 134.292969 C 102.667969 134.042969 103.582031 133.875 104.167969 133.957031 C 104.75 134.042969 105.332031 134.125 105.5 134.125 C 105.667969 134.167969 106.417969 135.207031 107.167969 136.457031 C 107.917969 137.707031 108.707031 138.75 108.917969 138.75 C 109.292969 138.75 109.042969 136.167969 108.542969 134.875 C 108.292969 134.292969 108.457031 134.167969 109.582031 134.167969 C 110.707031 134.167969 110.832031 134.292969 110.625 135 C 110.457031 135.5 110.542969 135.832031 110.832031 135.832031 C 111.082031 135.832031 111 136.25 110.582031 136.875 C 110.082031 137.625 110 138.417969 110.167969 139.875 C 110.292969 141 110.25 142.625 110.082031 143.542969 L 109.792969 145.207031 L 109.042969 144.167969 C 108.625 143.582031 107.417969 141.917969 106.332031 140.417969 L 104.375 137.707031 L 104.25 140.375 C 104.167969 141.875 104.332031 143.25 104.542969 143.457031 C 105.292969 144.207031 105.042969 144.582031 103.75 144.582031 C 102.457031 144.582031 102.207031 144.207031 102.917969 143.5 C 103.207031 143.207031 103.332031 141.582031 103.25 139.542969 C 103.125 136.25 103.082031 136.042969 102.167969 135.917969 C 101.667969 135.832031 101.25 135.917969 101.292969 136.125 C 101.5 137.417969 101.125 137.457031 99.792969 136.292969 C 98.125 134.875 97.5 134.667969 97.5 135.667969 C 97.5 136 97.667969 136.207031 97.832031 136.082031 C 98.667969 135.582031 99.207031 136.542969 98.75 137.667969 C 98.292969 138.917969 98.207031 138.875 100.167969 138.082031 C 100.75 137.832031 101.332031 139.207031 100.875 139.875 C 100.75 140.082031 99.957031 140.25 99.167969 140.25 C 97.75 140.207031 97.707031 140.25 97.582031 142 C 97.457031 143.75 97.5 143.792969 98.417969 143.542969 C 98.957031 143.375 99.875 142.75 100.542969 142.167969 C 101.792969 141 101.875 141.125 101.25 143.332031 L 100.832031 144.792969 L 97.375 144.667969 L 93.875 144.542969 L 94.042969 142.167969 L 94.207031 139.792969 L 92.832031 141.375 C 92.082031 142.207031 91.125 142.917969 90.707031 142.917969 C 90.082031 142.917969 90.042969 143.042969 90.457031 143.792969 C 90.792969 144.417969 90.792969 144.792969 90.457031 145.125 C 90.125 145.457031 90 145.417969 89.917969 144.957031 C 89.832031 144 89.75 143.582031 89.375 142.792969 C 89.042969 142.042969 89.417969 140.542969 89.875 140.957031 C 90 141.125 90.582031 140.832031 91.167969 140.417969 C 91.707031 139.957031 92.457031 139.582031 92.75 139.582031 C 93.082031 139.582031 93.332031 139.292969 93.332031 138.957031 C 93.332031 138.625 93.542969 138.332031 93.75 138.332031 C 94.375 138.332031 94.25 135.125 93.667969 134.707031 C 93.332031 134.5 94.625 134.292969 96.667969 134.125 C 98.625 134 100.332031 133.875 100.5 133.832031 C 100.625 133.792969 100.832031 134 100.957031 134.25 Z M 135.957031 135.707031 C 136.25 137.207031 135.832031 137.457031 135 136.417969 C 134.667969 136.082031 134.082031 135.582031 133.625 135.375 C 132.832031 134.917969 132.832031 135.082031 132.957031 139.75 L 133.125 144.582031 L 129.792969 144.582031 L 129.917969 140 C 130.082031 135.042969 129.875 134.625 128.042969 136.332031 L 127.082031 137.207031 L 127.082031 134.207031 L 131.167969 134.082031 C 133.375 134 135.332031 134.042969 135.457031 134.167969 C 135.625 134.292969 135.832031 135 135.957031 135.707031 Z M 187.167969 135.417969 C 188.207031 136.707031 188.082031 138.207031 186.875 139.332031 C 185.542969 140.582031 185.582031 141.042969 187.292969 143.542969 C 188.082031 144.667969 188.542969 145.667969 188.332031 145.75 C 187.542969 146.042969 185.542969 144.582031 184.375 142.917969 C 183.542969 141.75 183.082031 141.332031 182.75 141.667969 C 182.457031 141.957031 182.457031 142.457031 182.792969 143.332031 L 183.25 144.582031 L 181.207031 144.582031 C 179.167969 144.582031 178.792969 144.292969 179.625 143.457031 C 180.125 142.957031 179.957031 136.082031 179.417969 134.917969 C 179.167969 134.332031 179.375 134.207031 180.917969 134.082031 C 183.917969 133.875 186.332031 134.375 187.167969 135.417969 Z M 195.875 134.417969 C 196.375 134.707031 196.332031 135.082031 195.625 136 C 195 136.792969 195 136.792969 194.042969 135.917969 C 192.792969 134.75 191.25 134.707031 191.25 135.832031 C 191.25 136.417969 191.957031 137 193.75 137.917969 C 197.375 139.75 197.957031 141.292969 195.875 143.375 C 194.832031 144.417969 194.332031 144.582031 192.417969 144.582031 C 191.167969 144.582031 189.832031 144.332031 189.417969 144.042969 C 188.75 143.542969 188.75 143.457031 189.707031 142.332031 L 190.75 141.167969 L 191.332031 142.332031 C 191.792969 143.332031 192.167969 143.542969 193.332031 143.542969 C 195.582031 143.542969 195.332031 142.167969 192.832031 140.832031 C 189.792969 139.167969 189.042969 138.332031 189.332031 136.917969 C 189.667969 135.375 190.625 134.25 191.832031 134.042969 C 192.875 133.875 195.375 134.082031 195.875 134.417969 Z M 118.792969 134.875 C 121.417969 136.457031 121.75 140.875 119.375 143.332031 C 118.082031 144.667969 116.542969 145.082031 114.042969 144.75 L 112.292969 144.5 L 112.292969 140.042969 C 112.292969 137.625 112.125 135.292969 111.917969 134.875 C 111.625 134.25 111.875 134.167969 114.582031 134.167969 C 116.667969 134.167969 117.957031 134.375 118.792969 134.875 Z M 140.667969 136.125 C 140.625 138 140.707031 138.125 141.667969 138.125 C 142.542969 138.125 142.707031 137.957031 142.667969 136.875 C 142.667969 136.167969 142.5 135.292969 142.332031 134.875 C 142.042969 134.25 142.25 134.167969 144.167969 134.167969 C 146.082031 134.167969 146.292969 134.25 146 134.875 C 145.457031 136.082031 145.292969 142.75 145.832031 143.707031 C 146.25 144.542969 146.167969 144.582031 144.457031 144.582031 C 142.417969 144.582031 141.875 144.292969 142.542969 143.5 C 142.75 143.207031 142.917969 142.082031 142.832031 140.957031 C 142.707031 139.082031 142.625 138.957031 141.5 138.832031 L 140.332031 138.667969 L 140.667969 144.582031 L 137.25 144.582031 L 137.417969 140.167969 C 137.542969 137.292969 137.457031 135.625 137.125 135.292969 C 136.292969 134.457031 136.667969 134.167969 138.667969 134.167969 L 140.667969 134.167969 Z M 154.75 135.082031 C 155.25 136.957031 155.042969 137.125 153.625 136.082031 C 151.417969 134.375 150.75 134.625 150.917969 136.957031 C 151 138.082031 151.25 138.917969 151.457031 138.917969 C 151.707031 138.875 152.5 138.75 153.25 138.625 C 154.457031 138.375 154.582031 138.457031 154.582031 139.375 C 154.582031 140.5 154.207031 140.707031 153.457031 139.957031 C 153.207031 139.707031 152.582031 139.582031 152.042969 139.667969 C 151.207031 139.75 151.042969 140.042969 150.917969 141.582031 C 150.75 143.875 151.582031 144.25 153.625 142.792969 C 154.5 142.167969 155.207031 141.75 155.292969 141.792969 C 155.332031 141.875 155.207031 142.582031 154.957031 143.375 L 154.5 144.792969 L 151.292969 144.667969 L 148.082031 144.542969 L 148.25 140.625 C 148.375 138.457031 148.25 136.167969 148 135.457031 L 147.542969 134.167969 L 151 134.167969 C 154.25 134.167969 154.5 134.207031 154.75 135.082031 Z M 168.75 134.375 C 168.75 134.5 168.457031 135.292969 168.082031 136.167969 L 167.457031 137.707031 L 166.875 136.332031 C 165.792969 133.832031 164.167969 135.082031 164.167969 138.417969 C 164.167969 141.875 165.917969 143.375 168.207031 141.875 C 169.207031 141.207031 169.25 141.207031 168.957031 142.167969 C 168.417969 143.917969 167.5 144.582031 165.582031 144.582031 C 162.167969 144.582031 160.707031 141.125 162.457031 137.25 C 163.457031 135.042969 164.75 134.167969 166.957031 134.167969 C 167.957031 134.167969 168.75 134.25 168.75 134.375 Z M 173.417969 138.75 L 173.25 143.292969 L 174.375 143.582031 C 176.207031 144.042969 176.75 142.957031 176.582031 138.957031 C 176.5 137.125 176.292969 135.292969 176.082031 134.875 C 175.792969 134.292969 175.957031 134.167969 176.707031 134.167969 C 177.707031 134.167969 177.707031 134.167969 177.542969 138.417969 C 177.5 140.792969 177.25 143.042969 177.042969 143.417969 C 176.582031 144.292969 174.25 145 172.792969 144.707031 C 170.832031 144.332031 170.5 143.457031 170.332031 138.625 L 170.207031 134.167969 L 173.542969 134.167969 Z M 205.5 135.625 C 205.582031 136.417969 205.582031 137.082031 205.5 137.082031 C 205.417969 137.082031 204.792969 136.625 204.082031 136.042969 C 202.207031 134.457031 201.667969 134.667969 201.667969 136.917969 L 201.667969 138.875 L 203.332031 138.625 C 204.917969 138.417969 205 138.457031 205 139.5 C 205 140.332031 204.875 140.457031 204.5 140.082031 C 204.207031 139.792969 203.457031 139.582031 202.832031 139.582031 C 201.707031 139.582031 201.667969 139.667969 201.667969 141.707031 C 201.667969 143.707031 201.707031 143.792969 202.625 143.5 C 203.125 143.375 204.042969 142.875 204.667969 142.457031 C 206.167969 141.375 206.25 141.457031 205.707031 143.125 L 205.292969 144.582031 L 201.667969 144.582031 C 198.417969 144.582031 198.082031 144.5 198.082031 143.792969 C 198.082031 143.332031 198.25 143.082031 198.457031 143.207031 C 198.707031 143.332031 198.792969 141.5 198.667969 138.792969 L 198.542969 134.167969 L 205.332031 134.167969 Z M 279.292969 142.292969 C 279.167969 142.667969 278.957031 142.875 278.875 142.75 C 278.75 142.625 278.792969 142.375 278.957031 142.125 C 279.332031 141.457031 279.582031 141.582031 279.292969 142.292969 Z M 277.667969 143.792969 C 277.542969 144 277.25 144.082031 277.042969 143.917969 C 276.832031 143.792969 276.75 143.5 276.917969 143.292969 C 277.042969 143.082031 277.332031 143 277.542969 143.167969 C 277.75 143.292969 277.832031 143.582031 277.667969 143.792969 Z M 16.457031 144.082031 C 16.042969 144.542969 14.167969 144.625 14.167969 144.207031 C 14.167969 144 14.417969 143.75 14.707031 143.625 C 15.375 143.417969 16.792969 143.792969 16.457031 144.082031 Z M 280.332031 145.707031 C 280.542969 146.125 280.625 147.292969 280.457031 148.332031 C 280.167969 150.207031 280.167969 150.207031 279.582031 149.167969 C 279.042969 148.167969 278.957031 146.125 279.417969 145.375 C 279.75 144.832031 279.917969 144.917969 280.332031 145.707031 Z M 239.167969 147.5 C 239.167969 147.707031 238.957031 147.917969 238.707031 147.917969 C 238.5 147.917969 238.417969 147.707031 238.542969 147.5 C 238.667969 147.25 238.875 147.082031 239 147.082031 C 239.082031 147.082031 239.167969 147.25 239.167969 147.5 Z M 279.582031 150.207031 C 280.042969 150.375 280.417969 150.75 280.417969 151.042969 C 280.417969 152.207031 279.707031 152 278.957031 150.582031 C 278.542969 149.792969 278.042969 149.167969 277.875 149.167969 C 277.707031 149.167969 277.707031 148.75 277.832031 148.207031 C 278.042969 147.375 278.082031 147.417969 278.417969 148.625 C 278.625 149.375 279.125 150.042969 279.582031 150.207031 Z M 89.375 150.082031 C 89.832031 151.292969 90.292969 154.582031 90 154.582031 C 89.582031 154.582031 88.832031 152.875 88.542969 151.125 C 88.375 150.167969 88.457031 149.582031 88.75 149.582031 C 89 149.582031 89.292969 149.832031 89.375 150.082031 Z M 245.207031 150.832031 C 245.332031 151.042969 245.25 151.25 245.042969 151.25 C 244.792969 151.25 244.582031 151.042969 244.582031 150.832031 C 244.582031 150.582031 244.667969 150.417969 244.75 150.417969 C 244.875 150.417969 245.082031 150.582031 245.207031 150.832031 Z M 279 152.375 C 278.875 152.5 278.457031 152.457031 278.042969 152.292969 C 277.332031 152 277.332031 151.957031 278.125 151.667969 C 278.917969 151.375 279.542969 151.875 279 152.375 Z M 245.207031 152.917969 C 245.332031 153.125 245.167969 153.332031 244.792969 153.332031 C 244.417969 153.332031 244.25 153.125 244.375 152.917969 C 244.5 152.667969 244.707031 152.5 244.792969 152.5 C 244.875 152.5 245.082031 152.667969 245.207031 152.917969 Z M 246.457031 152.917969 C 246.582031 153.125 246.5 153.332031 246.292969 153.332031 C 246.042969 153.332031 245.832031 153.125 245.832031 152.917969 C 245.832031 152.667969 245.917969 152.5 246 152.5 C 246.125 152.5 246.332031 152.667969 246.457031 152.917969 Z M 281.25 153.292969 C 281.25 154.207031 280.625 154.75 280.042969 154.417969 C 279.5 154.042969 280 152.5 280.667969 152.5 C 281 152.5 281.25 152.875 281.25 153.292969 Z M 271.792969 153.792969 C 272 153.917969 271.875 154.167969 271.582031 154.292969 C 271.207031 154.417969 271 154.167969 270.957031 153.667969 C 270.917969 153.207031 271 153 271.167969 153.167969 C 271.332031 153.375 271.625 153.667969 271.792969 153.792969 Z M 278.957031 154.125 C 279.082031 154.332031 278.957031 154.667969 278.707031 154.832031 C 278.417969 155 278.332031 154.957031 278.5 154.667969 C 278.625 154.457031 278.5 154.125 278.25 154.042969 C 277.875 153.875 277.832031 153.792969 278.207031 153.792969 C 278.457031 153.75 278.792969 153.917969 278.957031 154.125 Z M 13.957031 154.667969 C 15.625 154.582031 15.917969 154.667969 15.5 155.082031 C 14.917969 155.667969 14.792969 156.417969 15.375 156.082031 C 15.875 155.75 16.375 160.457031 15.875 160.957031 C 15.667969 161.167969 14.542969 161.667969 13.417969 162.042969 C 11.625 162.667969 11.332031 162.667969 10.792969 162.125 C 10.5 161.792969 10.167969 161.125 10.125 160.667969 C 10.042969 160.167969 9.792969 158.875 9.542969 157.792969 C 9.292969 156.707031 9.167969 155.667969 9.332031 155.542969 C 9.457031 155.417969 9.25 155.042969 8.832031 154.707031 C 8.207031 154.207031 8.375 154.167969 10 154.457031 C 11.042969 154.625 12.792969 154.707031 13.957031 154.667969 Z M 247.292969 154.625 C 247.75 155.332031 247.375 155.375 246.042969 154.792969 L 244.792969 154.25 L 245.917969 154.207031 C 246.542969 154.167969 247.167969 154.375 247.292969 154.625 Z M 247.75 157 C 247.375 157.375 246.207031 156.667969 246.457031 156.25 C 246.667969 155.917969 246.917969 155.957031 247.332031 156.292969 C 247.667969 156.542969 247.832031 156.875 247.75 157 Z M 248.957031 156.667969 C 249.082031 156.875 249 157.082031 248.792969 157.082031 C 248.542969 157.082031 248.332031 156.875 248.332031 156.667969 C 248.332031 156.417969 248.417969 156.25 248.5 156.25 C 248.625 156.25 248.832031 156.417969 248.957031 156.667969 Z M 280.125 157.625 C 280.25 157.957031 280.082031 158.207031 279.792969 158.207031 C 279.5 158.207031 279.332031 157.957031 279.457031 157.625 C 279.582031 157.332031 279.707031 157.082031 279.792969 157.082031 C 279.875 157.082031 280 157.332031 280.125 157.625 Z M 243.957031 158.332031 C 244.082031 158.542969 244 158.75 243.792969 158.75 C 243.542969 158.75 243.332031 158.542969 243.332031 158.332031 C 243.332031 158.082031 243.417969 157.917969 243.5 157.917969 C 243.625 157.917969 243.832031 158.082031 243.957031 158.332031 Z M 246.25 158.542969 C 247.082031 159.542969 246.5 159.707031 245.625 158.75 C 245.207031 158.292969 245.082031 157.917969 245.292969 157.917969 C 245.542969 157.917969 245.957031 158.207031 246.25 158.542969 Z M 248.332031 158.375 C 248.875 158.75 248.832031 158.792969 248.25 158.582031 C 247.832031 158.457031 247.5 158.542969 247.5 158.792969 C 247.5 159.042969 247.332031 159.082031 247.082031 158.957031 C 246.5 158.582031 246.582031 157.917969 247.207031 157.917969 C 247.457031 157.917969 248 158.125 248.332031 158.375 Z M 291.542969 158.167969 C 291.417969 158.292969 291.042969 158.332031 290.75 158.207031 C 290.417969 158.082031 290.542969 157.957031 291 157.957031 C 291.457031 157.917969 291.707031 158.042969 291.542969 158.167969 Z M 240 158.75 C 240 158.957031 239.792969 159.167969 239.542969 159.167969 C 239.332031 159.167969 239.25 158.957031 239.375 158.75 C 239.5 158.5 239.707031 158.332031 239.832031 158.332031 C 239.917969 158.332031 240 158.5 240 158.75 Z M 282.5 161.25 C 282.5 161.457031 282.292969 161.667969 282.042969 161.667969 C 281.832031 161.667969 281.75 161.457031 281.875 161.25 C 282 161 282.207031 160.832031 282.332031 160.832031 C 282.417969 160.832031 282.5 161 282.5 161.25 Z M 251.667969 161.875 C 252.332031 162.707031 252.25 162.75 249.957031 163 C 248.125 163.207031 248 163.167969 248.082031 162.25 C 248.125 161.375 248.332031 161.25 249.625 161.25 C 250.5 161.25 251.375 161.542969 251.667969 161.875 Z M 247.5 161.832031 C 247.5 161.957031 247.332031 162.167969 247.082031 162.292969 C 246.875 162.417969 246.667969 162.332031 246.667969 162.125 C 246.667969 161.875 246.875 161.667969 247.082031 161.667969 C 247.332031 161.667969 247.5 161.75 247.5 161.832031 Z M 41.25 162.5 C 41.25 162.707031 41.042969 162.917969 40.792969 162.917969 C 40.582031 162.917969 40.5 162.707031 40.625 162.5 C 40.75 162.25 40.957031 162.082031 41.082031 162.082031 C 41.167969 162.082031 41.25 162.25 41.25 162.5 Z M 249.625 164.332031 C 249.375 164.625 248.667969 164.875 248.125 164.875 C 246.957031 164.875 246.75 164.375 247.707031 164 C 248.042969 163.875 248.332031 164 248.332031 164.25 C 248.332031 164.582031 248.625 164.5 249.042969 164.042969 C 249.875 163.25 250.332031 163.457031 249.625 164.332031 Z M 253.5 164.792969 C 253.75 165.457031 251.457031 165.875 250.207031 165.417969 C 249.457031 165.125 249.542969 165.042969 250.832031 164.5 C 252.417969 163.832031 253.167969 163.917969 253.5 164.792969 Z M 41.667969 164.792969 C 41.667969 165.125 41.5 165.417969 41.25 165.417969 C 41.042969 165.417969 40.957031 165.125 41.082031 164.792969 C 41.25 164.457031 41.417969 164.167969 41.5 164.167969 C 41.582031 164.167969 41.667969 164.457031 41.667969 164.792969 Z M 245 164.542969 C 245 165.25 244.082031 165.542969 243.707031 164.957031 C 243.417969 164.457031 243.332031 164.457031 243.332031 164.957031 C 243.332031 165.292969 243.207031 165.457031 243.082031 165.292969 C 242.957031 165.167969 242.957031 164.875 243.125 164.625 C 243.457031 164.082031 245 164 245 164.542969 Z M 239.582031 165.207031 C 239.582031 165.542969 239.5 165.832031 239.417969 165.832031 C 239.332031 165.832031 239.167969 165.542969 239 165.207031 C 238.875 164.875 238.957031 164.582031 239.167969 164.582031 C 239.417969 164.582031 239.582031 164.875 239.582031 165.207031 Z M 254.707031 166.582031 C 255.125 167 255.332031 167.457031 255.167969 167.582031 C 254.707031 168.042969 253.417969 167.417969 253.207031 166.625 C 252.917969 165.625 253.832031 165.582031 254.707031 166.582031 Z M 251.417969 166.875 C 251.542969 167.207031 251.457031 167.5 251.292969 167.5 C 251.082031 167.5 250.792969 167.25 250.707031 166.957031 C 250.582031 166.667969 250.457031 166.75 250.457031 167.167969 C 250.417969 168.042969 249.167969 167.707031 249.167969 166.832031 C 249.167969 166.042969 251.082031 166.082031 251.417969 166.875 Z M 277.917969 167.082031 C 277.917969 167.292969 277.832031 167.5 277.75 167.5 C 277.625 167.5 277.417969 167.292969 277.292969 167.082031 C 277.167969 166.832031 277.25 166.667969 277.457031 166.667969 C 277.707031 166.667969 277.917969 166.832031 277.917969 167.082031 Z M 39.042969 167.332031 C 38.917969 167.457031 38.542969 167.5 38.25 167.375 C 37.917969 167.25 38.042969 167.125 38.5 167.125 C 38.957031 167.082031 39.207031 167.207031 39.042969 167.332031 Z M 279.417969 168.207031 C 279.292969 169.125 277.5 169.5 277.5 168.582031 C 277.5 168.082031 278 167.75 279.25 167.542969 C 279.375 167.542969 279.457031 167.832031 279.417969 168.207031 Z M 272.082031 171.457031 C 271.707031 171.875 271.707031 172.082031 272.042969 172.082031 C 272.375 172.082031 272.375 172.332031 272 172.917969 C 271.375 173.917969 270.832031 174 270.832031 173.082031 C 270.832031 172.167969 271.625 170.832031 272.167969 170.832031 C 272.457031 170.832031 272.417969 171.042969 272.082031 171.457031 Z M 298.167969 172.375 C 297.75 172.792969 297.375 172.167969 297.75 171.625 C 298 171.167969 298.082031 171.167969 298.25 171.625 C 298.332031 171.917969 298.292969 172.25 298.167969 172.375 Z M 246.957031 172.292969 C 246.957031 172.625 246.707031 172.917969 246.375 172.917969 C 245.667969 172.917969 245.667969 172.207031 246.375 171.957031 C 246.625 171.832031 246.875 171.707031 246.917969 171.707031 C 246.917969 171.667969 246.957031 171.957031 246.957031 172.292969 Z M 279.792969 172.5 C 279.667969 172.707031 279.292969 172.792969 278.957031 172.625 C 278.082031 172.332031 278.167969 172.082031 279.207031 172.082031 C 279.667969 172.082031 279.957031 172.25 279.792969 172.5 Z M 278.457031 174.957031 C 279.332031 174.5 279.332031 174.542969 278.667969 175.207031 C 277.917969 176.042969 277.042969 175.707031 277.125 174.667969 C 277.167969 174.042969 277.207031 174.042969 277.375 174.667969 C 277.542969 175.292969 277.707031 175.332031 278.457031 174.957031 Z M 23.542969 178.042969 C 22.957031 178.875 22.917969 178.792969 22.917969 176.667969 L 22.957031 174.375 L 23.542969 175.75 C 24.082031 177 24.082031 177.25 23.542969 178.042969 Z M 248.207031 175.25 C 248.082031 175.375 247.707031 175.417969 247.417969 175.292969 C 247.082031 175.167969 247.207031 175.042969 247.667969 175.042969 C 248.125 175 248.375 175.125 248.207031 175.25 Z M 85.417969 178.75 C 86.082031 180.417969 86.667969 181.832031 86.667969 181.917969 C 86.667969 182 86.207031 182.082031 85.667969 182.082031 C 85.042969 182.082031 84.582031 181.792969 84.457031 181.25 C 84.332031 180.75 83.875 180.417969 83.375 180.417969 C 82.792969 180.417969 82.5 180.667969 82.5 181.25 C 82.5 181.707031 82.332031 182.082031 82.082031 182.082031 C 81.875 182.082031 81.667969 181.957031 81.667969 181.75 C 81.667969 181.25 83.875 175.375 84 175.542969 C 84.082031 175.625 84.707031 177.042969 85.417969 178.75 Z M 98.457031 176.25 C 98.667969 177.125 98.167969 177.417969 97.707031 176.667969 C 97.167969 175.832031 96.25 176.25 96.25 177.332031 C 96.25 178.292969 96.375 178.417969 97.292969 178.25 C 98.082031 178.082031 98.332031 178.207031 98.332031 178.75 C 98.332031 179.292969 98.082031 179.417969 97.25 179.25 C 96.207031 179.042969 96.167969 179.125 96.332031 180.582031 C 96.5 181.957031 96.417969 182.082031 95.417969 182.082031 C 94.375 182.082031 94.375 182.042969 94.375 178.75 L 94.375 175.417969 L 96.292969 175.417969 C 97.875 175.417969 98.292969 175.582031 98.457031 176.25 Z M 103.582031 176.082031 C 103.457031 176.457031 103.332031 177.957031 103.332031 179.417969 C 103.332031 181.917969 103.292969 182.082031 102.375 182.082031 C 101.457031 182.082031 101.417969 182 101.5 178.832031 C 101.582031 177.082031 101.625 175.582031 101.625 175.5 C 101.667969 175.457031 102.167969 175.417969 102.75 175.417969 C 103.582031 175.417969 103.792969 175.582031 103.582031 176.082031 Z M 108.417969 178.542969 C 108.292969 180.542969 108.417969 181.667969 108.667969 181.667969 C 108.917969 181.667969 109.25 181.5 109.375 181.25 C 109.5 181.042969 110 180.625 110.417969 180.417969 C 111.125 180.042969 111.207031 180.082031 110.875 180.917969 C 110.582031 181.707031 110.167969 181.917969 108.5 182 L 106.457031 182.125 L 106.457031 178.75 C 106.457031 175.457031 106.457031 175.417969 107.5 175.417969 C 108.542969 175.417969 108.542969 175.457031 108.417969 178.542969 Z M 116.042969 176.75 L 116.332031 178.042969 L 116.917969 176.75 C 117.25 175.875 117.75 175.417969 118.292969 175.417969 C 119 175.417969 119.125 175.75 119.25 178.75 C 119.375 182.082031 119.375 182.082031 118.332031 182.082031 C 117.332031 182.082031 117.25 181.957031 117.417969 180.625 C 117.667969 178.707031 116.832031 178.75 116.457031 180.667969 C 116.125 182.457031 115.625 182.125 115.042969 179.792969 L 114.625 178.125 L 114.707031 180.082031 C 114.792969 181.667969 114.667969 182.082031 114.125 182.082031 C 113.582031 182.082031 113.542969 181.707031 113.792969 179.457031 C 114 178.042969 114.042969 176.582031 113.957031 176.25 C 113.792969 175.792969 114.082031 175.582031 114.75 175.5 C 115.582031 175.457031 115.832031 175.667969 116.042969 176.75 Z M 132.5 176.332031 C 132.5 177.042969 132.375 177.125 132 176.75 C 131.042969 175.792969 130.832031 176.25 130.832031 179.167969 C 130.832031 182 130.792969 182.082031 129.792969 182.082031 C 128.75 182.082031 128.75 182.082031 129 179.167969 C 129.25 176.792969 129.167969 176.25 128.667969 176.25 C 128.332031 176.25 127.875 176.457031 127.582031 176.75 C 127.207031 177.125 127.082031 177.125 127.082031 176.625 C 127.082031 175.582031 127.5 175.417969 130.082031 175.417969 C 132.292969 175.417969 132.5 175.5 132.5 176.332031 Z M 139.5 176.082031 C 140.582031 176.832031 140.667969 177.792969 139.707031 178.875 C 139 179.625 139 179.75 139.875 181.292969 C 141 183.292969 140.5 183.375 138.542969 181.457031 C 137.082031 179.957031 137.082031 179.957031 137.082031 181.042969 C 137.082031 181.832031 136.875 182.082031 136.167969 182.082031 C 135.25 182.082031 135.207031 181.917969 135.207031 178.75 L 135.207031 175.417969 L 136.875 175.417969 C 137.792969 175.417969 139 175.707031 139.5 176.082031 Z M 145.207031 178.75 C 145.207031 182.042969 145.207031 182.082031 144.167969 182.082031 C 143.125 182.082031 143.125 182.042969 143.125 178.75 C 143.125 175.457031 143.125 175.417969 144.167969 175.417969 C 145.207031 175.417969 145.207031 175.457031 145.207031 178.75 Z M 150.417969 178.582031 L 150.417969 181.75 L 151.457031 181.082031 C 152.75 180.207031 152.875 180.25 152.625 181.25 C 152.457031 181.957031 152.042969 182.082031 150.375 182.082031 L 148.332031 182.082031 L 148.332031 178.75 C 148.332031 175.457031 148.332031 175.417969 149.375 175.417969 C 150.375 175.417969 150.417969 175.5 150.417969 178.582031 Z M 159.542969 176.125 C 160.917969 177.25 161.125 179.542969 160 180.957031 C 158.25 183.167969 155 181.707031 155 178.75 C 155 177.25 156.457031 175.417969 157.707031 175.417969 C 158.207031 175.417969 159.042969 175.75 159.542969 176.125 Z M 167.667969 175.792969 C 167.832031 176 167.75 176.582031 167.582031 177.082031 C 167.25 177.957031 167.25 177.957031 166.75 176.875 C 166.332031 175.957031 166.125 175.832031 165.625 176.25 C 164.542969 177.167969 164.957031 181.667969 166.125 181.667969 C 166.625 181.667969 166.707031 181.25 166.582031 180 C 166.457031 178.457031 166.5 178.332031 167.5 178.332031 C 168.5 178.332031 168.542969 178.457031 168.417969 180 C 168.292969 181.332031 168.042969 181.707031 167.25 181.917969 C 165.5 182.375 164.167969 181.75 163.5 180.207031 C 162.832031 178.625 163.25 176.957031 164.5 176 C 165.332031 175.375 167.332031 175.25 167.667969 175.792969 Z M 173.292969 176.917969 C 173.707031 178.042969 173.957031 178.292969 174.207031 177.875 C 174.417969 177.542969 174.582031 176.917969 174.582031 176.417969 C 174.582031 175.917969 174.875 175.542969 175.207031 175.542969 C 175.542969 175.542969 175.832031 175.582031 175.832031 175.625 C 175.832031 175.667969 175.457031 176.5 174.957031 177.5 C 174.375 178.707031 174.167969 179.75 174.292969 180.707031 C 174.5 182 174.457031 182.082031 173.375 182.082031 C 172.332031 182.082031 172.25 181.957031 172.417969 180.667969 C 172.5 179.792969 172.25 178.667969 171.707031 177.582031 C 170.625 175.457031 170.625 175.417969 171.792969 175.417969 C 172.5 175.417969 172.875 175.792969 173.292969 176.917969 Z M 187.917969 176.25 C 187.917969 177.125 187.292969 177.375 186.875 176.667969 C 186.75 176.417969 186.375 176.25 186.042969 176.25 C 185.625 176.25 185.457031 176.917969 185.457031 178.957031 C 185.457031 180.457031 185.625 181.667969 185.792969 181.667969 C 185.957031 181.667969 186.457031 181.375 186.917969 181.042969 C 188 180.207031 188.292969 180.25 188.042969 181.25 C 187.875 181.957031 187.457031 182.082031 185.667969 182.082031 L 183.542969 182.082031 L 183.542969 175.417969 L 185.75 175.417969 C 187.625 175.417969 187.917969 175.542969 187.917969 176.25 Z M 192.875 177.375 L 193.417969 179.375 L 193.957031 177.917969 C 194.25 177.125 194.375 176.207031 194.25 175.917969 C 194.167969 175.667969 194.375 175.417969 194.792969 175.417969 C 195.332031 175.417969 195.417969 175.625 195.207031 176.125 C 195 176.542969 194.5 177.917969 194.082031 179.167969 C 193.625 180.417969 193.125 181.582031 193 181.75 C 192.832031 181.917969 192.125 180.542969 191.417969 178.707031 L 190.125 175.417969 L 191.207031 175.417969 C 192.167969 175.417969 192.417969 175.667969 192.875 177.375 Z M 202.082031 176.25 C 202.082031 177.082031 202.042969 177.082031 201.042969 176.417969 C 200 175.75 200 175.75 200 177.042969 C 200 178.125 200.167969 178.332031 201.042969 178.332031 C 201.625 178.332031 202.082031 178.542969 202.082031 178.792969 C 202.082031 179 201.667969 179.167969 201.167969 179.082031 C 200.375 178.957031 200.167969 179.167969 200.082031 180.332031 L 199.957031 181.707031 L 201.207031 181.042969 C 202.582031 180.375 202.667969 180.375 202.25 181.417969 C 202.082031 181.917969 201.417969 182.082031 199.957031 182.082031 L 197.917969 182.082031 L 197.917969 175.417969 L 200 175.417969 C 201.832031 175.417969 202.082031 175.542969 202.082031 176.25 Z M 207.75 177.082031 C 208.375 178 208.957031 178.75 209.082031 178.75 C 209.167969 178.75 209.167969 178.042969 209 177.167969 C 208.832031 175.875 208.875 175.542969 209.417969 175.542969 C 209.792969 175.542969 209.957031 175.792969 209.792969 176.125 C 209.667969 176.457031 209.582031 178 209.582031 179.5 L 209.542969 182.292969 L 208.417969 180.875 C 205.707031 177.457031 205.957031 177.542969 206.042969 179.917969 C 206.082031 181.25 205.957031 182.082031 205.667969 182.082031 C 205.375 182.082031 205.207031 180.875 205.207031 178.75 C 205.207031 175.875 205.292969 175.417969 205.917969 175.417969 C 206.332031 175.417969 207.167969 176.167969 207.75 177.082031 Z M 217.5 175.792969 C 217.5 176 217.625 176.542969 217.792969 176.957031 C 218.042969 177.667969 218.042969 177.667969 217.207031 176.957031 C 216.75 176.582031 216.25 176.25 216.082031 176.25 C 215.917969 176.25 215.832031 177.582031 215.917969 179.167969 C 216.042969 182.042969 216.042969 182.082031 215 182.082031 C 213.957031 182.082031 213.917969 182.042969 214.082031 179.167969 C 214.167969 177.542969 214.125 176.25 213.917969 176.25 C 213.75 176.25 213.25 176.542969 212.832031 176.957031 C 212.125 177.582031 212.082031 177.582031 212.082031 176.792969 C 212.082031 176.332031 212.207031 175.832031 212.375 175.707031 C 212.792969 175.25 217.5 175.375 217.5 175.792969 Z M 297.082031 175.832031 C 297.082031 176.042969 296.875 176.25 296.625 176.25 C 296.417969 176.25 296.332031 176.042969 296.457031 175.832031 C 296.582031 175.582031 296.792969 175.417969 296.917969 175.417969 C 297 175.417969 297.082031 175.582031 297.082031 175.832031 Z M 279.042969 176.75 C 278.917969 177.082031 278.792969 176.957031 278.792969 176.5 C 278.75 176.042969 278.875 175.792969 279 175.957031 C 279.125 176.082031 279.167969 176.457031 279.042969 176.75 Z M 287.375 177.167969 C 287.25 177.5 287.125 177.375 287.125 176.917969 C 287.082031 176.457031 287.207031 176.207031 287.332031 176.375 C 287.457031 176.5 287.5 176.875 287.375 177.167969 Z M 256.457031 177.5 C 256.625 177.75 257 177.875 257.292969 177.832031 C 257.625 177.75 257.832031 177.875 257.792969 178.125 C 257.707031 178.542969 255.542969 178.582031 255.125 178.207031 C 254.832031 177.917969 255.375 177.082031 255.832031 177.082031 C 256.042969 177.082031 256.332031 177.292969 256.457031 177.5 Z M 259.582031 177.707031 C 259.582031 178.207031 258.792969 178.207031 258.625 177.707031 C 258.457031 177.332031 258.582031 177.207031 259 177.375 C 259.292969 177.5 259.582031 177.667969 259.582031 177.707031 Z M 271.542969 177.542969 C 272.042969 178.042969 271.75 180 271.167969 180 C 270.957031 180 270.832031 179.75 270.957031 179.457031 C 271.042969 179.207031 270.957031 178.542969 270.792969 178 C 270.417969 177.042969 270.792969 176.792969 271.542969 177.542969 Z M 261.542969 177.75 C 261.417969 177.875 261.042969 177.917969 260.75 177.792969 C 260.417969 177.667969 260.542969 177.542969 261 177.542969 C 261.457031 177.5 261.707031 177.625 261.542969 177.75 Z M 187.5 178.75 C 187.5 178.957031 187.207031 179.167969 186.832031 179.167969 C 186.5 179.167969 186.332031 178.957031 186.457031 178.75 C 186.582031 178.5 186.875 178.332031 187.125 178.332031 C 187.332031 178.332031 187.5 178.5 187.5 178.75 Z M 260.75 179.75 C 261.332031 179.542969 261.332031 179.582031 260.875 179.917969 C 260.125 180.457031 258.582031 179.75 259 179.082031 C 259.167969 178.792969 259.417969 178.875 259.667969 179.292969 C 259.875 179.707031 260.332031 179.875 260.75 179.75 Z M 263.082031 179.417969 C 263.25 179.832031 263.167969 179.957031 262.832031 179.75 C 262.5 179.542969 262.457031 179.667969 262.625 180.125 C 262.75 180.542969 262.707031 180.832031 262.5 180.832031 C 262.042969 180.832031 261.957031 180.375 262.332031 179.417969 C 262.667969 178.582031 262.75 178.582031 263.082031 179.417969 Z M 288.207031 180.5 C 288.082031 180.832031 287.957031 180.707031 287.957031 180.25 C 287.917969 179.792969 288.042969 179.542969 288.167969 179.707031 C 288.292969 179.832031 288.332031 180.207031 288.207031 180.5 Z M 272.25 180.792969 C 272.375 181 272.207031 181.25 271.875 181.375 C 271.5 181.542969 271.375 181.417969 271.542969 181 C 271.792969 180.332031 271.957031 180.292969 272.25 180.792969 Z M 281.25 183.332031 C 281.25 183.542969 281.167969 183.75 281.082031 183.75 C 280.957031 183.75 280.75 183.542969 280.625 183.332031 C 280.5 183.082031 280.582031 182.917969 280.792969 182.917969 C 281.042969 182.917969 281.25 183.082031 281.25 183.332031 Z M 282.5 184.167969 C 282.5 184.375 282.417969 184.582031 282.332031 184.582031 C 282.207031 184.582031 282 184.375 281.875 184.167969 C 281.75 183.917969 281.832031 183.75 282.042969 183.75 C 282.292969 183.75 282.5 183.917969 282.5 184.167969 Z M 271.875 187.917969 C 272 188.125 271.917969 188.332031 271.707031 188.332031 C 271.457031 188.332031 271.25 188.125 271.25 187.917969 C 271.25 187.667969 271.332031 187.5 271.417969 187.5 C 271.542969 187.5 271.75 187.667969 271.875 187.917969 Z M 279.042969 188.582031 C 278.917969 188.707031 278.542969 188.75 278.25 188.625 C 277.917969 188.5 278.042969 188.375 278.5 188.375 C 278.957031 188.332031 279.207031 188.457031 279.042969 188.582031 Z M 271.792969 191.582031 C 271.667969 192.082031 271.417969 192.375 271.207031 192.25 C 271 192.125 271.082031 191.667969 271.332031 191.25 C 271.957031 190.25 272.125 190.375 271.792969 191.582031 Z M 253.167969 193.792969 C 253.042969 194.957031 252.875 196.042969 252.75 196.167969 C 252.417969 196.457031 252.417969 193.167969 252.75 192.332031 C 253.207031 191.125 253.375 191.625 253.167969 193.792969 Z M 280.375 192.375 C 280.332031 192.792969 280.332031 193.25 280.375 193.417969 C 280.375 193.625 280.375 193.792969 280.332031 193.832031 C 280.292969 193.917969 280.5 194.375 280.75 194.875 C 281.042969 195.375 281.082031 195.875 280.875 196 C 280.457031 196.292969 279.457031 195.25 279.832031 194.875 C 279.957031 194.75 279.707031 194.457031 279.25 194.207031 C 278.332031 193.707031 277.792969 192.625 278.167969 192.042969 C 278.292969 191.832031 278.832031 191.667969 279.417969 191.667969 C 280.167969 191.667969 280.457031 191.875 280.375 192.375 Z M 272.375 196.125 C 272.25 196.542969 272.167969 196.292969 272.167969 195.625 C 272.167969 194.917969 272.25 194.625 272.375 194.875 C 272.457031 195.167969 272.457031 195.75 272.375 196.125 Z M 297.792969 195.25 C 297.667969 195.375 297.292969 195.417969 297 195.292969 C 296.667969 195.167969 296.792969 195.042969 297.25 195.042969 C 297.707031 195 297.957031 195.125 297.792969 195.25 Z M 280.457031 197.417969 C 280.792969 198.292969 280.667969 198.625 279.625 199.667969 C 278.457031 200.832031 278.375 200.832031 278.125 200 C 278 199.542969 277.542969 199.167969 277.167969 199.125 C 276.582031 199.125 276.625 199.042969 277.292969 198.792969 C 277.75 198.582031 278.25 198.5 278.375 198.582031 C 278.542969 198.667969 278.792969 198.082031 278.917969 197.292969 C 279.25 195.667969 279.832031 195.707031 280.457031 197.417969 Z M 255.957031 200.707031 C 255.917969 202.292969 255.875 203.707031 255.832031 203.875 C 255.832031 204.082031 255.667969 204.125 255.5 204 C 254.957031 203.667969 254.917969 200.375 255.457031 199.082031 C 255.707031 198.457031 255.957031 197.917969 256 197.917969 C 256 197.917969 256 199.167969 255.957031 200.707031 Z M 272.5 199.167969 C 272.5 199.957031 271.457031 200.582031 270.792969 200.207031 C 270.625 200.082031 270.667969 199.542969 270.917969 198.957031 C 271.417969 197.875 272.5 198 272.5 199.167969 Z M 229.75 204.417969 C 229.875 204.75 229.832031 204.917969 229.582031 204.792969 C 229.332031 204.667969 229.167969 204.375 229.167969 204.125 C 229.167969 203.542969 229.457031 203.667969 229.75 204.417969 Z M 256.875 207.917969 C 256.75 208.167969 257.167969 208.542969 257.792969 208.832031 C 259.582031 209.625 260.375 211.125 258.75 210.707031 C 258.292969 210.582031 257.917969 210.707031 257.917969 210.917969 C 257.917969 211.875 256.792969 210.332031 256.292969 208.667969 C 256 207.707031 255.457031 206.457031 255.125 205.875 C 254.582031 205 254.707031 205.042969 255.792969 206.167969 C 256.5 206.917969 257 207.707031 256.875 207.917969 Z M 2.792969 208.832031 C 2.707031 209.375 2.625 209.042969 2.625 208.125 C 2.582031 207.207031 2.667969 206.792969 2.792969 207.167969 C 2.875 207.582031 2.875 208.332031 2.792969 208.832031 Z M 12.082031 207.75 C 12.082031 208.082031 11.917969 208.25 11.667969 208.125 C 11.457031 208 11.25 207.582031 11.25 207.25 C 11.25 206.917969 11.457031 206.75 11.667969 206.875 C 11.917969 207 12.082031 207.417969 12.082031 207.75 Z M 281.042969 207.957031 C 280.832031 208.625 281 208.75 281.957031 208.75 C 282.917969 208.75 283.292969 209.042969 283.832031 210.25 C 284.375 211.417969 284.417969 212 284.082031 212.75 C 283.5 214.042969 282.957031 214.042969 283.082031 212.707031 C 283.167969 212.167969 283.042969 211.792969 282.875 211.917969 C 282.667969 212.042969 282.5 211.957031 282.5 211.707031 C 282.5 211.5 282.707031 211.167969 282.917969 211.042969 C 283.542969 210.667969 283.417969 210 282.75 210 C 282.082031 210 281.667969 210.875 281.667969 212.292969 C 281.667969 212.792969 281.375 213.457031 281.042969 213.75 C 280.542969 214.167969 280.375 214.082031 280 213.167969 C 279.707031 212.375 279.292969 212.082031 278.542969 212.082031 C 277.792969 212.082031 277.5 211.875 277.5 211.25 C 277.5 210.792969 277.792969 210.417969 278.125 210.417969 C 278.457031 210.417969 279.125 209.582031 279.582031 208.542969 C 280.417969 206.75 281.582031 206.25 281.042969 207.957031 Z M 283.082031 207.042969 C 283.207031 207.25 283.042969 207.542969 282.667969 207.667969 C 281.832031 208 281.457031 207.707031 281.875 207.125 C 282.207031 206.582031 282.792969 206.542969 283.082031 207.042969 Z M 13.542969 208.75 C 13.667969 209 13.5 209.042969 13.167969 208.917969 C 12.417969 208.625 12.292969 208.332031 12.875 208.332031 C 13.125 208.332031 13.417969 208.5 13.542969 208.75 Z M 9.875 209.792969 C 9.875 210.125 9.707031 210.292969 9.5 210.167969 C 9.292969 210.042969 9.25 209.75 9.375 209.542969 C 9.75 209 9.875 209.082031 9.875 209.792969 Z M 242.5 215.832031 C 242.292969 217.292969 242.207031 218.625 242.332031 218.832031 C 242.457031 219.042969 242.417969 219.417969 242.167969 219.707031 C 241.667969 220.375 240.042969 225.707031 239.832031 227.5 C 239.707031 228.292969 239.375 229.707031 239 230.625 C 238.667969 231.542969 238.375 232.625 238.332031 233 C 238.332031 233.417969 238.167969 233.75 237.957031 233.75 C 237.375 233.75 237.125 231.667969 237.582031 230.25 C 237.792969 229.542969 238.5 226.375 239.167969 223.25 C 240.207031 218.207031 242.167969 212.457031 242.707031 212.957031 C 242.792969 213.082031 242.707031 214.375 242.5 215.832031 Z M 211.25 219.582031 C 211.25 219.792969 211.042969 220 210.792969 220 C 210.582031 220 210.5 219.792969 210.625 219.582031 C 210.75 219.332031 210.957031 219.167969 211.082031 219.167969 C 211.167969 219.167969 211.25 219.332031 211.25 219.582031 Z M 247.625 223.875 C 247.292969 224.957031 246.707031 225.832031 246.417969 225.832031 C 246.082031 225.832031 245.832031 225.75 245.832031 225.625 C 245.832031 225.375 248.082031 221.707031 248.207031 221.792969 C 248.25 221.832031 248 222.792969 247.625 223.875 Z M 11.917969 223 C 11.542969 223.542969 11.042969 224.457031 10.792969 225.082031 C 10.332031 226.25 9.582031 226.292969 9.582031 225.167969 C 9.582031 224.832031 9.75 224.667969 10 224.792969 C 10.292969 224.957031 10.292969 224.707031 10 224 C 9.625 222.917969 9.832031 222.75 12.457031 222.125 C 12.542969 222.082031 12.292969 222.5 11.917969 223 Z M 247.375 227.167969 C 247.25 227.5 247.125 227.375 247.125 226.917969 C 247.082031 226.457031 247.207031 226.207031 247.332031 226.375 C 247.457031 226.5 247.5 226.875 247.375 227.167969 Z M 246.957031 231.75 C 246.832031 232.082031 246.707031 231.957031 246.707031 231.5 C 246.667969 231.042969 246.792969 230.792969 246.917969 230.957031 C 247.042969 231.082031 247.082031 231.457031 246.957031 231.75 Z M 236.375 234.375 C 236.25 234.75 236.042969 234.957031 235.957031 234.832031 C 235.832031 234.707031 235.875 234.457031 236.042969 234.207031 C 236.417969 233.542969 236.667969 233.667969 236.375 234.375 Z M 249.832031 236.207031 C 248.667969 237.417969 248.332031 238.375 249.375 237.5 C 249.917969 237.042969 250 237.207031 250 238.5 C 250 239.707031 249.832031 240 249.207031 240 C 248.375 240 247.917969 241.082031 247.917969 243.207031 C 247.917969 244.25 247.75 244.5 247.292969 244.332031 C 246.957031 244.167969 246.667969 244.292969 246.667969 244.542969 C 246.667969 244.792969 246.832031 245 247.042969 245 C 247.25 245 247.332031 245.417969 247.167969 245.917969 C 246.957031 246.792969 246.917969 246.792969 246.625 246 C 246.375 245.375 246.292969 245.542969 246.25 246.667969 L 246.207031 248.125 L 245.625 246.707031 C 244.832031 244.957031 244.832031 243.167969 245.582031 242.542969 C 246.207031 242 248.042969 238.75 247.707031 238.75 C 247.582031 238.75 247 239.542969 246.375 240.457031 C 245.75 241.417969 245.167969 241.957031 245.082031 241.707031 C 245 241.457031 245.25 240.707031 245.707031 240.082031 C 246.125 239.457031 246.667969 238.457031 246.957031 237.832031 C 247.207031 237.25 247.792969 236.625 248.207031 236.5 C 248.625 236.375 249.332031 235.792969 249.792969 235.25 C 250.25 234.707031 250.707031 234.457031 250.792969 234.667969 C 250.875 234.875 250.417969 235.582031 249.832031 236.207031 Z M 237.207031 237.582031 C 236.667969 238.292969 236 241.167969 235.417969 245.207031 C 235.167969 247.042969 234.417969 250.125 233.792969 252.082031 C 232.5 255.917969 231.457031 261.75 231.625 264.292969 C 231.75 266.457031 230.957031 268.792969 230.207031 268.457031 C 229.332031 268.167969 229.792969 258.875 230.792969 256.5 C 231.5 254.832031 232.082031 252.5 233.707031 244.582031 C 234.125 242.417969 234.917969 239.542969 235.417969 238.167969 C 236.25 236 236.417969 235.792969 237 236.375 C 237.457031 236.832031 237.5 237.207031 237.207031 237.582031 Z M 248.792969 241.792969 C 248.375 242.167969 248.332031 242.125 248.582031 241.542969 C 248.707031 241.125 248.957031 240.917969 249.082031 241.042969 C 249.207031 241.167969 249.082031 241.5 248.792969 241.792969 Z M 247.582031 248.832031 C 247.5 249.957031 247.25 250.75 247.082031 250.625 C 246.917969 250.5 246.792969 250.082031 246.875 249.667969 C 247.625 246.042969 247.875 245.707031 247.582031 248.832031 Z M 298.875 248.75 C 298.75 248.875 298.542969 248.707031 298.457031 248.417969 C 298.332031 248.167969 297.875 247.917969 297.375 247.917969 C 296.457031 247.875 296.457031 247.875 297.292969 247.292969 C 298 246.707031 298.125 246.75 298.582031 247.582031 C 298.875 248.125 299 248.625 298.875 248.75 Z M 104.582031 286.542969 C 104.582031 290.292969 104 291.25 101.75 291.25 C 100.207031 291.25 98.75 290.292969 98.75 289.292969 C 98.75 288.667969 100.25 288.542969 100.625 289.167969 C 100.75 289.375 101.25 289.582031 101.667969 289.582031 C 102.707031 289.582031 103.125 288.082031 102.792969 285.667969 C 102.5 283.707031 102.667969 283.332031 103.832031 283.332031 C 104.5 283.332031 104.582031 283.707031 104.582031 286.542969 Z M 107.417969 285.625 C 107.582031 289 107.792969 289.582031 108.957031 289.582031 C 110.292969 289.582031 110.75 288.625 110.707031 285.832031 C 110.667969 283.75 110.75 283.542969 111.582031 283.417969 C 112.457031 283.292969 112.5 283.417969 112.5 286.167969 C 112.5 289.875 111.582031 291.25 109.167969 291.25 C 106.5 291.25 105.75 290.292969 105.5 286.5 C 105.292969 283.292969 105.292969 283.25 106.292969 283.417969 C 107.167969 283.542969 107.292969 283.792969 107.417969 285.625 Z M 115.417969 286.542969 L 115.417969 289.582031 L 117.292969 289.582031 C 118.875 289.582031 119.167969 289.707031 119.167969 290.417969 C 119.167969 291.167969 118.875 291.25 116.457031 291.25 L 113.75 291.25 L 113.75 287.332031 C 113.75 283.625 113.792969 283.375 114.582031 283.457031 C 115.332031 283.5 115.417969 283.792969 115.417969 286.542969 Z M 120.875 284.792969 C 121.375 285.582031 121.792969 286.25 121.875 286.25 C 121.957031 286.25 122.375 285.667969 122.832031 284.917969 C 123.292969 284.207031 124.082031 283.582031 124.542969 283.542969 C 125.667969 283.457031 125.625 283.5 124.292969 285.792969 C 123.667969 286.832031 123.042969 288.457031 122.917969 289.375 C 122.75 290.707031 122.542969 291.042969 121.875 291.042969 C 121.207031 291.042969 121 290.707031 120.832031 289.375 C 120.707031 288.457031 120.082031 286.832031 119.457031 285.792969 C 118.125 283.5 118.082031 283.332031 119.167969 283.332031 C 119.707031 283.332031 120.332031 283.875 120.875 284.792969 Z M 132.417969 287.542969 C 132.292969 290.707031 132.207031 291.042969 131.457031 291.042969 C 130.707031 291.042969 130.625 290.707031 130.5 288.292969 C 130.375 285.75 130.292969 285.542969 129.582031 285.707031 C 128.957031 285.875 128.75 285.707031 128.75 285.082031 C 128.75 284.457031 129.167969 284.167969 130.332031 283.875 C 131.167969 283.625 132.042969 283.582031 132.207031 283.75 C 132.375 283.917969 132.5 285.625 132.417969 287.542969 Z M 138.917969 283.582031 C 139.292969 283.75 139.792969 284.207031 140.042969 284.667969 C 140.5 285.5 140.417969 285.5 138.582031 285.25 C 137.542969 285.082031 136.667969 285.042969 136.667969 285.167969 C 136.667969 285.25 136.582031 285.625 136.457031 285.957031 C 136.25 286.375 136.5 286.5 137.5 286.332031 C 139.917969 286 141.375 288.667969 139.707031 290.5 C 138.75 291.542969 136.5 291.5 135.417969 290.332031 C 134.167969 288.957031 134.25 285.707031 135.625 284.375 C 136.625 283.332031 137.667969 283.082031 138.917969 283.582031 Z M 138.917969 283.582031 "/>
<path style=" stroke:none;fill-rule:nonzero;fill:rgb(0%,0%,0%);fill-opacity:1;" d="M 120.625 29.167969 C 119.875 29.5 119.917969 29.542969 120.957031 29.542969 C 121.625 29.582031 122.042969 29.417969 121.875 29.167969 C 121.75 28.917969 121.582031 28.75 121.542969 28.792969 C 121.5 28.792969 121.082031 28.957031 120.625 29.167969 Z M 120.625 29.167969 "/>
<path style=" stroke:none;fill-rule:nonzero;fill:rgb(0%,0%,0%);fill-opacity:1;" d="M 122.082031 30.832031 C 122.082031 31.042969 122.542969 31.25 123.082031 31.25 C 123.667969 31.25 124.25 31.042969 124.375 30.832031 C 124.542969 30.582031 124.082031 30.417969 123.375 30.417969 C 122.667969 30.417969 122.082031 30.582031 122.082031 30.832031 Z M 122.082031 30.832031 "/>
<path style=" stroke:none;fill-rule:nonzero;fill:rgb(0%,0%,0%);fill-opacity:1;" d="M 130.457031 40.167969 C 130.082031 40.582031 130.082031 40.832031 130.417969 41.042969 C 131.082031 41.457031 131.707031 40.75 131.292969 40.082031 C 131.042969 39.667969 130.875 39.667969 130.457031 40.167969 Z M 130.457031 40.167969 "/>
<path style=" stroke:none;fill-rule:nonzero;fill:rgb(0%,0%,0%);fill-opacity:1;" d="M 165.417969 62.082031 C 165.417969 62.292969 165.625 62.5 165.832031 62.5 C 166.082031 62.5 166.25 62.292969 166.25 62.082031 C 166.25 61.832031 166.082031 61.667969 165.832031 61.667969 C 165.625 61.667969 165.417969 61.832031 165.417969 62.082031 Z M 165.417969 62.082031 "/>
<path style=" stroke:none;fill-rule:nonzero;fill:rgb(0%,0%,0%);fill-opacity:1;" d="M 8.207031 71.125 C 6.957031 71.332031 6.957031 71.207031 7.957031 75.667969 C 8.5 78.125 9.457031 78.625 10.542969 77.082031 C 11.5 75.75 12.207031 76.957031 11.875 79.292969 C 11.417969 82.167969 11.832031 82.917969 13.75 82.917969 C 16 82.917969 17.207031 81.832031 16.832031 80.082031 C 16.667969 79.375 16.417969 78.75 16.25 78.75 C 16.082031 78.75 15.792969 78.125 15.667969 77.375 C 15.542969 76.582031 14.792969 75.25 14 74.332031 C 13.25 73.457031 12.417969 72.292969 12.125 71.75 C 11.625 70.832031 10.957031 70.707031 8.207031 71.125 Z M 8.207031 71.125 "/>
<path style=" stroke:none;fill-rule:nonzero;fill:rgb(0%,0%,0%);fill-opacity:1;" d="M 182.707031 135.957031 C 182.457031 137.292969 182.667969 139.457031 183.082031 139.917969 C 183.207031 140.042969 183.707031 139.792969 184.207031 139.332031 C 184.917969 138.707031 185.042969 138.25 184.792969 136.875 C 184.582031 135.375 184.042969 134.625 183.25 134.582031 C 183.082031 134.582031 182.832031 135.207031 182.707031 135.957031 Z M 182.707031 135.957031 "/>
<path style=" stroke:none;fill-rule:nonzero;fill:rgb(0%,0%,0%);fill-opacity:1;" d="M 115.707031 134.832031 C 115.542969 135 115.417969 137.082031 115.417969 139.457031 C 115.417969 143.375 115.5 143.792969 116.167969 143.667969 C 117.957031 143.332031 118.417969 136.957031 116.75 135.332031 C 116.332031 134.917969 115.875 134.707031 115.707031 134.832031 Z M 115.707031 134.832031 "/>
<path style=" stroke:none;fill-rule:nonzero;fill:rgb(0%,0%,0%);fill-opacity:1;" d="M 83.125 178.875 C 82.792969 179.667969 83.042969 180.167969 83.667969 179.957031 C 83.875 179.875 83.917969 179.417969 83.75 178.957031 C 83.457031 178.167969 83.417969 178.167969 83.125 178.875 Z M 83.125 178.875 "/>
<path style=" stroke:none;fill-rule:nonzero;fill:rgb(0%,0%,0%);fill-opacity:1;" d="M 137.082031 177.5 C 137.082031 178.707031 137.25 179.167969 137.625 179.042969 C 137.875 178.957031 138.125 178.25 138.125 177.5 C 138.125 176.75 137.875 176.042969 137.625 175.917969 C 137.25 175.832031 137.082031 176.292969 137.082031 177.5 Z M 137.082031 177.5 "/>
<path style=" stroke:none;fill-rule:nonzero;fill:rgb(0%,0%,0%);fill-opacity:1;" d="M 157.375 176.082031 C 156.957031 176.542969 157.042969 180.542969 157.5 181.25 C 158.207031 182.417969 158.792969 181.082031 158.667969 178.542969 C 158.542969 176.292969 158.082031 175.417969 157.375 176.082031 Z M 157.375 176.082031 "/>
<path style=" stroke:none;fill-rule:nonzero;fill:rgb(0%,0%,0%);fill-opacity:1;" d="M 136.625 288.167969 C 136.167969 288.75 136.207031 288.917969 136.875 289.417969 C 137.542969 289.917969 137.75 289.917969 138.25 289.417969 C 138.957031 288.707031 138.625 287.5 137.792969 287.5 C 137.457031 287.5 136.917969 287.792969 136.625 288.167969 Z M 136.625 288.167969 "/>
</g>
</svg>
