<?xml version="1.0" encoding="UTF-8"?>
<svg xmlns="http://www.w3.org/2000/svg" xmlns:xlink="http://www.w3.org/1999/xlink" width="400px" height="227px" viewBox="0 0 400 227" version="1.1">
<g id="surface1">
<path style=" stroke:none;fill-rule:nonzero;fill:rgb(0%,0%,0%);fill-opacity:1;" d="M 279.453125 0.546875 C 279.140625 1.015625 278.203125 1.25 277.421875 1.015625 C 276.40625 0.78125 275.625 1.171875 275 2.34375 C 274.21875 3.753906 273.59375 3.988281 271.71875 3.597656 C 268.75 3.046875 266.71875 4.378906 268.046875 5.941406 C 268.671875 6.722656 268.671875 7.035156 268.046875 7.035156 C 267.578125 7.035156 267.1875 6.644531 267.1875 6.175781 C 267.1875 5.707031 266.484375 5.472656 265.625 5.707031 C 264.765625 5.941406 264.21875 5.785156 264.53125 5.394531 C 265.3125 4.066406 262.265625 4.691406 261.171875 6.019531 C 260.546875 6.800781 260.234375 7.035156 260.46875 6.566406 C 260.703125 6.019531 260.15625 5.785156 258.75 6.019531 C 254.21875 6.722656 253.125 7.113281 253.359375 7.894531 C 253.4375 8.363281 252.96875 8.910156 252.265625 8.988281 C 251.5625 9.144531 248.90625 9.847656 246.40625 10.550781 C 243.828125 11.335938 240.703125 11.882812 239.296875 11.882812 C 237.96875 11.804688 236.484375 12.273438 236.015625 12.820312 C 235.3125 13.679688 235.390625 13.914062 236.40625 13.757812 C 238.4375 13.601562 238.515625 15.242188 236.5625 16.179688 C 234.84375 16.882812 234.84375 16.960938 236.484375 17.351562 C 237.34375 17.585938 239.453125 17.117188 241.171875 16.335938 C 242.890625 15.554688 245.46875 14.695312 246.875 14.460938 C 248.28125 14.226562 250.15625 13.601562 251.015625 13.210938 C 252.109375 12.585938 252.421875 12.585938 252.03125 13.210938 C 251.25 14.460938 253.28125 14.226562 256.25 12.820312 C 257.65625 12.117188 260.546875 11.414062 262.65625 11.414062 C 264.765625 11.335938 266.796875 10.789062 267.109375 10.316406 C 267.421875 9.769531 268.28125 9.535156 269.0625 9.847656 C 269.84375 10.160156 271.015625 9.769531 271.875 8.988281 C 273.125 7.816406 273.828125 7.738281 275.3125 8.441406 C 276.796875 9.066406 277.421875 9.066406 278.125 8.207031 C 278.59375 7.582031 279.609375 7.347656 280.234375 7.582031 C 280.9375 7.894531 281.875 7.503906 282.5 6.722656 C 283.046875 5.941406 284.921875 5.160156 286.640625 4.925781 C 288.4375 4.691406 289.84375 4.144531 289.84375 3.753906 C 289.84375 3.28125 290.546875 3.125 291.40625 3.359375 C 292.265625 3.597656 293.125 3.4375 293.359375 3.046875 C 293.59375 2.734375 294.765625 2.421875 295.9375 2.34375 C 297.109375 2.34375 299.0625 2.265625 300.3125 2.265625 C 301.5625 2.1875 303.125 1.640625 303.75 1.015625 C 304.765625 0 304.140625 -0.078125 298.125 0.078125 C 294.453125 0.234375 291.40625 0.546875 291.40625 0.859375 C 291.40625 1.5625 288.75 2.5 286.015625 2.8125 C 283.4375 3.125 284.921875 1.875 288.28125 0.9375 C 290.15625 0.390625 290.46875 0.15625 289.296875 0.078125 C 288.359375 0 286.71875 0.3125 285.625 0.78125 C 284.375 1.25 283.515625 1.25 283.203125 0.78125 C 282.890625 0.3125 282.34375 0 281.953125 0 C 281.484375 0 281.40625 0.3125 281.640625 0.78125 C 281.875 1.171875 281.796875 1.5625 281.328125 1.5625 C 280.9375 1.5625 280.46875 1.171875 280.3125 0.625 C 280.078125 -0.078125 279.84375 -0.078125 279.453125 0.546875 Z M 277.734375 2.34375 C 277.5 2.734375 276.953125 3.125 276.484375 3.125 C 276.09375 3.125 275.78125 2.734375 275.78125 2.34375 C 275.78125 1.875 276.328125 1.5625 277.03125 1.5625 C 277.65625 1.5625 277.96875 1.875 277.734375 2.34375 Z M 279.6875 3.910156 C 279.6875 4.300781 279.296875 4.691406 278.828125 4.691406 C 278.4375 4.691406 278.28125 4.300781 278.515625 3.910156 C 278.75 3.4375 279.140625 3.125 279.375 3.125 C 279.53125 3.125 279.6875 3.4375 279.6875 3.910156 Z M 270.859375 4.378906 C 270.625 4.613281 269.921875 4.691406 269.375 4.457031 C 268.75 4.222656 268.984375 3.988281 269.84375 3.988281 C 270.703125 3.910156 271.171875 4.144531 270.859375 4.378906 Z M 260.546875 8.597656 C 260.78125 8.988281 260.46875 9.378906 259.765625 9.378906 C 259.0625 9.378906 258.75 8.988281 258.984375 8.597656 C 259.21875 8.128906 259.609375 7.816406 259.765625 7.816406 C 259.921875 7.816406 260.3125 8.128906 260.546875 8.597656 Z M 253.125 10.316406 C 253.125 9.847656 253.828125 9.378906 254.6875 9.378906 C 255.546875 9.378906 256.25 9.769531 256.25 10.316406 C 256.25 10.789062 256.015625 10.945312 255.78125 10.710938 C 255.46875 10.472656 254.6875 10.550781 253.984375 10.867188 C 253.28125 11.257812 251.640625 11.726562 250.234375 11.960938 C 248.828125 12.195312 246.484375 12.742188 245 13.289062 C 243.4375 13.757812 241.40625 14.070312 240.46875 13.914062 C 239.375 13.757812 241.015625 13.054688 244.53125 12.195312 C 247.734375 11.414062 250.703125 10.472656 251.09375 10.082031 C 251.5625 9.691406 252.109375 9.769531 252.5 10.394531 C 252.96875 11.101562 253.125 11.101562 253.125 10.316406 Z M 265.625 9.691406 C 265.625 9.925781 265.3125 10.316406 264.84375 10.550781 C 264.453125 10.789062 264.0625 10.628906 264.0625 10.238281 C 264.0625 9.769531 264.453125 9.378906 264.84375 9.378906 C 265.3125 9.378906 265.625 9.535156 265.625 9.691406 Z M 265.625 9.691406 "/>
<path style=" stroke:none;fill-rule:nonzero;fill:rgb(0%,0%,0%);fill-opacity:1;" d="M 305.46875 0.9375 C 305.46875 1.796875 307.65625 1.71875 308.203125 0.859375 C 308.4375 0.390625 307.890625 0.15625 307.03125 0.234375 C 306.171875 0.3125 305.46875 0.625 305.46875 0.9375 Z M 305.46875 0.9375 "/>
<path style=" stroke:none;fill-rule:nonzero;fill:rgb(0%,0%,0%);fill-opacity:1;" d="M 311.09375 1.015625 C 311.640625 1.640625 312.734375 1.953125 313.59375 1.71875 C 314.6875 1.40625 314.921875 1.5625 314.453125 2.34375 C 314.0625 2.96875 314.140625 3.203125 314.6875 2.8125 C 316.25 1.875 314.765625 0 312.421875 0 C 310.46875 0 310.234375 0.15625 311.09375 1.015625 Z M 311.09375 1.015625 "/>
<path style=" stroke:none;fill-rule:nonzero;fill:rgb(0%,0%,0%);fill-opacity:1;" d="M 316.640625 1.171875 C 316.640625 1.796875 316.953125 2.109375 317.34375 1.875 C 317.734375 1.640625 317.8125 1.09375 317.578125 0.703125 C 316.875 -0.3125 316.640625 -0.15625 316.640625 1.171875 Z M 316.640625 1.171875 "/>
<path style=" stroke:none;fill-rule:nonzero;fill:rgb(0%,0%,0%);fill-opacity:1;" d="M 310.234375 6.019531 C 310.15625 6.566406 310.15625 7.269531 310.078125 7.582031 C 310.078125 7.894531 310.859375 8.441406 311.875 8.753906 C 313.4375 9.300781 313.515625 9.222656 312.421875 8.441406 C 311.71875 7.894531 311.015625 6.878906 310.703125 6.253906 C 310.46875 5.550781 310.234375 5.472656 310.234375 6.019531 Z M 310.234375 6.019531 "/>
<path style=" stroke:none;fill-rule:nonzero;fill:rgb(0%,0%,0%);fill-opacity:1;" d="M 394.375 18.527344 C 394.921875 18.761719 395.625 18.683594 395.859375 18.449219 C 396.171875 18.214844 395.703125 17.980469 394.84375 18.058594 C 393.984375 18.058594 393.75 18.292969 394.375 18.527344 Z M 394.375 18.527344 "/>
<path style=" stroke:none;fill-rule:nonzero;fill:rgb(0%,0%,0%);fill-opacity:1;" d="M 384.140625 19.542969 C 382.96875 19.933594 378.828125 20.636719 375 21.183594 C 371.09375 21.730469 367.96875 22.433594 367.96875 22.746094 C 367.96875 22.980469 370.859375 22.746094 374.453125 22.199219 C 377.96875 21.574219 383.28125 20.714844 386.25 20.324219 C 389.296875 19.855469 391.875 19.308594 392.109375 19.152344 C 392.65625 18.527344 386.484375 18.839844 384.140625 19.542969 Z M 384.140625 19.542969 "/>
<path style=" stroke:none;fill-rule:nonzero;fill:rgb(0%,0%,0%);fill-opacity:1;" d="M 359.21875 23.996094 C 360.15625 24.152344 361.5625 24.152344 362.34375 23.996094 C 363.046875 23.761719 362.265625 23.605469 360.546875 23.683594 C 358.828125 23.683594 358.203125 23.839844 359.21875 23.996094 Z M 359.21875 23.996094 "/>
<path style=" stroke:none;fill-rule:nonzero;fill:rgb(0%,0%,0%);fill-opacity:1;" d="M 354.53125 24.777344 C 355 24.9375 355.9375 24.9375 356.484375 24.777344 C 356.953125 24.542969 356.5625 24.386719 355.46875 24.386719 C 354.375 24.386719 353.984375 24.542969 354.53125 24.777344 Z M 354.53125 24.777344 "/>
<path style=" stroke:none;fill-rule:nonzero;fill:rgb(0%,0%,0%);fill-opacity:1;" d="M 346.484375 25.796875 L 343.359375 26.34375 L 346.09375 26.34375 C 347.578125 26.421875 349.921875 26.109375 351.171875 25.796875 C 353.28125 25.25 353.28125 25.171875 351.5625 25.25 C 350.46875 25.25 348.203125 25.484375 346.484375 25.796875 Z M 346.484375 25.796875 "/>
<path style=" stroke:none;fill-rule:nonzero;fill:rgb(0%,0%,0%);fill-opacity:1;" d="M 335.9375 27.359375 C 334.375 27.828125 334.296875 27.984375 335.546875 27.984375 C 336.40625 27.984375 338.203125 27.671875 339.453125 27.359375 C 341.5625 26.8125 341.5625 26.734375 339.84375 26.734375 C 338.75 26.734375 337.03125 27.046875 335.9375 27.359375 Z M 335.9375 27.359375 "/>
<path style=" stroke:none;fill-rule:nonzero;fill:rgb(0%,0%,0%);fill-opacity:1;" d="M 328.75 28.6875 C 329.21875 28.84375 330.15625 28.84375 330.703125 28.6875 C 331.171875 28.453125 330.78125 28.296875 329.6875 28.296875 C 328.59375 28.296875 328.203125 28.453125 328.75 28.6875 Z M 328.75 28.6875 "/>
<path style=" stroke:none;fill-rule:nonzero;fill:rgb(0%,0%,0%);fill-opacity:1;" d="M 324.84375 29.46875 C 325.3125 29.625 326.25 29.625 326.796875 29.46875 C 327.265625 29.234375 326.875 29.078125 325.78125 29.078125 C 324.6875 29.078125 324.296875 29.234375 324.84375 29.46875 Z M 324.84375 29.46875 "/>
<path style=" stroke:none;fill-rule:nonzero;fill:rgb(0%,0%,0%);fill-opacity:1;" d="M 49.609375 48.855469 C 49.21875 49.011719 47.890625 49.324219 46.71875 49.558594 C 43.28125 50.339844 40.78125 53.703125 39.453125 59.5625 C 38.046875 65.660156 37.96875 67.539062 39.0625 66.832031 C 39.53125 66.597656 39.84375 66.675781 39.84375 67.144531 C 39.84375 67.539062 39.0625 68.164062 38.125 68.476562 C 35.78125 69.179688 35.15625 70.195312 35.15625 73.242188 C 35.15625 75.277344 34.84375 75.824219 33.59375 75.824219 C 32.734375 75.824219 32.03125 76.136719 32.03125 76.449219 C 32.03125 77.855469 36.015625 85.203125 36.71875 85.203125 C 37.1875 85.203125 38.4375 86.140625 39.609375 87.234375 L 41.5625 89.191406 L 43.125 87.625 C 44.6875 85.828125 45.78125 85.59375 46.40625 86.6875 C 46.640625 87.078125 48.359375 87.46875 50.15625 87.546875 C 52.03125 87.625 54.609375 87.78125 55.9375 87.859375 C 57.34375 87.859375 59.21875 88.640625 60.15625 89.503906 L 61.953125 91.066406 L 61.5625 89.269531 C 61.25 88.328125 61.40625 87.546875 61.796875 87.546875 C 62.1875 87.546875 62.5 87.859375 62.5 88.25 C 62.5 88.722656 63.515625 88.722656 65.078125 88.171875 C 66.40625 87.78125 68.046875 87.390625 68.671875 87.3125 C 69.453125 87.3125 69.53125 86.609375 69.140625 84.5 C 68.28125 80.042969 68.203125 78.714844 68.75 73.789062 C 69.0625 71.289062 69.140625 68.867188 68.90625 68.476562 C 68.75 68.085938 68.515625 65.660156 68.4375 62.925781 C 68.28125 57.84375 67.109375 55.578125 62.96875 52.292969 C 59.140625 49.246094 53.046875 47.683594 49.609375 48.855469 Z M 56.640625 54.796875 C 61.40625 56.125 63.828125 58.15625 63.75 60.738281 C 63.671875 62.691406 63.359375 62.925781 60.546875 63.160156 C 57.890625 63.316406 57.1875 63.785156 56.5625 65.503906 C 56.015625 66.910156 56.015625 68.398438 56.484375 69.882812 C 57.03125 71.523438 56.953125 72.304688 56.171875 72.773438 C 55.46875 73.242188 55.390625 73.710938 55.859375 74.023438 C 56.953125 74.886719 56.796875 76.917969 55.546875 78.480469 C 55 79.183594 54.609375 79.730469 54.765625 79.808594 C 57.34375 80.277344 57.96875 80.121094 58.671875 78.792969 C 59.140625 77.933594 59.296875 76.761719 59.0625 76.214844 C 58.828125 75.511719 59.0625 75.277344 59.6875 75.511719 C 60.3125 75.746094 61.015625 75.589844 61.328125 75.121094 C 61.640625 74.574219 61.09375 74.257812 60 74.257812 C 58.75 74.257812 58.125 73.789062 58.125 72.851562 C 58.046875 72.148438 57.8125 70.585938 57.421875 69.335938 C 56.875 67.222656 56.875 67.222656 59.765625 67.695312 C 61.953125 68.007812 62.578125 67.851562 62.34375 67.144531 C 62.109375 66.519531 61.171875 65.894531 60.078125 65.582031 L 58.203125 65.035156 L 60.234375 64.957031 C 63.046875 64.878906 64.84375 67.617188 63.90625 70.742188 C 63.59375 71.992188 63.046875 74.101562 62.8125 75.433594 C 62.421875 77.621094 61.5625 79.261719 59.21875 82.15625 C 56.171875 85.828125 51.5625 85.515625 48.75 81.371094 C 47.734375 79.808594 46.5625 78.636719 46.25 78.714844 C 45.9375 78.792969 45.78125 78.167969 45.859375 77.308594 C 46.015625 76.449219 45.859375 75.902344 45.46875 76.058594 C 45.15625 76.292969 44.921875 75.589844 44.921875 74.574219 C 44.921875 73.554688 45.15625 72.695312 45.46875 72.695312 C 46.09375 72.695312 45.625 70.976562 44.375 68.320312 C 42.890625 65.113281 47.265625 60.894531 49.53125 63.316406 C 50.15625 64.097656 50.078125 64.253906 49.0625 63.863281 C 48.359375 63.628906 47.578125 63.863281 47.34375 64.566406 C 47.109375 65.191406 47.421875 65.738281 48.28125 65.816406 C 48.984375 65.816406 50 65.972656 50.390625 66.050781 C 50.859375 66.207031 51.5625 66.285156 52.109375 66.363281 C 52.578125 66.363281 53.203125 67.066406 53.359375 67.773438 C 53.671875 69.101562 53.75 69.101562 53.828125 67.773438 C 53.828125 67.066406 53.203125 65.738281 52.265625 64.800781 L 50.625 63.160156 L 52.265625 63.707031 C 53.203125 63.941406 53.90625 63.863281 53.90625 63.472656 C 53.90625 62.457031 50.234375 60.972656 47.65625 60.972656 C 43.828125 60.972656 45.078125 56.515625 49.296875 55.03125 C 52.734375 53.78125 52.890625 53.78125 56.640625 54.796875 Z M 41.40625 70.742188 C 41.40625 71.914062 40.9375 72.695312 40.3125 72.695312 C 38.671875 72.695312 38.359375 70.898438 39.765625 69.804688 C 41.40625 68.554688 41.40625 68.476562 41.40625 70.742188 Z M 65.859375 72.695312 C 65.3125 74.652344 64.140625 75.511719 64.453125 73.710938 C 64.609375 72.929688 64.765625 72.070312 64.765625 71.679688 C 64.84375 71.367188 65.15625 71.132812 65.546875 71.132812 C 65.9375 71.132812 66.09375 71.835938 65.859375 72.695312 Z M 65.859375 72.695312 "/>
<path style=" stroke:none;fill-rule:nonzero;fill:rgb(0%,0%,0%);fill-opacity:1;" d="M 53.203125 70.117188 C 53.125 70.664062 52.5 71.132812 51.796875 71.132812 C 50.859375 71.132812 50.703125 71.367188 51.328125 71.992188 C 52.734375 73.398438 54.53125 72.539062 53.828125 70.742188 C 53.515625 69.882812 53.203125 69.648438 53.203125 70.117188 Z M 53.203125 70.117188 "/>
<path style=" stroke:none;fill-rule:nonzero;fill:rgb(0%,0%,0%);fill-opacity:1;" d="M 49.53125 75.433594 C 49.296875 76.058594 49.296875 76.839844 49.53125 77.230469 C 50.15625 78.246094 53.125 78.949219 53.125 78.089844 C 53.125 77.699219 52.421875 77.386719 51.5625 77.386719 C 49.609375 77.386719 49.453125 76.058594 51.40625 75.667969 C 52.65625 75.433594 52.65625 75.355469 51.328125 74.808594 C 50.46875 74.496094 49.765625 74.652344 49.53125 75.433594 Z M 49.53125 75.433594 "/>
<path style=" stroke:none;fill-rule:nonzero;fill:rgb(0%,0%,0%);fill-opacity:1;" d="M 336.71875 59.40625 C 331.09375 61.128906 323.75 64.566406 322.890625 65.816406 C 322.578125 66.363281 322.265625 69.492188 322.1875 72.695312 C 322.1875 75.902344 321.640625 80.667969 321.09375 83.171875 L 320 87.78125 L 323.359375 90.675781 C 325.234375 92.316406 327.34375 93.488281 328.046875 93.253906 C 328.75 93.097656 330.46875 93.800781 331.953125 94.894531 L 334.6875 96.929688 L 332.03125 97.789062 C 329.53125 98.726562 329.53125 98.726562 331.25 99.664062 C 332.890625 100.523438 332.65625 100.757812 327.65625 103.652344 C 323.125 106.230469 322.03125 107.324219 320.078125 111.234375 C 318.203125 114.828125 317.65625 117.015625 317.34375 122.175781 C 317.109375 125.851562 316.328125 129.992188 315.546875 131.949219 C 314.609375 134.136719 314.140625 137.105469 314.140625 140.625 C 314.21875 145.941406 314.21875 146.019531 316.640625 146.957031 C 321.5625 148.753906 322.65625 150.082031 321.5625 152.898438 C 321.328125 153.523438 321.09375 154.304688 321.015625 154.617188 C 321.015625 154.929688 320.46875 156.023438 319.921875 157.117188 C 319.375 158.210938 318.28125 160.558594 317.5 162.433594 C 316.328125 165.324219 315.859375 165.714844 314.296875 165.324219 C 311.640625 164.699219 312.109375 165.871094 316.015625 170.09375 C 317.96875 172.203125 319.53125 174.160156 319.53125 174.472656 C 319.53125 174.785156 319.921875 175.957031 320.46875 177.207031 C 322.5 182.210938 321.71875 182.679688 318.125 178.535156 C 316.796875 177.050781 315.3125 175.957031 314.84375 176.269531 C 313.90625 176.894531 314.765625 178.613281 317.5 181.585938 C 318.59375 182.757812 319.53125 183.929688 319.53125 184.164062 C 319.53125 185.023438 317.1875 184.320312 315.15625 182.757812 C 313.28125 181.273438 313.046875 181.195312 313.515625 182.445312 C 313.828125 183.226562 314.0625 184.007812 314.0625 184.164062 C 314.0625 184.320312 314.765625 184.476562 315.546875 184.476562 C 317.890625 184.476562 318.359375 186.039062 316.09375 186.117188 C 315 186.195312 313.59375 186.273438 313.125 186.351562 C 311.5625 186.507812 310.9375 187.757812 310.9375 191.199219 C 310.9375 194.871094 313.90625 201.28125 315.625 201.28125 C 316.40625 201.28125 316.796875 202.0625 316.796875 203.628906 C 316.796875 204.878906 317.109375 206.441406 317.5 207.066406 C 317.96875 207.847656 317.96875 208.003906 317.265625 207.613281 C 316.71875 207.222656 315.703125 207.847656 314.6875 209.097656 C 313.75 210.273438 311.953125 211.679688 310.625 212.304688 C 308.59375 213.164062 308.515625 213.320312 309.921875 213.398438 C 311.5625 213.398438 311.640625 213.710938 311.25 218.636719 C 311.09375 221.527344 310.703125 224.5 310.46875 225.28125 C 310.234375 226.0625 310.390625 226.6875 310.859375 226.6875 C 311.328125 226.6875 311.71875 225.4375 311.71875 223.953125 C 311.71875 222.464844 312.03125 221.214844 312.34375 221.214844 C 312.65625 221.214844 312.8125 222.464844 312.65625 223.953125 L 312.34375 226.6875 L 372.65625 226.6875 L 372.65625 224.5 C 372.734375 222.464844 374.21875 219.652344 375.3125 219.652344 C 375.625 219.652344 376.40625 219.105469 377.03125 218.480469 C 377.65625 217.855469 378.59375 217.542969 379.140625 217.699219 C 379.6875 217.855469 381.484375 218.167969 383.203125 218.402344 C 384.921875 218.636719 387.5 219.027344 388.984375 219.339844 C 390.78125 219.730469 391.484375 219.652344 391.171875 219.105469 C 390.703125 218.324219 388.828125 217.777344 382.96875 216.761719 C 381.484375 216.527344 380.15625 215.820312 379.921875 215.273438 C 379.6875 214.492188 378.90625 214.335938 377.890625 214.648438 C 376.328125 215.117188 376.328125 214.960938 376.875 203.550781 C 377.421875 191.824219 377.734375 189.792969 380.15625 180.566406 C 382.890625 169.9375 382.265625 170.71875 391.40625 167.046875 L 399.609375 163.761719 L 399.84375 154.851562 C 400 148.363281 399.6875 144.921875 398.828125 142.34375 C 397.421875 138.121094 397.421875 138.359375 398.828125 138.359375 C 399.6875 138.359375 399.921875 136.871094 399.921875 130.539062 C 399.921875 123.035156 399.609375 121.941406 397.96875 123.425781 C 397.578125 123.738281 396.171875 124.445312 394.765625 124.914062 C 391.796875 125.929688 391.015625 125.226562 390.234375 120.925781 C 389.921875 119.285156 388.828125 116.9375 387.8125 115.6875 C 386.796875 114.515625 385.9375 113.1875 385.9375 112.71875 C 385.9375 111.625 373.671875 102.398438 369.921875 100.757812 C 365.546875 98.804688 365.3125 98.414062 367.34375 96.617188 C 368.359375 95.675781 369.609375 94.035156 370.15625 92.941406 C 371.09375 91.222656 371.015625 90.519531 369.6875 87.46875 C 368.75 85.59375 366.953125 80.667969 365.625 76.605469 C 362.8125 68.320312 359.21875 62.691406 354.921875 60.109375 C 351.25 57.84375 342.890625 57.53125 336.71875 59.40625 Z M 343.359375 98.492188 L 346.40625 100.210938 L 347.8125 98.492188 C 349.375 96.539062 349.375 96.539062 350.703125 99.117188 C 351.484375 100.523438 352.109375 100.835938 353.59375 100.523438 C 354.609375 100.210938 355.46875 100.289062 355.46875 100.679688 C 355.46875 101.070312 352.65625 104.277344 349.140625 107.792969 C 342.1875 114.90625 341.484375 114.984375 340.859375 109.121094 C 340.390625 105.371094 341.484375 104.355469 343.59375 106.464844 C 344.0625 106.933594 344.765625 107.167969 345.078125 106.855469 C 345.390625 106.542969 344.84375 105.683594 343.828125 104.902344 C 339.921875 101.929688 337.65625 99.507812 337.1875 97.867188 C 336.640625 96.304688 336.796875 96.148438 338.4375 96.460938 C 339.453125 96.617188 341.640625 97.554688 343.359375 98.492188 Z M 359.375 119.597656 C 359.375 119.988281 359.921875 120.144531 360.546875 119.910156 C 362.421875 119.207031 362.03125 122.410156 360 124.289062 C 359.0625 125.148438 357.8125 125.851562 357.265625 125.851562 C 355.9375 125.851562 355.859375 121.082031 357.1875 119.753906 C 358.28125 118.660156 359.375 118.503906 359.375 119.597656 Z M 328.828125 153.523438 C 329.53125 154.382812 329.375 154.695312 328.125 155.007812 C 326.953125 155.320312 326.5625 155.007812 326.5625 153.914062 C 326.5625 152.191406 327.578125 151.957031 328.828125 153.523438 Z M 356.25 155.867188 C 356.25 156.101562 355.9375 156.492188 355.46875 156.726562 C 355.078125 156.960938 354.6875 156.804688 354.6875 156.414062 C 354.6875 155.945312 355.078125 155.554688 355.46875 155.554688 C 355.9375 155.554688 356.25 155.710938 356.25 155.867188 Z M 386.5625 158.679688 C 386.875 158.679688 387.578125 159.382812 388.125 160.246094 C 388.90625 161.574219 388.828125 161.964844 387.109375 163.058594 C 386.015625 163.761719 384.53125 164.464844 383.75 164.542969 C 382.34375 164.621094 380.46875 165.324219 377.734375 166.574219 C 376.875 166.96875 375.3125 167.28125 374.21875 167.28125 C 370.3125 167.203125 369.0625 167.4375 363.359375 169.3125 C 357.03125 171.34375 355.078125 171.578125 354.296875 170.328125 C 353.984375 169.859375 352.8125 169.78125 351.328125 170.09375 C 348.515625 170.71875 344.375 173.0625 345 173.6875 C 345.46875 174.238281 340.9375 173.21875 338.90625 172.359375 C 336.875 171.578125 335.46875 167.4375 336.5625 165.636719 C 337.109375 164.855469 337.5 163.292969 337.5 162.199219 C 337.5 160.558594 337.8125 160.167969 339.296875 160.402344 C 340.234375 160.558594 341.5625 161.261719 342.1875 162.042969 C 342.890625 162.902344 344.921875 163.761719 346.796875 164.152344 C 349.84375 164.699219 350.15625 164.621094 350.78125 162.980469 C 351.953125 159.933594 353.125 159.855469 355.46875 162.667969 C 357.890625 165.402344 359.21875 165.714844 366.015625 164.621094 C 370.9375 163.839844 375.078125 162.433594 380.078125 159.855469 C 382.1875 158.757812 384.375 158.054688 385 158.289062 C 385.546875 158.523438 386.328125 158.679688 386.5625 158.679688 Z M 321.484375 204.332031 C 322.5 203.941406 322.734375 204.019531 322.34375 204.644531 C 321.953125 205.269531 322.1875 205.425781 322.96875 205.113281 C 323.671875 204.878906 324.21875 205.035156 324.21875 205.503906 C 324.21875 205.972656 323.828125 206.363281 323.359375 206.363281 C 322.96875 206.363281 322.8125 206.753906 323.046875 207.144531 C 323.359375 207.613281 323.90625 207.769531 324.296875 207.535156 C 324.6875 207.222656 325 207.535156 325 208.082031 C 325 208.785156 324.140625 209.097656 322.890625 209.019531 C 319.296875 208.863281 318.75 208.707031 318.75 207.925781 C 318.75 207.535156 319.21875 207.300781 319.765625 207.457031 C 320.234375 207.535156 320.46875 207.535156 320.078125 207.378906 C 319.765625 207.144531 319.6875 206.753906 319.921875 206.363281 C 320.15625 206.050781 319.609375 205.894531 318.671875 206.128906 C 317.1875 206.519531 317.109375 206.441406 317.96875 204.800781 C 318.59375 203.628906 319.140625 203.316406 319.453125 203.941406 C 319.84375 204.488281 320.625 204.644531 321.484375 204.332031 Z M 326.875 208.394531 C 327.109375 209.019531 327.03125 209.335938 326.5625 209.097656 C 326.09375 208.863281 325.78125 208.316406 325.78125 207.847656 C 325.78125 206.753906 326.328125 206.988281 326.875 208.394531 Z M 340.234375 209.492188 C 340 209.882812 339.375 210.273438 338.984375 210.273438 C 338.515625 210.273438 338.4375 209.882812 338.671875 209.492188 C 338.90625 209.019531 339.53125 208.707031 339.921875 208.707031 C 340.390625 208.707031 340.46875 209.019531 340.234375 209.492188 Z M 344.84375 212.773438 C 345.3125 211.367188 345.78125 211.132812 347.5 211.523438 C 348.671875 211.835938 350 212.382812 350.390625 212.851562 C 350.9375 213.398438 350.859375 213.476562 350.234375 213.085938 C 349.0625 212.460938 348.828125 213.867188 350 214.570312 C 350.46875 214.804688 350.78125 215.507812 350.703125 215.976562 C 350.703125 216.683594 350.546875 216.605469 350.234375 215.898438 C 349.765625 214.726562 348.4375 215.429688 348.4375 216.996094 C 348.4375 217.621094 348.90625 218.089844 349.53125 218.089844 C 350.9375 218.089844 351.796875 219.339844 351.25 220.355469 C 350.546875 221.449219 347.65625 220.433594 347.65625 219.105469 C 347.65625 218.402344 347.1875 218.089844 346.484375 218.402344 C 345.078125 218.949219 344.921875 217.230469 346.25 215.898438 C 346.953125 215.195312 346.953125 214.726562 346.328125 214.101562 C 345.625 213.398438 345.234375 213.789062 344.765625 215.664062 C 344.453125 216.996094 343.828125 218.089844 343.359375 218.089844 C 342.578125 218.089844 342.578125 217.542969 342.890625 213.007812 C 343.125 210.742188 343.125 210.664062 343.671875 212.617188 L 344.21875 214.570312 Z M 352.109375 216.289062 C 351.875 217.074219 351.71875 216.449219 351.71875 214.960938 C 351.71875 213.476562 351.875 212.851562 352.109375 213.554688 C 352.265625 214.335938 352.265625 215.585938 352.109375 216.289062 Z M 338.984375 214.414062 C 339.84375 214.101562 339.765625 214.335938 338.671875 215.195312 C 336.5625 216.917969 336.015625 216.839844 336.171875 214.960938 C 336.25 214.023438 336.5625 213.710938 336.953125 214.101562 C 337.34375 214.492188 338.28125 214.648438 338.984375 214.414062 Z M 313.046875 219.027344 C 312.890625 220.042969 312.734375 219.417969 312.734375 217.699219 C 312.65625 215.976562 312.8125 215.195312 313.046875 215.898438 C 313.203125 216.683594 313.203125 218.089844 313.046875 219.027344 Z M 313.046875 219.027344 "/>
<path style=" stroke:none;fill-rule:nonzero;fill:rgb(0%,0%,0%);fill-opacity:1;" d="M 65.78125 96.929688 C 64.375 103.574219 64.53125 105.449219 66.40625 104.980469 C 67.421875 104.746094 68.125 105.058594 68.4375 105.839844 C 69.0625 107.402344 67.34375 109.667969 66.015625 109.121094 C 64.921875 108.730469 64.0625 111.9375 64.0625 116.546875 C 64.0625 118.582031 63.59375 119.753906 62.734375 120.300781 C 61.71875 120.847656 61.640625 121.082031 62.421875 121.160156 C 63.28125 121.160156 63.4375 122.566406 62.96875 129.132812 C 62.65625 133.589844 62.03125 138.59375 61.5625 140.3125 C 60.546875 144.21875 60.46875 146.488281 61.171875 150.707031 L 61.71875 154.070312 L 58.203125 153.523438 C 54.0625 152.976562 44.140625 155.164062 42.109375 157.195312 C 41.484375 157.820312 39.21875 159.226562 37.1875 160.246094 C 33.90625 161.808594 32.734375 161.964844 27.5 161.496094 C 21.015625 160.949219 18.75 159.539062 18.75 156.023438 C 18.75 153.367188 17.890625 152.976562 16.015625 154.773438 L 14.296875 156.414062 L 13.75 150.472656 C 13.125 143.28125 13.90625 140.078125 17.96875 133.746094 C 21.40625 128.351562 22.03125 124.835938 19.609375 123.503906 C 18.28125 122.800781 18.046875 123.035156 17.578125 125.226562 C 17.265625 126.632812 16.5625 128.195312 16.09375 128.742188 C 14.21875 130.851562 13.59375 131.792969 13.046875 133.042969 C 12.8125 133.824219 12.1875 134.449219 11.796875 134.449219 C 11.40625 134.449219 10.859375 135.464844 10.546875 136.792969 C 10 139.21875 8.984375 139.84375 8.359375 138.121094 C 8.046875 137.417969 7.734375 137.417969 7.1875 138.277344 C 6.5625 139.0625 6.09375 139.140625 4.6875 138.359375 C 3.359375 137.652344 3.125 137.027344 3.515625 135.386719 C 4.296875 132.105469 8.59375 123.503906 9.375 123.503906 C 9.84375 123.503906 10.078125 122.722656 10.078125 121.707031 C 10.078125 120.769531 10.234375 119.285156 10.390625 118.425781 C 10.625 117.566406 10.859375 116.546875 10.859375 116.234375 C 10.9375 115.84375 11.40625 115.84375 11.875 116.15625 C 12.421875 116.46875 12.03125 115.765625 11.015625 114.671875 C 8.59375 111.9375 8.046875 112.015625 7.421875 115.0625 C 7.109375 116.46875 6.5625 118.113281 6.25 118.816406 C 5.859375 119.441406 4.296875 123.113281 2.734375 126.867188 L -0.078125 133.746094 L 0.234375 149.144531 C 0.46875 157.585938 0.625 164.855469 0.625 165.324219 C -0.078125 193.464844 0 200.1875 1.171875 202.457031 C 2.265625 204.566406 2.265625 204.800781 1.171875 204.800781 C 0.46875 204.800781 0 205.503906 0 206.441406 C 0 207.925781 0.3125 208.082031 2.734375 207.691406 C 4.53125 207.378906 5.46875 207.535156 5.546875 208.160156 C 5.546875 208.707031 5.703125 211.757812 5.78125 214.960938 C 6.171875 227.078125 6.09375 226.6875 8.046875 226.6875 C 9.84375 226.6875 9.84375 226.6875 9.53125 217.699219 L 9.21875 208.785156 L 12.1875 209.253906 C 13.90625 209.492188 15.546875 210.117188 15.859375 210.585938 C 16.171875 211.054688 16.328125 214.882812 16.25 219.105469 L 16.015625 226.6875 L 32.96875 226.6875 C 45.78125 226.6875 50 226.453125 50.234375 225.671875 C 50.546875 224.96875 50.703125 224.96875 50.703125 225.671875 C 50.78125 226.453125 54.140625 226.6875 64.84375 226.6875 L 78.90625 226.6875 L 78.90625 223.246094 C 78.90625 221.292969 79.453125 217.308594 80.078125 214.335938 C 80.703125 211.367188 81.40625 207.066406 81.640625 204.722656 C 81.953125 202.378906 82.65625 196.4375 83.28125 191.511719 C 83.984375 186.585938 84.453125 180.175781 84.375 177.207031 C 84.296875 172.203125 84.375 171.96875 86.09375 171.890625 C 89.375 171.8125 98.75 169.15625 99.0625 168.21875 C 99.21875 167.671875 98.984375 167.28125 98.515625 167.28125 C 98.046875 167.28125 97.65625 166.574219 97.65625 165.714844 C 97.65625 164.855469 98.046875 164.152344 98.515625 164.152344 C 100.390625 164.152344 97.03125 160.636719 94.6875 160.167969 C 93.28125 159.855469 92.421875 160.011719 92.65625 160.324219 C 92.890625 160.714844 92.1875 161.027344 91.09375 161.027344 C 90.078125 161.027344 89.0625 161.339844 88.90625 161.730469 C 88.828125 162.121094 87.03125 162.667969 85 162.980469 L 81.25 163.527344 L 81.25 161.105469 C 81.25 159.777344 80.9375 158.679688 80.46875 158.679688 C 79.6875 158.679688 79.375 160.246094 79.53125 162.746094 C 79.6875 164.308594 79.375 164.464844 65.859375 167.203125 C 52.8125 169.9375 51.328125 169.390625 54.375 162.980469 C 55.546875 160.402344 57.96875 158.992188 61.71875 158.523438 C 62.8125 158.367188 63.671875 157.898438 63.75 157.507812 C 63.75 157.039062 63.984375 156.179688 64.21875 155.554688 C 65 153.445312 66.40625 147.972656 66.40625 147.035156 C 66.40625 146.566406 65.703125 146.175781 64.921875 146.175781 C 64.0625 146.175781 63.125 145.785156 62.8125 145.234375 C 62.421875 144.609375 62.96875 144.53125 64.609375 144.84375 L 66.953125 145.3125 L 68.203125 135.386719 C 68.90625 129.914062 69.921875 122.488281 70.390625 118.816406 C 73.4375 95.050781 73.4375 96.070312 69.6875 94.035156 L 66.640625 92.472656 Z M 13.90625 171.8125 C 14.84375 171.96875 15.625 172.4375 15.625 172.828125 C 15.625 173.296875 15.3125 173.375 14.84375 173.140625 C 14.453125 172.90625 13.90625 173.53125 13.59375 174.628906 C 13.359375 175.800781 12.734375 176.425781 12.109375 176.191406 C 11.5625 175.957031 11.25 175.097656 11.484375 174.238281 C 11.71875 173.453125 11.484375 172.75 11.015625 172.75 C 10.546875 172.75 10.15625 171.578125 10.15625 170.171875 L 10.15625 167.671875 L 11.171875 169.625 C 11.71875 170.71875 12.96875 171.65625 13.90625 171.8125 Z M 80.9375 174.550781 C 80.234375 177.441406 73.125 184.085938 68.125 186.507812 C 65.078125 187.996094 62.03125 188.777344 58.4375 189.011719 C 53.515625 189.324219 53.125 189.246094 51.25 187.210938 C 47.109375 182.757812 49.296875 179.003906 57.03125 177.050781 C 72.5 173.0625 80.15625 171.421875 80.78125 171.96875 C 81.171875 172.359375 81.25 173.453125 80.9375 174.550781 Z M 17.96875 176.660156 C 17.96875 177.050781 17.8125 177.441406 17.65625 177.441406 C 17.421875 177.441406 17.03125 177.050781 16.796875 176.660156 C 16.5625 176.191406 16.71875 175.878906 17.109375 175.878906 C 17.578125 175.878906 17.96875 176.191406 17.96875 176.660156 Z M 15.078125 183.695312 C 15.78125 184.554688 16.09375 185.257812 15.625 185.257812 C 15.234375 185.257812 14.53125 184.554688 14.0625 183.695312 C 13.59375 182.835938 13.359375 182.132812 13.4375 182.132812 C 13.59375 182.132812 14.296875 182.835938 15.078125 183.695312 Z M 12.1875 186.117188 C 13.671875 187.835938 13.671875 187.835938 11.953125 186.898438 C 10.9375 186.429688 10.15625 185.648438 10.15625 185.257812 C 10.15625 184.085938 10.546875 184.320312 12.1875 186.117188 Z M 8.046875 211.835938 C 7.5 214.023438 7.03125 213.789062 7.03125 211.367188 C 7.03125 210.273438 7.34375 209.570312 7.734375 209.804688 C 8.125 210.039062 8.28125 210.976562 8.046875 211.835938 Z M 8.046875 211.835938 "/>
<path style=" stroke:none;fill-rule:nonzero;fill:rgb(0%,0%,0%);fill-opacity:1;" d="M 196.953125 111.46875 C 196.953125 112.328125 197.1875 112.5625 197.421875 111.9375 C 197.65625 111.390625 197.578125 110.6875 197.34375 110.453125 C 197.109375 110.140625 196.875 110.609375 196.953125 111.46875 Z M 196.953125 111.46875 "/>
<path style=" stroke:none;fill-rule:nonzero;fill:rgb(0%,0%,0%);fill-opacity:1;" d="M 25 112.796875 C 25 113.5 25.546875 113.890625 26.171875 113.8125 C 27.734375 113.578125 27.734375 112.25 26.25 111.9375 C 25.546875 111.78125 25 112.171875 25 112.796875 Z M 25 112.796875 "/>
<path style=" stroke:none;fill-rule:nonzero;fill:rgb(0%,0%,0%);fill-opacity:1;" d="M 157.65625 113.03125 C 156.40625 113.734375 155.46875 114.75 155.46875 115.453125 C 155.46875 116.15625 154.921875 117.410156 154.140625 118.191406 C 153.4375 118.972656 153.28125 119.597656 153.75 119.597656 C 154.21875 119.597656 154.6875 119.207031 154.84375 118.738281 C 155 118.347656 156.40625 117.878906 158.046875 117.800781 C 159.765625 117.722656 160.9375 117.253906 160.9375 116.625 C 160.9375 116.15625 161.71875 115.6875 162.578125 115.6875 C 164.140625 115.6875 164.140625 115.53125 163.125 113.890625 C 161.640625 111.78125 160.390625 111.546875 157.65625 113.03125 Z M 157.65625 113.03125 "/>
<path style=" stroke:none;fill-rule:nonzero;fill:rgb(0%,0%,0%);fill-opacity:1;" d="M 36.875 114.28125 C 35.3125 117.566406 34.21875 122.019531 34.609375 123.582031 C 34.84375 124.367188 34.6875 125.070312 34.296875 125.070312 C 33.90625 125.070312 33.59375 125.617188 33.59375 126.242188 C 33.59375 128.742188 35.859375 127.335938 36.40625 124.445312 C 36.71875 122.878906 37.265625 121.082031 37.734375 120.535156 C 38.828125 119.207031 40.703125 119.363281 40.15625 120.769531 C 39.84375 121.394531 40 122.410156 40.390625 122.957031 C 41.40625 124.289062 41.25 125.773438 39.921875 126.554688 C 39.140625 127.101562 39.140625 127.335938 39.84375 127.804688 C 41.25 128.664062 42.1875 126.710938 42.1875 123.113281 C 42.1875 120.378906 41.875 119.753906 39.84375 118.582031 C 37.578125 117.175781 36.71875 115.6875 38.28125 115.6875 C 38.75 115.6875 39.0625 114.984375 39.0625 114.125 C 39.0625 112.015625 37.96875 112.171875 36.875 114.28125 Z M 36.875 114.28125 "/>
<path style=" stroke:none;fill-rule:nonzero;fill:rgb(0%,0%,0%);fill-opacity:1;" d="M 168.515625 117.644531 C 168.203125 118.269531 168.4375 118.972656 168.828125 119.285156 C 170.9375 120.535156 173.90625 131.324219 172.1875 131.324219 C 171.953125 131.324219 170.703125 130.226562 169.375 128.820312 C 167.65625 127.023438 166.875 126.632812 166.484375 127.335938 C 166.09375 127.882812 165.625 128.273438 165.3125 128.273438 C 165.078125 128.273438 164.296875 128.429688 163.59375 128.742188 C 162.890625 128.976562 162.03125 128.742188 161.640625 128.117188 C 160.9375 127.023438 160.859375 127.335938 160.625 132.496094 C 160.546875 133.355469 160.078125 134.058594 159.53125 134.058594 C 158.90625 134.058594 158.046875 134.605469 157.578125 135.230469 C 157.03125 135.855469 154.609375 137.417969 152.109375 138.75 C 146.09375 141.875 145.78125 142.265625 146.953125 146.332031 C 147.5 148.207031 148.046875 150.707031 148.125 152.035156 C 148.203125 153.289062 148.515625 155.242188 148.90625 156.257812 C 149.296875 157.664062 149.21875 158.054688 148.359375 157.742188 C 147.8125 157.585938 147.109375 156.570312 146.796875 155.476562 C 146.484375 154.460938 146.25 154.070312 146.171875 154.539062 C 146.09375 155.945312 143.203125 155.789062 142.65625 154.304688 C 141.640625 151.722656 140.859375 154.148438 141.640625 157.429688 C 142.5 161.183594 141.640625 163.371094 139.375 163.371094 C 138.671875 163.371094 138.28125 164.308594 138.28125 166.261719 C 138.28125 169.546875 141.40625 174.785156 143.90625 175.566406 C 146.484375 176.347656 150.9375 175.175781 151.328125 173.453125 C 151.5625 172.671875 152.03125 171.96875 152.265625 171.96875 C 153.203125 171.96875 152.578125 183.304688 151.640625 185.101562 C 150.546875 187.132812 149.765625 200.109375 150.703125 200.109375 C 151.71875 200.109375 152.34375 203.316406 151.5625 204.800781 C 151.015625 205.738281 149.921875 206.128906 147.34375 205.972656 C 145.390625 205.972656 143.984375 206.128906 144.21875 206.441406 C 144.375 206.753906 144.140625 207.300781 143.671875 207.535156 C 143.125 207.925781 142.96875 207.457031 143.125 206.285156 C 143.28125 205.035156 143.984375 204.332031 145.078125 204.175781 C 146.171875 204.019531 146.640625 203.550781 146.328125 202.769531 C 146.09375 202.140625 146.328125 201.671875 146.875 201.671875 C 147.421875 201.671875 147.65625 201.046875 147.421875 200.109375 C 147.1875 199.25 147.265625 197.375 147.65625 195.890625 C 148.125 193.855469 148.046875 193.308594 147.1875 193.621094 C 146.5625 193.855469 146.328125 193.464844 146.640625 192.449219 C 147.109375 190.652344 144.609375 188.699219 138.046875 185.648438 C 132.890625 183.304688 129.84375 182.757812 126.71875 183.617188 C 125.234375 184.085938 123.984375 183.851562 122.5 182.914062 C 121.25 182.210938 120.546875 181.429688 120.78125 181.117188 C 121.640625 180.253906 117.03125 179.550781 109.84375 179.472656 C 104.21875 179.394531 102.34375 179.707031 100.78125 180.722656 C 99.765625 181.507812 99.21875 182.132812 99.609375 182.132812 C 100.078125 182.132812 100.078125 182.367188 99.53125 182.757812 C 99.140625 183.070312 98.125 184.632812 97.421875 186.195312 C 96.484375 188.230469 95.546875 189.167969 94.375 189.167969 C 92.265625 189.167969 89.0625 192.605469 89.921875 193.933594 C 90.390625 194.792969 90.78125 194.792969 91.5625 194.011719 C 92.734375 192.839844 93.75 192.761719 93.75 193.855469 C 93.75 194.246094 93.4375 194.636719 92.96875 194.636719 C 92.5 194.636719 91.40625 195.421875 90.546875 196.28125 C 89.0625 197.765625 88.984375 198.234375 89.765625 200.96875 C 90.3125 202.691406 91.015625 204.019531 91.40625 204.019531 C 92.65625 204.019531 92.34375 207.613281 91.015625 208.707031 C 90.390625 209.253906 89.84375 210.898438 89.84375 212.382812 C 89.84375 213.867188 89.296875 216.054688 88.671875 217.308594 C 87.65625 219.261719 87.65625 219.652344 88.671875 220.746094 C 89.453125 221.527344 89.6875 222.621094 89.375 224.265625 L 88.828125 226.6875 L 128.984375 226.6875 L 169.140625 226.609375 L 167.1875 225.046875 C 166.09375 224.1875 164.21875 222.777344 162.890625 221.839844 C 160.703125 220.433594 160.703125 220.355469 162.5 220.824219 C 163.59375 221.136719 165.078125 221.371094 165.78125 221.449219 C 166.484375 221.527344 167.03125 221.839844 166.953125 222.230469 C 166.875 222.621094 167.265625 223.167969 167.890625 223.402344 C 168.59375 223.640625 168.75 223.402344 168.359375 222.777344 C 167.96875 222.152344 168.046875 221.917969 168.59375 222.308594 C 169.0625 222.621094 169.21875 223.402344 168.984375 224.109375 C 168.59375 225.046875 168.828125 225.28125 169.765625 224.890625 C 170.46875 224.65625 171.5625 224.96875 172.1875 225.59375 C 173.125 226.453125 175 226.6875 180.625 226.53125 L 187.890625 226.296875 L 188.125 223.796875 C 188.4375 220.277344 189.84375 220.511719 189.84375 224.03125 C 189.84375 226.609375 190 226.765625 191.171875 225.828125 C 192.1875 224.96875 192.5 224.96875 192.734375 225.671875 C 192.96875 226.296875 194.296875 226.6875 195.9375 226.609375 C 197.578125 226.609375 198.359375 226.375 197.890625 226.140625 C 196.796875 225.75 197.578125 223.796875 199.6875 221.683594 C 200.546875 220.746094 201.25 220.667969 202.34375 221.214844 C 203.59375 221.917969 203.75 221.761719 203.59375 219.808594 C 203.359375 218.246094 202.96875 217.777344 201.875 217.933594 C 199.0625 218.402344 198.4375 218.871094 197.65625 220.824219 C 197.1875 221.996094 196.484375 222.621094 196.09375 222.386719 C 195.46875 221.996094 195.546875 221.449219 196.25 220.667969 C 197.1875 219.574219 196.875 219.496094 193.515625 219.964844 C 190.46875 220.433594 189.84375 220.355469 189.84375 219.339844 C 189.84375 218.558594 190.546875 218.089844 191.5625 218.089844 C 192.578125 218.089844 196.171875 217.152344 199.53125 216.054688 C 205.46875 214.023438 205.78125 214.023438 206.796875 215.429688 C 207.34375 216.210938 207.8125 218.871094 207.8125 221.761719 L 207.8125 226.6875 L 213.203125 226.6875 L 212.734375 218.949219 C 212.34375 211.679688 212.34375 211.210938 213.75 211.289062 C 214.921875 211.445312 215.3125 210.820312 215.46875 208.472656 C 215.703125 205.660156 215.3125 205.191406 212.65625 205.503906 C 211.875 205.660156 211.796875 204.332031 212.1875 199.5625 C 212.65625 194.792969 213.125 193.230469 214.375 192.136719 C 215.9375 190.886719 216.015625 190.886719 216.71875 192.292969 C 217.265625 193.464844 216.953125 194.167969 215.546875 195.34375 C 214.0625 196.515625 213.90625 197.0625 214.609375 197.84375 C 215.390625 198.546875 215.78125 198.625 216.71875 197.84375 C 217.5 197.21875 218.671875 197.140625 220.390625 197.53125 C 223.90625 198.46875 224.296875 200.109375 220.9375 200.1875 C 218.828125 200.1875 218.671875 200.34375 219.921875 200.8125 C 220.78125 201.203125 221.71875 201.359375 222.109375 201.125 C 222.8125 200.734375 222.8125 200.03125 222.890625 214.179688 L 223.046875 226.296875 L 236.640625 226.53125 C 248.515625 226.6875 250.15625 226.609375 249.6875 225.515625 C 249.453125 224.890625 249.609375 224.34375 250 224.34375 C 250.46875 224.34375 250.78125 223.953125 250.78125 223.484375 C 250.78125 223.089844 250.46875 222.933594 250 223.167969 C 249.53125 223.402344 249.453125 223.089844 249.6875 222.464844 C 249.921875 221.761719 250.46875 221.214844 250.859375 221.214844 C 251.25 221.214844 251.5625 220.824219 251.5625 220.433594 C 251.5625 219.027344 249.296875 219.574219 248.28125 221.214844 C 247.734375 222.074219 246.71875 222.777344 246.09375 222.777344 C 245.078125 222.777344 245.078125 222.621094 246.015625 222.074219 C 246.640625 221.683594 246.875 220.824219 246.5625 219.964844 C 246.25 219.183594 246.484375 218.324219 247.03125 218.011719 C 247.578125 217.699219 247.734375 217.152344 247.5 216.839844 C 247.1875 216.605469 246.40625 216.917969 245.703125 217.542969 C 245 218.324219 244.84375 218.949219 245.3125 219.261719 C 246.328125 219.886719 246.328125 221.214844 245.234375 221.214844 C 244.84375 221.214844 244.609375 220.980469 244.765625 220.589844 C 245 220.277344 244.296875 218.949219 243.28125 217.699219 C 242.265625 216.371094 241.40625 215.820312 241.40625 216.371094 C 241.40625 216.917969 241.09375 217.230469 240.703125 216.996094 C 240.390625 216.761719 240 215.039062 239.921875 213.242188 C 239.921875 211.367188 239.609375 207.535156 239.375 204.722656 C 239.0625 200.65625 239.21875 199.40625 240.15625 198.625 C 241.796875 197.21875 241.71875 195.96875 239.921875 194.324219 C 238.90625 193.386719 238.515625 191.824219 238.359375 188.386719 C 238.28125 185.570312 238.59375 183.695312 239.0625 183.695312 C 239.453125 183.695312 239.84375 183.148438 239.84375 182.523438 C 239.84375 181.585938 240.859375 181.351562 244.53125 181.351562 C 248.4375 181.351562 249.21875 181.585938 249.296875 182.679688 C 249.375 183.460938 249.53125 184.945312 249.609375 186.039062 C 249.6875 187.132812 249.921875 191.667969 250 196.203125 C 250.15625 200.734375 250.546875 205.582031 250.859375 206.910156 C 251.171875 208.628906 251.09375 209.492188 250.546875 209.492188 C 249.921875 209.492188 249.921875 209.726562 250.546875 210.351562 C 251.015625 210.820312 251.25 211.757812 251.015625 212.382812 C 250.78125 213.007812 251.09375 213.867188 251.71875 214.414062 C 252.421875 214.960938 253.59375 217.777344 254.375 220.667969 C 255.625 225.515625 257.109375 227.703125 258.28125 226.453125 C 258.59375 226.21875 258.75 225.203125 258.75 224.1875 C 258.671875 223.167969 258.671875 220.433594 258.59375 218.089844 C 258.59375 215.195312 258.359375 214.179688 257.8125 214.882812 C 257.03125 216.210938 256.640625 214.804688 255.9375 208.707031 C 255.703125 206.753906 254.84375 200.8125 253.984375 195.421875 C 252.109375 183.226562 252.265625 179.707031 254.765625 178.457031 C 257.1875 177.207031 257.1875 175.722656 254.6875 175.332031 C 252.265625 174.941406 251.875 174.238281 251.71875 170.171875 C 251.640625 168.375 251.171875 163.292969 250.703125 158.835938 L 249.765625 150.785156 L 247.96875 156.101562 C 245.9375 162.121094 245.390625 171.96875 247.109375 171.96875 C 247.734375 171.96875 247.65625 172.28125 246.875 172.75 C 246.25 173.140625 243.984375 173.53125 241.875 173.53125 C 238.90625 173.53125 238.203125 173.296875 238.59375 172.359375 C 238.828125 171.734375 238.515625 170.953125 237.890625 170.640625 C 237.265625 170.25 236.40625 169.15625 236.015625 168.0625 C 235.234375 166.261719 235.15625 166.339844 235.390625 169 C 235.46875 170.640625 235.3125 171.8125 235.078125 171.734375 C 234.765625 171.65625 233.90625 172.125 233.125 172.828125 C 232.265625 173.453125 231.09375 174.003906 230.46875 174.003906 C 229.21875 173.925781 229.140625 173.21875 228.984375 164.699219 C 228.90625 160.011719 228.75 159.460938 227.34375 159.460938 C 226.25 159.460938 225.78125 160.011719 225.78125 161.183594 C 225.78125 162.667969 225.9375 162.746094 226.5625 161.808594 C 227.109375 160.871094 227.34375 161.183594 227.34375 162.980469 C 227.34375 164.777344 227.109375 165.089844 226.5625 164.152344 C 226.015625 163.292969 225.78125 164.386719 225.78125 167.828125 C 225.78125 170.640625 226.09375 172.75 226.5625 172.75 C 227.03125 172.75 227.34375 173.140625 227.34375 173.609375 C 227.34375 174.003906 227.03125 174.160156 226.5625 173.925781 C 226.171875 173.6875 225.78125 173.847656 225.78125 174.238281 C 225.78125 174.707031 225.078125 175.097656 224.21875 175.097656 C 223.4375 175.097656 221.953125 175.410156 220.9375 175.800781 C 219.921875 176.191406 218.203125 176.738281 217.03125 176.972656 C 214.296875 177.597656 214.21875 179.160156 216.71875 180.566406 C 218.515625 181.507812 220 181.820312 224.0625 182.054688 C 225.625 182.132812 225.78125 182.523438 225.78125 186.742188 C 225.78125 191.746094 225.625 191.980469 222.421875 192.605469 C 221.25 192.761719 220 193.152344 219.609375 193.386719 C 218.75 193.933594 218.046875 192.996094 217.578125 190.730469 C 217.421875 189.871094 216.640625 188.464844 215.78125 187.601562 C 214.296875 186.039062 213.984375 183.460938 213.75 172.359375 C 213.75 169.78125 213.359375 167.4375 212.890625 167.125 C 212.421875 166.8125 212.734375 166.496094 213.515625 166.496094 C 215.078125 166.496094 215.390625 162.902344 213.90625 162.355469 C 212.109375 161.730469 214.296875 160.480469 221.015625 158.289062 C 229.140625 155.710938 234.84375 152.898438 235.9375 150.941406 C 236.5625 149.613281 236.25 149.222656 233.125 147.660156 C 229.84375 146.097656 228.75 146.019531 220.78125 146.410156 C 216.015625 146.644531 211.484375 147.035156 210.78125 147.347656 C 209.84375 147.738281 209.21875 147.425781 208.828125 146.488281 C 208.59375 145.628906 206.484375 142.96875 204.140625 140.46875 C 201.875 137.964844 200 135.464844 199.921875 134.996094 C 199.921875 134.449219 199.375 129.992188 198.828125 125.070312 L 197.734375 116.078125 L 198.125 125.851562 C 198.59375 138.277344 198.984375 140.78125 200.859375 142.109375 C 201.640625 142.65625 202.34375 143.671875 202.34375 144.296875 C 202.34375 144.921875 202.65625 145.390625 203.046875 145.390625 C 203.359375 145.390625 203.515625 146.253906 203.359375 147.269531 C 203.046875 148.675781 202.34375 149.222656 200.15625 149.613281 C 195.78125 150.316406 195.078125 150.238281 195.546875 148.910156 C 195.859375 148.285156 195.703125 147.582031 195.234375 147.269531 C 194.6875 146.957031 194.84375 146.332031 195.546875 145.550781 C 196.171875 144.6875 196.640625 142.109375 196.71875 138.984375 C 196.875 132.417969 195.390625 130.617188 189.921875 130.382812 C 184.765625 130.226562 184.0625 130.148438 183.203125 129.679688 C 182.734375 129.445312 181.40625 129.210938 180.234375 129.132812 C 176.171875 128.898438 172.34375 124.128906 172.265625 119.207031 C 172.265625 118.347656 171.796875 117.722656 171.328125 117.800781 C 170.78125 117.957031 170.3125 117.644531 170.3125 117.253906 C 170.3125 116.078125 168.984375 116.3125 168.515625 117.644531 Z M 166.875 131.085938 C 166.328125 132.417969 166.796875 132.339844 168.28125 130.851562 C 169.21875 129.992188 169.53125 129.914062 169.53125 130.695312 C 169.53125 132.339844 168.203125 133.902344 167.265625 133.355469 C 166.796875 133.042969 165.78125 133.199219 164.921875 133.589844 C 163.828125 134.214844 163.203125 134.136719 162.5 133.277344 C 161.640625 132.261719 161.71875 132.183594 162.8125 132.574219 C 163.515625 132.886719 164.0625 132.808594 163.984375 132.417969 C 163.671875 130.773438 164.140625 130.070312 165.625 130.070312 C 166.640625 130.070312 167.109375 130.460938 166.875 131.085938 Z M 174.921875 138.199219 C 174.375 139.765625 174.0625 141.25 174.140625 141.40625 C 174.296875 141.5625 173.75 142.109375 172.890625 142.578125 C 171.328125 143.515625 167.890625 143.828125 168.4375 142.96875 C 168.59375 142.65625 167.578125 142.03125 166.171875 141.5625 C 164.21875 140.859375 163.90625 140.46875 164.84375 139.921875 C 165.46875 139.53125 166.796875 139.140625 167.8125 139.140625 C 169.609375 139.140625 171.953125 137.105469 174.21875 133.746094 C 175.390625 132.027344 175.390625 132.027344 175.625 133.667969 C 175.78125 134.527344 175.46875 136.558594 174.921875 138.199219 Z M 194.53125 132.886719 C 194.53125 133.277344 194.375 133.667969 194.21875 133.667969 C 193.984375 133.667969 193.59375 133.277344 193.359375 132.886719 C 193.125 132.417969 193.28125 132.105469 193.671875 132.105469 C 194.140625 132.105469 194.53125 132.417969 194.53125 132.886719 Z M 196.09375 138.515625 C 196.09375 139.6875 194.921875 139.140625 193.90625 137.574219 C 192.96875 136.089844 193.046875 136.011719 194.53125 136.949219 C 195.390625 137.496094 196.09375 138.199219 196.09375 138.515625 Z M 186.71875 139.140625 C 186.71875 139.53125 186.328125 139.921875 185.859375 139.921875 C 185.46875 139.921875 185.3125 139.53125 185.546875 139.140625 C 185.78125 138.671875 186.171875 138.359375 186.40625 138.359375 C 186.5625 138.359375 186.71875 138.671875 186.71875 139.140625 Z M 193.515625 140.390625 C 193.28125 140.625 192.578125 140.703125 192.03125 140.46875 C 191.40625 140.234375 191.640625 140 192.5 140 C 193.359375 139.921875 193.828125 140.15625 193.515625 140.390625 Z M 190.625 147.269531 C 190.625 147.503906 190.3125 147.894531 189.84375 148.128906 C 189.453125 148.363281 189.0625 148.207031 189.0625 147.816406 C 189.0625 147.347656 189.453125 146.957031 189.84375 146.957031 C 190.3125 146.957031 190.625 147.113281 190.625 147.269531 Z M 164.84375 150.082031 C 164.84375 150.472656 164.6875 150.863281 164.53125 150.863281 C 164.296875 150.863281 163.90625 150.472656 163.671875 150.082031 C 163.4375 149.613281 163.59375 149.300781 163.984375 149.300781 C 164.453125 149.300781 164.84375 149.613281 164.84375 150.082031 Z M 189.0625 150.082031 C 189.0625 150.472656 188.90625 150.863281 188.75 150.863281 C 188.515625 150.863281 188.125 150.472656 187.890625 150.082031 C 187.65625 149.613281 187.8125 149.300781 188.203125 149.300781 C 188.671875 149.300781 189.0625 149.613281 189.0625 150.082031 Z M 167.578125 156.335938 C 167.8125 156.804688 167.5 156.882812 166.875 156.648438 C 165.46875 156.101562 165.234375 155.554688 166.328125 155.554688 C 166.796875 155.554688 167.34375 155.867188 167.578125 156.335938 Z M 176.953125 156.335938 C 177.1875 156.726562 177.03125 157.117188 176.640625 157.117188 C 176.171875 157.117188 175.78125 156.726562 175.78125 156.335938 C 175.78125 155.867188 175.9375 155.554688 176.09375 155.554688 C 176.328125 155.554688 176.71875 155.867188 176.953125 156.335938 Z M 157.421875 157.117188 C 157.65625 157.507812 157.5 157.898438 157.109375 157.898438 C 156.640625 157.898438 156.25 157.507812 156.25 157.117188 C 156.25 156.648438 156.40625 156.335938 156.5625 156.335938 C 156.796875 156.335938 157.1875 156.648438 157.421875 157.117188 Z M 146.5625 160.246094 C 146.5625 161.964844 146.328125 163.136719 146.015625 162.746094 C 145.234375 161.886719 144.53125 158.210938 145.078125 157.585938 C 146.171875 156.492188 146.5625 157.273438 146.5625 160.246094 Z M 164.84375 161.027344 C 164.84375 161.417969 164.6875 161.808594 164.53125 161.808594 C 164.296875 161.808594 163.90625 161.417969 163.671875 161.027344 C 163.4375 160.558594 163.59375 160.246094 163.984375 160.246094 C 164.453125 160.246094 164.84375 160.558594 164.84375 161.027344 Z M 208.984375 163.214844 C 208.75 163.449219 208.125 163.214844 207.578125 162.667969 C 206.875 161.886719 206.953125 161.808594 208.046875 162.277344 C 208.828125 162.511719 209.21875 162.980469 208.984375 163.214844 Z M 163.28125 163.371094 C 163.28125 163.761719 162.890625 164.152344 162.421875 164.152344 C 162.03125 164.152344 161.875 163.761719 162.109375 163.371094 C 162.34375 162.902344 162.734375 162.589844 162.96875 162.589844 C 163.125 162.589844 163.28125 162.902344 163.28125 163.371094 Z M 206.015625 165.246094 L 207.734375 167.203125 L 206.015625 168.453125 C 205.078125 169.15625 204.6875 169.46875 205.234375 169.234375 C 206.484375 168.6875 207.1875 170.015625 207.34375 173.140625 C 207.421875 175.722656 207.421875 175.722656 205.9375 174.472656 C 204.765625 173.453125 204.609375 173.453125 205.078125 174.316406 C 205.703125 175.332031 205.546875 175.332031 204.53125 174.472656 C 203.125 173.296875 203.515625 170.875 205 171.734375 C 205.46875 171.96875 205.078125 171.421875 204.140625 170.484375 C 201.953125 168.453125 201.875 167.59375 203.75 166.574219 C 204.921875 165.871094 204.921875 165.792969 203.828125 165.714844 C 203.125 165.714844 202.34375 165.167969 202.03125 164.542969 C 201.328125 162.589844 204.21875 163.136719 206.015625 165.246094 Z M 182.03125 175.878906 C 182.03125 176.269531 181.875 176.660156 181.71875 176.660156 C 181.484375 176.660156 181.09375 176.269531 180.859375 175.878906 C 180.625 175.410156 180.78125 175.097656 181.171875 175.097656 C 181.640625 175.097656 182.03125 175.410156 182.03125 175.878906 Z M 237.5 182.523438 C 237.5 183.148438 236.953125 183.695312 236.328125 183.695312 C 235.390625 183.695312 235.15625 184.710938 235.15625 188.074219 L 235.15625 192.449219 L 232.65625 191.902344 C 231.25 191.589844 230 191.277344 229.921875 191.199219 C 229.6875 190.964844 229.53125 188.542969 229.609375 185.570312 C 229.6875 182.523438 229.765625 182.445312 231.953125 182.757812 C 233.203125 182.914062 234.453125 182.679688 234.6875 182.210938 C 235.46875 180.960938 237.5 181.195312 237.5 182.523438 Z M 110.9375 184.085938 C 113.515625 185.179688 116.40625 186.039062 117.5 186.039062 C 121.328125 186.039062 123.828125 188.308594 120.15625 188.464844 C 118.515625 188.542969 118.59375 188.621094 120.625 189.558594 L 122.96875 190.574219 L 120.46875 191.121094 C 119.0625 191.355469 117.96875 192.058594 117.96875 192.683594 C 117.96875 193.230469 117.109375 193.933594 116.015625 194.167969 C 113.671875 194.792969 107.65625 193.933594 108.203125 192.996094 C 108.4375 192.683594 108.203125 192.136719 107.8125 191.902344 C 107.265625 191.511719 107.421875 190.964844 108.359375 190.261719 C 109.6875 189.324219 109.609375 189.246094 107.65625 189.167969 C 105.390625 189.167969 104.6875 188.074219 106.484375 187.367188 C 107.03125 187.132812 106.875 186.898438 106.09375 186.898438 C 105.078125 186.820312 104.6875 186.195312 104.6875 184.476562 C 104.6875 181.664062 105.078125 181.585938 110.9375 184.085938 Z M 192.1875 183.304688 C 192.1875 183.929688 192.03125 184.476562 191.875 184.476562 C 191.71875 184.476562 191.40625 183.929688 191.09375 183.304688 C 190.859375 182.679688 191.015625 182.132812 191.40625 182.132812 C 191.875 182.132812 192.1875 182.679688 192.1875 183.304688 Z M 185.46875 188.230469 C 189.765625 191.667969 189.921875 191.902344 187.96875 192.136719 C 186.875 192.292969 185.9375 192.839844 185.9375 193.464844 C 185.9375 194.011719 186.5625 194.402344 187.34375 194.246094 C 188.046875 194.167969 188.203125 194.246094 187.734375 194.402344 C 187.1875 194.636719 186.71875 195.109375 186.71875 195.5 C 186.71875 195.96875 186.40625 196.046875 185.9375 195.8125 C 185.546875 195.578125 185.15625 194.480469 185.15625 193.386719 C 185.15625 191.824219 184.765625 191.511719 182.96875 191.511719 C 180.9375 191.511719 180.78125 191.746094 181.09375 193.855469 C 181.328125 195.265625 181.09375 196.203125 180.546875 196.203125 C 180.078125 196.203125 179.6875 195.890625 179.6875 195.5 C 179.6875 195.109375 179.21875 194.792969 178.75 194.871094 C 176.171875 194.949219 174.921875 194.558594 175.390625 193.855469 C 176.25 192.527344 174.21875 192.996094 172.5 194.636719 C 171.015625 195.96875 169.6875 202.222656 169.453125 208.863281 C 169.453125 209.648438 169.140625 210.273438 168.75 210.273438 C 168.4375 210.273438 168.28125 206.753906 168.515625 202.535156 L 168.828125 194.714844 L 166.484375 193.542969 C 163.75 192.058594 161.25 191.902344 160.46875 193.152344 C 160.15625 193.777344 159.765625 193.699219 159.296875 192.996094 C 158.828125 192.214844 158.59375 192.136719 158.59375 192.839844 C 158.59375 193.386719 158.28125 193.855469 157.8125 193.855469 C 157.421875 193.855469 157.03125 193.230469 157.03125 192.527344 C 157.03125 191.511719 156.796875 191.433594 156.09375 192.136719 C 154.84375 193.386719 153.671875 193.308594 154.375 192.058594 C 154.84375 191.355469 154.6875 191.355469 153.75 192.136719 C 152.734375 192.917969 152.5 192.839844 152.109375 191.589844 C 151.875 190.574219 152.1875 189.949219 153.203125 189.714844 C 154.0625 189.480469 154.6875 189.636719 154.6875 189.949219 C 154.6875 190.964844 171.484375 190.183594 173.59375 189.089844 C 174.609375 188.621094 176.09375 187.367188 176.875 186.351562 C 177.734375 185.335938 178.984375 184.476562 179.609375 184.476562 C 180.3125 184.476562 182.890625 186.117188 185.46875 188.230469 Z M 190.234375 185.257812 C 190.46875 185.648438 190.390625 186.039062 189.921875 186.039062 C 189.53125 186.039062 188.90625 185.648438 188.671875 185.257812 C 188.4375 184.789062 188.515625 184.476562 188.984375 184.476562 C 189.375 184.476562 190 184.789062 190.234375 185.257812 Z M 132.5 186.273438 C 132.8125 186.585938 132.03125 186.898438 130.78125 186.976562 C 129.53125 186.976562 128.046875 187.132812 127.421875 187.132812 C 126.796875 187.210938 126.171875 187.679688 125.9375 188.230469 C 125.625 189.324219 126.171875 189.402344 128.046875 188.464844 C 129.921875 187.367188 129.921875 189.402344 127.96875 190.652344 C 127.109375 191.199219 126.5625 191.199219 126.5625 190.730469 C 126.5625 190.339844 126.015625 189.949219 125.390625 189.949219 C 124.765625 189.949219 124.21875 189.402344 124.21875 188.777344 C 124.21875 188.152344 124.609375 187.601562 125.078125 187.601562 C 125.46875 187.601562 125.703125 187.289062 125.390625 186.898438 C 124.609375 185.570312 131.25 185.023438 132.5 186.273438 Z M 187.890625 187.445312 C 187.65625 187.679688 187.03125 187.445312 186.484375 186.898438 C 185.78125 186.117188 185.859375 186.039062 186.953125 186.507812 C 187.734375 186.742188 188.125 187.210938 187.890625 187.445312 Z M 136.71875 187.601562 C 136.71875 187.996094 136.40625 188.386719 135.9375 188.386719 C 135.546875 188.386719 135.15625 187.996094 135.15625 187.601562 C 135.15625 187.132812 135.546875 186.820312 135.9375 186.820312 C 136.40625 186.820312 136.71875 187.132812 136.71875 187.601562 Z M 199.296875 188.933594 C 200.3125 190.183594 200.234375 190.261719 199.0625 189.246094 C 198.28125 188.699219 197.65625 188.074219 197.65625 187.914062 C 197.65625 187.289062 198.28125 187.679688 199.296875 188.933594 Z M 98.671875 188.855469 C 99.53125 189.714844 98.4375 190.730469 97.265625 190.261719 C 96.640625 189.949219 96.328125 189.480469 96.5625 189.089844 C 97.03125 188.230469 97.96875 188.152344 98.671875 188.855469 Z M 190.625 189.167969 C 190.625 189.558594 190.46875 189.949219 190.3125 189.949219 C 190.078125 189.949219 189.6875 189.558594 189.453125 189.167969 C 189.21875 188.699219 189.375 188.386719 189.765625 188.386719 C 190.234375 188.386719 190.625 188.699219 190.625 189.167969 Z M 193.59375 189.949219 C 192.65625 191.433594 191.40625 192.058594 191.40625 191.042969 C 191.40625 190.574219 193.75 188.464844 194.375 188.386719 C 194.453125 188.386719 194.140625 189.089844 193.59375 189.949219 Z M 94.296875 191.121094 C 94.296875 191.746094 93.984375 192.292969 93.671875 192.292969 C 92.8125 192.292969 92.109375 191.042969 92.734375 190.417969 C 93.59375 189.558594 94.296875 189.871094 94.296875 191.121094 Z M 206.5625 190.574219 C 206.796875 190.964844 206.484375 191.277344 205.859375 191.277344 C 205.234375 191.277344 204.921875 190.964844 205.15625 190.574219 C 205.390625 190.261719 205.703125 189.949219 205.859375 189.949219 C 206.015625 189.949219 206.328125 190.261719 206.5625 190.574219 Z M 96.875 192.292969 C 96.875 192.683594 96.484375 193.074219 96.015625 193.074219 C 95.625 193.074219 95.46875 192.683594 95.703125 192.292969 C 95.9375 191.824219 96.328125 191.511719 96.5625 191.511719 C 96.71875 191.511719 96.875 191.824219 96.875 192.292969 Z M 137.1875 195.027344 C 137.421875 197.21875 137.1875 197.765625 136.015625 197.765625 C 134.921875 197.765625 134.609375 197.375 134.921875 196.28125 C 135.15625 195.5 134.921875 194.558594 134.453125 194.324219 C 133.125 193.464844 133.4375 192.058594 134.765625 192.605469 C 135.390625 192.839844 135.9375 192.605469 135.9375 192.136719 C 135.9375 190.105469 137.03125 192.527344 137.1875 195.027344 Z M 202.578125 194.402344 C 202.96875 194.949219 203.515625 195.265625 203.90625 195.027344 C 204.609375 194.558594 205.859375 198.234375 206.5625 202.769531 C 206.796875 204.566406 206.71875 205.503906 206.25 205.113281 C 205.9375 204.722656 205.46875 203.394531 205.3125 202.140625 C 205.15625 200.890625 204.6875 199.71875 204.21875 199.5625 C 203.203125 199.25 203.28125 205.269531 204.375 206.363281 C 205.46875 207.457031 204.765625 211.210938 203.59375 210.820312 C 203.125 210.664062 202.65625 209.804688 202.5 208.863281 C 202.34375 207.925781 201.796875 207.144531 201.328125 207.144531 C 200.78125 207.144531 200.859375 206.753906 201.5625 206.285156 C 202.34375 205.738281 202.421875 205.347656 201.875 205.113281 C 201.25 204.878906 201.171875 203.863281 201.5625 202.0625 C 202.109375 199.640625 202.03125 199.328125 200.46875 199.25 C 199.21875 199.171875 199.140625 199.09375 200.234375 198.78125 C 200.9375 198.625 201.5625 197.921875 201.5625 197.296875 C 201.5625 196.671875 201.953125 196.203125 202.34375 196.203125 C 202.8125 196.203125 203.125 196.59375 203.125 197.0625 C 203.125 197.453125 203.515625 197.609375 203.984375 197.296875 C 204.453125 196.984375 203.4375 195.8125 201.40625 194.480469 C 199.0625 192.839844 198.59375 192.371094 200 192.761719 C 201.09375 192.996094 202.265625 193.777344 202.578125 194.402344 Z M 207.03125 193.855469 C 207.03125 194.246094 206.875 194.636719 206.71875 194.636719 C 206.484375 194.636719 206.09375 194.246094 205.859375 193.855469 C 205.625 193.386719 205.78125 193.074219 206.171875 193.074219 C 206.640625 193.074219 207.03125 193.386719 207.03125 193.855469 Z M 192.96875 195.890625 C 192.96875 196.984375 192.65625 197.6875 192.265625 197.453125 C 191.875 197.21875 191.71875 196.28125 191.953125 195.421875 C 192.5 193.230469 192.96875 193.464844 192.96875 195.890625 Z M 159.609375 195.1875 C 159.765625 195.578125 159.609375 196.828125 159.296875 198.15625 L 158.75 200.5 L 158.671875 198.3125 C 158.671875 197.0625 158.28125 196.28125 157.8125 196.59375 C 157.421875 196.828125 157.03125 196.75 157.03125 196.359375 C 157.03125 194.871094 158.984375 194.011719 159.609375 195.1875 Z M 225 195.8125 C 225 196.4375 224.453125 196.984375 223.75 196.984375 C 222.65625 196.984375 222.65625 196.75 223.4375 195.8125 C 223.984375 195.1875 224.53125 194.636719 224.6875 194.636719 C 224.84375 194.636719 225 195.1875 225 195.8125 Z M 230 195.34375 C 230.234375 195.734375 229.6875 196.203125 228.828125 196.4375 C 227.65625 196.75 227.265625 197.296875 227.578125 198.078125 C 228.125 199.484375 226.953125 199.796875 226.171875 198.46875 C 225.859375 198.078125 226.25 196.984375 227.03125 196.125 C 228.515625 194.480469 229.375 194.246094 230 195.34375 Z M 121.875 195.734375 C 121.875 196.59375 120.390625 196.90625 119.921875 196.203125 C 119.6875 195.8125 120 195.421875 120.625 195.421875 C 121.328125 195.421875 121.875 195.578125 121.875 195.734375 Z M 132.03125 197.453125 C 132.03125 198.546875 131.640625 199.328125 131.171875 199.171875 C 130.703125 199.015625 130.390625 198.625 130.390625 198.3125 C 130.46875 198 130.46875 197.21875 130.46875 196.59375 C 130.46875 195.96875 130.859375 195.421875 131.25 195.421875 C 131.71875 195.421875 132.03125 196.359375 132.03125 197.453125 Z M 195.703125 196.203125 C 195.9375 196.59375 195.625 196.984375 194.921875 196.984375 C 194.21875 196.984375 193.90625 196.59375 194.140625 196.203125 C 194.375 195.734375 194.765625 195.421875 194.921875 195.421875 C 195.078125 195.421875 195.46875 195.734375 195.703125 196.203125 Z M 146.875 196.984375 C 146.875 197.375 146.484375 197.765625 146.015625 197.765625 C 145.625 197.765625 145.46875 197.375 145.703125 196.984375 C 145.9375 196.515625 146.328125 196.203125 146.5625 196.203125 C 146.71875 196.203125 146.875 196.515625 146.875 196.984375 Z M 177.890625 199.484375 C 177.65625 200.109375 177.421875 199.875 177.421875 199.015625 C 177.34375 198.15625 177.578125 197.6875 177.8125 198 C 178.046875 198.234375 178.125 198.9375 177.890625 199.484375 Z M 196.09375 198.625 C 196.09375 199.015625 195.78125 199.328125 195.390625 199.328125 C 195 199.328125 194.765625 200.578125 194.921875 202.0625 C 195 203.550781 194.84375 204.566406 194.53125 204.410156 C 194.21875 204.175781 193.671875 204.800781 193.359375 205.816406 C 192.8125 207.457031 192.8125 207.457031 192.421875 205.972656 C 192.1875 205.191406 192.421875 204.332031 192.890625 204.175781 C 193.359375 204.019531 193.75 202.769531 193.75 201.4375 C 193.75 199.484375 192.890625 198.625 192.8125 200.65625 C 192.8125 201.75 191.40625 204.019531 190.703125 204.019531 C 190.078125 204.019531 188.984375 199.328125 189.453125 198.546875 C 189.84375 197.84375 196.09375 197.921875 196.09375 198.625 Z M 129.296875 200.03125 C 129.53125 200.421875 129.375 200.96875 128.90625 201.28125 C 128.515625 201.515625 128.125 201.203125 128.125 200.578125 C 128.125 199.171875 128.59375 198.9375 129.296875 200.03125 Z M 131.71875 203.003906 C 130.859375 203.863281 130.390625 202.691406 131.015625 201.203125 C 131.5625 199.796875 131.640625 199.796875 131.875 201.125 C 132.03125 201.90625 131.953125 202.769531 131.71875 203.003906 Z M 158.59375 202.457031 C 158.59375 203.316406 158.28125 204.019531 157.890625 204.019531 C 157.5 204.019531 157.34375 203.316406 157.578125 202.457031 C 157.8125 201.59375 158.125 200.890625 158.28125 200.890625 C 158.4375 200.890625 158.59375 201.59375 158.59375 202.457031 Z M 235.15625 206.128906 C 235.15625 209.960938 234.921875 211.132812 234.375 210.273438 C 233.671875 209.253906 233.4375 209.335938 232.421875 210.585938 C 231.25 212.070312 231.5625 213.789062 232.8125 213.007812 C 233.203125 212.773438 233.28125 211.992188 233.046875 211.289062 C 232.578125 210.117188 232.65625 210.039062 233.75 211.054688 C 234.765625 212.070312 234.84375 212.304688 233.90625 212.851562 C 233.359375 213.164062 232.578125 213.398438 232.34375 213.398438 C 232.03125 213.320312 231.5625 213.632812 231.25 214.179688 C 230.9375 214.648438 230.703125 213.632812 230.625 211.835938 C 230.546875 209.804688 230.78125 208.707031 231.484375 208.707031 C 232.109375 208.707031 232.109375 208.472656 231.328125 208.003906 C 230.703125 207.613281 230.46875 206.753906 230.703125 205.972656 C 231.015625 205.269531 230.9375 204.878906 230.46875 205.191406 C 230 205.503906 229.765625 204.957031 229.921875 203.863281 C 230.078125 202.847656 230.859375 201.90625 231.640625 201.828125 C 232.578125 201.59375 232.8125 201.828125 232.421875 202.613281 C 232.109375 203.160156 232.5 203.003906 233.28125 202.222656 C 234.0625 201.515625 234.84375 200.890625 234.921875 200.890625 C 235.078125 200.890625 235.15625 203.238281 235.15625 206.128906 Z M 225.78125 204.019531 C 225.78125 204.878906 225.625 205.582031 225.46875 205.582031 C 225.3125 205.582031 225 204.878906 224.765625 204.019531 C 224.53125 203.160156 224.6875 202.457031 225.078125 202.457031 C 225.46875 202.457031 225.78125 203.160156 225.78125 204.019531 Z M 134.765625 205.582031 C 135 206.050781 134.6875 206.597656 133.984375 206.832031 C 132.5 207.457031 131.640625 206.832031 132.421875 205.660156 C 133.046875 204.566406 134.140625 204.566406 134.765625 205.582031 Z M 210.546875 205.503906 C 210.78125 205.894531 210.625 206.441406 210.15625 206.753906 C 209.765625 206.988281 209.375 206.675781 209.375 206.050781 C 209.375 204.644531 209.84375 204.410156 210.546875 205.503906 Z M 156.328125 207.769531 C 155.234375 209.726562 155.15625 213.242188 156.171875 212.226562 C 156.5625 211.757812 157.03125 210.585938 157.265625 209.492188 C 157.5 208.238281 157.65625 208.707031 157.734375 210.820312 C 157.734375 212.695312 157.5 214.179688 157.109375 214.179688 C 156.328125 214.179688 153.90625 211.992188 153.90625 211.289062 C 153.90625 210.351562 156.484375 205.582031 156.796875 205.894531 C 157.03125 206.050781 156.796875 206.910156 156.328125 207.769531 Z M 194.6875 211.054688 C 196.015625 211.054688 196.09375 211.289062 195.3125 212.226562 C 194.53125 213.164062 194.609375 213.398438 195.78125 213.398438 C 197.1875 213.476562 197.1875 213.476562 195.703125 214.648438 C 194.84375 215.273438 193.359375 215.664062 192.421875 215.507812 C 191.40625 215.351562 190.625 215.507812 190.625 215.820312 C 190.625 216.761719 188.515625 216.683594 187.890625 215.742188 C 187.34375 214.882812 188.90625 208.863281 190.078125 207.300781 C 190.703125 206.519531 191.171875 206.910156 192.03125 208.707031 C 192.734375 210.117188 193.75 211.054688 194.6875 211.054688 Z M 225.78125 207.535156 C 225.78125 208.160156 225.625 208.707031 225.46875 208.707031 C 225.3125 208.707031 225 208.160156 224.6875 207.535156 C 224.453125 206.910156 224.609375 206.363281 225 206.363281 C 225.46875 206.363281 225.78125 206.910156 225.78125 207.535156 Z M 148.4375 207.925781 C 148.4375 208.316406 148.125 208.707031 147.65625 208.707031 C 147.265625 208.707031 146.875 208.316406 146.875 207.925781 C 146.875 207.457031 147.265625 207.144531 147.65625 207.144531 C 148.125 207.144531 148.4375 207.457031 148.4375 207.925781 Z M 136.328125 208.707031 C 136.5625 209.097656 136.40625 209.492188 136.015625 209.492188 C 135.546875 209.492188 135.15625 209.097656 135.15625 208.707031 C 135.15625 208.238281 135.3125 207.925781 135.46875 207.925781 C 135.703125 207.925781 136.09375 208.238281 136.328125 208.707031 Z M 178.4375 208.785156 C 178.203125 209.253906 178.4375 210.039062 178.984375 210.429688 C 179.84375 211.054688 179.765625 211.132812 178.75 210.742188 C 177.734375 210.429688 177.34375 210.742188 177.34375 211.835938 C 177.34375 212.695312 177.03125 213.398438 176.5625 213.398438 C 175.625 213.398438 175.625 213.398438 176.640625 210.351562 C 177.109375 209.019531 177.8125 207.925781 178.28125 207.925781 C 178.671875 207.925781 178.75 208.316406 178.4375 208.785156 Z M 123.4375 211.992188 C 123.4375 212.773438 121.171875 213.789062 120.625 213.164062 C 120.390625 213.007812 120.46875 211.835938 120.78125 210.664062 C 121.328125 208.628906 121.40625 208.550781 122.34375 209.882812 C 122.96875 210.742188 123.4375 211.679688 123.4375 211.992188 Z M 195.703125 209.492188 C 195.9375 209.882812 195.78125 210.273438 195.390625 210.273438 C 194.921875 210.273438 194.53125 209.882812 194.53125 209.492188 C 194.53125 209.019531 194.6875 208.707031 194.84375 208.707031 C 195.078125 208.707031 195.46875 209.019531 195.703125 209.492188 Z M 207.578125 211.054688 C 207.1875 213.710938 206.25 213.789062 206.25 211.132812 C 206.25 209.648438 206.5625 208.785156 207.03125 209.097656 C 207.421875 209.335938 207.65625 210.273438 207.578125 211.054688 Z M 214.0625 209.492188 C 214.0625 209.882812 213.671875 210.273438 213.203125 210.273438 C 212.8125 210.273438 212.65625 209.882812 212.890625 209.492188 C 213.125 209.019531 213.515625 208.707031 213.75 208.707031 C 213.90625 208.707031 214.0625 209.019531 214.0625 209.492188 Z M 100 211.914062 C 100 213.242188 99.6875 214.101562 99.21875 213.789062 C 98.828125 213.554688 98.4375 212.460938 98.4375 211.367188 C 98.4375 210.351562 98.828125 209.492188 99.21875 209.492188 C 99.6875 209.492188 100 210.585938 100 211.914062 Z M 148.4375 210.429688 C 148.359375 213.320312 147.34375 214.960938 145.625 214.960938 C 144.21875 214.960938 143.75 214.570312 143.75 213.242188 C 143.75 211.914062 143.984375 211.757812 144.6875 212.460938 C 145.9375 213.710938 146.953125 213.632812 146.796875 212.382812 C 146.5625 210.585938 146.875 209.492188 147.65625 209.492188 C 148.125 209.492188 148.4375 209.960938 148.4375 210.429688 Z M 204.609375 213.476562 C 203.359375 214.257812 202.8125 213.789062 203.515625 212.695312 C 203.75 212.226562 204.375 212.070312 204.84375 212.304688 C 205.3125 212.617188 205.234375 213.007812 204.609375 213.476562 Z M 98.4375 214.179688 C 98.4375 214.570312 98.125 214.960938 97.65625 214.960938 C 97.265625 214.960938 96.875 214.570312 96.875 214.179688 C 96.875 213.710938 97.265625 213.398438 97.65625 213.398438 C 98.125 213.398438 98.4375 213.710938 98.4375 214.179688 Z M 179.296875 214.882812 C 178.671875 215.976562 177.34375 215.976562 177.34375 214.882812 C 177.34375 214.492188 177.734375 214.335938 178.125 214.570312 C 178.59375 214.804688 178.90625 214.648438 178.90625 214.101562 C 178.90625 213.554688 179.140625 213.320312 179.375 213.632812 C 179.609375 213.867188 179.609375 214.414062 179.296875 214.882812 Z M 235.15625 215.117188 C 235.15625 216.605469 235 216.683594 234.375 215.742188 C 233.359375 214.257812 233.359375 213.398438 234.375 213.398438 C 234.84375 213.398438 235.15625 214.179688 235.15625 215.117188 Z M 145.9375 216.289062 C 145.15625 216.449219 143.90625 216.449219 143.203125 216.289062 C 142.421875 216.054688 143.046875 215.898438 144.53125 215.898438 C 146.015625 215.898438 146.640625 216.054688 145.9375 216.289062 Z M 232.03125 218.324219 C 232.03125 218.714844 231.71875 218.714844 231.25 218.480469 C 230.859375 218.246094 230.46875 217.386719 230.46875 216.683594 C 230.46875 215.507812 230.625 215.507812 231.25 216.527344 C 231.640625 217.152344 232.03125 218.011719 232.03125 218.324219 Z M 138.28125 216.839844 C 138.28125 217.074219 137.96875 217.464844 137.5 217.699219 C 137.109375 217.933594 136.71875 217.777344 136.71875 217.386719 C 136.71875 216.917969 137.109375 216.527344 137.5 216.527344 C 137.96875 216.527344 138.28125 216.683594 138.28125 216.839844 Z M 140.9375 220.824219 C 141.171875 221.449219 141.015625 221.996094 140.625 221.996094 C 140.15625 221.996094 139.84375 221.449219 139.84375 220.824219 C 139.84375 220.199219 140 219.652344 140.15625 219.652344 C 140.3125 219.652344 140.625 220.199219 140.9375 220.824219 Z M 242.1875 220.433594 C 242.1875 220.824219 242.03125 221.214844 241.875 221.214844 C 241.640625 221.214844 241.25 220.824219 241.015625 220.433594 C 240.78125 219.964844 240.9375 219.652344 241.328125 219.652344 C 241.796875 219.652344 242.1875 219.964844 242.1875 220.433594 Z M 156.640625 222.777344 C 156.875 223.167969 156.5625 223.5625 155.9375 223.5625 C 155.234375 223.5625 154.6875 223.167969 154.6875 222.777344 C 154.6875 222.308594 155 221.996094 155.390625 221.996094 C 155.859375 221.996094 156.40625 222.308594 156.640625 222.777344 Z M 194.375 222.933594 C 195.625 224.1875 195.546875 225.125 194.140625 225.125 C 193.515625 225.125 192.96875 224.96875 192.96875 224.8125 C 192.96875 224.65625 192.734375 223.953125 192.5 223.246094 C 191.953125 221.761719 193.046875 221.605469 194.375 222.933594 Z M 175.78125 223.875 C 175.78125 225.75 174.53125 225.984375 173.046875 224.34375 C 171.640625 222.855469 171.71875 222.777344 173.671875 222.777344 C 175 222.777344 175.78125 223.167969 175.78125 223.875 Z M 138.28125 224.34375 C 138.28125 225.359375 137.421875 225.359375 135.9375 224.34375 C 135 223.71875 135.078125 223.5625 136.5625 223.5625 C 137.5 223.5625 138.28125 223.875 138.28125 224.34375 Z M 144.453125 224.34375 C 142.03125 225.59375 139.0625 225.90625 139.0625 224.96875 C 139.0625 224.265625 140.234375 223.875 142.34375 223.875 C 144.140625 223.796875 145.078125 224.03125 144.453125 224.34375 Z M 165.625 224.734375 C 166.171875 225.359375 166.25 225.90625 165.78125 225.90625 C 165.390625 225.90625 164.609375 225.359375 164.0625 224.734375 C 163.515625 224.109375 163.4375 223.5625 163.90625 223.5625 C 164.296875 223.5625 165.078125 224.109375 165.625 224.734375 Z M 248.4375 224.34375 C 248.4375 224.734375 248.28125 225.125 248.125 225.125 C 247.890625 225.125 247.5 224.734375 247.265625 224.34375 C 247.03125 223.875 247.1875 223.5625 247.578125 223.5625 C 248.046875 223.5625 248.4375 223.875 248.4375 224.34375 Z M 248.4375 224.34375 "/>
<path style=" stroke:none;fill-rule:nonzero;fill:rgb(0%,0%,0%);fill-opacity:1;" d="M 175.78125 191.511719 C 176.40625 191.902344 177.5 192.214844 178.125 192.214844 C 178.90625 192.214844 178.75 191.980469 177.734375 191.511719 C 175.625 190.574219 174.375 190.574219 175.78125 191.511719 Z M 175.78125 191.511719 "/>
<path style=" stroke:none;fill-rule:nonzero;fill:rgb(0%,0%,0%);fill-opacity:1;" d="M 190.625 213.398438 C 190.625 213.789062 191.171875 214.179688 191.875 214.179688 C 192.5 214.179688 192.8125 213.789062 192.578125 213.398438 C 192.34375 212.929688 191.796875 212.617188 191.328125 212.617188 C 190.9375 212.617188 190.625 212.929688 190.625 213.398438 Z M 190.625 213.398438 "/>
<path style=" stroke:none;fill-rule:nonzero;fill:rgb(0%,0%,0%);fill-opacity:1;" d="M 25.078125 121.628906 C 25.078125 122.488281 25.3125 122.722656 25.546875 122.097656 C 25.78125 121.550781 25.703125 120.847656 25.46875 120.613281 C 25.234375 120.300781 25 120.769531 25.078125 121.628906 Z M 25.078125 121.628906 "/>
<path style=" stroke:none;fill-rule:nonzero;fill:rgb(0%,0%,0%);fill-opacity:1;" d="M 154.84375 121.941406 C 154.6875 125.460938 158.125 128.117188 160.546875 126.320312 C 161.71875 125.460938 161.71875 125.304688 160.234375 123.972656 C 159.0625 122.878906 158.359375 122.800781 157.109375 123.425781 C 155.78125 124.210938 155.546875 124.050781 155.234375 122.097656 C 154.921875 120.066406 154.921875 120.066406 154.84375 121.941406 Z M 154.84375 121.941406 "/>
<path style=" stroke:none;fill-rule:nonzero;fill:rgb(0%,0%,0%);fill-opacity:1;" d="M 165.15625 121.160156 C 162.65625 122.175781 162.265625 123.347656 163.984375 124.289062 C 165.234375 124.914062 165.78125 124.757812 166.71875 123.347656 C 168.75 120.457031 168.359375 119.832031 165.15625 121.160156 Z M 165.15625 121.160156 "/>
<path style=" stroke:none;fill-rule:nonzero;fill:rgb(0%,0%,0%);fill-opacity:1;" d="M 44.6875 124.914062 C 42.734375 128.820312 42.734375 128.976562 44.453125 128.976562 C 45.390625 128.976562 46.09375 128.585938 46.09375 128.195312 C 46.09375 126.789062 47.8125 127.414062 48.203125 128.898438 C 48.4375 129.757812 49.0625 130.617188 49.6875 130.851562 C 50.546875 131.164062 50.78125 130.460938 50.78125 127.726562 C 50.78125 124.445312 50.625 124.128906 49.140625 124.523438 C 48.203125 124.757812 47.421875 124.523438 47.109375 123.816406 C 46.484375 122.175781 45.859375 122.488281 44.6875 124.914062 Z M 44.6875 124.914062 "/>
<path style=" stroke:none;fill-rule:nonzero;fill:rgb(0%,0%,0%);fill-opacity:1;" d="M 25.15625 125.070312 C 25.15625 126.164062 25.3125 126.554688 25.546875 126.007812 C 25.703125 125.539062 25.703125 124.601562 25.546875 124.050781 C 25.3125 123.582031 25.15625 123.972656 25.15625 125.070312 Z M 25.15625 125.070312 "/>
<path style=" stroke:none;fill-rule:nonzero;fill:rgb(0%,0%,0%);fill-opacity:1;" d="M 58.984375 127.335938 C 58.75 127.726562 58.90625 128.273438 59.375 128.585938 C 59.765625 128.820312 60.15625 128.507812 60.15625 127.882812 C 60.15625 126.476562 59.6875 126.242188 58.984375 127.335938 Z M 58.984375 127.335938 "/>
<path style=" stroke:none;fill-rule:nonzero;fill:rgb(0%,0%,0%);fill-opacity:1;" d="M 52.34375 129.289062 C 52.34375 130.851562 52.8125 131.246094 55.3125 131.558594 C 56.875 131.714844 58.515625 131.558594 58.984375 131.246094 C 59.375 130.773438 59.140625 130.539062 58.359375 130.539062 C 57.578125 130.539062 56.40625 129.835938 55.703125 128.976562 C 53.90625 126.867188 52.34375 127.023438 52.34375 129.289062 Z M 52.34375 129.289062 "/>
<path style=" stroke:none;fill-rule:nonzero;fill:rgb(0%,0%,0%);fill-opacity:1;" d="M 24.6875 131.480469 C 24.140625 134.292969 24.53125 134.996094 26.015625 133.824219 C 26.796875 133.121094 27.5 133.199219 28.75 134.136719 C 30.703125 135.464844 30.9375 135.152344 29.53125 132.886719 C 28.671875 131.558594 28.75 131.164062 29.6875 130.460938 C 30.625 129.835938 30.546875 129.757812 29.296875 129.992188 C 28.4375 130.148438 27.8125 130.695312 27.96875 131.164062 C 28.046875 131.714844 27.578125 132.105469 26.953125 132.105469 C 26.328125 132.105469 26.015625 131.636719 26.25 131.007812 C 26.484375 130.382812 26.328125 129.679688 25.9375 129.445312 C 25.546875 129.210938 25 130.070312 24.6875 131.480469 Z M 24.6875 131.480469 "/>
<path style=" stroke:none;fill-rule:nonzero;fill:rgb(0%,0%,0%);fill-opacity:1;" d="M 33.984375 131.324219 C 34.21875 131.714844 35.234375 132.105469 36.171875 132.027344 C 37.8125 132.027344 37.8125 131.949219 36.328125 131.324219 C 34.140625 130.382812 33.4375 130.382812 33.984375 131.324219 Z M 33.984375 131.324219 "/>
<path style=" stroke:none;fill-rule:nonzero;fill:rgb(0%,0%,0%);fill-opacity:1;" d="M 32.578125 133.199219 C 31.640625 135.542969 31.953125 136.871094 33.4375 136.636719 C 34.21875 136.480469 34.6875 136.792969 34.53125 137.417969 C 34.453125 138.042969 34.6875 138.277344 35.15625 137.964844 C 36.328125 137.183594 36.09375 133.667969 34.84375 133.667969 C 34.21875 133.667969 33.59375 133.277344 33.4375 132.730469 C 33.203125 132.183594 32.890625 132.339844 32.578125 133.199219 Z M 32.578125 133.199219 "/>
<path style=" stroke:none;fill-rule:nonzero;fill:rgb(0%,0%,0%);fill-opacity:1;" d="M 38.4375 133.824219 C 37.890625 134.371094 37.5 135.621094 37.5 136.714844 C 37.578125 138.671875 37.578125 138.671875 38.671875 137.261719 C 39.21875 136.480469 40.078125 136.089844 40.546875 136.402344 C 41.015625 136.636719 41.40625 136.480469 41.40625 136.089844 C 41.40625 135.621094 40.859375 135.230469 40.15625 135.230469 C 39.375 135.230469 39.0625 134.761719 39.375 134.058594 C 39.921875 132.652344 39.6875 132.574219 38.4375 133.824219 Z M 38.4375 133.824219 "/>
<path style=" stroke:none;fill-rule:nonzero;fill:rgb(0%,0%,0%);fill-opacity:1;" d="M 51.953125 134.449219 C 51.71875 134.839844 51.875 135.230469 52.265625 135.230469 C 52.734375 135.230469 53.125 134.839844 53.125 134.449219 C 53.125 133.980469 52.96875 133.667969 52.8125 133.667969 C 52.578125 133.667969 52.1875 133.980469 51.953125 134.449219 Z M 51.953125 134.449219 "/>
<path style=" stroke:none;fill-rule:nonzero;fill:rgb(0%,0%,0%);fill-opacity:1;" d="M 55 134.527344 C 54.84375 134.839844 55.234375 135.230469 55.859375 135.542969 C 56.484375 135.777344 57.03125 135.621094 57.03125 135.152344 C 57.03125 134.683594 57.578125 134.527344 58.28125 134.761719 C 58.90625 134.996094 59.21875 134.917969 58.984375 134.527344 C 58.515625 133.667969 55.546875 133.746094 55 134.527344 Z M 55 134.527344 "/>
<path style=" stroke:none;fill-rule:nonzero;fill:rgb(0%,0%,0%);fill-opacity:1;" d="M 27.34375 135.621094 C 27.34375 136.246094 27.734375 136.792969 28.125 136.792969 C 28.59375 136.792969 28.90625 136.246094 28.90625 135.621094 C 28.90625 134.996094 28.59375 134.449219 28.125 134.449219 C 27.734375 134.449219 27.34375 134.996094 27.34375 135.621094 Z M 27.34375 135.621094 "/>
<path style=" stroke:none;fill-rule:nonzero;fill:rgb(0%,0%,0%);fill-opacity:1;" d="M 42.65625 136.480469 C 42.265625 137.574219 42.34375 137.652344 43.359375 136.792969 C 44.6875 135.699219 44.84375 135.230469 43.828125 135.230469 C 43.4375 135.230469 42.890625 135.777344 42.65625 136.480469 Z M 42.65625 136.480469 "/>
<path style=" stroke:none;fill-rule:nonzero;fill:rgb(0%,0%,0%);fill-opacity:1;" d="M 90.625 135.621094 C 90.625 136.402344 93.984375 143.125 94.21875 142.890625 C 94.609375 142.421875 91.796875 135.230469 91.25 135.230469 C 90.859375 135.230469 90.625 135.386719 90.625 135.621094 Z M 90.625 135.621094 "/>
<path style=" stroke:none;fill-rule:nonzero;fill:rgb(0%,0%,0%);fill-opacity:1;" d="M 24.21875 141.71875 C 24.21875 143.046875 24.375 143.203125 24.921875 142.34375 C 25.46875 141.484375 25.703125 141.5625 26.015625 142.734375 C 26.328125 144.0625 26.40625 144.0625 26.484375 142.578125 C 26.484375 141.640625 26.015625 140.703125 25.390625 140.390625 C 24.53125 140.078125 24.21875 140.46875 24.21875 141.71875 Z M 24.21875 141.71875 "/>
<path style=" stroke:none;fill-rule:nonzero;fill:rgb(0%,0%,0%);fill-opacity:1;" d="M 42.96875 141.015625 C 42.96875 141.171875 43.515625 141.484375 44.140625 141.796875 C 44.765625 142.03125 45.3125 141.875 45.3125 141.484375 C 45.3125 141.015625 44.765625 140.703125 44.140625 140.703125 C 43.515625 140.703125 42.96875 140.859375 42.96875 141.015625 Z M 42.96875 141.015625 "/>
<path style=" stroke:none;fill-rule:nonzero;fill:rgb(0%,0%,0%);fill-opacity:1;" d="M 49.609375 141.484375 C 48.59375 141.953125 48.4375 142.1875 49.21875 142.1875 C 49.84375 142.1875 50.9375 141.875 51.5625 141.484375 C 52.96875 140.546875 51.71875 140.546875 49.609375 141.484375 Z M 49.609375 141.484375 "/>
<path style=" stroke:none;fill-rule:nonzero;fill:rgb(0%,0%,0%);fill-opacity:1;" d="M 27.890625 142.8125 C 28.203125 143.671875 28.515625 143.75 28.75 143.203125 C 29.21875 141.640625 30.46875 142.1875 30.546875 143.984375 C 30.625 145.3125 30.703125 145.472656 31.015625 144.375 C 31.171875 143.671875 31.796875 143.046875 32.265625 142.96875 C 33.59375 142.890625 30.390625 141.640625 28.75 141.5625 C 27.8125 141.484375 27.578125 141.875 27.890625 142.8125 Z M 27.890625 142.8125 "/>
<path style=" stroke:none;fill-rule:nonzero;fill:rgb(0%,0%,0%);fill-opacity:1;" d="M 33.515625 143.203125 C 33.515625 143.359375 33.359375 144.375 33.203125 145.550781 C 32.96875 147.269531 33.203125 147.738281 34.453125 147.738281 C 35.546875 147.738281 35.9375 147.191406 35.9375 145.390625 C 35.9375 143.828125 35.546875 143.046875 34.765625 143.046875 C 34.140625 143.046875 33.59375 143.125 33.515625 143.203125 Z M 33.515625 143.203125 "/>
<path style=" stroke:none;fill-rule:nonzero;fill:rgb(0%,0%,0%);fill-opacity:1;" d="M 37.5 143.75 C 37.5 144.53125 39.84375 145.628906 40.390625 145.078125 C 40.625 144.921875 40 144.375 39.140625 143.828125 C 38.203125 143.359375 37.5 143.28125 37.5 143.75 Z M 37.5 143.75 "/>
<path style=" stroke:none;fill-rule:nonzero;fill:rgb(0%,0%,0%);fill-opacity:1;" d="M 23.90625 144.53125 C 23.59375 145.078125 23.515625 145.707031 23.75 145.941406 C 24.453125 146.644531 25.234375 145.628906 24.84375 144.53125 C 24.53125 143.671875 24.375 143.671875 23.90625 144.53125 Z M 23.90625 144.53125 "/>
<path style=" stroke:none;fill-rule:nonzero;fill:rgb(0%,0%,0%);fill-opacity:1;" d="M 96.71875 145.078125 C 98.046875 147.582031 106.71875 156.335938 107.890625 156.335938 C 108.4375 156.335938 107.34375 154.695312 105.390625 152.585938 C 103.4375 150.550781 101.171875 148.207031 100.3125 147.347656 C 99.53125 146.488281 98.125 145.234375 97.34375 144.609375 C 95.9375 143.515625 95.859375 143.515625 96.71875 145.078125 Z M 96.71875 145.078125 "/>
<path style=" stroke:none;fill-rule:nonzero;fill:rgb(0%,0%,0%);fill-opacity:1;" d="M 27.421875 145.863281 C 27.421875 146.722656 27.65625 146.957031 27.890625 146.332031 C 28.125 145.785156 28.046875 145.078125 27.8125 144.84375 C 27.578125 144.53125 27.34375 145 27.421875 145.863281 Z M 27.421875 145.863281 "/>
<path style=" stroke:none;fill-rule:nonzero;fill:rgb(0%,0%,0%);fill-opacity:1;" d="M 41.875 145.234375 C 41.640625 145.628906 41.71875 146.722656 41.953125 147.738281 C 42.421875 149.457031 42.5 149.535156 43.046875 148.050781 C 43.359375 147.269531 43.671875 146.097656 43.671875 145.550781 C 43.75 144.453125 42.5 144.296875 41.875 145.234375 Z M 41.875 145.234375 "/>
<path style=" stroke:none;fill-rule:nonzero;fill:rgb(0%,0%,0%);fill-opacity:1;" d="M 45.3125 145.785156 C 45.3125 146.644531 45.078125 148.207031 44.84375 149.300781 C 44.53125 150.707031 44.609375 150.941406 45.15625 150.160156 C 45.546875 149.613281 46.25 149.300781 46.71875 149.613281 C 47.5 150.082031 48.828125 146.332031 48.046875 145.550781 C 47.8125 145.3125 47.65625 145.785156 47.65625 146.644531 C 47.578125 147.894531 47.421875 147.816406 46.484375 146.175781 C 45.46875 144.453125 45.390625 144.375 45.3125 145.785156 Z M 45.3125 145.785156 "/>
<path style=" stroke:none;fill-rule:nonzero;fill:rgb(0%,0%,0%);fill-opacity:1;" d="M 29.84375 147.113281 C 30 147.582031 30.625 148.207031 31.09375 148.363281 C 31.640625 148.519531 31.875 148.207031 31.5625 147.425781 C 31.015625 146.019531 29.375 145.707031 29.84375 147.113281 Z M 29.84375 147.113281 "/>
<path style=" stroke:none;fill-rule:nonzero;fill:rgb(0%,0%,0%);fill-opacity:1;" d="M 50.078125 147.425781 C 50.078125 148.285156 50.3125 148.519531 50.546875 147.894531 C 50.78125 147.347656 50.703125 146.644531 50.46875 146.410156 C 50.234375 146.097656 50 146.566406 50.078125 147.425781 Z M 50.078125 147.425781 "/>
<path style=" stroke:none;fill-rule:nonzero;fill:rgb(0%,0%,0%);fill-opacity:1;" d="M 54.765625 146.957031 C 54.6875 147.582031 54.453125 148.988281 54.21875 150.082031 C 53.828125 151.566406 53.90625 151.800781 54.609375 151.175781 C 55.15625 150.707031 55.46875 149.300781 55.234375 148.050781 C 55.078125 146.800781 54.84375 146.332031 54.765625 146.957031 Z M 54.765625 146.957031 "/>
<path style=" stroke:none;fill-rule:nonzero;fill:rgb(0%,0%,0%);fill-opacity:1;" d="M 78.90625 147.738281 C 78.90625 148.597656 79.21875 149.300781 79.609375 149.300781 C 80 149.300781 80.15625 148.597656 79.921875 147.738281 C 79.6875 146.878906 79.375 146.175781 79.21875 146.175781 C 79.0625 146.175781 78.90625 146.878906 78.90625 147.738281 Z M 78.90625 147.738281 "/>
<path style=" stroke:none;fill-rule:nonzero;fill:rgb(0%,0%,0%);fill-opacity:1;" d="M 38.4375 148.988281 C 37.578125 149.925781 37.734375 150.003906 39.21875 149.847656 C 40.15625 149.691406 41.09375 149.066406 41.25 148.441406 C 41.484375 147.503906 41.40625 147.503906 40.78125 148.441406 C 40.3125 148.988281 39.921875 149.144531 39.765625 148.675781 C 39.609375 148.207031 39.0625 148.363281 38.4375 148.988281 Z M 38.4375 148.988281 "/>
<path style=" stroke:none;fill-rule:nonzero;fill:rgb(0%,0%,0%);fill-opacity:1;" d="M 51.5625 150.160156 C 51.5625 150.550781 51.953125 150.707031 52.34375 150.472656 C 52.8125 150.238281 53.125 149.847656 53.125 149.613281 C 53.125 149.457031 52.8125 149.300781 52.34375 149.300781 C 51.953125 149.300781 51.5625 149.691406 51.5625 150.160156 Z M 51.5625 150.160156 "/>
<path style=" stroke:none;fill-rule:nonzero;fill:rgb(0%,0%,0%);fill-opacity:1;" d="M 124.21875 153.289062 C 124.21875 153.679688 124.609375 153.835938 125 153.601562 C 125.46875 153.367188 125.78125 152.976562 125.78125 152.742188 C 125.78125 152.585938 125.46875 152.425781 125 152.425781 C 124.609375 152.425781 124.21875 152.820312 124.21875 153.289062 Z M 124.21875 153.289062 "/>
<path style=" stroke:none;fill-rule:nonzero;fill:rgb(0%,0%,0%);fill-opacity:1;" d="M 34.765625 154.773438 C 35 155.164062 35.625 155.554688 36.015625 155.554688 C 36.484375 155.554688 36.5625 155.164062 36.328125 154.773438 C 36.09375 154.304688 35.46875 153.992188 35.078125 153.992188 C 34.609375 153.992188 34.53125 154.304688 34.765625 154.773438 Z M 34.765625 154.773438 "/>
<path style=" stroke:none;fill-rule:nonzero;fill:rgb(0%,0%,0%);fill-opacity:1;" d="M 108.59375 157.898438 C 107.96875 158.289062 106.40625 158.835938 105.15625 159.070312 C 103.203125 159.460938 103.046875 159.699219 103.984375 160.636719 C 104.609375 161.183594 105.625 161.808594 106.25 161.964844 C 106.875 162.121094 107.890625 162.667969 108.4375 163.136719 C 108.984375 163.683594 110.078125 164.152344 110.859375 164.152344 C 111.953125 164.152344 112.1875 164.621094 111.875 166.183594 C 111.5625 168.0625 108.90625 171.5 107.8125 171.578125 C 104.609375 171.890625 101.5625 173.0625 101.5625 173.925781 C 101.5625 175.566406 106.796875 175.410156 110.078125 173.6875 C 111.484375 172.984375 113.28125 171.265625 113.984375 170.015625 C 114.6875 168.6875 115.46875 167.515625 115.859375 167.4375 C 116.171875 167.28125 116.40625 166.652344 116.40625 166.105469 C 116.40625 165.558594 117.03125 164.933594 117.8125 164.699219 C 118.828125 164.464844 118.671875 164.230469 117.03125 163.527344 C 114.765625 162.589844 114.375 161.886719 115.546875 160.558594 C 115.859375 160.167969 115.625 159.304688 114.84375 158.601562 C 113.515625 157.351562 113.4375 157.507812 113.828125 160.558594 C 114.140625 162.824219 113.984375 163.527344 113.4375 162.980469 C 112.96875 162.511719 112.421875 161.496094 112.265625 160.636719 C 111.796875 157.429688 110.78125 156.648438 108.59375 157.898438 Z M 108.59375 157.898438 "/>
<path style=" stroke:none;fill-rule:nonzero;fill:rgb(0%,0%,0%);fill-opacity:1;" d="M 233.671875 159.460938 C 233.75 160.089844 234.0625 161.496094 234.375 162.589844 L 235 164.542969 L 235.078125 162.589844 C 235.078125 161.496094 234.765625 160.089844 234.375 159.460938 C 233.671875 158.445312 233.59375 158.445312 233.671875 159.460938 Z M 233.671875 159.460938 "/>
<path style=" stroke:none;fill-rule:nonzero;fill:rgb(0%,0%,0%);fill-opacity:1;" d="M 100 160.246094 C 100 160.636719 100.390625 161.027344 100.78125 161.027344 C 101.25 161.027344 101.5625 160.636719 101.5625 160.246094 C 101.5625 159.777344 101.25 159.460938 100.78125 159.460938 C 100.390625 159.460938 100 159.777344 100 160.246094 Z M 100 160.246094 "/>
<path style=" stroke:none;fill-rule:nonzero;fill:rgb(0%,0%,0%);fill-opacity:1;" d="M 128.28125 163.761719 C 124.453125 165.480469 123.4375 167.28125 126.171875 167.28125 C 128.046875 167.28125 135.15625 163.761719 134.921875 162.980469 C 134.453125 161.574219 132.5 161.808594 128.28125 163.761719 Z M 128.28125 163.761719 "/>
<path style=" stroke:none;fill-rule:nonzero;fill:rgb(0%,0%,0%);fill-opacity:1;" d="M 307.03125 171.96875 C 307.03125 172.359375 307.421875 172.75 307.8125 172.75 C 308.28125 172.75 308.59375 172.359375 308.59375 171.96875 C 308.59375 171.5 308.28125 171.1875 307.8125 171.1875 C 307.421875 171.1875 307.03125 171.5 307.03125 171.96875 Z M 307.03125 171.96875 "/>
<path style=" stroke:none;fill-rule:nonzero;fill:rgb(0%,0%,0%);fill-opacity:1;" d="M 306.640625 182.757812 C 306.25 183.070312 305.3125 184.007812 304.6875 184.867188 C 303.828125 186.039062 304.140625 185.960938 305.703125 184.554688 C 307.578125 182.835938 308.203125 182.132812 307.65625 182.132812 C 307.5 182.132812 307.109375 182.445312 306.640625 182.757812 Z M 306.640625 182.757812 "/>
<path style=" stroke:none;fill-rule:nonzero;fill:rgb(0%,0%,0%);fill-opacity:1;" d="M 308.984375 185.257812 C 309.21875 185.648438 309.609375 186.039062 309.84375 186.039062 C 310 186.039062 310.15625 185.648438 310.15625 185.257812 C 310.15625 184.789062 309.765625 184.476562 309.296875 184.476562 C 308.90625 184.476562 308.75 184.789062 308.984375 185.257812 Z M 308.984375 185.257812 "/>
<path style=" stroke:none;fill-rule:nonzero;fill:rgb(0%,0%,0%);fill-opacity:1;" d="M 301.875 189.636719 C 301.25 191.199219 300.78125 192.761719 300.9375 193.152344 C 301.09375 193.542969 301.71875 192.292969 302.421875 190.339844 C 303.984375 186.117188 303.515625 185.648438 301.875 189.636719 Z M 301.875 189.636719 "/>
<path style=" stroke:none;fill-rule:nonzero;fill:rgb(0%,0%,0%);fill-opacity:1;" d="M 300.15625 196.203125 C 300.15625 197.296875 300.3125 197.6875 300.546875 197.140625 C 300.703125 196.671875 300.703125 195.734375 300.546875 195.1875 C 300.3125 194.714844 300.15625 195.109375 300.15625 196.203125 Z M 300.15625 196.203125 "/>
<path style=" stroke:none;fill-rule:nonzero;fill:rgb(0%,0%,0%);fill-opacity:1;" d="M 299.296875 200.5 C 299.21875 203.550781 300.625 208.707031 301.5625 208.707031 C 302.578125 208.707031 302.5 208.160156 301.40625 206.128906 C 300.859375 205.191406 300.234375 203.003906 299.921875 201.28125 C 299.453125 198.625 299.375 198.46875 299.296875 200.5 Z M 299.296875 200.5 "/>
<path style=" stroke:none;fill-rule:nonzero;fill:rgb(0%,0%,0%);fill-opacity:1;" d="M 212.65625 202.457031 C 212.65625 203.550781 212.8125 203.941406 213.046875 203.394531 C 213.203125 202.925781 213.203125 201.984375 213.046875 201.4375 C 212.8125 200.96875 212.65625 201.359375 212.65625 202.457031 Z M 212.65625 202.457031 "/>
<path style=" stroke:none;fill-rule:nonzero;fill:rgb(0%,0%,0%);fill-opacity:1;" d="M 242.03125 212.929688 C 240 214.414062 240.3125 214.960938 242.96875 214.960938 C 244.296875 214.960938 245.3125 214.570312 245.3125 214.179688 C 245.3125 213.710938 244.765625 213.398438 244.0625 213.398438 C 243.4375 213.398438 243.125 213.007812 243.359375 212.617188 C 243.984375 211.601562 243.671875 211.679688 242.03125 212.929688 Z M 242.03125 212.929688 "/>
<path style=" stroke:none;fill-rule:nonzero;fill:rgb(0%,0%,0%);fill-opacity:1;" d="M 204.53125 217.074219 C 205.078125 217.308594 205.78125 217.230469 206.015625 216.996094 C 206.328125 216.761719 205.859375 216.527344 205 216.605469 C 204.140625 216.605469 203.90625 216.839844 204.53125 217.074219 Z M 204.53125 217.074219 "/>
<path style=" stroke:none;fill-rule:nonzero;fill:rgb(0%,0%,0%);fill-opacity:1;" d="M 249.21875 216.917969 C 249.21875 217.074219 249.765625 217.542969 250.390625 218.089844 C 251.328125 218.871094 251.5625 218.871094 251.5625 217.933594 C 251.5625 217.308594 251.015625 216.761719 250.390625 216.761719 C 249.765625 216.761719 249.21875 216.839844 249.21875 216.917969 Z M 249.21875 216.917969 "/>
<path style=" stroke:none;fill-rule:nonzero;fill:rgb(0%,0%,0%);fill-opacity:1;" d="M 247.265625 218.792969 C 246.796875 219.652344 247.96875 220.589844 248.75 219.886719 C 249.453125 219.183594 249.296875 218.089844 248.515625 218.089844 C 248.046875 218.089844 247.578125 218.402344 247.265625 218.792969 Z M 247.265625 218.792969 "/>
<path style=" stroke:none;fill-rule:nonzero;fill:rgb(0%,0%,0%);fill-opacity:1;" d="M 392.1875 219.652344 C 392.1875 220.589844 391.796875 220.511719 396.484375 220.902344 C 398.984375 221.058594 399.84375 220.980469 398.828125 220.511719 C 396.015625 219.417969 392.1875 218.871094 392.1875 219.652344 Z M 392.1875 219.652344 "/>
</g>
</svg>
