<?xml version="1.0" encoding="UTF-8"?>
<svg xmlns="http://www.w3.org/2000/svg" xmlns:xlink="http://www.w3.org/1999/xlink" width="400px" height="400px" viewBox="0 0 400 400" version="1.1">
<g id="surface1">
<path style=" stroke:none;fill-rule:nonzero;fill:rgb(0%,0%,0%);fill-opacity:1;" d="M 0 200 L 0 400 L 400 400 L 400 0 L 0 0 Z M 300.667969 76.890625 L 300.667969 83.332031 L 287.464844 83.464844 L 274.222656 83.554688 L 274.222656 110.222656 L 281.246094 110.265625 C 285.066406 110.265625 291.023438 110.3125 294.445312 110.355469 L 300.667969 110.445312 L 300.667969 123.332031 L 260.667969 123.777344 L 260.535156 130.3125 L 260.398438 136.84375 L 253.867188 136.976562 L 247.332031 137.109375 L 247.199219 150.3125 L 247.109375 163.511719 L 240.535156 163.644531 L 234 163.777344 L 234 190.445312 L 240.535156 190.578125 L 247.109375 190.710938 L 247.199219 203.910156 L 247.332031 217.109375 L 253.867188 217.246094 L 260.398438 217.378906 L 260.535156 223.910156 L 260.667969 230.445312 L 267.246094 230.578125 L 273.777344 230.710938 L 273.777344 244 L 167.109375 244 L 167.109375 257.289062 L 173.6875 257.421875 L 180.222656 257.554688 L 180.355469 264.089844 L 180.488281 270.667969 L 185.910156 270.710938 C 188.890625 270.753906 191.820312 270.800781 192.445312 270.84375 L 193.554688 270.890625 L 193.777344 277.554688 L 194 284.222656 L 206.890625 284.222656 L 207.109375 277.554688 L 207.332031 270.890625 L 220.578125 270.753906 C 230.976562 270.667969 233.777344 270.753906 233.820312 271.199219 C 233.820312 271.511719 233.820312 274.265625 233.820312 277.332031 C 233.820312 283.867188 233.957031 284.535156 235.246094 284.398438 C 235.777344 284.398438 238.667969 284.355469 241.644531 284.398438 L 247.066406 284.445312 L 247.199219 291.023438 L 247.332031 297.554688 L 260.578125 297.777344 L 273.820312 298 L 273.867188 304.222656 L 273.867188 310.445312 L 233.554688 310.445312 L 233.464844 304.222656 L 233.378906 298 L 222.179688 298 L 222.179688 303.464844 C 222.179688 306.488281 222.265625 309.066406 222.398438 309.199219 C 222.535156 309.332031 224.933594 309.421875 227.777344 309.378906 C 231.332031 309.289062 232.890625 309.421875 232.667969 309.734375 C 232.488281 310.042969 230.222656 310.222656 226.753906 310.222656 L 221.109375 310.222656 L 221.246094 304 C 221.378906 297.867188 221.378906 297.820312 220.355469 297.554688 C 219.777344 297.421875 213.644531 297.378906 206.667969 297.421875 L 194 297.554688 L 193.867188 310.753906 L 193.777344 324 L 176.710938 324 C 167.378906 324 155.464844 323.867188 150.3125 323.6875 L 140.933594 323.421875 L 140.976562 317.554688 L 140.976562 311.644531 L 153.734375 311.378906 C 160.710938 311.199219 166.753906 310.933594 167.109375 310.710938 C 167.6875 310.398438 167.777344 308.355469 167.910156 297.378906 C 167.957031 290.265625 167.957031 284.398438 167.910156 284.355469 C 167.601562 284.179688 152.710938 283.644531 147.023438 283.644531 L 140.933594 283.601562 L 140.976562 277.644531 C 140.976562 274.355469 140.800781 271.332031 140.578125 270.933594 C 140.222656 270.265625 139.378906 270.179688 133.867188 270.179688 L 127.554688 270.179688 L 127.554688 244.667969 L 134 244.667969 C 137.511719 244.710938 140.535156 244.84375 140.710938 245.023438 C 141.109375 245.378906 140.578125 245.421875 133.6875 245.378906 L 128.445312 245.378906 L 128.445312 269.289062 L 134.222656 269.199219 L 139.957031 269.15625 L 140.089844 263.109375 L 140.222656 257.109375 L 146.800781 256.976562 L 153.332031 256.84375 L 153.332031 243.554688 L 166.667969 243.554688 L 166.667969 218.667969 L 155.109375 218.667969 L 155.199219 224.535156 C 155.289062 228.222656 155.15625 230.445312 154.890625 230.445312 C 154.621094 230.445312 154.398438 227.957031 154.398438 224.132812 L 154.3125 217.820312 L 160.488281 217.867188 C 164.621094 217.867188 166.890625 217.6875 167.289062 217.332031 C 167.820312 216.933594 167.910156 215.511719 167.867188 210.667969 L 167.777344 204.445312 L 173.867188 204.535156 C 178.132812 204.535156 180.179688 204.398438 180.667969 204 C 181.199219 203.554688 181.289062 202.3125 181.199219 197.246094 L 181.109375 191.066406 L 187.246094 191.15625 C 191.644531 191.199219 193.554688 191.023438 194.042969 190.621094 C 194.621094 190.132812 194.710938 189.023438 194.578125 183.910156 L 194.445312 177.777344 L 200.355469 177.777344 C 207.820312 177.777344 208.265625 178.578125 200.84375 178.753906 L 195.464844 178.890625 L 195.421875 184.445312 L 195.421875 190 L 201.023438 190.089844 L 206.667969 190.179688 L 206.667969 184.042969 C 206.667969 179.023438 206.800781 177.777344 207.332031 177.332031 C 207.957031 176.84375 208 175.066406 207.910156 163.910156 L 207.777344 151.109375 L 214.042969 151.109375 C 218.890625 151.109375 220.445312 150.976562 220.84375 150.488281 C 221.199219 150.042969 221.332031 146.132812 221.332031 137.109375 L 221.289062 124.355469 L 227.332031 124.398438 C 232.132812 124.488281 233.464844 124.355469 234 123.820312 C 234.535156 123.332031 234.667969 121.867188 234.667969 117.023438 L 234.667969 110.890625 L 240.710938 111.023438 C 244.933594 111.15625 246.890625 111.023438 247.378906 110.667969 C 247.910156 110.179688 248 107.066406 248 90.488281 L 248 70.84375 L 253.554688 70.890625 C 256.890625 70.890625 259.066406 71.066406 258.976562 71.332031 C 258.933594 71.554688 256.710938 71.734375 253.910156 71.734375 L 248.890625 71.734375 L 248.800781 90.753906 L 248.667969 109.777344 L 260.488281 109.777344 L 260.445312 90.3125 C 260.445312 79.644531 260.445312 70.753906 260.445312 70.535156 C 260.445312 70.355469 269.511719 70.265625 280.578125 70.3125 L 300.667969 70.445312 Z M 259.109375 90.667969 C 259.109375 102.222656 258.976562 108.445312 258.667969 108.445312 C 258.398438 108.445312 258.222656 102.222656 258.222656 90.667969 C 258.222656 79.109375 258.398438 72.890625 258.667969 72.890625 C 258.976562 72.890625 259.109375 79.109375 259.109375 90.667969 Z M 255.910156 108.3125 C 255.199219 108.398438 254.132812 108.398438 253.464844 108.3125 C 252.753906 108.222656 253.332031 108.132812 254.667969 108.132812 C 256 108.132812 256.578125 108.222656 255.910156 108.3125 Z M 205.199219 180.976562 C 205.066406 181.332031 204.933594 181.199219 204.933594 180.710938 C 204.890625 180.222656 205.023438 179.957031 205.15625 180.132812 C 205.289062 180.265625 205.332031 180.667969 205.199219 180.976562 Z M 205.332031 188.265625 C 205.332031 188.621094 205.109375 188.800781 204.890625 188.667969 C 204.621094 188.488281 204.535156 188.179688 204.667969 187.957031 C 205.066406 187.332031 205.332031 187.464844 205.332031 188.265625 Z M 153.777344 231.601562 C 153.777344 231.777344 151.109375 232.042969 147.910156 232.089844 L 142 232.222656 L 142.089844 238.132812 C 142.179688 242.621094 142.042969 244 141.644531 243.867188 C 141.246094 243.734375 141.109375 241.910156 141.066406 237.464844 L 140.976562 231.199219 L 147.378906 231.199219 C 150.890625 231.199219 153.777344 231.378906 153.777344 231.601562 Z M 165.332031 241.777344 C 165.332031 242 165.109375 242.222656 164.84375 242.222656 C 164.621094 242.222656 164.535156 242 164.667969 241.777344 C 164.800781 241.511719 165.023438 241.332031 165.15625 241.332031 C 165.246094 241.332031 165.332031 241.511719 165.332031 241.777344 Z M 287.332031 257.332031 L 287.332031 270.445312 L 280.667969 270.667969 L 274 270.890625 L 273.867188 277.421875 L 273.734375 284 L 247.511719 284 L 247.644531 277.421875 C 247.777344 271.246094 247.820312 270.890625 248.667969 270.84375 C 249.15625 270.800781 252.089844 270.753906 255.199219 270.710938 L 260.84375 270.667969 L 260.976562 264.089844 L 261.109375 257.554688 L 267.6875 257.421875 L 274.222656 257.289062 L 274.222656 243.957031 L 280.800781 244.089844 L 287.332031 244.222656 Z M 152 255.109375 C 152 255.332031 151.820312 255.554688 151.554688 255.554688 C 151.332031 255.554688 151.109375 255.332031 151.109375 255.109375 C 151.109375 254.84375 151.332031 254.667969 151.554688 254.667969 C 151.820312 254.667969 152 254.84375 152 255.109375 Z M 138.535156 264.976562 C 138.445312 266.042969 138.355469 265.199219 138.355469 263.109375 C 138.355469 261.023438 138.445312 260.179688 138.535156 261.199219 C 138.621094 262.265625 138.621094 263.957031 138.535156 264.976562 Z M 226.800781 299.867188 C 226.222656 299.957031 225.332031 299.957031 224.800781 299.867188 C 224.222656 299.777344 224.667969 299.6875 225.777344 299.6875 C 226.890625 299.6875 227.332031 299.777344 226.800781 299.867188 Z M 226.800781 299.867188 "/>
<path style=" stroke:none;fill-rule:nonzero;fill:rgb(0%,0%,0%);fill-opacity:1;" d="M 235.644531 112 C 235.464844 112.132812 235.332031 114.667969 235.332031 117.644531 L 235.332031 123.109375 L 246.890625 123.109375 L 246.84375 117.464844 L 246.800781 111.777344 L 241.378906 111.777344 C 238.355469 111.777344 235.777344 111.867188 235.644531 112 Z M 235.644531 112 "/>
<path style=" stroke:none;fill-rule:nonzero;fill:rgb(0%,0%,0%);fill-opacity:1;" d="M 222.222656 137.199219 C 222.222656 143.867188 222.179688 149.464844 222.132812 149.601562 C 222.042969 149.777344 224.578125 149.867188 227.6875 149.867188 L 233.378906 149.820312 L 233.378906 125.246094 L 227.777344 125.199219 L 222.222656 125.109375 Z M 227.867188 148.3125 C 226.976562 148.398438 225.554688 148.398438 224.753906 148.3125 C 224 148.222656 224.753906 148.132812 226.445312 148.132812 C 228.179688 148.132812 228.800781 148.222656 227.867188 148.3125 Z M 227.867188 148.3125 "/>
<path style=" stroke:none;fill-rule:nonzero;fill:rgb(0%,0%,0%);fill-opacity:1;" d="M 208.890625 152.089844 C 208.890625 152.179688 208.890625 157.734375 208.84375 164.445312 L 208.84375 176.667969 L 214.535156 176.667969 C 218.800781 176.667969 220.222656 176.535156 220.179688 176.089844 C 220.132812 175.820312 220.089844 170.265625 220.089844 163.777344 L 220 152 L 214.445312 152 C 211.378906 152 208.890625 152.042969 208.890625 152.089844 Z M 215.246094 174.976562 C 214.179688 175.066406 212.488281 175.066406 211.464844 174.976562 C 210.398438 174.890625 211.246094 174.800781 213.332031 174.800781 C 215.421875 174.800781 216.265625 174.890625 215.246094 174.976562 Z M 218.890625 175.109375 C 218.753906 175.332031 218.445312 175.554688 218.179688 175.554688 C 217.957031 175.554688 217.777344 175.332031 217.777344 175.109375 C 217.777344 174.84375 218.089844 174.667969 218.488281 174.667969 C 218.84375 174.667969 219.023438 174.84375 218.890625 175.109375 Z M 218.890625 175.109375 "/>
<path style=" stroke:none;fill-rule:nonzero;fill:rgb(0%,0%,0%);fill-opacity:1;" d="M 182.222656 192.089844 C 182.179688 192.179688 182.132812 194.710938 182.089844 197.777344 L 182 203.332031 L 187.6875 203.464844 L 193.332031 203.601562 L 193.332031 192 L 187.777344 192 C 184.710938 192 182.222656 192.042969 182.222656 192.089844 Z M 192 193.777344 C 192 194 191.910156 194.222656 191.820312 194.222656 C 191.6875 194.222656 191.464844 194 191.332031 193.777344 C 191.199219 193.511719 191.289062 193.332031 191.511719 193.332031 C 191.777344 193.332031 192 193.511719 192 193.777344 Z M 192.445312 201.511719 C 192.445312 202 191.601562 202.179688 191.332031 201.777344 C 191.199219 201.554688 191.378906 201.332031 191.734375 201.332031 C 192.132812 201.332031 192.445312 201.421875 192.445312 201.511719 Z M 192.445312 201.511719 "/>
<path style=" stroke:none;fill-rule:nonzero;fill:rgb(0%,0%,0%);fill-opacity:1;" d="M 168.578125 211.109375 L 168.535156 216.890625 L 180 216.890625 L 180 205.332031 L 168.667969 205.332031 Z M 178.976562 215.289062 C 179.15625 215.421875 177.109375 215.554688 174.535156 215.554688 C 171.910156 215.554688 169.777344 215.421875 169.777344 215.199219 C 169.777344 214.84375 178.578125 214.890625 178.976562 215.289062 Z M 178.976562 215.289062 "/>
<path style=" stroke:none;fill-rule:nonzero;fill:rgb(0%,0%,0%);fill-opacity:1;" d="M 141.910156 276.890625 L 141.957031 282.667969 L 153.332031 282.667969 L 153.332031 271.109375 L 141.867188 271.109375 Z M 141.910156 276.890625 "/>
<path style=" stroke:none;fill-rule:nonzero;fill:rgb(0%,0%,0%);fill-opacity:1;" d="M 168.578125 297.378906 L 168.667969 310.3125 L 174.355469 310.355469 L 180 310.445312 L 180 284.535156 L 174.222656 284.488281 L 168.445312 284.398438 Z M 178.667969 286.222656 C 178.667969 286.445312 178.488281 286.667969 178.222656 286.667969 C 178 286.667969 177.777344 286.445312 177.777344 286.222656 C 177.777344 285.957031 178 285.777344 178.222656 285.777344 C 178.488281 285.777344 178.667969 285.957031 178.667969 286.222656 Z M 173.246094 308.753906 C 172.535156 308.84375 171.464844 308.84375 170.800781 308.753906 C 170.089844 308.667969 170.667969 308.578125 172 308.578125 C 173.332031 308.578125 173.910156 308.667969 173.246094 308.753906 Z M 173.246094 308.753906 "/>
<path style=" stroke:none;fill-rule:nonzero;fill:rgb(0%,0%,0%);fill-opacity:1;" d="M 142.179688 312.222656 C 142.179688 312.222656 142.132812 314.578125 142.089844 317.464844 L 142 322.667969 L 146.976562 322.667969 C 149.6875 322.667969 152.265625 322.800781 152.621094 322.933594 C 153.289062 323.199219 153.332031 322.621094 153.246094 317.820312 L 153.109375 312.398438 L 147.644531 312.3125 C 144.667969 312.265625 142.222656 312.222656 142.179688 312.222656 Z M 142.179688 312.222656 "/>
</g>
</svg>
