<?xml version="1.0" standalone="no"?>
<!DOCTYPE svg PUBLIC "-//W3C//DTD SVG 20010904//EN"
 "http://www.w3.org/TR/2001/REC-SVG-20010904/DTD/svg10.dtd">
<svg version="1.0" xmlns="http://www.w3.org/2000/svg"
 width="300.000000pt" height="169.000000pt" viewBox="0 0 300.000000 169.000000"
 preserveAspectRatio="xMidYMid meet">

<g transform="translate(0.000000,169.000000) scale(0.100000,-0.100000)"
fill="#000000" stroke="none">
<path d="M70 1014 c0 -447 -3 -673 -10 -669 -6 3 -11 54 -12 113 -1 99 -2 102
-8 42 l-7 -65 -3 60 c-2 41 -5 51 -8 30 l-5 -30 -7 25 c-7 23 -8 23 -9 -8 -1
-20 3 -31 9 -27 6 4 10 -25 10 -79 0 -47 -5 -88 -10 -91 -6 -4 -9 -68 -8 -163
1 -105 3 -140 8 -107 l7 50 2 -50 c2 -38 4 -45 11 -30 7 17 9 17 9 3 1 -17 33
-18 523 -18 l521 0 46 27 c25 14 56 34 68 43 l23 18 -40 26 c-22 14 -40 30
-40 34 0 5 18 23 39 40 33 27 40 29 45 15 4 -9 -1 -24 -11 -35 -16 -18 -16
-20 12 -42 l28 -23 56 37 c31 20 71 45 89 56 18 10 30 24 28 30 -8 20 33 140
54 159 19 17 20 17 35 -18 8 -20 15 -43 15 -51 0 -8 4 -17 8 -20 11 -6 192
103 199 120 4 12 -62 192 -76 207 -4 4 -20 3 -34 -4 -25 -11 -27 -16 -27 -81
0 -37 -2 -68 -5 -68 -3 0 -14 5 -25 12 -15 10 -29 10 -65 0 -25 -7 -59 -12
-76 -12 -17 0 -44 -9 -60 -21 -34 -24 -55 -20 -68 13 -45 111 -73 199 -73 231
l-1 37 -31 -23 c-30 -24 -32 -29 -48 -153 -9 -71 -19 -146 -22 -166 -6 -36 -6
-36 44 -53 51 -17 55 -21 42 -42 -5 -9 -21 -7 -60 6 -30 10 -57 22 -61 27 -5
5 1 59 14 119 12 61 25 133 29 162 l7 52 -36 -14 c-19 -9 -62 -21 -95 -29 -54
-13 -61 -13 -70 2 -8 14 -9 14 -10 2 0 -8 -18 -23 -39 -33 -45 -20 -83 -83
-101 -168 -9 -40 -18 -58 -34 -65 -11 -5 -26 -24 -32 -42 -9 -29 -79 -112 -95
-112 -8 0 -22 320 -14 328 5 5 68 10 153 11 27 1 32 5 32 26 0 25 0 25 -95 25
l-95 0 -1 173 c0 94 -2 225 -4 289 -3 65 -1 119 3 122 4 2 66 6 137 8 104 2
131 6 137 18 17 38 11 39 -134 42 l-143 3 -3 223 -2 222 -265 0 -265 0 0 -676z
m1513 -605 c6 -9 7 -25 3 -35 -7 -17 -10 -16 -32 11 -13 17 -24 34 -24 38 0
14 42 3 53 -14z m-153 1 c0 -6 -10 -29 -21 -52 -20 -39 -22 -41 -35 -23 -20
27 -17 41 14 64 30 23 42 26 42 11z m-1393 -202 c-1 -40 -3 -10 -3 67 0 77 1
110 3 73 2 -37 2 -100 0 -140z m-20 -60 c-3 -8 -6 -5 -6 6 -1 11 2 17 5 13 3
-3 4 -12 1 -19z"/>
<path d="M1380 1650 c0 -28 4 -40 14 -40 8 0 21 -3 30 -6 13 -5 16 2 16 40 0
44 -1 46 -30 46 -28 0 -30 -2 -30 -40z"/>
<path d="M2268 1463 l-3 -228 -143 -3 c-125 -2 -143 -5 -138 -18 3 -9 6 -20 6
-25 0 -4 62 -10 138 -11 l137 -3 3 -212 c1 -117 5 -213 8 -213 19 0 44 24 44
43 0 13 4 27 10 33 5 5 11 86 12 179 l3 170 160 3 c88 1 227 -1 309 -5 159 -9
186 -3 186 37 0 19 -12 20 -327 22 l-328 3 -3 228 -2 227 -35 0 -35 0 -2 -227z"/>
<path d="M1060 1419 c0 -5 5 -7 10 -4 6 3 10 8 10 11 0 2 -4 4 -10 4 -5 0 -10
-5 -10 -11z"/>
<path d="M1305 1300 c-10 -11 -13 -20 -7 -20 6 0 16 9 22 20 6 11 9 20 7 20
-2 0 -12 -9 -22 -20z"/>
<path d="M1071 1295 c0 -5 6 -19 14 -29 8 -11 15 -15 15 -10 0 6 -7 19 -15 30
-8 10 -14 15 -14 9z"/>
<path d="M936 1255 c-9 -26 -7 -32 5 -12 6 10 9 21 6 23 -2 3 -7 -2 -11 -11z"/>
<path d="M1901 1215 c0 -35 1 -37 10 -17 6 15 5 30 -1 40 -7 13 -9 8 -9 -23z"/>
<path d="M992 1205 c-16 -35 -15 -41 11 -66 12 -12 17 -19 10 -15 -6 3 -15 1
-19 -5 -4 -7 -3 -9 3 -6 11 7 23 -16 43 -78 7 -22 20 -48 29 -59 9 -10 14 -19
12 -20 -7 -2 10 -46 18 -46 12 0 6 39 -7 52 -7 7 -13 41 -13 78 -1 36 -4 55
-6 43 -10 -51 -38 -9 -52 78 -6 34 -12 63 -14 65 -2 2 -9 -7 -15 -21z m13 -25
c3 -5 1 -10 -4 -10 -6 0 -11 5 -11 10 0 6 2 10 4 10 3 0 8 -4 11 -10z"/>
<path d="M915 1209 c-4 -6 -5 -12 -2 -15 2 -3 7 2 10 11 7 17 1 20 -8 4z"/>
<path d="M1201 1184 c0 -11 3 -14 6 -6 3 7 2 16 -1 19 -3 4 -6 -2 -5 -13z"/>
<path d="M1200 1086 c0 -19 3 -37 8 -40 4 -2 6 13 4 35 -5 48 -12 51 -12 5z"/>
<path d="M2900 1046 c-53 -35 -105 -66 -117 -70 -25 -8 -47 -32 -36 -39 7 -5
224 121 247 143 4 5 7 13 5 19 -2 6 -47 -18 -99 -53z"/>
<path d="M1000 1081 c0 -6 4 -13 10 -16 6 -3 7 1 4 9 -7 18 -14 21 -14 7z"/>
<path d="M1016 1037 c3 -10 9 -15 12 -12 3 3 0 11 -7 18 -10 9 -11 8 -5 -6z"/>
<path d="M1654 990 c-30 -12 -43 -34 -15 -25 15 5 21 2 21 -9 0 -9 -7 -16 -15
-16 -8 0 -15 -8 -15 -18 0 -14 7 -17 44 -14 38 3 45 8 51 30 4 15 11 30 17 33
35 22 -41 38 -88 19z"/>
<path d="M1303 976 c-31 -14 -48 -41 -20 -30 10 3 13 -3 9 -24 -4 -30 23 -65
36 -45 11 15 52 23 52 10 1 -19 30 25 30 45 0 10 5 18 12 18 8 0 7 5 -3 15
-22 23 -79 27 -116 11z m32 -26 c-3 -5 -10 -10 -16 -10 -5 0 -9 5 -9 10 0 6 7
10 16 10 8 0 12 -4 9 -10z"/>
<path d="M1802 921 c-6 -17 -7 -33 -3 -36 9 -5 25 55 17 62 -2 2 -8 -10 -14
-26z"/>
<path d="M2550 879 c1 -8 7 -27 15 -44 l13 -30 1 31 c1 17 -6 37 -14 44 -12
10 -15 10 -15 -1z"/>
<path d="M1120 851 c0 -5 5 -13 10 -16 6 -3 10 -2 10 4 0 5 -4 13 -10 16 -5 3
-10 2 -10 -4z"/>
<path d="M1 814 c-1 -26 3 -33 24 -36 21 -4 25 -1 25 18 0 17 -6 24 -19 24
-11 0 -22 6 -24 13 -3 6 -6 -2 -6 -19z"/>
<path d="M2446 831 c-4 -6 3 -15 14 -21 23 -12 27 2 6 19 -9 8 -16 8 -20 2z"/>
<path d="M2020 825 c0 -5 5 -17 10 -25 5 -8 10 -10 10 -5 0 6 -5 17 -10 25 -5
8 -10 11 -10 5z"/>
<path d="M43 705 c0 -33 2 -45 4 -27 2 18 2 45 0 60 -2 15 -4 0 -4 -33z"/>
<path d="M2280 666 c-47 -28 -161 -99 -255 -156 -93 -57 -208 -127 -255 -156
-47 -28 -191 -115 -320 -193 -129 -78 -239 -146 -245 -152 -5 -5 36 -9 110 -8
93 0 114 3 93 11 -16 5 -28 16 -28 25 0 16 9 14 95 -18 46 -18 85 -19 543 -19
l492 0 0 85 c0 81 2 88 35 136 45 66 50 96 31 204 -9 50 -16 98 -16 108 0 16
17 17 220 17 208 0 220 1 220 19 0 17 -14 18 -217 24 l-218 5 -24 -23 c-20
-20 -24 -33 -23 -72 1 -30 -4 -55 -12 -67 -14 -18 -17 -17 -58 15 -63 49 -97
89 -109 131 -11 33 -9 41 15 82 42 72 39 72 -74 2z m-12 -58 c-3 -7 -15 -15
-28 -16 -21 -3 -22 -2 -11 12 16 19 44 21 39 4z m-2 -71 c3 -8 -10 -74 -28
-148 -36 -144 -50 -163 -80 -109 -10 17 -31 38 -47 48 -19 11 -33 28 -37 47
-3 17 -15 40 -27 52 -18 20 -19 26 -7 48 24 44 87 74 158 75 43 0 64 -4 68
-13z m-509 -323 c7 -18 -28 -57 -91 -103 -39 -27 -56 -31 -56 -11 0 4 24 26
54 49 30 22 57 50 61 61 8 24 23 26 32 4z m-244 -88 c-16 -34 -18 -36 -30 -20
-7 10 -13 21 -13 26 0 8 53 38 58 33 2 -1 -5 -19 -15 -39z m57 -60 c0 -18 -40
-47 -52 -40 -10 6 29 54 44 54 4 0 8 -6 8 -14z"/>
<path d="M1700 660 c-6 -4 4 -40 30 -102 22 -53 40 -103 40 -112 0 -17 15 -22
24 -7 3 5 42 30 85 56 96 55 160 105 138 105 -9 0 -24 14 -34 30 -9 17 -24 31
-33 31 -65 5 -241 5 -250 -1z"/>
<path d="M42 610 c0 -14 2 -19 5 -12 2 6 2 18 0 25 -3 6 -5 1 -5 -13z"/>
<path d="M21 584 c0 -11 3 -14 6 -6 3 7 2 16 -1 19 -3 4 -6 -2 -5 -13z"/>
<path d="M2 385 c0 -16 2 -22 5 -12 2 9 2 23 0 30 -3 6 -5 -1 -5 -18z"/>
</g>
</svg>
