<?xml version="1.0" standalone="no"?>
<!DOCTYPE svg PUBLIC "-//W3C//DTD SVG 20010904//EN"
 "http://www.w3.org/TR/2001/REC-SVG-20010904/DTD/svg10.dtd">
<svg version="1.0" xmlns="http://www.w3.org/2000/svg"
 width="300.000000pt" height="169.000000pt" viewBox="0 0 300.000000 169.000000"
 preserveAspectRatio="xMidYMid meet">

<g transform="translate(0.000000,169.000000) scale(0.100000,-0.100000)"
fill="#000000" stroke="none">
<path d="M0 916 c0 -556 3 -777 11 -782 8 -4 9 1 4 16 -5 15 -4 20 4 16 10 -6
7 -120 -4 -152 -2 -8 27 -12 101 -13 l105 -2 -16 38 c-9 20 -21 40 -27 44 -6
4 -7 13 -2 20 6 12 5 11 -9 0 -15 -12 -17 -12 -11 3 4 11 -2 26 -16 42 -13 13
-20 24 -17 24 4 0 1 10 -7 23 -28 44 -58 217 -63 367 -5 156 16 411 41 491 8
24 24 75 36 114 31 102 61 166 73 158 6 -3 7 -1 3 5 -6 11 39 102 51 102 3 0
-4 -16 -16 -35 -28 -48 -17 -44 14 5 28 44 31 55 12 44 -7 -4 -9 -3 -4 2 5 5
14 9 19 9 6 0 13 6 16 14 3 9 0 11 -8 6 -9 -5 -11 -4 -6 4 6 9 11 9 22 0 9 -7
14 -8 12 -3 -5 14 40 84 53 84 7 0 9 3 6 7 -9 8 89 102 117 113 12 5 -89 9
-236 9 l-258 1 0 -774z m67 -893 c-3 -10 -5 -5 -5 12 0 17 2 24 5 18 2 -7 2
-21 0 -30z"/>
<path d="M665 1678 c34 -18 95 -81 126 -129 41 -64 86 -200 118 -357 l27 -134
75 93 c41 50 77 97 81 103 3 6 17 29 30 51 26 46 34 99 12 91 -8 -3 -11 0 -7
10 3 8 11 13 18 10 10 -3 10 2 2 24 -8 21 -8 36 2 56 10 22 10 29 -1 36 -11 6
-11 10 0 16 7 5 17 22 22 38 6 20 8 -1 6 -72 -2 -55 -9 -111 -16 -125 -9 -17
0 -12 32 19 24 23 49 42 55 42 6 0 17 17 24 38 16 50 36 80 81 125 20 20 34
37 30 37 -4 0 0 5 8 10 11 7 11 10 2 10 -7 0 -10 5 -7 10 4 7 -121 10 -367 10
-277 -1 -368 -3 -353 -12z m512 -30 c-3 -8 -6 -5 -6 6 -1 11 2 17 5 13 3 -3 4
-12 1 -19z"/>
<path d="M1423 1678 c2 -7 19 -13 38 -14 19 0 41 -4 49 -7 9 -5 20 0 28 13 12
19 10 20 -54 20 -48 0 -65 -3 -61 -12z"/>
<path d="M1556 1674 c-3 -9 -6 -18 -6 -20 0 -9 56 -3 70 7 13 9 13 10 -2 6 -9
-3 -19 1 -22 9 -7 19 -32 18 -40 -2z"/>
<path d="M1803 1578 c0 -62 4 -121 8 -130 6 -11 5 -19 -3 -24 -7 -5 -8 -3 -3
7 5 8 5 11 0 7 -4 -4 -15 -2 -24 4 -9 7 -7 1 5 -12 11 -14 42 -56 69 -95 81
-117 167 -234 232 -316 34 -43 69 -90 79 -104 9 -14 23 -25 30 -25 12 0 13 12
7 68 -4 37 -8 135 -8 217 1 180 27 312 86 433 21 42 35 79 32 82 -3 3 -8 -1
-10 -8 -4 -10 -8 -10 -19 -1 -12 9 -13 9 -9 -3 8 -21 -22 -91 -35 -83 -6 3 -8
11 -4 16 3 5 0 25 -6 44 l-12 35 -208 0 -208 0 1 -112z"/>
<path d="M2641 1633 c32 -31 57 -58 55 -60 -6 -7 -46 19 -75 48 -14 14 -20 17
-12 7 16 -20 2 -25 -17 -6 -22 22 -13 -3 14 -38 27 -35 51 -46 40 -18 -3 8 -2
12 4 9 14 -9 12 -35 -2 -35 -10 0 -10 -2 0 -9 8 -4 14 -12 14 -17 0 -5 5 -8
10 -6 6 2 8 -3 5 -11 -3 -8 1 -14 9 -14 12 0 11 5 -2 25 -8 13 -14 26 -11 28
2 3 19 -18 36 -45 18 -27 36 -51 41 -53 6 -2 30 -34 56 -73 25 -38 43 -62 40
-52 -5 15 -3 16 15 7 11 -6 17 -16 13 -21 -3 -6 1 -18 8 -27 24 -28 69 -150
93 -257 l24 -100 0 388 1 387 -94 0 -94 0 -7 -32 c-4 -18 -12 -39 -19 -47 -8
-11 -8 -13 1 -7 9 5 11 2 7 -8 -9 -24 -23 -19 -30 9 -3 14 -10 25 -15 25 -5 0
-9 7 -9 15 0 8 -5 15 -11 15 -6 0 -9 7 -5 15 4 12 -3 15 -32 15 -21 0 -43 -5
-49 -11 -8 -8 -13 -8 -17 0 -4 6 -16 11 -26 11 -13 0 -2 -16 41 -57z m166
-190 c15 -27 32 -51 38 -55 6 -5 6 -8 0 -8 -5 0 -3 -5 5 -10 12 -7 10 -9 -7
-7 -12 0 -19 5 -17 9 3 5 -8 33 -25 63 -17 30 -29 55 -27 55 3 0 18 -21 33
-47z"/>
<path d="M1648 1608 c5 -5 16 -8 23 -6 8 3 3 7 -10 11 -17 4 -21 3 -13 -5z"/>
<path d="M564 1540 c-61 -63 -157 -231 -188 -330 -27 -84 -66 -261 -66 -298 0
-13 -4 -21 -8 -18 -13 8 -6 -456 7 -549 7 -44 14 -105 17 -135 3 -30 10 -59
15 -65 13 -13 11 -28 -3 -19 -8 5 -9 2 -5 -10 4 -10 7 -21 7 -24 0 -4 4 -1 8
6 5 8 14 -7 26 -43 l17 -55 70 0 69 0 1 48 c1 26 1 51 -1 57 -1 5 4 82 10 170
17 244 69 484 70 324 0 -36 -4 -79 -10 -95 -5 -16 -14 -126 -20 -244 -5 -118
-13 -225 -16 -237 -6 -22 -4 -23 58 -23 60 0 66 2 77 26 6 14 8 30 5 36 -5 7
-2 8 6 3 10 -6 12 -3 8 13 -4 15 -1 23 11 27 25 8 85 194 76 238 -5 24 -4 28
4 17 6 -8 11 -10 12 -5 0 8 7 128 8 172 1 6 10 9 24 6 40 -10 49 -23 42 -67
-17 -103 -75 -291 -129 -418 -9 -21 -16 -40 -16 -43 0 -3 374 -5 830 -5 457 0
830 2 830 5 0 3 -12 34 -26 68 -15 34 -30 76 -34 92 -4 17 -10 41 -14 55 l-7
25 14 -24 c14 -23 14 -23 20 -2 3 11 1 21 -5 21 -5 0 -6 5 -3 10 3 6 2 10 -3
10 -5 0 -15 14 -23 32 -7 18 -15 26 -17 18 -5 -15 -46 92 -57 147 -3 19 -8 40
-11 48 -3 7 6 17 24 23 l29 10 18 -77 c10 -42 22 -87 28 -101 6 -14 12 -29 13
-35 7 -41 18 -75 24 -75 3 0 7 -6 7 -12 0 -7 14 -44 31 -81 21 -46 35 -66 43
-61 8 4 9 3 5 -4 -4 -6 3 -29 14 -52 l20 -40 114 0 113 0 27 85 c47 147 58
253 54 494 -3 169 -9 244 -28 343 -12 70 -26 125 -30 123 -4 -3 -8 13 -8 34
-1 50 -23 126 -32 110 -5 -6 -10 0 -14 16 -4 14 -4 31 0 37 4 7 3 8 -4 4 -7
-4 -12 -2 -12 5 0 25 -103 195 -133 219 -21 17 -29 20 -25 9 4 -11 1 -16 -10
-15 -12 1 -18 -10 -22 -39 -3 -22 -11 -48 -17 -59 -18 -32 -28 2 -26 89 3 87
-11 88 -23 2 -4 -26 -11 -50 -16 -53 -6 -4 -7 13 -3 42 5 40 4 46 -6 30 -6
-10 -14 -69 -17 -130 -6 -101 -7 -106 -13 -56 -14 115 -10 203 11 238 11 18
25 30 30 27 6 -3 10 -1 10 4 0 22 -23 10 -67 -34 -27 -27 -43 -51 -39 -60 3
-8 0 -17 -6 -21 -7 -5 -8 -2 -3 6 5 8 4 11 -3 7 -5 -4 -8 -17 -4 -29 3 -13 1
-19 -5 -15 -13 8 -24 -18 -17 -38 4 -8 1 -15 -5 -15 -6 0 -9 -16 -7 -40 3 -30
0 -38 -9 -30 -9 7 -11 -46 -10 -230 2 -205 4 -242 19 -264 17 -26 36 -35 36
-16 0 6 6 10 13 10 6 0 24 6 38 14 36 18 74 10 88 -21 20 -43 -28 -96 -99
-110 -25 -5 -46 -14 -46 -21 -1 -7 -2 -16 -3 -22 0 -5 -12 -10 -25 -10 -35 0
-53 48 -37 99 14 50 14 50 -9 44 -15 -4 -20 0 -20 16 0 12 -12 34 -26 49 -53
56 -364 509 -364 531 0 16 -22 24 -30 11 -5 -8 -9 -7 -13 5 -4 9 -3 13 3 10
19 -11 10 32 -10 50 -19 17 -19 16 -13 -21 3 -22 16 -63 30 -92 21 -47 22 -54
8 -68 -8 -8 -15 -20 -15 -25 0 -5 -5 -9 -11 -9 -6 0 -9 7 -6 14 4 10 1 13 -9
9 -12 -4 -14 0 -8 23 4 16 4 26 0 23 -4 -4 -8 -19 -10 -35 -7 -48 -17 -64 -45
-70 -14 -3 -33 -10 -41 -15 -8 -5 -28 -17 -43 -27 -25 -15 -28 -22 -25 -59 l3
-41 -40 -1 c-22 -1 -57 -2 -77 -4 -37 -2 -49 5 -28 18 6 3 10 18 10 33 0 21
-11 34 -52 60 -28 18 -62 35 -75 38 -31 8 -43 32 -42 85 1 42 -28 135 -30 96
-1 -10 -5 -16 -10 -13 -5 3 -14 -1 -21 -9 -7 -8 -9 -15 -5 -15 3 0 -6 -13 -22
-28 -15 -16 -39 -44 -53 -62 -14 -18 -59 -74 -101 -125 -87 -106 -128 -162
-111 -151 9 5 12 -25 12 -124 l0 -132 -32 20 c-18 10 -32 24 -31 30 2 6 -4 9
-12 6 -20 -8 -19 6 3 23 15 13 15 14 0 9 -28 -8 -26 35 3 74 14 19 29 44 33
55 6 19 5 19 -11 -1 -10 -11 -29 -36 -43 -54 -51 -67 -76 -95 -88 -97 -21 -5
-14 12 38 85 33 48 48 77 43 88 -4 11 -3 15 5 10 16 -10 28 63 13 85 -13 21
-15 63 -3 55 5 -3 6 9 3 27 -4 31 -5 32 -12 7 -7 -20 -8 -16 -6 17 1 23 -1 39
-5 37 -7 -5 -13 19 -9 40 1 5 -5 23 -13 40 -8 17 -18 49 -22 71 -4 22 -17 56
-29 75 -12 19 -25 48 -29 65 -4 16 -11 32 -15 35 -4 3 -17 20 -30 38 -14 21
-29 31 -38 28 -8 -3 -11 -1 -8 4 3 6 0 10 -8 10 -8 0 -36 -23 -63 -50z m17
-147 c-4 -172 -18 -159 -20 18 -1 107 2 129 18 129 3 0 4 -66 2 -147z m168
-239 c-17 -55 -35 -103 -39 -107 -9 -10 23 110 46 171 30 79 25 36 -7 -64z
m1565 -73 c9 -41 15 -76 13 -78 -6 -6 -47 125 -47 149 0 41 17 4 34 -71z m416
-35 c0 -23 -14 -36 -125 -111 -85 -58 -86 -59 -79 -40 4 9 17 21 30 26 13 4
24 15 24 24 0 8 4 15 9 15 5 0 35 27 67 60 58 61 74 66 74 26z m-1076 -103
c-5 -2 -16 -8 -24 -13 -13 -8 -13 -11 -1 -19 16 -10 6 -31 -14 -31 -9 0 -12 6
-9 15 4 8 1 15 -5 15 -23 0 -10 26 20 37 28 11 30 15 25 50 -5 35 -4 35 6 -6
7 -27 8 -46 2 -48z m-291 42 c-4 -27 -2 -36 11 -41 10 -4 14 -13 11 -24 -4
-13 1 -20 15 -25 19 -6 29 -25 13 -25 -15 0 -63 37 -57 43 4 4 2 13 -4 20 -12
14 -5 87 9 87 4 0 5 -16 2 -35z m201 29 c9 -3 16 -10 16 -16 0 -14 -43 -5 -48
10 -4 13 7 15 32 6z m-104 -14 c0 -5 -7 -10 -15 -10 -8 0 -15 5 -15 10 0 6 7
10 15 10 8 0 15 -4 15 -10z m70 -40 c20 -40 20 -40 1 -77 l-19 -37 -21 34
c-23 38 -27 71 -11 101 16 28 27 23 50 -21z m-1078 -94 c37 -38 66 -72 63 -74
-7 -8 -72 41 -127 94 -37 36 -48 53 -48 78 l1 31 21 -30 c12 -16 52 -61 90
-99z m1098 -17 c44 32 51 17 9 -18 -30 -26 -37 -28 -54 -17 -11 7 -30 19 -42
27 -40 24 -25 31 16 7 l40 -23 31 24z m-855 -34 c19 -19 35 -39 35 -45 0 -6
12 -8 30 -5 29 5 30 4 30 -34 0 -40 -17 -91 -30 -91 -4 0 -17 11 -30 25 -14
15 -35 25 -51 25 -42 0 -99 37 -99 65 0 13 -3 30 -6 39 -4 10 6 21 33 35 21
11 42 20 46 21 4 0 23 -16 42 -35z m-217 -111 c-8 -7 -149 -94 -154 -94 -2 0
-4 6 -4 13 0 8 35 30 78 50 76 37 90 42 80 31z m2148 -271 c31 -29 59 -53 63
-53 3 0 26 -18 50 -39 l44 -38 -17 -69 c-32 -128 -37 -144 -46 -144 -13 0 -87
130 -115 203 -13 34 -37 93 -54 130 -17 38 -38 96 -46 130 -9 34 -18 71 -21
82 -3 11 15 -18 41 -65 30 -56 65 -103 101 -137z m36 151 c42 -28 90 -57 107
-64 26 -10 31 -18 31 -46 0 -19 -4 -34 -8 -34 -10 0 -178 147 -212 185 -29 32
-23 29 82 -41z m-2215 -36 c-3 -8 -6 -5 -6 6 -1 11 2 17 5 13 3 -3 4 -12 1
-19z m1992 -260 c5 -29 8 -55 6 -56 -9 -10 -26 84 -30 168 l-4 95 9 -77 c5
-43 13 -101 19 -130z m-1995 105 c-3 -43 -17 -115 -30 -161 -13 -45 -24 -91
-24 -103 0 -42 -19 -6 -35 66 l-17 75 43 84 c24 46 48 82 53 79 5 -3 6 -1 2 5
-7 11 0 32 10 32 3 0 2 -35 -2 -77z m373 55 c-3 -8 -6 -5 -6 6 -1 11 2 17 5
13 3 -3 4 -12 1 -19z m457 -21 c-3 -8 -23 -24 -44 -36 -22 -12 -54 -34 -70
-48 l-31 -25 13 27 c20 44 148 123 132 82z m-913 -22 c5 3 6 -1 2 -10 -5 -13
-7 -14 -14 -3 -7 11 -9 10 -9 -1 0 -8 -2 -12 -5 -10 -2 3 -1 16 2 29 6 20 8
21 11 7 2 -9 8 -15 13 -12z m1438 1 c21 -14 49 -39 61 -56 21 -29 19 -28 -49
17 -66 43 -85 63 -61 63 6 0 28 -11 49 -24z m-1456 -51 c-3 -9 -8 -14 -10 -11
-3 3 -2 9 2 15 9 16 15 13 8 -4z m1987 -100 c0 -5 -5 -3 -10 5 -5 8 -10 20
-10 25 0 6 5 3 10 -5 5 -8 10 -19 10 -25z m-1703 -143 c-2 -15 -4 -2 -4 28 0
30 2 43 4 28 2 -16 2 -40 0 -56z"/>
<path d="M1403 1573 c-24 -8 -43 -19 -43 -24 0 -6 -4 -8 -9 -4 -16 9 -20 -9
-5 -23 11 -10 17 -9 34 8 11 11 23 20 26 20 3 0 12 7 21 16 17 17 72 11 85
-10 5 -7 8 -5 8 5 0 32 -48 37 -117 12z"/>
<path d="M1570 1568 c0 -11 8 -18 20 -18 10 0 23 -8 29 -17 9 -17 10 -17 16
-1 4 10 12 15 18 11 5 -3 7 -2 4 4 -4 5 -21 10 -38 11 -18 0 -36 7 -40 14 -7
10 -9 9 -9 -4z"/>
<path d="M1530 1560 c0 -5 5 -10 10 -10 6 0 10 5 10 10 0 6 -4 10 -10 10 -5 0
-10 -4 -10 -10z"/>
<path d="M1650 1511 c5 -11 10 -30 10 -42 0 -12 3 -20 6 -16 10 9 -5 77 -17
77 -6 0 -6 -7 1 -19z"/>
<path d="M770 1471 c0 -6 4 -13 10 -16 6 -3 7 1 4 9 -7 18 -14 21 -14 7z"/>
<path d="M794 1391 c22 -47 56 -101 56 -88 0 23 -53 134 -64 134 -10 0 -8 -12
8 -46z"/>
<path d="M1363 1433 c-7 -2 -13 -12 -13 -20 0 -12 3 -13 15 -3 8 6 22 10 31 8
16 -3 17 -4 1 -20 -23 -23 -21 -37 3 -31 15 4 19 12 17 30 -4 33 -26 48 -54
36z"/>
<path d="M1595 1430 c-3 -5 3 -10 14 -10 11 0 25 -8 30 -17 9 -16 10 -16 11 3
0 29 -41 46 -55 24z"/>
<path d="M2641 1400 c14 -31 19 -36 19 -24 0 6 -7 19 -16 30 -14 18 -14 18 -3
-6z"/>
<path d="M1583 1395 c-18 -20 -16 -25 12 -25 18 0 25 5 25 20 0 23 -19 26 -37
5z"/>
<path d="M1477 1303 c-30 -5 -41 -21 -51 -76 l-7 -38 30 15 c35 19 69 20 107
6 26 -10 26 -10 20 22 -3 17 -13 42 -21 55 -15 23 -23 24 -78 16z"/>
<path d="M1694 1283 c0 -9 -5 -18 -13 -21 -9 -3 -11 0 -6 9 5 8 4 10 0 6 -13
-11 -15 -38 -2 -30 7 4 8 0 4 -13 -7 -18 -6 -18 9 1 29 37 35 53 20 58 -8 3
-13 -1 -12 -10z"/>
<path d="M1293 1269 c-2 -23 3 -25 10 -4 4 8 3 16 -1 19 -4 3 -9 -4 -9 -15z"/>
<path d="M312 1201 c-6 -16 -8 -40 -5 -53 4 -19 3 -20 -7 -8 -10 13 -11 12 -6
-3 3 -10 6 -28 6 -39 0 -50 16 7 25 90 6 49 1 54 -13 13z"/>
<path d="M281 1104 c0 -11 3 -14 6 -6 3 7 2 16 -1 19 -3 4 -6 -2 -5 -13z"/>
<path d="M321 1084 c0 -11 3 -14 6 -6 3 7 2 16 -1 19 -3 4 -6 -2 -5 -13z"/>
<path d="M306 1014 c-4 -20 -5 -38 -3 -40 3 -3 8 11 11 32 4 20 5 38 3 40 -3
3 -8 -11 -11 -32z"/>
<path d="M2861 994 c0 -11 3 -14 6 -6 3 7 2 16 -1 19 -3 4 -6 -2 -5 -13z"/>
<path d="M92 930 c0 -19 2 -27 5 -17 2 9 2 25 0 35 -3 9 -5 1 -5 -18z"/>
<path d="M2901 933 c-1 -7 6 -56 14 -110 8 -54 17 -129 20 -166 4 -38 9 -66
11 -64 8 7 -25 302 -35 329 -6 13 -10 18 -10 11z"/>
<path d="M845 840 c-2 -3 0 -11 4 -18 5 -8 10 -6 18 7 9 14 8 18 -3 18 -8 0
-17 -3 -19 -7z"/>
<path d="M82 725 c0 -16 2 -22 5 -12 2 9 2 23 0 30 -3 6 -5 -1 -5 -18z"/>
<path d="M92 670 c0 -14 2 -19 5 -12 2 6 2 18 0 25 -3 6 -5 1 -5 -13z"/>
<path d="M92 620 c0 -14 2 -19 5 -12 2 6 2 18 0 25 -3 6 -5 1 -5 -13z"/>
<path d="M2987 422 c-7 -128 -36 -254 -78 -347 -16 -37 -28 -70 -24 -73 10
-11 25 13 49 83 27 76 35 59 11 -21 -20 -65 -20 -64 20 -64 l35 0 0 265 c0
146 -2 265 -3 265 -2 0 -7 -48 -10 -108z m-20 -254 c-3 -8 -6 -5 -6 6 -1 11 2
17 5 13 3 -3 4 -12 1 -19z"/>
<path d="M2829 458 c0 -13 -2 -41 -4 -63 -12 -118 -13 -179 -4 -156 11 29 25
241 16 241 -4 0 -7 -10 -8 -22z"/>
<path d="M2876 315 c-28 -159 -59 -250 -81 -241 -10 4 -20 -6 -30 -31 -8 -19
-15 -37 -15 -39 0 -2 26 -4 59 -4 l59 0 6 34 c4 19 4 47 0 62 -4 15 -1 70 6
123 13 98 10 173 -4 96z"/>
<path d="M271 213 c-1 -21 -15 -25 -38 -10 -11 7 -3 -38 28 -155 13 -47 14
-48 51 -48 l37 0 -31 83 c-17 45 -34 98 -38 117 -5 21 -8 27 -9 13z"/>
<path d="M351 64 c0 -11 3 -14 6 -6 3 7 2 16 -1 19 -3 4 -6 -2 -5 -13z"/>
</g>
</svg>
