<?xml version="1.0" standalone="no"?>
<!DOCTYPE svg PUBLIC "-//W3C//DTD SVG 20010904//EN"
 "http://www.w3.org/TR/2001/REC-SVG-20010904/DTD/svg10.dtd">
<svg version="1.0" xmlns="http://www.w3.org/2000/svg"
 width="766.000000pt" height="367.000000pt" viewBox="0 0 766.000000 367.000000"
 preserveAspectRatio="xMidYMid meet">

<g transform="translate(0.000000,367.000000) scale(0.100000,-0.100000)"
fill="#000000" stroke="none">
<path d="M1620 3250 c0 -24 35 -28 44 -4 9 23 8 24 -19 24 -18 0 -25 -5 -25
-20z"/>
<path d="M3125 3260 c-4 -6 -1 -17 5 -25 18 -21 -7 -143 -32 -156 -31 -17 -22
-41 15 -37 27 2 33 8 35 31 2 15 7 27 11 27 14 0 32 -27 29 -41 -2 -10 9 -14
41 -14 46 0 68 20 34 31 -10 4 -28 16 -40 27 -22 19 -22 22 -6 39 9 10 24 18
33 18 17 0 40 18 40 32 0 4 -20 8 -45 8 -32 0 -45 -4 -45 -14 0 -7 -7 -20 -17
-27 -15 -13 -15 -10 -9 26 4 22 10 50 13 63 4 19 1 22 -25 22 -17 0 -34 -5
-37 -10z"/>
<path d="M3410 3250 c0 -24 35 -28 44 -4 9 23 8 24 -19 24 -18 0 -25 -5 -25
-20z"/>
<path d="M4547 3259 c-10 -6 -22 -22 -27 -35 -6 -14 -18 -24 -30 -24 -24 0
-27 -25 -4 -38 24 -13 9 -80 -19 -84 -12 -2 -23 -11 -25 -20 -3 -16 5 -18 71
-18 55 0 76 4 80 14 8 19 -1 26 -35 26 -29 0 -34 12 -22 58 5 17 14 22 39 22
32 0 61 20 48 33 -3 4 -22 7 -40 7 -54 0 -35 24 23 30 35 4 49 9 49 20 0 19
-81 25 -108 9z"/>
<path d="M4715 3260 c-9 -15 4 -30 26 -30 21 0 23 -9 10 -60 -5 -19 -12 -47
-15 -62 -5 -21 -13 -27 -38 -30 -22 -2 -34 -9 -36 -21 -3 -16 4 -18 80 -15 69
3 83 6 86 21 3 13 -3 17 -27 17 -17 0 -31 3 -31 8 0 6 9 47 35 160 5 20 2 22
-39 22 -25 0 -48 -4 -51 -10z"/>
<path d="M7274 3259 c-3 -6 -1 -16 5 -22 6 -6 11 -19 11 -29 0 -16 -3 -17 -21
-7 -47 25 -131 -20 -145 -78 -14 -55 41 -104 95 -85 14 5 42 7 62 5 26 -4 38
-1 42 11 3 8 0 19 -8 23 -12 7 -11 21 5 93 11 47 20 88 20 93 0 11 -58 8 -66
-4z m-16 -101 c37 -37 -14 -100 -66 -82 -34 12 -40 46 -13 73 23 23 61 27 79
9z"/>
<path d="M233 3253 c-20 -8 -15 -31 7 -35 19 -3 17 -8 -20 -67 -21 -36 -46
-69 -55 -73 -32 -19 -17 -38 30 -38 38 0 45 3 45 20 0 11 -5 20 -11 20 -5 0
-7 5 -4 10 7 12 95 14 95 2 0 -4 -9 -13 -20 -20 -30 -19 -15 -32 36 -32 37 0
44 3 44 20 0 11 -4 20 -9 20 -5 0 -14 30 -21 68 -20 106 -24 112 -67 111 -21
0 -44 -3 -50 -6z m54 -111 c-28 -5 -31 3 -10 34 l18 28 5 -29 c4 -24 2 -31
-13 -33z"/>
<path d="M459 3231 c-6 -17 -17 -31 -24 -31 -22 0 -29 -22 -11 -35 14 -10 15
-20 8 -53 -11 -46 -2 -67 31 -76 33 -8 112 16 112 34 0 15 -9 16 -72 4 -31 -6
-33 -5 -33 24 0 51 9 62 50 62 36 0 67 20 53 33 -3 4 -24 7 -45 7 -36 0 -39 2
-36 26 4 39 -20 42 -33 5z"/>
<path d="M687 3254 c-4 -4 -7 -16 -7 -26 0 -11 -11 -23 -25 -28 -28 -11 -33
-28 -10 -36 11 -5 14 -20 12 -62 -2 -54 -1 -56 28 -65 37 -10 110 11 110 33 0
9 -7 14 -20 12 -96 -16 -92 -19 -79 47 6 27 11 31 39 31 43 0 65 9 65 26 0 10
-13 14 -44 14 -42 0 -45 2 -43 26 2 26 -12 41 -26 28z"/>
<path d="M1354 3230 c-5 -21 -12 -30 -25 -30 -22 0 -26 -28 -5 -36 11 -4 11
-15 3 -51 -9 -43 -8 -48 14 -66 24 -19 71 -17 111 4 24 13 24 44 1 34 -34 -13
-80 -17 -86 -8 -4 6 -4 26 0 46 5 34 8 37 38 37 43 0 65 9 65 26 0 10 -12 14
-40 14 -38 0 -40 2 -40 30 0 20 -5 30 -15 30 -9 0 -18 -12 -21 -30z"/>
<path d="M5167 3254 c-4 -4 -7 -16 -7 -26 0 -11 -11 -23 -25 -28 -28 -11 -33
-28 -10 -36 11 -5 14 -20 12 -62 -2 -54 -1 -56 28 -65 37 -10 110 11 110 33 0
9 -7 14 -20 12 -96 -16 -92 -19 -79 47 6 27 11 31 39 31 43 0 65 9 65 26 0 10
-13 14 -44 14 -42 0 -45 2 -43 26 2 26 -12 41 -26 28z"/>
<path d="M5387 3231 c-7 -19 -18 -31 -29 -31 -22 0 -24 -26 -4 -37 12 -7 13
-17 5 -53 -9 -41 -8 -46 12 -63 26 -21 77 -17 118 10 34 22 13 34 -36 20 -52
-14 -64 -4 -54 43 5 27 12 36 31 38 52 6 70 13 70 27 0 11 -11 15 -41 15 -38
0 -40 2 -37 27 4 38 -21 41 -35 4z"/>
<path d="M912 3193 c-59 -29 -80 -103 -41 -139 34 -31 159 -21 159 12 0 14 -9
15 -58 9 -47 -5 -61 -3 -71 9 -12 14 -6 16 62 16 64 0 76 3 79 18 7 29 -12 69
-38 81 -33 15 -53 14 -92 -6z m72 -29 c32 -12 14 -24 -36 -24 -49 1 -51 2 -34
15 21 16 44 19 70 9z"/>
<path d="M1187 3204 c-3 -3 -25 -7 -48 -8 l-43 -1 0 -53 c-1 -40 -6 -56 -19
-63 -32 -18 -20 -39 22 -39 44 0 59 13 41 35 -18 21 -2 74 25 87 40 18 57 4
49 -39 -4 -21 -13 -42 -20 -46 -27 -16 -15 -37 20 -37 37 0 55 15 38 32 -6 6
-6 25 1 56 9 42 7 47 -13 64 -23 18 -42 23 -53 12z"/>
<path d="M1815 3194 c-111 -57 -67 -193 50 -154 73 24 100 109 49 149 -32 25
-58 26 -99 5z m80 -44 c16 -18 17 -21 1 -45 -32 -48 -98 -44 -104 8 -6 49 68
76 103 37z"/>
<path d="M2087 3204 c-4 -4 -26 -7 -50 -6 l-43 2 0 -55 c0 -46 -4 -58 -22 -71
-30 -21 -19 -34 29 -34 32 0 39 3 39 20 0 11 -4 20 -8 20 -18 0 1 62 24 76 37
25 60 15 56 -26 -2 -19 -10 -42 -18 -51 -23 -26 -16 -39 20 -39 38 0 54 14 37
33 -6 8 -7 27 -1 52 9 38 -1 75 -20 75 -4 0 -15 2 -22 5 -8 3 -17 3 -21 -1z"/>
<path d="M2482 3198 c-24 -12 -38 -48 -29 -72 3 -8 26 -18 51 -21 50 -8 60
-21 22 -31 -16 -4 -36 1 -56 12 -27 16 -32 17 -40 4 -22 -34 -12 -48 39 -55
88 -12 158 39 115 86 -9 10 -27 19 -38 20 -12 0 -30 4 -41 9 -18 7 -18 8 8 15
20 5 33 3 47 -10 16 -15 22 -15 35 -5 8 7 15 22 15 34 0 19 -6 22 -52 23 -29
1 -63 -3 -76 -9z"/>
<path d="M2704 3194 c-43 -21 -71 -74 -58 -111 14 -39 49 -55 109 -48 50 6 75
19 75 38 0 6 -20 7 -54 3 -30 -3 -62 -3 -70 0 -34 13 -13 23 57 26 70 3 72 4
75 30 2 19 -5 36 -22 53 -29 29 -66 32 -112 9z m70 -30 c31 -12 15 -24 -31
-24 -44 1 -47 2 -29 15 21 16 36 18 60 9z"/>
<path d="M2940 3199 c-120 -50 -88 -186 38 -163 85 15 102 50 19 40 -29 -4
-61 -4 -70 0 -35 13 -14 23 56 26 69 3 72 4 75 29 6 53 -61 92 -118 68z m70
-44 c11 -13 5 -15 -41 -15 -50 1 -52 2 -35 15 25 19 60 19 76 0z"/>
<path d="M3646 3203 c-3 -4 -24 -6 -45 -5 -40 3 -64 -14 -42 -28 18 -11 3 -78
-21 -94 -27 -19 -14 -36 28 -36 34 0 62 29 36 38 -15 5 -5 50 16 75 8 9 26 17
39 17 20 0 23 -5 23 -34 0 -18 -9 -45 -20 -58 -23 -30 -18 -38 26 -38 31 0 54
23 34 35 -5 3 -6 29 -3 57 5 42 3 53 -12 64 -20 15 -47 18 -59 7z"/>
<path d="M3822 3193 c-44 -21 -69 -73 -56 -111 13 -36 51 -54 92 -43 26 8 30
7 25 -7 -9 -25 -24 -32 -64 -32 -42 0 -61 -25 -28 -35 32 -11 84 3 106 28 12
12 28 53 36 91 10 46 22 73 36 83 29 20 17 34 -27 33 -20 -1 -48 2 -62 5 -14
3 -39 -2 -58 -12z m62 -29 c26 -10 20 -61 -9 -80 -54 -35 -100 21 -55 66 21
21 37 24 64 14z"/>
<path d="M4950 3201 c-14 -4 -26 -15 -28 -24 -3 -16 2 -17 47 -11 40 5 51 4
51 -7 0 -10 -14 -14 -46 -15 -49 -2 -94 -33 -94 -66 0 -28 44 -51 82 -42 18 4
47 6 64 5 36 -3 52 13 34 34 -7 8 -9 31 -4 64 6 48 5 51 -20 61 -30 11 -49 11
-86 1z m58 -103 c-6 -16 -55 -31 -74 -24 -13 5 -14 9 -4 21 15 18 84 21 78 3z"/>
<path d="M5624 3196 c-100 -45 -95 -162 8 -161 61 1 98 13 98 31 0 14 -8 16
-50 10 -34 -5 -57 -2 -73 6 -20 12 -13 14 58 18 77 5 80 6 83 31 7 56 -63 93
-124 65z m72 -41 c17 -13 14 -14 -40 -15 -55 0 -58 1 -40 15 25 19 55 19 80 0z"/>
<path d="M5912 3195 c-18 -8 -30 -10 -27 -5 4 6 -9 10 -29 10 -40 0 -57 -18
-33 -35 23 -16 12 -85 -13 -85 -10 0 -23 -7 -30 -15 -17 -21 3 -27 81 -23 51
2 64 6 67 21 3 13 -4 17 -31 17 -31 0 -34 2 -29 26 6 32 57 66 88 58 29 -7 42
15 19 33 -23 16 -22 16 -63 -2z"/>
<path d="M6740 3201 c-14 -4 -26 -15 -28 -24 -3 -16 2 -17 47 -11 40 5 51 4
51 -7 0 -10 -14 -14 -46 -15 -49 -2 -94 -33 -94 -66 0 -28 44 -51 82 -42 18 4
47 6 64 5 36 -3 52 13 34 34 -7 8 -9 31 -4 64 6 48 5 51 -20 61 -30 11 -49 11
-86 1z m58 -103 c-6 -16 -55 -31 -74 -24 -13 5 -14 9 -4 21 15 18 84 21 78 3z"/>
<path d="M7006 3203 c-3 -4 -24 -6 -45 -5 -40 3 -64 -14 -42 -28 18 -11 3 -78
-21 -94 -27 -19 -14 -36 28 -36 34 0 62 29 36 38 -15 5 -5 50 16 75 8 9 26 17
39 17 20 0 23 -5 23 -34 0 -18 -9 -45 -20 -58 -23 -30 -18 -38 26 -38 31 0 54
23 34 35 -5 3 -6 29 -3 57 5 42 3 53 -12 64 -20 15 -47 18 -59 7z"/>
<path d="M1564 3189 c-7 -12 13 -29 35 -29 10 0 12 -8 7 -31 -3 -17 -6 -35 -6
-40 0 -5 -11 -9 -24 -9 -35 0 -56 -10 -56 -26 0 -12 17 -14 88 -12 69 2 87 6
87 18 0 10 -12 16 -32 18 -30 3 -31 5 -23 35 23 93 25 87 -24 87 -25 0 -48 -5
-52 -11z"/>
<path d="M3354 3189 c-7 -12 13 -29 35 -29 10 0 12 -8 7 -31 -3 -17 -6 -35 -6
-40 0 -5 -11 -9 -24 -9 -35 0 -56 -10 -56 -26 0 -12 17 -14 88 -12 69 2 87 6
87 18 0 10 -12 16 -32 18 -30 3 -31 5 -23 35 23 93 25 87 -24 87 -25 0 -48 -5
-52 -11z"/>
<path d="M6015 3190 c-3 -5 1 -20 9 -32 8 -13 20 -44 26 -69 15 -60 3 -87 -43
-91 -20 -2 -32 -8 -32 -18 0 -17 61 -26 102 -16 23 6 32 31 13 38 -12 4 107
168 121 168 5 0 9 7 9 15 0 11 -11 15 -41 15 -38 0 -41 -2 -35 -23 4 -17 -3
-33 -23 -58 l-29 -34 -10 35 c-7 26 -6 39 4 51 8 9 11 19 7 22 -10 11 -71 8
-78 -3z"/>
<path d="M4025 3040 c-28 -55 -29 -60 -16 -60 9 0 81 92 81 104 0 3 -9 6 -20
6 -14 0 -27 -15 -45 -50z"/>
<path d="M6265 3040 c-28 -55 -29 -60 -16 -60 9 0 81 92 81 104 0 3 -9 6 -20
6 -14 0 -27 -15 -45 -50z"/>
<path d="M885 2840 c-4 -6 -1 -17 5 -25 18 -21 -7 -143 -32 -156 -31 -17 -22
-41 15 -37 27 2 33 8 35 31 2 15 7 27 11 27 14 0 32 -27 29 -41 -2 -10 9 -14
41 -14 46 0 68 20 34 31 -10 4 -28 16 -40 27 -22 19 -22 22 -6 39 9 10 24 18
33 18 17 0 40 18 40 32 0 4 -20 8 -45 8 -32 0 -45 -4 -45 -14 0 -7 -7 -20 -17
-27 -15 -13 -15 -10 -9 26 4 22 10 50 13 63 4 19 1 22 -25 22 -17 0 -34 -5
-37 -10z"/>
<path d="M1170 2830 c0 -24 35 -28 44 -4 9 23 8 24 -19 24 -18 0 -25 -5 -25
-20z"/>
<path d="M2255 2840 c-9 -14 3 -30 24 -30 16 0 16 -4 2 -75 -14 -66 -18 -75
-37 -75 -33 0 -54 -10 -54 -26 0 -12 17 -14 88 -12 69 2 87 6 87 18 0 9 -11
16 -27 18 -33 4 -34 12 -13 97 22 92 21 95 -24 95 -22 0 -43 -4 -46 -10z"/>
<path d="M2446 2835 c-3 -8 1 -18 9 -22 21 -12 -8 -139 -38 -163 -19 -16 -20
-19 -5 -25 34 -13 63 -1 66 28 2 15 5 27 8 27 14 0 30 -27 26 -43 -4 -16 1
-18 43 -15 53 3 70 23 33 37 -13 5 -31 18 -41 29 -18 19 -18 20 5 36 12 9 28
16 34 16 15 0 37 27 27 33 -4 2 -20 7 -36 11 -22 5 -33 1 -53 -21 l-26 -28 7
35 c4 19 9 45 12 58 5 20 1 22 -30 22 -21 0 -37 -6 -41 -15z"/>
<path d="M2925 2840 c-9 -15 4 -30 26 -30 15 0 19 -5 15 -17 -2 -10 -10 -44
-16 -75 -11 -54 -13 -58 -39 -58 -34 0 -62 -26 -39 -35 8 -3 48 -5 89 -3 58 2
74 6 74 18 0 9 -11 16 -27 18 -33 4 -33 3 -9 110 l18 82 -43 0 c-24 0 -46 -4
-49 -10z"/>
<path d="M3190 2830 c0 -13 7 -20 19 -20 10 0 21 9 24 20 4 16 0 20 -19 20
-17 0 -24 -6 -24 -20z"/>
<path d="M4102 2844 c-7 -3 -19 -19 -27 -35 -9 -16 -22 -29 -30 -29 -23 0 -29
-22 -10 -36 26 -19 13 -81 -18 -86 -12 -2 -23 -11 -25 -21 -3 -16 4 -18 75
-15 61 2 78 6 78 18 0 10 -12 16 -34 18 -31 3 -33 5 -27 34 3 17 6 34 6 39 0
5 13 9 29 9 39 0 61 9 61 26 0 9 -12 14 -35 14 -24 0 -35 5 -35 15 0 11 12 15
51 15 43 0 50 3 47 18 -2 13 -14 17 -48 19 -25 1 -51 -1 -58 -3z"/>
<path d="M5125 2840 c-4 -6 -1 -17 5 -25 18 -21 -7 -143 -32 -156 -36 -20 -21
-40 30 -39 26 0 63 0 82 -1 28 0 42 7 68 35 39 43 41 78 6 113 -22 22 -31 24
-66 19 l-40 -7 6 36 c7 34 6 35 -23 35 -16 0 -33 -5 -36 -10z m133 -102 c18
-18 14 -45 -10 -68 -38 -36 -88 -21 -88 26 0 41 69 71 98 42z"/>
<path d="M6550 2830 c0 -13 7 -20 19 -20 10 0 21 9 24 20 4 16 0 20 -19 20
-17 0 -24 -6 -24 -20z"/>
<path d="M5609 2811 c-6 -17 -17 -31 -24 -31 -22 0 -29 -22 -11 -35 14 -10 15
-20 8 -53 -11 -46 -2 -67 31 -76 33 -8 112 16 112 34 0 15 -9 16 -72 4 -31 -6
-33 -5 -33 24 0 51 9 62 50 62 36 0 67 20 53 33 -3 4 -24 7 -45 7 -36 0 -39 2
-36 26 4 39 -20 42 -33 5z"/>
<path d="M5834 2810 c-5 -21 -12 -30 -25 -30 -22 0 -26 -28 -5 -36 11 -4 11
-15 3 -51 -9 -43 -8 -48 14 -66 24 -19 71 -17 111 4 24 13 24 44 1 34 -34 -13
-80 -17 -86 -8 -4 6 -4 26 0 46 5 34 8 37 38 37 43 0 65 9 65 26 0 10 -12 14
-40 14 -38 0 -40 2 -40 30 0 20 -5 30 -15 30 -9 0 -18 -12 -21 -30z"/>
<path d="M251 2777 c-61 -31 -51 -76 18 -90 48 -10 51 -30 4 -35 -18 -2 -35 3
-43 12 -19 24 -39 19 -46 -9 -4 -14 -4 -28 -1 -31 3 -3 33 -7 67 -7 56 -2 64
1 86 26 19 22 22 32 14 47 -10 18 -18 22 -73 34 -15 4 -25 11 -22 16 9 15 48
12 72 -5 20 -14 23 -14 33 5 6 12 10 26 8 32 -6 16 -89 20 -117 5z"/>
<path d="M710 2783 c-28 -10 -69 -56 -75 -85 -9 -39 16 -75 57 -83 44 -8 112
15 116 39 3 16 0 18 -19 11 -49 -15 -77 -17 -98 -6 -27 15 -27 45 1 71 29 27
71 26 91 -2 18 -28 37 -15 40 26 2 26 0 28 -48 31 -27 2 -57 1 -65 -2z"/>
<path d="M1406 2783 c-3 -4 -24 -6 -45 -5 -40 3 -64 -14 -42 -28 18 -11 3 -78
-21 -94 -27 -19 -14 -36 28 -36 34 0 62 29 36 38 -15 5 -5 50 16 75 8 9 26 17
39 17 20 0 23 -5 23 -34 0 -18 -9 -45 -20 -58 -23 -30 -18 -38 26 -38 31 0 54
23 34 35 -5 3 -6 29 -3 57 5 42 3 53 -12 64 -20 15 -47 18 -59 7z"/>
<path d="M1582 2773 c-44 -21 -69 -73 -56 -111 13 -36 51 -54 92 -43 26 8 30
7 25 -7 -9 -25 -24 -32 -64 -32 -42 0 -61 -25 -28 -35 32 -11 84 3 106 28 12
12 28 53 36 91 10 46 22 73 36 83 29 20 17 34 -27 33 -20 -1 -48 2 -62 5 -14
3 -39 -2 -58 -12z m62 -29 c26 -10 20 -61 -9 -80 -54 -35 -100 21 -55 66 21
21 37 24 64 14z"/>
<path d="M2045 2781 c-16 -3 -31 -14 -33 -23 -3 -13 5 -16 44 -15 26 1 49 -3
51 -9 2 -7 -14 -11 -43 -12 -56 0 -97 -32 -92 -72 3 -24 5 -25 90 -27 89 -2
117 8 85 32 -13 9 -14 18 -5 54 9 34 8 45 -3 56 -18 18 -57 25 -94 16z m55
-101 c0 -12 -42 -30 -71 -30 -21 0 -26 25 -6 33 23 10 77 7 77 -3z"/>
<path d="M2710 2781 c-14 -4 -26 -15 -28 -25 -3 -15 2 -17 41 -11 26 4 47 3
51 -3 3 -5 -14 -12 -40 -15 -78 -8 -128 -84 -71 -106 36 -14 158 -1 165 17 3
9 0 18 -6 20 -8 2 -10 20 -6 57 6 47 4 54 -14 64 -23 12 -53 13 -92 2z m58
-103 c-6 -16 -55 -31 -74 -24 -13 5 -14 9 -4 21 15 18 84 21 78 3z"/>
<path d="M3427 2784 c-3 -3 -25 -7 -48 -8 l-43 -1 0 -53 c-1 -40 -6 -56 -19
-63 -32 -18 -20 -39 22 -39 44 0 59 13 41 35 -18 21 -2 74 25 87 40 18 57 4
49 -39 -4 -21 -13 -42 -20 -46 -27 -16 -15 -37 20 -37 37 0 55 15 38 32 -6 6
-6 25 1 56 9 42 7 47 -13 64 -23 18 -42 23 -53 12z"/>
<path d="M3604 2776 c-87 -39 -86 -144 2 -162 34 -6 106 15 112 35 4 11 -7 12
-55 6 -48 -5 -62 -3 -72 9 -12 14 -5 16 63 16 l76 0 0 33 c0 59 -64 91 -126
63z m76 -41 c11 -13 5 -15 -41 -15 -50 1 -52 2 -35 15 25 19 60 19 76 0z"/>
<path d="M4348 2776 c-16 -8 -28 -11 -28 -5 0 13 -67 11 -76 -3 -4 -6 1 -17
10 -24 25 -18 12 -82 -17 -86 -12 -2 -23 -11 -25 -20 -3 -16 5 -18 71 -18 55
0 76 4 80 14 8 19 -1 26 -35 26 -23 0 -28 4 -28 25 0 33 52 66 92 58 21 -4 28
-2 28 10 0 9 -9 21 -19 27 -24 12 -21 13 -53 -4z"/>
<path d="M4503 2776 c-91 -41 -83 -160 11 -160 63 0 116 47 116 102 0 52 -69
84 -127 58z m77 -40 c31 -39 -19 -96 -73 -82 -22 5 -27 12 -27 36 0 48 70 81
100 46z"/>
<path d="M4701 2781 c-25 -3 -46 -12 -49 -18 -2 -7 2 -13 8 -13 16 0 4 -69
-16 -91 -23 -26 -16 -39 20 -39 38 0 53 14 37 34 -21 25 22 117 45 94 2 -3 -2
-33 -10 -67 l-14 -61 28 0 c33 0 47 15 31 34 -22 26 11 108 38 92 8 -5 1 -54
-15 -108 -4 -14 1 -18 24 -18 32 0 48 20 30 38 -8 8 -8 23 0 52 8 34 7 44 -8
62 -15 19 -21 21 -42 11 -15 -7 -30 -8 -39 -2 -8 5 -16 8 -19 7 -3 0 -25 -4
-49 -7z"/>
<path d="M5403 2783 c-22 -4 -52 -32 -37 -35 5 0 29 -1 53 -2 58 -1 64 -21 7
-21 -52 -1 -96 -34 -96 -72 0 -32 32 -42 113 -36 69 6 93 19 65 36 -12 8 -13
18 -5 55 9 42 7 48 -13 64 -21 17 -41 20 -87 11z m55 -105 c-7 -20 -66 -34
-81 -19 -9 9 -9 14 3 21 23 15 83 13 78 -2z"/>
<path d="M6074 2776 c-100 -45 -95 -162 8 -161 61 1 98 13 98 31 0 14 -8 16
-50 10 -34 -5 -57 -2 -73 6 -20 12 -13 14 58 18 77 5 80 6 83 31 7 56 -63 93
-124 65z m72 -41 c17 -13 14 -14 -40 -15 -55 0 -58 1 -40 15 25 19 55 19 80 0z"/>
<path d="M6358 2774 c-16 -8 -28 -10 -28 -4 0 5 -16 10 -35 10 -37 0 -49 -21
-20 -37 24 -14 1 -79 -30 -87 -14 -4 -25 -13 -25 -22 0 -12 13 -14 78 -12 60
2 77 6 77 18 0 10 -12 16 -32 18 -42 4 -43 25 -1 63 24 24 37 29 59 24 34 -8
49 13 24 32 -23 16 -33 16 -67 -3z"/>
<path d="M6744 2776 c-100 -45 -95 -162 8 -161 61 1 98 13 98 31 0 14 -8 16
-50 10 -34 -5 -57 -2 -73 6 -20 12 -13 14 58 18 77 5 80 6 83 31 7 56 -63 93
-124 65z m72 -41 c17 -13 14 -14 -40 -15 -55 0 -58 1 -40 15 25 19 55 19 80 0z"/>
<path d="M6971 2777 c-61 -31 -51 -76 18 -90 48 -10 51 -30 4 -35 -18 -2 -35
3 -43 12 -19 24 -39 19 -46 -9 -4 -14 -4 -28 -1 -31 3 -3 33 -7 67 -7 56 -2
64 1 86 26 19 22 22 32 14 47 -10 18 -18 22 -73 34 -15 4 -25 11 -22 16 9 15
48 12 72 -5 20 -14 23 -14 33 5 6 12 10 26 8 32 -6 16 -89 20 -117 5z"/>
<path d="M415 2770 c-4 -6 -2 -17 5 -25 7 -9 9 -30 5 -57 -8 -51 7 -71 52 -69
16 0 45 1 65 1 38 0 57 15 40 32 -6 6 -5 30 3 69 l13 59 -34 0 c-38 0 -54 -18
-31 -35 26 -19 12 -71 -23 -85 -51 -21 -57 -2 -33 98 4 19 1 22 -25 22 -17 0
-34 -5 -37 -10z"/>
<path d="M1114 2769 c-7 -12 13 -29 35 -29 10 0 12 -8 7 -31 -3 -17 -6 -35 -6
-40 0 -5 -11 -9 -24 -9 -35 0 -56 -10 -56 -26 0 -12 17 -14 88 -12 69 2 87 6
87 18 0 10 -12 16 -32 18 -30 3 -31 5 -23 35 23 93 25 87 -24 87 -25 0 -48 -5
-52 -11z"/>
<path d="M3135 2770 c-9 -15 4 -30 26 -30 16 0 18 -5 13 -27 -10 -49 -12 -52
-46 -55 -22 -2 -34 -9 -36 -20 -3 -16 6 -18 81 -18 64 0 86 4 90 14 8 19 -1
26 -35 26 -31 0 -31 -2 -8 88 l8 32 -43 0 c-24 0 -47 -4 -50 -10z"/>
<path d="M6495 2770 c-9 -15 4 -30 26 -30 16 0 18 -5 13 -27 -10 -49 -12 -52
-46 -55 -22 -2 -34 -9 -36 -20 -3 -16 6 -18 81 -18 64 0 86 4 90 14 8 19 -1
26 -35 26 -31 0 -31 -2 -8 88 l8 32 -43 0 c-24 0 -47 -4 -50 -10z"/>
<path d="M7183 2644 c-3 -9 0 -20 8 -24 17 -11 49 6 49 25 0 21 -49 19 -57 -1z"/>
<path d="M2494 2430 c-52 -8 -93 -25 -106 -44 -8 -10 -7 -22 8 -96 3 -17 12
-30 20 -30 8 0 14 -5 14 -11 0 -7 10 1 22 17 30 38 48 52 78 59 36 8 56 60 35
92 -9 13 -16 22 -18 22 -1 -1 -25 -5 -53 -9z"/>
<path d="M1935 2256 c-7 -35 0 -72 17 -93 34 -42 60 29 34 90 -19 47 -43 48
-51 3z"/>
<path d="M2431 2187 c-10 -25 -33 -45 -74 -66 -25 -13 -28 -19 -26 -63 2 -26
6 -48 10 -48 4 0 10 -16 13 -36 6 -28 3 -39 -15 -58 -19 -19 -27 -21 -73 -15
-28 3 -58 3 -67 -2 -9 -5 -19 -6 -21 -3 -3 2 -11 -2 -17 -10 -7 -8 -19 -12
-27 -9 -25 9 -15 -11 29 -57 41 -45 84 -126 51 -100 -18 16 -18 6 0 -29 34
-66 58 -193 53 -286 -4 -79 -9 -100 -44 -175 -72 -151 -156 -232 -313 -302
-86 -38 -105 -43 -205 -49 -60 -4 146 -6 458 -5 453 1 562 3 540 13 -15 7 -36
12 -46 13 -28 0 -117 73 -172 139 -27 33 -52 56 -55 51 -3 -4 -23 -11 -45 -15
-22 -3 -49 -10 -60 -15 -11 -4 -36 -15 -55 -23 -19 -8 -68 -18 -108 -22 l-73
-6 62 78 c34 43 70 98 81 123 25 57 24 57 50 34 12 -10 18 -13 14 -7 -12 20
-9 106 5 151 13 44 29 56 29 22 0 -11 5 -20 10 -20 6 0 10 11 10 24 0 13 6 26
13 29 9 3 8 12 -5 36 -17 30 -17 32 2 51 12 12 22 38 24 63 2 23 7 51 11 62 7
20 6 20 -9 1 -12 -15 -16 -16 -17 -5 -2 28 3 63 14 88 11 26 14 36 16 58 0 6
19 33 40 61 27 34 36 53 30 63 -16 26 -9 66 16 93 13 14 28 26 32 26 5 0 14 9
20 20 11 16 9 24 -12 48 -14 17 -25 32 -25 35 0 3 -14 19 -30 36 -31 30 -31
30 -39 8z m-91 -661 c0 -3 -4 -8 -10 -11 -5 -3 -10 -1 -10 4 0 6 5 11 10 11 6
0 10 -2 10 -4z"/>
<path d="M2744 2051 c-44 -15 -98 -38 -120 -51 -97 -58 -217 -181 -196 -202 6
-6 12 -6 16 1 4 6 2 11 -4 11 -6 0 -8 5 -4 11 4 8 9 7 15 -2 7 -12 9 -12 9 0
0 8 2 12 5 9 3 -3 -8 -29 -25 -58 -17 -29 -29 -54 -27 -57 4 -4 31 37 68 102
9 17 26 31 38 33 12 2 21 11 21 20 0 20 36 46 50 37 6 -4 10 1 10 9 0 17 34
39 43 29 4 -3 13 -1 20 6 19 15 44 5 50 -20 4 -13 11 -17 24 -13 17 5 17 5 0
-6 -10 -6 -14 -16 -10 -23 4 -7 8 -16 8 -22 0 -16 48 -13 68 3 9 9 33 16 52
16 18 1 37 5 40 8 4 4 13 4 21 1 9 -3 14 1 14 12 0 14 4 13 19 -6 19 -24 19
-24 41 -4 18 16 23 17 30 5 5 -8 6 -18 4 -22 -7 -12 39 -5 49 7 6 6 10 6 14
-3 2 -6 9 -10 14 -7 21 14 169 -93 169 -122 0 -7 4 -13 9 -13 5 0 14 -13 21
-30 7 -16 17 -30 22 -30 5 0 8 -8 6 -17 -2 -12 3 -18 14 -17 14 1 15 -2 8 -16
-5 -9 -7 -20 -3 -23 3 -4 8 -26 10 -49 2 -29 0 -38 -6 -29 -5 8 -8 24 -6 37 1
13 -2 24 -6 24 -5 0 -16 18 -25 40 -9 22 -20 40 -25 40 -9 0 7 -45 24 -67 5
-7 11 -32 12 -54 4 -49 21 -72 35 -49 7 10 10 11 10 3 0 -7 6 -13 14 -13 9 0
14 9 13 20 -1 11 -5 20 -9 20 -11 0 -4 38 10 52 17 17 15 23 -13 54 -13 14
-22 31 -19 35 3 5 8 21 10 35 4 20 1 25 -10 21 -8 -3 -20 2 -28 10 -11 15 -11
16 5 10 10 -4 31 -7 45 -7 21 0 24 -2 12 -10 -13 -8 -12 -10 3 -10 17 0 17 -2
-3 -27 -16 -20 -18 -28 -8 -35 20 -12 28 -9 21 9 -4 11 -3 14 5 9 7 -4 12 -1
12 9 0 9 5 13 11 9 6 -3 8 -17 4 -31 -5 -21 -3 -24 10 -19 23 9 37 -35 16 -51
-12 -9 -13 -12 -2 -13 8 0 11 -6 7 -16 -3 -8 -2 -12 4 -9 6 3 10 -2 10 -11 0
-10 -3 -14 -7 -11 -7 8 -39 -34 -35 -46 1 -5 -2 -6 -8 -2 -5 3 -10 2 -10 -4 0
-6 -6 -8 -14 -5 -17 6 -29 -23 -14 -32 6 -4 8 -3 5 3 -4 6 3 13 15 16 28 8 28
8 19 -33 -5 -26 -9 -31 -14 -17 -3 9 -11 17 -18 17 -6 0 -9 -7 -5 -15 4 -11
-1 -15 -18 -15 -14 0 -27 -9 -34 -22 -6 -13 -11 -17 -11 -10 -1 7 9 23 22 36
23 23 26 52 4 40 -8 -5 -8 -2 1 7 18 19 15 29 -8 29 -17 0 -19 -5 -14 -25 5
-19 2 -25 -11 -25 -12 0 -15 -5 -11 -16 6 -14 0 -40 -22 -104 -3 -8 -4 -19 -3
-24 1 -5 -4 -13 -11 -17 -10 -7 -9 -9 4 -9 9 0 20 5 23 10 11 18 31 11 45 -16
12 -22 12 -27 0 -35 -13 -8 -13 -10 -1 -18 17 -11 6 -31 -18 -31 -19 0 -91
-64 -91 -80 0 -6 -6 -10 -14 -10 -7 0 -16 -10 -19 -21 -4 -14 -11 -20 -21 -16
-9 4 -27 -4 -42 -18 -15 -14 -43 -27 -63 -30 -20 -4 -45 -11 -56 -16 -21 -10
-130 -7 -141 3 -11 11 -55 -15 -50 -29 3 -7 1 -13 -5 -13 -6 0 -6 -7 1 -19 7
-13 7 -22 0 -26 -5 -3 -10 -13 -10 -21 0 -21 477 -15 490 6 8 12 13 13 30 3
22 -15 86 -17 94 -4 3 4 36 7 73 6 353 -10 522 -16 541 -19 38 -5 19 18 -26
32 -53 17 -54 30 -2 27 38 -2 40 -1 40 27 0 18 -9 38 -26 53 -15 14 -23 29
-18 36 4 8 3 9 -4 5 -19 -12 -14 -36 11 -46 16 -7 8 -9 -37 -7 -47 2 -61 6
-70 22 -6 11 -16 24 -22 30 -6 5 -18 22 -27 38 -10 15 -26 27 -37 27 -23 0
-30 10 -35 50 -5 44 17 48 57 11 18 -17 39 -31 46 -32 6 -1 16 -2 21 -3 5 0
17 -11 27 -23 21 -24 64 -40 64 -24 0 6 -8 11 -18 11 -9 0 -28 14 -42 30 -14
17 -31 30 -38 30 -7 0 -10 5 -6 11 7 11 -12 29 -31 29 -5 -1 -2 -5 8 -11 9 -6
15 -14 12 -20 -10 -14 -71 41 -85 76 -9 23 -24 37 -56 50 -45 18 -54 29 -31
38 10 4 10 6 0 6 -8 1 -13 16 -13 40 0 22 -3 47 -6 56 -6 15 -8 14 -25 -1 -15
-14 -21 -14 -34 -4 -20 17 -19 33 4 54 15 13 20 14 25 4 3 -7 2 1 -1 17 -4 17
-7 53 -7 80 0 59 30 111 70 121 24 6 26 9 27 42 1 9 6 20 12 25 6 4 5 10 -4
16 -12 8 -13 14 -3 36 7 15 18 25 25 22 21 -7 65 22 69 45 2 15 11 24 24 26
12 2 24 12 27 23 4 17 14 19 69 19 34 0 101 2 148 5 47 3 110 0 140 -6 98 -20
120 -22 136 -8 14 11 11 17 -23 48 -76 69 -229 80 -420 30 -26 -7 -40 -16 -37
-24 3 -7 -6 -25 -20 -41 -19 -23 -27 -26 -37 -17 -10 10 -16 9 -28 -5 -9 -9
-35 -30 -58 -46 -23 -15 -43 -37 -45 -49 -2 -11 -9 -22 -17 -25 -8 -3 -11 0
-7 7 5 7 1 9 -9 5 -11 -5 -13 -10 -6 -17 7 -7 4 -18 -9 -35 -11 -14 -20 -31
-20 -39 0 -19 -27 -70 -58 -112 -31 -42 -34 -56 -33 -140 1 -35 -4 -70 -10
-77 -6 -7 -7 -19 -3 -26 5 -7 9 -17 10 -23 13 -75 14 -89 4 -70 -9 17 -9 15
-5 -10 10 -48 84 -165 147 -231 51 -54 56 -62 36 -62 -31 0 -86 -23 -70 -29 6
-3 12 -9 12 -15 0 -6 -7 -7 -16 -4 -9 3 -35 0 -58 -8 -48 -16 -270 -13 -291 4
-6 5 -15 7 -18 3 -4 -3 -7 2 -7 12 0 10 -3 16 -6 12 -4 -3 -13 1 -21 9 -10 9
-23 12 -37 8 -11 -4 11 19 49 50 39 32 72 62 73 67 2 5 11 9 20 10 12 0 10 3
-6 10 l-23 9 22 31 c16 23 28 30 45 26 20 -4 26 3 47 57 31 79 45 137 51 210
3 33 11 63 17 67 6 4 9 11 5 17 -3 6 -2 12 3 14 4 1 11 20 15 40 6 34 5 37
-20 40 -21 2 -30 12 -43 48 -10 25 -23 44 -30 42 -7 -1 -10 2 -7 6 16 26 -85
165 -164 225 -160 123 -381 162 -566 98z m123 -11 c-2 -29 -14 -25 -14 5 0 13
3 22 8 20 4 -3 7 -14 6 -25z m213 -2 c0 -7 -24 -12 -42 -9 -5 0 -8 -3 -8 -8 0
-6 -12 -6 -28 -2 -19 6 -31 4 -40 -5 -15 -16 -32 -18 -32 -5 0 21 40 36 94 36
31 0 56 -3 56 -7z m-165 -8 c11 -17 -5 -32 -21 -19 -8 6 -14 15 -14 20 0 12
27 11 35 -1z m-125 -10 c0 -5 -4 -10 -10 -10 -5 0 -10 5 -10 10 0 6 5 10 10
10 6 0 10 -4 10 -10z m334 -16 c5 -14 4 -15 -9 -4 -17 14 -19 20 -6 20 5 0 12
-7 15 -16z m-414 -24 c0 -5 -4 -10 -10 -10 -5 0 -10 5 -10 10 0 6 5 10 10 10
6 0 10 -4 10 -10z m130 -65 c-7 -8 -17 -15 -22 -15 -11 0 14 29 26 30 5 0 3
-7 -4 -15z m55 -5 c-3 -5 -14 -10 -23 -10 -15 0 -15 2 -2 10 20 13 33 13 25 0z
m85 0 c0 -5 -2 -10 -4 -10 -3 0 -8 5 -11 10 -3 6 -1 10 4 10 6 0 11 -4 11 -10z
m254 -56 c8 -21 8 -24 -5 -24 -5 0 -7 5 -4 10 3 6 1 10 -4 10 -6 0 -11 5 -11
10 0 16 17 12 24 -6z m116 -15 c0 -14 -17 -10 -23 5 -4 10 -1 13 9 9 7 -3 14
-9 14 -14z m50 -37 c0 -10 6 -24 13 -31 10 -11 8 -11 -10 -2 -29 15 -36 14
-29 -4 3 -8 2 -15 -3 -15 -5 0 -11 9 -14 20 -3 11 -1 20 5 20 6 0 8 7 4 15 -4
10 1 15 14 15 13 0 20 -7 20 -18z m-80 -2 c0 -5 -2 -10 -4 -10 -3 0 -8 5 -11
10 -3 6 -1 10 4 10 6 0 11 -4 11 -10z m150 -407 c-1 -25 -14 -53 -25 -53 -7 0
-15 -6 -17 -12 -3 -7 -5 4 -6 25 -1 21 3 35 8 32 5 -3 11 -1 15 5 7 12 25 14
25 3z m-60 -49 c0 -8 -5 -12 -10 -9 -6 4 -8 11 -5 16 9 14 15 11 15 -7z m38
-106 c-7 -13 -11 -27 -10 -31 1 -5 -2 -6 -8 -2 -6 4 -4 15 6 31 20 30 29 32
12 2z"/>
<path d="M5413 2023 c9 -2 23 -2 30 0 6 3 -1 5 -18 5 -16 0 -22 -2 -12 -5z"/>
<path d="M5488 2023 c7 -3 16 -2 19 1 4 3 -2 6 -13 5 -11 0 -14 -3 -6 -6z"/>
<path d="M5343 2013 c9 -2 23 -2 30 0 6 3 -1 5 -18 5 -16 0 -22 -2 -12 -5z"/>
<path d="M5541 2016 c2 -2 22 -6 44 -9 28 -5 34 -4 20 3 -19 8 -73 14 -64 6z"/>
<path d="M1937 1969 c7 -7 15 -10 18 -7 3 3 -2 9 -12 12 -14 6 -15 5 -6 -5z"/>
<path d="M3810 1950 c0 -5 4 -10 9 -10 6 0 13 5 16 10 3 6 -1 10 -9 10 -9 0
-16 -4 -16 -10z"/>
<path d="M3960 1879 c0 -5 5 -7 10 -4 6 3 10 8 10 11 0 2 -4 4 -10 4 -5 0 -10
-5 -10 -11z"/>
<path d="M4020 1870 c0 -5 5 -10 12 -10 8 0 6 -7 -5 -17 -16 -16 -19 -16 -27
-3 -8 13 -10 12 -10 -2 0 -22 16 -23 54 -3 16 9 47 17 68 19 57 5 66 21 13 22
-30 1 -43 -2 -38 -10 3 -6 0 -6 -8 2 -16 14 -59 16 -59 2z"/>
<path d="M1540 1851 c-70 -22 -94 -35 -150 -79 -25 -19 -39 -29 -32 -22 13 15
17 39 5 26 -4 -4 -15 14 -24 41 l-17 48 5 -72 c5 -67 4 -76 -20 -110 -44 -63
-59 -120 -60 -218 0 -70 5 -102 22 -145 44 -112 139 -208 248 -251 82 -32 234
-33 313 -1 278 110 360 454 158 661 -119 123 -296 171 -448 122z m155 -31 c4
-6 -7 -10 -25 -10 -27 0 -29 -2 -21 -19 6 -10 7 -22 3 -26 -4 -4 3 -2 15 6 18
11 24 10 39 -2 16 -13 16 -12 5 11 l-12 25 23 -26 c23 -24 75 -48 62 -28 -10
17 9 9 32 -13 46 -46 82 -69 90 -57 4 6 -1 16 -10 21 -9 5 -16 14 -16 21 0 21
97 -90 108 -124 10 -28 10 -31 -1 -17 -9 11 -18 14 -27 8 -12 -7 -12 -10 3
-16 10 -3 17 -17 17 -31 0 -17 5 -23 17 -21 10 2 20 -6 25 -22 6 -19 7 -14 4
17 -8 88 -74 182 -169 244 -69 45 -68 50 4 14 65 -33 126 -97 158 -165 23 -48
26 -68 26 -160 0 -92 -3 -111 -25 -155 -57 -114 -193 -205 -316 -213 -164 -11
-318 80 -388 228 -27 58 -30 75 -30 155 1 78 4 98 28 145 47 95 140 174 239
205 50 16 133 19 142 5z m42 -6 c-3 -3 -12 -4 -19 -1 -8 3 -5 6 6 6 11 1 17
-2 13 -5z m53 -14 c0 -5 -2 -10 -4 -10 -3 0 -8 5 -11 10 -3 6 -1 10 4 10 6 0
11 -4 11 -10z"/>
<path d="M1908 1668 c-7 -18 28 -53 37 -38 4 7 -1 21 -12 32 -15 15 -21 16
-25 6z"/>
<path d="M1950 1610 c0 -5 5 -10 10 -10 6 0 10 5 10 10 0 6 -4 10 -10 10 -5 0
-10 -4 -10 -10z"/>
<path d="M4227 1859 c7 -7 15 -10 18 -7 3 3 -2 9 -12 12 -14 6 -15 5 -6 -5z"/>
<path d="M5351 1850 c-92 -24 -146 -56 -211 -122 -202 -205 -149 -529 108
-656 74 -36 79 -37 186 -37 105 0 115 2 180 33 63 29 68 30 50 10 l-19 -22 27
17 c35 22 43 21 46 -3 4 -43 6 -50 14 -50 4 0 9 21 10 48 0 26 2 52 2 58 1 6
16 28 34 48 41 47 68 101 87 173 38 145 1 286 -103 390 -61 61 -133 100 -219
118 -86 19 -102 18 -192 -5z m112 -47 c-25 -3 -31 -8 -26 -21 5 -14 3 -14 -9
2 -13 17 -16 17 -31 2 -8 -9 -35 -25 -59 -36 -63 -28 -90 -52 -82 -73 9 -25
30 -15 26 12 -3 20 -2 21 19 9 18 -11 22 -11 26 0 4 10 8 10 19 1 12 -10 13
-9 8 5 -6 15 -4 15 24 -1 25 -14 32 -15 46 -4 20 17 21 31 2 31 -8 0 -18 5
-22 12 -4 6 -3 9 2 6 44 -24 74 -29 81 -12 3 8 9 11 14 8 6 -3 15 -1 22 4 17
14 87 8 124 -11 60 -31 123 -129 149 -229 l14 -53 -4 51 c-6 62 -35 127 -81
181 -37 43 -139 103 -176 103 -13 0 -31 5 -39 11 -27 19 72 -1 126 -26 178
-79 248 -296 157 -482 -31 -64 -120 -150 -186 -181 -78 -37 -166 -47 -249 -28
-85 19 -163 61 -203 108 -16 18 -42 62 -59 98 -25 54 -30 78 -31 140 0 103 9
139 56 209 72 108 190 171 314 169 33 -1 46 -3 28 -5z m7 -53 c0 -5 -5 -10
-11 -10 -5 0 -7 5 -4 10 3 6 8 10 11 10 2 0 4 -4 4 -10z m-130 -20 c0 -5 -4
-10 -10 -10 -5 0 -10 5 -10 10 0 6 5 10 10 10 6 0 10 -4 10 -10z m-26 -16 c3
-8 2 -12 -4 -9 -6 3 -10 10 -10 16 0 14 7 11 14 -7z m96 -4 c0 -5 -4 -10 -10
-10 -5 0 -10 5 -10 10 0 6 5 10 10 10 6 0 10 -4 10 -10z"/>
<path d="M5340 1770 c0 -5 7 -7 15 -4 8 4 15 8 15 10 0 2 -7 4 -15 4 -8 0 -15
-4 -15 -10z"/>
<path d="M5530 1735 c-17 -20 -10 -26 30 -27 31 -1 32 -2 14 -16 -17 -13 -17
-14 -1 -8 10 3 32 -1 49 -10 16 -9 27 -11 24 -5 -13 21 12 11 26 -11 14 -21
45 -18 32 3 -10 17 -84 60 -94 54 -5 -3 -12 1 -17 8 -13 23 -49 29 -63 12z"/>
<path d="M5223 1679 c-6 -8 -14 -24 -17 -37 -4 -12 -12 -20 -17 -17 -5 3 -6
-1 -3 -9 8 -21 24 -20 24 2 0 22 17 48 26 39 4 -3 1 -13 -6 -22 -9 -11 -9 -15
-1 -15 17 0 25 28 14 52 -7 16 -11 18 -20 7z"/>
<path d="M5426 1451 c-8 -13 20 -45 32 -37 20 12 14 46 -7 46 -11 0 -22 -4
-25 -9z"/>
<path d="M2673 1853 c-7 -2 -9 -11 -6 -19 3 -8 -3 -24 -12 -34 -10 -11 -14
-20 -8 -20 13 0 63 46 63 58 0 12 -21 20 -37 15z"/>
<path d="M4332 1837 c9 -9 18 -22 20 -28 2 -6 16 -12 31 -12 15 -1 29 -8 32
-14 2 -7 9 -13 15 -13 20 0 -29 57 -52 63 -13 2 -32 8 -43 13 -19 7 -19 7 -3
-9z"/>
<path d="M2861 1821 c-26 -7 -51 -58 -35 -70 5 -3 15 -18 23 -33 8 -15 17 -27
20 -26 16 3 39 -15 34 -28 -4 -10 0 -12 13 -7 12 4 15 3 10 -5 -4 -7 -2 -20 4
-29 9 -15 10 -11 5 17 -3 19 -7 44 -8 55 -1 11 -9 25 -17 32 -13 11 -13 12 2
13 14 0 15 5 8 30 -5 17 -6 30 -3 30 3 0 0 7 -7 15 -13 16 -13 16 -49 6z m14
-61 c3 -5 -1 -10 -9 -10 -9 0 -16 5 -16 10 0 6 4 10 9 10 6 0 13 -4 16 -10z"/>
<path d="M2934 1811 c10 -11 15 -24 12 -29 -3 -5 0 -15 8 -21 17 -14 29 9 19
36 -5 12 -3 14 8 8 12 -8 12 -6 0 8 -7 9 -25 17 -39 17 -24 0 -24 -1 -8 -19z"/>
<path d="M3191 1784 c25 -27 53 -60 63 -74 9 -13 16 -20 16 -14 0 23 -71 108
-105 126 -11 6 1 -12 26 -38z"/>
<path d="M2796 1795 c-8 -23 -8 -35 3 -35 13 0 23 32 13 42 -6 6 -12 3 -16 -7z"/>
<path d="M3066 1801 c-4 -7 -5 -15 -2 -18 9 -9 19 4 14 18 -4 11 -6 11 -12 0z"/>
<path d="M2406 1753 c-6 -14 -5 -15 5 -6 7 7 10 15 7 18 -3 3 -9 -2 -12 -12z"/>
<path d="M3020 1759 c0 -5 5 -7 10 -4 6 3 10 8 10 11 0 2 -4 4 -10 4 -5 0 -10
-5 -10 -11z"/>
<path d="M3068 1762 c-10 -2 -18 -8 -18 -14 0 -6 -13 -8 -29 -6 -17 2 -28 1
-25 -4 3 -4 11 -8 17 -8 7 0 21 -8 32 -16 19 -16 19 -16 -5 -10 -24 7 -24 6
-5 -9 17 -14 20 -14 28 1 6 11 5 19 -4 26 -10 7 -8 8 8 3 12 -3 24 -1 28 5 10
15 -8 36 -27 32z"/>
<path d="M4450 1752 c0 -4 16 -23 35 -42 19 -19 35 -43 35 -54 1 -20 2 -20 14
-4 7 10 16 15 19 11 4 -3 2 -12 -3 -18 -17 -20 0 -97 21 -102 11 -3 19 -9 19
-14 0 -5 -7 -6 -15 -3 -11 5 -15 -1 -15 -25 0 -17 5 -31 11 -31 6 0 9 9 6 20
-3 12 0 20 8 20 8 0 11 -8 8 -21 -5 -17 -2 -20 13 -17 22 4 29 48 8 48 -8 0
-14 5 -14 10 0 6 5 10 10 10 13 0 13 37 0 45 -6 4 -7 -1 -3 -11 4 -11 2 -15
-4 -11 -6 4 -13 18 -15 31 -4 19 -1 23 11 18 14 -5 14 -3 2 11 -7 9 -17 14
-22 11 -5 -3 -9 4 -9 14 0 11 -7 22 -15 26 -8 3 -15 12 -15 20 0 9 -6 13 -13
10 -8 -3 -20 2 -27 11 -7 8 -9 15 -5 15 4 0 2 7 -5 15 -13 16 -40 21 -40 7z"/>
<path d="M2680 1740 c-9 -6 -10 -10 -3 -10 6 0 15 5 18 10 8 12 4 12 -15 0z"/>
<path d="M2800 1736 c0 -9 -5 -16 -11 -16 -5 0 -7 -5 -3 -12 4 -6 0 -16 -8
-22 -8 -6 -18 -18 -21 -26 -4 -8 -5 -5 -3 8 3 17 1 22 -9 18 -23 -8 -29 14 -9
29 11 8 14 15 7 15 -15 0 -43 -27 -44 -43 -5 -83 0 -102 24 -78 13 13 47 15
47 2 0 -5 12 -12 27 -16 19 -4 23 -9 14 -14 -10 -6 -9 -12 4 -25 9 -9 18 -16
21 -16 11 0 2 50 -11 64 -18 17 -20 46 -4 46 6 0 9 -7 5 -15 -3 -8 -1 -15 4
-15 6 0 10 3 11 8 0 4 2 15 4 25 2 11 -1 15 -8 11 -9 -5 -9 -4 -1 5 13 14 7
54 -6 46 -4 -3 -7 3 -6 12 0 9 -5 18 -11 20 -7 3 -13 -2 -13 -11z m-60 -86 c0
-5 -7 -10 -16 -10 -8 0 -12 5 -9 10 3 6 10 10 16 10 5 0 9 -4 9 -10z"/>
<path d="M2968 1733 c6 -2 12 -11 12 -19 0 -8 5 -14 10 -14 6 0 10 4 10 8 0
12 -22 32 -34 31 -6 0 -5 -3 2 -6z"/>
<path d="M3182 1725 c2 -23 -19 -72 -41 -98 -13 -16 -13 -17 1 -12 9 4 19 2
22 -3 7 -12 -51 -57 -73 -57 -13 0 -16 -10 -14 -52 1 -45 -1 -52 -20 -57 -39
-10 -55 -6 -61 17 -4 16 -8 19 -14 9 -6 -9 -16 -10 -34 -3 -14 5 -36 7 -49 4
-20 -5 -22 -4 -13 8 22 28 23 45 3 45 -13 0 -18 -5 -14 -14 3 -8 1 -20 -3 -26
-17 -20 -9 -45 16 -51 19 -5 21 -9 12 -20 -13 -16 -4 -58 11 -49 6 3 17 0 25
-7 12 -10 13 -9 8 5 -5 12 -2 15 10 10 9 -4 16 -1 16 6 0 7 7 10 15 7 18 -7
30 9 13 17 -7 3 -3 3 10 0 23 -6 31 10 10 20 -7 3 -1 4 14 1 15 -3 30 -1 33 5
3 5 13 10 21 10 9 0 12 -5 8 -12 -5 -8 -2 -9 10 -5 10 4 19 7 21 7 2 0 1 9 -2
20 -4 14 0 20 11 20 9 0 16 -4 16 -9 0 -5 8 -7 18 -5 23 7 52 58 45 83 -3 13
2 23 16 31 17 8 21 8 19 -2 -2 -7 -7 -17 -13 -21 -6 -6 -6 -10 3 -14 6 -2 12
-9 12 -14 0 -6 -4 -7 -10 -4 -9 6 -15 -8 -11 -29 3 -14 -31 -46 -42 -39 -6 4
-7 1 -2 -6 5 -9 10 -10 18 -2 6 6 17 11 25 11 27 0 40 26 38 77 -4 58 -11 74
-31 66 -8 -3 -15 0 -15 6 0 6 6 11 14 11 8 0 18 5 22 12 5 8 2 9 -10 5 -15 -6
-17 -3 -12 16 4 16 -1 26 -15 35 -11 7 -17 17 -14 22 3 6 2 10 -4 10 -5 0 -12
8 -15 18 -4 14 -5 13 -4 -3z m-22 -170 c0 -18 11 -19 29 -2 8 6 6 0 -4 -16
-13 -19 -23 -26 -36 -22 -11 4 -19 2 -19 -4 0 -6 -7 -8 -15 -5 -8 4 -15 10
-15 15 0 4 8 5 17 2 12 -5 15 -2 11 9 -6 15 8 38 24 38 4 0 8 -7 8 -15z m-50
-71 c0 -8 -5 -12 -10 -9 -6 4 -8 11 -5 16 9 14 15 11 15 -7z m-180 -94 c0 -5
-8 -10 -17 -10 -15 0 -16 2 -3 10 19 12 20 12 20 0z"/>
<path d="M4505 1730 c-3 -5 -1 -10 4 -10 6 0 11 5 11 10 0 6 -2 10 -4 10 -3 0
-8 -4 -11 -10z"/>
<path d="M2510 1691 c0 -11 -6 -26 -14 -34 -16 -16 -28 -95 -30 -199 -1 -57 2
-72 17 -79 11 -7 17 -6 17 1 0 6 5 8 11 4 9 -5 10 1 5 22 -4 16 -10 47 -13 69
-3 22 -9 45 -15 52 -5 7 -5 12 2 15 5 1 15 38 22 81 9 54 16 76 25 73 7 -3 15
-1 18 4 4 6 -5 10 -19 10 -19 0 -26 -5 -26 -19z"/>
<path d="M2660 1705 c0 -18 19 -40 26 -32 4 4 0 15 -9 24 -9 10 -17 13 -17 8z"/>
<path d="M3132 1695 c4 -4 3 -14 -4 -22 -6 -7 -9 -15 -7 -18 3 -2 10 4 17 15
9 15 9 21 -1 26 -6 4 -9 4 -5 -1z"/>
<path d="M2948 1683 c7 -3 16 -2 19 1 4 3 -2 6 -13 5 -11 0 -14 -3 -6 -6z"/>
<path d="M4658 1672 c-20 -8 -9 -35 13 -30 15 3 39 23 39 32 0 8 -31 6 -52 -2z"/>
<path d="M2660 1650 c0 -5 5 -10 11 -10 5 0 7 5 4 10 -3 6 -8 10 -11 10 -2 0
-4 -4 -4 -10z"/>
<path d="M2875 1640 c-3 -5 -1 -10 4 -10 6 0 11 5 11 10 0 6 -2 10 -4 10 -3 0
-8 -4 -11 -10z"/>
<path d="M3056 1636 c3 -9 -3 -17 -15 -21 -28 -9 -37 -30 -39 -92 -2 -41 1
-53 13 -53 8 0 15 -5 15 -11 0 -8 4 -8 14 1 11 8 12 18 6 35 -5 13 -6 25 -4
28 3 3 0 15 -6 27 -11 20 -10 21 9 15 12 -4 21 -2 21 4 0 6 -3 10 -7 9 -5 -2
-9 2 -10 7 -1 6 11 9 27 7 37 -4 38 7 5 36 -29 26 -36 27 -29 8z"/>
<path d="M4782 1563 c2 -55 -1 -77 -10 -81 -7 -2 -19 -10 -26 -18 -8 -8 -21
-14 -29 -14 -8 0 -20 -7 -27 -15 -11 -13 -11 -20 0 -40 10 -19 10 -27 1 -39
-7 -8 -11 -26 -9 -38 1 -14 -7 -34 -20 -48 -12 -13 -22 -33 -22 -44 0 -24 -22
-40 -67 -50 -17 -4 -37 -14 -43 -22 -7 -7 -16 -12 -20 -9 -14 9 -60 -17 -60
-34 0 -11 3 -10 14 5 14 18 15 18 25 -6 8 -22 5 -29 -30 -63 -22 -21 -44 -35
-50 -32 -5 4 -16 2 -24 -5 -10 -8 -19 -8 -33 -1 -11 6 -22 7 -26 4 -4 -4 -13
-8 -20 -9 -29 -4 -56 -16 -56 -24 0 -5 -7 -7 -15 -4 -8 4 -15 1 -15 -5 0 -7
-23 -35 -52 -63 l-52 -51 174 7 c96 3 177 10 180 14 8 11 69 12 75 1 4 -5 11
-7 16 -3 5 3 6 10 3 16 -4 6 -3 8 2 5 6 -3 39 -8 74 -12 36 -3 85 -7 110 -10
102 -10 786 -10 802 0 12 7 -19 9 -100 6 -69 -2 -138 2 -172 9 -174 39 -330
174 -392 342 -27 73 -31 97 -32 193 0 61 2 133 7 160 6 38 5 46 -4 32 -10 -17
-12 -17 -45 2 l-35 21 3 -77z m25 -120 c13 -12 24 -41 32 -84 15 -90 45 -173
85 -239 59 -97 61 -94 -49 -119 -62 -15 -105 -31 -124 -47 -25 -20 -113 -44
-166 -44 -36 -1 -98 10 -108 18 -7 5 -21 6 -32 1 -45 -18 -37 -7 20 27 156 93
269 256 305 442 7 34 14 62 15 62 1 0 11 -8 22 -17z"/>
<path d="M2866 1604 c-4 -10 -1 -14 6 -12 15 5 23 28 10 28 -5 0 -13 -7 -16
-16z"/>
<path d="M2754 1568 c-4 -6 3 -19 15 -29 17 -14 21 -24 15 -41 -6 -20 -5 -21
10 -9 9 7 16 9 16 5 0 -5 9 -15 20 -22 18 -11 20 -10 19 10 0 13 -3 17 -6 10
-7 -17 -23 -5 -23 19 0 10 -6 18 -12 17 -7 -2 -12 3 -10 11 2 8 -3 11 -11 8
-11 -4 -13 0 -10 14 6 21 -11 26 -23 7z"/>
<path d="M2898 1563 c7 -3 16 -2 19 1 4 3 -2 6 -13 5 -11 0 -14 -3 -6 -6z"/>
<path d="M2981 1554 c0 -11 3 -14 6 -6 3 7 2 16 -1 19 -3 4 -6 -2 -5 -13z"/>
<path d="M3426 1539 c-11 -10 -17 -22 -14 -25 6 -5 48 31 48 41 0 10 -16 3
-34 -16z"/>
<path d="M2925 1530 c-3 -5 1 -10 10 -10 9 0 14 -4 11 -8 -2 -4 4 -8 14 -8 19
0 19 1 0 18 -22 21 -27 22 -35 8z"/>
<path d="M2757 1519 c7 -7 15 -10 18 -7 3 3 -2 9 -12 12 -14 6 -15 5 -6 -5z"/>
<path d="M2788 1463 c7 -3 16 -2 19 1 4 3 -2 6 -13 5 -11 0 -14 -3 -6 -6z"/>
<path d="M3146 1425 c-3 -8 -1 -15 4 -15 6 0 10 7 10 15 0 8 -2 15 -4 15 -2 0
-6 -7 -10 -15z"/>
<path d="M2860 1409 c0 -5 5 -7 10 -4 6 3 10 8 10 11 0 2 -4 4 -10 4 -5 0 -10
-5 -10 -11z"/>
<path d="M2730 1370 c0 -6 7 -10 15 -10 8 0 15 2 15 4 0 2 -7 6 -15 10 -8 3
-15 1 -15 -4z"/>
<path d="M2787 1366 c-12 -9 -14 -16 -7 -21 12 -7 40 11 40 26 0 13 -12 11
-33 -5z"/>
<path d="M2460 1362 c0 -10 51 -24 59 -16 7 6 -2 12 -32 19 -16 4 -27 3 -27
-3z"/>
<path d="M2840 1350 c0 -5 7 -10 16 -10 8 0 12 5 9 10 -3 6 -10 10 -16 10 -5
0 -9 -4 -9 -10z"/>
<path d="M2540 1320 c0 -5 -7 -10 -15 -10 -28 0 -15 -18 15 -22 24 -4 30 -1
25 9 -3 8 -5 19 -5 24 0 5 -4 9 -10 9 -5 0 -10 -4 -10 -10z"/>
<path d="M3830 1311 c0 -5 7 -12 16 -15 14 -5 15 -4 4 9 -14 17 -20 19 -20 6z"/>
<path d="M3240 1236 c0 -9 -4 -16 -10 -16 -5 0 -19 -9 -30 -20 -11 -11 -20
-15 -20 -10 0 6 -10 2 -22 -10 -12 -11 -18 -23 -13 -27 4 -5 10 -2 12 5 4 9 9
10 18 2 9 -8 14 -6 19 5 3 8 11 15 19 15 7 0 23 11 36 23 19 21 20 25 6 37
-12 10 -15 10 -15 -4z"/>
<path d="M2546 1214 c-3 -8 -15 -14 -26 -14 -12 0 -19 -4 -15 -10 6 -10 29 -4
58 15 15 10 15 13 3 18 -8 3 -17 -1 -20 -9z"/>
<path d="M2320 1181 c0 -6 4 -13 10 -16 6 -3 7 1 4 9 -7 18 -14 21 -14 7z"/>
<path d="M2585 1170 c3 -5 8 -10 11 -10 2 0 4 5 4 10 0 6 -5 10 -11 10 -5 0
-7 -4 -4 -10z"/>
<path d="M2719 1172 c7 -5 11 -16 9 -23 -6 -17 21 -39 39 -32 20 8 16 23 -6
23 -12 0 -18 7 -17 17 0 10 -7 19 -19 21 -15 2 -17 1 -6 -6z"/>
<path d="M3055 1140 c-32 -12 -51 -25 -53 -37 -2 -13 -1 -15 6 -5 7 11 11 10
16 -4 6 -16 9 -16 29 8 28 32 57 43 57 21 0 -13 3 -13 15 -3 12 10 13 16 4 26
-13 16 -9 17 -74 -6z"/>
<path d="M3895 1100 c-3 -5 -1 -10 4 -10 6 0 11 5 11 10 0 6 -2 10 -4 10 -3 0
-8 -4 -11 -10z"/>
<path d="M4054 1084 c11 -8 26 -15 33 -15 7 -1 19 -2 26 -3 6 -1 11 -10 9 -21
-3 -19 -2 -19 20 3 20 19 21 24 8 33 -8 5 -27 7 -41 5 -15 -3 -30 -2 -33 1 -4
4 -14 8 -24 9 -15 2 -14 1 2 -12z"/>
<path d="M4258 1059 c-10 -11 -15 -19 -12 -19 4 0 1 -6 -5 -13 -11 -14 -5 -27
11 -27 5 0 7 4 3 9 -5 10 12 25 30 26 11 1 8 26 -3 36 -4 3 -15 -2 -24 -12z"/>
<path d="M4037 1059 c7 -7 15 -10 18 -7 3 3 -2 9 -12 12 -14 6 -15 5 -6 -5z"/>
<path d="M5725 950 c-3 -5 -1 -10 4 -10 6 0 11 5 11 10 0 6 -2 10 -4 10 -3 0
-8 -4 -11 -10z"/>
<path d="M2220 436 c0 -8 5 -16 11 -18 17 -6 -17 -154 -36 -162 -8 -3 -15 -12
-15 -21 0 -11 11 -15 39 -15 44 0 59 13 41 35 -30 36 21 108 65 91 23 -8 11
-75 -16 -94 -26 -18 -15 -32 27 -32 35 0 58 25 36 39 -8 5 -9 17 -2 41 5 19 7
43 4 53 -8 25 -48 39 -79 27 -25 -9 -25 -9 -19 30 6 39 6 40 -25 40 -20 0 -31
-5 -31 -14z"/>
<path d="M3190 430 c0 -13 7 -20 20 -20 13 0 20 7 20 20 0 13 -7 20 -20 20
-13 0 -20 -7 -20 -20z"/>
<path d="M3377 443 c-13 -12 -7 -23 12 -23 29 0 30 -8 13 -87 -14 -69 -17 -73
-42 -73 -33 0 -61 -26 -38 -35 8 -3 48 -5 89 -3 58 2 74 6 74 18 0 9 -11 16
-31 18 l-32 3 19 82 c10 45 19 88 19 95 0 13 -71 18 -83 5z"/>
<path d="M2938 424 c-29 -15 -45 -52 -34 -79 6 -16 33 -30 79 -39 34 -8 35
-33 3 -47 -31 -14 -76 -4 -76 17 0 30 -35 10 -38 -22 l-3 -30 66 -2 c58 -2 68
0 91 23 17 17 24 34 22 53 -3 23 -11 29 -53 43 -37 12 -50 21 -50 35 0 29 71
33 80 5 8 -26 21 -27 35 -2 23 44 14 57 -42 58 -31 2 -64 -4 -80 -13z"/>
<path d="M1770 415 c0 -8 4 -15 8 -15 4 0 18 -20 30 -45 26 -53 21 -92 -11
-97 -12 -2 -23 -11 -25 -21 -3 -16 3 -18 59 -15 63 3 93 24 50 35 -12 3 -21
13 -21 25 0 22 79 118 98 118 6 0 12 7 12 15 0 11 -11 15 -41 15 -36 0 -41 -3
-36 -19 3 -12 -4 -28 -17 -40 l-23 -21 -11 24 c-7 16 -8 28 -2 31 22 13 8 25
-30 25 -29 0 -40 -4 -40 -15z"/>
<path d="M2045 381 c-16 -3 -31 -14 -33 -23 -3 -13 5 -16 44 -15 26 1 49 -3
51 -9 2 -7 -14 -11 -43 -12 -56 0 -97 -32 -92 -72 3 -24 5 -25 90 -27 89 -2
117 8 85 32 -13 9 -14 18 -5 54 9 34 8 45 -3 56 -18 18 -57 25 -94 16z m55
-101 c0 -12 -42 -30 -71 -30 -21 0 -26 25 -6 33 23 10 77 7 77 -3z"/>
<path d="M2503 379 c-38 -11 -83 -62 -83 -95 0 -39 33 -64 86 -64 59 0 104 40
104 94 0 32 -20 66 -40 66 -5 0 -14 2 -22 4 -7 2 -27 0 -45 -5z m61 -45 c23
-22 20 -40 -10 -63 -46 -36 -94 -23 -94 25 0 44 72 71 104 38z"/>
<path d="M2723 379 c-63 -18 -97 -105 -55 -142 40 -36 138 -11 161 40 32 71
-24 125 -106 102z m65 -41 c31 -31 -4 -88 -55 -88 -22 0 -53 24 -53 41 0 6 11
21 25 34 26 27 64 32 83 13z"/>
<path d="M3844 379 c-67 -19 -104 -99 -65 -138 16 -16 33 -21 75 -21 64 0 86
7 86 27 0 12 -10 13 -52 8 -40 -5 -58 -3 -73 9 -19 14 -14 15 57 16 66 0 77 3
83 19 10 31 -11 68 -46 80 -17 6 -32 11 -33 10 -1 0 -15 -5 -32 -10z m66 -44
c11 -13 5 -15 -46 -15 -54 1 -57 2 -40 15 26 19 70 19 86 0z"/>
<path d="M4255 383 l-41 -4 0 -56 c0 -41 -4 -58 -17 -68 -27 -20 -20 -35 17
-35 37 0 52 12 39 33 -17 27 7 97 33 97 17 0 16 -3 -3 -102 -5 -25 -2 -28 20
-28 30 0 44 17 29 32 -12 12 -5 66 11 86 17 21 40 15 34 -10 -4 -13 -9 -42
-13 -65 -6 -41 -5 -43 19 -43 31 0 43 16 28 34 -8 10 -9 27 -2 56 14 64 -4 89
-52 71 -14 -6 -30 -6 -38 0 -8 5 -16 8 -19 7 -3 -1 -23 -3 -45 -5z"/>
<path d="M4510 381 c-22 -4 -36 -12 -38 -23 -3 -15 3 -16 47 -11 40 4 51 3 51
-8 0 -10 -13 -15 -41 -15 -44 -2 -92 -30 -97 -58 -7 -35 16 -45 99 -45 80 1
100 9 79 34 -7 9 -9 30 -5 57 9 61 -20 82 -95 69z m48 -103 c-6 -16 -55 -31
-74 -24 -13 5 -14 9 -4 21 15 18 84 21 78 3z"/>
<path d="M4765 381 c-11 -5 -34 -6 -51 -4 -33 5 -56 -13 -35 -27 18 -10 2 -82
-21 -98 -25 -18 -14 -32 27 -32 37 0 52 14 36 33 -23 29 15 97 56 97 20 0 23
-5 23 -34 0 -18 -9 -45 -20 -58 -23 -30 -18 -38 25 -38 l31 0 1 75 c2 72 1 76
-23 85 -14 6 -26 10 -27 9 -1 0 -11 -4 -22 -8z"/>
<path d="M5178 371 c-18 -9 -42 -33 -53 -53 -18 -35 -19 -40 -5 -65 14 -25 22
-28 73 -31 61 -3 97 9 97 35 0 11 -6 14 -22 8 -74 -24 -118 -14 -118 26 0 52
84 79 113 37 18 -28 37 -15 40 26 2 26 -1 28 -45 31 -30 2 -60 -3 -80 -14z"/>
<path d="M5414 379 c-36 -10 -71 -46 -74 -74 -7 -62 14 -85 75 -85 106 0 156
127 64 159 -18 6 -32 11 -33 10 -1 0 -15 -5 -32 -10z m66 -44 c33 -40 -33
-100 -85 -77 -31 14 -32 45 -3 72 26 24 70 26 88 5z"/>
<path d="M5605 382 c-46 -4 -64 -17 -48 -33 14 -14 -2 -79 -25 -97 -22 -17 -3
-35 34 -30 28 3 29 5 29 56 0 50 12 71 39 72 8 0 3 -54 -11 -107 -4 -19 -1
-23 20 -23 30 0 43 15 29 33 -15 19 10 91 32 95 20 4 20 -3 0 -95 -6 -31 -5
-33 19 -33 30 0 43 16 28 34 -7 8 -7 23 -1 47 15 50 12 67 -10 79 -14 8 -26 8
-40 0 -11 -6 -28 -7 -37 -3 -10 5 -36 7 -58 5z"/>
<path d="M3137 373 c-14 -13 -6 -23 19 -23 24 0 26 -3 20 -31 -3 -17 -6 -37
-6 -45 0 -8 -15 -14 -37 -16 -27 -2 -39 -8 -41 -20 -3 -16 6 -18 82 -18 79 0
86 2 86 20 0 16 -7 20 -31 20 -22 0 -30 4 -26 14 3 7 9 34 12 60 l7 46 -39 0
c-22 0 -43 -3 -46 -7z"/>
<path d="M3545 369 c-4 -6 0 -16 8 -22 9 -7 23 -38 32 -69 22 -78 41 -77 100
7 26 36 53 65 61 65 8 0 14 7 14 15 0 11 -12 15 -44 15 -45 0 -69 -16 -46 -30
10 -6 8 -16 -10 -45 -24 -40 -34 -37 -44 11 -5 24 -3 33 8 37 9 4 16 11 16 17
0 13 -87 13 -95 -1z"/>
<path d="M4020 365 c0 -8 7 -15 16 -15 12 0 15 -6 10 -22 -3 -13 -6 -31 -6
-41 0 -11 -12 -22 -30 -29 -53 -18 -29 -33 51 -33 59 0 74 3 74 15 0 10 -12
16 -33 18 -31 3 -33 6 -27 30 10 40 33 55 90 56 20 1 30 6 30 16 0 19 -56 26
-85 10 -13 -7 -20 -7 -20 0 0 5 -16 10 -35 10 -24 0 -35 -5 -35 -15z"/>
<path d="M4947 254 c-17 -18 -6 -35 21 -32 16 2 27 9 27 18 0 16 -36 26 -48
14z"/>
</g>
</svg>
