<?xml version="1.0" standalone="no"?>
<!DOCTYPE svg PUBLIC "-//W3C//DTD SVG 20010904//EN"
 "http://www.w3.org/TR/2001/REC-SVG-20010904/DTD/svg10.dtd">
<svg version="1.0" xmlns="http://www.w3.org/2000/svg"
 width="950.000000pt" height="534.000000pt" viewBox="0 0 950.000000 534.000000"
 preserveAspectRatio="xMidYMid meet">

<g transform="translate(0.000000,534.000000) scale(0.100000,-0.100000)"
fill="#000000" stroke="none">
<path d="M0 2670 l0 -2670 1119 0 c886 0 1120 3 1124 13 3 10 9 10 26 0 16
-10 142 -13 537 -13 l516 0 -7 33 c-4 17 -8 40 -9 49 -1 10 -5 21 -9 24 -4 4
-7 20 -7 36 0 25 -4 28 -30 28 -24 0 -33 -6 -41 -28 -23 -57 -33 -72 -45 -72
-16 0 -24 23 -25 78 -1 60 -12 98 -28 94 -7 -1 -9 2 -6 9 4 6 -6 29 -23 52
-29 42 -36 87 -14 95 22 7 13 22 -23 39 -34 16 -35 19 -35 70 0 40 4 53 15 53
8 0 15 5 15 11 0 7 -8 9 -22 4 -13 -3 -33 -9 -45 -12 -25 -6 -32 -33 -8 -33 9
0 15 -10 15 -26 0 -25 0 -25 -23 -7 -76 59 -118 103 -115 120 1 10 -1 24 -5
31 -12 17 -3 15 53 -13 57 -29 73 -31 90 -10 10 13 9 19 -6 36 -10 11 -26 18
-36 16 -11 -3 -15 -1 -12 5 4 6 -1 8 -14 4 -13 -5 -21 -1 -26 11 -25 69 -55
90 -96 69 -35 -17 -41 -5 -6 13 13 7 32 10 43 7 32 -10 60 31 58 84 -3 56 -8
77 -24 93 -10 9 -11 8 -6 -6 5 -11 2 -17 -8 -17 -18 0 -31 16 -20 23 9 6 9 48
-2 235 -9 155 -19 178 -79 174 -26 -2 -36 1 -36 12 0 15 -39 27 -98 30 -15 1
-33 5 -39 9 -7 5 -18 5 -25 1 -8 -5 -10 30 -6 138 6 163 16 189 72 208 l33 11
9 97 c10 112 0 598 -14 687 -18 107 -24 135 -34 135 -5 0 -6 5 -3 10 3 6 23
10 44 10 29 0 44 7 71 35 19 19 39 35 46 35 14 0 24 45 24 107 0 29 -4 42 -11
38 -7 -5 -10 45 -8 162 1 92 -1 179 -6 192 -7 19 -5 22 6 16 11 -7 12 -6 3 6
-6 8 -9 29 -7 48 3 29 -3 40 -33 68 -20 18 -42 33 -48 33 -7 0 -11 28 -10 83
1 88 -12 294 -22 366 -5 39 -3 46 21 68 l27 25 54 -17 c57 -18 84 -11 84 21 0
8 3 14 8 14 4 0 6 24 4 52 -1 29 -3 102 -3 161 -1 68 -6 118 -14 134 -17 32
-51 56 -81 56 -18 0 -27 8 -36 33 -7 19 -17 34 -24 34 -6 0 -31 9 -54 19 -24
11 -49 17 -57 14 -20 -8 -16 25 7 57 18 26 24 28 117 32 54 3 106 9 116 13 26
11 19 51 -8 47 -57 -7 -170 -3 -173 7 -2 6 -8 11 -14 11 -7 0 -6 -5 1 -14 8
-10 8 -16 -3 -25 -17 -14 -66 -4 -66 13 0 19 57 69 82 73 12 2 34 10 50 17 15
8 28 11 28 6 0 -5 -6 -11 -12 -13 -8 -3 -5 -6 5 -6 11 -1 21 7 24 17 3 12 15
19 40 20 20 2 40 5 45 8 11 7 10 52 -2 59 -6 4 -10 65 -10 149 0 79 -5 157
-11 175 -8 22 -8 35 -1 44 18 21 19 72 2 72 -8 0 -17 11 -20 25 -5 23 -10 25
-70 28 -64 3 -66 2 -105 -38 -21 -22 -43 -40 -48 -40 -4 0 -19 -12 -32 -27
-28 -34 -42 -25 -22 14 8 15 18 38 21 50 6 19 3 18 -27 -10 -19 -18 -45 -41
-58 -52 -13 -11 -52 -47 -86 -79 l-62 -58 -9 44 c-7 34 -5 47 6 61 8 9 17 15
20 12 8 -8 44 44 37 55 -3 5 0 7 8 4 8 -3 25 10 41 31 l28 36 -117 -3 -117 -3
-18 -45 c-18 -45 -48 -72 -35 -31 3 12 4 35 0 51 l-7 30 -613 0 c-599 0 -613
0 -608 -19 3 -13 -2 -23 -16 -31 -24 -12 -45 -4 -37 15 12 33 -15 35 -441 35
l-423 0 0 -2670z m2385 2630 c-3 -5 -10 -10 -16 -10 -5 0 -9 5 -9 10 0 6 7 10
16 10 8 0 12 -4 9 -10z m-1495 -115 c0 -9 7 -18 15 -21 21 -9 19 -41 -4 -54
-27 -14 -31 -13 -31 10 0 22 -15 27 -23 8 -3 -7 -6 -1 -6 14 -1 14 2 33 5 42
8 20 44 21 44 1z m516 -63 c-12 -11 -17 7 -9 34 l8 29 3 -28 c2 -16 1 -31 -2
-35z m-497 -129 c15 -33 14 -36 -11 -30 -12 4 -28 1 -35 -5 -10 -8 -12 -4 -7
23 4 26 3 30 -5 19 -9 -13 -11 -13 -11 1 0 45 47 39 69 -8z m1053 -161 c46
-45 64 -70 60 -81 -5 -14 -3 -14 10 -3 14 11 18 10 29 -10 45 -80 107 -243 97
-254 -4 -3 -17 0 -30 7 -35 18 -168 122 -168 131 0 4 -6 8 -14 8 -15 0 -30 27
-27 50 2 13 1 13 -8 0 -12 -18 -12 -18 -34 48 -10 29 -15 63 -12 75 4 14 3 17
-2 10 -13 -18 -53 68 -53 113 l0 36 43 -33 c23 -18 72 -61 109 -97z m-1057
-18 c18 -44 7 -63 -35 -62 -25 1 -27 3 -14 15 8 8 14 19 14 24 0 13 -18 11
-23 -3 -3 -7 -6 -4 -6 7 -1 30 10 42 46 54 2 1 10 -15 18 -35z m965 -184 c0
-5 -13 -10 -30 -10 -16 0 -30 5 -30 10 0 6 14 10 30 10 17 0 30 -4 30 -10z
m-950 -68 c0 -12 -7 -25 -15 -29 -19 -6 -45 25 -38 44 3 9 0 11 -10 7 -12 -4
-14 -1 -10 15 12 46 72 15 73 -37z m0 -179 c0 -16 -40 -27 -52 -15 -8 8 -6 19
6 37 17 25 18 26 31 8 8 -10 15 -23 15 -30z m-60 -23 c0 -5 -4 -10 -10 -10 -5
0 -10 5 -10 10 0 6 5 10 10 10 6 0 10 -4 10 -10z m996 -256 c-3 -9 2 -14 15
-14 11 0 17 -4 14 -10 -9 -14 -58 -13 -73 2 -13 13 -16 50 -6 61 11 10 55 -25
50 -39z m468 -172 c3 -5 29 -10 57 -11 43 -1 59 -7 90 -34 43 -36 47 -47 20
-47 -20 0 -65 -46 -108 -112 -15 -22 -29 -35 -31 -29 -2 6 2 18 8 27 11 12 10
13 -2 9 -12 -5 -17 6 -22 51 -4 32 -10 62 -15 68 -12 16 -21 86 -11 86 5 0 11
-4 14 -8z m-688 -47 c-11 -8 -31 -15 -45 -15 -13 0 -53 -10 -88 -21 -35 -12
-67 -19 -70 -15 -12 11 16 24 82 36 34 6 68 16 76 21 8 5 25 9 39 9 24 -1 24
-1 6 -15z m408 -34 c-1 -44 -24 -79 -43 -67 -19 12 -13 35 8 29 25 -6 40 49
19 74 -11 14 -11 15 2 11 10 -3 15 -18 14 -47z m-41 9 c-3 -11 -7 -20 -9 -20
-2 0 -4 9 -4 20 0 11 4 20 9 20 5 0 7 -9 4 -20z m613 -168 c-8 -16 -22 -34
-30 -41 -14 -12 -16 -10 -16 9 0 27 26 60 47 60 11 0 11 -5 -1 -28z m-572 -17
c16 -16 14 -48 -5 -71 -13 -16 -39 -19 -39 -3 0 5 4 7 10 4 5 -3 15 5 22 20 9
20 9 28 -1 38 -10 9 -15 8 -27 -7 -14 -20 -19 -10 -8 18 8 20 28 20 48 1z
m371 -795 c14 -6 -3 -9 -52 -9 -43 -1 -73 3 -73 9 0 12 97 12 125 0z m-52
-1207 c-4 -10 -12 -27 -19 -38 -7 -11 -22 -38 -33 -60 l-21 -40 0 63 c0 34 -1
65 -2 69 -2 4 11 11 27 14 50 11 55 10 48 -8z m-133 -65 c0 -63 -9 -68 -28
-13 -5 17 -13 37 -17 47 -6 15 3 22 38 27 4 0 7 -27 7 -61z m194 -55 c-2 -53
1 -92 8 -100 17 -20 6 -24 -38 -11 -21 6 -42 12 -46 12 -5 1 -8 4 -8 8 1 11
78 178 83 178 2 0 2 -39 1 -87z m-308 -30 c-11 -11 -19 6 -11 24 8 17 8 17 12
0 3 -10 2 -21 -1 -24z m74 -14 c0 -5 -4 -9 -10 -9 -5 0 -10 7 -10 16 0 8 5 12
10 9 6 -3 10 -10 10 -16z m630 -538 c0 -12 -20 -25 -27 -18 -7 7 6 27 18 27 5
0 9 -4 9 -9z m50 -67 c13 -33 13 -71 0 -79 -17 -11 -42 16 -36 39 3 12 1 28
-4 36 -11 17 -4 30 16 30 8 0 19 -12 24 -26z m-170 -191 c30 -25 56 -70 46
-80 -2 -3 -12 10 -22 28 -16 32 -17 33 -25 11 -12 -32 -21 -27 -17 9 2 24 -2
34 -22 44 -18 10 -20 14 -8 15 9 0 31 -12 48 -27z m-379 -85 c-23 -23 -44 -39
-47 -35 -8 8 62 77 77 77 5 0 -8 -19 -30 -42z m656 26 c-3 -3 -12 -4 -19 -1
-8 3 -5 6 6 6 11 1 17 -2 13 -5z m-307 -18 c0 -2 -8 -10 -17 -17 -16 -13 -17
-12 -4 4 13 16 21 21 21 13z m80 -34 c0 -22 -26 -60 -34 -51 -6 5 24 69 32 69
1 0 2 -8 2 -18z m-387 -72 c-3 -11 -14 -20 -24 -20 -24 0 -25 16 -1 29 25 15
31 13 25 -9z m367 -48 c0 -26 -7 -45 -20 -57 -24 -22 -26 -11 -5 29 18 35 6
57 -20 36 -8 -7 -18 -10 -22 -7 -11 12 19 37 43 37 21 0 24 -5 24 -38z m-340
-7 c0 -8 -4 -15 -10 -15 -5 0 -10 -7 -10 -15 0 -8 -5 -15 -11 -15 -6 0 -8 6
-5 13 3 6 9 20 12 30 8 21 24 23 24 2z m209 1 c11 -13 6 -46 -8 -46 -3 0 -14
7 -25 15 -15 12 -16 16 -5 29 17 19 24 19 38 2z m175 -73 c23 -15 43 -29 45
-30 7 -5 -31 -43 -43 -43 -19 0 -64 61 -59 81 7 24 9 24 57 -8z m-264 -8 c-29
-16 -60 -19 -60 -6 0 11 23 18 60 19 l25 1 -25 -14z m-110 -25 c0 -5 -7 -10
-15 -10 -8 0 -15 5 -15 10 0 6 7 10 15 10 8 0 15 -4 15 -10z m617 -27 c43 -16
98 -63 73 -63 -8 0 -24 10 -37 22 -21 20 -93 52 -93 41 0 -2 9 -16 21 -32 11
-15 22 -39 24 -52 2 -13 7 -34 10 -46 13 -43 -15 -24 -35 23 -11 25 -34 62
-50 82 -17 20 -30 40 -30 44 0 10 67 -1 117 -19z m-637 -22 c0 -11 6 -22 13
-24 6 -3 2 -6 -10 -6 -18 -1 -23 5 -23 24 0 14 5 25 10 25 6 0 10 -9 10 -19z
m116 -18 c-10 -10 -19 5 -10 18 6 11 8 11 12 0 2 -7 1 -15 -2 -18z m4 -72 c0
-5 -7 -14 -15 -21 -13 -10 -15 -9 -15 9 0 12 6 21 15 21 8 0 15 -4 15 -9z
m138 -41 c39 -19 61 -50 26 -36 -12 5 -15 2 -10 -10 6 -15 4 -15 -20 1 -14 9
-42 22 -61 29 -27 9 -37 19 -39 38 -2 26 -2 26 29 13 18 -8 51 -23 75 -35z
m-288 4 c0 -8 -5 -12 -10 -9 -6 4 -8 11 -5 16 9 14 15 11 15 -7z m386 -69 c9
-13 14 -30 12 -37 -3 -7 -12 1 -22 20 -18 36 -31 43 -21 12 8 -24 -7 -26 -26
-4 -10 13 -10 17 2 25 23 14 38 10 55 -16z"/>
<path d="M1830 4885 c0 -5 5 -17 10 -25 5 -8 10 -10 10 -5 0 6 -5 17 -10 25
-5 8 -10 11 -10 5z"/>
<path d="M2321 3874 c0 -11 3 -14 6 -6 3 7 2 16 -1 19 -3 4 -6 -2 -5 -13z"/>
<path d="M2902 5240 c0 -69 2 -98 8 -83 5 12 5 59 1 105 l-8 83 -1 -105z"/>
<path d="M3521 5324 c0 -11 3 -14 6 -6 3 7 2 16 -1 19 -3 4 -6 -2 -5 -13z"/>
<path d="M4720 5313 c15 -19 19 -35 15 -53 -8 -30 -33 -60 -51 -60 -24 0 -46
-59 -42 -111 3 -55 -2 -60 -30 -24 -11 14 -23 25 -26 25 -3 0 -6 -25 -6 -55 0
-56 -8 -67 -30 -40 -16 20 -30 19 -30 -1 0 -14 -3 -14 -15 -4 -13 11 -15 8
-15 -21 0 -27 -3 -31 -11 -19 -8 11 -12 12 -16 3 -5 -15 -41 -17 -61 -5 -9 7
-6 15 15 36 22 23 25 30 15 44 -7 9 -16 27 -22 40 -5 12 -14 22 -20 22 -18 0
-11 -33 12 -57 l22 -23 -21 -22 -21 -21 -46 27 c-25 15 -46 33 -46 41 0 8 -4
15 -10 15 -5 0 -10 -5 -10 -11 0 -6 -9 -8 -20 -4 -31 10 -24 -12 8 -24 15 -6
56 -26 92 -46 36 -19 77 -35 91 -35 19 0 28 -6 33 -22 15 -57 0 -118 -29 -118
-11 0 -12 -5 -5 -26 6 -14 6 -32 2 -40 -7 -13 -10 -13 -21 0 -10 12 -10 23 -3
46 10 28 9 31 -19 46 -36 18 -45 14 -29 -16 18 -34 5 -35 -29 -2 -31 29 -43
68 -18 59 6 -2 11 -12 9 -22 -2 -10 2 -15 9 -13 25 8 19 26 -15 42 -24 11 -41
31 -57 64 -15 30 -25 41 -27 30 -2 -9 4 -31 13 -48 9 -18 14 -34 11 -37 -3 -3
-29 14 -58 39 l-53 46 0 63 c1 35 -4 68 -10 72 -5 5 2 6 18 3 38 -9 34 10 -8
35 -40 24 -45 45 -12 59 19 9 19 10 2 7 -30 -4 -49 -50 -36 -90 12 -38 16
-155 6 -179 -5 -13 9 -37 51 -87 33 -38 74 -87 91 -109 30 -37 114 -102 131
-102 4 0 22 14 40 31 28 27 35 29 50 17 9 -7 21 -18 25 -25 15 -23 82 -32 287
-38 233 -7 310 -13 310 -25 0 -4 -53 -9 -117 -9 -64 -1 -119 -3 -121 -6 -3 -2
1 -11 8 -20 11 -13 10 -14 -3 -9 -8 3 -18 11 -20 18 -4 10 -40 13 -142 14 -84
0 -149 5 -167 13 -26 10 -33 9 -59 -10 -31 -23 -60 -21 -87 5 -15 16 -52 19
-52 5 0 -6 5 -13 11 -17 7 -4 2 -11 -13 -19 -18 -9 -26 -9 -39 2 -8 7 -21 13
-27 13 -7 0 -12 5 -12 11 0 5 -4 8 -9 5 -5 -4 -11 -3 -13 2 -1 4 -29 6 -61 4
-66 -4 -73 -12 -85 -93 -6 -47 -10 -53 -37 -61 -26 -7 -202 -45 -323 -69 -23
-5 -51 -13 -61 -19 -38 -20 -52 -11 -77 46 -14 31 -27 55 -29 52 -2 -2 0 -29
5 -59 10 -63 8 -66 -86 -109 -34 -15 -64 -35 -68 -45 -4 -12 3 -9 25 9 35 30
49 33 49 11 0 -8 -6 -15 -14 -15 -8 0 -24 -8 -36 -18 -19 -16 -20 -19 -7 -30
13 -11 30 -10 92 3 81 16 95 14 95 -13 0 -10 8 -28 18 -42 28 -39 87 -147 145
-265 129 -263 250 -404 406 -471 110 -47 131 -61 131 -88 0 -14 15 -35 40 -55
37 -29 40 -36 40 -81 0 -41 -5 -54 -31 -82 -42 -46 -92 -153 -83 -181 10 -34
23 -45 47 -43 21 2 22 -2 24 -63 1 -70 29 -158 89 -288 19 -40 39 -96 45 -124
21 -97 49 -144 83 -137 12 2 25 -19 49 -77 39 -98 64 -133 116 -169 59 -41
111 -45 161 -12 22 14 44 26 50 26 24 0 21 53 -8 132 -40 110 -78 195 -91 203
-13 7 4 45 20 45 6 0 32 9 58 21 50 21 52 24 125 164 114 217 188 312 295 375
78 46 96 50 88 18 -3 -13 -9 -41 -13 -63 l-7 -40 20 25 c31 39 53 86 53 115 0
14 3 25 8 26 46 4 72 13 127 44 87 48 124 82 146 130 32 69 25 126 -27 236
-25 54 -47 109 -50 123 -3 20 -43 90 -71 125 -2 3 -13 -5 -26 -17 -17 -16 -39
-23 -80 -25 -54 -3 -57 -2 -55 17 2 17 -3 22 -27 24 -48 6 -70 52 -24 52 11 0
18 4 14 9 -3 6 9 14 27 20 66 20 186 69 241 98 31 17 57 27 59 22 5 -16 73 25
72 43 -1 10 2 16 6 13 4 -3 14 3 21 12 12 15 12 16 -6 10 -19 -7 -19 -6 1 11
44 38 53 63 53 162 1 131 31 312 57 341 19 22 18 56 -3 61 -10 3 -35 3 -55 0
-36 -4 -37 -6 -77 -98 -22 -52 -45 -123 -51 -157 -17 -107 -42 -165 -102 -236
-40 -47 -135 -91 -197 -91 -51 0 -71 16 -28 22 12 2 22 8 21 13 0 6 10 18 24
29 18 14 21 21 10 27 -10 6 -10 11 0 21 6 6 12 21 12 33 0 15 3 16 9 7 7 -11
9 -11 13 0 10 29 3 73 -12 73 -8 0 -15 6 -14 13 1 6 2 23 3 36 0 14 8 31 16
40 18 17 20 30 3 20 -8 -5 -9 -2 -5 10 4 10 7 20 7 22 0 3 3 3 8 1 8 -6 8 45
0 59 -3 5 -9 44 -13 87 -7 73 -9 77 -29 71 -23 -8 -28 -8 -100 -6 -33 1 -47 5
-40 12 19 19 153 30 407 32 247 3 257 4 263 23 9 27 23 35 60 35 17 0 37 7 44
15 8 10 30 15 64 15 33 0 60 6 76 18 14 9 34 17 45 18 11 0 43 1 72 2 66 2 86
21 79 71 -3 20 -5 46 -6 59 0 13 -11 34 -25 47 -19 20 -29 23 -47 16 -47 -19
-64 -23 -109 -25 -28 -1 -52 -8 -63 -19 -10 -9 -26 -17 -37 -17 -11 0 -36 -8
-57 -19 -41 -20 -114 -21 -150 -2 -13 7 -33 10 -45 8 l-22 -4 23 -8 c12 -4 22
-16 22 -26 0 -22 0 -22 -35 -9 -22 8 -27 7 -34 -13 -8 -20 -10 -20 -16 -4 -4
9 -18 17 -31 17 -28 0 -29 5 -9 44 l15 28 -25 -16 c-13 -9 -37 -16 -52 -16
-16 0 -23 -3 -16 -8 6 -4 15 -20 18 -35 7 -25 5 -27 -24 -27 -20 0 -34 7 -41
20 -6 11 -16 17 -25 14 -10 -4 -18 3 -25 20 -13 35 -17 33 -12 -8 3 -30 0 -35
-35 -53 -31 -16 -39 -26 -41 -53 -2 -18 -9 -39 -17 -46 -11 -11 -14 -7 -18 24
-2 22 1 43 9 52 7 8 14 48 16 88 3 68 2 73 -17 70 -27 -4 -48 -104 -35 -163
14 -59 10 -87 -4 -35 l-13 45 -7 -42 c-4 -24 -13 -43 -19 -44 -7 0 -32 0 -57
1 -58 2 -104 -30 -97 -66 3 -17 -1 -25 -14 -29 -11 -4 -19 -11 -19 -16 0 -5
-5 -8 -11 -6 -6 1 -14 -4 -16 -10 -3 -7 3 -13 12 -13 12 0 15 -6 10 -20 -5
-15 0 -22 20 -30 15 -6 31 -8 36 -4 5 3 9 0 9 -7 0 -8 -14 -10 -50 -6 l-49 6
1 -90 c1 -49 5 -89 9 -89 4 0 9 -9 12 -20 3 -11 17 -21 33 -25 16 -3 43 -10
60 -15 46 -15 60 -12 78 15 9 13 16 27 16 29 0 3 -34 31 -75 62 -42 31 -73 59
-70 62 3 3 15 -4 28 -16 13 -12 26 -22 30 -22 12 0 147 -102 147 -111 0 -13
-18 -11 -22 3 -5 13 -38 4 -38 -11 0 -6 7 -8 16 -4 14 5 14 2 0 -31 -22 -52
-86 -128 -103 -122 -11 4 -94 -11 -111 -20 -1 0 -5 -55 -8 -120 -4 -65 -8
-121 -10 -123 -2 -2 -5 49 -6 115 -2 111 -3 157 -7 177 0 5 -16 0 -33 -11 -34
-20 -92 -20 -104 0 -8 13 28 39 90 64 47 18 51 22 48 50 -4 34 -2 235 3 288 1
20 -1 36 -6 36 -5 0 -18 9 -29 20 -11 11 -24 20 -30 20 -5 0 -10 -9 -10 -20 0
-20 -11 -26 -23 -14 -14 14 15 44 41 44 40 0 57 14 37 30 -14 12 -14 15 5 32
11 11 20 32 20 48 0 30 -13 40 -25 20 -12 -20 -36 -11 -31 13 3 12 8 69 11
126 5 77 4 101 -5 96 -6 -4 -18 1 -26 11 -14 18 -14 18 -5 -3 14 -27 14 -43 1
-43 -9 0 -61 103 -60 119 1 3 12 -7 25 -24 14 -16 25 -27 25 -23 0 5 -16 26
-36 48 -24 27 -33 44 -27 54 7 12 13 12 48 0 22 -7 46 -14 54 -14 8 0 23 -7
33 -17 13 -11 18 -12 18 -3 0 7 -8 19 -17 27 -34 27 -143 73 -158 67 -10 -4
-15 -2 -13 6 2 7 -10 17 -27 22 -60 19 -61 20 -25 32 l35 13 -27 6 c-14 4 -48
3 -74 -2 -56 -11 -66 -7 -38 14 10 8 15 15 10 15 -5 0 -18 -7 -28 -17 -17 -15
-18 -15 -18 6 0 14 9 25 28 33 25 11 26 12 5 15 -13 3 -23 13 -25 26 -5 35
-37 34 -51 -2 -6 -17 -14 -31 -17 -31 -3 0 -18 14 -33 30 -36 37 -56 40 -27 3z
m66 -100 c-11 -11 -19 6 -11 24 8 17 8 17 12 0 3 -10 2 -21 -1 -24z m-85 -50
c-20 -35 -21 -36 -15 -8 7 31 24 59 31 51 3 -2 -5 -21 -16 -43z m283 -9 c25
-10 8 -24 -27 -24 -30 1 -31 1 -13 15 23 17 20 17 40 9z m36 -34 c0 -5 -2 -10
-4 -10 -3 0 -8 5 -11 10 -3 6 -1 10 4 10 6 0 11 -4 11 -10z m90 -10 c0 -5 -2
-10 -4 -10 -3 0 -8 5 -11 10 -3 6 -1 10 4 10 6 0 11 -4 11 -10z m-144 -62 c16
-18 17 -21 2 -15 -11 4 -15 2 -12 -6 2 -7 -5 -12 -19 -12 -15 0 -24 6 -24 18
-1 9 4 17 10 17 7 0 6 4 -3 10 -12 8 -11 10 6 10 11 0 29 -10 40 -22z m-134
-85 c18 -16 18 -16 12 0 -7 18 3 22 23 9 7 -4 28 -30 48 -57 34 -49 39 -50 35
-11 -2 17 0 17 28 -3 17 -12 40 -37 52 -56 21 -35 53 -135 45 -143 -2 -2 -15
18 -28 45 -14 26 -33 57 -43 69 -11 11 -17 15 -13 9 3 -5 10 -22 16 -36 16
-37 -13 -35 -55 5 -25 24 -32 26 -26 11 7 -20 7 -20 -15 0 -34 29 -93 115 -79
115 6 0 -1 14 -17 30 -30 32 -16 43 17 13z m-40 -20 c21 -26 60 -95 55 -100
-7 -6 -87 88 -87 103 0 19 14 18 32 -3z m-250 -10 c16 -19 32 -153 18 -153
-14 0 -60 61 -60 80 0 10 -3 26 -7 36 -5 13 -3 16 10 11 14 -5 16 -2 11 18 -7
29 6 33 28 8z m228 -46 c0 -18 -2 -19 -10 -7 -13 20 -13 43 0 35 6 -3 10 -16
10 -28z m-10 -44 c0 -7 -2 -13 -5 -13 -7 0 -45 63 -45 75 0 14 49 -48 50 -62z
m1670 41 c17 -43 12 -71 -12 -78 -52 -14 -58 -9 -58 43 0 30 5 51 13 54 29 12
48 6 57 -19z m-1700 -51 c18 -31 19 -35 3 -22 -24 18 -33 31 -33 47 0 20 7 14
30 -25z m359 -43 c7 -28 11 -54 8 -57 -4 -3 -9 8 -12 23 -3 16 -13 44 -21 62
-17 40 -18 48 -1 34 7 -6 19 -34 26 -62z m1230 57 c8 -10 7 -17 -1 -25 -19
-19 -28 -14 -28 13 0 27 12 32 29 12z m-1631 -32 c15 -34 15 -54 -3 -85 l-15
-25 2 30 c0 17 -3 47 -7 68 -8 43 6 50 23 12z m1537 4 c9 -28 -8 -45 -25 -25
-13 17 -7 46 9 46 5 0 13 -9 16 -21z m-1728 -13 c-3 -7 10 -39 28 -70 35 -57
35 -67 2 -41 -33 24 -59 83 -47 105 12 23 25 27 17 6z m1635 -38 c-15 -15 -27
14 -17 40 6 15 8 15 18 -6 7 -16 7 -26 -1 -34z m-77 11 c9 -26 -12 -51 -24
-30 -10 15 -3 51 9 51 5 0 12 -9 15 -21z m-375 -11 c5 -13 9 -18 10 -13 0 12
20 -16 20 -29 0 -6 -5 -5 -12 2 -9 9 -16 8 -30 -5 -27 -24 -41 -5 -27 35 13
38 26 41 39 10z m117 -38 c0 -16 -4 -30 -8 -30 -3 0 -9 14 -11 30 -3 19 0 30
7 30 6 0 12 -13 12 -30z m-1137 -35 c0 -5 -5 -3 -10 5 -5 8 -10 20 -10 25 0 6
5 3 10 -5 5 -8 10 -19 10 -25z m-68 -147 c-7 -7 -12 -8 -12 -2 0 6 3 14 7 17
3 4 9 5 12 2 2 -3 -1 -11 -7 -17z m778 -291 c0 -16 -33 -2 -44 18 -5 11 -18
32 -28 47 -10 15 -18 31 -18 35 1 10 90 -89 90 -100z m-1294 26 c3 -10 13 -35
21 -56 9 -20 14 -40 11 -42 -3 -3 -29 18 -57 47 l-53 53 29 6 c15 4 32 7 36 8
4 0 10 -7 13 -16z m-216 -35 c-61 -52 -123 -63 -155 -28 -17 19 -17 20 11 31
16 6 58 15 93 20 36 5 67 12 70 14 2 3 7 2 10 -1 3 -3 -10 -19 -29 -36z m1026
-13 c-19 -28 -4 -34 28 -10 13 10 36 12 90 8 87 -7 103 -8 140 -2 47 7 40 -14
-15 -48 l-51 -31 -44 18 c-43 19 -44 19 -84 -4 -48 -27 -100 -25 -100 6 0 12
-6 19 -17 17 -60 -6 -54 16 13 51 27 14 51 25 53 23 2 -1 -4 -14 -13 -28z
m905 -308 c-10 -9 -11 -8 -5 6 3 10 9 15 12 12 3 -3 0 -11 -7 -18z m-570 -230
c-13 -13 -15 24 -3 74 7 33 7 32 10 -15 2 -27 -2 -54 -7 -59z m132 -169 c-15
-28 -33 -53 -40 -56 -7 -2 4 26 25 63 20 37 38 62 40 56 2 -6 -9 -34 -25 -63z
m-123 -10 c0 -10 -4 -18 -10 -18 -5 0 -10 15 -10 33 0 24 3 28 10 17 5 -8 10
-23 10 -32z m310 -58 c0 -30 -29 -70 -51 -70 -24 0 -24 17 1 58 22 36 50 43
50 12z m-293 -255 c3 -64 1 -133 -3 -153 -7 -28 -10 0 -14 113 -3 83 -3 154
-1 158 8 21 13 -11 18 -118z m-301 -1120 c4 -8 0 -22 -7 -31 -11 -13 -14 -13
-27 0 -17 17 -9 46 13 46 9 0 18 -7 21 -15z m-56 -40 c0 -8 -7 -15 -15 -15
-16 0 -20 12 -8 23 11 12 23 8 23 -8z"/>
<path d="M4847 4926 c-3 -8 2 -21 12 -30 27 -25 33 -19 16 14 -18 34 -21 36
-28 16z"/>
<path d="M4975 5319 c-22 -10 -36 -19 -31 -19 5 0 2 -8 -5 -17 -13 -16 -12
-17 4 -4 12 10 33 12 75 8 49 -6 54 -5 34 6 -21 12 -21 14 -5 30 16 16 16 17
-7 16 -14 0 -43 -9 -65 -20z"/>
<path d="M5230 5323 c0 -10 4 -24 9 -32 7 -11 10 -9 16 8 7 22 0 41 -16 41 -5
0 -9 -8 -9 -17z"/>
<path d="M5875 5298 c-4 -24 -13 -53 -21 -65 -9 -14 -10 -23 -4 -23 13 0 34
49 43 98 4 17 3 32 -2 32 -5 0 -12 -19 -16 -42z"/>
<path d="M6744 5304 c-38 -20 -83 -47 -100 -60 -17 -12 -63 -37 -103 -55 -71
-32 -89 -49 -51 -49 15 0 20 -7 20 -25 0 -18 5 -25 19 -25 10 0 21 7 25 15 3
8 12 15 20 15 8 0 17 6 19 13 3 6 6 -33 8 -88 3 -135 8 -403 9 -437 0 -21 5
-28 20 -28 26 0 26 -22 0 -38 -11 -7 -17 -18 -14 -27 4 -8 1 -15 -5 -15 -7 0
-9 -9 -5 -25 5 -19 3 -25 -7 -23 -16 3 -15 14 -32 -287 -7 -115 -10 -259 -7
-320 l5 -110 62 -5 c34 -3 67 -10 73 -16 17 -17 10 -408 -7 -425 -7 -7 -42
-16 -78 -20 -36 -5 -70 -11 -75 -14 -5 -3 -6 -117 -4 -258 4 -246 5 -253 29
-288 22 -34 24 -49 30 -215 3 -99 7 -197 8 -219 1 -22 0 -93 -1 -157 l-2 -118
-28 0 c-41 0 -51 -29 -49 -134 2 -83 4 -90 30 -110 24 -19 27 -28 27 -83 0
-34 5 -65 10 -68 15 -9 12 -205 -3 -235 -8 -15 -24 -27 -45 -31 -54 -11 -51
-22 3 -15 35 5 58 2 76 -8 15 -7 38 -11 53 -9 40 8 120 -49 166 -118 37 -55
37 -58 20 -74 -17 -15 -19 -15 -25 4 -7 24 -25 28 -25 6 0 -18 -36 -20 -43 -2
-4 9 -7 9 -18 -1 -17 -16 -37 -16 -21 0 17 17 15 31 -3 24 -12 -4 -14 2 -12
27 1 23 -2 32 -13 32 -10 0 -19 -19 -27 -57 -10 -46 -58 -147 -80 -168 -3 -3
-4 12 -1 33 2 20 3 37 1 37 -1 0 -9 -14 -18 -30 -9 -17 -22 -30 -30 -30 -8 0
-15 -3 -15 -7 0 -5 -9 -19 -20 -33 -14 -18 -8 10 25 104 50 143 49 140 33 130
-8 -5 -9 -1 -5 12 10 27 -28 -21 -53 -67 -10 -19 -26 -42 -36 -50 -9 -8 -28
-38 -41 -68 -28 -63 -40 -61 -24 5 7 25 10 49 7 51 -3 3 -19 -20 -37 -51 -17
-32 -34 -55 -36 -52 -8 7 37 133 63 180 34 59 31 74 -8 44 -54 -40 -64 -44
-40 -14 12 16 22 39 22 52 0 21 18 40 66 71 18 11 18 11 -2 7 -29 -7 -66 -41
-111 -102 -22 -28 -56 -69 -76 -91 -21 -23 -37 -50 -37 -64 0 -14 -19 -42 -50
-74 -50 -52 -54 -67 -14 -57 l22 6 -25 -64 c-14 -34 -30 -68 -35 -75 -11 -13
7 -27 23 -18 7 5 8 -5 4 -29 -6 -32 -5 -35 11 -29 13 5 16 3 11 -10 -3 -9 -2
-17 2 -17 14 0 21 28 8 33 -7 2 4 13 23 25 19 12 35 20 36 19 8 -8 -11 -57
-22 -57 -8 0 -14 -9 -14 -21 0 -11 -4 -18 -9 -15 -4 3 -6 -10 -4 -30 2 -19 -1
-53 -7 -74 -9 -33 -15 -40 -36 -40 -17 0 -28 -8 -36 -26 -18 -38 -54 -51 -133
-48 -80 3 -178 -13 -168 -29 3 -6 32 -7 75 -3 39 3 67 2 64 -2 -3 -5 -33 -12
-66 -15 -33 -3 -67 -11 -75 -17 -11 -9 -15 -9 -15 -1 0 6 -3 10 -7 10 -5 -1
-10 -1 -13 1 -23 8 -60 7 -60 -3 0 -9 -2 -9 -8 0 -4 6 -20 10 -35 9 -15 -2
-27 0 -27 4 0 4 -18 7 -40 6 -22 -1 -40 1 -40 4 0 4 -24 7 -52 7 -63 1 -104 7
-101 17 4 9 27 64 53 124 18 43 20 55 10 65 -10 9 -14 9 -17 0 -3 -7 -11 -13
-19 -13 -22 0 -75 30 -70 39 10 15 -79 7 -91 -9 -6 -8 -14 -12 -17 -9 -7 7 33
55 44 52 11 -3 -11 91 -24 100 -8 6 -8 10 2 14 6 2 12 19 13 36 2 50 12 74 47
111 17 19 32 44 32 56 0 13 5 39 11 59 16 54 -4 117 -51 161 l-38 35 5 96 c4
74 2 102 -10 125 -8 17 -15 37 -15 44 2 37 -3 61 -12 55 -5 -3 -10 -1 -10 4 0
6 -17 29 -37 52 -32 35 -35 43 -25 60 10 15 9 19 0 19 -26 0 -88 21 -101 34
-28 28 -293 39 -387 15 -25 -6 -56 -13 -69 -15 -41 -8 -78 -32 -132 -86 -47
-47 -99 -138 -99 -173 0 -13 -21 -85 -37 -125 -3 -8 -7 -46 -8 -85 -1 -46 -9
-91 -25 -130 -49 -127 -19 -307 54 -323 17 -3 34 -5 39 -4 4 1 7 -3 7 -10 0
-9 3 -9 12 0 27 27 28 9 0 -42 -22 -41 -27 -58 -19 -72 14 -25 69 -70 81 -66
9 3 26 -16 26 -30 0 -5 -9 -8 -20 -8 -11 0 -20 -4 -20 -10 0 -5 -7 -7 -15 -3
-10 3 -15 0 -13 -8 2 -7 -1 -14 -7 -14 -36 -5 -149 -61 -198 -98 -26 -21 -56
-37 -66 -37 -34 0 -36 -22 -5 -44 69 -50 130 -112 142 -145 29 -78 35 -100 29
-115 -4 -9 -12 -13 -20 -10 -7 2 -24 0 -38 -6 -24 -10 -24 -10 4 -7 44 7 31
-10 -20 -26 -70 -22 -93 -26 -93 -17 0 11 -28 20 -44 14 -11 -4 -36 -45 -36
-60 0 -2 664 -4 1475 -4 826 0 1475 4 1475 9 0 5 7 12 16 15 14 5 15 4 4 -9
-11 -13 122 -15 1204 -15 l1216 0 0 2670 0 2670 -1343 0 -1344 0 -69 -36z
m189 -336 c-15 -74 -18 -72 90 -84 54 -7 100 -14 103 -16 2 -3 -26 -28 -63
-55 -38 -28 -108 -85 -158 -126 -86 -73 -245 -168 -245 -146 0 5 7 24 17 42 9
18 18 49 19 70 4 47 77 187 117 224 25 24 29 25 24 8 -3 -11 -11 -40 -17 -65
-7 -25 -19 -54 -28 -64 -16 -18 -16 -18 5 -7 16 8 26 29 38 87 13 58 25 84 51
112 19 20 34 40 34 45 0 4 4 7 10 7 5 0 7 -14 3 -32z m-228 2 c3 -5 0 -10 -7
-11 -10 0 -10 -2 0 -6 6 -2 10 -8 7 -12 -9 -16 -15 -121 -6 -121 5 0 12 6 14
13 3 6 6 -3 6 -20 1 -18 -3 -33 -9 -33 -5 0 -7 -6 -4 -14 3 -8 -3 -29 -12 -48
l-18 -33 -7 45 c-22 138 2 296 36 240z m144 -26 c5 -4 -56 -64 -65 -64 -2 0
-4 18 -4 41 0 41 0 41 33 34 17 -4 34 -9 36 -11z m775 -48 c19 7 112 -184 97
-199 -8 -8 -11 -7 -11 4 0 11 -2 12 -9 0 -7 -10 -18 -11 -56 -3 -27 6 -54 8
-61 5 -15 -5 -46 38 -42 58 2 8 -3 13 -9 12 -12 -3 -17 9 -14 30 0 4 -4 6 -11
5 -7 -2 -13 4 -14 12 0 8 -2 21 -2 28 -1 6 -10 12 -19 12 -35 1 10 17 60 23
46 4 48 4 54 -24 3 -16 9 -29 14 -29 12 0 11 23 0 36 -5 5 -12 27 -15 49 l-6
40 15 -32 c9 -20 20 -30 29 -27z m-170 -327 l91 -1 -115 -14 c-122 -15 -308
-11 -368 7 -27 9 -38 7 -60 -7 -23 -15 -45 -18 -137 -15 -139 3 -166 21 -33
21 62 0 99 4 104 12 5 8 63 9 217 5 116 -4 251 -8 301 -8z m394 -21 c3 -16 -5
-18 -55 -18 -53 0 -201 25 -212 36 -3 2 56 3 129 2 119 -3 135 -5 138 -20z
m-523 -285 l68 -38 3 -122 c1 -68 -1 -125 -5 -127 -19 -12 -107 137 -93 159 3
5 -5 2 -18 -7 -45 -32 -60 -39 -60 -29 0 5 12 19 26 30 25 20 26 21 15 90 -12
77 -13 81 -8 81 2 0 35 -17 72 -37z m-2720 -2710 c-31 -11 -36 -25 -42 -106
-4 -54 -11 -91 -19 -98 -8 -6 -14 -20 -14 -30 0 -10 -4 -21 -10 -24 -5 -3 -10
-32 -10 -65 0 -44 -4 -59 -16 -64 -23 -9 -32 3 -14 15 9 6 11 12 5 15 -7 2
-10 45 -9 109 2 84 6 114 23 148 32 64 95 127 111 110 3 -3 1 -7 -5 -10z m571
-30 c6 -10 8 -27 4 -37 -7 -22 -14 -14 -24 27 -7 30 4 36 20 10z m74 -37 c8
-43 18 -201 13 -228 -8 -56 -25 -34 -23 31 3 77 2 81 -17 81 -18 1 -59 47 -50
56 3 3 15 1 26 -6 31 -16 39 -6 31 39 -5 31 -4 38 7 34 7 -3 13 -6 13 -7z
m-287 -86 c-3 -11 -9 -20 -14 -20 -11 0 -11 3 -3 24 9 23 23 20 17 -4z m-108
-10 c27 -30 12 -34 -15 -5 -13 14 -19 25 -13 25 5 0 18 -9 28 -20z m53 -3 c5
-24 -15 -21 -21 4 -3 13 -1 19 6 16 7 -2 13 -11 15 -20z m-34 -91 c-4 -25 -2
-59 5 -76 13 -38 0 -70 -29 -70 -20 0 -35 35 -32 72 1 23 45 118 54 118 4 0 5
-20 2 -44z m132 -105 c3 -25 1 -41 -6 -41 -11 0 -11 -1 -15 58 -3 55 15 41 21
-17z m-456 -6 c0 -25 -4 -45 -8 -45 -5 0 -9 20 -10 45 0 25 4 45 9 45 5 0 9
-20 9 -45z m820 -45 c0 -28 -18 -25 -26 5 -3 13 -12 29 -20 36 -8 6 -14 19
-14 28 1 24 60 -44 60 -69z m-967 33 c16 -18 34 -73 23 -73 -15 0 -67 63 -62
76 7 19 19 18 39 -3z m407 -17 c0 -16 -18 -31 -27 -22 -8 8 5 36 17 36 5 0 10
-6 10 -14z m-465 -66 c-8 -27 -14 -36 -14 -23 -1 24 17 78 24 71 2 -2 -2 -24
-10 -48z m2345 6 c0 -3 -4 -8 -10 -11 -5 -3 -10 -1 -10 4 0 6 5 11 10 11 6 0
10 -2 10 -4z m-2325 -156 c8 0 17 -9 20 -20 7 -22 20 -26 30 -10 12 19 25 -1
15 -21 -6 -11 -8 -24 -4 -30 4 -8 -4 -9 -27 -4 -42 9 -68 40 -69 81 0 36 14
55 18 25 2 -12 10 -21 17 -21z m624 6 c19 -1 26 -6 26 -21 0 -11 8 -21 18 -23
9 -2 17 -9 17 -17 0 -9 -16 -13 -52 -14 -29 0 -71 -4 -93 -7 -79 -12 -104 -3
-78 31 14 18 15 18 9 1 -5 -14 -3 -17 11 -11 10 4 23 8 28 9 31 8 42 19 38 36
-5 18 21 32 41 22 5 -3 21 -5 35 -6z m-99 -21 c0 -8 -4 -15 -9 -15 -13 0 -22
16 -14 24 11 11 23 6 23 -9z m178 -3 c2 -7 -3 -12 -12 -12 -9 0 -16 7 -16 16
0 17 22 14 28 -4z m20 -36 c-7 -8 -16 -12 -21 -9 -11 7 2 23 19 23 12 0 12 -2
2 -14z m178 -28 c-10 -54 -48 -142 -70 -163 -19 -19 -20 -19 -12 0 23 60 82
195 85 195 2 0 1 -15 -3 -32z m-476 -8 c0 -5 -4 -10 -10 -10 -5 0 -10 5 -10
10 0 6 5 10 10 10 6 0 10 -4 10 -10z m-240 -80 c10 -20 20 -49 24 -66 7 -32
67 -76 120 -88 16 -4 39 -14 50 -23 20 -15 20 -15 1 -8 -11 4 -24 8 -30 9
-104 25 -141 59 -179 165 -26 74 -35 119 -14 71 6 -14 19 -41 28 -60z m2170
49 c0 -5 -4 -9 -10 -9 -5 0 -10 7 -10 16 0 8 5 12 10 9 6 -3 10 -10 10 -16z
m-1560 -24 c-7 -8 -18 -15 -24 -15 -6 0 -2 7 8 15 25 19 32 19 16 0z m1550
-85 c0 -30 -13 -40 -25 -20 -8 13 4 50 16 50 5 0 9 -13 9 -30z m-1520 -65 c-7
-9 -15 -13 -17 -11 -7 7 7 26 19 26 6 0 6 -6 -2 -15z m1105 -26 c33 -14 86
-54 76 -57 -7 -2 -30 9 -53 25 -22 15 -51 34 -64 41 -13 7 -24 18 -24 23 0 6
12 2 28 -9 15 -10 32 -21 37 -23z m-1060 21 c3 -5 1 -10 -4 -10 -6 0 -11 5
-11 10 0 6 2 10 4 10 3 0 8 -4 11 -10z m1470 -50 c7 -11 -10 -13 -60 -10 -54
3 -52 20 2 20 29 0 55 -4 58 -10z m-2029 -65 c3 -19 10 -38 15 -41 5 -3 9 -13
9 -22 0 -9 11 -39 25 -66 29 -58 29 -56 11 -56 -12 0 -23 21 -30 55 -1 6 -6
19 -11 30 -66 159 -65 156 -45 145 11 -6 22 -26 26 -45z m2304 -7 c0 -12 -5
-10 -52 22 -52 35 -47 44 7 13 25 -13 45 -29 45 -35z m-1732 11 c39 -30 53
-49 58 -76 12 -62 -1 -155 -30 -212 -31 -61 -25 -63 -121 34 -27 27 -63 57
-78 65 -40 20 -82 61 -71 68 5 4 40 42 78 85 47 53 75 77 91 77 12 0 45 -18
73 -41z m1390 -7 c-21 -4 -70 16 -64 27 3 5 22 1 42 -8 20 -9 30 -17 22 -19z
m52 8 c0 -5 -5 -10 -11 -10 -5 0 -7 5 -4 10 3 6 8 10 11 10 2 0 4 -4 4 -10z
m-2080 -20 c0 -5 -3 -10 -7 -10 -5 0 -14 -4 -20 -8 -16 -10 8 -60 57 -122 18
-22 30 -43 27 -46 -6 -7 -87 88 -87 103 0 7 -9 17 -20 23 -17 9 -24 7 -40 -12
-14 -16 -19 -19 -20 -8 0 8 19 32 42 52 42 37 68 47 68 28z m195 -69 c1 -10 8
-27 15 -36 13 -15 12 -17 -5 -14 -23 5 -80 93 -70 109 10 16 58 -31 60 -59z
m1349 50 c3 -5 -3 -11 -14 -14 -20 -5 -26 3 -13 16 9 10 21 9 27 -2z m581 -43
c-4 -18 -15 -46 -26 -61 -13 -17 -18 -35 -14 -48 6 -18 5 -19 -14 -7 -24 15
-27 33 -7 45 16 10 46 66 46 88 0 8 5 15 11 15 7 0 8 -12 4 -32z m288 -39 c6
-24 -2 -24 -19 -1 -17 22 -17 33 0 26 8 -3 16 -14 19 -25z m-483 -45 c22 -9
40 -18 40 -21 0 -13 -32 -63 -40 -63 -10 0 -50 72 -50 90 0 13 2 13 50 -6z
m-190 -12 c0 -5 -18 -17 -40 -27 -22 -10 -40 -22 -40 -27 0 -4 -4 -8 -10 -8
-25 0 -6 22 38 43 26 14 48 25 50 26 1 0 2 -3 2 -7z m-158 -42 c24 -10 61 -35
82 -54 33 -31 36 -36 21 -42 -11 -5 -22 -1 -30 10 -7 9 -22 18 -32 19 -20 1
-38 15 -41 32 -1 6 -10 10 -19 10 -19 -1 -33 13 -33 33 0 16 1 16 52 -8z m808
-7 c51 -18 72 -32 65 -43 -5 -9 -145 55 -145 66 0 3 8 3 18 -1 9 -4 37 -14 62
-22z m780 13 c0 -8 -7 -16 -15 -20 -17 -6 -18 -4 -9 18 8 20 24 21 24 2z
m-325 -5 c-11 -10 -30 -14 -60 -12 -17 1 -18 3 -5 11 19 13 77 13 65 1z m228
-11 c3 -3 -26 -6 -65 -7 -38 -1 -76 -7 -84 -13 -15 -13 -44 -7 -44 9 0 5 10
11 23 13 35 5 165 4 170 -2z m57 6 c0 -16 -32 -76 -41 -76 -14 0 -1 62 15 72
12 8 26 10 26 4z m36 -53 c-10 -10 -19 5 -10 18 6 11 8 11 12 0 2 -7 1 -15 -2
-18z m-1023 -15 c7 -25 1 -38 -18 -38 -20 0 -24 12 -14 38 11 28 25 28 32 0z
m917 -16 c0 -5 -9 -17 -20 -27 -23 -21 -26 -14 -8 15 13 20 28 27 28 12z m130
-6 c0 -3 -4 -8 -10 -11 -5 -3 -10 -1 -10 4 0 6 5 11 10 11 6 0 10 -2 10 -4z
m-1170 -25 c0 -20 -27 -48 -36 -38 -4 3 -4 18 0 32 7 29 36 34 36 6z m758 -36
c56 -11 32 -30 -32 -26 -48 3 -61 0 -81 -19 l-23 -22 -11 21 c-9 17 -8 22 11
32 32 17 71 28 88 24 8 -2 30 -7 48 -10z m-614 -36 c-8 -13 -24 -1 -24 18 0
13 3 13 15 3 8 -7 12 -16 9 -21z m294 -16 c7 -21 7 -33 1 -33 -11 0 -29 42
-29 68 0 23 15 4 28 -35z m630 18 c3 -10 -2 -11 -19 -6 -39 12 -48 27 -15 23
16 -2 31 -9 34 -17z m-2815 -6 c8 -18 2 -21 -69 -40 -85 -22 -91 -19 -53 29
17 22 28 26 69 26 33 0 50 -5 53 -15z m2657 11 c0 -3 -4 -8 -10 -11 -5 -3 -10
-1 -10 4 0 6 5 11 10 11 6 0 10 -2 10 -4z m-900 -37 c0 -17 -4 -28 -10 -24 -5
3 -10 17 -10 31 0 13 5 24 10 24 6 0 10 -14 10 -31z m837 -5 c-8 -15 -17 -22
-20 -17 -7 10 22 58 30 50 2 -3 -2 -18 -10 -33z m123 -5 c0 -6 -4 -7 -10 -4
-5 3 -10 11 -10 16 0 6 5 7 10 4 6 -3 10 -11 10 -16z m-334 -15 c-3 -9 -6 -20
-6 -25 0 -11 -11 -11 -28 -1 -18 12 -4 42 20 42 14 0 18 -5 14 -16z"/>
<path d="M6749 4703 c-13 -16 -12 -17 4 -4 16 13 21 21 13 21 -2 0 -10 -8 -17
-17z"/>
<path d="M6725 4669 c-4 -6 -5 -12 -2 -15 2 -3 7 2 10 11 7 17 1 20 -8 4z"/>
<path d="M7550 4746 c0 -2 7 -9 15 -16 13 -11 14 -10 9 4 -5 14 -24 23 -24 12z"/>
<path d="M7638 4713 c7 -3 16 -2 19 1 4 3 -2 6 -13 5 -11 0 -14 -3 -6 -6z"/>
<path d="M7310 4175 c-20 -24 -6 -28 15 -5 10 11 13 20 8 20 -6 0 -16 -7 -23
-15z"/>
<path d="M5210 308 c0 -16 19 -38 33 -38 4 0 7 10 5 22 -3 25 -38 39 -38 16z"/>
<path d="M3595 5275 c-9 -26 -15 -48 -12 -51 3 -3 12 16 21 42 21 62 14 68 -9
9z"/>
<path d="M3638 5243 c-2 -43 0 -87 4 -98 4 -11 7 24 7 78 1 53 -1 97 -3 97 -3
0 -6 -35 -8 -77z"/>
<path d="M4366 5311 c-4 -7 -5 -15 -2 -18 9 -9 19 4 14 18 -4 11 -6 11 -12 0z"/>
<path d="M4392 5295 c0 -16 2 -22 5 -12 2 9 2 23 0 30 -3 6 -5 -1 -5 -18z"/>
<path d="M4910 5300 c-9 -6 -10 -10 -3 -10 6 0 15 5 18 10 8 12 4 12 -15 0z"/>
<path d="M3536 5287 c3 -10 9 -15 12 -12 3 3 0 11 -7 18 -10 9 -11 8 -5 -6z"/>
<path d="M3351 5274 c0 -11 3 -14 6 -6 3 7 2 16 -1 19 -3 4 -6 -2 -5 -13z"/>
<path d="M3551 5223 c-3 -87 29 -247 46 -230 3 3 1 12 -3 19 -5 7 -10 35 -12
62 -3 42 0 52 20 68 21 18 22 19 1 9 -33 -16 -36 -14 -31 24 2 19 1 35 -3 35
-4 0 -10 12 -12 28 -3 19 -4 15 -6 -15z"/>
<path d="M4391 5233 c-1 -6 -4 -20 -7 -30 -5 -17 -5 -17 6 0 6 10 9 23 6 30
-3 9 -5 9 -5 0z"/>
<path d="M5800 5199 c0 -5 5 -7 10 -4 6 3 10 8 10 11 0 2 -4 4 -10 4 -5 0 -10
-5 -10 -11z"/>
<path d="M5060 5196 c0 -2 7 -7 16 -10 8 -3 12 -2 9 4 -6 10 -25 14 -25 6z"/>
<path d="M4235 5160 c3 -5 11 -10 16 -10 6 0 7 5 4 10 -3 6 -11 10 -16 10 -6
0 -7 -4 -4 -10z"/>
<path d="M3815 5150 c-3 -5 -1 -10 4 -10 6 0 11 5 11 10 0 6 -2 10 -4 10 -3 0
-8 -4 -11 -10z"/>
<path d="M4292 5136 c7 -8 17 -12 22 -9 4 3 2 9 -5 14 -22 13 -31 11 -17 -5z"/>
<path d="M4350 5121 c0 -6 4 -13 10 -16 6 -3 7 1 4 9 -7 18 -14 21 -14 7z"/>
<path d="M3774 5104 c-18 -14 -18 -15 4 -4 12 6 22 13 22 15 0 8 -5 6 -26 -11z"/>
<path d="M3345 5061 c-3 -5 -1 -12 5 -16 5 -3 10 1 10 9 0 18 -6 21 -15 7z"/>
<path d="M4466 5062 c12 -11 64 -33 64 -27 0 5 -56 35 -67 35 -4 0 -3 -4 3 -8z"/>
<path d="M5106 5053 c12 -10 27 -29 34 -41 6 -13 14 -21 17 -18 9 9 -25 54
-49 66 l-23 11 21 -18z"/>
<path d="M3624 5015 c-3 -13 -4 -30 -1 -37 3 -7 6 -2 6 13 1 14 6 30 13 37 9
9 9 12 0 12 -6 0 -14 -11 -18 -25z"/>
<path d="M3360 5023 c0 -13 29 -38 35 -31 3 3 -4 13 -15 23 -11 10 -20 13 -20
8z"/>
<path d="M3528 4983 c7 -3 16 -2 19 1 4 3 -2 6 -13 5 -11 0 -14 -3 -6 -6z"/>
<path d="M5250 4790 c-17 -71 -6 -86 13 -18 20 65 20 68 8 68 -5 0 -14 -22
-21 -50z"/>
<path d="M5880 4830 c0 -5 5 -10 10 -10 6 0 10 5 10 10 0 6 -4 10 -10 10 -5 0
-10 -4 -10 -10z"/>
<path d="M5460 4823 c0 -5 5 -15 10 -23 8 -12 10 -11 10 8 0 12 -4 22 -10 22
-5 0 -10 -3 -10 -7z"/>
<path d="M3790 4740 c0 -11 2 -20 4 -20 2 0 6 9 9 20 3 11 1 20 -4 20 -5 0 -9
-9 -9 -20z"/>
<path d="M3785 4675 c4 -11 10 -28 12 -37 3 -10 9 -18 14 -18 13 0 11 6 -12
42 -12 18 -18 24 -14 13z"/>
<path d="M4151 4656 c-8 -9 -8 -16 -2 -20 6 -4 15 3 21 14 12 23 -2 27 -19 6z"/>
<path d="M4245 4650 c41 -27 64 -27 40 0 -10 11 -30 20 -44 20 l-26 0 30 -20z"/>
<path d="M3154 4563 c-21 -53 -35 -85 -46 -107 -5 -10 -11 -45 -14 -79 -2 -35
-10 -67 -19 -77 -28 -31 -16 -34 16 -4 29 27 31 33 27 86 -3 39 0 59 8 62 7 3
15 23 19 45 4 23 12 44 19 48 7 5 16 20 20 36 10 41 -12 33 -30 -10z"/>
<path d="M5535 4504 c4 -43 9 -81 10 -82 2 -2 22 -6 44 -9 57 -8 85 17 77 68
-4 23 -1 42 8 55 14 18 15 18 23 -4 l9 -23 24 26 c13 14 22 25 19 26 -2 0 -31
1 -64 3 -33 1 -82 6 -108 11 l-49 8 7 -79z"/>
<path d="M6420 4551 c0 -12 28 -22 35 -12 3 5 -2 12 -11 15 -21 8 -24 8 -24
-3z"/>
<path d="M5687 4493 c-4 -3 -7 -22 -7 -40 0 -36 12 -37 30 -3 8 16 8 18 -5 14
-18 -7 -20 7 -3 24 7 7 8 12 2 12 -6 0 -14 -3 -17 -7z"/>
<path d="M3182 4415 c0 -16 2 -22 5 -12 2 9 2 23 0 30 -3 6 -5 -1 -5 -18z"/>
<path d="M3178 4345 c-2 -19 0 -35 4 -35 4 0 8 16 8 35 0 19 -2 35 -4 35 -2 0
-6 -16 -8 -35z"/>
<path d="M5621 4350 c-4 -20 -5 -310 -1 -310 3 0 11 10 19 22 9 15 10 23 3 26
-11 3 -10 60 3 167 2 23 -2 53 -10 70 -7 17 -14 28 -14 25z"/>
<path d="M6534 4309 c-3 -6 -1 -16 5 -22 8 -8 11 -5 11 11 0 24 -5 28 -16 11z"/>
<path d="M6492 4287 c-11 -13 -5 -57 7 -57 17 0 20 14 5 25 -15 10 -15 13 1
28 9 9 12 17 7 17 -5 0 -14 -6 -20 -13z"/>
<path d="M3182 4265 c0 -16 2 -22 5 -12 2 9 2 23 0 30 -3 6 -5 -1 -5 -18z"/>
<path d="M3050 4251 c0 -17 18 -21 24 -6 3 9 0 15 -9 15 -8 0 -15 -4 -15 -9z"/>
<path d="M5547 4244 c-4 -4 -7 -14 -7 -23 0 -11 3 -12 11 -4 6 6 10 16 7 23
-2 6 -7 8 -11 4z"/>
<path d="M5252 4212 c3 -25 6 -27 39 -24 36 3 59 -10 39 -23 -18 -11 -11 -24
13 -21 42 6 65 18 70 35 3 14 -1 17 -19 13 -12 -2 -35 3 -51 11 -15 8 -43 19
-61 25 -32 10 -33 10 -30 -16z"/>
<path d="M3036 4215 c-9 -25 -7 -67 3 -60 5 3 21 -9 35 -27 14 -18 28 -29 32
-26 3 4 -6 18 -20 31 -14 13 -26 35 -26 48 0 34 -15 56 -24 34z"/>
<path d="M3162 4196 c-6 -14 -16 -26 -21 -26 -5 0 -11 -7 -14 -14 -9 -22 15
-9 36 20 10 13 17 30 15 35 -2 6 -9 0 -16 -15z"/>
<path d="M5662 4200 c0 -14 2 -19 5 -12 2 6 2 18 0 25 -3 6 -5 1 -5 -13z"/>
<path d="M3380 3928 c-24 -38 -34 -72 -28 -90 4 -11 68 100 68 117 0 16 -23 1
-40 -27z"/>
<path d="M2820 3925 c-22 -26 12 -49 37 -24 14 14 6 39 -12 39 -7 0 -18 -7
-25 -15z"/>
<path d="M5660 3859 c-41 -21 -92 -44 -112 -51 -21 -6 -38 -15 -38 -19 0 -17
192 69 223 100 16 16 10 13 -73 -30z"/>
<path d="M5448 3773 c6 -2 18 -2 25 0 6 3 1 5 -13 5 -14 0 -19 -2 -12 -5z"/>
<path d="M6300 3744 c-6 -14 -10 -31 -10 -38 0 -6 -5 -17 -12 -24 -6 -6 -8
-15 -5 -19 13 -13 35 22 40 65 6 48 1 54 -13 16z"/>
<path d="M3663 3619 c1 -21 7 -36 15 -36 12 0 9 25 -9 57 -5 10 -7 2 -6 -21z"/>
<path d="M3623 3618 c-12 -15 -27 -58 -19 -58 6 0 37 62 32 67 -2 2 -8 -2 -13
-9z"/>
<path d="M5842 3564 c-34 -15 -35 -34 -3 -34 27 0 91 29 91 40 0 14 -49 11
-88 -6z"/>
<path d="M3651 3543 c-1 -6 -4 -20 -7 -30 -5 -17 -5 -17 6 0 6 10 9 23 6 30
-3 9 -5 9 -5 0z"/>
<path d="M3461 3483 c0 -6 -4 -20 -7 -30 -5 -14 -4 -15 5 -7 7 7 11 20 8 30
-3 11 -5 14 -6 7z"/>
<path d="M3602 3429 c-7 -11 -11 -23 -9 -25 7 -7 29 24 25 36 -2 6 -9 1 -16
-11z"/>
<path d="M4126 3100 c20 -33 40 -44 50 -28 7 11 -39 58 -57 58 -6 0 -2 -13 7
-30z"/>
<path d="M4690 1790 c-11 -8 -7 -9 15 -4 37 8 45 14 19 14 -10 0 -26 -5 -34
-10z"/>
<path d="M5018 1783 c7 -3 16 -2 19 1 4 3 -2 6 -13 5 -11 0 -14 -3 -6 -6z"/>
<path d="M4648 1773 c7 -3 16 -2 19 1 4 3 -2 6 -13 5 -11 0 -14 -3 -6 -6z"/>
<path d="M4519 1713 l-24 -28 30 25 c17 14 32 26 34 28 2 1 0 2 -6 2 -5 0 -20
-12 -34 -27z"/>
<path d="M5168 1733 c6 -2 18 -2 25 0 6 3 1 5 -13 5 -14 0 -19 -2 -12 -5z"/>
<path d="M4393 1553 c-3 -10 -8 -22 -10 -28 -3 -5 3 -1 11 9 16 20 21 36 11
36 -3 0 -8 -8 -12 -17z"/>
<path d="M6436 1115 c-9 -26 -7 -32 5 -12 6 10 9 21 6 23 -2 3 -7 -2 -11 -11z"/>
<path d="M4380 710 c0 -5 5 -10 11 -10 5 0 7 5 4 10 -3 6 -8 10 -11 10 -2 0
-4 -4 -4 -10z"/>
<path d="M5325 680 c3 -5 8 -10 11 -10 2 0 4 5 4 10 0 6 -5 10 -11 10 -5 0 -7
-4 -4 -10z"/>
<path d="M4345 551 c-16 -10 -55 -31 -85 -47 -51 -27 -89 -54 -76 -54 3 0 25
11 48 25 39 23 98 52 168 83 l25 11 -25 0 c-14 0 -38 -8 -55 -18z"/>
<path d="M3379 451 c-44 -14 -69 -31 -69 -49 -1 -22 -20 -46 -44 -55 -16 -7
-18 -14 -12 -68 4 -33 11 -70 16 -82 7 -18 9 -15 9 18 1 23 -4 46 -9 51 -15
15 3 57 35 82 19 16 24 26 20 44 -6 21 -1 26 34 38 63 20 101 -8 44 -32 -26
-11 -35 -14 -56 -17 -4 0 -3 -10 3 -22 10 -17 8 -21 -9 -26 -23 -6 -29 -23 -8
-23 7 0 23 7 35 16 13 9 26 14 29 11 12 -13 -63 -48 -90 -43 -30 6 -30 13 -7
-91 12 -52 13 -53 48 -53 33 -1 35 -2 17 -12 -42 -25 -45 -33 -32 -87 l12 -51
107 0 c60 0 108 4 108 9 0 4 -14 62 -31 127 -16 65 -30 140 -29 166 1 28 -4
50 -12 55 -7 4 -23 29 -35 56 -23 48 -29 51 -74 38z m71 -71 c0 -5 -2 -10 -4
-10 -3 0 -8 5 -11 10 -3 6 -1 10 4 10 6 0 11 -4 11 -10z m10 -48 c0 -11 -41
-34 -48 -28 -3 4 3 13 14 21 21 16 34 19 34 7z m30 -2 c0 -5 -2 -10 -4 -10 -3
0 -8 5 -11 10 -3 6 -1 10 4 10 6 0 11 -4 11 -10z"/>
<path d="M5578 448 c6 -6 31 -12 58 -14 60 -5 54 2 -14 14 -35 6 -50 6 -44 0z"/>
<path d="M5720 431 c8 -6 28 -11 44 -11 39 0 31 6 -19 14 -29 5 -36 4 -25 -3z"/>
<path d="M3365 410 c-3 -5 -2 -10 4 -10 5 0 13 5 16 10 3 6 2 10 -4 10 -5 0
-13 -4 -16 -10z"/>
<path d="M3818 86 c-18 -13 -23 -42 -12 -70 5 -12 20 -16 59 -16 l53 0 4 35
c3 24 -1 40 -12 50 -20 18 -69 19 -92 1z"/>
<path d="M3615 20 c-18 -20 -17 -20 53 -20 78 0 94 13 35 29 -54 15 -67 14
-88 -9z"/>
</g>
</svg>
