<?xml version="1.0" standalone="no"?>
<!DOCTYPE svg PUBLIC "-//W3C//DTD SVG 20010904//EN"
 "http://www.w3.org/TR/2001/REC-SVG-20010904/DTD/svg10.dtd">
<svg version="1.0" xmlns="http://www.w3.org/2000/svg"
 width="950.000000pt" height="534.000000pt" viewBox="0 0 950.000000 534.000000"
 preserveAspectRatio="xMidYMid meet">

<g transform="translate(0.000000,534.000000) scale(0.100000,-0.100000)"
fill="#000000" stroke="none">
<path d="M0 4456 c0 -776 2 -885 15 -890 8 -3 15 -10 15 -15 0 -6 -7 -8 -15
-5 -13 5 -14 -41 -15 -350 0 -227 4 -356 10 -356 6 0 10 -5 10 -11 0 -5 -4 -7
-10 -4 -6 4 -10 -481 -10 -1409 l0 -1416 4750 0 4750 0 0 2670 0 2670 -4750 0
-4750 0 0 -884z m3734 68 c9 -22 8 -24 -9 -18 -8 4 -15 12 -15 20 0 19 16 18
24 -2z m-3094 -613 c0 -4 -6 -13 -12 -20 -10 -11 -10 -13 0 -7 18 10 15 -9 -4
-25 -19 -16 -44 -21 -44 -8 0 5 5 9 11 9 7 0 6 8 -3 22 -14 21 -13 23 6 34 21
11 46 8 46 -5z m-75 -60 c3 -5 1 -12 -5 -16 -5 -3 -10 1 -10 9 0 18 6 21 15 7z
m-20 -33 c3 -3 -3 -8 -14 -11 -11 -2 -22 1 -24 7 -5 12 27 15 38 4z m5333 -49
c-2 -16 -12 -25 -34 -31 -46 -12 -69 -74 -41 -112 15 -21 69 -13 61 9 -3 7 -1
16 5 20 17 10 13 25 -4 19 -22 -9 -18 9 6 24 29 19 34 9 20 -39 -7 -22 -10
-43 -7 -46 3 -3 1 -15 -5 -25 -9 -16 -8 -19 3 -16 7 3 14 19 16 36 2 18 7 32
11 32 4 0 13 11 19 25 8 17 20 25 36 25 15 0 37 12 53 30 26 28 127 66 200 75
12 2 36 6 55 10 23 4 29 3 19 -4 -10 -6 -1 -8 30 -4 70 9 86 7 124 -17 29 -18
33 -25 24 -36 -6 -8 -23 -14 -36 -14 -22 0 -24 2 -12 16 11 13 9 15 -12 10
-13 -3 -50 -7 -81 -10 -32 -3 -65 -9 -73 -14 -14 -7 -13 -11 5 -27 28 -25 25
-32 -15 -39 -46 -9 -49 -18 -20 -50 20 -22 23 -31 15 -47 -6 -10 -7 -19 -3
-19 4 0 0 -7 -10 -14 -12 -9 -14 -16 -8 -21 18 -11 12 -44 -10 -55 -19 -11
-20 -13 -4 -30 12 -13 13 -20 5 -25 -9 -5 -9 -10 -1 -18 13 -13 15 -30 2 -23
-5 3 -11 -3 -14 -14 -3 -11 0 -20 6 -20 18 -1 51 -50 35 -50 -8 -1 -5 -6 6
-15 11 -8 15 -15 10 -15 -17 0 -11 -40 7 -45 36 -12 27 -68 -13 -81 -41 -13
-68 -102 -39 -128 10 -9 21 -13 24 -9 4 3 7 1 7 -5 0 -6 11 -23 25 -38 25 -27
34 -51 15 -39 -6 3 -13 -1 -16 -10 -5 -12 -15 -14 -41 -10 -34 5 -93 39 -93
54 0 3 -15 15 -32 26 -18 10 -38 25 -44 33 -11 15 -50 10 -41 -5 3 -5 -1 -13
-8 -20 -11 -10 -20 -6 -46 18 -18 17 -44 33 -58 35 -64 13 -118 96 -101 155 5
16 23 47 42 70 31 38 33 48 39 138 4 53 5 98 3 100 -2 2 -12 -3 -22 -13 -11
-9 -25 -14 -33 -11 -20 7 -58 66 -70 106 -12 42 -9 121 5 132 8 5 7 9 -1 15
-8 5 -9 13 -3 22 9 13 10 13 10 0 1 -8 10 2 21 24 17 31 25 37 45 33 13 -2 24
1 24 6 0 8 3 8 11 0 6 -6 9 -21 7 -34z m634 -31 c-15 -15 -24 -6 -16 16 5 12
10 14 17 7 8 -8 8 -14 -1 -23z m-6292 12 c0 -14 -38 -50 -52 -50 -8 0 -5 7 6
15 11 8 16 15 10 15 -5 0 0 7 10 15 23 18 26 18 26 5z m-43 -66 c-3 -3 -12 -4
-19 -1 -8 3 -5 6 6 6 11 1 17 -2 13 -5z m-87 -53 c0 -6 -4 -13 -10 -16 -5 -3
-10 1 -10 9 0 9 5 16 10 16 6 0 10 -4 10 -9z m308 -63 c-2 -17 -10 -23 -31
-25 -27 -2 -27 -2 -10 22 23 31 45 32 41 3z m-148 -33 c0 -6 -14 -26 -32 -44
-17 -18 -27 -31 -22 -30 28 5 35 -1 23 -22 -7 -14 -17 -19 -30 -16 -15 4 -19
0 -19 -20 0 -18 -4 -24 -15 -19 -9 3 -15 0 -15 -8 0 -8 -15 -24 -33 -35 -18
-11 -41 -29 -51 -40 -10 -11 -23 -18 -27 -15 -13 7 -11 54 2 54 5 0 7 4 4 10
-3 5 0 8 7 5 7 -3 23 10 35 28 13 18 32 33 44 34 28 2 41 22 34 51 -3 13 -2
21 2 19 5 -3 22 9 38 27 30 32 55 42 55 21z m787 -30 c0 -8 -4 -15 -9 -15 -10
0 -11 14 -1 23 9 10 10 9 10 -8z m5530 -40 c2 -11 4 -55 5 -98 2 -73 1 -80
-22 -97 -15 -12 -30 -15 -40 -10 -18 9 -50 7 -68 -4 -31 -19 -41 21 -17 68 14
26 14 31 0 46 -23 25 0 65 46 79 20 6 40 18 43 27 8 22 48 14 53 -11z m-874
-202 c-7 -2 -13 -10 -13 -17 0 -7 -10 -23 -22 -36 -18 -19 -22 -35 -21 -80 1
-50 0 -53 -11 -31 -7 13 -12 36 -11 52 1 16 2 43 3 59 2 25 6 30 27 30 16 0
25 6 25 15 0 8 8 15 18 14 10 0 12 -3 5 -6z m-102 -59 c-35 -45 -44 -87 -27
-129 15 -36 15 -36 -7 -29 -45 13 -87 33 -87 41 0 7 131 143 138 143 2 0 -6
-12 -17 -26z m759 -24 c0 -5 -5 -10 -11 -10 -5 0 -7 5 -4 10 3 6 8 10 11 10 2
0 4 -4 4 -10z m26 -9 c-3 -5 11 -11 31 -14 27 -5 42 -2 55 10 18 16 24 8 10
-14 -11 -18 -142 -30 -142 -13 0 7 8 19 18 26 19 15 36 18 28 5z m-56 -16 c0
-8 -2 -15 -4 -15 -2 0 -6 7 -10 15 -3 8 -1 15 4 15 6 0 10 -7 10 -15z m-850
-109 c0 -3 -4 -8 -10 -11 -5 -3 -10 -1 -10 4 0 6 5 11 10 11 6 0 10 -2 10 -4z
m-85 -46 c19 -9 19 -9 -3 -16 -15 -4 -21 -12 -18 -21 3 -8 1 -11 -4 -8 -6 3
-10 0 -10 -9 0 -8 -16 -20 -37 -27 l-36 -12 27 -11 27 -11 -21 -22 c-11 -13
-17 -23 -13 -23 4 -1 -8 -9 -27 -19 -19 -11 -35 -23 -34 -28 0 -4 -10 -16 -23
-26 -13 -10 -23 -25 -23 -33 0 -8 -6 -17 -14 -20 -10 -4 -15 -19 -14 -44 0
-21 -3 -44 -8 -52 -5 -7 -9 -17 -10 -23 -15 -106 -15 -125 0 -125 9 0 16 -5
16 -11 0 -5 -4 -7 -10 -4 -9 6 -14 -14 -11 -42 1 -7 -3 -13 -9 -13 -5 0 -10
-9 -10 -21 0 -15 -4 -19 -16 -15 -12 4 -15 2 -10 -9 3 -8 1 -15 -4 -15 -5 0
-5 -13 0 -30 6 -22 5 -30 -4 -30 -6 0 -12 -8 -13 -17 -1 -27 -10 -60 -22 -82
-14 -26 -14 -31 3 -31 29 0 -14 -105 -47 -116 -18 -6 -19 -7 -4 -16 14 -7 15
-13 6 -30 -7 -14 -8 -23 -1 -27 6 -3 -7 -15 -29 -25 -23 -11 -39 -26 -39 -37
0 -19 -20 -29 -53 -28 -20 0 -19 2 4 10 27 10 40 33 31 57 -2 8 -14 2 -32 -18
-36 -38 -44 -38 -47 4 -3 33 -2 34 33 34 20 0 41 6 48 12 8 10 8 11 -3 5 -10
-6 -12 -2 -6 14 5 18 3 21 -17 19 -13 -2 -31 -13 -41 -25 -24 -29 -31 -29 -45
2 -16 34 -15 40 2 26 16 -13 16 -13 51 54 22 41 65 62 65 31 0 -9 4 -16 9 -16
14 0 33 28 27 39 -4 5 -1 13 4 16 14 9 52 -24 44 -37 -3 -5 3 -4 15 4 12 7 21
20 20 28 0 10 -2 11 -6 3 -7 -19 -44 4 -42 25 3 30 -1 37 -11 22 -7 -10 -10
-11 -10 -2 0 7 7 15 15 18 8 4 15 14 15 23 0 11 3 12 8 4 5 -8 12 -8 26 3 19
13 10 20 -19 14 -5 -1 -4 4 3 11 14 15 16 49 3 49 -5 0 -7 9 -4 19 3 11 -3 30
-12 43 -9 13 -15 16 -13 8 4 -14 -20 -50 -34 -50 -5 0 -8 6 -8 14 0 8 -4 16
-10 18 -9 3 -1 46 18 98 7 20 9 28 11 40 0 6 8 10 17 10 9 0 12 5 8 11 -5 8 1
10 18 6 17 -5 25 -2 25 8 0 25 -57 15 -75 -14 -27 -43 -42 -55 -53 -44 -13 13
29 64 75 93 19 11 37 32 40 45 4 14 11 25 16 25 6 0 10 8 10 17 0 13 3 14 12
5 16 -16 28 -15 28 3 0 8 -7 15 -15 15 -17 0 -20 25 -5 35 6 4 8 11 5 16 -3 5
2 6 11 2 11 -4 15 -2 11 4 -13 21 82 128 140 158 15 8 21 15 13 15 -9 0 -21
-5 -27 -11 -8 -8 -17 -8 -31 0 -28 15 -38 14 -56 -5 -9 -8 -28 -17 -42 -20
-30 -5 -114 -72 -114 -91 0 -6 -6 -16 -13 -20 -7 -4 -19 -23 -26 -40 -8 -18
-17 -33 -22 -33 -5 0 -6 -7 -2 -16 5 -13 8 -13 23 3 9 10 27 24 38 32 12 8 18
19 15 24 -3 6 -1 7 5 3 6 -3 17 2 24 12 7 10 23 24 35 30 19 10 20 9 16 -8 -3
-11 -9 -20 -13 -20 -5 0 -12 -9 -15 -20 -3 -11 -13 -20 -21 -20 -8 0 -14 -3
-14 -8 0 -4 -14 -23 -32 -42 -18 -19 -31 -38 -30 -42 1 -5 -2 -8 -8 -8 -5 0
-10 -9 -10 -20 0 -12 -7 -20 -16 -20 -12 0 -14 -7 -9 -29 4 -21 2 -30 -9 -34
-9 -4 -16 -18 -16 -33 0 -19 4 -25 15 -20 12 4 13 2 6 -12 -5 -9 -17 -26 -26
-37 -16 -20 -16 -20 -6 1 11 23 -1 54 -14 34 -4 -6 -4 -14 -1 -17 3 -3 1 -14
-5 -24 -6 -13 -6 -19 1 -19 5 0 -3 -19 -20 -42 -31 -42 -33 -61 -5 -38 11 9
15 9 15 1 0 -7 5 -9 11 -6 6 4 8 14 4 23 -3 9 -3 14 0 10 4 -3 20 -2 37 3 29
8 30 8 14 -10 -16 -18 -16 -20 1 -31 14 -9 14 -10 2 -7 -13 4 -15 1 -12 -14 3
-10 0 -20 -6 -20 -6 -1 -16 -2 -21 -3 -16 -2 -30 -28 -30 -54 0 -13 -9 -37
-21 -53 -11 -16 -22 -36 -23 -44 -1 -8 -5 -17 -8 -21 -4 -3 -4 -13 -1 -22 4
-10 2 -13 -5 -8 -7 4 -12 13 -12 21 0 7 -7 15 -15 19 -9 3 -15 0 -15 -9 0 -7
-5 -17 -12 -21 -7 -5 -8 -2 -3 7 5 8 5 11 1 7 -4 -3 -8 -10 -8 -15 0 -4 -4
-18 -9 -30 -6 -17 -4 -25 9 -32 10 -7 12 -11 4 -11 -7 0 -24 11 -37 25 -20 19
-25 21 -25 8 0 -11 -3 -14 -10 -7 -7 7 -1 27 16 62 25 50 54 69 54 36 0 -13 3
-14 14 -5 10 8 13 27 11 56 -3 37 -1 44 18 49 12 3 33 15 46 26 l24 20 -28 26
c-32 30 -35 60 -10 117 4 9 5 26 2 37 -3 11 -1 23 4 26 12 7 11 34 -1 34 -5 0
-10 -7 -10 -15 0 -8 -4 -15 -10 -15 -5 0 -10 -5 -10 -11 0 -10 -58 -100 -71
-109 -13 -10 -49 -85 -49 -103 0 -23 -31 -77 -43 -77 -5 0 -7 -9 -4 -21 3 -13
0 -22 -10 -26 -8 -3 -24 -27 -34 -52 -39 -91 -44 -101 -50 -101 -4 0 -10 -15
-13 -34 -7 -36 -35 -71 -37 -45 0 8 -5 1 -11 -15 -8 -22 -7 -30 3 -37 10 -6 8
-9 -9 -9 -16 0 -23 -5 -21 -17 3 -38 -2 -53 -18 -53 -14 0 -15 -2 -5 -9 11 -7
11 -11 -1 -22 -7 -8 -16 -21 -20 -29 -4 -12 -6 -12 -6 2 -1 9 4 20 9 23 7 4 7
13 0 25 -11 21 -5 41 62 202 23 54 45 95 49 92 5 -3 9 3 9 14 0 42 122 303
167 356 13 16 50 79 80 140 50 100 65 121 157 211 97 95 181 169 215 189 29
17 196 75 216 75 11 0 29 -4 40 -9z m-205 -120 c-20 -13 -33 -13 -25 0 3 6 14
10 23 10 15 0 15 -2 2 -10z m293 -45 c-3 -9 -8 -14 -10 -11 -3 3 -2 9 2 15 9
16 15 13 8 -4z m-188 -35 c-3 -5 -14 -10 -23 -9 -14 0 -13 2 3 9 27 11 27 11
20 0z m-4945 -89 c0 -6 -9 -9 -19 -8 -11 0 -17 5 -15 9 7 11 34 10 34 -1z
m4915 -76 c-1 -42 -19 -65 -37 -47 -9 9 -7 16 7 32 10 11 16 23 12 26 -9 9
-27 -5 -27 -22 0 -8 -10 -14 -22 -14 -21 0 -21 0 -2 15 10 8 15 15 10 15 -5 0
1 9 13 19 31 27 48 17 46 -24z m-33 -88 c-12 -49 -52 -84 -52 -46 0 6 5 7 10
4 6 -3 11 2 12 12 2 33 3 38 11 51 13 19 26 5 19 -21z m62 -105 c7 -12 -17
-38 -41 -46 -18 -6 -22 -4 -17 8 3 9 10 14 14 11 5 -3 11 4 15 15 6 20 20 26
29 12z m20 -59 c-10 -17 -62 -25 -70 -11 -3 4 6 10 20 14 13 3 27 13 31 22 4
12 8 13 18 3 8 -8 9 -16 1 -28z m-559 -43 c3 -5 1 -10 -4 -10 -6 0 -11 5 -11
10 0 6 2 10 4 10 3 0 8 -4 11 -10z m482 -12 c-3 -8 -6 -5 -6 6 -1 11 2 17 5
13 3 -3 4 -12 1 -19z m9 -89 c0 -13 -4 -29 -9 -36 -12 -16 1 -36 19 -29 11 4
12 2 1 -14 -6 -11 -16 -20 -22 -20 -5 0 -3 -5 5 -10 9 -6 10 -10 3 -10 -17 0
-29 23 -15 28 7 2 9 8 6 13 -3 6 -12 5 -22 -3 -14 -12 -14 -10 -3 10 8 16 9
27 1 42 -8 14 -8 26 0 41 14 26 35 19 36 -12z m-517 -81 c-12 -22 -29 -24 -29
-2 0 9 -5 12 -12 8 -7 -4 -8 -3 -4 5 4 6 12 9 17 6 5 -4 12 1 15 10 5 13 9 14
15 4 4 -7 3 -21 -2 -31z m223 14 c-7 -2 -12 -11 -12 -19 0 -9 -3 -14 -6 -10
-10 10 7 48 19 40 8 -5 8 -8 -1 -11z m-277 -39 c-2 -10 -4 -18 -5 -18 -1 0 -4
-13 -6 -29 -3 -16 -11 -38 -19 -49 -7 -11 -11 -25 -9 -32 6 -14 -22 -28 -37
-19 -14 8 -11 19 16 50 14 16 25 41 25 57 0 15 5 27 10 27 6 0 10 7 10 15 0 8
4 15 9 15 5 0 8 -8 6 -17z m523 -74 c-3 -8 -7 -3 -11 10 -4 17 -3 21 5 13 5
-5 8 -16 6 -23z m36 -64 c-5 -11 1 -15 22 -15 19 0 25 -3 16 -8 -16 -10 -5
-42 14 -42 8 0 14 5 14 10 0 6 7 10 15 10 8 0 15 -7 15 -15 0 -9 10 -15 28
-16 15 -1 20 -3 10 -6 -23 -6 -30 -29 -12 -43 11 -10 14 -8 14 11 0 18 2 21 9
10 6 -10 5 -24 -4 -41 -9 -17 -12 -45 -9 -79 5 -51 5 -52 -21 -45 -14 3 -25 2
-26 -2 0 -5 -2 -19 -3 -31 -2 -15 2 -20 13 -16 13 4 13 3 -1 -6 -19 -13 -31
-57 -32 -126 -1 -27 -5 -55 -9 -62 -5 -8 -1 -11 12 -10 11 0 17 5 14 10 -2 4
0 14 6 21 7 8 13 32 14 54 2 23 6 44 10 48 12 12 -3 -89 -15 -103 -7 -9 -7
-13 2 -13 6 0 10 -6 8 -12 -6 -16 -49 -19 -65 -6 -9 7 -13 7 -13 0 0 -6 5 -14
11 -17 6 -4 8 -13 5 -21 -3 -8 -2 -14 3 -14 11 0 4 -157 -9 -179 -5 -10 -6
-21 -3 -25 3 -3 2 -6 -4 -6 -7 0 -9 17 -7 45 3 26 0 45 -6 45 -5 0 -9 25 -8
58 1 37 -4 71 -15 94 -13 27 -14 43 -7 68 7 26 6 38 -4 49 -26 29 -28 64 -6
99 11 18 24 31 28 28 4 -2 7 14 7 35 1 21 -1 39 -5 39 -3 0 -6 14 -7 30 -2 27
5 35 30 31 4 0 7 5 7 12 0 15 -46 21 -55 7 -3 -6 2 -7 12 -4 16 5 16 4 -1 -10
-26 -21 -37 -20 -43 4 -3 11 -10 20 -15 20 -5 0 -6 -9 -3 -20 5 -15 2 -20 -12
-20 -10 0 -14 4 -8 8 6 4 10 12 11 17 2 28 28 75 45 80 22 7 42 -2 34 -16 -4
-5 -1 -9 4 -9 15 0 14 3 -13 60 -23 47 -23 50 -5 50 12 0 16 -5 13 -15z m-32
-47 c-7 -7 -10 -5 -7 8 5 29 6 30 12 16 3 -8 1 -18 -5 -24z m-370 -23 c3 -14
1 -25 -3 -25 -5 0 -9 11 -9 25 0 14 2 25 4 25 2 0 6 -11 8 -25z m-55 -21 c-3
-4 0 -22 8 -41 16 -38 20 -61 8 -49 -7 7 -33 76 -33 89 0 4 5 7 12 7 6 0 9 -3
5 -6z m133 -53 c0 -5 -7 -12 -16 -15 -10 -4 -13 -13 -9 -25 10 -31 -10 -32
-22 -1 -9 23 -8 27 3 23 8 -3 17 2 20 11 7 17 24 22 24 7z m296 -66 c1 -14 -2
-25 -7 -25 -5 0 -9 5 -9 10 0 6 -6 10 -14 10 -9 0 -12 -7 -9 -20 3 -11 9 -18
13 -15 5 3 6 -4 3 -15 -3 -10 -14 -22 -25 -26 -16 -5 -18 -8 -7 -15 11 -7 11
-11 2 -17 -7 -4 -9 -13 -4 -21 13 -20 2 -47 -25 -61 -13 -7 -21 -16 -19 -20 7
-12 -21 -44 -32 -37 -20 12 -22 48 -5 55 40 15 59 59 22 49 -11 -3 -23 -1 -26
4 -3 5 0 9 7 9 8 0 9 4 0 13 -8 10 -7 21 2 40 6 15 15 27 20 27 4 0 7 12 8 28
0 16 3 21 6 12 3 -8 10 -18 16 -22 14 -9 36 14 29 31 -6 16 24 42 41 35 7 -2
13 -15 13 -29z m-241 15 c3 -5 1 -10 -4 -10 -6 0 -11 5 -11 10 0 6 2 10 4 10
3 0 8 -4 11 -10z m42 -32 c-3 -8 -6 -5 -6 6 -1 11 2 17 5 13 3 -3 4 -12 1 -19z
m-541 -14 c-4 -9 -9 -15 -11 -12 -3 3 -3 13 1 22 4 9 9 15 11 12 3 -3 3 -13
-1 -22z m61 -6 c-3 -7 -5 -2 -5 12 0 14 2 19 5 13 2 -7 2 -19 0 -25z m436 19
c7 3 9 3 5 -2 -4 -4 1 -20 12 -35 11 -15 17 -29 15 -32 -3 -3 -7 -20 -9 -39
-2 -19 -4 -38 -5 -44 -1 -5 -6 -2 -12 7 -5 10 -16 15 -24 12 -8 -4 -15 -1 -15
5 0 6 -12 11 -27 12 l-28 1 25 7 c17 5 21 9 12 15 -19 12 -15 46 7 46 10 0 24
7 31 15 9 10 9 15 1 15 -6 0 -11 8 -10 18 0 10 3 12 6 4 2 -6 10 -9 16 -5z
m-393 -27 c0 -5 -4 -10 -10 -10 -5 0 -10 5 -10 10 0 6 5 10 10 10 6 0 10 -4
10 -10z m648 -25 c0 -15 -6 -25 -15 -25 -10 0 -13 6 -9 16 3 9 6 20 6 25 0 5
4 9 9 9 5 0 9 -11 9 -25z m-831 -77 c-3 -8 -6 -5 -6 6 -1 11 2 17 5 13 3 -3 4
-12 1 -19z m-32 -18 c-4 -6 -3 -24 0 -41 6 -28 8 -29 20 -12 17 22 15 -1 -2
-32 -5 -11 -8 -26 -6 -32 3 -7 0 -13 -7 -13 -6 0 -9 4 -6 8 2 4 1 14 -5 22 -6
11 -9 6 -9 -18 0 -37 -37 -121 -56 -129 -8 -3 -12 -9 -9 -13 3 -5 -3 -13 -12
-19 -14 -8 -15 -11 -3 -11 12 -1 11 -3 -3 -14 -14 -11 -15 -15 -5 -19 7 -3 3
-6 -9 -6 -13 -1 -23 -7 -23 -15 0 -16 -37 -83 -57 -104 -7 -7 -13 -11 -13 -9
0 5 27 69 67 157 14 30 43 94 64 141 21 48 39 92 39 98 0 15 29 71 36 71 3 0
2 -5 -1 -10z m818 -82 c1 -19 -2 -39 -7 -46 -4 -7 -2 -12 6 -12 9 0 9 -3 -2
-10 -8 -5 -10 -10 -4 -10 6 0 11 -7 11 -15 0 -18 -23 -20 -31 -2 -5 9 -7 9
-12 -1 -7 -16 -24 -6 -24 15 0 8 8 27 19 41 10 15 21 40 25 56 9 35 18 27 19
-16z m-99 -115 c-3 -21 -9 -40 -15 -43 -5 -4 -7 -14 -3 -23 3 -10 1 -17 -6
-17 -6 0 -8 -6 -4 -12 4 -7 -5 -2 -19 11 -24 22 -29 49 -6 36 5 -3 6 1 3 10
-5 11 0 18 15 22 11 3 18 9 15 15 -8 12 3 38 15 38 5 0 7 -17 5 -37z m114 -44
c7 -28 7 -36 -4 -36 -10 0 -14 13 -14 40 0 47 4 46 18 -4z m-24 -140 c-9 -15
-24 10 -17 29 5 12 7 12 15 -2 5 -9 6 -21 2 -27z m-34 1 c0 -5 -2 -10 -4 -10
-3 0 -8 5 -11 10 -3 6 -1 10 4 10 6 0 11 -4 11 -10z m340 -34 c0 -2 -7 -7 -16
-10 -8 -3 -12 -2 -9 4 6 10 25 14 25 6z m-275 -54 c13 -9 17 -52 5 -52 -6 0
-10 6 -10 13 0 8 -4 7 -10 -3 -6 -9 -10 -10 -10 -3 0 6 5 15 10 18 6 4 8 11 4
16 -3 5 -10 6 -16 3 -7 -4 -8 -2 -4 4 8 14 17 15 31 4z m68 -33 c-4 -12 0 -25
8 -30 9 -5 10 -9 2 -9 -6 0 -14 -13 -18 -30 -6 -27 -21 -47 -30 -39 -7 8 27
139 35 134 5 -3 6 -14 3 -26z m44 -21 c-3 -8 -6 -5 -6 6 -1 11 2 17 5 13 3 -3
4 -12 1 -19z m150 9 c-3 -7 1 -21 9 -32 19 -25 18 -61 -2 -69 -9 -3 -14 -12
-11 -19 3 -8 -3 -19 -13 -25 -14 -9 -19 -8 -24 3 -3 8 -3 22 1 31 3 9 1 19 -5
23 -13 8 25 101 41 101 5 0 7 -6 4 -13z m63 -47 c0 -13 -6 -20 -17 -19 -11 0
-13 3 -5 6 6 2 12 11 12 19 0 8 2 14 5 14 3 0 5 -9 5 -20z m-223 -37 c-1 -10
-6 -23 -9 -29 -4 -6 -9 -23 -12 -38 -7 -39 -14 -43 -25 -15 -6 17 -5 29 5 40
8 8 14 20 14 25 0 9 20 34 27 34 2 0 2 -8 0 -17z m193 -73 c0 -5 -5 -10 -11
-10 -5 0 -7 5 -4 10 3 6 8 10 11 10 2 0 4 -4 4 -10z m-153 -17 c2 -35 -18 -93
-31 -93 -22 0 -18 68 5 91 23 23 25 23 26 2z m97 1 c14 -5 14 -9 4 -22 -11
-13 -9 -14 12 -8 18 5 21 5 11 -3 -12 -7 -12 -13 -3 -24 13 -16 6 -50 -9 -41
-5 3 -9 -5 -9 -17 0 -22 0 -22 19 -3 10 10 16 23 13 28 -3 5 0 6 6 3 14 -9 9
-36 -9 -48 -9 -6 -10 -9 -2 -9 7 0 10 -7 7 -15 -5 -11 -2 -13 10 -9 9 3 13 10
10 15 -8 14 6 11 22 -5 16 -16 2 -32 -18 -20 -7 5 -8 3 -3 -6 4 -7 2 -16 -6
-21 -9 -6 -10 -12 -4 -16 6 -5 11 -21 12 -38 l2 -30 -19 23 c-19 23 -35 16
-24 -11 7 -19 -24 -87 -40 -87 -6 0 -3 -7 7 -14 15 -11 15 -15 3 -19 -9 -4
-21 4 -30 18 -20 30 -20 35 0 49 13 10 29 87 25 121 -3 19 -3 110 -1 140 1 17
-1 40 -5 53 -8 24 -6 25 19 16z m-168 -113 c-14 -18 -20 2 -11 37 l8 27 7 -25
c4 -14 2 -31 -4 -39z m101 -28 c-3 -10 -5 -4 -5 12 0 17 2 24 5 18 2 -7 2 -21
0 -30z m-707 2 c-7 -8 -17 -15 -23 -15 -6 0 -2 7 9 15 25 19 30 19 14 0z m654
-127 c-5 -7 -2 -9 9 -5 11 4 15 1 12 -14 -2 -10 2 -19 8 -19 7 0 6 -4 -3 -10
-13 -8 -12 -10 3 -10 9 0 17 -4 17 -10 0 -28 -49 14 -54 47 -3 18 1 33 10 33
3 0 2 -5 -2 -12z m205 -77 c-15 -5 -22 6 -14 19 6 9 10 9 16 -1 5 -8 4 -15 -2
-18z m-959 -50 c0 -12 -20 -25 -27 -18 -7 7 6 27 18 27 5 0 9 -4 9 -9z m878
-166 c-3 -3 -9 2 -12 12 -6 14 -5 15 5 6 7 -7 10 -15 7 -18z"/>
<path d="M5840 3569 c0 -11 5 -17 10 -14 6 3 10 13 10 21 0 8 -4 14 -10 14 -5
0 -10 -9 -10 -21z"/>
<path d="M5868 3533 c7 -3 16 -2 19 1 4 3 -2 6 -13 5 -11 0 -14 -3 -6 -6z"/>
<path d="M5511 3123 c-18 -19 -9 -26 14 -9 10 7 14 15 9 18 -5 3 -15 -1 -23
-9z"/>
<path d="M5213 2818 c-21 -27 -26 -41 -14 -37 7 3 12 8 11 13 -1 4 7 14 17 22
10 7 13 14 7 14 -6 0 -16 -6 -21 -12z"/>
<path d="M5130 2729 c-31 -42 -20 -45 13 -4 15 19 23 35 18 35 -5 0 -19 -14
-31 -31z"/>
<path d="M4905 2650 c-3 -5 -1 -10 4 -10 6 0 11 5 11 10 0 6 -2 10 -4 10 -3 0
-8 -4 -11 -10z"/>
<path d="M4880 2604 c0 -8 5 -12 10 -9 6 4 8 11 5 16 -9 14 -15 11 -15 -7z"/>
<path d="M5034 2580 c-12 -21 -16 -36 -10 -34 12 5 41 62 34 69 -2 2 -13 -14
-24 -35z"/>
<path d="M4813 2605 c4 -5 0 -19 -9 -33 -9 -13 -11 -21 -5 -18 21 13 32 44 19
52 -7 4 -10 3 -5 -1z"/>
<path d="M4850 2531 c0 -5 5 -13 10 -16 6 -3 10 -2 10 4 0 5 -4 13 -10 16 -5
3 -10 2 -10 -4z"/>
<path d="M4820 2509 c0 -5 5 -7 10 -4 6 3 10 8 10 11 0 2 -4 4 -10 4 -5 0 -10
-5 -10 -11z"/>
<path d="M4860 2479 c0 -5 5 -7 10 -4 6 3 10 8 10 11 0 2 -4 4 -10 4 -5 0 -10
-5 -10 -11z"/>
<path d="M5006 2475 c4 -8 10 -15 14 -15 4 0 10 7 14 15 4 10 -1 15 -14 15
-13 0 -18 -5 -14 -15z"/>
<path d="M5050 2483 c0 -5 4 -14 9 -21 6 -10 10 -9 14 7 3 14 0 21 -9 21 -8 0
-14 -3 -14 -7z"/>
<path d="M5037 2445 c-4 -8 -2 -17 3 -20 6 -4 10 3 10 14 0 25 -6 27 -13 6z"/>
<path d="M4481 1964 c-7 -25 -10 -48 -8 -51 3 -2 10 17 16 43 7 25 10 48 8 51
-3 2 -10 -17 -16 -43z"/>
<path d="M4943 1964 c0 -16 2 -21 7 -14 5 7 13 9 21 5 8 -5 5 1 -5 13 -24 27
-23 27 -23 -4z"/>
<path d="M5245 1880 c3 -5 8 -10 11 -10 2 0 4 5 4 10 0 6 -5 10 -11 10 -5 0
-7 -4 -4 -10z"/>
<path d="M5258 1814 c-15 -15 -13 -68 2 -59 5 3 6 14 3 26 -4 12 0 25 8 29 7
5 11 11 8 14 -3 3 -12 -1 -21 -10z"/>
<path d="M5313 1755 c0 -8 4 -15 9 -15 4 0 8 7 8 15 0 8 -4 15 -8 15 -5 0 -9
-7 -9 -15z"/>
<path d="M5234 1668 c-10 -12 -13 -18 -6 -14 8 5 16 -2 22 -18 9 -26 30 -36
30 -15 0 5 -4 7 -10 4 -14 -9 -12 8 3 24 10 11 9 13 -6 8 -15 -6 -17 -3 -12
13 8 26 3 25 -21 -2z"/>
<path d="M5230 1616 c5 -13 7 -26 5 -28 -2 -2 5 -4 15 -5 25 -2 25 6 1 35 -25
29 -33 28 -21 -2z"/>
<path d="M5241 1514 c0 -11 3 -14 6 -6 3 7 2 16 -1 19 -3 4 -6 -2 -5 -13z"/>
<path d="M5430 1060 c0 -5 5 -10 10 -10 6 0 10 5 10 10 0 6 -4 10 -10 10 -5 0
-10 -4 -10 -10z"/>
</g>
</svg>
