<?xml version="1.0" standalone="no"?>
<!DOCTYPE svg PUBLIC "-//W3C//DTD SVG 20010904//EN"
 "http://www.w3.org/TR/2001/REC-SVG-20010904/DTD/svg10.dtd">
<svg version="1.0" xmlns="http://www.w3.org/2000/svg"
 width="740.000000pt" height="429.000000pt" viewBox="0 0 740.000000 429.000000"
 preserveAspectRatio="xMidYMid meet">

<g transform="translate(0.000000,429.000000) scale(0.100000,-0.100000)"
fill="#000000" stroke="none">
<path d="M1 3669 c-2 -494 1 -624 11 -637 9 -11 9 -14 1 -9 -9 6 -12 -331 -13
-1508 l0 -1515 290 0 c160 0 289 4 286 8 -2 4 -1 14 4 21 9 16 30 6 30 -15 0
-12 234 -14 1759 -14 l1760 0 9 43 10 42 1 -42 c1 -39 3 -43 26 -43 21 0 25 5
25 29 0 17 -4 33 -10 36 -5 3 -10 14 -10 23 0 15 2 15 10 2 7 -11 10 -3 11 30
l0 45 14 -50 c8 -27 14 -64 15 -81 0 -29 2 -31 43 -32 23 0 36 2 30 5 -7 2
-13 13 -13 23 0 10 -4 21 -9 24 -5 4 -12 29 -16 56 -4 28 -13 57 -21 65 -9 8
-10 16 -4 20 8 5 40 -54 40 -75 0 -5 10 -33 21 -64 l22 -56 694 0 c453 1 691
5 687 11 -3 5 -14 7 -25 4 -13 -4 -19 -2 -17 6 2 7 -7 18 -19 24 -13 5 -23 13
-23 18 0 4 -5 5 -12 1 -7 -5 -8 -3 -3 6 6 10 2 11 -18 6 -16 -4 -29 -1 -33 6
-5 8 -2 9 9 5 10 -3 17 -2 17 3 0 6 -9 10 -21 10 -13 0 -18 4 -14 13 4 6 -1 3
-9 -7 -9 -11 -19 -17 -22 -13 -3 3 3 15 14 27 17 19 23 20 41 8 12 -7 21 -16
21 -19 0 -4 35 -30 78 -58 l78 -51 827 0 827 0 0 2145 0 2145 -3289 0 c-1809
0 -3296 -3 -3304 -6 -11 -4 -13 -13 -6 -42 5 -20 9 -50 9 -66 0 -28 -1 -28
-42 -22 -58 9 -77 33 -71 91 l4 45 -349 0 -350 0 -1 -621z m3327 590 c33 0 41
-3 27 -8 -16 -7 -14 -9 14 -14 50 -10 141 -8 116 3 l-20 9 20 0 c11 1 33 -6
49 -14 16 -9 36 -13 43 -10 8 2 11 0 8 -5 -3 -5 -38 -8 -78 -6 -66 3 -70 2
-42 -10 29 -13 29 -13 -27 -14 -32 0 -58 -4 -58 -9 0 -9 72 -26 105 -23 11 0
14 -2 7 -4 -6 -3 -10 -10 -6 -15 3 -5 -3 -9 -13 -10 -10 0 -47 -2 -83 -5 -86
-8 -90 -8 -127 1 -24 5 -33 4 -33 -5 0 -7 7 -10 15 -6 8 3 15 1 15 -4 0 -6
-44 -10 -105 -10 -85 0 -107 -3 -111 -15 -4 -8 -10 -15 -16 -15 -5 0 -6 5 -3
10 10 17 -11 11 -37 -9 -13 -11 -40 -26 -59 -34 -40 -18 -17 -22 30 -6 17 6
31 17 31 25 0 8 8 14 18 14 14 0 15 -2 2 -10 -16 -11 31 -5 80 9 14 4 59 8
100 10 41 2 77 7 80 11 5 7 84 7 155 0 18 -2 -73 -20 -175 -34 -19 -3 -64 -12
-100 -20 -69 -15 -90 -13 -46 3 40 16 31 20 -16 9 -24 -6 -49 -11 -55 -11 -7
0 -13 -4 -13 -8 0 -4 -7 -10 -16 -13 -14 -5 -15 -4 -4 9 7 8 8 15 2 15 -5 0
-15 -6 -21 -14 -7 -8 -28 -17 -49 -22 l-37 -8 35 -6 c35 -7 35 -7 5 -9 -28 -1
-123 -41 -98 -41 6 0 19 -3 29 -7 12 -4 15 -3 10 5 -4 7 4 14 21 18 15 3 34 7
41 10 27 8 9 -6 -52 -40 -71 -40 -110 -47 -99 -19 6 15 5 16 -9 3 -9 -8 -14
-18 -11 -22 2 -5 0 -8 -6 -8 -5 0 -11 3 -14 8 -2 4 -2 1 0 -7 3 -14 -35 -48
-50 -43 -4 1 -6 -1 -6 -5 3 -18 -2 -33 -10 -33 -5 0 -7 10 -3 22 4 16 2 19 -9
13 -8 -5 6 14 29 43 24 29 48 55 53 58 5 3 7 10 4 15 -4 5 1 12 10 15 13 6 14
8 3 15 -13 9 -11 9 35 13 6 1 18 6 26 11 22 15 112 109 149 154 20 23 48 45
70 52 42 13 67 31 31 22 -14 -3 -20 -2 -16 3 5 5 47 10 95 11 55 1 88 6 90 13
2 6 11 9 19 6 8 -3 36 -6 61 -7z m238 -80 c4 -8 1 -8 -14 0 -12 6 -24 16 -28
22 -4 8 -1 8 14 0 12 -6 24 -16 28 -22z m-3452 -79 c8 0 7 -3 -1 -8 -8 -5 -8
-11 0 -23 11 -15 14 -14 31 9 11 14 15 23 10 20 -5 -3 -14 0 -21 7 -10 10 -9
14 3 19 25 10 34 7 34 -10 0 -27 24 -9 34 24 10 34 17 38 46 22 36 -19 58
-141 36 -195 -14 -34 -57 -63 -64 -44 -2 5 -8 7 -12 4 -5 -3 -14 4 -20 16 -9
15 -15 18 -23 10 -14 -14 -27 -14 -27 0 0 5 4 8 8 5 5 -3 9 2 9 10 0 10 -4 11
-11 4 -5 -5 -13 -10 -17 -10 -14 0 -18 31 -7 49 8 14 7 24 -8 46 -20 31 -19
28 -27 100 l-6 50 11 -52 c6 -29 16 -53 22 -53z m2807 13 c-12 -23 -81 -84
-81 -73 0 5 8 15 19 22 10 7 21 22 23 33 2 11 10 19 16 18 7 -2 12 2 12 7 0 6
5 10 10 10 7 0 7 -6 1 -17z m-2138 -9 c69 -35 85 -71 48 -112 -44 -52 -121 -7
-121 71 0 63 14 71 73 41z m2988 -11 c12 -16 12 -17 -2 -6 -9 7 -20 9 -24 5
-5 -4 -5 -1 -1 6 9 16 11 15 27 -5z m-901 -3 c0 -5 -5 -10 -11 -10 -5 0 -7 5
-4 10 3 6 8 10 11 10 2 0 4 -4 4 -10z m600 0 c0 -5 -5 -10 -11 -10 -5 0 -7 5
-4 10 3 6 8 10 11 10 2 0 4 -4 4 -10z m251 -7 c13 -16 12 -17 -3 -4 -10 7 -18
15 -18 17 0 8 8 3 21 -13z m-3697 -39 c3 -8 2 -12 -4 -9 -6 3 -10 10 -10 16 0
14 7 11 14 -7z m66 -5 c0 -6 -4 -7 -10 -4 -5 3 -10 11 -10 16 0 6 5 7 10 4 6
-3 10 -11 10 -16z m3397 -6 c4 -10 -86 -23 -156 -23 -59 1 -11 21 61 26 34 2
64 6 67 9 7 8 24 1 28 -12z m337 2 c3 -8 1 -15 -4 -15 -6 0 -10 7 -10 15 0 8
2 15 4 15 2 0 6 -7 10 -15z m-755 -19 c-2 -2 -26 -13 -54 -25 -47 -20 -49 -20
-25 -1 14 11 33 20 42 20 9 0 20 5 23 11 4 6 10 8 13 5 3 -3 3 -8 1 -10z m461
-16 c0 -5 -9 -14 -21 -20 -39 -21 -11 -22 32 -1 64 31 60 26 -22 -31 -41 -29
-76 -55 -79 -60 -3 -4 -22 -14 -43 -23 -22 -9 -37 -22 -37 -33 0 -12 -2 -14
-8 -4 -7 10 -15 8 -38 -9 -16 -11 -7 0 20 25 28 25 46 46 41 46 -5 0 0 7 11
15 10 8 15 15 10 15 -18 0 21 34 60 51 23 9 45 22 48 28 9 14 26 14 26 1z
m-435 -9 c-14 -12 -107 -42 -113 -36 -3 2 1 7 9 10 101 37 120 42 104 26z m55
-21 c-8 -6 -43 -19 -77 -30 -34 -10 -81 -29 -103 -40 -23 -12 -39 -16 -35 -10
8 12 23 19 135 61 79 29 105 35 80 19z m502 -2 c-7 -7 -16 -13 -20 -13 -19 -1
-72 -41 -70 -53 5 -21 22 -17 35 9 7 13 13 18 13 11 0 -7 6 -10 13 -7 6 4 5 1
-4 -7 -9 -7 -16 -17 -15 -22 1 -5 -10 -16 -24 -25 -13 -9 -21 -11 -17 -5 3 6
0 20 -8 30 -12 15 -14 15 -9 3 3 -10 0 -20 -7 -25 -9 -5 -10 -2 -6 9 3 10 2
17 -3 17 -6 0 -10 -4 -10 -8 0 -5 -10 -14 -22 -20 -13 -6 -39 -20 -58 -32 -19
-12 -24 -13 -11 -3 14 10 54 40 89 66 82 61 168 109 134 75z m-62 -3 c0 -7
-172 -127 -176 -122 -5 5 45 43 99 76 20 12 37 26 37 31 0 5 8 11 18 13 9 3
18 5 20 6 1 0 2 -1 2 -4z m216 -31 c-12 -8 -15 -14 -7 -14 7 0 -5 -18 -27 -41
-27 -26 -39 -46 -36 -57 5 -15 4 -15 -5 -2 -10 14 -12 13 -15 -10 0 -5 -5 -10
-11 -11 -12 -1 -24 32 -17 50 4 10 1 12 -8 6 -8 -5 -11 -4 -6 3 4 6 14 8 23 5
12 -5 14 -3 8 7 -5 8 -4 11 2 7 6 -4 14 0 17 9 4 11 13 14 31 10 27 -7 32 2
13 23 -7 8 -8 11 -2 8 6 -4 19 2 29 13 10 11 21 17 24 14 3 -3 -3 -12 -13 -20z
m-836 12 c0 -3 -4 -8 -10 -11 -5 -3 -10 -1 -10 4 0 6 5 11 10 11 6 0 10 -2 10
-4z m-30 -10 c0 -2 -26 -23 -57 -47 -84 -64 -93 -71 -93 -65 0 5 141 115 148
116 1 0 2 -2 2 -4z m809 -20 c-8 -8 -120 -66 -126 -66 -23 0 89 66 116 69 8 0
12 -1 10 -3z m-534 -26 c-3 -5 -12 -10 -18 -10 -7 0 -6 4 3 10 19 12 23 12 15
0z m145 7 c0 -2 -19 -21 -42 -42 l-43 -40 40 43 c36 39 45 47 45 39z m310 -89
c-8 -7 -20 -20 -28 -28 -11 -13 -12 -12 -3 7 9 18 23 29 41 32 2 1 -2 -5 -10
-11z m81 -28 c-13 -11 -28 -20 -33 -20 -6 0 0 9 13 20 13 10 29 19 34 19 6 0
-1 -9 -14 -19z m234 -42 c25 -55 42 -146 48 -261 l3 -67 -36 -10 c-24 -6 -41
-19 -48 -35 -14 -31 -16 -57 -3 -36 7 11 13 11 32 0 23 -12 23 -13 4 -18 -24
-7 -32 -31 -10 -31 8 0 15 -9 15 -20 0 -14 -7 -20 -21 -20 -11 0 -17 -5 -14
-10 4 -6 10 -8 15 -5 4 3 11 -12 15 -33 4 -20 20 -57 36 -81 32 -49 33 -54 19
-82 -10 -18 -12 -18 -38 6 -15 14 -33 23 -40 20 -8 -3 -18 -5 -23 -5 -6 0 -8
-4 -5 -8 2 -4 -10 -9 -29 -10 -37 -3 -53 12 -35 33 9 11 7 16 -10 25 -22 12
-44 5 -35 -11 4 -5 2 -9 -3 -9 -18 0 -22 -31 -7 -46 8 -9 15 -19 15 -24 0 -4
16 -15 35 -24 32 -16 38 -16 66 -2 18 9 35 14 39 11 5 -3 2 -26 -6 -52 -8 -25
-12 -48 -9 -51 2 -3 0 -13 -6 -23 -5 -10 -11 -32 -13 -49 -6 -50 -18 -53 -60
-16 -42 37 -39 46 16 41 29 -3 38 1 43 15 8 26 -13 64 -28 52 -7 -5 -42 -17
-80 -27 -37 -10 -79 -28 -93 -40 -16 -14 -34 -20 -46 -17 -23 6 -41 47 -33 73
4 11 2 19 -4 19 -6 0 -11 9 -11 20 0 11 -4 20 -10 20 -5 0 -1 9 10 20 22 22
19 40 -6 40 -8 0 -14 7 -14 15 0 8 -5 15 -11 15 -5 0 -7 4 -4 10 7 11 -7 41
-21 43 -5 1 -8 8 -6 15 2 6 -4 12 -12 12 -25 0 -83 63 -90 97 -6 24 -12 30
-24 26 -10 -3 -8 1 6 11 12 10 22 23 22 30 0 21 24 26 51 11 13 -8 34 -19 47
-24 12 -6 22 -14 22 -19 0 -5 27 -14 61 -20 52 -9 65 -9 85 5 27 17 25 25 -9
30 -45 6 -67 14 -67 23 0 5 8 7 18 3 9 -3 14 -2 10 2 -13 14 32 39 45 26 8 -8
8 -11 -1 -11 -7 0 -12 -6 -12 -14 0 -8 10 -13 24 -13 18 0 23 4 18 16 -5 14
-4 14 11 2 9 -7 17 -19 17 -26 0 -7 13 -15 28 -17 24 -3 31 1 41 24 7 16 11
38 8 48 -3 12 0 20 8 20 23 0 37 27 26 48 -15 28 -107 29 -140 1 -13 -11 -21
-23 -17 -26 8 -8 -69 -33 -103 -33 -24 0 -22 11 2 16 29 7 85 31 108 47 24 17
23 17 -41 11 -36 -3 -71 -7 -77 -9 -27 -9 -11 5 40 34 30 17 66 43 81 58 32
33 105 147 118 185 6 16 14 28 19 28 4 0 19 18 31 40 13 22 24 40 26 40 2 0
14 -24 27 -52z m-310 32 c-3 -5 -16 -15 -28 -21 -22 -12 -22 -12 -3 10 19 21
43 30 31 11z m-982 -20 c-3 -11 -7 -20 -9 -20 -2 0 -4 9 -4 20 0 11 4 20 9 20
5 0 7 -9 4 -20z m631 -2 c-3 -4 -15 -13 -27 -20 -19 -10 -20 -9 -10 4 7 8 11
17 8 19 -2 3 4 5 15 5 10 0 16 -4 14 -8z m566 8 c0 -2 -8 -10 -17 -17 -16 -13
-17 -12 -4 4 13 16 21 21 21 13z m-2609 -47 c31 -59 -36 -138 -106 -125 -20 4
-38 13 -41 21 -14 35 68 125 113 125 13 0 27 -9 34 -21z m1432 6 c-3 -9 -8
-14 -10 -11 -3 3 -2 9 2 15 9 16 15 13 8 -4z m527 -1 c-8 -8 -23 -20 -34 -25
-13 -7 -9 -1 9 15 34 29 43 33 25 10z m-622 -51 c50 -7 66 -23 23 -23 -35 0
-81 -19 -81 -33 0 -5 7 -4 15 3 24 20 18 5 -7 -16 -12 -10 -18 -13 -14 -6 4 6
2 12 -4 12 -6 0 -8 5 -4 11 3 6 -7 4 -24 -5 -28 -14 -47 -34 -79 -82 -8 -12
-7 -5 2 19 17 44 34 63 84 94 24 15 30 22 19 23 -10 0 -18 5 -18 11 0 7 9 9
23 5 12 -3 41 -9 65 -13z m1193 -47 c-28 -64 -87 -134 -133 -157 -21 -11 -38
-16 -38 -12 0 4 -5 2 -12 -5 -16 -16 -45 -15 -45 2 0 8 6 12 12 10 6 -3 23 4
36 15 13 11 18 20 12 21 -7 0 -13 -4 -13 -9 0 -5 -8 -12 -17 -15 -15 -6 -15
-4 2 14 10 11 23 19 29 18 18 -3 57 13 51 22 -3 4 4 6 15 3 12 -3 20 0 20 7 0
6 10 21 23 32 12 11 16 17 10 13 -7 -3 -13 -3 -13 0 0 10 73 95 78 91 2 -3 -6
-25 -17 -50z m-3081 4 c0 -25 -21 -50 -43 -50 -11 0 7 52 19 57 8 3 11 9 8 14
-3 5 0 9 5 9 6 0 11 -13 11 -30z m1724 -24 c-10 -8 -21 -12 -24 -10 -5 6 21
24 34 24 6 0 1 -6 -10 -14z m76 -5 c0 -5 -7 -12 -16 -15 -14 -5 -15 -4 -4 9
14 17 20 19 20 6z m-2455 -20 c-4 -13 0 -23 11 -29 13 -7 14 -13 5 -31 -12
-22 -31 -20 -31 2 0 7 4 6 10 -3 8 -13 10 -12 10 4 0 10 -12 30 -27 43 -26 23
-26 24 -5 18 13 -4 22 -2 22 4 0 6 3 11 6 11 3 0 3 -9 -1 -19z m727 -127 c35
-41 17 -134 -25 -128 -89 12 -98 16 -107 39 -12 31 5 91 34 120 13 13 34 40
47 62 l24 38 5 -56 c3 -33 12 -65 22 -75z m-668 65 c-3 -6 3 -5 13 2 14 8 31
9 59 3 34 -8 41 -15 53 -51 18 -50 5 -88 -45 -139 -25 -24 -29 -34 -18 -38 7
-3 14 -12 14 -21 0 -8 6 -15 13 -15 6 0 14 -12 16 -28 12 -81 -1 -438 -17
-454 -10 -10 -45 3 -67 26 -20 21 -38 101 -36 166 1 38 -4 75 -12 90 -14 27
-14 40 4 302 7 97 16 175 21 172 5 -3 6 -10 2 -15z m2329 -40 c-3 -10 -10 -19
-15 -19 -5 0 -7 4 -3 9 3 5 1 13 -5 16 -8 5 -7 11 1 21 15 19 29 1 22 -27z
m-1353 21 c0 -5 3 -9 8 -8 14 4 59 -32 70 -57 13 -28 43 -33 62 -10 7 8 27 15
45 15 50 0 59 -30 45 -160 -7 -59 -20 -123 -31 -146 -10 -23 -19 -49 -19 -58
0 -9 -4 -16 -10 -16 -5 0 -10 -8 -10 -17 -1 -47 -16 -46 -95 6 -92 61 -132 91
-198 151 -49 45 -49 46 -42 93 5 31 12 47 22 47 10 0 12 6 8 20 -4 12 -2 27 4
34 6 7 12 25 13 40 3 39 51 71 111 75 9 0 17 -3 17 -9z m1403 -30 c-3 -11 -9
-17 -15 -14 -5 3 -4 12 3 20 16 19 18 18 12 -6z m-30 -37 c-9 -23 -20 -4 -15
24 5 24 6 25 12 8 4 -11 5 -26 3 -32z m27 -13 c0 -5 -2 -10 -4 -10 -3 0 -8 5
-11 10 -3 6 -1 10 4 10 6 0 11 -4 11 -10z m-23 -45 c-2 -11 -23 -35 -31 -35
-3 0 -6 9 -6 20 0 11 4 20 10 20 5 0 6 8 3 17 -6 15 -5 16 9 3 9 -8 15 -19 15
-25z m176 -17 c-5 -55 -27 -103 -43 -93 -5 3 -11 1 -15 -5 -3 -5 -1 -10 5 -10
6 0 8 -5 4 -11 -5 -8 -9 -8 -14 1 -6 9 -11 7 -19 -9 -7 -11 -17 -21 -23 -21
-6 0 -2 10 10 23 12 13 22 29 22 35 0 7 11 22 25 33 23 21 41 69 36 97 -1 6 2
12 7 12 6 0 8 -23 5 -52z m942 42 c-3 -5 -12 -10 -18 -10 -7 0 -6 4 3 10 19
12 23 12 15 0z m-1131 -95 c-6 -16 -24 -21 -24 -7 0 11 11 22 21 22 5 0 6 -7
3 -15z m996 0 c0 -8 -4 -15 -10 -15 -5 0 -7 7 -4 15 4 8 8 15 10 15 2 0 4 -7
4 -15z m-835 -144 c-3 -6 -11 -11 -17 -11 -6 0 -6 6 2 15 14 17 26 13 15 -4z
m-1643 -28 c21 -12 40 -23 43 -23 3 0 18 -11 33 -25 15 -14 36 -28 47 -31 26
-8 75 -54 75 -70 0 -7 9 -15 19 -19 29 -9 35 -41 15 -83 -15 -31 -15 -44 -6
-92 15 -73 15 -95 -2 -128 -8 -15 -17 -48 -20 -72 -4 -25 -10 -67 -15 -95 -5
-27 -7 -77 -4 -110 4 -39 0 -82 -11 -123 -9 -35 -16 -101 -16 -146 0 -61 -7
-104 -25 -162 -14 -43 -25 -91 -25 -105 0 -15 -6 -44 -14 -65 -7 -22 -16 -82
-20 -134 -9 -126 -11 -132 -43 -124 l-26 7 26 -35 c34 -45 34 -55 -5 -95 -24
-25 -28 -33 -15 -33 13 0 17 -9 18 -37 3 -88 -1 -109 -32 -172 -22 -44 -34
-84 -36 -121 -2 -42 -1 -50 7 -35 8 16 9 10 6 -25 -4 -33 0 -50 12 -63 23 -26
23 -139 -1 -165 -9 -10 -17 -26 -17 -34 0 -9 -14 -21 -31 -29 -29 -12 -33 -11
-51 11 -11 13 -22 37 -25 53 -7 33 -41 59 -80 59 -59 1 -71 7 -87 48 -9 22
-16 52 -16 67 0 14 -10 35 -23 47 -21 20 -22 29 -21 151 0 72 -3 143 -8 159
-9 35 5 56 38 56 13 0 24 5 24 11 0 6 -7 9 -15 6 -7 -3 -23 2 -35 11 -30 25
-47 252 -30 393 12 99 26 123 50 93 7 -8 16 -14 21 -14 16 0 10 18 -15 45 -13
14 -29 46 -36 71 -11 40 -11 47 3 62 15 15 19 15 52 -1 44 -21 51 -21 31 -2
-8 8 -19 15 -24 15 -4 0 -19 11 -32 25 -20 21 -23 34 -21 87 1 34 6 69 10 77
4 9 5 48 2 86 -5 51 -2 79 8 103 12 27 13 41 3 77 -15 55 -16 112 -2 120 7 4
7 13 0 26 -6 11 -8 24 -4 30 3 6 8 45 10 87 2 42 7 89 10 103 l5 27 50 -13
c65 -18 99 -53 99 -105 0 -44 -26 -70 -70 -70 -37 0 -49 -11 -39 -37 7 -19 13
-21 43 -16 44 7 62 -7 78 -58 6 -22 17 -39 23 -39 19 0 38 28 32 45 -4 8 -3
17 2 19 4 3 14 31 21 63 7 32 18 64 23 71 7 9 3 25 -13 54 -21 38 -24 58 -28
201 -5 169 -2 180 42 169 11 -3 38 -16 58 -29z m-895 -115 c-3 -8 -6 -5 -6 6
-1 11 2 17 5 13 3 -3 4 -12 1 -19z m648 -1 c8 -13 14 -42 13 -64 -1 -40 -2
-41 -27 -30 -71 31 -79 44 -61 91 13 34 53 35 75 3z m-675 -74 c0 0 -11 4 -24
10 -14 7 -27 20 -30 29 -3 13 4 11 25 -10 16 -15 29 -28 29 -29z m3738 -118
c12 -3 22 -13 22 -21 0 -11 -4 -12 -19 -2 -24 15 -57 -12 -38 -31 8 -8 8 -11
0 -11 -15 0 -58 23 -61 33 -4 13 42 46 58 42 8 -2 25 -6 38 -10z m-3680 -30
c-3 -3 -9 2 -12 12 -6 14 -5 15 5 6 7 -7 10 -15 7 -18z m3742 -5 c13 -8 13
-10 -2 -10 -9 0 -20 5 -23 10 -8 13 5 13 25 0z m33 -77 c-6 -56 -28 -113 -42
-113 -6 0 -10 5 -8 12 1 7 -3 12 -10 13 -6 0 -15 3 -19 8 -4 4 -18 7 -30 7
-13 0 -26 5 -29 10 -3 6 -16 10 -28 10 -21 1 -21 1 -4 15 13 9 17 20 12 34 -6
19 -3 20 23 15 18 -4 41 0 60 10 34 17 56 22 32 6 -8 -5 -10 -10 -4 -10 5 0
19 7 30 15 10 8 20 15 20 15 1 0 -1 -21 -3 -47z m-3744 -7 l17 22 26 -42 c26
-43 33 -103 32 -251 -3 -174 -3 -301 -2 -315 1 -8 -1 -64 -6 -125 -4 -60 -9
-225 -11 -365 -2 -140 -4 -259 -5 -265 0 -5 1 -28 4 -50 l6 -40 -14 35 c-8 19
-15 46 -15 60 -1 15 -6 31 -11 36 -16 16 -30 250 -16 272 4 6 2 21 -4 32 -6
12 -10 29 -7 38 2 9 -2 29 -10 44 -9 18 -10 35 -4 51 5 13 9 56 9 95 0 39 3
75 6 80 3 5 2 40 -3 78 -4 38 -4 86 1 107 6 29 5 44 -5 56 -7 9 -18 28 -24 42
-9 22 -8 29 8 42 10 9 19 25 19 34 0 15 -2 16 -10 3 -8 -13 -10 -13 -10 2 0 9
5 20 10 23 8 5 7 11 -1 21 -6 8 -9 14 -6 14 4 0 -1 19 -9 42 -8 23 -16 85 -18
138 -1 53 -6 103 -10 111 -4 8 4 1 19 -16 l26 -30 18 21z m-100 -112 c7 5 9 1
5 -8 -3 -9 -10 -16 -16 -16 -5 0 -6 -4 -3 -10 3 -5 1 -10 -4 -10 -6 0 -11 15
-11 33 0 22 3 28 9 18 5 -7 14 -11 20 -7z m2521 5 c0 -5 -26 -9 -57 -9 -32 0
-89 -3 -128 -6 -38 -4 -67 -3 -63 1 16 17 248 30 248 14z m961 -62 c-8 -8 -11
-5 -11 9 0 27 14 41 18 19 2 -9 -1 -22 -7 -28z m262 -22 c18 -28 54 -62 98
-92 65 -43 88 -63 75 -63 -3 0 -27 16 -52 35 -26 20 -48 34 -50 32 -3 -2 7
-24 20 -48 48 -87 145 -370 165 -482 6 -32 13 -62 16 -68 4 -5 -1 -9 -10 -9
-9 0 -14 4 -10 10 3 5 -1 40 -10 77 -15 65 -24 93 -50 158 -24 57 -29 70 -30
80 -6 45 -18 94 -30 115 -13 23 -13 22 -8 -20 3 -25 17 -76 30 -114 26 -80 26
-79 13 -71 -5 3 -10 14 -10 25 0 10 -7 21 -16 24 -9 3 -14 13 -10 21 3 8 1 17
-4 20 -6 4 -10 -9 -10 -28 0 -18 -3 -37 -7 -41 -5 -4 -9 -12 -9 -17 -1 -5 -2
-13 -3 -18 0 -5 -8 -11 -15 -14 -10 -4 -13 -1 -9 9 3 7 0 14 -5 14 -6 0 -18
25 -27 55 -13 45 -13 59 -3 78 16 28 20 66 9 85 -6 11 -10 9 -15 -11 -6 -27
-35 -44 -46 -27 -4 7 -10 53 -14 105 -3 51 -15 119 -26 150 -25 73 -25 75 3
75 15 0 30 -13 50 -45z m-1056 24 c-9 -6 -15 -14 -12 -18 2 -5 -3 -15 -13 -22
-15 -13 -16 -12 -3 4 27 35 -8 16 -38 -20 -17 -21 -31 -33 -31 -28 0 17 81 95
99 95 14 -1 14 -2 -2 -11z m-473 -21 c-2 -13 -6 -45 -9 -71 -5 -35 -10 -46
-18 -39 -8 6 -23 5 -41 -3 -20 -8 -25 -14 -15 -18 8 -3 2 -6 -12 -6 -30 -1
-63 -31 -41 -38 17 -6 5 -23 -16 -23 -11 0 -13 3 -5 8 18 11 -11 43 -43 47
-16 1 -38 15 -51 29 -13 15 -23 23 -23 17 0 -5 12 -24 27 -42 l27 -32 -25 8
c-23 7 -23 7 -4 -9 11 -8 26 -16 33 -16 11 0 18 -20 7 -20 -14 0 -85 52 -99
71 -9 13 -19 19 -23 15 -4 -4 0 -13 10 -20 22 -17 22 -30 1 -22 -14 5 -15 4
-4 -9 15 -18 34 -20 24 -2 -4 6 -1 5 7 -3 8 -8 20 -19 28 -25 11 -10 10 -12
-7 -10 -11 0 -27 7 -35 14 -9 7 -25 13 -36 14 -24 1 -26 8 -9 25 7 7 10 12 7
12 -3 0 -16 -12 -30 -26 -16 -17 -19 -25 -9 -22 9 1 17 -1 18 -7 1 -5 -4 -10
-10 -10 -7 0 -12 -9 -10 -20 2 -19 2 -19 -8 -2 -6 9 -15 15 -21 12 -31 -20 37
73 96 129 72 69 176 114 266 115 53 1 56 0 53 -21z m1325 -49 c-10 -6 -17 0
-24 22 -6 17 -14 27 -19 22 -5 -5 -6 -2 -1 6 6 10 13 7 33 -14 20 -22 22 -29
11 -36z m-35 -15 c3 -9 3 -51 0 -93 -6 -74 -8 -77 -44 -102 -26 -19 -37 -34
-36 -50 1 -20 -5 -25 -30 -27 -27 -3 -32 1 -36 22 -3 14 0 30 6 36 7 7 7 16
-2 31 -8 12 -10 24 -6 27 4 4 9 1 11 -5 7 -20 23 -15 23 6 0 10 7 21 15 25 8
3 15 17 15 31 0 14 5 25 10 25 6 0 8 11 4 25 -4 18 -2 25 8 25 7 0 20 9 28 20
17 24 26 25 34 4z m791 -45 c10 -15 -1 -23 -20 -15 -9 3 -13 10 -10 16 8 13
22 13 30 -1z m-123 -142 c55 -49 30 -37 -42 21 -70 56 -72 59 -33 37 18 -11
52 -36 75 -58z m-797 -107 c3 -5 -1 -10 -9 -10 -9 0 -16 5 -16 10 0 6 4 10 9
10 6 0 13 -4 16 -10z m1 -46 c-4 -14 -3 -23 2 -20 4 2 14 1 22 -5 12 -7 12 -9
1 -9 -8 0 -11 -6 -7 -16 5 -12 1 -14 -16 -8 -26 8 -55 34 -38 34 6 0 10 6 9
13 -3 26 2 37 17 37 12 0 15 -6 10 -26z m-638 -75 c-2 -20 -5 -18 -15 15 -11
36 -11 38 3 24 9 -8 14 -26 12 -39z m319 29 c-3 -8 -6 -5 -6 6 -1 11 2 17 5
13 3 -3 4 -12 1 -19z m1323 -59 c55 -53 149 -223 190 -343 15 -44 39 -112 53
-151 17 -50 28 -110 36 -207 18 -219 75 -378 189 -530 31 -41 46 -69 39 -72
-7 -3 -1 -4 13 -3 13 1 25 -2 25 -8 1 -19 39 -67 59 -76 20 -9 20 -9 -1 -5
-24 4 -32 -9 -10 -17 6 -2 9 -7 6 -11 -9 -10 -40 4 -33 15 8 14 -6 50 -17 43
-5 -3 -8 0 -7 8 2 7 -3 12 -9 11 -7 -2 -13 4 -13 13 0 14 -2 14 -15 0 -19 -19
-19 -30 0 -22 10 4 27 -20 61 -85 50 -97 79 -126 203 -202 33 -20 61 -42 61
-48 0 -7 -8 -6 -22 3 -13 8 -57 35 -98 61 -41 25 -81 56 -88 67 -7 11 -17 18
-22 15 -6 -3 -10 -1 -10 5 0 6 -28 28 -62 50 -45 30 -64 37 -69 28 -6 -9 16
-28 67 -60 78 -50 90 -56 78 -36 -4 7 -3 8 5 4 6 -4 9 -11 7 -15 -3 -4 46 -41
109 -81 63 -41 113 -76 110 -78 -6 -6 -82 40 -285 173 -85 55 -172 111 -193
124 l-38 23 22 24 c25 27 15 33 -13 7 -10 -9 -21 -13 -25 -9 -4 4 6 18 22 32
19 16 22 21 9 15 -15 -7 -24 -7 -33 2 -8 8 -14 9 -19 1 -4 -6 -15 -8 -25 -5
-18 7 -18 8 -1 21 9 8 27 15 38 15 23 0 30 30 13 53 -6 7 -12 79 -13 160 -2
81 -8 190 -14 242 -6 52 -15 136 -20 187 -6 50 -17 106 -25 125 l-14 33 -2
-30 c-1 -16 -2 -36 -2 -43 1 -8 -5 -11 -14 -7 -13 4 -14 3 -4 -9 7 -8 10 -20
6 -26 -3 -5 -8 -33 -10 -61 -3 -50 -10 -68 -21 -57 -3 3 -5 16 -6 29 -1 38
-30 139 -39 139 -9 0 -12 -24 -12 -87 0 -22 -3 -30 -13 -26 -10 4 -13 36 -12
143 0 76 -2 142 -5 147 -3 5 -4 25 -2 44 l4 34 -32 -36 c-18 -20 -38 -35 -44
-32 -18 7 -16 21 2 19 8 0 24 13 35 30 18 27 18 33 6 43 -12 10 -19 8 -37 -10
-15 -15 -24 -18 -27 -11 -2 7 -12 12 -23 12 -26 0 -24 13 6 27 14 6 25 7 25 2
0 -5 -5 -9 -11 -9 -5 0 -7 -4 -4 -10 14 -22 23 -8 19 28 -13 107 -23 127 -59
123 -20 -2 -35 55 -35 138 l0 84 27 -24 c14 -13 43 -40 63 -60z m-1024 13
c-22 -5 -30 3 -21 18 5 8 11 7 22 -2 15 -12 14 -13 -1 -16z m-1176 -107 c-7
-9 -15 -13 -17 -11 -7 7 7 26 19 26 6 0 6 -6 -2 -15z m145 -45 c3 -6 -1 -7 -9
-4 -18 7 -21 14 -7 14 6 0 13 -4 16 -10z m-40 -10 c-3 -5 0 -7 8 -5 7 3 25 -5
40 -19 14 -13 32 -26 39 -29 7 -2 9 -8 5 -13 -4 -5 -11 -3 -15 3 -11 17 -94
53 -107 45 -5 -3 -4 2 4 11 14 18 36 24 26 7z m124 -49 c-6 -1 -18 4 -28 13
-10 9 -23 16 -29 16 -7 0 -12 5 -12 10 0 6 18 0 40 -12 22 -13 35 -25 29 -27z
m-75 -6 c11 -8 18 -17 15 -19 -2 -3 -15 4 -29 14 -14 11 -20 20 -15 19 6 0 19
-6 29 -14z m1690 -11 c3 -9 6 -42 6 -75 0 -46 -3 -57 -14 -53 -10 4 -13 24
-12 75 1 67 8 85 20 53z m-1568 -10 c16 -13 16 -15 2 -10 -21 6 -23 -4 -5 -24
10 -12 9 -12 -4 -2 -9 6 -19 8 -24 4 -4 -4 -3 3 4 15 8 16 8 23 -2 26 -6 3 -7
6 -1 6 5 1 19 -6 30 -15z m-47 -21 c0 -25 -1 -25 -8 -8 -5 11 -7 23 -4 28 8
14 13 7 12 -20z m141 -33 c12 -9 10 -10 -10 -4 -22 6 -23 5 -11 -10 13 -16 2
-23 -13 -8 -4 4 -12 7 -17 7 -5 0 -8 5 -7 10 1 6 9 9 18 7 11 -2 10 1 -4 12
-10 9 -23 13 -29 9 -6 -3 -7 -1 -3 5 7 12 37 1 76 -28z m1305 -10 c3 -5 1 -10
-4 -10 -6 0 -11 5 -11 10 0 6 2 10 4 10 3 0 8 -4 11 -10z m-1281 -22 c-5 -8
-2 -9 12 -4 18 7 18 6 -1 -12 -18 -17 -21 -17 -26 -3 -4 9 -1 19 5 23 16 11
18 10 10 -4z m-29 -18 c3 -5 1 -10 -4 -10 -6 0 -11 5 -11 10 0 6 2 10 4 10 3
0 8 -4 11 -10z m115 -20 c12 -7 17 -16 13 -27 -5 -13 -2 -15 14 -11 12 3 27 2
34 -3 9 -6 10 -9 2 -9 -6 0 -20 -8 -29 -17 -17 -17 -18 -17 -11 0 6 16 -3 22
-27 18 -11 -2 -36 19 -36 30 0 5 8 9 18 9 14 0 15 2 2 10 -20 13 -4 13 20 0z
m65 -80 c3 -5 1 -10 -4 -10 -6 0 -11 5 -11 10 0 6 2 10 4 10 3 0 8 -4 11 -10z
m55 6 c0 -3 -4 -8 -10 -11 -5 -3 -10 -1 -10 4 0 6 5 11 10 11 6 0 10 -2 10 -4z
m96 -67 c3 -6 -8 -4 -24 5 -17 9 -33 20 -37 25 -3 5 8 3 25 -5 16 -9 32 -20
36 -25z m-81 21 c3 -5 -3 -10 -15 -10 -12 0 -18 5 -15 10 3 6 10 10 15 10 5 0
12 -4 15 -10z m-1095 -40 c0 -5 -4 -10 -10 -10 -5 0 -10 5 -10 10 0 6 5 10 10
10 6 0 10 -4 10 -10z m1157 4 c-3 -3 -12 -4 -19 -1 -8 3 -5 6 6 6 11 1 17 -2
13 -5z m58 -4 c3 -5 -1 -10 -10 -10 -9 0 -13 5 -10 10 3 6 8 10 10 10 2 0 7
-4 10 -10z m25 -40 c0 -5 -5 -10 -11 -10 -5 0 -7 5 -4 10 3 6 8 10 11 10 2 0
4 -4 4 -10z m44 -5 c11 -8 15 -15 10 -15 -6 0 -19 7 -30 15 -10 8 -14 14 -9
14 6 0 19 -6 29 -14z m-1497 -61 c-13 -27 -29 -60 -36 -74 l-11 -25 6 25 c8
34 55 132 61 127 2 -3 -7 -27 -20 -53z m1525 18 c-2 -7 -8 -9 -11 -4 -3 5 -13
12 -21 15 -8 3 -3 5 11 4 18 -1 25 -6 21 -15z m79 -28 c17 -8 28 -18 25 -21
-3 -3 -12 0 -21 7 -8 7 -30 16 -48 20 -24 6 -26 8 -9 9 13 1 37 -6 53 -15z
m54 -34 c3 -5 1 -10 -4 -10 -6 0 -11 5 -11 10 0 6 2 10 4 10 3 0 8 -4 11 -10z
m-1383 -124 c15 -11 14 -13 -13 -13 -19 0 -25 3 -17 9 8 5 9 8 2 8 -6 0 -17
-6 -23 -14 -13 -15 -61 -28 -61 -15 0 4 3 14 6 23 8 20 81 21 106 2z m-1654
-21 c-3 -3 -9 2 -12 12 -6 14 -5 15 5 6 7 -7 10 -15 7 -18z m45 5 c3 -11 1
-18 -4 -14 -5 3 -9 12 -9 20 0 20 7 17 13 -6z m1462 10 c9 -14 -4 -70 -16 -70
-13 0 -11 34 3 48 10 10 10 15 -2 22 -9 6 -10 10 -3 10 6 0 15 -5 18 -10z
m-95 -10 c0 -5 -2 -10 -4 -10 -3 0 -8 5 -11 10 -3 6 -1 10 4 10 6 0 11 -4 11
-10z m23 -25 c-3 -9 -8 -14 -10 -11 -3 3 -2 9 2 15 9 16 15 13 8 -4z m177 7
c0 -11 30 -9 50 3 8 4 12 5 8 0 -9 -10 16 -35 37 -35 9 0 26 -11 39 -25 13
-14 28 -25 33 -25 7 0 6 -12 -1 -35 -14 -39 -26 -55 -26 -34 0 8 -21 -8 -45
-35 -25 -27 -45 -53 -45 -57 0 -4 -7 -14 -15 -23 -23 -22 -3 -68 28 -65 12 2
28 -1 36 -5 9 -6 12 -5 7 2 -13 22 70 27 129 7 16 -6 17 -5 5 4 -11 8 -3 11
38 11 39 0 52 -3 47 -12 -4 -7 0 -5 8 4 13 16 15 16 37 1 13 -9 20 -11 16 -5
-10 17 125 14 159 -4 35 -18 41 -18 25 1 -10 13 -9 15 9 15 12 0 19 -4 16 -10
-3 -5 -1 -10 4 -10 6 0 11 4 11 9 0 13 232 31 247 19 13 -11 56 -1 49 11 -3 4
45 15 107 25 165 26 223 35 314 51 48 9 139 15 215 14 73 0 156 4 183 9 77 14
310 6 385 -14 88 -23 111 -36 136 -79 14 -25 32 -41 57 -50 20 -7 38 -12 39
-11 2 0 -3 -5 -11 -11 -12 -10 -18 -10 -31 2 -9 8 -20 15 -24 15 -5 0 -16 10
-26 23 -16 20 -29 23 -97 26 -75 2 -80 1 -92 -22 -11 -21 -11 -30 2 -54 8 -15
28 -52 43 -82 16 -30 65 -95 109 -145 101 -115 116 -133 95 -120 -8 5 -24 9
-35 9 -28 1 -47 14 -39 28 4 7 4 9 -1 5 -4 -4 -29 7 -54 25 -54 40 -140 77
-174 77 -25 0 -78 41 -90 70 -5 11 -9 12 -13 3 -4 -10 -13 -9 -36 3 -16 8 -32
13 -35 10 -9 -9 -82 33 -92 53 -8 15 -5 21 16 32 14 8 37 12 52 11 18 -3 23
-1 16 7 -6 6 -34 12 -62 13 -45 3 -50 5 -42 21 13 23 -17 24 -49 1 -22 -15
-23 -15 -16 10 5 21 3 26 -12 25 -11 0 -28 -4 -39 -8 -14 -6 -36 1 -73 20 -56
31 -79 37 -48 14 26 -20 16 -27 -14 -12 -14 7 -38 18 -55 25 -28 11 -28 11
-11 -3 11 -8 24 -15 30 -15 7 0 6 -4 0 -10 -8 -8 -19 -7 -39 0 -36 14 -40 9
-15 -18 12 -12 17 -22 12 -22 -5 0 -15 7 -22 15 -7 8 -21 15 -32 15 -11 0 -28
5 -40 11 -27 14 -36 3 -12 -16 18 -14 17 -14 -9 -5 -16 6 -32 8 -37 5 -4 -3
-19 5 -34 16 -25 19 -26 20 -26 2 0 -11 5 -24 10 -31 7 -9 7 -9 -2 -2 -18 15
-28 12 -22 -7 4 -13 0 -11 -15 6 -19 21 -23 22 -34 9 -19 -24 -45 -29 -55 -11
-12 20 -44 10 -36 -11 8 -21 -41 -33 -62 -15 -16 13 -74 19 -84 9 -3 -3 -14
-10 -25 -16 -11 -6 -22 -21 -25 -34 -5 -22 -6 -22 -23 -5 -17 17 -18 16 -11
-9 5 -22 3 -26 -14 -26 -12 0 -32 4 -46 10 -21 8 -27 6 -36 -10 -14 -26 -30
-26 -30 0 0 13 -10 24 -27 31 -31 12 -69 8 -66 -7 1 -5 -8 -16 -19 -23 -18
-11 -20 -11 -15 1 3 8 1 21 -4 29 -6 10 -9 4 -9 -19 0 -30 -1 -32 -16 -18 -18
19 -26 20 -42 4 -9 -9 -13 -7 -18 5 -8 22 -69 33 -89 17 -17 -14 -50 -6 -40
10 11 17 -19 39 -38 28 -12 -6 -17 -5 -17 2 0 7 -8 9 -21 5 -13 -4 -25 -2 -29
5 -5 8 -10 9 -14 2 -3 -6 9 -16 29 -23 47 -17 44 -24 -7 -23 -26 1 -42 6 -40
13 2 10 -36 17 -63 11 -5 -1 -34 -2 -62 -3 -35 -1 -50 -4 -43 -11 6 -6 40 -10
78 -9 54 0 69 -3 80 -18 7 -11 20 -19 29 -19 9 0 -1 -11 -22 -25 -20 -15 -40
-24 -43 -20 -3 3 0 5 6 5 7 0 12 5 12 11 0 6 -6 9 -14 6 -7 -3 -23 1 -35 9
-12 9 -21 11 -21 5 0 -6 5 -11 10 -11 6 0 10 -5 10 -11 0 -5 -5 -7 -12 -3 -6
4 -17 -1 -25 -11 -12 -18 -18 -11 -15 16 1 4 -8 5 -19 2 -12 -3 -24 -1 -28 5
-5 8 -23 7 -63 -4 -31 -8 -61 -14 -65 -13 -4 1 -10 1 -13 0 -12 -5 -100 -7
-96 -3 3 2 -6 14 -20 27 -13 12 -24 27 -24 34 0 13 -21 53 -33 62 -5 4 -2 20
7 37 9 17 16 42 16 55 0 14 7 30 15 37 17 14 21 35 4 24 -8 -4 -9 1 -4 17 3
13 3 19 -2 13 -4 -6 -16 -11 -25 -11 -13 0 -15 4 -7 19 6 10 14 16 18 14 4 -3
25 17 45 44 21 28 44 50 52 50 8 0 14 5 14 10 0 6 6 17 12 24 11 11 15 11 25
-3 12 -15 14 -15 27 2 7 9 18 17 23 17 6 0 24 7 39 15 33 17 44 19 44 7z m190
-32 c0 -5 -5 -10 -11 -10 -5 0 -7 5 -4 10 3 6 8 10 11 10 2 0 4 -4 4 -10z
m-1840 -4 c0 -3 -4 -8 -10 -11 -5 -3 -10 -1 -10 4 0 6 5 11 10 11 6 0 10 -2
10 -4z m837 -118 c-3 -8 -6 -5 -6 6 -1 11 2 17 5 13 3 -3 4 -12 1 -19z m-777
-28 l-8 -35 -1 31 c-1 17 2 34 6 37 11 12 12 3 3 -33z m1179 -94 c-9 -8 -10
-7 -5 7 3 10 7 24 7 30 1 7 3 4 6 -7 3 -10 -1 -23 -8 -30z m2863 -18 c-7 -7
-12 -8 -12 -2 0 14 12 26 19 19 2 -3 -1 -11 -7 -17z m78 -18 c8 -5 11 -10 5
-10 -5 0 -21 10 -35 21 -24 20 -5 13 30 -11z m-1031 -9 c8 -5 9 -11 3 -15 -5
-3 -15 1 -22 9 -14 16 -3 20 19 6z m659 -9 c12 -7 22 -10 22 -7 0 3 31 -10 69
-29 38 -19 71 -33 74 -30 3 3 8 1 12 -5 10 -17 -19 -13 -69 8 -33 15 -46 17
-50 8 -5 -9 -8 -9 -12 1 -4 8 -10 10 -18 3 -7 -6 -26 0 -56 21 -27 18 -46 26
-48 19 -2 -6 -8 -8 -13 -5 -15 9 22 33 46 30 11 -1 30 -7 43 -14z m82 -2 c8
-5 11 -10 5 -10 -5 0 -17 5 -25 10 -8 5 -10 10 -5 10 6 0 17 -5 25 -10z m320
-10 c0 -5 8 -6 18 -3 15 6 15 5 4 -10 -12 -14 -16 -14 -28 -2 -16 16 -18 25
-4 25 6 0 10 -4 10 -10z m83 -12 c19 -14 32 -18 34 -11 4 12 67 -19 79 -38 3
-5 -9 -1 -28 11 -46 28 -59 25 -23 -6 l30 -25 -40 21 c-44 24 -105 70 -92 70
5 0 23 -10 40 -22z m228 -59 c80 -51 75 -47 58 -64 -12 -12 -21 -10 -67 21
-29 20 -50 40 -47 45 3 5 0 7 -7 4 -7 -3 -20 0 -28 5 -13 9 -13 11 0 20 21 14
20 14 91 -31z m-401 -25 c74 -26 70 -32 -5 -8 -27 9 -61 17 -74 19 -13 2 -29
9 -35 15 -14 14 22 6 114 -26z m90 26 c0 -5 -5 -10 -11 -10 -5 0 -7 5 -4 10 3
6 8 10 11 10 2 0 4 -4 4 -10z m-2250 -14 c0 -3 -4 -8 -10 -11 -5 -3 -10 -1
-10 4 0 6 5 11 10 11 6 0 10 -2 10 -4z m290 -19 c-14 -8 -27 -12 -30 -10 -7 6
23 23 40 23 8 0 4 -6 -10 -13z m2045 3 c3 -6 -1 -7 -9 -4 -18 7 -21 14 -7 14
6 0 13 -4 16 -10z m-2279 -18 c-8 -8 -22 -12 -30 -9 -26 10 -18 24 14 24 27 0
29 -2 16 -15z m2389 -110 c-5 -5 -85 42 -85 50 0 4 20 -5 44 -20 24 -15 43
-28 41 -30z m65 -39 c0 -7 -39 17 -46 28 -3 6 5 3 20 -6 14 -10 26 -19 26 -22z
m97 -60 c-6 -5 -67 30 -67 39 0 4 16 -2 35 -14 20 -11 34 -22 32 -25z m323
-50 c0 -7 -61 31 -73 46 -7 8 7 2 31 -14 23 -15 42 -30 42 -32z m-1170 29 c-1
-17 -19 -34 -29 -28 -8 5 -8 13 -1 27 10 18 30 18 30 1z m298 5 c8 -10 6 -13
-7 -13 -11 0 -17 6 -14 13 3 7 6 13 8 13 1 0 7 -6 13 -13z m82 -35 c0 -5 -7
-9 -15 -9 -8 0 -12 4 -9 9 3 4 9 8 15 8 5 0 9 -4 9 -8z m501 -29 c13 -16 12
-17 -3 -4 -17 13 -22 21 -14 21 2 0 10 -8 17 -17z m69 -50 c0 -7 -39 17 -46
28 -3 6 5 3 20 -6 14 -10 26 -19 26 -22z m-4200 -67 c-7 -7 -10 1 -9 25 0 32
1 33 10 10 6 -16 6 -28 -1 -35z m3433 25 c10 -17 26 -33 37 -36 11 -4 20 -11
20 -17 0 -5 -6 -8 -14 -5 -8 3 -17 1 -19 -6 -7 -23 -38 14 -31 37 5 17 4 19
-7 9 -18 -18 -26 -16 -32 6 -4 18 9 41 23 41 3 0 14 -13 23 -29z m192 9 c16
-17 16 -20 3 -15 -9 4 -19 13 -22 21 -7 19 -2 18 19 -6z m1119 -26 c9 -3 16
-12 16 -20 0 -8 5 -14 11 -14 5 0 7 -6 3 -12 -6 -10 -3 -9 8 0 15 12 28 6 100
-39 46 -29 85 -54 87 -56 3 -2 -2 -11 -11 -19 -14 -14 -24 -10 -103 41 -64 41
-90 53 -96 44 -6 -10 -11 -10 -23 0 -9 7 -13 17 -10 23 3 5 0 15 -6 23 -6 8
-9 19 -5 25 7 12 8 12 29 4z m-4478 -104 c0 -11 -4 -20 -7 -20 -4 0 -10 -9
-14 -19 -7 -22 -58 -46 -80 -37 -16 6 -21 36 -6 36 4 0 24 13 42 30 40 35 65
39 65 10z m4198 -9 c-2 -3 -12 3 -22 13 -16 17 -16 18 5 5 12 -7 20 -15 17
-18z m-939 -11 c3 -5 2 -10 -4 -10 -5 0 -13 5 -16 10 -3 6 -2 10 4 10 5 0 13
-4 16 -10z m16 -47 c5 -14 5 -23 -1 -23 -6 0 -10 9 -10 19 0 11 -8 22 -17 25
-15 4 -15 5 1 3 10 -1 22 -12 27 -24z m1120 -1 c13 -10 59 -39 101 -66 43 -26
80 -51 83 -57 8 -12 -53 24 -133 78 -35 24 -70 43 -78 43 -8 0 -14 5 -14 10 0
15 14 12 41 -8z m-858 -117 c-3 -9 -8 -14 -10 -11 -3 3 -2 9 2 15 9 16 15 13
8 -4z m1242 -5 c3 -5 1 -10 -4 -10 -6 0 -11 5 -11 10 0 6 2 10 4 10 3 0 8 -4
11 -10z"/>
<path d="M3260 4212 c-29 -4 -52 -22 -28 -22 9 0 25 -3 35 -6 14 -5 15 -4 4 4
-11 8 -3 10 31 9 25 -1 44 -6 41 -11 -3 -5 0 -7 6 -5 44 15 -27 39 -89 31z"/>
<path d="M3042 4180 c-29 -12 -94 -61 -88 -67 5 -6 74 31 106 56 27 22 20 26
-18 11z"/>
<path d="M3198 4123 c7 -3 16 -2 19 1 4 3 -2 6 -13 5 -11 0 -14 -3 -6 -6z"/>
<path d="M3288 4083 c7 -3 16 -2 19 1 4 3 -2 6 -13 5 -11 0 -14 -3 -6 -6z"/>
<path d="M2807 3916 c-4 -10 0 -12 14 -9 27 7 34 23 11 23 -11 0 -22 -6 -25
-14z"/>
<path d="M2715 3870 c3 -5 8 -10 11 -10 2 0 4 5 4 10 0 6 -5 10 -11 10 -5 0
-7 -4 -4 -10z"/>
<path d="M132 3994 c-7 -8 -8 -14 -3 -14 10 0 25 19 20 25 -2 1 -10 -3 -17
-11z"/>
<path d="M3432 3951 c-11 -7 -11 -9 0 -14 9 -3 15 1 15 9 0 8 -1 14 -1 14 -1
0 -7 -4 -14 -9z"/>
<path d="M3718 3859 l-33 -31 32 22 c18 11 35 25 38 30 12 19 -5 9 -37 -21z"/>
<path d="M3941 3294 c0 -11 3 -14 6 -6 3 7 2 16 -1 19 -3 4 -6 -2 -5 -13z"/>
<path d="M3926 3107 c3 -10 9 -15 12 -12 3 3 0 11 -7 18 -10 9 -11 8 -5 -6z"/>
<path d="M3868 3103 c6 -2 18 -2 25 0 6 3 1 5 -13 5 -14 0 -19 -2 -12 -5z"/>
<path d="M3895 3070 c3 -5 10 -10 16 -10 5 0 9 5 9 10 0 6 -7 10 -16 10 -8 0
-12 -4 -9 -10z"/>
<path d="M3931 2934 c0 -11 3 -14 6 -6 3 7 2 16 -1 19 -3 4 -6 -2 -5 -13z"/>
<path d="M2629 3283 c-13 -16 -12 -17 4 -4 9 7 17 15 17 17 0 8 -8 3 -21 -13z"/>
<path d="M871 2487 c0 -10 -7 -28 -15 -40 -7 -12 -16 -49 -19 -82 -3 -33 -9
-71 -12 -85 -4 -14 -5 -38 -4 -55 10 -112 -6 -262 -27 -258 -5 1 -23 5 -39 9
-27 7 -25 3 23 -42 48 -46 64 -74 43 -74 -5 0 -12 -25 -16 -55 -7 -59 -18 -74
-41 -54 -8 6 -17 9 -21 5 -3 -3 -1 -6 5 -6 7 0 12 -6 12 -14 0 -7 11 -38 24
-67 18 -41 26 -80 30 -159 8 -119 4 -135 -32 -154 l-25 -13 26 -17 c18 -12 28
-30 32 -59 4 -23 10 -46 14 -52 3 -5 6 -14 6 -19 0 -5 6 -11 13 -13 7 -3 12 4
12 16 0 12 4 21 9 21 5 0 11 18 15 39 3 22 17 52 30 68 l24 27 -21 11 c-12 6
-23 22 -25 40 -12 93 10 151 54 142 28 -5 29 -3 10 16 -8 7 -24 35 -36 62 -18
40 -22 61 -18 117 4 50 1 77 -12 105 -14 31 -16 51 -9 98 4 32 5 63 2 68 -3 6
-8 20 -10 31 -2 12 -6 36 -9 54 -4 18 -2 32 4 32 11 0 25 70 23 118 -4 85 -3
131 1 175 3 26 2 47 -2 47 -5 0 -11 8 -13 18 -4 16 -5 16 -6 -1z"/>
<path d="M3740 2800 c-8 -5 -10 -10 -5 -10 6 0 17 5 25 10 8 5 11 10 5 10 -5
0 -17 -5 -25 -10z"/>
<path d="M4582 1568 c-17 -17 -15 -31 8 -46 17 -10 20 -10 19 5 0 10 -4 26 -7
36 -6 14 -10 15 -20 5z"/>
<path d="M4580 1495 c0 -8 4 -15 10 -15 5 0 7 7 4 15 -4 8 -8 15 -10 15 -2 0
-4 -7 -4 -15z"/>
<path d="M4778 863 c-14 -34 -16 -76 -4 -85 5 -3 10 -26 10 -49 1 -34 5 -45
20 -47 16 -4 18 0 12 35 -10 55 -16 73 -26 73 -9 0 -6 56 5 83 4 9 4 17 1 17
-4 0 -12 -12 -18 -27z"/>
<path d="M4823 635 c-17 -18 -6 -45 17 -45 11 0 22 -4 25 -10 11 -18 35 -11
35 11 0 11 3 18 8 16 4 -3 13 1 19 9 18 18 -3 29 -24 12 -9 -7 -14 -8 -10 -2
4 7 -2 10 -18 6 -15 -2 -25 0 -25 7 0 15 -12 13 -27 -4z"/>
<path d="M4827 565 c58 -39 65 -41 57 -21 -5 13 -83 56 -101 56 -4 0 16 -16
44 -35z"/>
<path d="M2702 1631 c-11 -7 -11 -9 1 -14 9 -3 18 1 21 9 6 16 -2 18 -22 5z"/>
<path d="M2815 900 c-3 -6 1 -7 9 -4 18 7 21 14 7 14 -6 0 -13 -4 -16 -10z"/>
<path d="M3320 890 c8 -5 20 -10 25 -10 6 0 3 5 -5 10 -8 5 -19 10 -25 10 -5
0 -3 -5 5 -10z"/>
<path d="M2511 861 c-7 -5 -9 -11 -5 -14 5 -3 15 1 22 9 14 16 5 18 -17 5z"/>
<path d="M2235 840 c3 -5 15 -10 26 -10 11 0 17 5 14 10 -3 6 -15 10 -26 10
-11 0 -17 -4 -14 -10z"/>
<path d="M2116 824 c-9 -24 -2 -26 12 -4 7 11 8 20 3 20 -5 0 -12 -7 -15 -16z"/>
<path d="M2540 810 c0 -6 7 -10 15 -10 8 0 15 2 15 4 0 2 -7 6 -15 10 -8 3
-15 1 -15 -4z"/>
<path d="M2485 800 c3 -5 8 -10 11 -10 2 0 4 5 4 10 0 6 -5 10 -11 10 -5 0 -7
-4 -4 -10z"/>
<path d="M3550 741 c0 -5 5 -13 10 -16 6 -3 10 -2 10 4 0 5 -4 13 -10 16 -5 3
-10 2 -10 -4z"/>
<path d="M4040 506 c0 -2 8 -10 18 -17 15 -13 16 -12 3 4 -13 16 -21 21 -21
13z"/>
<path d="M4000 339 c0 -5 5 -7 10 -4 6 3 10 8 10 11 0 2 -4 4 -10 4 -5 0 -10
-5 -10 -11z"/>
</g>
</svg>
