<?xml version="1.0" encoding="UTF-8"?>
<svg xmlns="http://www.w3.org/2000/svg" xmlns:xlink="http://www.w3.org/1999/xlink" width="200px" height="81px" viewBox="0 0 200 81" version="1.1">
<g id="surface1">
<path style=" stroke:none;fill-rule:nonzero;fill:rgb(0%,0%,0%);fill-opacity:1;" d="M 45.496094 22.558594 C 44.886719 23.734375 44.886719 30.941406 45.496094 31.316406 C 45.777344 31.503906 45.964844 30 45.964844 27.125 L 45.964844 22.605469 L 57.597656 22.605469 L 57.925781 24.015625 L 58.253906 25.429688 L 81.613281 25.429688 L 81.566406 33.53125 L 81.472656 41.675781 L 80.910156 36.402344 C 80.628906 33.484375 80.066406 30.800781 79.738281 30.375 C 79.222656 29.761719 77.4375 29.667969 67.683594 29.667969 L 56.238281 29.667969 L 55.769531 31.082031 L 55.253906 32.496094 L 48.78125 32.496094 C 45.167969 32.496094 42.167969 32.683594 42.027344 32.917969 C 41.652344 33.53125 43.714844 51 44.230469 51.660156 C 44.558594 52.132812 48.921875 52.273438 63.132812 52.273438 C 80.488281 52.273438 81.613281 52.226562 82.035156 51.425781 C 82.691406 50.199219 82.738281 26.609375 82.082031 25.429688 C 81.613281 24.535156 81.097656 24.488281 70.214844 24.488281 L 58.816406 24.488281 L 58.300781 23.074219 L 57.785156 21.664062 L 51.875 21.664062 C 46.527344 21.664062 45.964844 21.757812 45.496094 22.558594 Z M 80.253906 37.910156 C 80.675781 41.773438 81.144531 46.386719 81.332031 48.128906 L 81.660156 51.332031 L 63.085938 51.332031 C 48.59375 51.332031 44.558594 51.191406 44.558594 50.71875 C 44.558594 50.4375 44.136719 46.761719 43.621094 42.621094 C 43.105469 38.476562 42.683594 34.707031 42.683594 34.238281 C 42.683594 33.53125 43.292969 33.4375 49.015625 33.4375 L 55.300781 33.4375 L 56.800781 30.609375 L 68.152344 30.703125 L 79.503906 30.847656 Z M 80.253906 37.910156 "/>
<path style=" stroke:none;fill-rule:nonzero;fill:rgb(0%,0%,0%);fill-opacity:1;" d="M 61.914062 38.378906 L 59.382812 40.972656 L 61.914062 43.5625 C 63.273438 44.972656 64.539062 46.011719 64.679688 45.914062 C 64.820312 45.773438 63.882812 44.597656 62.617188 43.324219 L 60.320312 40.972656 L 62.617188 38.617188 C 63.882812 37.34375 64.820312 36.167969 64.679688 36.027344 C 64.539062 35.933594 63.273438 36.96875 61.914062 38.378906 Z M 61.914062 38.378906 "/>
<path style=" stroke:none;fill-rule:nonzero;fill:rgb(0%,0%,0%);fill-opacity:1;" d="M 71.292969 36.027344 C 71.292969 36.261719 72.234375 37.4375 73.453125 38.664062 L 75.5625 40.828125 L 73.359375 43.277344 C 72.140625 44.597656 71.246094 45.820312 71.386719 45.914062 C 71.480469 46.058594 72.75 44.972656 74.109375 43.5625 L 76.6875 40.972656 L 73.96875 38.238281 C 72.515625 36.78125 71.292969 35.789062 71.292969 36.027344 Z M 71.292969 36.027344 "/>
<path style=" stroke:none;fill-rule:nonzero;fill:rgb(0%,0%,0%);fill-opacity:1;" d="M 68.058594 39.605469 C 67.402344 41.582031 67.730469 41.914062 68.480469 40.027344 C 68.808594 39.226562 68.949219 38.476562 68.855469 38.332031 C 68.714844 38.191406 68.339844 38.757812 68.058594 39.605469 Z M 68.058594 39.605469 "/>
<path style=" stroke:none;fill-rule:nonzero;fill:rgb(0%,0%,0%);fill-opacity:1;" d="M 66.652344 43.371094 C 66.371094 44.21875 66.230469 44.972656 66.324219 45.066406 C 66.417969 45.164062 66.746094 44.597656 67.027344 43.75 C 67.308594 42.902344 67.449219 42.148438 67.355469 42.054688 C 67.261719 41.960938 66.933594 42.523438 66.652344 43.371094 Z M 66.652344 43.371094 "/>
<path style=" stroke:none;fill-rule:nonzero;fill:rgb(0%,0%,0%);fill-opacity:1;" d="M 111.351562 29.199219 C 109.898438 29.761719 108.347656 31.976562 108.347656 33.390625 C 108.347656 35.367188 109.617188 36.734375 112.804688 38.144531 C 116.183594 39.652344 116.933594 41.019531 115.101562 42.242188 C 114.164062 42.855469 113.742188 42.855469 112.570312 42.382812 C 111.773438 42.054688 110.976562 41.488281 110.789062 41.113281 C 110.460938 40.546875 110.179688 40.546875 109.144531 41.019531 C 107.644531 41.675781 107.644531 41.820312 108.628906 43.277344 C 111.304688 47.046875 118.292969 46.058594 119.324219 41.773438 C 119.933594 39.324219 118.761719 37.863281 114.726562 35.886719 C 112.101562 34.613281 111.585938 34.191406 111.726562 33.292969 C 111.914062 31.929688 114.585938 31.597656 115.855469 32.730469 C 116.605469 33.390625 116.886719 33.4375 117.917969 32.871094 C 119.089844 32.257812 119.089844 32.164062 118.386719 31.128906 C 117.027344 29.199219 113.648438 28.253906 111.351562 29.199219 Z M 111.351562 29.199219 "/>
<path style=" stroke:none;fill-rule:nonzero;fill:rgb(0%,0%,0%);fill-opacity:1;" d="M 123.96875 29.101562 C 122.890625 29.246094 122.890625 29.339844 122.890625 37.484375 L 122.890625 45.679688 L 127.34375 45.679688 C 130.019531 45.679688 131.800781 45.492188 131.800781 45.210938 C 131.800781 44.925781 130.066406 44.738281 127.578125 44.738281 L 123.359375 44.738281 L 123.359375 37.675781 L 126.640625 37.675781 C 128.519531 37.675781 129.925781 37.484375 129.925781 37.203125 C 129.925781 36.921875 128.519531 36.734375 126.640625 36.734375 L 123.359375 36.734375 L 123.359375 29.667969 L 127.71875 29.621094 C 130.066406 29.621094 131.847656 29.527344 131.566406 29.433594 C 130.863281 29.152344 125.140625 28.960938 123.96875 29.101562 Z M 123.96875 29.101562 "/>
<path style=" stroke:none;fill-rule:nonzero;fill:rgb(0%,0%,0%);fill-opacity:1;" d="M 138.882812 29.246094 C 132.457031 31.835938 131.285156 39.886719 136.726562 44.078125 C 138.835938 45.679688 142.121094 46.105469 144.605469 45.066406 C 145.542969 44.644531 146.339844 44.078125 146.339844 43.796875 C 146.339844 43.515625 145.871094 43.609375 145.214844 44.03125 C 141.042969 46.761719 134.804688 43.515625 133.910156 38.097656 C 133.535156 35.835938 134.992188 32.496094 137.054688 30.941406 C 138.835938 29.621094 142.917969 29.339844 144.886719 30.375 C 145.730469 30.800781 146.527344 31.035156 146.667969 30.894531 C 147.140625 30.46875 142.917969 28.726562 141.417969 28.773438 C 140.667969 28.773438 139.492188 29.007812 138.882812 29.246094 Z M 138.882812 29.246094 "/>
<path style=" stroke:none;fill-rule:nonzero;fill:rgb(0%,0%,0%);fill-opacity:1;" d="M 92.402344 29.480469 C 92.402344 29.621094 93.667969 31.695312 95.214844 34.09375 C 97.984375 38.378906 98.03125 38.523438 98.03125 41.820312 L 98.03125 45.210938 L 101.3125 45.210938 L 101.3125 41.867188 C 101.3125 38.710938 101.40625 38.378906 103.519531 35.179688 C 104.738281 33.292969 106.097656 31.222656 106.566406 30.46875 L 107.410156 29.199219 L 105.582031 29.199219 C 103.847656 29.199219 103.660156 29.386719 101.78125 32.257812 C 100.703125 33.953125 99.71875 35.320312 99.671875 35.320312 C 99.578125 35.320312 98.6875 33.953125 97.609375 32.257812 C 95.871094 29.433594 95.589844 29.199219 94.042969 29.199219 C 93.152344 29.199219 92.402344 29.339844 92.402344 29.480469 Z M 92.402344 29.480469 "/>
<path style=" stroke:none;fill-rule:nonzero;fill:rgb(0%,0%,0%);fill-opacity:1;" d="M 46.105469 61.222656 C 46.105469 64.09375 46.152344 64.375 46.386719 62.773438 C 46.761719 60.46875 47.046875 60.042969 48.078125 60.421875 C 48.546875 60.609375 48.78125 61.363281 48.78125 62.632812 C 48.78125 63.667969 49.015625 64.515625 49.25 64.515625 C 49.953125 64.515625 49.8125 61.550781 49.0625 60.515625 C 48.6875 59.949219 48.125 59.761719 47.46875 59.902344 C 46.667969 60.136719 46.433594 59.949219 46.292969 58.914062 C 46.199219 58.253906 46.105469 59.289062 46.105469 61.222656 Z M 46.105469 61.222656 "/>
<path style=" stroke:none;fill-rule:nonzero;fill:rgb(0%,0%,0%);fill-opacity:1;" d="M 68.011719 58.394531 C 68.011719 58.628906 68.246094 58.867188 68.480469 58.867188 C 68.761719 58.867188 68.949219 58.628906 68.949219 58.394531 C 68.949219 58.113281 68.761719 57.925781 68.480469 57.925781 C 68.246094 57.925781 68.011719 58.113281 68.011719 58.394531 Z M 68.011719 58.394531 "/>
<path style=" stroke:none;fill-rule:nonzero;fill:rgb(0%,0%,0%);fill-opacity:1;" d="M 70.496094 61.222656 C 70.496094 63.152344 70.589844 63.953125 70.683594 62.964844 C 70.777344 62.023438 70.777344 60.421875 70.683594 59.429688 C 70.589844 58.488281 70.496094 59.289062 70.496094 61.222656 Z M 70.496094 61.222656 "/>
<path style=" stroke:none;fill-rule:nonzero;fill:rgb(0%,0%,0%);fill-opacity:1;" d="M 115.996094 61.222656 C 115.996094 64.09375 116.042969 64.375 116.277344 62.773438 C 116.652344 60.46875 116.933594 60.042969 117.964844 60.421875 C 118.433594 60.609375 118.667969 61.363281 118.667969 62.632812 C 118.667969 63.667969 118.902344 64.515625 119.136719 64.515625 C 119.839844 64.515625 119.699219 61.550781 118.949219 60.515625 C 118.574219 59.949219 118.011719 59.761719 117.355469 59.902344 C 116.558594 60.136719 116.324219 59.949219 116.183594 58.914062 C 116.089844 58.253906 115.996094 59.289062 115.996094 61.222656 Z M 115.996094 61.222656 "/>
<path style=" stroke:none;fill-rule:nonzero;fill:rgb(0%,0%,0%);fill-opacity:1;" d="M 133.769531 61.222656 C 133.769531 64.28125 133.816406 64.46875 134.144531 62.679688 C 134.332031 61.550781 134.285156 59.949219 134.097656 59.148438 C 133.863281 58.113281 133.769531 58.726562 133.769531 61.222656 Z M 133.769531 61.222656 "/>
<path style=" stroke:none;fill-rule:nonzero;fill:rgb(0%,0%,0%);fill-opacity:1;" d="M 150.609375 60.984375 L 150.5625 64.328125 L 151.96875 64.421875 C 153.847656 64.566406 155.019531 62.871094 154.316406 60.984375 C 153.894531 59.855469 153.660156 59.714844 152.4375 59.949219 C 151.265625 60.230469 151.078125 60.089844 150.890625 58.960938 C 150.796875 58.253906 150.65625 59.195312 150.609375 60.984375 Z M 153.753906 62.070312 C 153.847656 63.105469 153.660156 63.667969 153.191406 63.859375 C 151.59375 64.46875 150.328125 62.117188 151.59375 60.84375 C 152.578125 59.855469 153.613281 60.421875 153.753906 62.070312 Z M 153.753906 62.070312 "/>
<path style=" stroke:none;fill-rule:nonzero;fill:rgb(0%,0%,0%);fill-opacity:1;" d="M 37.617188 60.089844 C 38.132812 60.984375 38.742188 62.445312 38.929688 63.246094 C 39.304688 64.753906 39.304688 64.753906 39.351562 63.433594 C 39.398438 62.726562 39.820312 61.222656 40.335938 60.136719 L 41.324219 58.160156 L 40.148438 59.574219 C 38.882812 61.03125 38.882812 61.03125 38.039062 59.429688 C 37.757812 58.867188 37.289062 58.394531 37.054688 58.394531 C 36.820312 58.394531 37.054688 59.148438 37.617188 60.089844 Z M 37.617188 60.089844 "/>
<path style=" stroke:none;fill-rule:nonzero;fill:rgb(0%,0%,0%);fill-opacity:1;" d="M 63.789062 59.101562 C 63.039062 60.042969 63.507812 61.125 64.960938 61.785156 C 65.617188 62.070312 66.136719 62.726562 66.136719 63.246094 C 66.136719 64 65.902344 64.140625 64.726562 63.859375 C 63.835938 63.71875 63.367188 63.765625 63.554688 64.046875 C 63.976562 64.707031 65.855469 64.613281 66.511719 63.953125 C 67.449219 63.011719 67.167969 62.304688 65.382812 61.269531 C 63.460938 60.136719 63.507812 59.242188 65.476562 58.820312 C 66.839844 58.488281 66.839844 58.488281 65.617188 58.441406 C 64.914062 58.441406 64.117188 58.726562 63.789062 59.101562 Z M 63.789062 59.101562 "/>
<path style=" stroke:none;fill-rule:nonzero;fill:rgb(0%,0%,0%);fill-opacity:1;" d="M 107.410156 61.457031 L 107.410156 64.515625 L 109.191406 64.421875 C 110.882812 64.375 110.882812 64.375 109.429688 64.1875 C 108.160156 64 107.878906 63.765625 107.878906 62.871094 C 107.878906 62.023438 108.160156 61.691406 109.191406 61.550781 L 110.460938 61.363281 L 109.191406 61.269531 C 108.113281 61.222656 107.878906 60.984375 107.878906 60.089844 C 107.878906 59.195312 108.160156 58.867188 109.191406 58.726562 C 110.367188 58.535156 110.367188 58.535156 108.957031 58.441406 L 107.410156 58.394531 Z M 107.410156 61.457031 "/>
<path style=" stroke:none;fill-rule:nonzero;fill:rgb(0%,0%,0%);fill-opacity:1;" d="M 129.082031 59.148438 C 127.765625 60.042969 127.671875 62.632812 128.894531 63.71875 C 129.785156 64.515625 132.738281 64.847656 132.738281 64.140625 C 132.738281 63.90625 132.128906 63.8125 131.425781 63.953125 C 128.894531 64.328125 127.53125 61.316406 129.457031 59.574219 C 130.019531 59.054688 130.816406 58.820312 131.566406 58.960938 C 132.222656 59.101562 132.738281 59.007812 132.738281 58.820312 C 132.738281 58.113281 130.207031 58.347656 129.082031 59.148438 Z M 129.082031 59.148438 "/>
<path style=" stroke:none;fill-rule:nonzero;fill:rgb(0%,0%,0%);fill-opacity:1;" d="M 41.558594 60.230469 C 41.417969 60.421875 41.839844 60.515625 42.449219 60.375 C 44.042969 60.089844 44.042969 61.503906 42.402344 61.878906 C 41.511719 62.117188 41.230469 62.445312 41.371094 63.246094 C 41.464844 64.046875 41.839844 64.28125 43.058594 64.375 C 44.464844 64.421875 44.558594 64.328125 44.558594 62.871094 C 44.558594 62.023438 44.417969 60.984375 44.277344 60.5625 C 43.996094 59.761719 41.980469 59.527344 41.558594 60.230469 Z M 43.621094 62.871094 C 43.621094 63.621094 42.355469 64.375 41.886719 63.90625 C 41.746094 63.71875 41.746094 63.292969 41.886719 62.871094 C 42.261719 61.925781 43.621094 61.925781 43.621094 62.871094 Z M 43.621094 62.871094 "/>
<path style=" stroke:none;fill-rule:nonzero;fill:rgb(0%,0%,0%);fill-opacity:1;" d="M 51.21875 60.375 C 50.421875 61.175781 50.515625 63.339844 51.359375 64.046875 C 52.390625 64.894531 54.363281 64.234375 54.691406 62.917969 C 55.253906 60.5625 52.8125 58.773438 51.21875 60.375 Z M 53.847656 62.070312 C 53.941406 63.105469 53.753906 63.667969 53.285156 63.859375 C 51.6875 64.46875 50.421875 62.117188 51.6875 60.84375 C 52.671875 59.855469 53.707031 60.421875 53.847656 62.070312 Z M 53.847656 62.070312 "/>
<path style=" stroke:none;fill-rule:nonzero;fill:rgb(0%,0%,0%);fill-opacity:1;" d="M 56.378906 60.375 C 55.582031 61.175781 55.675781 63.339844 56.519531 64.046875 C 57.550781 64.894531 59.523438 64.234375 59.851562 62.917969 C 60.414062 60.5625 57.972656 58.773438 56.378906 60.375 Z M 58.863281 62.164062 C 58.863281 63.480469 58.675781 63.859375 57.832031 63.953125 C 57.175781 64.046875 56.753906 63.8125 56.519531 63.152344 C 56.050781 61.550781 56.707031 60.183594 57.832031 60.375 C 58.675781 60.46875 58.863281 60.84375 58.863281 62.164062 Z M 58.863281 62.164062 "/>
<path style=" stroke:none;fill-rule:nonzero;fill:rgb(0%,0%,0%);fill-opacity:1;" d="M 68.011719 62.164062 C 68.011719 63.433594 68.246094 64.515625 68.480469 64.515625 C 68.761719 64.515625 68.949219 63.433594 68.949219 62.164062 C 68.949219 60.84375 68.761719 59.808594 68.480469 59.808594 C 68.246094 59.808594 68.011719 60.84375 68.011719 62.164062 Z M 68.011719 62.164062 "/>
<path style=" stroke:none;fill-rule:nonzero;fill:rgb(0%,0%,0%);fill-opacity:1;" d="M 71.90625 60.375 C 72 60.703125 72.375 61.785156 72.75 62.726562 C 73.078125 63.71875 73.5 64.515625 73.6875 64.515625 C 73.828125 64.515625 74.4375 63.433594 74.953125 62.164062 C 75.515625 60.84375 75.75 59.808594 75.515625 59.808594 C 75.328125 59.808594 74.8125 60.703125 74.4375 61.785156 L 73.78125 63.8125 L 73.171875 61.785156 C 72.84375 60.703125 72.375 59.808594 72.09375 59.808594 C 71.855469 59.808594 71.761719 60.089844 71.90625 60.375 Z M 71.90625 60.375 "/>
<path style=" stroke:none;fill-rule:nonzero;fill:rgb(0%,0%,0%);fill-opacity:1;" d="M 77.015625 60.375 C 76.6875 60.703125 76.453125 61.503906 76.453125 62.164062 C 76.453125 62.820312 76.6875 63.621094 77.015625 63.953125 C 77.671875 64.613281 79.738281 64.707031 79.738281 64.09375 C 79.738281 63.859375 79.316406 63.765625 78.753906 63.90625 C 78.191406 64.09375 77.578125 63.90625 77.34375 63.527344 C 76.640625 62.398438 76.875 62.164062 78.566406 62.164062 C 80.347656 62.164062 80.441406 62.070312 79.738281 60.703125 C 79.175781 59.714844 77.859375 59.527344 77.015625 60.375 Z M 79.175781 61.078125 C 79.269531 61.457031 78.894531 61.691406 78.144531 61.691406 C 76.96875 61.691406 76.59375 61.222656 77.25 60.5625 C 77.71875 60.089844 78.941406 60.421875 79.175781 61.078125 Z M 79.175781 61.078125 "/>
<path style=" stroke:none;fill-rule:nonzero;fill:rgb(0%,0%,0%);fill-opacity:1;" d="M 81.191406 62.398438 C 81.238281 63.667969 81.332031 64.234375 81.472656 63.574219 C 81.894531 60.9375 82.128906 60.324219 82.925781 60.136719 C 83.347656 59.996094 83.160156 59.949219 82.457031 59.949219 C 81.191406 59.996094 81.144531 60.089844 81.191406 62.398438 Z M 81.191406 62.398438 "/>
<path style=" stroke:none;fill-rule:nonzero;fill:rgb(0%,0%,0%);fill-opacity:1;" d="M 83.957031 62.210938 C 83.957031 65.035156 84.804688 65.269531 84.992188 62.539062 C 85.085938 61.078125 85.367188 60.46875 85.976562 60.375 C 86.632812 60.230469 86.773438 60.5625 86.773438 62.351562 C 86.773438 65.082031 87.617188 65.222656 87.804688 62.539062 C 87.898438 61.078125 88.179688 60.46875 88.789062 60.375 C 89.445312 60.230469 89.585938 60.5625 89.585938 62.351562 C 89.585938 63.527344 89.820312 64.515625 90.054688 64.515625 C 90.714844 64.515625 90.617188 60.9375 89.960938 60.421875 C 89.632812 60.136719 88.132812 59.949219 86.679688 59.949219 L 83.957031 59.949219 Z M 83.957031 62.210938 "/>
<path style=" stroke:none;fill-rule:nonzero;fill:rgb(0%,0%,0%);fill-opacity:1;" d="M 91.933594 60.183594 C 91.933594 60.421875 92.402344 60.5625 92.917969 60.5625 C 93.480469 60.515625 94.042969 60.796875 94.136719 61.078125 C 94.277344 61.457031 93.949219 61.691406 93.433594 61.691406 C 92.261719 61.691406 91.277344 62.871094 91.652344 63.8125 C 91.792969 64.28125 92.402344 64.515625 93.339844 64.421875 C 94.746094 64.328125 94.792969 64.234375 94.652344 62.164062 C 94.511719 60.230469 94.371094 60.042969 93.246094 59.902344 C 92.496094 59.808594 91.933594 59.949219 91.933594 60.183594 Z M 94.277344 62.871094 C 94.277344 63.859375 92.964844 64.328125 92.261719 63.621094 C 91.839844 63.199219 91.886719 62.964844 92.402344 62.632812 C 93.433594 61.972656 94.277344 62.070312 94.277344 62.871094 Z M 94.277344 62.871094 "/>
<path style=" stroke:none;fill-rule:nonzero;fill:rgb(0%,0%,0%);fill-opacity:1;" d="M 96.152344 62.210938 C 96.152344 65.035156 97 65.269531 97.1875 62.539062 C 97.28125 61.078125 97.5625 60.46875 98.171875 60.375 C 98.828125 60.230469 98.96875 60.5625 98.96875 62.351562 C 98.96875 63.527344 99.203125 64.515625 99.4375 64.515625 C 100.09375 64.515625 100 60.9375 99.34375 60.375 C 99.015625 60.136719 98.171875 59.902344 97.46875 59.902344 C 96.199219 59.902344 96.152344 60.042969 96.152344 62.210938 Z M 96.152344 62.210938 "/>
<path style=" stroke:none;fill-rule:nonzero;fill:rgb(0%,0%,0%);fill-opacity:1;" d="M 101.453125 60.136719 C 100.46875 60.515625 100.75 61.503906 102.015625 62.351562 C 103.332031 63.246094 103.144531 64.28125 101.734375 63.90625 C 101.21875 63.765625 100.84375 63.859375 100.84375 64.140625 C 100.84375 64.375 101.40625 64.515625 102.15625 64.421875 C 103.941406 64.234375 104.128906 62.539062 102.484375 61.785156 C 101.125 61.175781 101.359375 60.042969 102.765625 60.421875 C 103.285156 60.5625 103.660156 60.46875 103.660156 60.230469 C 103.660156 59.761719 102.4375 59.714844 101.453125 60.136719 Z M 101.453125 60.136719 "/>
<path style=" stroke:none;fill-rule:nonzero;fill:rgb(0%,0%,0%);fill-opacity:1;" d="M 111.820312 60.984375 C 111.117188 62.070312 111.117188 62.257812 111.820312 63.339844 C 112.570312 64.46875 114.117188 64.941406 114.632812 64.140625 C 114.726562 63.953125 114.257812 63.765625 113.601562 63.8125 C 112.476562 63.8125 112.335938 63.621094 112.335938 62.164062 C 112.335938 60.65625 112.476562 60.515625 113.648438 60.515625 C 114.351562 60.5625 114.914062 60.375 114.914062 60.183594 C 114.914062 59.242188 112.523438 59.902344 111.820312 60.984375 Z M 111.820312 60.984375 "/>
<path style=" stroke:none;fill-rule:nonzero;fill:rgb(0%,0%,0%);fill-opacity:1;" d="M 121.105469 60.375 C 120.308594 61.175781 120.402344 63.339844 121.246094 64.046875 C 122.28125 64.894531 124.25 64.234375 124.578125 62.917969 C 125.140625 60.5625 122.703125 58.773438 121.105469 60.375 Z M 123.59375 62.164062 C 123.59375 63.480469 123.40625 63.859375 122.5625 63.953125 C 121.90625 64.046875 121.480469 63.8125 121.246094 63.152344 C 120.777344 61.550781 121.433594 60.183594 122.5625 60.375 C 123.40625 60.46875 123.59375 60.84375 123.59375 62.164062 Z M 123.59375 62.164062 "/>
<path style=" stroke:none;fill-rule:nonzero;fill:rgb(0%,0%,0%);fill-opacity:1;" d="M 135.695312 60.324219 C 136.210938 60.65625 136.492188 61.363281 136.492188 62.632812 C 136.492188 63.667969 136.726562 64.515625 136.960938 64.515625 C 137.570312 64.515625 137.570312 61.878906 136.960938 60.703125 C 136.679688 60.230469 136.117188 59.808594 135.648438 59.808594 C 134.898438 59.855469 134.898438 59.855469 135.695312 60.324219 Z M 135.695312 60.324219 "/>
<path style=" stroke:none;fill-rule:nonzero;fill:rgb(0%,0%,0%);fill-opacity:1;" d="M 139.726562 60.183594 C 141.417969 60.703125 141.417969 61.503906 139.773438 61.878906 C 138.554688 62.117188 138.320312 62.351562 138.460938 63.199219 C 138.554688 64.046875 138.929688 64.28125 140.148438 64.328125 L 141.699219 64.375 L 141.558594 62.210938 C 141.417969 60.183594 141.324219 60.042969 140.007812 59.949219 C 138.742188 59.855469 138.695312 59.902344 139.726562 60.183594 Z M 141.183594 62.351562 C 141.183594 63.105469 140.523438 64.046875 140.007812 64.046875 C 139.070312 64.046875 138.601562 63.058594 139.351562 62.585938 C 140.054688 62.164062 141.183594 62.023438 141.183594 62.351562 Z M 141.183594 62.351562 "/>
<path style=" stroke:none;fill-rule:nonzero;fill:rgb(0%,0%,0%);fill-opacity:1;" d="M 143.105469 62.164062 L 143.199219 64.753906 L 143.527344 62.632812 C 143.714844 61.457031 143.714844 60.324219 143.480469 60.042969 C 143.246094 59.808594 143.105469 60.65625 143.105469 62.164062 Z M 143.105469 62.164062 "/>
<path style=" stroke:none;fill-rule:nonzero;fill:rgb(0%,0%,0%);fill-opacity:1;" d="M 145.074219 60.375 C 145.589844 60.65625 145.871094 61.457031 145.917969 62.773438 C 145.964844 63.953125 146.058594 64.28125 146.199219 63.574219 C 146.621094 60.703125 146.855469 60.230469 147.65625 60.375 C 148.21875 60.46875 148.546875 61.175781 148.734375 62.632812 L 149.0625 64.753906 L 148.96875 62.398438 L 148.921875 60.042969 L 146.621094 59.996094 C 144.933594 59.949219 144.511719 60.042969 145.074219 60.375 Z M 145.074219 60.375 "/>
<path style=" stroke:none;fill-rule:nonzero;fill:rgb(0%,0%,0%);fill-opacity:1;" d="M 156.003906 60.515625 C 155.113281 61.410156 155.066406 62.304688 155.722656 63.621094 C 156.238281 64.515625 158.253906 64.894531 158.722656 64.140625 C 158.816406 63.953125 158.394531 63.765625 157.691406 63.8125 C 156.894531 63.8125 156.378906 63.527344 156.285156 62.964844 C 156.144531 62.351562 156.425781 62.164062 157.597656 62.164062 C 158.863281 62.164062 159.050781 62.023438 158.910156 61.078125 C 158.722656 59.808594 157.082031 59.476562 156.003906 60.515625 Z M 158.441406 61.078125 C 158.535156 61.457031 158.160156 61.691406 157.410156 61.691406 C 156.238281 61.691406 155.863281 61.222656 156.519531 60.5625 C 156.988281 60.089844 158.207031 60.421875 158.441406 61.078125 Z M 158.441406 61.078125 "/>
<path style=" stroke:none;fill-rule:nonzero;fill:rgb(0%,0%,0%);fill-opacity:1;" d="M 160.460938 62.398438 C 160.507812 63.667969 160.601562 64.234375 160.742188 63.574219 C 161.164062 60.9375 161.398438 60.324219 162.195312 60.136719 C 162.617188 59.996094 162.429688 59.949219 161.726562 59.949219 C 160.460938 59.996094 160.414062 60.089844 160.460938 62.398438 Z M 160.460938 62.398438 "/>
</g>
</svg>
