<?xml version="1.0" standalone="no"?>
<!DOCTYPE svg PUBLIC "-//W3C//DTD SVG 20010904//EN"
 "http://www.w3.org/TR/2001/REC-SVG-20010904/DTD/svg10.dtd">
<svg version="1.0" xmlns="http://www.w3.org/2000/svg"
 width="426.000000pt" height="172.000000pt" viewBox="0 0 426.000000 172.000000"
 preserveAspectRatio="xMidYMid meet">

<g transform="translate(0.000000,172.000000) scale(0.100000,-0.100000)"
fill="#000000" stroke="none">
<path d="M970 1241 c-13 -25 -13 -178 0 -186 6 -4 10 28 10 89 l0 96 124 0
124 0 7 -30 7 -30 249 0 249 0 -1 -172 -2 -173 -12 112 c-6 62 -18 119 -25
128 -11 13 -49 15 -257 15 l-244 0 -10 -30 -11 -30 -138 0 c-77 0 -141 -4
-144 -9 -8 -13 36 -384 47 -398 7 -10 100 -13 403 -13 370 0 394 1 403 18 14
26 15 527 1 552 -10 19 -21 20 -253 20 l-243 0 -11 30 -11 30 -126 0 c-114 0
-126 -2 -136 -19z m741 -326 c9 -82 19 -180 23 -217 l7 -68 -396 0 c-309 0
-395 3 -395 13 0 6 -9 84 -20 172 -11 88 -20 168 -20 178 0 15 13 17 135 17
l134 0 16 30 16 30 242 -2 242 -3 16 -150z"/>
<path d="M1320 905 l-54 -55 54 -55 c29 -30 56 -52 59 -50 3 3 -17 28 -44 55
l-49 50 49 50 c27 27 47 52 44 55 -3 2 -30 -20 -59 -50z"/>
<path d="M1520 955 c0 -5 20 -30 46 -56 l45 -46 -47 -52 c-26 -28 -45 -54 -42
-56 2 -3 29 20 58 50 l55 55 -58 58 c-31 31 -57 52 -57 47z"/>
<path d="M1451 879 c-14 -42 -7 -49 9 -9 7 17 10 33 8 36 -3 3 -11 -9 -17 -27z"/>
<path d="M1421 799 c-6 -18 -9 -34 -7 -36 2 -2 9 10 15 28 6 18 9 34 7 36 -2
2 -9 -10 -15 -28z"/>
<path d="M2374 1100 c-31 -12 -64 -59 -64 -89 0 -42 27 -71 95 -101 72 -32 88
-61 49 -87 -20 -13 -29 -13 -54 -3 -17 7 -34 19 -38 27 -7 12 -13 12 -35 2
-32 -14 -32 -17 -11 -48 57 -80 206 -59 228 32 13 52 -12 83 -98 125 -56 27
-67 36 -64 55 4 29 61 36 88 12 16 -14 22 -15 44 -3 25 13 25 15 10 37 -29 41
-101 61 -150 41z"/>
<path d="M2643 1102 c-23 -3 -23 -5 -23 -178 l0 -174 95 0 c57 0 95 4 95 10 0
6 -37 10 -90 10 l-90 0 0 75 0 75 70 0 c40 0 70 4 70 10 0 6 -30 10 -70 10
l-70 0 0 75 0 75 93 1 c50 0 88 2 82 4 -15 6 -137 10 -162 7z"/>
<path d="M2961 1099 c-137 -55 -162 -226 -46 -315 45 -34 115 -43 168 -21 20
9 37 21 37 27 0 6 -10 4 -24 -5 -89 -58 -222 11 -241 126 -8 48 23 119 67 152
38 28 125 34 167 12 18 -9 35 -14 38 -11 10 9 -80 46 -112 45 -16 0 -41 -5
-54 -10z"/>
<path d="M1970 1094 c0 -3 27 -47 60 -98 59 -91 60 -94 60 -164 l0 -72 35 0
35 0 0 71 c0 67 2 74 47 142 26 40 55 84 65 100 l18 27 -39 0 c-37 0 -41 -4
-81 -65 -23 -36 -44 -65 -45 -65 -2 0 -21 29 -44 65 -37 60 -43 65 -76 65 -19
0 -35 -3 -35 -6z"/>
<path d="M983 420 c0 -61 1 -67 6 -33 8 49 14 58 36 50 10 -4 15 -20 15 -47 0
-22 5 -40 10 -40 15 0 12 63 -4 85 -8 12 -20 16 -34 13 -17 -5 -22 -1 -25 21
-2 14 -4 -8 -4 -49z"/>
<path d="M1450 480 c0 -5 5 -10 10 -10 6 0 10 5 10 10 0 6 -4 10 -10 10 -5 0
-10 -4 -10 -10z"/>
<path d="M1503 420 c0 -41 2 -58 4 -37 2 20 2 54 0 75 -2 20 -4 3 -4 -38z"/>
<path d="M2473 420 c0 -61 1 -67 6 -33 8 49 14 58 36 50 10 -4 15 -20 15 -47
0 -22 5 -40 10 -40 15 0 12 63 -4 85 -8 12 -20 16 -34 13 -17 -5 -22 -1 -25
21 -2 14 -4 -8 -4 -49z"/>
<path d="M2852 420 c0 -65 1 -69 8 -31 4 24 3 58 -1 75 -5 22 -7 9 -7 -44z"/>
<path d="M3211 425 l-1 -71 30 -2 c40 -3 65 33 50 73 -9 24 -14 27 -40 22 -25
-6 -29 -3 -33 21 -2 15 -5 -5 -6 -43z m67 -23 c2 -22 -2 -34 -12 -38 -34 -13
-61 37 -34 64 21 21 43 9 46 -26z"/>
<path d="M802 444 c11 -19 24 -50 28 -67 8 -32 8 -32 9 -4 1 15 10 47 21 70
l21 42 -25 -30 c-27 -31 -27 -31 -45 3 -6 12 -16 22 -21 22 -5 0 0 -16 12 -36z"/>
<path d="M1360 465 c-16 -20 -6 -43 25 -57 14 -6 25 -20 25 -31 0 -16 -5 -19
-30 -13 -19 3 -29 2 -25 -4 9 -14 49 -12 63 2 20 20 14 35 -24 57 -41 24 -40
43 2 52 29 7 29 7 3 8 -15 0 -32 -6 -39 -14z"/>
<path d="M2290 415 l0 -65 38 2 c36 1 36 1 5 5 -27 4 -33 9 -33 28 0 18 6 25
28 28 l27 4 -27 2 c-23 1 -28 6 -28 25 0 19 6 26 28 29 25 4 25 4 -5 6 l-33 1
0 -65z"/>
<path d="M2752 464 c-28 -19 -30 -74 -4 -97 19 -17 82 -24 82 -9 0 5 -13 7
-28 4 -54 -8 -83 56 -42 93 12 11 29 16 45 13 14 -3 25 -1 25 3 0 15 -54 10
-78 -7z"/>
<path d="M886 441 c-3 -4 6 -6 19 -3 34 6 34 -24 -1 -32 -19 -5 -25 -12 -22
-29 2 -17 10 -22 36 -24 30 -1 32 1 32 32 0 18 -3 40 -6 49 -6 17 -49 22 -58
7z m44 -56 c0 -16 -27 -32 -37 -22 -3 4 -3 13 0 22 8 20 37 20 37 0z"/>
<path d="M1092 438 c-17 -17 -15 -63 3 -78 22 -18 64 -4 71 24 12 50 -40 88
-74 54z m56 -36 c2 -22 -2 -34 -12 -38 -34 -13 -61 37 -34 64 21 21 43 9 46
-26z"/>
<path d="M1202 438 c-17 -17 -15 -63 3 -78 22 -18 64 -4 71 24 12 50 -40 88
-74 54z m53 -38 c0 -28 -4 -36 -22 -38 -14 -2 -23 3 -28 17 -10 34 4 63 28 59
18 -2 22 -10 22 -38z"/>
<path d="M1450 400 c0 -27 5 -50 10 -50 6 0 10 23 10 50 0 28 -4 50 -10 50 -5
0 -10 -22 -10 -50z"/>
<path d="M1533 438 c2 -7 10 -30 18 -50 7 -21 16 -38 20 -38 3 0 16 23 27 50
12 28 17 50 12 50 -4 0 -15 -19 -23 -42 l-14 -43 -13 43 c-7 23 -17 42 -23 42
-5 0 -7 -6 -4 -12z"/>
<path d="M1642 438 c-7 -7 -12 -24 -12 -38 0 -14 5 -31 12 -38 14 -14 58 -16
58 -3 0 5 -9 7 -21 4 -12 -4 -25 0 -30 8 -15 24 -10 29 26 29 38 0 40 2 25 31
-12 21 -40 25 -58 7z m46 -15 c2 -8 -6 -13 -22 -13 -25 0 -33 10 -19 24 10 10
36 3 41 -11z"/>
<path d="M1731 395 c1 -27 3 -39 6 -25 9 56 14 69 31 73 9 3 5 4 -10 4 -27 -1
-28 -3 -27 -52z"/>
<path d="M1790 399 c0 -60 18 -65 22 -7 2 31 8 44 21 46 14 3 17 -4 17 -42 0
-58 18 -61 22 -4 2 31 8 44 21 46 14 3 17 -4 17 -42 0 -25 5 -46 10 -46 14 0
12 76 -2 87 -7 6 -39 10 -70 10 l-58 0 0 -48z"/>
<path d="M1960 442 c0 -5 10 -8 21 -8 12 1 24 -5 26 -11 3 -8 -4 -13 -15 -13
-25 0 -46 -25 -38 -45 3 -10 16 -15 36 -13 30 2 31 4 28 48 -3 41 -6 45 -30
48 -16 2 -28 -1 -28 -6z m50 -57 c0 -21 -28 -31 -43 -16 -9 9 -8 14 3 21 22
14 40 12 40 -5z"/>
<path d="M2050 399 c0 -60 18 -65 22 -7 2 31 8 44 21 46 14 3 17 -4 17 -42 0
-25 5 -46 10 -46 14 0 12 76 -2 88 -7 5 -25 10 -40 10 -27 0 -28 -3 -28 -49z"/>
<path d="M2163 443 c-21 -8 -15 -29 12 -47 28 -19 24 -41 -6 -33 -11 3 -19 1
-19 -5 0 -5 12 -8 28 -6 38 4 42 40 7 56 -29 13 -24 37 6 29 11 -3 19 -1 19 4
0 10 -26 11 -47 2z"/>
<path d="M2384 425 c-15 -23 -15 -27 0 -50 16 -24 49 -34 60 -17 2 4 -8 8 -22
7 -24 0 -27 4 -27 35 0 32 3 35 28 35 15 -1 27 3 27 7 0 20 -51 6 -66 -17z"/>
<path d="M2582 438 c-17 -17 -15 -63 3 -78 22 -18 64 -4 71 24 12 50 -40 88
-74 54z m53 -38 c0 -28 -4 -36 -22 -38 -14 -2 -23 3 -28 17 -10 34 4 63 28 59
18 -2 22 -10 22 -38z"/>
<path d="M2893 439 c11 -7 17 -22 17 -49 0 -22 5 -40 10 -40 13 0 13 56 0 81
-6 10 -18 19 -28 19 -16 -1 -16 -1 1 -11z"/>
<path d="M2979 442 c36 -11 36 -28 1 -36 -26 -5 -31 -10 -28 -28 2 -18 10 -23
36 -24 l33 -1 -3 46 c-3 43 -5 46 -33 48 -27 2 -28 1 -6 -5z m31 -46 c0 -16
-14 -36 -25 -36 -20 0 -30 21 -14 31 15 9 39 12 39 5z"/>
<path d="M3051 400 l2 -55 7 45 c4 25 4 49 -1 55 -5 5 -8 -13 -8 -45z"/>
<path d="M3093 438 c11 -6 17 -23 18 -51 1 -25 3 -32 6 -17 9 61 14 71 31 68
12 -2 19 -17 23 -48 l7 -45 -2 50 -1 50 -49 1 c-36 1 -45 -1 -33 -8z"/>
<path d="M3326 435 c-19 -19 -20 -38 -6 -66 11 -19 54 -27 64 -11 2 4 -7 8
-22 7 -17 0 -28 6 -30 18 -3 13 3 17 28 17 27 0 31 3 28 23 -4 27 -39 34 -62
12z m52 -12 c2 -8 -6 -13 -22 -13 -25 0 -33 10 -19 24 10 10 36 3 41 -11z"/>
<path d="M3421 395 c1 -27 3 -39 6 -25 9 56 14 69 31 73 9 3 5 4 -10 4 -27 -1
-28 -3 -27 -52z"/>
</g>
</svg>
