<?xml version="1.0" encoding="UTF-8"?>
<svg xmlns="http://www.w3.org/2000/svg" xmlns:xlink="http://www.w3.org/1999/xlink" width="900px" height="489px" viewBox="0 0 900 489" version="1.1">
<g id="surface1">
<path style=" stroke:none;fill-rule:nonzero;fill:rgb(0%,0%,0%);fill-opacity:1;" d="M 744.824219 121.5 C 724.875 137.925781 709.5 150.824219 709.5 151.199219 C 709.5 151.425781 710.925781 150.523438 712.726562 149.324219 L 715.875 147 L 736.875 154.199219 C 748.425781 158.175781 763.125 163.125 769.5 165.148438 C 775.875 167.25 781.425781 169.199219 781.800781 169.574219 C 782.25 169.949219 782.023438 170.625 781.050781 171.300781 C 780.300781 171.898438 779.851562 172.574219 780.074219 172.800781 C 780.75 173.550781 819 141.074219 818.550781 140.023438 C 818.101562 138.824219 755.023438 118.125 751.648438 118.125 C 749.550781 118.050781 748.050781 118.875 744.824219 121.5 Z M 744.824219 121.5 "/>
<path style=" stroke:none;fill-rule:nonzero;fill:rgb(0%,0%,0%);fill-opacity:1;" d="M 705.675781 154.273438 L 703.875 156.375 L 705.976562 154.574219 C 707.101562 153.523438 708 152.625 708 152.476562 C 708 151.875 707.398438 152.398438 705.675781 154.273438 Z M 705.675781 154.273438 "/>
<path style=" stroke:none;fill-rule:nonzero;fill:rgb(0%,0%,0%);fill-opacity:1;" d="M 696.375 161.699219 C 683.324219 172.425781 679.5 175.648438 679.5 176.023438 C 679.5 176.398438 681.523438 175.050781 682.5 174 C 682.875 173.625 689.398438 168.300781 695.324219 163.5 C 699.75 159.976562 703.199219 156.824219 702.75 156.75 C 702.523438 156.75 699.601562 159 696.375 161.699219 Z M 696.375 161.699219 "/>
<path style=" stroke:none;fill-rule:nonzero;fill:rgb(0%,0%,0%);fill-opacity:1;" d="M 744.523438 163.574219 C 745.050781 164.101562 745.648438 164.324219 745.875 164.101562 C 746.101562 163.875 745.726562 163.425781 744.976562 163.199219 C 743.925781 162.75 743.851562 162.824219 744.523438 163.574219 Z M 744.523438 163.574219 "/>
<path style=" stroke:none;fill-rule:nonzero;fill:rgb(0%,0%,0%);fill-opacity:1;" d="M 351.601562 164.773438 C 352.125 165 352.800781 164.925781 353.023438 164.699219 C 353.324219 164.476562 352.875 164.25 352.050781 164.324219 C 351.226562 164.324219 351 164.550781 351.601562 164.773438 Z M 351.601562 164.773438 "/>
<path style=" stroke:none;fill-rule:nonzero;fill:rgb(0%,0%,0%);fill-opacity:1;" d="M 775.425781 176.175781 C 774.449219 177 773.851562 177.824219 774.074219 178.050781 C 774.300781 178.273438 775.273438 177.675781 776.25 176.625 C 778.351562 174.375 777.898438 174.148438 775.425781 176.175781 Z M 775.425781 176.175781 "/>
<path style=" stroke:none;fill-rule:nonzero;fill:rgb(0%,0%,0%);fill-opacity:1;" d="M 672.976562 180.75 C 669.976562 183.226562 667.5 185.476562 667.5 185.625 C 667.5 186.148438 676.800781 178.800781 678 177.375 C 679.648438 175.425781 678.523438 176.175781 672.976562 180.75 Z M 672.976562 180.75 "/>
<path style=" stroke:none;fill-rule:nonzero;fill:rgb(0%,0%,0%);fill-opacity:1;" d="M 769.125 181.5 C 767.925781 182.773438 767.925781 183 768.898438 182.625 C 769.574219 182.324219 770.324219 181.648438 770.550781 181.050781 C 771.074219 179.625 770.699219 179.699219 769.125 181.5 Z M 769.125 181.5 "/>
<path style=" stroke:none;fill-rule:nonzero;fill:rgb(0%,0%,0%);fill-opacity:1;" d="M 763.574219 186.074219 C 762.601562 186.898438 761.925781 187.726562 762.148438 187.875 C 762.300781 188.101562 763.273438 187.425781 764.25 186.375 C 766.351562 184.125 766.050781 183.976562 763.574219 186.074219 Z M 763.574219 186.074219 "/>
<path style=" stroke:none;fill-rule:nonzero;fill:rgb(0%,0%,0%);fill-opacity:1;" d="M 660 191.324219 C 652.273438 197.699219 647.25 202.125 648.75 201.148438 C 650.699219 199.949219 665.925781 187.425781 666.375 186.75 C 667.199219 185.398438 666.449219 185.925781 660 191.324219 Z M 660 191.324219 "/>
<path style=" stroke:none;fill-rule:nonzero;fill:rgb(0%,0%,0%);fill-opacity:1;" d="M 757.5 191.25 C 756.449219 192 755.851562 192.824219 756.074219 193.050781 C 756.300781 193.273438 757.273438 192.675781 758.25 191.625 C 760.351562 189.375 760.050781 189.226562 757.5 191.25 Z M 757.5 191.25 "/>
<path style=" stroke:none;fill-rule:nonzero;fill:rgb(0%,0%,0%);fill-opacity:1;" d="M 751.425781 196.5 C 750.449219 197.25 750 197.925781 750.449219 198 C 750.898438 198 751.875 197.324219 752.625 196.5 C 754.351562 194.550781 753.675781 194.550781 751.425781 196.5 Z M 751.425781 196.5 "/>
<path style=" stroke:none;fill-rule:nonzero;fill:rgb(0%,0%,0%);fill-opacity:1;" d="M 657.375 197.25 C 657.601562 197.625 657.976562 198 658.199219 198 C 658.351562 198 658.5 197.625 658.5 197.25 C 658.5 196.800781 658.125 196.5 657.675781 196.5 C 657.300781 196.5 657.148438 196.800781 657.375 197.25 Z M 657.375 197.25 "/>
<path style=" stroke:none;fill-rule:nonzero;fill:rgb(0%,0%,0%);fill-opacity:1;" d="M 745.050781 201.898438 L 743.625 203.625 L 745.351562 202.199219 C 746.925781 200.851562 747.375 200.25 746.773438 200.25 C 746.625 200.25 745.875 201 745.050781 201.898438 Z M 745.050781 201.898438 "/>
<path style=" stroke:none;fill-rule:nonzero;fill:rgb(0%,0%,0%);fill-opacity:1;" d="M 641.398438 206.324219 C 638.476562 208.800781 636 210.976562 636 211.199219 C 636 211.726562 637.5 210.675781 641.25 207.375 C 642.675781 206.101562 644.699219 204.523438 645.675781 203.851562 C 646.726562 203.101562 647.398438 202.351562 647.175781 202.199219 C 647.023438 201.976562 644.398438 203.851562 641.398438 206.324219 Z M 641.398438 206.324219 "/>
<path style=" stroke:none;fill-rule:nonzero;fill:rgb(0%,0%,0%);fill-opacity:1;" d="M 739.574219 206.324219 C 738.601562 207.148438 737.925781 207.976562 738.148438 208.125 C 738.300781 208.351562 739.273438 207.675781 740.25 206.625 C 742.351562 204.375 742.050781 204.226562 739.574219 206.324219 Z M 739.574219 206.324219 "/>
<path style=" stroke:none;fill-rule:nonzero;fill:rgb(0%,0%,0%);fill-opacity:1;" d="M 310.050781 216.75 C 310.050781 221.101562 310.125 222.824219 310.273438 220.648438 C 310.425781 218.550781 310.425781 214.949219 310.273438 212.773438 C 310.125 210.675781 310.050781 212.398438 310.050781 216.75 Z M 310.050781 216.75 "/>
<path style=" stroke:none;fill-rule:nonzero;fill:rgb(0%,0%,0%);fill-opacity:1;" d="M 733.425781 211.425781 C 732.449219 212.25 731.851562 213.074219 732.074219 213.300781 C 732.300781 213.523438 733.273438 212.925781 734.25 211.875 C 736.351562 209.625 735.898438 209.398438 733.425781 211.425781 Z M 733.425781 211.425781 "/>
<path style=" stroke:none;fill-rule:nonzero;fill:rgb(0%,0%,0%);fill-opacity:1;" d="M 631.050781 214.726562 C 628.949219 216.449219 618.824219 224.625 608.625 232.800781 C 598.425781 241.050781 589.050781 248.773438 587.699219 250.050781 C 586.425781 251.324219 584.398438 252.898438 583.199219 253.5 C 582.074219 254.101562 580.800781 255.300781 580.425781 256.125 C 580.125 256.949219 579.824219 257.175781 579.824219 256.574219 C 579.75 256.050781 579.300781 255.75 578.773438 255.976562 C 577.199219 256.574219 545.699219 282.074219 544.949219 283.273438 C 544.574219 283.949219 543.675781 295.726562 543 309.449219 C 542.25 323.175781 541.425781 334.800781 541.125 335.25 C 540.898438 335.625 540.976562 336 541.425781 336 C 543.226562 336 543.449219 333.898438 544.574219 307.5 C 545.023438 295.726562 545.699219 285.898438 545.925781 285.601562 C 546.226562 285.226562 546.375 286.125 546.226562 287.476562 C 546.148438 288.75 545.699219 300.300781 545.175781 313.050781 C 544.5 330.824219 544.050781 336.523438 543.300781 337.351562 C 542.550781 338.023438 542.25 340.351562 542.25 345.074219 C 542.25 348.75 542.023438 351.75 541.800781 351.75 C 541.574219 351.75 537.601562 350.25 533.023438 348.449219 C 528.375 346.648438 514.5 341.175781 502.125 336.375 C 489.75 331.5 450.449219 315.898438 414.75 301.648438 C 313.5 261.300781 261 240.75 259.351562 240.75 C 258.824219 240.75 258.75 242.925781 259.125 247.273438 C 259.574219 253.199219 260.25 255.449219 265.648438 268.875 C 269.023438 277.125 274.648438 291.148438 278.25 300 L 284.699219 316.125 L 290.699219 318.601562 C 293.925781 320.023438 304.425781 324.300781 313.875 328.125 C 323.398438 331.949219 341.773438 339.375 354.75 344.625 C 377.625 353.851562 435.148438 377.324219 482.25 396.601562 C 494.851562 401.773438 507.824219 407.023438 511.125 408.375 C 515.175781 410.101562 517.125 411.226562 517.050781 412.050781 C 517.050781 412.726562 516.976562 415.199219 516.898438 417.601562 L 516.75 422.023438 L 509.851562 425.851562 C 491.773438 435.824219 470.773438 439.273438 433.050781 438.523438 C 403.273438 437.925781 398.699219 436.425781 369.300781 417.675781 C 361.050781 412.425781 348.449219 405 341.25 401.25 C 334.125 397.425781 326.175781 393.074219 323.699219 391.574219 C 307.425781 381.523438 301.425781 378 297.976562 376.273438 C 294.300781 374.398438 283.125 369.75 282.375 369.75 C 282 369.75 282.226562 371.324219 283.574219 376.648438 C 284.175781 379.050781 284.851562 379.648438 288.601562 381.375 C 293.398438 383.550781 298.949219 386.699219 313.125 395.476562 C 318.523438 398.773438 329.625 405 337.875 409.273438 C 346.273438 413.699219 358.5 420.824219 365.625 425.625 C 391.050781 442.648438 400.574219 446.175781 425.25 447.75 C 436.5 448.5 462.824219 447.675781 474.375 446.175781 C 488.101562 444.449219 504.226562 439.273438 515.925781 432.824219 C 519 431.101562 521.773438 429.75 522.074219 429.75 C 522.449219 429.75 524.925781 430.648438 527.625 431.699219 C 531.601562 433.273438 532.726562 433.5 533.625 432.75 C 534.226562 432.226562 534.75 431.25 534.75 430.574219 C 534.75 429.898438 536.851562 427.726562 539.324219 425.699219 L 543.898438 422.101562 L 549.601562 424.5 C 552.824219 425.851562 556.050781 426.976562 556.875 427.125 C 558.523438 427.273438 608.175781 447.148438 611.324219 448.875 C 615.148438 450.976562 641.324219 461.25 642.824219 461.25 C 645 461.25 650.699219 456.074219 653.625 451.351562 C 655.574219 448.351562 656.550781 447.449219 658.050781 447.375 C 659.476562 447.375 666.074219 441.898438 684.601562 425.175781 C 708.523438 403.574219 709.273438 402.824219 713.398438 395.925781 C 719.773438 385.273438 719.925781 385.125 723.226562 386.175781 C 725.398438 386.925781 726.226562 386.925781 727.351562 386.101562 C 728.699219 385.199219 742.726562 372.375 748.351562 366.898438 C 749.773438 365.625 751.199219 364.5 751.5 364.5 C 751.875 364.5 752.699219 363.75 753.300781 362.925781 C 753.898438 362.023438 755.25 360.75 756.300781 360.074219 C 758.699219 358.5 779.925781 339.300781 785.25 333.824219 C 787.5 331.5 791.398438 327.898438 793.800781 325.875 C 796.273438 323.773438 807.601562 313.726562 818.925781 303.449219 L 839.625 284.851562 L 849.226562 269.324219 C 859.875 252.300781 860.324219 251.550781 858.074219 254.25 C 857.25 255.300781 853.5 261.074219 849.675781 267.226562 C 845.851562 273.300781 842.023438 278.851562 841.273438 279.601562 C 840.148438 280.574219 840.226562 280.125 841.726562 277.875 C 846 271.273438 849.824219 264.375 850.199219 262.574219 C 850.648438 260.699219 850.574219 260.773438 848.324219 263.25 C 845.324219 266.699219 838.5 276.898438 835.875 281.773438 C 834 285.375 832.5 287.175781 833.476562 284.773438 C 833.699219 284.175781 833.476562 283.726562 832.949219 283.726562 C 832.351562 283.726562 832.050781 284.625 832.125 285.898438 C 832.199219 287.398438 832.050781 287.851562 831.449219 287.25 C 830.175781 285.976562 829.273438 286.425781 830.324219 287.773438 C 831.300781 288.976562 831.226562 289.050781 830.101562 288.074219 C 829.050781 287.25 828.75 287.25 828.75 288 C 828.75 288.601562 828.601562 288.824219 828.375 288.601562 C 828 288.226562 837.75 271.351562 840.898438 266.773438 C 841.726562 265.574219 842.25 264.523438 842.023438 264.300781 C 841.726562 264 832.5 272.101562 821.25 282.523438 C 819.824219 283.875 818.398438 285 818.101562 285 C 817.726562 285 817.5 285.824219 817.5 286.800781 C 817.5 288.675781 814.5 293.625 813.375 293.625 C 812.925781 293.625 812.550781 292.574219 812.398438 291.300781 C 812.25 289.648438 812.550781 288.824219 813.449219 288.449219 C 814.5 288.074219 814.574219 288.148438 813.75 289.125 C 812.625 290.476562 813.375 291.675781 814.574219 290.476562 C 815.25 289.800781 815.699219 288.523438 815.925781 286.425781 C 816 285.824219 856.5 249.449219 862.050781 245.023438 C 864.523438 243.074219 867 240.75 867.601562 239.925781 C 868.574219 238.5 871.050781 225.523438 870.601562 224.25 C 870.449219 223.875 864.824219 228.523438 858 234.523438 C 829.949219 259.273438 804.75 281.699219 756.449219 324.75 C 684.226562 389.023438 671.175781 400.5 669.375 400.949219 C 668.398438 401.175781 657.300781 397.273438 639.824219 390.449219 C 624.449219 384.449219 611.773438 379.5 611.699219 379.351562 C 611.476562 379.050781 614.625 332.324219 615.675781 320.699219 C 616.273438 314.023438 616.800781 311.398438 617.773438 310.273438 C 618.523438 309.449219 627.226562 302.023438 637.125 293.773438 C 647.023438 285.523438 656.324219 277.574219 657.75 276.148438 L 660.375 273.523438 L 658.125 274.875 L 655.800781 276.148438 L 637.125 269.25 C 626.773438 265.425781 612 259.800781 604.273438 256.800781 C 596.550781 253.726562 589.875 251.25 589.5 251.25 C 587.625 251.25 589.351562 249.300781 595.949219 243.976562 C 599.925781 240.75 604.273438 237.300781 605.625 236.25 C 612.675781 230.851562 633.601562 213.75 634.425781 212.699219 C 636 210.824219 635.175781 211.273438 631.050781 214.726562 Z M 277.125 249.601562 C 276.898438 249.824219 276.300781 249.601562 275.773438 249.074219 C 275.101562 248.324219 275.175781 248.25 276.226562 248.699219 C 276.976562 248.925781 277.351562 249.375 277.125 249.601562 Z M 282.375 251.25 C 285.226562 253.125 284.625 253.125 280.875 251.25 C 279.226562 250.425781 278.398438 249.75 279 249.75 C 279.601562 249.75 281.175781 250.425781 282.375 251.25 Z M 290.625 254.25 C 290.851562 254.699219 290.550781 254.773438 289.949219 254.550781 C 288.601562 254.023438 288.375 253.5 289.425781 253.5 C 289.875 253.5 290.398438 253.800781 290.625 254.25 Z M 294 255.75 C 294.601562 256.125 294.824219 256.5 294.375 256.5 C 294 256.5 293.101562 256.125 292.5 255.75 C 291.898438 255.375 291.75 255 292.125 255 C 292.574219 255 293.398438 255.375 294 255.75 Z M 568.5 267.375 C 567.976562 267.976562 567.148438 268.5 566.699219 268.5 C 566.25 268.5 566.550781 267.976562 567.300781 267.375 C 569.175781 265.949219 569.699219 265.949219 568.5 267.375 Z M 821.25 269.476562 C 821.25 269.625 820.5 270.375 819.601562 271.199219 L 817.875 272.625 L 819.300781 270.898438 C 820.648438 269.324219 821.25 268.875 821.25 269.476562 Z M 808.5 280.726562 C 808.5 280.875 807.75 281.625 806.851562 282.449219 L 805.125 283.875 L 806.550781 282.148438 C 807.898438 280.574219 808.5 280.125 808.5 280.726562 Z M 839.550781 282.375 C 839.25 282.976562 838.726562 283.5 838.351562 283.5 C 837.898438 283.5 837.976562 283.050781 838.5 282.375 C 839.023438 281.773438 839.550781 281.25 839.699219 281.25 C 839.851562 281.25 839.773438 281.773438 839.550781 282.375 Z M 801.75 286.800781 C 801.75 286.949219 801.148438 287.550781 800.476562 288.074219 C 799.273438 289.050781 799.199219 288.976562 800.175781 287.773438 C 801.148438 286.574219 801.75 286.199219 801.75 286.800781 Z M 807.898438 294.300781 C 805.949219 296.175781 804.226562 297.523438 804.074219 297.300781 C 803.699219 297 810.074219 291.074219 810.898438 291 C 811.199219 291 809.851562 292.5 807.898438 294.300781 Z M 319.273438 294.148438 C 319.050781 294.75 318.824219 294.523438 318.824219 293.699219 C 318.75 292.875 318.976562 292.425781 319.199219 292.726562 C 319.425781 292.949219 319.5 293.625 319.273438 294.148438 Z M 800.550781 300.824219 C 799.800781 301.648438 798.449219 302.699219 797.625 303.148438 C 796.800781 303.601562 797.324219 302.851562 798.75 301.648438 C 801.824219 298.949219 802.574219 298.574219 800.550781 300.824219 Z M 792.375 308.398438 C 788.773438 312.449219 787.648438 313.574219 789 311.625 C 790.351562 309.75 794.476562 305.25 794.851562 305.25 C 795 305.25 793.875 306.675781 792.375 308.398438 Z M 471.523438 326.699219 C 471.300781 326.925781 470.625 327 470.101562 326.773438 C 469.5 326.550781 469.726562 326.324219 470.550781 326.324219 C 471.375 326.25 471.824219 326.476562 471.523438 326.699219 Z M 541.5 356.773438 C 541.199219 359.925781 541.125 360.074219 540.898438 357.898438 C 540.675781 355.648438 541.050781 353.25 541.648438 353.25 C 541.800781 353.25 541.726562 354.824219 541.5 356.773438 Z M 541.273438 362.398438 C 541.050781 363 540.824219 362.773438 540.824219 361.949219 C 540.75 361.125 540.976562 360.675781 541.199219 360.976562 C 541.425781 361.199219 541.5 361.875 541.273438 362.398438 Z M 541.199219 374.851562 C 539.925781 376.050781 539.851562 376.050781 540.824219 374.476562 C 541.351562 373.574219 541.949219 372.976562 542.175781 373.199219 C 542.398438 373.351562 541.949219 374.101562 541.199219 374.851562 Z M 612.523438 387.898438 C 612.375 389.25 612.226562 388.199219 612.226562 385.5 C 612.226562 382.800781 612.375 381.75 612.523438 383.023438 C 612.675781 384.375 612.675781 386.625 612.523438 387.898438 Z M 543.824219 391.199219 C 542.625 393.675781 541.574219 395.398438 541.5 395.101562 C 541.5 394.273438 545.476562 386.25 545.851562 386.550781 C 546 386.699219 545.101562 388.800781 543.824219 391.199219 Z M 556.5 389.25 C 557.398438 389.851562 557.398438 390.074219 556.425781 391.273438 C 552.675781 395.625 546.898438 402.675781 545.550781 404.550781 C 544.648438 405.824219 543.75 406.425781 543.523438 405.976562 C 543.226562 405.523438 544.648438 402.976562 546.601562 400.273438 C 548.550781 397.648438 551.023438 393.898438 552.148438 391.949219 C 554.324219 388.351562 554.699219 388.125 556.5 389.25 Z M 530.773438 393.898438 C 530.550781 394.5 530.324219 394.273438 530.324219 393.449219 C 530.25 392.625 530.476562 392.175781 530.699219 392.476562 C 530.925781 392.699219 531 393.375 530.773438 393.898438 Z M 540.976562 397.125 C 540.75 397.800781 540.375 398.175781 540.226562 397.949219 C 540 397.726562 540.074219 397.273438 540.375 396.824219 C 541.050781 395.625 541.5 395.851562 540.976562 397.125 Z M 529.5 400.273438 C 528.675781 401.550781 528.675781 401.550781 529.050781 400.273438 C 529.273438 399.523438 529.574219 398.324219 529.574219 397.648438 C 529.648438 396.523438 529.726562 396.523438 530.023438 397.648438 C 530.175781 398.398438 529.949219 399.523438 529.5 400.273438 Z M 611.773438 420.523438 C 611.699219 423.75 611.550781 421.273438 611.550781 415.125 C 611.550781 408.898438 611.699219 406.273438 611.773438 409.273438 C 611.925781 412.273438 611.925781 417.300781 611.773438 420.523438 Z M 611.023438 441.148438 C 610.875 442.949219 610.726562 441.675781 610.726562 438.375 C 610.726562 435.074219 610.875 433.648438 611.023438 435.148438 C 611.175781 436.726562 611.175781 439.425781 611.023438 441.148438 Z M 499.875 434.175781 C 498.375 435.523438 488.398438 438.601562 484.125 439.050781 C 479.773438 439.425781 479.773438 439.425781 486.375 437.699219 C 490.125 436.726562 494.324219 435.375 495.75 434.773438 C 498.75 433.5 500.925781 433.125 499.875 434.175781 Z M 470.476562 440.773438 C 469.949219 440.925781 469.050781 440.925781 468.601562 440.773438 C 468.074219 440.550781 468.449219 440.398438 469.5 440.398438 C 470.550781 440.398438 470.925781 440.550781 470.476562 440.773438 Z M 470.476562 440.773438 "/>
<path style=" stroke:none;fill-rule:nonzero;fill:rgb(0%,0%,0%);fill-opacity:1;" d="M 726.675781 217.199219 C 724.949219 219.074219 724.949219 219.148438 726.523438 218.324219 C 728.25 217.425781 729.375 216.148438 728.851562 215.550781 C 728.625 215.398438 727.726562 216.148438 726.675781 217.199219 Z M 726.675781 217.199219 "/>
<path style=" stroke:none;fill-rule:nonzero;fill:rgb(0%,0%,0%);fill-opacity:1;" d="M 318.898438 220.273438 C 319.050781 223.574219 319.425781 224.699219 320.324219 224.851562 C 321.375 225.074219 321.523438 224.625 321.226562 222.449219 C 321.074219 220.949219 321.074219 219.75 321.300781 219.75 C 321.523438 219.75 322.574219 221.398438 323.550781 223.425781 C 324.601562 225.449219 325.949219 227.25 326.625 227.476562 C 327.523438 227.851562 327.75 227.25 327.75 223.574219 C 327.75 220.273438 327.449219 219.074219 326.550781 218.699219 C 324.675781 217.949219 324.523438 218.101562 325.050781 220.875 C 325.726562 224.25 324.601562 224.25 323.324219 220.875 C 322.351562 218.101562 320.625 216 319.425781 216 C 318.976562 216 318.75 217.875 318.898438 220.273438 Z M 318.898438 220.273438 "/>
<path style=" stroke:none;fill-rule:nonzero;fill:rgb(0%,0%,0%);fill-opacity:1;" d="M 329.398438 220.648438 C 329.773438 221.773438 331.5 222.375 331.5 221.398438 C 331.5 221.023438 330.976562 220.425781 330.300781 220.199219 C 329.550781 219.898438 329.25 220.125 329.398438 220.648438 Z M 329.398438 220.648438 "/>
<path style=" stroke:none;fill-rule:nonzero;fill:rgb(0%,0%,0%);fill-opacity:1;" d="M 720.675781 222.523438 L 718.875 224.625 L 720.976562 222.824219 C 722.101562 221.773438 723 220.875 723 220.726562 C 723 220.125 722.398438 220.648438 720.675781 222.523438 Z M 720.675781 222.523438 "/>
<path style=" stroke:none;fill-rule:nonzero;fill:rgb(0%,0%,0%);fill-opacity:1;" d="M 625.875 222.75 C 626.101562 223.125 626.476562 223.5 626.699219 223.5 C 626.851562 223.5 627 223.125 627 222.75 C 627 222.300781 626.625 222 626.175781 222 C 625.800781 222 625.648438 222.300781 625.875 222.75 Z M 625.875 222.75 "/>
<path style=" stroke:none;fill-rule:nonzero;fill:rgb(0%,0%,0%);fill-opacity:1;" d="M 329.25 225.675781 C 329.25 227.550781 329.625 228.75 330.375 229.050781 C 331.273438 229.351562 331.5 228.824219 331.5 226.574219 C 331.5 224.699219 331.125 223.5 330.375 223.199219 C 329.476562 222.898438 329.25 223.425781 329.25 225.675781 Z M 329.25 225.675781 "/>
<path style=" stroke:none;fill-rule:nonzero;fill:rgb(0%,0%,0%);fill-opacity:1;" d="M 333 227.25 C 333 228.898438 333.375 230.25 333.75 230.25 C 334.199219 230.25 334.726562 230.25 335.101562 230.25 C 335.398438 230.175781 335.550781 229.351562 335.398438 228.300781 C 335.175781 226.800781 335.398438 226.425781 336.523438 226.648438 C 337.5 226.800781 337.949219 227.699219 338.101562 229.726562 C 338.25 231.523438 338.699219 232.5 339.449219 232.5 C 340.648438 232.5 340.875 229.050781 339.824219 227.324219 C 339.300781 226.574219 334.574219 224.324219 333.226562 224.25 C 333.074219 224.25 333 225.601562 333 227.25 Z M 333 227.25 "/>
<path style=" stroke:none;fill-rule:nonzero;fill:rgb(0%,0%,0%);fill-opacity:1;" d="M 714.675781 227.175781 C 713.699219 228 713.101562 228.824219 713.324219 229.050781 C 713.550781 229.273438 714.523438 228.675781 715.5 227.625 C 717.601562 225.375 717.148438 225.148438 714.675781 227.175781 Z M 714.675781 227.175781 "/>
<path style=" stroke:none;fill-rule:nonzero;fill:rgb(0%,0%,0%);fill-opacity:1;" d="M 341.023438 227.101562 C 341.476562 227.398438 342 228.976562 342.148438 230.625 C 342.300781 232.648438 342.75 233.699219 343.574219 233.851562 C 344.550781 234 344.925781 233.324219 345.148438 231 C 345.449219 227.550781 344.773438 226.5 342.074219 226.5 C 340.875 226.5 340.5 226.726562 341.023438 227.101562 Z M 341.023438 227.101562 "/>
<path style=" stroke:none;fill-rule:nonzero;fill:rgb(0%,0%,0%);fill-opacity:1;" d="M 318.75 230.175781 C 318.75 231.449219 321.226562 234 322.5 234 C 322.726562 234 322.949219 233.023438 322.949219 231.824219 C 323.023438 230.175781 322.648438 229.5 321.449219 229.199219 C 319.050781 228.523438 318.75 228.675781 318.75 230.175781 Z M 322.273438 232.199219 C 322.050781 232.425781 321.375 232.5 320.851562 232.273438 C 320.25 232.050781 320.476562 231.824219 321.300781 231.824219 C 322.125 231.75 322.574219 231.976562 322.273438 232.199219 Z M 322.273438 232.199219 "/>
<path style=" stroke:none;fill-rule:nonzero;fill:rgb(0%,0%,0%);fill-opacity:1;" d="M 324.824219 232.648438 C 324.898438 234 325.050781 234.523438 325.273438 233.773438 C 325.800781 231.75 328.5 232.125 328.5 234.300781 C 328.5 235.351562 328.875 236.398438 329.324219 236.625 C 329.851562 237 330 236.398438 329.851562 235.050781 C 329.699219 233.625 328.875 232.5 327.226562 231.523438 L 324.75 230.101562 Z M 324.824219 232.648438 "/>
<path style=" stroke:none;fill-rule:nonzero;fill:rgb(0%,0%,0%);fill-opacity:1;" d="M 346.050781 231.375 C 345.75 231.976562 346.199219 233.398438 346.949219 234.601562 C 348.300781 236.550781 348.375 236.550781 348.601562 234.976562 C 348.824219 233.550781 349.125 233.398438 350.699219 234 C 351.75 234.449219 352.726562 234.75 352.949219 234.75 C 353.699219 234.75 353.101562 233.398438 351.75 231.898438 C 349.949219 230.023438 346.648438 229.726562 346.050781 231.375 Z M 350.25 231.75 C 350.25 232.125 349.949219 232.5 349.5 232.5 C 349.125 232.5 348.75 232.125 348.75 231.75 C 348.75 231.300781 349.125 231 349.5 231 C 349.949219 231 350.25 231.300781 350.25 231.75 Z M 350.25 231.75 "/>
<path style=" stroke:none;fill-rule:nonzero;fill:rgb(0%,0%,0%);fill-opacity:1;" d="M 310.648438 233.25 C 310.648438 234.675781 310.800781 235.273438 311.023438 234.523438 C 311.175781 233.851562 311.175781 232.648438 311.023438 231.898438 C 310.800781 231.226562 310.648438 231.824219 310.648438 233.25 Z M 310.648438 233.25 "/>
<path style=" stroke:none;fill-rule:nonzero;fill:rgb(0%,0%,0%);fill-opacity:1;" d="M 708.675781 232.5 C 707.699219 233.25 707.25 233.925781 707.699219 234 C 708.148438 234 709.125 233.324219 709.875 232.5 C 711.601562 230.550781 710.925781 230.550781 708.675781 232.5 Z M 708.675781 232.5 "/>
<path style=" stroke:none;fill-rule:nonzero;fill:rgb(0%,0%,0%);fill-opacity:1;" d="M 354.675781 235.574219 C 355.199219 239.398438 357 240.523438 357 237 C 357 233.773438 358.726562 234.449219 359.25 237.824219 C 359.476562 239.324219 360.074219 240.449219 360.824219 240.601562 C 361.726562 240.75 361.949219 240.300781 361.648438 238.351562 C 361.199219 235.351562 360.449219 234.300781 358.273438 233.773438 C 357.375 233.625 356.101562 233.25 355.425781 232.949219 C 354.449219 232.5 354.300781 232.949219 354.675781 235.574219 Z M 354.675781 235.574219 "/>
<path style=" stroke:none;fill-rule:nonzero;fill:rgb(0%,0%,0%);fill-opacity:1;" d="M 331.351562 233.773438 C 331.800781 233.925781 332.25 234.898438 332.25 235.875 C 332.25 236.851562 332.625 237.898438 333 238.125 C 333.449219 238.351562 333.75 237.898438 333.75 237.074219 C 333.75 236.175781 334.199219 235.5 334.726562 235.5 C 335.25 235.5 335.023438 234.976562 334.199219 234.375 C 333.375 233.773438 332.175781 233.25 331.574219 233.324219 C 330.75 233.324219 330.675781 233.476562 331.351562 233.773438 Z M 331.351562 233.773438 "/>
<path style=" stroke:none;fill-rule:nonzero;fill:rgb(0%,0%,0%);fill-opacity:1;" d="M 367.5 236.25 C 367.5 237.601562 367.273438 237.675781 366 237 C 364.050781 235.949219 363 236.625 363 238.800781 C 363 240.675781 364.5 242.25 367.726562 243.601562 L 369.824219 244.5 L 369.601562 239.851562 C 369.449219 237 369 235.125 368.476562 234.898438 C 367.875 234.75 367.5 235.273438 367.5 236.25 Z M 367.351562 240.300781 C 367.574219 241.800781 367.351562 242.324219 366.601562 242.101562 C 366.074219 241.875 365.550781 240.824219 365.398438 239.699219 C 365.175781 238.199219 365.398438 237.675781 366.148438 237.898438 C 366.675781 238.125 367.199219 239.175781 367.351562 240.300781 Z M 367.351562 240.300781 "/>
<path style=" stroke:none;fill-rule:nonzero;fill:rgb(0%,0%,0%);fill-opacity:1;" d="M 336 236.773438 C 336 238.648438 336.824219 239.699219 338.625 240.300781 C 339.898438 240.675781 340.125 240.375 340.199219 238.574219 C 340.273438 236.925781 339.898438 236.25 338.699219 235.949219 C 336.300781 235.273438 336 235.425781 336 236.773438 Z M 339.75 237.449219 C 339.75 237.601562 339.226562 237.75 338.625 237.75 C 338.023438 237.75 337.5 237.449219 337.5 237 C 337.5 236.625 338.023438 236.476562 338.625 236.699219 C 339.226562 237 339.75 237.300781 339.75 237.449219 Z M 339.523438 238.949219 C 339.300781 239.175781 338.625 239.25 338.101562 239.023438 C 337.5 238.800781 337.726562 238.574219 338.550781 238.574219 C 339.375 238.5 339.824219 238.726562 339.523438 238.949219 Z M 339.523438 238.949219 "/>
<path style=" stroke:none;fill-rule:nonzero;fill:rgb(0%,0%,0%);fill-opacity:1;" d="M 349.875 236.25 C 349.648438 236.625 350.101562 237 350.925781 237 C 351.824219 237 352.5 236.625 352.5 236.25 C 352.5 235.800781 352.050781 235.5 351.449219 235.5 C 350.851562 235.5 350.101562 235.800781 349.875 236.25 Z M 349.875 236.25 "/>
<path style=" stroke:none;fill-rule:nonzero;fill:rgb(0%,0%,0%);fill-opacity:1;" d="M 701.925781 238.273438 L 700.125 240.375 L 702.226562 238.574219 C 703.351562 237.523438 704.25 236.625 704.25 236.476562 C 704.25 235.875 703.648438 236.398438 701.925781 238.273438 Z M 701.925781 238.273438 "/>
<path style=" stroke:none;fill-rule:nonzero;fill:rgb(0%,0%,0%);fill-opacity:1;" d="M 341.25 239.324219 C 341.25 240.976562 341.550781 241.574219 342.300781 241.273438 C 342.824219 241.050781 344.023438 241.351562 344.925781 241.949219 C 346.425781 243 346.5 243 346.5 241.199219 C 346.5 239.851562 345.824219 238.949219 344.25 238.125 C 341.324219 236.625 341.25 236.625 341.25 239.324219 Z M 345 240.074219 C 345 240.375 344.476562 240.523438 343.875 240.300781 C 343.273438 240 342.75 239.550781 342.75 239.175781 C 342.75 238.875 343.273438 238.726562 343.875 238.949219 C 344.476562 239.25 345 239.699219 345 240.074219 Z M 345 240.074219 "/>
<path style=" stroke:none;fill-rule:nonzero;fill:rgb(0%,0%,0%);fill-opacity:1;" d="M 348.148438 240.523438 C 348.824219 241.273438 349.5 242.550781 349.726562 243.375 C 350.023438 244.726562 350.101562 244.648438 350.175781 243.148438 C 350.175781 242.175781 350.625 241.648438 351 241.875 C 351.449219 242.101562 351.75 242.023438 351.75 241.648438 C 351.75 241.199219 350.699219 240.523438 349.351562 240.074219 C 347.175781 239.324219 347.101562 239.324219 348.148438 240.523438 Z M 348.148438 240.523438 "/>
<path style=" stroke:none;fill-rule:nonzero;fill:rgb(0%,0%,0%);fill-opacity:1;" d="M 378 240.148438 C 378 240.824219 378.375 241.648438 378.824219 241.875 C 380.101562 242.699219 380.324219 241.875 379.125 240.300781 C 378.148438 239.023438 378.074219 239.023438 378 240.148438 Z M 378 240.148438 "/>
<path style=" stroke:none;fill-rule:nonzero;fill:rgb(0%,0%,0%);fill-opacity:1;" d="M 371.25 241.726562 C 371.25 244.125 374.398438 246.976562 376.574219 246.601562 C 378.898438 246.300781 379.199219 244.5 377.25 242.023438 C 375.074219 239.324219 371.25 239.175781 371.25 241.726562 Z M 375.75 243.449219 C 375.75 246.824219 373.949219 246.601562 373.648438 243.148438 C 373.5 241.351562 373.726562 240.75 374.550781 240.75 C 375.449219 240.75 375.75 241.5 375.75 243.449219 Z M 375.75 243.449219 "/>
<path style=" stroke:none;fill-rule:nonzero;fill:rgb(0%,0%,0%);fill-opacity:1;" d="M 310.648438 243 C 310.648438 244.050781 310.800781 244.425781 311.023438 243.898438 C 311.175781 243.449219 311.175781 242.550781 311.023438 242.023438 C 310.800781 241.574219 310.648438 241.949219 310.648438 243 Z M 310.648438 243 "/>
<path style=" stroke:none;fill-rule:nonzero;fill:rgb(0%,0%,0%);fill-opacity:1;" d="M 352.949219 242.023438 C 352.726562 242.324219 352.5 243.300781 352.5 244.351562 C 352.5 245.550781 352.800781 246 353.550781 245.773438 C 354.074219 245.550781 355.273438 245.851562 356.175781 246.449219 C 357.675781 247.5 357.75 247.5 357.75 245.699219 C 357.75 244.351562 357.074219 243.449219 355.574219 242.699219 C 354.375 242.023438 353.25 241.800781 352.949219 242.023438 Z M 356.25 244.125 C 357.300781 245.324219 357 245.476562 355.199219 244.800781 C 354.523438 244.574219 354 244.050781 354 243.675781 C 354 242.625 355.199219 242.851562 356.25 244.125 Z M 356.25 244.125 "/>
<path style=" stroke:none;fill-rule:nonzero;fill:rgb(0%,0%,0%);fill-opacity:1;" d="M 695.925781 242.925781 C 694.949219 243.75 694.351562 244.574219 694.574219 244.800781 C 694.800781 245.023438 695.773438 244.425781 696.75 243.375 C 698.851562 241.125 698.398438 240.898438 695.925781 242.925781 Z M 695.925781 242.925781 "/>
<path style=" stroke:none;fill-rule:nonzero;fill:rgb(0%,0%,0%);fill-opacity:1;" d="M 864 244.5 C 863.550781 245.324219 863.398438 246 863.550781 246 C 863.773438 246 864.300781 245.324219 864.75 244.5 C 865.199219 243.675781 865.351562 243 865.199219 243 C 864.976562 243 864.449219 243.675781 864 244.5 Z M 864 244.5 "/>
<path style=" stroke:none;fill-rule:nonzero;fill:rgb(0%,0%,0%);fill-opacity:1;" d="M 358.5 245.550781 C 358.5 246.601562 358.875 247.648438 359.25 247.875 C 359.699219 248.175781 360 247.351562 360 246.074219 C 360 244.800781 359.699219 243.75 359.25 243.75 C 358.875 243.75 358.5 244.574219 358.5 245.550781 Z M 358.5 245.550781 "/>
<path style=" stroke:none;fill-rule:nonzero;fill:rgb(0%,0%,0%);fill-opacity:1;" d="M 360.898438 247.125 C 360.824219 248.175781 361.125 249 361.5 249 C 361.949219 249 362.25 248.324219 362.25 247.5 C 362.25 246.148438 362.476562 246.074219 363.75 246.75 C 364.574219 247.199219 365.25 248.175781 365.25 249 C 365.25 249.75 365.625 250.648438 366 250.875 C 367.574219 251.851562 366.675781 247.574219 365.101562 246.449219 C 362.625 244.726562 361.125 244.949219 360.898438 247.125 Z M 360.898438 247.125 "/>
<path style=" stroke:none;fill-rule:nonzero;fill:rgb(0%,0%,0%);fill-opacity:1;" d="M 689.925781 248.175781 C 688.949219 249 688.351562 249.824219 688.574219 250.050781 C 688.800781 250.273438 689.773438 249.675781 690.75 248.625 C 692.851562 246.375 692.398438 246.148438 689.925781 248.175781 Z M 689.925781 248.175781 "/>
<path style=" stroke:none;fill-rule:nonzero;fill:rgb(0%,0%,0%);fill-opacity:1;" d="M 862.050781 247.648438 C 861.75 248.175781 861 249.449219 860.398438 250.5 C 859.351562 252.300781 859.425781 252.300781 860.625 250.875 C 862.125 249.074219 863.398438 246.75 862.949219 246.75 C 862.726562 246.75 862.351562 247.199219 862.050781 247.648438 Z M 862.050781 247.648438 "/>
<path style=" stroke:none;fill-rule:nonzero;fill:rgb(0%,0%,0%);fill-opacity:1;" d="M 367.5 249.675781 C 367.5 250.949219 367.875 252 368.324219 252 C 368.773438 252 369 251.324219 368.773438 250.5 C 368.550781 249.523438 368.773438 249 369.449219 249 C 370.050781 249 370.5 249.75 370.5 250.875 C 370.5 251.925781 370.875 252.75 371.25 252.75 C 371.699219 252.75 372 252.074219 372 251.175781 C 372 250.351562 372.375 249.898438 372.75 250.125 C 373.199219 250.351562 373.5 251.398438 373.5 252.449219 C 373.5 253.425781 373.875 254.25 374.324219 254.25 C 375.898438 254.25 374.625 250.125 372.75 249.300781 C 368.175781 247.199219 367.5 247.199219 367.5 249.675781 Z M 367.5 249.675781 "/>
<path style=" stroke:none;fill-rule:nonzero;fill:rgb(0%,0%,0%);fill-opacity:1;" d="M 324.75 250.5 C 325.351562 250.875 326.25 251.25 326.625 251.25 C 327.074219 251.25 326.851562 250.875 326.25 250.5 C 325.648438 250.125 324.824219 249.75 324.375 249.75 C 324 249.75 324.148438 250.125 324.75 250.5 Z M 324.75 250.5 "/>
<path style=" stroke:none;fill-rule:nonzero;fill:rgb(0%,0%,0%);fill-opacity:1;" d="M 375.75 252.300781 C 375.75 253.273438 376.199219 254.398438 376.726562 254.773438 C 378.148438 255.898438 380.25 256.5 380.25 255.824219 C 380.25 255.449219 379.648438 255 378.898438 254.851562 C 378.148438 254.625 377.476562 253.875 377.476562 253.199219 C 377.476562 252.300781 377.925781 252.074219 379.050781 252.375 C 380.324219 252.75 380.25 252.601562 378.75 251.699219 C 376.199219 250.125 375.75 250.199219 375.75 252.300781 Z M 375.75 252.300781 "/>
<path style=" stroke:none;fill-rule:nonzero;fill:rgb(0%,0%,0%);fill-opacity:1;" d="M 683.175781 254.023438 L 681.375 256.125 L 683.476562 254.324219 C 684.601562 253.273438 685.5 252.375 685.5 252.226562 C 685.5 251.625 684.898438 252.148438 683.175781 254.023438 Z M 683.175781 254.023438 "/>
<path style=" stroke:none;fill-rule:nonzero;fill:rgb(0%,0%,0%);fill-opacity:1;" d="M 381.824219 255.148438 C 381.898438 256.949219 382.050781 257.175781 382.273438 255.898438 C 382.425781 255 382.875 254.25 383.175781 254.25 C 384.226562 254.25 386.101562 256.125 386.476562 257.625 C 386.773438 258.523438 386.851562 258.226562 386.773438 256.949219 C 386.625 255.226562 386.101562 254.476562 384.226562 253.726562 L 381.75 252.75 Z M 381.824219 255.148438 "/>
<path style=" stroke:none;fill-rule:nonzero;fill:rgb(0%,0%,0%);fill-opacity:1;" d="M 378.601562 254.023438 C 379.125 254.25 379.800781 254.175781 380.023438 253.949219 C 380.324219 253.726562 379.875 253.5 379.050781 253.574219 C 378.226562 253.574219 378 253.800781 378.601562 254.023438 Z M 378.601562 254.023438 "/>
<path style=" stroke:none;fill-rule:nonzero;fill:rgb(0%,0%,0%);fill-opacity:1;" d="M 338.25 255.75 C 338.851562 256.125 339.75 256.5 340.125 256.5 C 340.574219 256.5 340.351562 256.125 339.75 255.75 C 339.148438 255.375 338.324219 255 337.875 255 C 337.5 255 337.648438 255.375 338.25 255.75 Z M 338.25 255.75 "/>
<path style=" stroke:none;fill-rule:nonzero;fill:rgb(0%,0%,0%);fill-opacity:1;" d="M 387.75 255.675781 C 387.75 256.050781 388.273438 256.574219 388.949219 256.800781 C 389.625 257.023438 390 257.773438 389.699219 258.375 C 389.476562 258.976562 389.625 259.648438 390 259.875 C 390.449219 260.175781 390.75 259.648438 390.75 258.824219 C 390.75 257.699219 391.125 257.398438 392.101562 257.773438 C 394.125 258.449219 392.25 256.949219 389.851562 255.898438 C 388.648438 255.449219 387.75 255.300781 387.75 255.675781 Z M 387.75 255.675781 "/>
<path style=" stroke:none;fill-rule:nonzero;fill:rgb(0%,0%,0%);fill-opacity:1;" d="M 344.25 258 C 344.851562 258.375 345.75 258.75 346.125 258.75 C 346.574219 258.75 346.351562 258.375 345.75 258 C 345.148438 257.625 344.324219 257.25 343.875 257.25 C 343.5 257.25 343.648438 257.625 344.25 258 Z M 344.25 258 "/>
<path style=" stroke:none;fill-rule:nonzero;fill:rgb(0%,0%,0%);fill-opacity:1;" d="M 677.175781 258.675781 C 676.199219 259.5 675.601562 260.324219 675.824219 260.550781 C 676.050781 260.773438 677.023438 260.175781 678 259.125 C 680.101562 256.875 679.648438 256.648438 677.175781 258.675781 Z M 677.175781 258.675781 "/>
<path style=" stroke:none;fill-rule:nonzero;fill:rgb(0%,0%,0%);fill-opacity:1;" d="M 397.199219 260.625 C 397.5 261.226562 397.949219 261.75 398.398438 261.75 C 398.773438 261.75 398.851562 261.449219 398.625 261 C 398.324219 260.476562 398.851562 260.476562 400.050781 261 C 401.101562 261.375 402 261.449219 402 261.074219 C 402 260.398438 399.523438 259.5 397.726562 259.5 C 397.199219 259.5 396.976562 260.023438 397.199219 260.625 Z M 397.199219 260.625 "/>
<path style=" stroke:none;fill-rule:nonzero;fill:rgb(0%,0%,0%);fill-opacity:1;" d="M 402.75 262.273438 C 402.75 264.074219 405 265.949219 406.726562 265.648438 C 407.476562 265.5 408 264.75 408 263.773438 C 407.925781 262.351562 407.851562 262.273438 407.023438 263.324219 C 405.976562 264.675781 404.25 264.375 404.25 262.875 C 404.25 262.273438 403.949219 261.601562 403.5 261.375 C 403.125 261.148438 402.75 261.523438 402.75 262.273438 Z M 402.75 262.273438 "/>
<path style=" stroke:none;fill-rule:nonzero;fill:rgb(0%,0%,0%);fill-opacity:1;" d="M 399.75 262.5 C 400.648438 263.175781 400.425781 263.25 398.625 262.875 C 395.699219 262.273438 396.976562 263.699219 399.976562 264.449219 C 401.851562 264.898438 402.074219 264.75 401.851562 263.550781 C 401.699219 262.800781 400.949219 262.050781 400.125 261.898438 C 398.851562 261.675781 398.773438 261.824219 399.75 262.5 Z M 399.75 262.5 "/>
<path style=" stroke:none;fill-rule:nonzero;fill:rgb(0%,0%,0%);fill-opacity:1;" d="M 357.75 263.25 C 358.351562 263.625 359.25 264 359.625 264 C 360.074219 264 359.851562 263.625 359.25 263.25 C 358.648438 262.875 357.824219 262.5 357.375 262.5 C 357 262.5 357.148438 262.875 357.75 263.25 Z M 357.75 263.25 "/>
<path style=" stroke:none;fill-rule:nonzero;fill:rgb(0%,0%,0%);fill-opacity:1;" d="M 670.5 264.375 C 669.523438 265.425781 669.074219 266.25 669.523438 266.25 C 670.425781 266.25 673.125 263.398438 672.601562 262.875 C 672.449219 262.648438 671.476562 263.324219 670.5 264.375 Z M 670.5 264.375 "/>
<path style=" stroke:none;fill-rule:nonzero;fill:rgb(0%,0%,0%);fill-opacity:1;" d="M 361.5 264.75 C 362.101562 265.125 363 265.5 363.375 265.5 C 363.824219 265.5 363.601562 265.125 363 264.75 C 362.398438 264.375 361.574219 264 361.125 264 C 360.75 264 360.898438 264.375 361.5 264.75 Z M 361.5 264.75 "/>
<path style=" stroke:none;fill-rule:nonzero;fill:rgb(0%,0%,0%);fill-opacity:1;" d="M 408.75 264.675781 C 408.75 265.050781 409.648438 266.101562 410.851562 267 C 412.5 268.273438 412.574219 268.425781 411.148438 267.75 C 410.175781 267.226562 409.199219 267.074219 408.976562 267.300781 C 408.523438 267.675781 411.976562 269.25 413.324219 269.25 C 414.601562 269.25 414 267.898438 411.976562 266.324219 L 409.875 264.75 L 413.101562 266.023438 C 415.574219 267 416.25 267.601562 416.25 269.023438 C 416.25 269.925781 416.625 270.75 417 270.75 C 417.449219 270.75 417.75 270.074219 417.75 269.175781 C 417.75 268.351562 418.125 267.898438 418.5 268.125 C 418.949219 268.351562 419.25 268.351562 419.25 267.976562 C 419.25 267.300781 411.226562 264 409.648438 264 C 409.125 264 408.75 264.300781 408.75 264.675781 Z M 408.75 264.675781 "/>
<path style=" stroke:none;fill-rule:nonzero;fill:rgb(0%,0%,0%);fill-opacity:1;" d="M 365.25 266.25 C 365.851562 266.625 366.75 267 367.125 267 C 367.574219 267 367.351562 266.625 366.75 266.25 C 366.148438 265.875 365.324219 265.5 364.875 265.5 C 364.5 265.5 364.648438 265.875 365.25 266.25 Z M 365.25 266.25 "/>
<path style=" stroke:none;fill-rule:nonzero;fill:rgb(0%,0%,0%);fill-opacity:1;" d="M 369 267.75 C 369.601562 268.125 370.5 268.5 370.875 268.5 C 371.324219 268.5 371.101562 268.125 370.5 267.75 C 369.898438 267.375 369.074219 267 368.625 267 C 368.25 267 368.398438 267.375 369 267.75 Z M 369 267.75 "/>
<path style=" stroke:none;fill-rule:nonzero;fill:rgb(0%,0%,0%);fill-opacity:1;" d="M 420 269.550781 C 420 271.199219 422.398438 273.75 423.898438 273.75 C 425.101562 273.75 424.425781 272.398438 423.148438 272.101562 C 422.398438 271.875 421.726562 271.125 421.726562 270.449219 C 421.726562 269.550781 422.175781 269.324219 423.300781 269.625 C 424.574219 270 424.5 269.851562 423 268.949219 C 420.449219 267.375 420 267.449219 420 269.550781 Z M 420 269.550781 "/>
<path style=" stroke:none;fill-rule:nonzero;fill:rgb(0%,0%,0%);fill-opacity:1;" d="M 664.574219 269.324219 C 663.601562 270.148438 662.925781 270.976562 663.148438 271.125 C 663.300781 271.351562 664.273438 270.675781 665.25 269.625 C 667.351562 267.375 667.050781 267.226562 664.574219 269.324219 Z M 664.574219 269.324219 "/>
<path style=" stroke:none;fill-rule:nonzero;fill:rgb(0%,0%,0%);fill-opacity:1;" d="M 425.25 272.25 C 425.25 273.449219 425.625 274.5 426 274.5 C 426.449219 274.5 426.75 273.824219 426.75 272.925781 C 426.75 270.675781 428.550781 271.574219 429.074219 274.199219 C 429.449219 275.925781 429.601562 276 429.675781 274.648438 C 429.824219 272.25 431.851562 272.550781 432.226562 275.023438 C 432.523438 277.050781 432.523438 277.050781 432.675781 274.800781 C 432.75 272.699219 432.449219 272.324219 429.523438 271.199219 C 425.324219 269.625 425.25 269.625 425.25 272.25 Z M 425.25 272.25 "/>
<path style=" stroke:none;fill-rule:nonzero;fill:rgb(0%,0%,0%);fill-opacity:1;" d="M 378.75 271.5 C 379.351562 271.875 380.25 272.25 380.625 272.25 C 381.074219 272.25 380.851562 271.875 380.25 271.5 C 379.648438 271.125 378.824219 270.75 378.375 270.75 C 378 270.75 378.148438 271.125 378.75 271.5 Z M 378.75 271.5 "/>
<path style=" stroke:none;fill-rule:nonzero;fill:rgb(0%,0%,0%);fill-opacity:1;" d="M 422.851562 271.273438 C 423.375 271.5 424.050781 271.425781 424.273438 271.199219 C 424.574219 270.976562 424.125 270.75 423.300781 270.824219 C 422.476562 270.824219 422.25 271.050781 422.851562 271.273438 Z M 422.851562 271.273438 "/>
<path style=" stroke:none;fill-rule:nonzero;fill:rgb(0%,0%,0%);fill-opacity:1;" d="M 382.5 273 C 383.101562 273.375 384 273.75 384.375 273.75 C 384.824219 273.75 384.601562 273.375 384 273 C 383.398438 272.625 382.574219 272.25 382.125 272.25 C 381.75 272.25 381.898438 272.625 382.5 273 Z M 382.5 273 "/>
<path style=" stroke:none;fill-rule:nonzero;fill:rgb(0%,0%,0%);fill-opacity:1;" d="M 386.25 274.5 C 386.851562 274.875 387.75 275.25 388.125 275.25 C 388.574219 275.25 388.351562 274.875 387.75 274.5 C 387.148438 274.125 386.324219 273.75 385.875 273.75 C 385.5 273.75 385.648438 274.125 386.25 274.5 Z M 386.25 274.5 "/>
<path style=" stroke:none;fill-rule:nonzero;fill:rgb(0%,0%,0%);fill-opacity:1;" d="M 435.75 274.574219 C 435.75 274.949219 436.125 275.101562 436.5 274.875 C 436.949219 274.648438 437.25 274.800781 437.25 275.25 C 437.25 275.699219 437.625 275.851562 438 275.625 C 438.449219 275.398438 438.75 275.550781 438.75 276.074219 C 438.75 276.601562 438.976562 276.75 439.273438 276.449219 C 439.648438 276.148438 439.199219 275.398438 438.449219 274.800781 C 436.726562 273.523438 435.75 273.449219 435.75 274.574219 Z M 435.75 274.574219 "/>
<path style=" stroke:none;fill-rule:nonzero;fill:rgb(0%,0%,0%);fill-opacity:1;" d="M 445.5 298.5 C 444.675781 299.023438 445.050781 299.25 447 299.25 C 448.949219 299.25 449.324219 299.023438 448.5 298.5 C 447.898438 298.125 447.226562 297.75 447 297.75 C 446.773438 297.75 446.101562 298.125 445.5 298.5 Z M 445.5 298.5 "/>
<path style=" stroke:none;fill-rule:nonzero;fill:rgb(0%,0%,0%);fill-opacity:1;" d="M 450.75 299.851562 C 451.351562 300.226562 452.699219 300.824219 453.75 301.050781 C 455.023438 301.425781 455.25 301.351562 454.5 300.898438 C 453.898438 300.523438 452.550781 299.925781 451.5 299.699219 C 450.226562 299.324219 450 299.398438 450.75 299.851562 Z M 450.75 299.851562 "/>
<path style=" stroke:none;fill-rule:nonzero;fill:rgb(0%,0%,0%);fill-opacity:1;" d="M 460.5 303.75 C 461.101562 304.125 462 304.5 462.375 304.5 C 462.824219 304.5 462.601562 304.125 462 303.75 C 461.398438 303.375 460.574219 303 460.125 303 C 459.75 303 459.898438 303.375 460.5 303.75 Z M 460.5 303.75 "/>
<path style=" stroke:none;fill-rule:nonzero;fill:rgb(0%,0%,0%);fill-opacity:1;" d="M 464.25 305.25 C 464.851562 305.625 465.75 306 466.125 306 C 466.574219 306 466.351562 305.625 465.75 305.25 C 465.148438 304.875 464.324219 304.5 463.875 304.5 C 463.5 304.5 463.648438 304.875 464.25 305.25 Z M 464.25 305.25 "/>
<path style=" stroke:none;fill-rule:nonzero;fill:rgb(0%,0%,0%);fill-opacity:1;" d="M 220.5 314.625 C 171.601562 324.523438 162.75 326.476562 162.75 327.226562 C 162.75 327.601562 163.199219 327.75 163.800781 327.523438 C 167.25 326.175781 171.449219 325.425781 173.175781 325.875 C 174.601562 326.175781 174.824219 326.101562 174 325.5 C 173.023438 324.898438 173.023438 324.75 174.148438 324.75 C 175.574219 324.75 176.851562 329.25 175.800781 330.824219 C 175.5 331.425781 175.574219 331.574219 176.101562 331.199219 C 177.300781 330.449219 177.300781 333.375 176.101562 334.273438 C 174.824219 335.25 116.699219 346.648438 114.523438 346.351562 C 112.800781 346.125 111.449219 343.875 110.699219 339.824219 C 110.324219 337.648438 110.398438 337.425781 111.601562 337.875 C 112.574219 338.25 112.648438 338.175781 111.976562 337.425781 C 111.226562 336.675781 103.648438 337.949219 76.425781 343.351562 C 57.300781 347.175781 41.476562 350.476562 41.175781 350.773438 C 40.800781 351.148438 41.101562 353.550781 41.699219 356.25 C 43.949219 365.851562 51.824219 401.101562 54.523438 413.25 C 55.949219 420.074219 57.601562 426.074219 58.125 426.601562 C 58.875 427.425781 77.851562 423.675781 162.074219 406.125 C 286.648438 380.25 276.226562 382.425781 276.976562 381.75 C 277.5 381.300781 269.324219 345.375 262.199219 317.25 C 259.875 307.949219 259.875 307.875 257.625 307.726562 C 256.425781 307.648438 239.699219 310.800781 220.5 314.625 Z M 178.351562 339.898438 C 178.726562 340.425781 179.476562 342.148438 179.851562 343.726562 C 180.523438 346.125 180.449219 346.800781 179.324219 347.925781 C 178.425781 348.824219 169.875 350.851562 148.726562 354.976562 C 132.601562 358.125 118.726562 360.75 117.898438 360.75 C 117 360.75 115.949219 360.148438 115.574219 359.398438 C 114.523438 357.375 113.925781 352.949219 114.601562 351.976562 C 114.898438 351.449219 125.625 349.050781 138.375 346.5 C 151.199219 343.949219 164.476562 341.324219 168 340.5 C 175.800781 338.851562 177.375 338.699219 178.351562 339.898438 Z M 251.25 353.25 C 251.699219 354.148438 254.398438 365.398438 256.273438 374.023438 C 256.574219 375.300781 256.199219 375.898438 254.851562 376.425781 C 251.023438 377.851562 232.425781 381.226562 231.824219 380.550781 C 231.449219 380.175781 230.101562 375.449219 228.824219 370.125 C 227.476562 364.726562 226.273438 359.851562 226.125 359.25 C 225.449219 356.925781 227.25 356.101562 237.074219 354 C 248.023438 351.675781 250.425781 351.523438 251.25 353.25 Z M 182.25 354.824219 C 182.699219 355.648438 183.148438 357.75 183.226562 359.476562 C 183.375 362.476562 183.300781 362.625 180.375 363.601562 C 178.800781 364.125 175.726562 364.648438 173.550781 364.726562 C 171.375 364.800781 169.800781 365.023438 170.023438 365.25 C 170.476562 365.699219 124.800781 374.925781 121.648438 374.925781 C 119.101562 375 118.648438 374.398438 117.523438 369.675781 C 116.550781 365.773438 117.148438 365.550781 147.75 359.324219 C 163.648438 356.101562 177.675781 353.398438 179.023438 353.324219 C 180.75 353.25 181.648438 353.699219 182.25 354.824219 Z M 221.023438 358.351562 C 221.550781 358.726562 222.300781 360.449219 222.675781 362.324219 C 223.050781 364.125 224.101562 369.148438 225 373.425781 C 226.351562 379.875 226.5 381.300781 225.601562 382.125 C 224.476562 383.175781 203.925781 387.375 202.351562 386.851562 C 201.75 386.625 200.25 381.976562 198.675781 375.300781 C 196.5 366.449219 196.125 363.898438 196.875 363.148438 C 197.324219 362.625 202.273438 361.199219 207.824219 360 C 219.148438 357.601562 219.75 357.523438 221.023438 358.351562 Z M 91.5 368.25 C 92.851562 374.625 92.25 374.324219 101.773438 373.125 L 106.351562 372.523438 L 107.101562 375.226562 C 107.550781 376.726562 108.449219 380.625 109.199219 384 C 110.773438 391.425781 110.550781 391.726562 103.273438 393.300781 C 100.5 393.824219 98.023438 394.5 97.800781 394.648438 C 97.648438 394.875 98.023438 397.273438 98.625 400.050781 C 100.199219 406.648438 99.75 407.699219 95.398438 408.675781 C 87 410.398438 81.824219 411.226562 80.773438 410.773438 C 80.101562 410.550781 79.199219 408.148438 78.375 404.699219 C 77.023438 398.324219 77.324219 398.476562 69.976562 400.050781 C 66.449219 400.800781 64.949219 400.875 64.125 400.199219 C 62.925781 399.300781 59.175781 384.300781 59.773438 382.726562 C 60.148438 381.675781 63.523438 380.476562 68.101562 379.800781 C 69.824219 379.5 71.476562 378.976562 71.699219 378.675781 C 71.925781 378.300781 71.699219 375.449219 71.175781 372.375 C 70.5 368.550781 70.425781 366.523438 70.949219 366 C 72.074219 364.875 83.851562 362.398438 87.375 362.476562 L 90.300781 362.625 Z M 185.175781 367.425781 C 185.699219 367.800781 187.050781 371.925781 188.175781 376.648438 C 190.5 386.324219 190.273438 387.976562 186.449219 389.175781 C 184.574219 389.851562 164.773438 393.976562 132.148438 400.574219 C 126.074219 401.851562 125.625 401.324219 123.300781 391.726562 C 121.273438 383.175781 121.125 380.773438 122.550781 379.574219 C 123.074219 379.125 134.324219 376.5 147.449219 373.800781 C 160.648438 371.101562 173.398438 368.476562 175.875 367.875 C 181.273438 366.675781 183.824219 366.523438 185.175781 367.425781 Z M 192.074219 396.449219 C 192.449219 397.574219 192.675781 398.550781 192.601562 398.699219 C 192.449219 398.773438 186.601562 400.125 179.625 401.550781 C 172.574219 402.976562 162.675781 405.074219 157.574219 406.125 C 152.476562 407.175781 147.824219 407.925781 147.226562 407.699219 C 146.625 407.476562 146.324219 407.550781 146.550781 407.925781 C 146.773438 408.226562 142.648438 409.351562 137.398438 410.398438 C 128.324219 412.125 127.875 412.199219 127.351562 410.851562 C 126.523438 408.824219 127.5 407.101562 129.074219 407.476562 C 129.898438 407.699219 130.351562 407.625 130.125 407.25 C 129.976562 406.949219 135.976562 405.449219 143.476562 403.949219 C 150.976562 402.449219 164.023438 399.75 172.5 397.949219 C 191.25 393.898438 191.101562 393.976562 192.074219 396.449219 Z M 192.074219 396.449219 "/>
<path style=" stroke:none;fill-rule:nonzero;fill:rgb(0%,0%,0%);fill-opacity:1;" d="M 236.550781 357.300781 C 229.726562 360.375 228.976562 369.976562 235.125 374.851562 C 239.851562 378.601562 248.023438 376.949219 250.875 371.699219 C 254.324219 365.324219 249.824219 357.074219 242.476562 356.476562 C 240.375 356.324219 237.898438 356.699219 236.550781 357.300781 Z M 250.351562 366.300781 C 250.050781 370.050781 248.773438 370.5 247.199219 367.425781 C 246.148438 365.324219 246.148438 364.875 247.273438 362.773438 C 248.398438 360.523438 248.476562 360.523438 249.523438 361.949219 C 250.125 362.773438 250.5 364.648438 250.351562 366.300781 Z M 233.023438 368.398438 C 232.800781 369 232.574219 368.773438 232.574219 367.949219 C 232.5 367.125 232.726562 366.675781 232.949219 366.976562 C 233.175781 367.199219 233.25 367.875 233.023438 368.398438 Z M 233.023438 368.398438 "/>
<path style=" stroke:none;fill-rule:nonzero;fill:rgb(0%,0%,0%);fill-opacity:1;" d="M 177 356.925781 C 176.398438 357.375 175.726562 357.523438 175.425781 357.300781 C 175.125 357.148438 174 357.300781 173.023438 357.675781 C 171.601562 358.199219 171.226562 358.800781 171.523438 359.925781 C 171.976562 361.574219 172.875 361.949219 173.625 360.75 C 173.851562 360.375 174.523438 360.226562 175.125 360.523438 C 175.875 360.75 176.25 360.375 176.25 359.324219 C 176.25 358.425781 176.699219 357.75 177.375 357.75 C 177.976562 357.75 178.5 358.273438 178.5 358.875 C 178.5 360.75 179.773438 360.148438 180.148438 358.125 C 180.601562 356.101562 179.175781 355.574219 177 356.925781 Z M 174.523438 358.949219 C 174.300781 359.175781 173.625 359.25 173.101562 359.023438 C 172.5 358.800781 172.726562 358.574219 173.550781 358.574219 C 174.375 358.5 174.824219 358.726562 174.523438 358.949219 Z M 174.523438 358.949219 "/>
<path style=" stroke:none;fill-rule:nonzero;fill:rgb(0%,0%,0%);fill-opacity:1;" d="M 166.125 359.25 C 165.898438 359.625 165.898438 360.675781 166.125 361.574219 C 166.5 362.773438 166.875 362.925781 167.699219 362.175781 C 168.226562 361.726562 169.273438 361.5 169.949219 361.800781 C 170.851562 362.101562 171.074219 361.800781 170.851562 360.523438 C 170.699219 359.398438 170.023438 358.800781 168.601562 358.648438 C 167.550781 358.5 166.425781 358.800781 166.125 359.25 Z M 169.125 360 C 168.898438 360.375 168.300781 360.75 167.925781 360.75 C 167.476562 360.75 167.398438 360.375 167.625 360 C 167.851562 359.550781 168.449219 359.25 168.824219 359.25 C 169.273438 359.25 169.351562 359.550781 169.125 360 Z M 169.125 360 "/>
<path style=" stroke:none;fill-rule:nonzero;fill:rgb(0%,0%,0%);fill-opacity:1;" d="M 162 360 C 161.398438 360.375 161.25 360.75 161.699219 360.75 C 162.148438 360.75 162.898438 361.5 163.351562 362.398438 C 163.949219 363.675781 164.175781 363.824219 164.175781 362.851562 C 164.25 362.175781 164.476562 361.125 164.699219 360.449219 C 165.226562 359.101562 163.800781 358.875 162 360 Z M 162 360 "/>
<path style=" stroke:none;fill-rule:nonzero;fill:rgb(0%,0%,0%);fill-opacity:1;" d="M 157.050781 361.199219 C 156.074219 362.023438 155.925781 362.476562 156.601562 362.699219 C 157.050781 362.925781 157.351562 363.449219 157.050781 363.824219 C 156.824219 364.199219 157.5 364.5 158.550781 364.5 C 160.5 364.5 161.25 363.449219 160.648438 361.273438 C 160.273438 359.699219 159 359.625 157.050781 361.199219 Z M 157.050781 361.199219 "/>
<path style=" stroke:none;fill-rule:nonzero;fill:rgb(0%,0%,0%);fill-opacity:1;" d="M 147.675781 362.550781 C 147.523438 362.699219 146.023438 363.074219 144.375 363.300781 C 142.800781 363.601562 141.226562 364.199219 140.925781 364.648438 C 139.949219 366.148438 141.074219 367.5 143.324219 367.5 C 146.101562 367.5 146.175781 366.226562 143.476562 365.851562 L 141.375 365.550781 L 143.25 364.726562 C 145.425781 363.824219 147 364.199219 147 365.699219 C 147 366.300781 147.375 366.75 147.824219 366.75 C 148.273438 366.75 148.5 366.074219 148.273438 365.25 C 148.050781 364.425781 148.199219 363.75 148.574219 363.75 C 148.949219 363.75 149.25 363.375 149.25 363 C 149.25 362.25 148.273438 361.949219 147.675781 362.550781 Z M 147.675781 362.550781 "/>
<path style=" stroke:none;fill-rule:nonzero;fill:rgb(0%,0%,0%);fill-opacity:1;" d="M 136.050781 365.625 C 135.375 367.273438 137.023438 368.925781 138.75 368.476562 C 140.324219 368.023438 140.550781 367.574219 139.800781 365.699219 C 139.199219 364.199219 136.574219 364.125 136.050781 365.625 Z M 136.050781 365.625 "/>
<path style=" stroke:none;fill-rule:nonzero;fill:rgb(0%,0%,0%);fill-opacity:1;" d="M 127.125 366.75 C 126.449219 367.800781 127.425781 370.5 128.476562 370.5 C 130.273438 370.5 131.476562 369.148438 131.023438 367.800781 C 130.648438 366.675781 130.726562 366.675781 131.699219 367.949219 C 132.449219 369 133.351562 369.449219 134.25 369.226562 C 135.074219 369 135.523438 368.550781 135.300781 368.175781 C 135.074219 367.800781 134.625 367.648438 134.25 367.875 C 133.949219 368.101562 133.5 367.726562 133.199219 367.125 C 132.75 365.851562 127.875 365.550781 127.125 366.75 Z M 127.125 366.75 "/>
<path style=" stroke:none;fill-rule:nonzero;fill:rgb(0%,0%,0%);fill-opacity:1;" d="M 123 367.574219 C 121.273438 368.324219 121.199219 368.398438 122.476562 369.375 C 123.449219 370.125 123.601562 370.425781 122.851562 370.726562 C 122.324219 370.949219 122.550781 371.175781 123.375 371.175781 C 125.699219 371.25 126.75 370.273438 126.226562 368.398438 C 125.773438 366.523438 125.625 366.523438 123 367.574219 Z M 123 367.574219 "/>
<path style=" stroke:none;fill-rule:nonzero;fill:rgb(0%,0%,0%);fill-opacity:1;" d="M 208.875 362.925781 C 203.023438 364.351562 200.625 367.726562 201.148438 373.648438 C 202.199219 384 215.699219 386.773438 221.324219 377.851562 C 225.824219 370.574219 217.648438 360.75 208.875 362.925781 Z M 220.875 370.800781 C 221.175781 372.074219 221.023438 373.949219 220.648438 375 L 219.976562 376.875 L 218.476562 374.398438 C 217.199219 372.375 217.125 371.550781 217.800781 369.449219 C 218.699219 366.375 220.199219 366.976562 220.875 370.800781 Z M 203.398438 372.898438 C 203.550781 374.398438 203.398438 375.449219 203.101562 375.300781 C 202.800781 375.074219 202.5 373.5 202.574219 371.773438 C 202.648438 368.25 203.023438 368.699219 203.398438 372.898438 Z M 203.398438 372.898438 "/>
<path style=" stroke:none;fill-rule:nonzero;fill:rgb(0%,0%,0%);fill-opacity:1;" d="M 78.601562 365.925781 C 75.449219 366.601562 72.675781 367.273438 72.449219 367.5 C 72.300781 367.726562 72.75 370.574219 73.5 373.800781 C 74.324219 377.101562 74.773438 379.949219 74.625 380.25 C 74.476562 380.550781 71.773438 381.226562 68.699219 381.75 C 65.699219 382.273438 62.773438 382.949219 62.324219 383.175781 C 61.726562 383.550781 61.949219 385.726562 63.074219 390.824219 C 63.976562 394.726562 64.949219 398.175781 65.25 398.476562 C 65.550781 398.851562 68.625 398.550781 72 397.875 C 75.375 397.199219 78.226562 396.75 78.449219 396.898438 C 78.601562 397.050781 79.351562 399.898438 80.101562 403.199219 C 81.449219 408.976562 81.523438 409.125 83.699219 409.050781 C 84.898438 408.976562 88.5 408.375 91.726562 407.625 C 97.425781 406.351562 97.5 406.351562 97.5 403.949219 C 97.5 402.675781 96.976562 399.824219 96.449219 397.648438 C 95.175781 393 95.25 392.925781 102.976562 391.5 C 108.824219 390.449219 108.824219 390.449219 106.800781 381.824219 C 105.148438 374.324219 104.851562 374.101562 99.375 375.375 C 93.824219 376.726562 91.5 376.800781 91.199219 375.523438 C 91.050781 375.074219 90.300781 372.375 89.625 369.523438 C 88.125 363.675781 88.425781 363.824219 78.601562 365.925781 Z M 100.125 379.5 C 100.351562 379.875 100.125 380.023438 99.449219 379.800781 C 97.875 379.199219 96.449219 382.125 97.5 384 C 97.949219 384.824219 98.023438 385.5 97.574219 385.5 C 97.050781 385.5 95.25 381.675781 95.25 380.476562 C 95.25 380.175781 98.25 378.898438 99.148438 378.824219 C 99.449219 378.75 99.898438 379.050781 100.125 379.5 Z M 95.023438 384.523438 C 95.324219 386.925781 95.175781 387.601562 94.125 388.050781 C 92.023438 388.800781 90.074219 387.898438 90.523438 386.324219 C 90.75 385.5 90.523438 384.148438 90 383.25 C 88.949219 381.300781 89.625 380.25 90.976562 381.824219 C 91.425781 382.425781 91.800781 382.800781 91.726562 382.648438 C 91.648438 382.5 92.023438 381.898438 92.476562 381.375 C 93.75 380.023438 94.574219 381.074219 95.023438 384.523438 Z M 88.125 385.5 C 88.351562 385.875 88.199219 386.25 87.824219 386.25 C 87.375 386.25 87 385.875 87 385.5 C 87 385.050781 87.148438 384.75 87.300781 384.75 C 87.523438 384.75 87.898438 385.050781 88.125 385.5 Z M 88.125 385.5 "/>
<path style=" stroke:none;fill-rule:nonzero;fill:rgb(0%,0%,0%);fill-opacity:1;" d="M 170.625 376.949219 C 168.148438 377.550781 165.375 378.148438 164.476562 378.375 C 161.925781 378.976562 160.199219 381.976562 161.25 383.925781 C 162.75 386.773438 164.324219 387 171.375 385.425781 C 175.050781 384.601562 178.5 383.550781 179.023438 383.101562 C 180.601562 381.824219 180.226562 378.226562 178.351562 376.949219 C 176.398438 375.601562 176.550781 375.601562 170.625 376.949219 Z M 170.625 376.949219 "/>
<path style=" stroke:none;fill-rule:nonzero;fill:rgb(0%,0%,0%);fill-opacity:1;" d="M 138.675781 383.925781 C 135.523438 384.601562 132.375 385.574219 131.699219 386.175781 C 130.050781 387.601562 130.199219 390.226562 132.074219 391.875 C 133.574219 393.300781 133.800781 393.300781 140.476562 391.949219 C 149.773438 390.074219 152.175781 387.675781 148.5 384 C 146.773438 382.273438 146.25 382.273438 138.675781 383.925781 Z M 138.675781 383.925781 "/>
<path style=" stroke:none;fill-rule:nonzero;fill:rgb(0%,0%,0%);fill-opacity:1;" d="M 189.75 396 C 189.75 396.375 190.125 396.75 190.574219 396.75 C 190.949219 396.75 191.101562 396.375 190.875 396 C 190.648438 395.550781 190.273438 395.25 190.050781 395.25 C 189.898438 395.25 189.75 395.550781 189.75 396 Z M 189.75 396 "/>
<path style=" stroke:none;fill-rule:nonzero;fill:rgb(0%,0%,0%);fill-opacity:1;" d="M 184.351562 398.023438 C 184.875 398.25 185.550781 398.175781 185.773438 397.949219 C 186.074219 397.726562 185.625 397.5 184.800781 397.574219 C 183.976562 397.574219 183.75 397.800781 184.351562 398.023438 Z M 184.351562 398.023438 "/>
<path style=" stroke:none;fill-rule:nonzero;fill:rgb(0%,0%,0%);fill-opacity:1;" d="M 190.351562 398.023438 C 190.875 398.25 191.550781 398.175781 191.773438 397.949219 C 192.074219 397.726562 191.625 397.5 190.800781 397.574219 C 189.976562 397.574219 189.75 397.800781 190.351562 398.023438 Z M 190.351562 398.023438 "/>
<path style=" stroke:none;fill-rule:nonzero;fill:rgb(0%,0%,0%);fill-opacity:1;" d="M 175.5 398.550781 C 175.5 398.699219 176.023438 399.074219 176.699219 399.300781 C 177.300781 399.523438 177.601562 399.449219 177.375 399 C 176.925781 398.25 175.5 397.949219 175.5 398.550781 Z M 175.5 398.550781 "/>
<path style=" stroke:none;fill-rule:nonzero;fill:rgb(0%,0%,0%);fill-opacity:1;" d="M 172.875 399.75 C 174.898438 400.648438 176.101562 400.648438 174.75 399.75 C 174.148438 399.375 173.101562 399.074219 172.5 399.074219 C 171.75 399.074219 171.898438 399.300781 172.875 399.75 Z M 172.875 399.75 "/>
<path style=" stroke:none;fill-rule:nonzero;fill:rgb(0%,0%,0%);fill-opacity:1;" d="M 182.101562 399.523438 C 182.550781 399.675781 183.449219 399.675781 183.976562 399.523438 C 184.425781 399.300781 184.050781 399.148438 183 399.148438 C 181.949219 399.148438 181.574219 399.300781 182.101562 399.523438 Z M 182.101562 399.523438 "/>
<path style=" stroke:none;fill-rule:nonzero;fill:rgb(0%,0%,0%);fill-opacity:1;" d="M 154.5 402.75 C 152.925781 403.273438 152.925781 403.351562 154.125 403.425781 C 154.949219 403.425781 156.148438 403.125 156.75 402.75 C 158.101562 401.925781 157.125 401.925781 154.5 402.75 Z M 154.5 402.75 "/>
<path style=" stroke:none;fill-rule:nonzero;fill:rgb(0%,0%,0%);fill-opacity:1;" d="M 149.25 404.175781 C 149.25 404.550781 148.050781 404.773438 146.625 404.699219 C 143.925781 404.476562 143.101562 405.226562 145.199219 406.050781 C 146.851562 406.648438 147.148438 406.648438 146.625 405.75 C 146.398438 405.300781 146.550781 405 146.925781 405 C 147.375 405 147.75 405.375 147.75 405.824219 C 147.75 406.425781 148.050781 406.425781 148.800781 405.824219 C 149.550781 405.226562 150 405.148438 150.375 405.75 C 150.601562 406.125 151.425781 406.5 152.101562 406.5 C 153 406.425781 152.851562 406.199219 151.574219 405.449219 C 149.851562 404.476562 149.851562 404.398438 151.199219 404.023438 C 152.476562 403.726562 152.398438 403.648438 150.976562 403.574219 C 150 403.574219 149.25 403.800781 149.25 404.175781 Z M 149.25 404.175781 "/>
<path style=" stroke:none;fill-rule:nonzero;fill:rgb(0%,0%,0%);fill-opacity:1;" d="M 153.601562 404.773438 C 154.125 405 154.800781 404.925781 155.023438 404.699219 C 155.324219 404.476562 154.875 404.25 154.050781 404.324219 C 153.226562 404.324219 153 404.550781 153.601562 404.773438 Z M 153.601562 404.773438 "/>
<path style=" stroke:none;fill-rule:nonzero;fill:rgb(0%,0%,0%);fill-opacity:1;" d="M 134.851562 407.023438 C 135.375 407.25 136.050781 407.175781 136.273438 406.949219 C 136.574219 406.726562 136.125 406.5 135.300781 406.574219 C 134.476562 406.574219 134.25 406.800781 134.851562 407.023438 Z M 134.851562 407.023438 "/>
<path style=" stroke:none;fill-rule:nonzero;fill:rgb(0%,0%,0%);fill-opacity:1;" d="M 84.75 310.5 C 83.925781 311.324219 83.25 312.523438 83.25 313.125 C 83.25 314.851562 87.976562 324 88.875 324 C 90.449219 323.925781 99.074219 321.898438 99.523438 321.523438 C 100.199219 320.773438 93.601562 313.5 92.699219 314.023438 C 92.25 314.25 92.101562 314.25 92.398438 313.875 C 93.148438 313.125 88.875 309 87.375 309 C 86.773438 309 85.574219 309.675781 84.75 310.5 Z M 84.75 310.5 "/>
<path style=" stroke:none;fill-rule:nonzero;fill:rgb(0%,0%,0%);fill-opacity:1;" d="M 479.25 311.25 C 479.851562 311.625 480.75 312 481.125 312 C 481.574219 312 481.351562 311.625 480.75 311.25 C 480.148438 310.875 479.324219 310.5 478.875 310.5 C 478.5 310.5 478.648438 310.875 479.25 311.25 Z M 479.25 311.25 "/>
<path style=" stroke:none;fill-rule:nonzero;fill:rgb(0%,0%,0%);fill-opacity:1;" d="M 154.5 328.125 C 152.25 328.648438 151.050781 329.101562 151.875 329.101562 C 152.699219 329.175781 155.398438 328.726562 157.875 328.199219 C 160.351562 327.601562 161.550781 327.148438 160.5 327.148438 C 159.449219 327.148438 156.75 327.601562 154.5 328.125 Z M 154.5 328.125 "/>
<path style=" stroke:none;fill-rule:nonzero;fill:rgb(0%,0%,0%);fill-opacity:1;" d="M 141.375 330.75 L 135.375 332.101562 L 139.574219 331.949219 C 141.898438 331.949219 143.699219 331.648438 143.476562 331.273438 C 143.324219 330.976562 144.074219 330.75 145.273438 330.675781 C 146.398438 330.675781 148.050781 330.375 148.875 330 L 150.375 329.324219 L 148.875 329.398438 C 148.050781 329.398438 144.675781 330 141.375 330.75 Z M 141.375 330.75 "/>
<path style=" stroke:none;fill-rule:nonzero;fill:rgb(0%,0%,0%);fill-opacity:1;" d="M 122.25 334.5 C 116.699219 335.625 112.648438 336.601562 113.324219 336.675781 C 114.449219 336.75 133.199219 333.226562 134.625 332.699219 C 136.800781 331.800781 131.25 332.625 122.25 334.5 Z M 122.25 334.5 "/>
<path style=" stroke:none;fill-rule:nonzero;fill:rgb(0%,0%,0%);fill-opacity:1;" d="M 140.851562 334.273438 C 141.375 334.5 142.050781 334.425781 142.273438 334.199219 C 142.574219 333.976562 142.125 333.75 141.300781 333.824219 C 140.476562 333.824219 140.25 334.050781 140.851562 334.273438 Z M 140.851562 334.273438 "/>
<path style=" stroke:none;fill-rule:nonzero;fill:rgb(0%,0%,0%);fill-opacity:1;" d="M 128.851562 335.023438 C 129.375 335.25 130.050781 335.175781 130.273438 334.949219 C 130.574219 334.726562 130.125 334.5 129.300781 334.574219 C 128.476562 334.574219 128.25 334.800781 128.851562 335.023438 Z M 128.851562 335.023438 "/>
<path style=" stroke:none;fill-rule:nonzero;fill:rgb(0%,0%,0%);fill-opacity:1;" d="M 112.5 343.425781 C 112.5 343.875 112.800781 344.398438 113.25 344.625 C 113.699219 344.851562 113.773438 344.550781 113.550781 343.949219 C 113.023438 342.601562 112.5 342.375 112.5 343.425781 Z M 112.5 343.425781 "/>
<path style=" stroke:none;fill-rule:nonzero;fill:rgb(0%,0%,0%);fill-opacity:1;" d="M 285.074219 385.199219 C 285.074219 386.023438 285.300781 386.25 285.523438 385.648438 C 285.75 385.125 285.675781 384.449219 285.449219 384.226562 C 285.226562 383.925781 285 384.375 285.074219 385.199219 Z M 285.074219 385.199219 "/>
<path style=" stroke:none;fill-rule:nonzero;fill:rgb(0%,0%,0%);fill-opacity:1;" d="M 280.5 392.175781 C 279.226562 392.925781 269.398438 395.25 258.375 397.425781 C 254.25 398.25 246 399.976562 240 401.25 C 234 402.523438 225.898438 404.25 222 405 C 215.101562 406.351562 205.273438 408.449219 162.375 417.375 C 151.273438 419.699219 132.523438 423.601562 120.75 426 C 108.976562 428.398438 97.050781 430.875 94.125 431.476562 C 91.273438 432.148438 84 433.726562 78 435 C 60.675781 438.75 58.050781 439.351562 59.398438 439.425781 C 60.898438 439.5 89.550781 433.726562 152.625 420.523438 C 165.449219 417.824219 192.601562 412.199219 213 408 C 269.324219 396.375 279.75 394.050781 281.101562 392.699219 C 282.449219 391.351562 282.226562 391.199219 280.5 392.175781 Z M 280.5 392.175781 "/>
<path style=" stroke:none;fill-rule:nonzero;fill:rgb(0%,0%,0%);fill-opacity:1;" d="M 56.101562 440.023438 C 56.625 440.25 57.300781 440.175781 57.523438 439.949219 C 57.824219 439.726562 57.375 439.5 56.550781 439.574219 C 55.726562 439.574219 55.5 439.800781 56.101562 440.023438 Z M 56.101562 440.023438 "/>
</g>
</svg>
