<?xml version="1.0" encoding="UTF-8"?>
<svg xmlns="http://www.w3.org/2000/svg" xmlns:xlink="http://www.w3.org/1999/xlink" width="900px" height="673px" viewBox="0 0 900 673" version="1.1">
<g id="surface1">
<path style=" stroke:none;fill-rule:nonzero;fill:rgb(0%,0%,0%);fill-opacity:1;" d="M 0 336.585938 L 0 673.175781 L 364.039062 673.175781 C 654.464844 673.175781 728.160156 672.914062 728.507812 672.042969 C 728.855469 671.257812 729.117188 671.257812 730.074219 672.042969 C 731.554688 673.523438 779.582031 673.695312 779.582031 672.304688 C 779.582031 671.78125 778.710938 671.605469 777.667969 671.867188 C 775.40625 672.390625 770.882812 668.90625 770.882812 666.644531 C 770.882812 665.859375 770.1875 664.988281 769.402344 664.726562 C 768.53125 664.378906 767.488281 663.683594 767.140625 662.984375 C 766.792969 662.375 765.835938 661.851562 765.226562 661.851562 C 763.746094 661.851562 763.484375 659.589844 764.792969 658.804688 C 765.398438 658.457031 765.398438 657.761719 764.792969 656.628906 C 764.183594 655.496094 764.183594 654.800781 764.878906 654.363281 C 766.097656 653.667969 767.574219 655.757812 766.964844 657.410156 C 766.617188 658.28125 767.140625 658.457031 768.792969 658.109375 C 770.359375 657.847656 771.144531 658.109375 771.492188 659.152344 C 771.664062 659.9375 772.359375 661.503906 772.796875 662.722656 C 773.316406 663.941406 773.839844 665.421875 774.015625 666.03125 C 774.101562 666.730469 774.363281 667.339844 774.535156 667.339844 C 774.710938 667.425781 776.015625 668.210938 777.582031 669.082031 C 780.539062 670.734375 784.804688 671.085938 784.804688 669.691406 C 784.804688 669.167969 784.453125 668.820312 784.019531 668.820312 C 782.886719 668.820312 780.453125 666.292969 780.453125 665.164062 C 780.453125 664.550781 781.496094 665.074219 782.714844 666.292969 C 784.804688 668.210938 784.976562 668.296875 786.019531 666.816406 C 787.414062 664.988281 788.28125 664.902344 788.28125 666.644531 C 788.28125 667.339844 787.933594 667.949219 787.414062 667.949219 C 786.976562 667.949219 786.542969 668.558594 786.542969 669.34375 C 786.542969 670.300781 787.066406 670.648438 788.28125 670.300781 C 789.238281 670.039062 790.023438 670.214844 790.023438 670.648438 C 790.023438 671.085938 789.414062 671.433594 788.71875 671.433594 C 788.023438 671.433594 787.414062 671.78125 787.414062 672.304688 C 787.414062 672.824219 807.6875 673.175781 843.53125 673.175781 L 899.652344 673.175781 L 899.652344 0 L 0 0 Z M 76.738281 97.273438 C 78.652344 99.191406 78.652344 99.363281 77.089844 101.890625 C 75.609375 104.503906 75.609375 104.675781 77.175781 107.375 C 79.351562 111.035156 81.960938 111.382812 84.308594 108.335938 C 86.484375 105.546875 86.570312 103.894531 84.746094 101.804688 C 82.832031 99.714844 83.875 97.015625 87.179688 95.882812 C 88.660156 95.359375 93.269531 94.921875 97.359375 94.921875 C 105.886719 94.921875 108.757812 96.144531 108.757812 99.800781 C 108.757812 101.542969 108.0625 102.238281 105.539062 103.285156 C 99.882812 105.460938 98.40625 106.59375 92.664062 113.125 C 86.136719 120.527344 84.832031 124.707031 85.789062 134.460938 C 86.3125 139.945312 86.660156 140.816406 89.441406 143.257812 C 91.617188 145.347656 92.3125 146.480469 91.878906 147.871094 C 90.835938 150.917969 86.570312 151.964844 74.21875 151.964844 C 63.949219 151.964844 62.558594 151.789062 60.296875 150.136719 C 57.078125 147.699219 57.25 145.433594 60.644531 143.257812 C 64.125 141.167969 64.734375 139.164062 64.820312 130.105469 C 64.820312 123.921875 64.558594 122.703125 62.472656 119.570312 C 58.644531 113.734375 49.507812 104.503906 46.375 103.195312 C 41.328125 101.105469 42.808594 97.015625 49.160156 95.445312 C 50.117188 95.273438 56.292969 95.097656 62.820312 95.183594 C 73.957031 95.359375 74.914062 95.535156 76.738281 97.273438 Z M 569.199219 95.792969 C 573.113281 96.925781 577.726562 101.976562 577.726562 105.113281 C 577.726562 108.421875 574.59375 111.46875 571.113281 111.46875 C 568.851562 111.46875 567.371094 110.597656 564.238281 107.464844 C 559.804688 103.109375 557.453125 102.761719 557.019531 106.417969 C 556.84375 108.160156 557.453125 109.207031 559.976562 111.207031 C 561.804688 112.515625 564.152344 114.519531 565.285156 115.5625 C 566.851562 117.042969 568.417969 117.566406 571.289062 117.566406 L 575.203125 117.566406 L 574.941406 122.09375 C 574.679688 126.535156 574.59375 126.710938 572.070312 126.972656 C 568.15625 127.40625 567.285156 128.625 567.371094 133.15625 C 567.546875 139.335938 568.328125 141.167969 571.636719 142.734375 C 575.726562 144.648438 576.246094 148.132812 572.855469 150.308594 C 569.285156 152.75 550.667969 153.097656 546.402344 150.917969 C 542.226562 148.742188 541.707031 145.257812 545.445312 143.34375 C 548.40625 141.777344 549.273438 138.902344 548.839844 131.933594 C 548.578125 127.753906 548.492188 127.582031 545.792969 127.320312 C 543.011719 127.058594 542.921875 126.972656 542.921875 122.703125 C 542.921875 119.046875 543.183594 118.4375 544.664062 118.4375 C 546.75 118.4375 546.925781 116.347656 545.097656 113.210938 C 544.402344 111.992188 543.878906 109.378906 543.792969 107.375 C 543.792969 100.324219 551.015625 95.011719 560.761719 94.921875 C 563.632812 94.921875 567.460938 95.359375 569.199219 95.792969 Z M 180.105469 106.679688 C 180.105469 115.5625 180.367188 117.566406 181.324219 117.566406 C 182.019531 117.566406 183.238281 116.695312 183.933594 115.738281 C 188.71875 108.769531 200.464844 108.945312 205.683594 116 C 207.164062 118.089844 207.511719 120.265625 207.859375 130.976562 C 208.382812 142.648438 208.554688 143.777344 210.382812 145.433594 C 212.730469 147.699219 212.730469 148.21875 210.558594 150.222656 C 208.292969 152.3125 194.984375 153.183594 190.285156 151.617188 C 186.367188 150.308594 185.847656 148.742188 187.933594 145.171875 C 189.328125 142.996094 189.675781 140.816406 189.675781 134.808594 C 189.675781 128.101562 189.414062 126.972656 187.585938 124.792969 C 185.761719 122.703125 185.238281 122.53125 183.0625 123.226562 L 180.539062 124.097656 L 180.277344 133.503906 C 180.105469 140.816406 180.367188 143.257812 181.410156 144.824219 C 185.152344 150.136719 180.539062 152.75 168.183594 152.226562 C 161.222656 151.964844 159.746094 151.617188 158.089844 149.960938 C 156.785156 148.570312 156.4375 147.699219 157.046875 146.828125 C 161.570312 140.730469 161.398438 141.515625 161.660156 125.230469 L 162.007812 109.726562 L 159.136719 107.203125 C 156.613281 104.851562 156.4375 104.328125 157.308594 102.414062 C 158.089844 100.671875 159.65625 99.800781 164.617188 98.40625 C 168.097656 97.363281 171.402344 96.402344 171.839844 96.230469 C 172.359375 96.054688 174.363281 95.882812 176.449219 95.882812 L 180.105469 95.792969 Z M 486.457031 119.21875 L 486.109375 142.210938 L 488.980469 144.5625 C 491.503906 146.652344 491.675781 147.089844 490.804688 148.828125 C 489.238281 151.617188 486.367188 152.398438 476.972656 152.398438 C 468.269531 152.398438 465.140625 151.53125 463.398438 148.65625 C 462.617188 147.347656 462.878906 146.738281 465.050781 144.910156 L 467.664062 142.820312 L 467.664062 110.511719 L 464.703125 108.074219 C 462.269531 106.070312 461.832031 105.285156 462.355469 103.371094 C 462.617188 102.066406 464.007812 100.496094 465.488281 99.714844 C 469.488281 97.625 477.667969 95.882812 482.453125 96.054688 L 486.804688 96.230469 Z M 142.691406 112.515625 C 149.042969 115.824219 150 117.828125 150.523438 129.582031 C 150.957031 139.078125 151.042969 139.859375 152.957031 140.644531 C 156.613281 142.296875 154.871094 147.175781 149.304688 150.570312 C 145.5625 152.921875 140.167969 152.921875 137.210938 150.660156 C 134.511719 148.480469 133.816406 148.480469 130.335938 150.660156 C 126.941406 152.75 120.503906 152.921875 116.152344 151.179688 C 112.5 149.613281 109.628906 145.171875 109.628906 141.078125 C 109.628906 134.113281 115.894531 129.148438 126.074219 128.191406 L 131.816406 127.582031 L 132.078125 124.359375 C 132.425781 120.613281 131.03125 117.566406 129.117188 117.566406 C 128.421875 117.566406 125.984375 119.480469 123.636719 121.921875 C 120.503906 125.230469 118.765625 126.273438 116.851562 126.273438 C 113.804688 126.273438 112.238281 124.882812 112.238281 122.09375 C 112.238281 119.046875 113.542969 117.042969 117.113281 114.953125 C 124.679688 110.25 136.078125 109.207031 142.691406 112.515625 Z M 248.839844 112.429688 C 256.234375 115.738281 260.671875 121.832031 261.628906 129.757812 C 263.023438 141.339844 250.753906 152.226562 236.222656 152.398438 C 226.304688 152.398438 219.867188 149.003906 216.210938 141.6875 C 210.382812 129.84375 216.558594 116.78125 230.308594 111.816406 C 235.355469 110.078125 244.230469 110.335938 248.839844 112.429688 Z M 300.261719 113.039062 C 310.265625 118.261719 314.792969 130.195312 310.09375 139.335938 C 308.527344 142.472656 302.957031 147.523438 298.433594 149.875 C 295.128906 151.617188 293.214844 151.964844 286.253906 151.964844 C 278.769531 151.964844 277.640625 151.703125 273.8125 149.527344 C 267.980469 146.042969 265.109375 141.339844 264.675781 134.546875 C 264.238281 127.753906 265.546875 123.574219 269.546875 119.132812 C 274.769531 113.386719 280.945312 110.773438 289.820312 110.6875 C 294.605469 110.597656 296.433594 111.035156 300.261719 113.039062 Z M 373 113.734375 C 381.527344 119.046875 385.355469 130.890625 381.175781 139.078125 C 378.828125 143.777344 373.171875 148.480469 367.257812 150.746094 C 358.207031 154.140625 345.851562 152.050781 340.546875 146.128906 C 336.71875 141.949219 335.671875 138.640625 336.019531 131.585938 C 336.28125 126.101562 336.71875 124.359375 338.804688 121.3125 C 343.675781 114.082031 351.683594 110.425781 362.121094 110.859375 C 367.777344 111.121094 369.519531 111.558594 373 113.734375 Z M 407.714844 112.949219 C 408.757812 118 408.847656 118 411.804688 115.214844 C 413.371094 113.734375 415.457031 112.078125 416.503906 111.558594 C 419.460938 110.078125 425.203125 110.425781 428.945312 112.339844 C 434.078125 114.953125 435.121094 117.828125 435.644531 130.542969 C 435.992188 139.511719 436.339844 141.949219 437.730469 143.867188 C 438.601562 145.171875 439.386719 147 439.386719 147.871094 C 439.386719 151.09375 436.949219 151.964844 427.292969 152.226562 C 419.027344 152.574219 417.808594 152.398438 415.894531 150.832031 L 413.71875 149.003906 L 415.71875 145.519531 C 417.285156 142.734375 417.632812 140.644531 417.632812 135.070312 C 417.632812 126.621094 416.761719 123.921875 413.632812 123.140625 C 411.804688 122.617188 410.933594 122.964844 409.628906 124.53125 C 407.539062 127.058594 407.367188 140.207031 409.367188 144.039062 C 411.457031 147.957031 411.019531 149.699219 407.628906 151.179688 C 404.058594 152.660156 393.011719 152.835938 389.09375 151.441406 C 385.527344 150.222656 384.746094 147.609375 387.179688 145 C 388.835938 143.257812 389.183594 141.6875 389.53125 133.851562 C 390.050781 124.792969 389.964844 124.621094 387.703125 122.53125 C 384.917969 119.917969 384.746094 117.128906 387.441406 115.738281 C 390.835938 113.820312 401.449219 110.6875 404.320312 110.597656 C 406.757812 110.597656 407.28125 110.949219 407.714844 112.949219 Z M 529.089844 113.039062 C 539.09375 118.261719 543.621094 130.195312 538.921875 139.335938 C 537.355469 142.472656 531.785156 147.523438 527.261719 149.875 C 523.957031 151.617188 522.042969 151.964844 515.082031 151.964844 C 507.597656 151.964844 506.46875 151.703125 502.640625 149.527344 C 496.808594 146.042969 493.9375 141.339844 493.503906 134.546875 C 493.070312 127.753906 494.375 123.574219 498.375 119.132812 C 503.597656 113.386719 509.773438 110.773438 518.648438 110.6875 C 523.433594 110.597656 525.261719 111.035156 529.089844 113.039062 Z M 612.007812 111.558594 C 616.183594 112.6875 622.707031 118.699219 624.796875 123.226562 C 631.234375 137.335938 618.707031 152.398438 600.523438 152.398438 C 583.035156 152.398438 573.113281 136.203125 581.902344 122.007812 C 584.425781 117.828125 590.863281 112.863281 595.476562 111.558594 C 599.304688 110.425781 608.003906 110.425781 612.007812 111.558594 Z M 661.164062 112.863281 C 668.824219 116.695312 673 125.753906 669.953125 131.585938 C 669.082031 133.066406 668.039062 133.242188 658.292969 133.242188 C 646.460938 133.242188 645.070312 133.851562 648.289062 137.945312 C 651.507812 142.125 657.597656 142.734375 663.253906 139.425781 C 666.210938 137.769531 668.5625 138.902344 668.910156 142.210938 C 669.519531 147 661.601562 151.617188 652.03125 152.226562 C 646.722656 152.574219 645.070312 152.3125 641.066406 150.398438 C 628.539062 144.738281 625.144531 128.886719 634.195312 118.351562 C 640.71875 110.597656 652.03125 108.335938 661.164062 112.863281 Z M 707.105469 113.996094 C 711.109375 119.917969 710.671875 123.835938 706.0625 124.359375 C 704.496094 124.53125 702.929688 124.011719 701.363281 122.53125 C 697.621094 119.046875 695.1875 118.089844 693.707031 119.480469 C 692.226562 120.960938 693.011719 123.402344 695.1875 124.097656 C 698.753906 125.230469 707.367188 131.585938 708.585938 134.023438 C 709.367188 135.417969 709.976562 138.207031 709.976562 140.121094 C 709.976562 142.996094 709.367188 144.386719 706.84375 147.175781 C 702.582031 151.878906 699.1875 152.75 687.878906 151.964844 C 679.4375 151.441406 678.480469 151.179688 676.914062 149.179688 C 674.390625 145.957031 672.910156 140.382812 674.042969 138.640625 C 675.609375 136.117188 678.046875 136.550781 682.484375 140.207031 C 686.921875 143.867188 687.269531 144.039062 689.441406 143.167969 C 692.054688 142.125 690.835938 140.296875 684.832031 136.375 C 677.347656 131.5 675.609375 129.0625 675.609375 123.140625 C 675.609375 119.480469 676.042969 118.089844 677.785156 116.171875 C 682.394531 111.207031 684.308594 110.597656 695.097656 110.859375 L 705.105469 111.035156 Z M 731.03125 113.125 C 733.554688 115.390625 733.902344 116.171875 733.902344 120.179688 C 733.902344 124.183594 733.554688 124.96875 731.03125 127.234375 C 727.8125 130.105469 723.636719 130.542969 719.546875 128.453125 C 716.328125 126.796875 715.195312 124.707031 715.195312 120.179688 C 715.195312 115.738281 716.242188 113.648438 719.375 111.992188 C 723.375 109.816406 727.8125 110.25 731.03125 113.125 Z M 731.03125 135.765625 C 733.554688 138.03125 733.902344 138.816406 733.902344 142.820312 C 733.902344 146.828125 733.554688 147.609375 731.03125 149.875 C 727.8125 152.75 723.636719 153.183594 719.546875 151.09375 C 716.328125 149.4375 715.195312 147.347656 715.195312 142.820312 C 715.195312 138.378906 716.242188 136.289062 719.375 134.636719 C 723.375 132.457031 727.8125 132.894531 731.03125 135.765625 Z M 80.65625 192.460938 C 82.222656 193.332031 84.832031 196.03125 86.484375 198.292969 C 89.441406 202.300781 98.753906 220.414062 104.320312 232.78125 C 106.496094 237.570312 107.539062 238.875 109.628906 239.660156 C 111.976562 240.445312 112.324219 240.964844 112.066406 243.316406 C 111.71875 247.0625 108.238281 248.109375 95.445312 248.109375 C 83.351562 248.195312 79.175781 246.976562 79.175781 243.40625 C 79.175781 241.835938 79.871094 240.878906 81.351562 240.183594 C 84.222656 238.875 83.960938 235.914062 80.917969 235.042969 C 79.699219 234.695312 75.695312 234.433594 72.042969 234.347656 C 67.082031 234.261719 64.996094 234.609375 64.039062 235.65625 C 62.382812 237.308594 62.210938 239.484375 63.777344 239.484375 C 66.210938 239.484375 68.125 241.75 67.605469 244.015625 C 66.820312 246.976562 63.167969 248.195312 54.902344 248.195312 C 47.246094 248.195312 44.027344 246.886719 43.675781 243.839844 C 43.503906 242.097656 44.113281 241.316406 46.722656 239.921875 C 49.507812 238.441406 50.726562 236.699219 54.988281 228.164062 C 62.035156 214.144531 65.253906 205.4375 65.253906 200.734375 C 65.253906 195.855469 66.300781 193.765625 69.429688 192.113281 C 72.738281 190.28125 77.347656 190.457031 80.65625 192.460938 Z M 211.253906 192.980469 C 212.472656 193.851562 213.167969 195.246094 213.167969 196.8125 C 213.167969 201.429688 206.121094 205 198.027344 204.476562 C 194.632812 204.304688 193.417969 203.78125 192.113281 201.953125 C 189.238281 198.121094 191.9375 194.8125 200.117188 192.113281 C 202.988281 191.242188 209.425781 191.675781 211.253906 192.980469 Z M 477.667969 193.332031 C 480.886719 196.554688 479.410156 200.472656 473.925781 202.996094 C 469.402344 205 461.398438 205.175781 458.699219 203.257812 C 456.265625 201.605469 456.175781 197.683594 458.441406 195.59375 C 462.878906 191.589844 474.535156 190.195312 477.667969 193.332031 Z M 737.820312 193.332031 C 742.953125 198.46875 735.730469 204.652344 724.769531 204.652344 C 722.59375 204.652344 719.894531 204.042969 718.851562 203.257812 C 716.503906 201.605469 716.328125 197.683594 718.503906 195.683594 C 722.941406 191.675781 734.6875 190.195312 737.820312 193.332031 Z M 807.945312 201.605469 C 808.035156 206.828125 808.121094 211.707031 808.207031 212.226562 C 808.382812 213.96875 810.730469 213.535156 811.773438 211.53125 C 814.386719 206.742188 823.347656 204.914062 829.175781 208.046875 C 834.308594 210.746094 835.179688 213.359375 835.875 227.121094 C 836.3125 237.570312 836.660156 239.660156 838.050781 240.878906 C 840.574219 243.230469 840.050781 245.496094 836.570312 246.976562 C 832.484375 248.628906 820.300781 248.628906 816.996094 246.886719 C 813.949219 245.320312 813.777344 244.1875 815.953125 241.226562 C 817.082031 239.484375 817.429688 237.222656 817.429688 230.515625 C 817.429688 222.503906 817.257812 221.808594 815.34375 220.242188 C 812.90625 218.238281 811.773438 218.148438 809.511719 219.804688 C 808.035156 220.9375 807.859375 222.15625 807.859375 229.644531 C 807.859375 236.4375 808.207031 238.789062 809.425781 240.617188 C 812.730469 245.757812 808.902344 248.195312 797.941406 248.109375 C 789.152344 248.109375 785.324219 246.714844 784.976562 243.667969 C 784.804688 242.097656 785.238281 241.054688 786.457031 240.445312 C 789.066406 238.964844 790.195312 231.648438 789.847656 217.191406 L 789.589844 204.476562 L 787.238281 202.734375 C 784.195312 200.558594 784.105469 198.121094 786.976562 196.292969 C 790.109375 194.203125 800.289062 191.589844 804.378906 191.851562 L 807.859375 192.023438 Z M 301.21875 201.34375 L 301.480469 205.957031 L 307.394531 206.21875 L 313.3125 206.480469 L 312.789062 214.667969 L 307.132812 215.101562 L 301.480469 215.539062 L 301.21875 223.984375 C 301.042969 231.648438 301.132812 232.605469 302.871094 234.347656 C 304.175781 235.65625 305.21875 236.003906 306.527344 235.566406 C 307.570312 235.21875 309.398438 234.871094 310.613281 234.785156 C 312.527344 234.695312 312.789062 235.132812 313.050781 237.832031 C 313.3125 240.617188 312.878906 241.402344 310.179688 243.578125 C 301.390625 250.894531 287.820312 249.414062 283.644531 240.792969 C 282.164062 237.746094 281.902344 235.394531 281.902344 225.726562 L 281.902344 214.230469 L 278.335938 214.230469 C 274.941406 214.230469 274.855469 214.144531 275.117188 211.445312 C 275.378906 208.917969 276.335938 208.136719 284.949219 202.734375 C 292.167969 198.292969 295.300781 196.8125 297.738281 196.8125 L 300.957031 196.8125 Z M 771.054688 201.34375 L 771.316406 205.957031 L 777.234375 206.21875 L 783.148438 206.480469 L 782.886719 210.574219 L 782.628906 214.667969 L 776.972656 215.101562 L 771.316406 215.539062 L 771.054688 223.984375 C 770.882812 231.648438 770.96875 232.605469 772.707031 234.347656 C 774.015625 235.65625 775.058594 236.003906 776.363281 235.566406 C 777.40625 235.21875 779.234375 234.871094 780.453125 234.785156 C 782.367188 234.695312 782.628906 235.132812 782.886719 237.832031 C 783.148438 240.617188 782.714844 241.402344 780.015625 243.578125 C 771.230469 250.894531 757.65625 249.414062 753.480469 240.792969 C 752 237.746094 751.738281 235.394531 751.738281 225.726562 L 751.738281 214.230469 L 748.171875 214.230469 C 744.78125 214.230469 744.691406 214.144531 744.953125 211.445312 C 745.214844 208.917969 746.171875 208.136719 754.785156 202.734375 C 762.007812 198.292969 765.140625 196.8125 767.574219 196.8125 L 770.792969 196.8125 Z M 135.730469 209.441406 C 136.253906 212.578125 138.6875 213.359375 140.082031 210.835938 C 142.429688 206.394531 152 204.914062 157.222656 208.136719 C 162.09375 211.097656 162.878906 213.1875 163.660156 226.074219 C 164.355469 235.914062 164.792969 238.265625 166.269531 240.269531 C 170.1875 245.582031 166.183594 248.195312 154.351562 248.195312 C 143.648438 248.195312 140.601562 246.105469 143.996094 240.964844 C 146.78125 236.699219 146.695312 222.679688 143.910156 219.890625 C 142.167969 218.238281 139.734375 218.238281 137.992188 219.980469 C 135.90625 221.980469 135.992188 237.484375 138.167969 241.140625 C 139.644531 243.753906 139.558594 243.839844 137.730469 245.757812 C 135.992188 247.410156 134.6875 247.757812 127.292969 248.019531 C 117.894531 248.28125 114.589844 247.324219 114.152344 244.015625 C 113.980469 242.96875 114.675781 241.054688 115.632812 239.835938 C 117.199219 237.832031 117.460938 236.265625 117.460938 228.773438 C 117.460938 220.414062 117.371094 219.890625 115.109375 217.539062 C 112.324219 214.667969 112.847656 212.925781 117.113281 210.835938 C 121.199219 208.746094 129.902344 206.480469 132.6875 206.65625 C 134.859375 206.828125 135.382812 207.265625 135.730469 209.441406 Z M 213.863281 222.15625 C 214.039062 237.222656 214.125 237.484375 216.210938 239.484375 C 218.824219 242.011719 218.996094 243.925781 216.558594 246.105469 C 215.167969 247.410156 213.078125 247.757812 206.378906 248.019531 C 192.113281 248.542969 187.152344 245.320312 192.894531 239.3125 C 195.242188 236.875 195.332031 236.4375 195.242188 228.339844 C 195.070312 220.414062 194.984375 219.890625 192.808594 218.148438 C 190.285156 216.148438 189.847656 213.273438 191.9375 211.617188 C 194.113281 209.789062 206.378906 206.394531 210.121094 206.65625 L 213.601562 206.828125 Z M 242.75 209.878906 C 243.269531 213.273438 244.925781 213.535156 246.925781 210.660156 C 249.882812 206.394531 258.148438 205.085938 263.632812 208.046875 C 268.851562 210.835938 269.984375 213.96875 270.589844 226.511719 C 271.027344 236.4375 271.289062 237.917969 273.113281 240.445312 C 276.855469 245.496094 273.027344 248.195312 261.71875 248.195312 C 249.882812 248.195312 247.796875 246.628906 251.101562 240.097656 C 253.191406 236.175781 253.191406 223.984375 251.1875 220.851562 C 249.535156 218.324219 247.449219 217.976562 244.925781 219.804688 C 242.574219 221.460938 241.878906 235.304688 243.96875 239.3125 C 247.273438 245.757812 244.140625 248.195312 232.570312 248.195312 C 222.304688 248.195312 217.867188 245.058594 221.867188 240.792969 C 223.867188 238.703125 224.042969 237.65625 224.304688 229.035156 C 224.652344 219.71875 224.566406 219.542969 222.390625 218.148438 C 219.519531 216.234375 219.429688 212.925781 222.128906 211.53125 C 226.042969 209.355469 236.3125 206.394531 239.269531 206.65625 C 242.054688 206.828125 242.3125 207.089844 242.75 209.878906 Z M 346.808594 208.484375 C 352.898438 211.269531 356.03125 215.625 356.554688 221.722656 C 357.164062 228.773438 356.730469 229.035156 344.027344 229.035156 L 333.238281 229.035156 L 333.238281 231.125 C 333.238281 233.476562 336.542969 236.613281 340.023438 237.484375 C 342.023438 238.003906 344.546875 237.394531 350.464844 235.042969 C 353.769531 233.652344 354.988281 234.695312 354.988281 238.789062 C 354.988281 243.492188 345.679688 248.195312 336.367188 248.195312 C 319.925781 248.195312 309.832031 231.125 318.011719 217.191406 C 323.753906 207.4375 336.367188 203.605469 346.808594 208.484375 Z M 382.308594 209.617188 C 383.179688 212.925781 384.136719 213.1875 385.441406 210.746094 C 387.878906 206.132812 395.535156 205.085938 399.363281 208.832031 C 401.539062 211.097656 401.796875 211.183594 402.753906 209.703125 C 404.234375 207.351562 410.324219 206.21875 419.894531 206.566406 C 429.03125 206.917969 431.554688 207.785156 431.554688 210.746094 C 431.554688 211.617188 430.945312 212.75 430.164062 213.449219 C 428.421875 214.929688 429.117188 219.109375 431.640625 221.722656 C 433.992188 224.246094 435.296875 223.636719 437.210938 219.371094 C 438.6875 216.058594 438.6875 215.886719 437.121094 212.925781 C 435.558594 210.050781 435.558594 209.789062 437.035156 208.398438 C 438.949219 206.480469 451.132812 205.695312 454.089844 207.175781 C 456.960938 208.746094 456.351562 211.269531 452.785156 213.097656 C 450 214.492188 448.609375 216.496094 441.996094 229.296875 C 433.554688 245.496094 431.730469 248.195312 428.597656 248.195312 C 425.636719 248.195312 423.550781 245.148438 415.285156 229.472656 C 409.890625 219.195312 407.886719 216.148438 405.886719 215.1875 C 404.410156 214.492188 402.929688 213.535156 402.582031 213.011719 C 402.144531 212.488281 402.058594 212.839844 402.40625 213.882812 C 402.667969 214.929688 402.234375 217.453125 401.449219 219.371094 C 399.015625 225.550781 392.226562 227.46875 387.355469 223.375 C 385.875 222.15625 384.398438 221.199219 383.875 221.199219 C 382.132812 221.199219 381.4375 227.902344 382.484375 234.347656 C 382.917969 236.875 383.613281 237.832031 385.960938 238.964844 C 388.398438 240.097656 388.921875 240.792969 388.921875 242.96875 C 388.921875 246.886719 385.179688 248.195312 374.390625 248.109375 C 363.253906 248.109375 359.859375 246.976562 359.511719 243.230469 C 359.339844 241.226562 359.773438 240.183594 361.164062 239.136719 C 363.253906 237.746094 364.386719 232.695312 364.472656 224.507812 C 364.558594 220.9375 364.210938 219.980469 361.949219 217.976562 C 357.25 213.796875 358.992188 211.183594 368.648438 208.046875 C 371.433594 207.175781 375.433594 206.566406 377.609375 206.65625 C 381.175781 206.828125 381.527344 207.089844 382.308594 209.617188 Z M 479.410156 208.222656 C 480.015625 209.265625 480.277344 214.929688 480.191406 223.460938 L 480.015625 236.875 L 482.367188 239.398438 C 485.410156 242.621094 484.804688 245.234375 480.625 246.976562 C 477.144531 248.457031 463.226562 248.628906 459.65625 247.238281 C 455.308594 245.582031 454.785156 243.230469 458.179688 240.097656 C 460.003906 238.355469 460.527344 236.960938 460.875 232.257812 C 461.570312 223.722656 460.613281 219.019531 458.089844 217.890625 C 455.570312 216.757812 455.132812 213.359375 457.308594 211.617188 C 459.222656 209.964844 471.402344 206.480469 475.230469 206.480469 C 477.667969 206.394531 478.710938 206.828125 479.410156 208.222656 Z M 518.472656 208.65625 C 526.132812 212.488281 530.308594 221.546875 527.261719 227.382812 C 526.390625 228.863281 525.347656 229.035156 515.429688 229.035156 L 504.554688 229.035156 L 504.8125 231.386719 C 504.988281 232.953125 506.121094 234.433594 508.121094 235.828125 C 511.515625 238.09375 515.253906 238.003906 520.648438 235.394531 C 524.21875 233.738281 526.390625 234.785156 526.390625 238.265625 C 526.390625 241.054688 523.78125 243.492188 518.300781 246.105469 C 512.90625 248.542969 504.03125 248.980469 499.070312 246.886719 C 486.019531 241.402344 482.191406 224.941406 491.503906 214.144531 C 498.027344 206.394531 509.339844 204.128906 518.472656 208.65625 Z M 556.148438 208.746094 C 557.800781 210.398438 557.886719 211.007812 557.019531 212.925781 C 556.148438 214.839844 556.234375 215.710938 557.714844 218.671875 C 559.890625 222.851562 561.890625 223.8125 563.457031 221.632812 C 565.285156 219.195312 564.9375 216.496094 562.5 214.230469 C 559.804688 211.707031 559.714844 209.355469 562.324219 208.046875 C 565.109375 206.480469 581.46875 205.871094 584.601562 207.265625 C 587.820312 208.570312 588.863281 211.183594 586.949219 213.273438 C 585.207031 215.1875 585.207031 216.058594 587.035156 219.890625 C 588.949219 223.898438 591.300781 223.636719 593.648438 219.109375 C 595.300781 215.972656 595.300781 215.625 593.910156 213.359375 C 591.210938 208.746094 594.429688 206.394531 603.21875 206.394531 C 612.703125 206.394531 615.398438 210.488281 608.875 214.839844 C 605.65625 216.929688 604.261719 219.019531 598.609375 230.082031 C 591.648438 243.753906 588.515625 248.195312 585.816406 248.195312 C 583.554688 248.195312 580.421875 244.710938 575.984375 237.308594 C 573.898438 233.914062 571.808594 230.953125 571.289062 230.605469 C 570.070312 229.734375 568.242188 231.996094 564.152344 239.3125 C 560.0625 246.714844 558.757812 248.195312 556.324219 248.195312 C 553.800781 248.195312 552.144531 246.105469 542.574219 229.992188 C 536.921875 220.414062 533.875 216.148438 532.046875 215.101562 C 529.089844 213.449219 528.304688 210.660156 530.308594 209.007812 C 532.570312 207.089844 536.921875 206.480469 545.792969 206.65625 C 553.191406 206.828125 554.496094 207.175781 556.148438 208.746094 Z M 656.816406 207.351562 C 660.382812 208.570312 661.601562 210.835938 660.296875 213.621094 C 659.511719 215.449219 659.6875 216.410156 661.339844 219.371094 C 663.601562 223.375 664.90625 223.8125 666.820312 221.023438 C 668.824219 218.238281 668.5625 216.320312 665.953125 214.320312 C 662.820312 211.792969 663.429688 208.917969 667.34375 207.527344 C 671.433594 206.132812 685.441406 206.132812 688.226562 207.527344 C 690.835938 208.832031 691.53125 212.054688 689.617188 214.058594 C 688.484375 215.449219 688.484375 215.972656 689.964844 219.28125 C 692.140625 223.984375 694.230469 224.070312 696.839844 219.457031 C 698.578125 216.234375 698.664062 215.886719 697.449219 213.449219 C 694.835938 208.484375 697.621094 206.394531 706.757812 206.394531 C 716.152344 206.394531 719.199219 210.921875 712.238281 214.578125 C 709.28125 216.234375 708.0625 217.976562 701.710938 230.253906 C 690.488281 251.851562 689.09375 252.460938 680.570312 239.136719 C 677.695312 234.609375 674.914062 230.691406 674.476562 230.429688 C 673.347656 229.734375 672.042969 231.472656 666.910156 240.269531 C 662.210938 248.28125 660.035156 249.761719 656.816406 246.800781 C 655.859375 245.929688 651.160156 238.617188 646.289062 230.515625 C 639.414062 219.019531 636.976562 215.625 635.0625 214.929688 C 630.539062 213.359375 631.234375 208.832031 636.28125 207.351562 C 640.195312 206.21875 653.507812 206.21875 656.816406 207.351562 Z M 739.558594 221.632812 C 739.996094 235.742188 740.515625 239.484375 742.257812 239.484375 C 743.734375 239.484375 744.867188 242.882812 743.910156 244.625 C 742.515625 247.324219 737.558594 248.457031 728.25 248.019531 C 721.375 247.757812 719.285156 247.410156 717.894531 246.105469 C 715.457031 243.925781 715.632812 242.621094 718.503906 239.921875 C 720.679688 237.832031 720.851562 237.222656 721.113281 229.125 C 721.375 222.070312 721.199219 220.328125 720.070312 219.371094 C 716.589844 216.410156 716.066406 215.710938 716.066406 214.144531 C 716.066406 211.097656 728.945312 206.304688 736.078125 206.65625 L 739.125 206.828125 Z M 465.921875 264.742188 C 465.660156 265.175781 464.878906 265.613281 464.355469 265.613281 C 463.746094 265.613281 463.835938 265.265625 464.617188 264.742188 C 466.269531 263.695312 466.617188 263.695312 465.921875 264.742188 Z M 476.449219 329.273438 C 476.886719 329.96875 476.972656 437.257812 476.539062 437.78125 C 476.363281 437.867188 421.808594 438.042969 355.25 438.042969 C 261.28125 438.128906 234.046875 438.390625 233.789062 439.175781 C 233.527344 439.957031 233.089844 439.957031 232.222656 439.085938 C 231.175781 438.128906 231.265625 437.695312 232.917969 436.476562 L 234.746094 434.996094 L 234.832031 382.828125 C 234.917969 346.429688 235.265625 330.230469 235.960938 329.445312 C 236.746094 328.488281 258.410156 328.3125 356.46875 328.402344 C 422.15625 328.488281 476.1875 328.835938 476.449219 329.273438 Z M 107.539062 358.269531 C 107.800781 358.882812 107.28125 363.324219 106.410156 368.023438 L 104.84375 376.648438 L 93.53125 376.648438 L 93.792969 373.335938 C 94.054688 370.203125 94.054688 370.113281 91.007812 370.113281 C 88.136719 370.113281 87.964844 370.289062 87.441406 373.335938 C 87.09375 375.167969 86.3125 379.609375 85.703125 383.179688 C 85.003906 386.75 84.222656 391.363281 83.960938 393.367188 L 83.351562 397.023438 L 86.746094 397.285156 L 90.050781 397.546875 L 89.878906 402.335938 C 89.703125 404.949219 89.441406 407.648438 89.183594 408.171875 C 88.746094 409.566406 60.46875 409.828125 59.6875 408.519531 C 58.902344 407.386719 60.992188 398.503906 62.121094 397.808594 C 62.644531 397.460938 64.386719 397.113281 65.953125 397.113281 C 67.515625 397.113281 68.996094 396.589844 69.171875 395.980469 C 69.429688 395.457031 70.386719 390.230469 71.347656 384.484375 C 72.390625 378.738281 73.433594 373.164062 73.695312 372.03125 C 74.128906 370.113281 73.957031 370.027344 70.824219 370.289062 C 67.691406 370.550781 67.34375 370.8125 66.648438 373.773438 L 65.777344 377.082031 L 60.296875 377.082031 C 57.25 377.082031 54.8125 376.734375 54.8125 376.386719 C 54.8125 373.6875 57.773438 359.054688 58.46875 358.097656 C 59.859375 356.53125 106.929688 356.617188 107.539062 358.269531 Z M 135.992188 362.191406 C 135.730469 367.414062 134.6875 369.246094 131.816406 369.246094 C 129.726562 369.246094 128.769531 371.160156 128.769531 375.515625 L 128.769531 377.953125 L 137.820312 377.953125 C 142.867188 377.953125 147.128906 377.605469 147.390625 377.257812 C 147.652344 376.820312 148.085938 374.816406 148.433594 372.902344 C 148.957031 369.332031 148.957031 369.246094 146.605469 369.246094 L 144.171875 369.246094 L 144.78125 364.28125 C 145.128906 361.582031 145.824219 358.792969 146.347656 358.183594 C 147.652344 356.617188 169.578125 356.53125 170.097656 358.097656 C 170.359375 358.707031 170.011719 361.40625 169.402344 364.019531 C 168.445312 368.285156 168.097656 368.808594 165.75 369.246094 C 163.136719 369.679688 163.136719 369.765625 161.222656 380.128906 C 158.613281 394.238281 158.441406 397.460938 160.09375 397.632812 C 163.398438 397.894531 163.398438 397.808594 162.355469 403.382812 L 161.398438 408.867188 L 137.210938 409.390625 L 137.820312 404.339844 C 138.429688 398.765625 138.863281 398.15625 141.820312 397.546875 C 144.257812 397.113281 144.082031 397.375 144.78125 393.367188 L 145.386719 390.144531 L 135.816406 390.144531 C 126.335938 390.144531 126.160156 390.144531 125.636719 392.234375 C 124.855469 395.457031 125.550781 397.546875 127.464844 397.546875 C 129.03125 397.546875 129.207031 398.070312 128.945312 402.335938 C 128.769531 404.949219 128.25 407.648438 127.726562 408.171875 C 126.59375 409.566406 104.757812 409.738281 103.972656 408.433594 C 103.625 407.910156 103.886719 405.386719 104.410156 402.683594 C 105.277344 398.417969 105.714844 397.894531 107.886719 397.375 C 110.847656 396.851562 110.761719 397.023438 113.109375 383.613281 C 114.066406 377.867188 115.023438 372.292969 115.285156 371.246094 C 115.632812 369.679688 115.285156 369.332031 113.371094 369.070312 C 111.109375 368.808594 110.933594 368.632812 111.195312 364.976562 C 111.890625 356.792969 111.542969 356.964844 124.59375 357.226562 L 136.164062 357.488281 Z M 218.996094 358.359375 C 219.429688 359.578125 218.910156 363.0625 216.996094 372.902344 C 216.558594 375.253906 216.300781 375.339844 210.992188 375.339844 L 205.421875 375.339844 L 205.164062 372.464844 L 204.902344 369.679688 L 199.246094 369.417969 C 192.808594 369.15625 191.414062 370.113281 191.414062 375.078125 L 191.414062 377.953125 L 207.25 377.953125 L 206.640625 382.480469 C 206.292969 385.007812 205.597656 387.621094 205.164062 388.140625 C 204.554688 388.925781 201.683594 389.273438 196.636719 389.273438 C 188.371094 389.273438 188.023438 389.535156 187.933594 395.109375 C 187.933594 397.023438 188.28125 397.113281 194.460938 397.113281 L 200.898438 397.113281 L 201.683594 394.238281 C 202.378906 391.539062 202.464844 391.453125 207.859375 391.191406 L 213.429688 390.929688 L 212.730469 396.414062 C 212.296875 399.464844 212.121094 403.292969 212.121094 405.035156 C 212.210938 406.777344 211.863281 408.519531 211.253906 408.957031 C 210.644531 409.390625 200.203125 409.652344 188.023438 409.476562 L 166.007812 409.214844 L 166.617188 405.125 C 167.488281 398.765625 167.921875 397.984375 170.621094 397.375 C 172.011719 397.113281 173.144531 396.851562 173.144531 396.761719 C 173.230469 396.761719 174.363281 390.667969 175.667969 383.351562 C 178.277344 368.984375 178.363281 370.027344 174.1875 368.722656 C 173.316406 368.460938 173.144531 367.414062 173.578125 364.628906 C 174.972656 356.355469 172.882812 357.050781 197.070312 357.050781 C 215.515625 357.050781 218.472656 357.226562 218.996094 358.359375 Z M 538.136719 359.664062 C 544.140625 362.625 546.402344 366.371094 546.402344 372.902344 C 546.402344 379.695312 544.925781 382.828125 539.53125 387.707031 L 535.003906 391.800781 L 536.484375 394.5 C 537.964844 396.851562 538.484375 397.113281 542.664062 397.113281 C 548.316406 397.113281 548.839844 397.984375 547.359375 404.601562 L 546.316406 409.304688 L 523.78125 409.304688 L 523.867188 405.125 C 524.042969 401.988281 523.519531 400.074219 521.695312 397.285156 C 519.691406 393.976562 519.082031 393.628906 516.039062 393.628906 C 512.820312 393.628906 512.644531 393.800781 512.121094 396.851562 C 511.773438 398.679688 511.164062 402.25 510.644531 404.6875 L 509.773438 409.304688 L 500.378906 409.304688 C 495.242188 409.304688 490.804688 409.128906 490.546875 408.867188 C 490.023438 408.347656 491.761719 399.636719 492.71875 398.15625 C 493.15625 397.632812 494.375 397.113281 495.503906 397.113281 C 497.679688 397.113281 498.027344 396.242188 500.289062 382.308594 C 502.550781 369.246094 502.550781 369.246094 499.941406 369.246094 C 497.332031 369.246094 497.417969 369.679688 498.636719 362.453125 L 499.59375 356.878906 L 516.734375 357.226562 C 532.832031 357.488281 534.046875 357.574219 538.136719 359.664062 Z M 601.480469 359.230469 C 601.304688 360.1875 600.957031 363.496094 600.695312 366.632812 C 599.824219 374.992188 599.566406 375.339844 592.953125 375.339844 L 587.382812 375.339844 L 587.121094 372.464844 L 586.863281 369.679688 L 580.769531 369.941406 C 577.464844 370.113281 574.59375 370.289062 574.507812 370.375 C 574.421875 370.464844 574.246094 372.117188 574.070312 374.035156 L 573.8125 377.515625 L 581.46875 377.777344 L 589.039062 378.039062 L 588.949219 380.828125 C 588.863281 382.394531 588.601562 384.746094 588.253906 386.226562 L 587.730469 388.839844 L 579.554688 389.273438 L 571.289062 389.710938 L 570.503906 392.671875 C 570.15625 394.238281 570.070312 395.894531 570.503906 396.152344 C 570.851562 396.503906 573.8125 396.589844 577.03125 396.414062 C 582.511719 396.152344 582.859375 395.980469 583.730469 393.542969 C 584.601562 391.101562 584.859375 391.015625 589.820312 391.015625 C 592.691406 391.015625 595.214844 391.363281 595.476562 391.710938 C 595.910156 392.410156 595.128906 397.984375 593.648438 405.386719 L 592.953125 408.867188 L 570.503906 409.128906 L 548.058594 409.304688 L 548.578125 404.339844 C 549.363281 398.503906 550.144531 397.113281 553.015625 397.113281 C 554.667969 397.113281 555.105469 396.503906 555.886719 392.496094 C 560.238281 371.246094 560.324219 369.503906 557.539062 369.070312 C 555.800781 368.808594 555.539062 368.375 555.800781 365.152344 C 555.886719 363.148438 556.410156 360.449219 556.84375 359.230469 L 557.714844 357.050781 L 579.640625 357.226562 C 601.042969 357.488281 601.652344 357.574219 601.480469 359.230469 Z M 630.972656 358.097656 C 631.234375 358.707031 630.886719 361.320312 630.367188 364.019531 C 629.496094 368.546875 629.320312 368.808594 626.625 369.070312 C 624.449219 369.332031 623.839844 369.679688 624.1875 370.8125 C 624.363281 371.59375 625.492188 376.035156 626.539062 380.566406 C 627.582031 385.09375 628.710938 389.359375 629.058594 390.058594 C 629.496094 390.839844 631.582031 388.054688 635.410156 381.699219 C 642.894531 369.332031 642.808594 369.417969 639.761719 369.070312 C 637.414062 368.808594 637.324219 368.632812 637.675781 364.890625 C 638.28125 356.617188 637.585938 356.964844 653.160156 357.226562 L 666.910156 357.488281 L 666.648438 362.277344 C 666.300781 367.765625 665.429688 369.246094 662.121094 369.246094 C 659.859375 369.246094 658.644531 370.984375 647.15625 389.273438 L 634.714844 409.304688 L 619.664062 409.304688 L 618.269531 404.6875 C 616.707031 399.636719 614.09375 390.230469 611.660156 381 C 608.441406 369.15625 608.699219 369.679688 605.65625 369.246094 C 604.175781 368.984375 602.871094 368.546875 602.871094 368.113281 C 602.785156 365.847656 604.175781 359.054688 604.871094 358.097656 C 606.089844 356.617188 630.539062 356.617188 630.972656 358.097656 Z M 694.75 358.097656 C 695.011719 358.707031 694.664062 361.40625 694.054688 364.019531 C 693.011719 368.546875 692.835938 368.808594 690.140625 369.070312 C 688.660156 369.246094 687.355469 369.59375 687.355469 369.855469 C 687.355469 370.113281 686.398438 375.777344 685.179688 382.480469 C 683.960938 389.273438 683.003906 395.371094 683.179688 396.152344 C 683.351562 396.9375 684.222656 397.546875 685.179688 397.546875 C 686.660156 397.546875 686.921875 398.15625 686.921875 401.902344 C 686.832031 409.566406 687.355469 409.304688 673.347656 409.304688 L 660.992188 409.304688 L 661.601562 404.339844 C 662.210938 398.765625 663.429688 396.851562 665.601562 397.546875 C 667.953125 398.332031 668.734375 396.503906 670.738281 384.484375 C 671.78125 378.214844 672.910156 372.292969 673.171875 371.246094 C 673.519531 369.679688 673.171875 369.332031 671.085938 369.070312 C 668.734375 368.808594 668.648438 368.722656 668.910156 364.019531 C 669.082031 361.40625 669.605469 358.792969 670.128906 358.183594 C 671.433594 356.617188 694.230469 356.53125 694.75 358.097656 Z M 743.5625 357.921875 C 744.171875 358.53125 743.996094 361.320312 742.953125 366.894531 C 742.082031 371.335938 741.300781 374.992188 741.300781 375.078125 C 741.300781 375.253906 738.6875 375.339844 735.558594 375.339844 L 729.902344 375.339844 L 730.164062 372.464844 L 730.421875 369.679688 L 724.070312 369.417969 C 717.980469 369.15625 717.808594 369.246094 716.9375 371.421875 C 716.414062 372.726562 716.066406 374.644531 716.066406 375.863281 C 716.066406 377.953125 716.152344 377.953125 723.984375 377.953125 L 731.902344 377.953125 L 731.292969 382.917969 C 730.945312 385.703125 730.25 388.230469 729.640625 388.578125 C 729.117188 388.925781 725.289062 389.273438 721.199219 389.273438 L 713.71875 389.273438 L 713.109375 391.972656 C 712.066406 397.285156 711.976562 397.199219 719.285156 396.9375 C 726.074219 396.675781 726.074219 396.675781 726.507812 394.0625 C 726.941406 391.539062 727.117188 391.453125 732.078125 391.191406 C 734.859375 391.015625 737.472656 391.277344 737.90625 391.625 C 738.429688 392.234375 737.296875 400.332031 735.644531 407.300781 L 735.207031 409.304688 L 713.457031 409.304688 C 699.796875 409.304688 691.617188 408.957031 691.269531 408.433594 C 690.921875 407.910156 691.183594 405.386719 691.707031 402.773438 C 692.574219 398.417969 692.921875 397.894531 695.445312 397.285156 L 698.230469 396.589844 L 700.144531 385.703125 C 701.1875 379.78125 702.320312 373.597656 702.582031 372.03125 C 703.015625 369.503906 702.929688 369.246094 700.929688 369.246094 C 699.710938 369.246094 698.578125 368.894531 698.230469 368.460938 C 697.796875 367.675781 698.925781 361.144531 699.972656 358.097656 C 700.492188 356.703125 742.167969 356.53125 743.5625 357.921875 Z M 772.359375 358.011719 C 772.96875 358.621094 772.96875 360.363281 772.273438 363.84375 C 771.230469 368.722656 771.230469 368.808594 768.011719 369.070312 L 764.703125 369.332031 L 765.226562 374.296875 C 766.183594 382.917969 766.707031 385.789062 767.3125 385.789062 C 767.664062 385.789062 771.230469 379.433594 775.230469 371.59375 L 782.628906 357.488281 L 787.847656 357.488281 C 793.851562 357.488281 793.328125 356.53125 795.679688 372.292969 C 797.503906 384.917969 797.855469 386.660156 798.636719 386.660156 C 799.246094 386.660156 806.554688 371.246094 806.554688 369.941406 C 806.554688 369.59375 805.511719 369.246094 804.207031 369.070312 C 801.855469 368.808594 801.769531 368.632812 802.117188 364.453125 C 802.640625 356.878906 802.292969 357.050781 816.300781 357.050781 L 828.566406 357.050781 L 827.957031 362.363281 C 827.347656 368.722656 827.089844 369.246094 824.304688 369.246094 C 822.476562 369.246094 821.171875 371.335938 812.210938 389.273438 L 802.203125 409.390625 L 795.417969 409.128906 L 788.71875 408.867188 L 786.628906 395.109375 C 785.410156 387.621094 784.28125 381.4375 784.019531 381.4375 C 783.757812 381.4375 780.367188 387.621094 776.539062 395.195312 L 769.488281 408.867188 L 755.65625 408.867188 L 752.871094 389.710938 C 751.390625 379.171875 750.085938 370.289062 750.085938 369.941406 C 750 369.59375 749.128906 369.246094 748.085938 369.070312 C 746.347656 368.808594 746.085938 368.375 746.347656 365.152344 C 746.433594 363.148438 746.953125 360.449219 747.390625 359.230469 L 748.261719 357.050781 L 759.832031 357.050781 C 766.792969 357.050781 771.75 357.402344 772.359375 358.011719 Z M 203.597656 417.316406 C 206.03125 418.796875 206.292969 419.320312 205.074219 419.578125 C 204.207031 419.753906 202.898438 419.40625 202.203125 418.796875 C 199.941406 416.878906 198.722656 419.230469 200.898438 421.410156 C 202.464844 422.976562 206.207031 428.8125 206.207031 429.683594 C 206.207031 429.769531 204.378906 430.03125 202.117188 430.117188 C 197.246094 430.292969 196.898438 430.464844 198.203125 432.992188 C 202.988281 442.136719 205.945312 445.007812 210.644531 445.007812 C 212.820312 445.007812 213.949219 445.355469 213.601562 445.878906 C 213.253906 446.402344 212.730469 446.578125 212.296875 446.316406 C 211.078125 445.53125 210.296875 447.621094 211.339844 448.839844 C 212.035156 449.625 211.601562 450.667969 209.601562 452.671875 C 208.121094 454.238281 206.554688 455.460938 206.121094 455.460938 C 205.074219 455.460938 205.164062 453.980469 206.207031 453.28125 C 206.730469 453.019531 207.6875 451.539062 208.382812 450.148438 C 209.6875 447.621094 209.6875 447.535156 207.335938 446.664062 C 204.207031 445.53125 201.855469 443.355469 200.898438 440.828125 C 200.464844 439.785156 199.59375 438.914062 198.898438 438.914062 C 198.203125 438.914062 197.332031 438.128906 197.070312 437.171875 C 196.808594 436.214844 196.199219 435.429688 195.765625 435.429688 C 195.332031 435.429688 194.546875 434.644531 194.027344 433.6875 C 193.242188 432.292969 193.417969 431.773438 194.632812 431.335938 C 197.246094 430.378906 200.984375 427.332031 200.464844 426.546875 C 200.203125 426.199219 199.246094 425.851562 198.203125 425.851562 C 196.808594 425.851562 196.636719 425.589844 197.417969 424.71875 C 198.550781 423.238281 195.941406 419.753906 193.675781 419.753906 C 192.113281 419.753906 191.761719 418.449219 193.15625 417.578125 C 193.675781 417.230469 194.722656 417.488281 195.503906 418.097656 C 196.636719 419.144531 197.070312 418.96875 198.289062 417.402344 C 200.027344 414.964844 199.941406 414.964844 203.597656 417.316406 Z M 193.851562 428.289062 C 194.375 429.855469 192.546875 429.507812 191.9375 427.941406 C 191.589844 427.070312 191.851562 426.722656 192.460938 426.894531 C 192.980469 427.070312 193.675781 427.765625 193.851562 428.289062 Z M 191.414062 430.203125 C 191.414062 430.640625 191.066406 431.074219 190.632812 431.074219 C 190.109375 431.074219 189.5 430.640625 189.238281 430.203125 C 188.980469 429.683594 189.328125 429.332031 190.023438 429.332031 C 190.804688 429.332031 191.414062 429.683594 191.414062 430.203125 Z M 207.945312 433.515625 C 209.773438 434.996094 209.773438 434.996094 206.292969 435.082031 C 201.941406 435.253906 201.246094 432.554688 205.421875 432.035156 C 205.769531 431.945312 206.902344 432.644531 207.945312 433.515625 Z M 190.894531 437.605469 C 191.152344 438.304688 191.066406 438.914062 190.632812 438.914062 C 190.195312 438.914062 189.414062 438.304688 188.804688 437.605469 C 187.933594 436.5625 187.933594 436.300781 189.066406 436.300781 C 189.761719 436.300781 190.546875 436.910156 190.894531 437.605469 Z M 195.589844 441.265625 C 194.722656 442.308594 194.375 442.308594 193.242188 441.089844 C 192.023438 439.871094 192.023438 439.609375 193.15625 438.914062 C 194.984375 437.78125 196.984375 439.609375 195.589844 441.265625 Z M 210.992188 441.527344 C 210.730469 441.960938 210.121094 442.394531 209.601562 442.394531 C 209.164062 442.394531 208.816406 441.960938 208.816406 441.527344 C 208.816406 441.003906 209.425781 440.65625 210.207031 440.65625 C 210.90625 440.65625 211.253906 441.003906 210.992188 441.527344 Z M 170.882812 442.832031 C 171.230469 443.703125 170.792969 444.136719 169.664062 444.136719 C 168.707031 444.136719 167.921875 443.527344 167.921875 442.832031 C 167.921875 442.136719 168.445312 441.527344 169.140625 441.527344 C 169.835938 441.527344 170.535156 442.136719 170.882812 442.832031 Z M 258.410156 445.445312 C 259.28125 446.488281 259.28125 446.75 258.0625 446.75 C 257.28125 446.75 256.671875 446.140625 256.671875 445.445312 C 256.671875 444.746094 256.84375 444.136719 257.019531 444.136719 C 257.191406 444.136719 257.800781 444.746094 258.410156 445.445312 Z M 182.105469 452.410156 C 185.671875 454.851562 186.28125 457.113281 183.585938 457.8125 C 182.628906 458.070312 181.84375 458.679688 181.84375 459.117188 C 181.84375 459.640625 181.234375 459.550781 180.539062 458.941406 C 179.320312 457.984375 179.410156 457.722656 180.625 456.765625 C 181.929688 455.894531 181.671875 455.546875 178.710938 454.066406 C 176.101562 452.757812 175.230469 451.800781 175.058594 449.886719 C 174.710938 447.359375 174.796875 447.359375 176.796875 448.753906 C 177.84375 449.625 180.277344 451.191406 182.105469 452.410156 Z M 263.632812 449.449219 C 263.632812 449.886719 263.28125 450.234375 262.761719 450.234375 C 262.324219 450.234375 261.890625 449.625 261.890625 448.839844 C 261.890625 448.144531 262.324219 447.796875 262.761719 448.058594 C 263.28125 448.316406 263.632812 448.929688 263.632812 449.449219 Z M 216.125 451.277344 C 215.863281 451.714844 215.082031 451.628906 214.386719 451.019531 C 213.777344 450.496094 213.429688 449.710938 213.6875 449.1875 C 213.949219 448.753906 214.734375 448.839844 215.429688 449.449219 C 216.039062 449.972656 216.386719 450.757812 216.125 451.277344 Z M 532.917969 451.800781 C 532.65625 452.0625 531.960938 451.800781 531.351562 451.191406 C 530.570312 450.320312 530.65625 450.234375 531.875 450.757812 C 532.742188 451.019531 533.179688 451.539062 532.917969 451.800781 Z M 418.242188 453.019531 C 417.980469 453.71875 417.71875 453.457031 417.71875 452.5 C 417.632812 451.539062 417.894531 451.019531 418.15625 451.367188 C 418.417969 451.628906 418.503906 452.410156 418.242188 453.019531 Z M 190.804688 457.289062 C 193.765625 458.855469 195.765625 460.859375 195.242188 461.730469 C 194.984375 462.164062 194.199219 461.992188 193.417969 461.382812 C 192.71875 460.773438 191.328125 459.902344 190.285156 459.378906 C 188.542969 458.507812 187.152344 456.332031 188.371094 456.332031 C 188.632812 456.332031 189.761719 456.765625 190.804688 457.289062 Z M 273.722656 460.421875 C 272.855469 461.292969 272.070312 459.988281 272.855469 458.855469 C 273.375 457.898438 273.550781 457.898438 273.898438 458.855469 C 274.070312 459.464844 273.984375 460.160156 273.722656 460.421875 Z M 190.546875 464.253906 C 190.546875 464.777344 190.195312 464.863281 189.675781 464.601562 C 189.238281 464.34375 188.804688 463.644531 188.804688 463.210938 C 188.804688 462.6875 189.238281 462.601562 189.675781 462.863281 C 190.195312 463.121094 190.546875 463.820312 190.546875 464.253906 Z M 197.503906 465.214844 C 197.503906 468.085938 196.113281 470.089844 194.894531 468.871094 C 194.199219 468.175781 194.199219 467.304688 194.984375 465.648438 C 196.289062 462.773438 197.503906 462.601562 197.503906 465.214844 Z M 282.773438 464.691406 C 282.773438 464.863281 282.164062 465.039062 281.46875 465.039062 C 280.769531 465.039062 280.164062 464.691406 280.164062 464.167969 C 280.164062 463.734375 280.769531 463.558594 281.46875 463.820312 C 282.164062 464.167969 282.773438 464.515625 282.773438 464.691406 Z M 206.207031 467.214844 C 206.207031 467.914062 205.597656 468.523438 204.902344 468.523438 C 203.507812 468.523438 201.59375 465.5625 202.464844 464.777344 C 203.25 463.90625 206.207031 465.824219 206.207031 467.214844 Z M 163.574219 470.785156 C 163.574219 471.484375 163.226562 471.832031 162.703125 471.570312 C 162.269531 471.308594 161.832031 470.699219 161.832031 470.175781 C 161.832031 469.742188 162.269531 469.394531 162.703125 469.394531 C 163.226562 469.394531 163.574219 470.003906 163.574219 470.785156 Z M 197.855469 473.921875 C 198.8125 474.792969 199.246094 475.75 198.984375 476.097656 C 198.636719 476.359375 198.375 476.1875 198.375 475.664062 C 198.375 475.054688 197.941406 474.617188 197.503906 474.617188 C 196.199219 474.617188 191.414062 470.960938 191.414062 470.003906 C 191.414062 469.132812 195.15625 471.394531 197.855469 473.921875 Z M 206.207031 471.484375 C 206.207031 473.398438 204.554688 474.007812 203.074219 472.789062 C 202.03125 471.917969 202.03125 471.570312 202.898438 471.046875 C 204.640625 469.914062 206.207031 470.175781 206.207031 471.484375 Z M 475.492188 471.917969 C 479.320312 472.355469 483.671875 473.226562 485.0625 473.835938 C 487.5 474.878906 486.890625 474.964844 477.84375 475.664062 C 472.449219 476.011719 466.964844 476.882812 465.660156 477.578125 C 462.441406 479.148438 455.65625 478.277344 455.21875 476.097656 C 455.046875 475.316406 455.308594 474.617188 455.828125 474.617188 C 456.351562 474.617188 456.785156 474.097656 456.785156 473.398438 C 456.785156 471.136719 463.746094 470.613281 475.492188 471.917969 Z M 192.980469 476.707031 C 193.15625 477.578125 193.070312 478.796875 192.808594 479.582031 C 192.371094 480.714844 191.761719 480.453125 189.675781 478.101562 C 187.675781 475.835938 187.324219 474.964844 188.109375 474.007812 C 188.890625 473.050781 189.328125 473.050781 190.894531 474.007812 C 191.9375 474.707031 192.894531 475.925781 192.980469 476.707031 Z M 442.257812 475.226562 C 441.648438 475.402344 440.429688 475.402344 439.644531 475.226562 C 438.777344 474.964844 439.296875 474.792969 440.691406 474.792969 C 442.167969 474.792969 442.777344 474.964844 442.257812 475.226562 Z M 151.042969 482.804688 C 152.347656 483.847656 152.523438 484.285156 151.652344 485.15625 C 150.78125 486.027344 150.261719 486.027344 149.476562 485.242188 C 148.171875 483.9375 147.042969 483.847656 147.042969 485.070312 C 147.042969 485.503906 147.5625 485.9375 148.171875 485.9375 C 148.78125 485.9375 150 487.332031 150.78125 488.988281 C 152.4375 492.472656 153.914062 492.820312 155.570312 490.292969 C 156.875 488.117188 158.699219 488.03125 160.789062 490.03125 C 161.570312 490.902344 162.878906 491.601562 163.574219 491.601562 C 164.269531 491.601562 165.050781 492.820312 165.398438 494.472656 L 166.007812 497.433594 L 163.574219 495.082031 C 162.179688 493.777344 160.703125 492.992188 160.179688 493.253906 C 159.65625 493.601562 158.527344 493.339844 157.570312 492.730469 C 156.613281 492.121094 155.570312 491.949219 155.21875 492.210938 C 154.261719 493.253906 155.65625 495.691406 157.394531 496.128906 C 158.351562 496.390625 159.308594 497.523438 159.570312 498.652344 C 159.917969 499.875 160.789062 500.742188 161.660156 500.742188 C 163.3125 500.742188 165.3125 502.3125 165.3125 503.53125 C 165.3125 504.75 162.878906 504.316406 161.484375 502.835938 C 160.355469 501.789062 160.09375 501.789062 160.09375 502.660156 C 160.09375 503.355469 160.527344 504.316406 161.136719 504.925781 C 161.921875 505.707031 161.921875 506.230469 161.222656 506.925781 C 160.179688 507.972656 157.484375 504.835938 157.484375 502.574219 C 157.484375 501.613281 157.132812 501.703125 156.175781 503.007812 C 154.523438 505.183594 154.523438 507.1875 156.175781 508.582031 C 156.875 509.191406 157.484375 510.238281 157.484375 510.933594 C 157.484375 511.976562 157.222656 511.890625 156.089844 510.757812 C 155.046875 509.800781 154.351562 509.625 153.742188 510.238281 C 153.21875 510.757812 151.914062 511.195312 150.871094 511.195312 C 149.390625 511.195312 149.042969 511.542969 149.390625 512.9375 C 149.914062 514.9375 151.390625 515.289062 151.390625 513.371094 C 151.390625 511.628906 152.785156 511.71875 153.480469 513.546875 C 154.003906 514.851562 154.175781 514.851562 154.960938 513.808594 C 155.65625 512.675781 155.917969 512.675781 156.875 513.808594 C 157.394531 514.503906 158.527344 515.113281 159.222656 515.113281 C 160.09375 515.113281 160.441406 515.808594 160.265625 517.464844 C 159.917969 520.164062 160.265625 520.339844 162.703125 518.859375 C 165.3125 517.203125 166.792969 519.03125 165.398438 522.339844 C 164.269531 525.042969 163.921875 525.128906 156.613281 525.300781 C 154.4375 525.390625 152.4375 525.824219 152.175781 526.261719 C 151.828125 526.695312 150.523438 525.476562 149.128906 523.5625 C 147.738281 521.558594 145.910156 519.816406 145.128906 519.640625 C 144.257812 519.378906 143.5625 518.507812 143.5625 517.726562 C 143.5625 516.59375 144.082031 516.332031 145.648438 516.769531 C 148 517.378906 149.304688 516.160156 148.261719 514.503906 C 147.128906 512.761719 147.304688 504.402344 148.433594 504.835938 C 148.957031 505.011719 149.652344 504.574219 149.914062 503.878906 C 150.261719 503.09375 151.304688 502.484375 152.261719 502.484375 C 154.003906 502.484375 154.4375 501.179688 153.480469 498.652344 C 152.871094 497.171875 150.523438 496.738281 150.523438 498.132812 C 150.523438 498.566406 150.175781 499.003906 149.652344 499.003906 C 149.21875 499.003906 148.78125 498.21875 148.78125 497.171875 C 148.78125 496.214844 149.21875 495.691406 149.652344 495.953125 C 150.175781 496.214844 150.523438 496.042969 150.523438 495.605469 C 150.523438 495.082031 150.175781 494.648438 149.652344 494.648438 C 149.21875 494.648438 148.78125 493.863281 148.78125 492.90625 C 148.78125 491.164062 146.695312 488.550781 143.996094 487.070312 C 142.953125 486.460938 142.777344 485.589844 143.125 483.9375 C 143.648438 482.019531 144.257812 481.585938 146.519531 481.585938 C 148.085938 481.585938 150.085938 482.109375 151.042969 482.804688 Z M 172.101562 484.023438 C 172.273438 484.632812 171.839844 485.070312 171.144531 485.070312 C 168.878906 485.070312 167.054688 484.109375 167.054688 482.890625 C 167.054688 481.410156 171.578125 482.457031 172.101562 484.023438 Z M 435.46875 483.675781 C 438.339844 483.761719 443.734375 488.117188 441.820312 488.726562 C 439.820312 489.335938 433.644531 488.203125 434.859375 487.417969 C 436.949219 486.027344 435.816406 485.070312 431.988281 485.070312 C 428.855469 485.070312 428.25 484.808594 428.683594 483.675781 C 429.03125 482.71875 429.726562 482.542969 431.03125 482.890625 C 431.988281 483.238281 434.078125 483.589844 435.46875 483.675781 Z M 186.976562 485.15625 C 189.9375 486.199219 190.195312 486.808594 188.632812 488.378906 C 187.5 489.511719 184.453125 489.769531 184.453125 488.726562 C 184.453125 488.378906 184.195312 487.246094 183.933594 486.113281 C 183.324219 483.847656 183.324219 483.847656 186.976562 485.15625 Z M 164.964844 487.160156 C 165.835938 487.855469 166.355469 488.640625 166.007812 488.988281 C 165.050781 489.945312 161.832031 488.550781 161.832031 487.160156 C 161.832031 485.589844 162.789062 485.589844 164.964844 487.160156 Z M 142.167969 490.730469 C 141.820312 491.425781 141.300781 491.859375 140.863281 491.601562 C 140.515625 491.339844 140.34375 490.554688 140.601562 489.859375 C 140.953125 489.160156 141.472656 488.726562 141.910156 488.988281 C 142.257812 489.25 142.429688 490.03125 142.167969 490.730469 Z M 147.214844 499.351562 C 148 500.484375 147.042969 502.484375 145.738281 502.484375 C 144.429688 502.484375 143.5625 500.570312 143.5625 497.957031 C 143.5625 496.390625 143.734375 496.300781 145.128906 497.347656 C 145.910156 498.042969 146.867188 498.914062 147.214844 499.351562 Z M 168.621094 499.175781 C 169.835938 500.394531 170.011719 501.613281 168.792969 501.613281 C 168.359375 501.613281 167.574219 500.832031 167.054688 499.875 C 166.007812 497.957031 166.964844 497.523438 168.621094 499.175781 Z M 169.488281 508.058594 C 169.75 509.105469 169.402344 509.539062 168.621094 509.277344 C 168.011719 509.015625 167.3125 508.144531 167.226562 507.363281 C 166.964844 506.316406 167.3125 505.882812 168.097656 506.144531 C 168.707031 506.40625 169.402344 507.277344 169.488281 508.058594 Z M 160.960938 511.195312 C 160.960938 511.628906 160.527344 512.066406 160.003906 512.066406 C 159.570312 512.066406 159.398438 511.628906 159.65625 511.195312 C 159.917969 510.671875 160.355469 510.324219 160.613281 510.324219 C 160.789062 510.324219 160.960938 510.671875 160.960938 511.195312 Z M 652.988281 514.503906 C 652.726562 514.765625 652.03125 514.503906 651.421875 513.894531 C 650.636719 513.023438 650.726562 512.9375 651.941406 513.457031 C 652.8125 513.71875 653.25 514.242188 652.988281 514.503906 Z M 543.097656 520.773438 C 547.359375 523.5625 550.929688 527.742188 551.972656 530.960938 C 552.320312 532.007812 553.710938 533.835938 555.015625 534.96875 C 556.410156 536.101562 557.800781 537.84375 558.0625 538.886719 C 558.410156 539.933594 559.28125 540.804688 559.890625 540.804688 C 561.71875 540.804688 562.238281 542.285156 561.019531 544.199219 C 560.152344 545.679688 560.410156 546.464844 563.195312 550.035156 C 565.023438 552.300781 566.328125 554.648438 566.152344 555.085938 C 565.71875 556.390625 562.066406 556.828125 560.933594 555.695312 C 560.410156 555.171875 558.757812 554.738281 557.367188 554.738281 C 555.886719 554.738281 553.886719 554.128906 553.015625 553.429688 C 550.40625 551.429688 548.144531 551.777344 548.144531 554.128906 C 548.144531 555.261719 548.578125 556.566406 549.1875 557.175781 C 549.882812 557.871094 549.882812 558.222656 549.273438 558.222656 C 548.753906 558.222656 546.925781 556.828125 545.273438 555.171875 C 542.835938 552.734375 541.53125 552.125 538.835938 552.125 C 533.527344 552.039062 528.046875 550.730469 526.566406 549.078125 C 525.433594 547.945312 525.347656 547.421875 526.21875 547.160156 C 527.871094 546.550781 527.523438 540.457031 525.695312 538.800781 C 524.042969 537.320312 517.515625 535.054688 513.339844 534.535156 C 511.253906 534.273438 511.164062 533.921875 510.992188 528.613281 C 510.90625 523.039062 510.992188 522.777344 513.6875 520.949219 C 516.210938 519.207031 517.167969 519.121094 523.957031 519.554688 C 528.914062 519.902344 531.613281 519.730469 531.960938 519.121094 C 533.179688 517.203125 539.007812 518.074219 543.097656 520.773438 Z M 716.9375 527.390625 C 716.9375 528.089844 716.503906 528.4375 716.066406 528.175781 C 715.546875 527.828125 715.371094 527.21875 715.632812 526.78125 C 716.414062 525.5625 716.9375 525.824219 716.9375 527.390625 Z M 418.9375 532.617188 C 421.460938 534.011719 424.160156 534.707031 426.769531 534.707031 C 430.074219 534.707031 431.292969 535.144531 433.382812 537.234375 C 434.773438 538.625 435.90625 540.367188 435.90625 541.066406 C 435.90625 542.546875 437.730469 543.417969 440.953125 543.417969 C 442.257812 543.503906 444.867188 544.113281 446.78125 544.808594 C 448.695312 545.507812 452.175781 546.464844 454.523438 546.898438 C 459.746094 547.945312 467.75 551.777344 468.445312 553.605469 C 469.316406 555.78125 467.488281 557.960938 462.355469 560.832031 C 459.484375 562.488281 457.222656 564.578125 456.699219 565.796875 C 455.917969 567.886719 455.742188 567.886719 454.351562 566.667969 C 453.394531 565.796875 452.347656 565.535156 451.652344 565.972656 C 449.652344 567.277344 447.128906 565.972656 446.605469 563.359375 C 446.171875 561.007812 444.605469 559.789062 444.605469 561.703125 C 444.605469 563.097656 438.078125 566.929688 431.378906 569.453125 C 425.636719 571.632812 425.027344 572.066406 425.027344 574.15625 C 425.117188 575.984375 424.679688 576.507812 423.203125 576.507812 C 420.679688 576.507812 419.027344 574.417969 419.722656 571.804688 C 420.417969 568.84375 418.15625 568.234375 416.414062 570.933594 C 414.847656 573.199219 412.414062 573.808594 412.414062 571.804688 C 412.414062 570.585938 409.890625 569.542969 406.929688 569.542969 C 406.0625 569.542969 403.363281 567.886719 400.839844 565.972656 C 396.402344 562.488281 396.316406 562.3125 396.316406 557.785156 C 396.316406 552.734375 395.792969 551.601562 393.707031 552.386719 C 392.835938 552.820312 392.402344 554.128906 392.402344 556.914062 C 392.402344 560.484375 392.226562 560.832031 390.3125 560.832031 C 389.183594 560.832031 387.789062 561.441406 387.179688 562.140625 C 385.875 563.707031 386.3125 563.707031 389.441406 562.574219 C 391.53125 561.792969 392.054688 561.964844 394.75 564.753906 C 396.402344 566.40625 398.492188 567.800781 399.363281 567.800781 C 401.015625 567.800781 401.539062 569.28125 401.1875 573.199219 C 401.101562 573.984375 401.449219 574.855469 401.886719 575.117188 C 402.496094 575.550781 402.496094 576.421875 401.796875 577.816406 C 400.667969 580.339844 401.539062 585.480469 403.363281 587.046875 C 404.496094 587.917969 405.105469 587.917969 406.496094 587.046875 C 408.671875 585.652344 410.671875 587.132812 410.671875 590.09375 C 410.671875 592.792969 411.28125 592.707031 415.023438 589.570312 L 418.070312 587.132812 L 416.152344 584.519531 C 414.761719 582.605469 414.414062 581.386719 414.9375 579.035156 C 415.546875 575.898438 418.15625 574.855469 419.375 577.378906 C 419.722656 578.078125 420.503906 579.730469 421.199219 581.039062 C 421.808594 582.429688 422.765625 583.476562 423.375 583.476562 C 425.027344 583.476562 425.8125 585.21875 424.679688 586.347656 C 423.984375 587.046875 424.160156 587.742188 425.203125 588.875 C 427.292969 591.226562 425.726562 593.402344 421.636719 593.75 C 418.851562 594.011719 418.589844 594.273438 419.027344 596.015625 C 419.632812 598.628906 418.070312 599.761719 412.585938 600.542969 C 408.496094 601.066406 408.0625 600.980469 408.0625 599.5 C 408.0625 598.542969 406.929688 596.539062 405.539062 595.058594 C 403.800781 593.140625 403.101562 591.660156 403.453125 590.441406 C 404.148438 587.917969 402.84375 588.265625 399.015625 591.835938 C 395.792969 594.796875 395.621094 594.882812 393.96875 593.316406 C 392.488281 592.011719 392.3125 591.050781 392.835938 587.394531 C 394.835938 572.503906 394.75 572.242188 389.007812 569.542969 C 385.527344 567.972656 384.046875 566.492188 381.527344 562.402344 C 378.566406 557.699219 377.957031 555.085938 378.394531 549.773438 C 378.480469 549.164062 379.871094 547.160156 381.527344 545.246094 C 383.613281 542.980469 384.570312 541.066406 384.570312 539.234375 C 384.570312 537.320312 385.09375 536.535156 386.398438 536.1875 C 387.441406 535.925781 388.3125 536.1875 388.660156 536.972656 C 389.355469 538.976562 390.226562 538.363281 391.355469 535.230469 C 392.140625 533.054688 393.269531 531.921875 395.359375 531.222656 C 396.925781 530.703125 398.753906 530.527344 399.449219 530.789062 C 400.144531 530.960938 402.667969 530.875 405.015625 530.441406 C 410.671875 529.394531 414.238281 530.003906 418.9375 532.617188 Z M 159.570312 537.058594 C 158.265625 544.199219 157.132812 545.507812 154.523438 542.894531 C 152.785156 541.152344 152.695312 538.191406 154.4375 538.191406 C 155.132812 538.191406 155.742188 537.40625 155.742188 536.535156 C 155.742188 535.054688 156.785156 534.359375 159.484375 533.921875 C 159.832031 533.921875 159.917969 535.316406 159.570312 537.058594 Z M 658.207031 537.320312 C 658.46875 537.753906 658.382812 538.191406 657.859375 538.191406 C 657.425781 538.191406 656.730469 537.753906 656.46875 537.320312 C 656.207031 536.796875 656.292969 536.449219 656.816406 536.449219 C 657.25 536.449219 657.945312 536.796875 658.207031 537.320312 Z M 652.550781 543.503906 C 652.550781 544.546875 648.898438 546.027344 647.941406 545.417969 C 646.808594 544.722656 650.027344 541.761719 651.335938 542.285156 C 652.03125 542.546875 652.550781 543.066406 652.550781 543.503906 Z M 666.472656 542.894531 C 666.472656 544.546875 663.078125 545.246094 660.90625 544.027344 C 659.164062 543.066406 659.164062 543.066406 661.6875 542.457031 C 665.777344 541.5 666.472656 541.585938 666.472656 542.894531 Z M 656.03125 544.285156 C 653.855469 546.203125 652.898438 546.027344 653.683594 543.851562 C 654.03125 543.15625 655.074219 542.546875 656.121094 542.546875 L 658.035156 542.546875 Z M 652.8125 548.378906 C 652.203125 548.554688 651.160156 548.554688 650.636719 548.378906 C 650.027344 548.117188 650.464844 547.945312 651.683594 547.945312 C 652.898438 547.945312 653.335938 548.117188 652.8125 548.378906 Z M 687.007812 552.125 C 688.3125 551.601562 689.53125 551.429688 689.792969 551.601562 C 690.050781 551.863281 689.441406 552.386719 688.574219 552.734375 C 687.703125 552.996094 686.660156 553.691406 686.398438 554.128906 C 685.527344 555.347656 681.265625 554.039062 681.265625 552.472656 C 681.265625 551.515625 681.613281 551.429688 682.917969 552.125 C 684.136719 552.734375 685.355469 552.734375 687.007812 552.125 Z M 714.675781 556.914062 C 714.152344 558.308594 712.585938 558.742188 712.585938 557.523438 C 712.585938 556.566406 713.542969 555.609375 714.414062 555.609375 C 714.847656 555.609375 714.9375 556.21875 714.675781 556.914062 Z M 721.898438 561.355469 C 721.636719 561.617188 720.851562 561.703125 720.242188 561.441406 C 719.546875 561.183594 719.808594 560.921875 720.765625 560.921875 C 721.722656 560.832031 722.246094 561.09375 721.898438 561.355469 Z M 726.507812 562.574219 C 726.507812 563.011719 726.335938 563.445312 726.160156 563.445312 C 725.898438 563.445312 725.464844 563.011719 725.203125 562.574219 C 724.941406 562.050781 725.117188 561.703125 725.550781 561.703125 C 726.074219 561.703125 726.507812 562.050781 726.507812 562.574219 Z M 399.363281 602.722656 C 399.363281 603.15625 399.015625 603.503906 398.492188 603.503906 C 398.058594 603.503906 397.621094 602.894531 397.621094 602.113281 C 397.621094 601.414062 398.058594 601.066406 398.492188 601.328125 C 399.015625 601.589844 399.363281 602.199219 399.363281 602.722656 Z M 395.707031 612.5625 C 395.359375 615.085938 393.792969 614.566406 393.445312 611.777344 C 393.183594 610.125 393.445312 609.6875 394.578125 610.125 C 395.359375 610.472656 395.882812 611.429688 395.707031 612.5625 Z M 737.992188 622.402344 C 740.167969 623.011719 739.039062 624.40625 736.425781 624.40625 C 735.296875 624.40625 734.339844 624.230469 734.339844 624.058594 C 734.339844 623.882812 734.078125 623.011719 733.730469 622.140625 C 733.292969 620.921875 733.46875 620.75 734.859375 621.269531 C 735.730469 621.707031 737.210938 622.230469 737.992188 622.402344 Z M 769.664062 626.757812 C 768.96875 627.542969 766.53125 624.144531 767.140625 623.273438 C 767.402344 622.839844 768.183594 623.359375 768.878906 624.40625 C 769.578125 625.449219 769.925781 626.496094 769.664062 626.757812 Z M 776.277344 624.582031 C 776.015625 625.539062 776.363281 626.148438 777.144531 626.148438 C 778.800781 626.148438 781.84375 629.457031 780.972656 630.242188 C 780.625 630.589844 779.410156 629.804688 778.191406 628.410156 C 776.972656 627.105469 774.972656 625.710938 773.753906 625.191406 C 771.230469 624.230469 771.664062 623.101562 774.535156 623.101562 C 776.1875 623.101562 776.625 623.449219 776.277344 624.582031 Z M 783.0625 626.148438 C 783.0625 626.582031 782.714844 627.019531 782.28125 627.019531 C 781.757812 627.019531 781.148438 626.582031 780.886719 626.148438 C 780.625 625.625 780.972656 625.277344 781.671875 625.277344 C 782.453125 625.277344 783.0625 625.625 783.0625 626.148438 Z M 796.113281 629.632812 C 796.113281 630.066406 795.503906 630.503906 794.808594 630.503906 C 794.113281 630.503906 793.503906 630.066406 793.503906 629.632812 C 793.503906 629.109375 794.113281 628.761719 794.808594 628.761719 C 795.503906 628.761719 796.113281 629.109375 796.113281 629.632812 Z M 801.769531 631.371094 C 802.03125 631.808594 801.683594 632.242188 800.984375 632.242188 C 800.289062 632.242188 799.421875 631.808594 799.160156 631.371094 C 798.898438 630.851562 799.246094 630.503906 799.941406 630.503906 C 800.636719 630.503906 801.507812 630.851562 801.769531 631.371094 Z M 794.375 632.679688 C 794.984375 633.464844 795.242188 634.246094 794.984375 634.507812 C 794.113281 635.464844 791.761719 634.074219 791.761719 632.679688 C 791.761719 631.023438 792.980469 631.023438 794.375 632.679688 Z M 786.976562 633.113281 C 787.238281 633.550781 786.71875 633.984375 785.761719 633.984375 C 784.453125 633.984375 783.933594 634.507812 783.933594 636.074219 C 783.933594 637.816406 783.585938 637.992188 781.582031 637.644531 C 779.84375 637.292969 779.582031 637.035156 780.714844 636.773438 C 781.496094 636.597656 782.191406 636.074219 782.191406 635.554688 C 782.191406 634.59375 784.714844 632.332031 785.847656 632.242188 C 786.195312 632.242188 786.71875 632.59375 786.976562 633.113281 Z M 766.53125 636.597656 C 766.53125 637.035156 765.921875 637.46875 765.226562 637.46875 C 764.441406 637.46875 763.921875 638.253906 763.921875 639.296875 C 763.921875 640.953125 763.835938 640.953125 762.527344 639.644531 C 761.746094 638.863281 761.222656 638.164062 761.398438 638.078125 C 761.570312 637.992188 762.527344 637.46875 763.484375 636.859375 C 765.660156 635.554688 766.53125 635.464844 766.53125 636.597656 Z M 707.367188 637.46875 C 707.367188 637.90625 706.757812 638.339844 706.0625 638.339844 C 705.367188 638.339844 704.757812 637.90625 704.757812 637.46875 C 704.757812 636.945312 705.367188 636.597656 706.0625 636.597656 C 706.757812 636.597656 707.367188 636.945312 707.367188 637.46875 Z M 755.570312 637.121094 C 757.046875 637.730469 757.484375 640.082031 756.089844 640.082031 C 755.65625 640.082031 755.21875 640.691406 755.21875 641.386719 C 755.21875 642.085938 754.4375 642.695312 753.480469 642.695312 C 751.480469 642.695312 751.132812 645.132812 753.046875 645.828125 C 755.308594 646.699219 754.4375 647.746094 751.566406 647.570312 C 749.128906 647.484375 748.609375 647.046875 748.433594 645.132812 C 748.261719 643.828125 747.5625 642.347656 746.867188 641.824219 C 746.171875 641.214844 745.648438 640.253906 745.648438 639.734375 C 745.648438 638.515625 751.480469 638.164062 752.261719 639.296875 C 753.132812 640.777344 754.4375 640.082031 753.914062 638.339844 C 753.304688 636.425781 753.480469 636.335938 755.570312 637.121094 Z M 712.675781 639.472656 C 711.542969 640.605469 710.410156 639.734375 711.28125 638.425781 C 711.542969 637.90625 712.238281 637.730469 712.761719 637.992188 C 713.28125 638.339844 713.28125 638.863281 712.675781 639.472656 Z M 694.925781 639.734375 C 694.664062 639.996094 693.878906 640.082031 693.269531 639.820312 C 692.574219 639.558594 692.835938 639.296875 693.792969 639.296875 C 694.75 639.210938 695.273438 639.472656 694.925781 639.734375 Z M 705.625 641.910156 C 705.625 642.347656 705.015625 642.433594 704.320312 642.171875 C 703.625 641.824219 703.015625 641.039062 703.015625 640.34375 C 703.015625 639.210938 703.277344 639.210938 704.320312 640.082031 C 705.015625 640.691406 705.625 641.476562 705.625 641.910156 Z M 772.535156 644.4375 C 775.492188 647.484375 777.40625 648.789062 779.058594 648.789062 C 780.539062 648.789062 781.324219 648.355469 781.324219 647.398438 C 781.324219 646.351562 781.84375 646.089844 783.148438 646.4375 C 784.804688 646.875 784.890625 646.789062 783.585938 644.871094 C 781.84375 642.257812 781.84375 641.824219 783.496094 641.824219 C 784.28125 641.824219 785.238281 642.695312 785.761719 643.828125 C 786.28125 644.871094 787.761719 646.527344 789.152344 647.484375 C 790.546875 648.441406 791.503906 649.3125 791.414062 649.488281 C 791.242188 649.574219 789.238281 649.3125 786.976562 648.789062 C 781.757812 647.65625 780.191406 648.703125 782.800781 651.578125 C 785.152344 654.1875 786.195312 658.371094 784.453125 658.371094 C 783.757812 658.371094 782.976562 658.019531 782.714844 657.585938 C 782.367188 657.148438 781.0625 657.324219 779.582031 658.019531 C 776.449219 659.675781 774.535156 658.804688 772.96875 654.972656 C 772.359375 653.40625 772.1875 652.449219 772.707031 652.796875 C 773.230469 653.058594 773.925781 654.277344 774.363281 655.410156 C 774.796875 656.539062 775.578125 657.5 776.015625 657.5 C 777.144531 657.5 777.929688 655.058594 776.972656 654.449219 C 776.449219 654.101562 776.101562 653.144531 776.101562 652.1875 C 776.101562 651.316406 775.492188 650.53125 774.796875 650.53125 C 774.101562 650.53125 773.492188 650.183594 773.492188 649.75 C 773.492188 649.3125 772.621094 649.136719 771.664062 649.398438 C 770.011719 649.835938 769.925781 649.75 770.792969 648.09375 C 772.011719 645.828125 770.707031 644.871094 768.183594 646.175781 C 765.660156 647.570312 763.660156 645.742188 765.921875 644.085938 C 766.707031 643.476562 767.402344 642.257812 767.402344 641.476562 C 767.402344 639.386719 767.921875 639.644531 772.535156 644.4375 Z M 802.203125 641.824219 C 802.203125 642.257812 801.769531 642.695312 801.246094 642.695312 C 800.8125 642.695312 800.636719 642.257812 800.898438 641.824219 C 801.160156 641.300781 801.59375 640.953125 801.855469 640.953125 C 802.03125 640.953125 802.203125 641.300781 802.203125 641.824219 Z M 761.3125 644.261719 C 761.3125 645.132812 760.703125 645.917969 760.003906 645.917969 C 758.441406 645.917969 758.351562 645.566406 759.832031 644 C 761.222656 642.347656 761.3125 642.433594 761.3125 644.261719 Z M 756.960938 644.4375 C 756.265625 644.871094 755.308594 645.308594 754.785156 645.308594 C 754.351562 645.308594 754.523438 644.871094 755.21875 644.4375 C 755.917969 644 756.960938 643.566406 757.394531 643.566406 C 757.917969 643.566406 757.65625 644 756.960938 644.4375 Z M 714.761719 646.175781 C 715.894531 646.699219 716.066406 646.960938 715.195312 646.960938 C 714.5 647.046875 712.324219 647.308594 710.410156 647.570312 C 707.019531 648.007812 706.929688 648.007812 709.105469 646.699219 C 711.542969 645.21875 712.324219 645.132812 714.761719 646.175781 Z M 740.429688 649.574219 C 740.429688 650.617188 738.6875 651.75 738.078125 651.140625 C 737.472656 650.53125 738.601562 648.789062 739.644531 648.789062 C 740.082031 648.789062 740.429688 649.136719 740.429688 649.574219 Z M 745.214844 650.53125 C 745.476562 650.96875 746.953125 651.664062 748.347656 652.011719 C 750.261719 652.535156 751.390625 653.667969 752.609375 656.453125 C 753.480469 658.457031 753.914062 660.109375 753.394531 660.109375 C 752.957031 660.109375 752.261719 659.242188 751.828125 658.109375 C 750.871094 655.582031 748.78125 653.839844 746.257812 653.578125 C 745.214844 653.492188 744.082031 653.320312 743.734375 653.230469 C 742.777344 653.058594 742.867188 649.660156 743.824219 649.660156 C 744.34375 649.660156 744.953125 650.007812 745.214844 650.53125 Z M 736.078125 653.492188 C 736.078125 655.058594 733.730469 656.019531 732.945312 654.710938 C 732.597656 654.277344 732.945312 653.492188 733.554688 653.058594 C 735.296875 651.925781 736.078125 652.097656 736.078125 653.492188 Z M 757.132812 653.578125 C 757.132812 654.015625 756.699219 654.539062 756.175781 654.710938 C 755.65625 654.886719 755.21875 654.363281 755.21875 653.578125 C 755.21875 652.796875 755.65625 652.273438 756.175781 652.449219 C 756.699219 652.621094 757.132812 653.144531 757.132812 653.578125 Z M 745.386719 656.800781 C 745.128906 657.5 744.867188 657.238281 744.867188 656.28125 C 744.78125 655.320312 745.039062 654.800781 745.300781 655.148438 C 745.5625 655.410156 745.648438 656.191406 745.386719 656.800781 Z M 762.179688 657.5 C 763.226562 658.195312 762.964844 658.371094 761.136719 658.371094 C 759.746094 658.371094 758.699219 657.933594 758.699219 657.5 C 758.699219 656.367188 760.441406 656.367188 762.179688 657.5 Z M 720.417969 659.675781 C 721.027344 661.242188 721.898438 661.851562 723.460938 661.851562 C 724.855469 661.851562 725.636719 662.375 725.636719 663.246094 C 725.636719 664.203125 725.203125 664.464844 724.246094 664.117188 C 723.203125 663.769531 722.941406 663.941406 723.375 664.902344 C 724.246094 667.253906 721.546875 666.292969 719.199219 663.507812 C 716.675781 660.460938 716.503906 660.023438 717.980469 658.542969 C 719.375 657.148438 719.460938 657.148438 720.417969 659.675781 Z M 729.117188 658.371094 C 729.117188 658.804688 728.507812 659.242188 727.8125 659.242188 C 727.117188 659.242188 726.507812 658.804688 726.507812 658.371094 C 726.507812 657.847656 727.117188 657.5 727.8125 657.5 C 728.507812 657.5 729.117188 657.847656 729.117188 658.371094 Z M 787.675781 660.722656 C 789.414062 661.765625 787.761719 662.375 782.886719 662.289062 C 779.582031 662.289062 777.40625 661.851562 777.234375 661.242188 C 776.625 659.589844 784.976562 659.152344 787.675781 660.722656 Z M 760.703125 664.03125 C 763.484375 663.332031 764.792969 665.164062 762.617188 666.730469 C 761.222656 667.773438 760.703125 667.773438 759.222656 666.644531 C 758.179688 665.945312 756.527344 664.902344 755.480469 664.464844 C 754.175781 663.941406 753.652344 663.160156 754.003906 662.289062 C 754.523438 661.070312 754.785156 661.15625 756.527344 662.722656 C 757.917969 664.03125 759.136719 664.378906 760.703125 664.03125 Z M 813.253906 664.988281 C 812.992188 665.25 812.210938 665.335938 811.601562 665.074219 C 810.90625 664.8125 811.164062 664.550781 812.121094 664.550781 C 813.078125 664.464844 813.601562 664.726562 813.253906 664.988281 Z M 829.175781 665.074219 C 829.175781 665.511719 827.785156 666.46875 826.132812 667.253906 C 823.261719 668.734375 823.085938 668.734375 823.085938 667.164062 C 823.085938 666.292969 823.347656 665.335938 823.695312 665.074219 C 824.476562 664.292969 829.175781 664.292969 829.175781 665.074219 Z M 829.175781 665.074219 "/>
<path style=" stroke:none;fill-rule:nonzero;fill:rgb(0%,0%,0%);fill-opacity:1;" d="M 128.335938 134.460938 C 125.203125 136.726562 126.683594 144.386719 130.074219 143.429688 C 131.816406 142.820312 133.382812 138.292969 132.597656 136.027344 C 131.640625 133.328125 130.511719 132.894531 128.335938 134.460938 Z M 128.335938 134.460938 "/>
<path style=" stroke:none;fill-rule:nonzero;fill:rgb(0%,0%,0%);fill-opacity:1;" d="M 233.527344 122.355469 C 231.960938 124.707031 232.222656 127.058594 234.65625 136.117188 C 235.703125 139.859375 236.660156 141.515625 238.050781 142.125 C 242.664062 144.214844 244.230469 137.597656 241.355469 127.929688 C 239.09375 120.265625 236.222656 118.261719 233.527344 122.355469 Z M 233.527344 122.355469 "/>
<path style=" stroke:none;fill-rule:nonzero;fill:rgb(0%,0%,0%);fill-opacity:1;" d="M 284.078125 121.660156 C 282.859375 122.792969 282.6875 124.097656 283.035156 127.492188 C 283.902344 135.070312 286.078125 141.078125 288.429688 142.125 C 293.039062 144.214844 294.34375 139.511719 291.996094 129.582031 C 290.082031 121.136719 287.296875 118.4375 284.078125 121.660156 Z M 284.078125 121.660156 "/>
<path style=" stroke:none;fill-rule:nonzero;fill:rgb(0%,0%,0%);fill-opacity:1;" d="M 355.683594 121.136719 C 353.683594 122.269531 353.597656 127.234375 355.511719 134.460938 C 356.902344 139.859375 358.730469 142.820312 360.730469 142.820312 C 362.558594 142.820312 364.558594 140.207031 364.558594 137.945312 C 364.558594 133.675781 361.773438 123.488281 360.121094 121.832031 C 358.207031 119.917969 357.773438 119.917969 355.683594 121.136719 Z M 355.683594 121.136719 "/>
<path style=" stroke:none;fill-rule:nonzero;fill:rgb(0%,0%,0%);fill-opacity:1;" d="M 512.90625 121.660156 C 511.6875 122.792969 511.515625 124.097656 511.863281 127.492188 C 512.730469 135.070312 514.90625 141.078125 517.257812 142.125 C 521.867188 144.214844 523.171875 139.511719 520.824219 129.582031 C 518.910156 121.136719 516.125 118.4375 512.90625 121.660156 Z M 512.90625 121.660156 "/>
<path style=" stroke:none;fill-rule:nonzero;fill:rgb(0%,0%,0%);fill-opacity:1;" d="M 598.171875 122.269531 C 596.953125 124.097656 596.953125 124.96875 598.171875 131.0625 C 598.957031 134.722656 600 138.640625 600.523438 139.859375 C 601.652344 142.386719 604.351562 143.34375 606.003906 141.949219 C 607.742188 140.558594 607.65625 133.15625 606.003906 127.320312 C 603.914062 120.265625 600.78125 118.261719 598.171875 122.269531 Z M 598.171875 122.269531 "/>
<path style=" stroke:none;fill-rule:nonzero;fill:rgb(0%,0%,0%);fill-opacity:1;" d="M 648.113281 119.394531 C 646.984375 120.527344 646.460938 122.007812 646.636719 123.488281 C 646.898438 125.664062 647.246094 125.839844 650.8125 125.839844 C 654.464844 125.839844 654.726562 125.664062 654.988281 123.402344 C 655.335938 120.789062 653.160156 117.566406 651.074219 117.566406 C 650.464844 117.566406 649.160156 118.351562 648.113281 119.394531 Z M 648.113281 119.394531 "/>
<path style=" stroke:none;fill-rule:nonzero;fill:rgb(0%,0%,0%);fill-opacity:1;" d="M 69.691406 218.148438 C 68.648438 220.851562 68.039062 223.460938 68.300781 223.898438 C 68.648438 224.332031 70.996094 224.683594 73.609375 224.683594 C 79.613281 224.683594 80.21875 223.375 76.828125 217.890625 C 73.261719 212.140625 71.867188 212.226562 69.691406 218.148438 Z M 69.691406 218.148438 "/>
<path style=" stroke:none;fill-rule:nonzero;fill:rgb(0%,0%,0%);fill-opacity:1;" d="M 334.628906 214.753906 C 332.976562 216.320312 332.019531 219.890625 332.800781 221.109375 C 333.585938 222.503906 339.847656 222.242188 340.980469 220.851562 C 342.371094 219.28125 341.328125 215.277344 339.328125 214.230469 C 337.066406 213.011719 336.195312 213.097656 334.628906 214.753906 Z M 334.628906 214.753906 "/>
<path style=" stroke:none;fill-rule:nonzero;fill:rgb(0%,0%,0%);fill-opacity:1;" d="M 506.03125 214.492188 C 505.164062 215.101562 504.464844 216.929688 504.378906 218.585938 C 504.207031 221.632812 504.207031 221.632812 508.121094 221.632812 C 511.773438 221.632812 512.035156 221.460938 512.296875 219.195312 C 512.644531 216.667969 510.46875 213.359375 508.554688 213.359375 C 508.035156 213.359375 506.902344 213.882812 506.03125 214.492188 Z M 506.03125 214.492188 "/>
<path style=" stroke:none;fill-rule:nonzero;fill:rgb(0%,0%,0%);fill-opacity:1;" d="M 390.660156 351.828125 L 390.660156 359.664062 L 393.183594 359.664062 C 394.664062 359.664062 395.96875 360.011719 396.230469 360.449219 C 397.011719 361.753906 397.621094 395.457031 396.925781 400.160156 C 396.316406 404.253906 396.144531 404.515625 393.445312 404.773438 L 390.660156 405.035156 L 390.660156 420.625 L 422.941406 420.625 L 422.679688 412.527344 L 422.417969 404.515625 L 419.375 404.078125 L 416.328125 403.644531 L 416.066406 396.152344 L 415.804688 388.578125 L 419.027344 385.964844 C 421.113281 384.222656 421.808594 383.179688 421.113281 382.742188 C 420.332031 382.21875 420.332031 381.871094 421.199219 381.347656 C 423.375 379.957031 426.507812 380.476562 426.941406 382.21875 C 427.117188 383.089844 428.25 384.308594 429.378906 384.917969 C 432.773438 386.75 433.292969 389.359375 433.292969 405.472656 L 433.292969 420.710938 L 446.171875 420.449219 L 458.960938 420.191406 L 458.960938 405.386719 L 455.917969 404.949219 L 452.871094 404.515625 L 452.609375 394.0625 C 452.4375 387.53125 452 383.4375 451.390625 383.089844 C 450.871094 382.742188 449.128906 382.65625 447.476562 382.917969 C 445.128906 383.351562 444.605469 383.089844 444.605469 381.871094 C 444.605469 380.652344 445.214844 380.476562 447.652344 380.738281 C 449.304688 380.914062 450.695312 380.738281 450.695312 380.304688 C 450.695312 379.867188 449.652344 377.867188 448.433594 375.6875 C 445.996094 371.507812 442.777344 368.808594 439.210938 367.9375 C 437.121094 367.414062 436.863281 367.589844 436.601562 370.289062 C 436.253906 373.945312 434.601562 373.597656 434.601562 369.855469 C 434.601562 367.066406 434.511719 367.066406 429.988281 366.804688 C 426.683594 366.632812 424.332031 367.066406 421.636719 368.285156 C 419.632812 369.332031 417.460938 370.113281 416.9375 370.113281 C 416.152344 370.113281 415.894531 366.542969 415.894531 357.050781 L 415.894531 343.988281 L 390.660156 343.988281 Z M 436.773438 393.714844 C 436.773438 397.023438 434.6875 396.761719 434.339844 393.367188 C 434.164062 391.710938 434.425781 391.015625 435.382812 391.015625 C 436.339844 391.015625 436.773438 391.886719 436.773438 393.714844 Z M 436.773438 393.714844 "/>
<path style=" stroke:none;fill-rule:nonzero;fill:rgb(0%,0%,0%);fill-opacity:1;" d="M 252.929688 347.210938 C 252.582031 347.472656 252.320312 351.21875 252.320312 355.484375 L 252.320312 363.148438 L 255.277344 363.148438 C 256.84375 363.148438 258.585938 363.671875 259.105469 364.191406 C 259.628906 364.976562 259.804688 372.117188 259.542969 384.660156 L 259.019531 403.992188 L 252.753906 404.515625 L 252.496094 412.613281 L 252.234375 420.625 L 269.460938 420.449219 L 286.6875 420.191406 L 286.949219 413.398438 C 287.210938 405.734375 286.515625 404.078125 282.6875 404.078125 L 280.164062 404.078125 L 280.164062 393.976562 C 280.164062 388.402344 280.511719 384.050781 280.945312 384.222656 C 281.378906 384.308594 288.601562 392.582031 297.128906 402.511719 L 312.617188 420.625 L 328.015625 420.625 L 328.191406 392.0625 L 328.453125 363.582031 L 332.191406 363.324219 L 335.847656 363.0625 L 335.847656 347.472656 L 302.089844 347.472656 L 301.652344 350.257812 C 301.390625 351.828125 301.304688 355.3125 301.390625 357.921875 L 301.480469 362.710938 L 304.960938 363.148438 L 308.441406 363.582031 L 308.441406 374.296875 C 308.527344 380.21875 308.265625 385.179688 307.917969 385.441406 C 307.570312 385.617188 302.4375 380.042969 296.605469 372.902344 C 290.691406 365.847656 283.207031 357.050781 279.902344 353.308594 L 273.984375 346.601562 L 263.71875 346.601562 C 258.0625 346.601562 253.191406 346.863281 252.929688 347.210938 Z M 252.929688 347.210938 "/>
<path style=" stroke:none;fill-rule:nonzero;fill:rgb(0%,0%,0%);fill-opacity:1;" d="M 348.027344 359.578125 L 348.027344 367.414062 L 342.808594 368.023438 L 337.585938 368.632812 L 337.585938 383.960938 L 342.632812 384.222656 L 347.59375 384.484375 L 348.027344 395.804688 C 348.550781 408.085938 349.679688 411.566406 354.640625 416.53125 C 359.949219 421.929688 370.039062 423.847656 380.046875 421.410156 C 385.789062 419.929688 386.222656 419.492188 385.355469 415.136719 C 385.003906 413.136719 384.65625 409.828125 384.570312 407.734375 L 384.570312 404.078125 L 378.566406 404.601562 C 373.695312 405.035156 372.128906 404.863281 370.039062 403.644531 C 367.515625 402.164062 367.429688 401.8125 366.910156 394.324219 C 366.648438 390.058594 366.648438 385.964844 366.910156 385.269531 C 367.257812 384.308594 369.257812 384.050781 375.523438 384.050781 L 383.789062 384.050781 L 383.527344 375.949219 L 383.265625 367.9375 L 375.609375 367.765625 C 371.347656 367.765625 367.691406 367.414062 367.34375 367.066406 C 366.996094 366.71875 366.734375 363.324219 366.734375 359.402344 L 366.734375 352.261719 L 357.425781 352 L 348.027344 351.738281 Z M 348.027344 359.578125 "/>
<path style=" stroke:none;fill-rule:nonzero;fill:rgb(0%,0%,0%);fill-opacity:1;" d="M 516.472656 371.507812 C 516.210938 372.292969 515.691406 374.992188 515.429688 377.605469 L 514.820312 382.308594 L 520.214844 382.308594 C 526.042969 382.308594 530.132812 380.738281 531.613281 378.039062 C 532.917969 375.515625 532.65625 373.773438 530.742188 371.855469 C 528.480469 369.59375 517.34375 369.246094 516.472656 371.507812 Z M 516.472656 371.507812 "/>
<path style=" stroke:none;fill-rule:nonzero;fill:rgb(0%,0%,0%);fill-opacity:1;" d="M 150.261719 505.621094 C 149.476562 506.492188 150.609375 508.582031 151.828125 508.582031 C 153.566406 508.582031 154.4375 506.753906 153.046875 505.882812 C 151.566406 505.011719 150.957031 504.925781 150.261719 505.621094 Z M 150.261719 505.621094 "/>
<path style=" stroke:none;fill-rule:nonzero;fill:rgb(0%,0%,0%);fill-opacity:1;" d="M 535.703125 546.636719 C 534.65625 547.597656 535.09375 548.46875 536.832031 548.902344 C 537.789062 549.164062 538.574219 549.078125 538.574219 548.640625 C 538.574219 547.597656 536.3125 545.941406 535.703125 546.636719 Z M 535.703125 546.636719 "/>
<path style=" stroke:none;fill-rule:nonzero;fill:rgb(0%,0%,0%);fill-opacity:1;" d="M 417.285156 541.238281 C 416.9375 542.109375 417.371094 542.546875 418.503906 542.546875 C 419.460938 542.546875 420.242188 541.9375 420.242188 541.238281 C 420.242188 540.542969 419.722656 539.933594 419.027344 539.933594 C 418.328125 539.933594 417.632812 540.542969 417.285156 541.238281 Z M 417.285156 541.238281 "/>
<path style=" stroke:none;fill-rule:nonzero;fill:rgb(0%,0%,0%);fill-opacity:1;" d="M 424.160156 557.960938 C 422.679688 560.136719 422.679688 560.3125 424.246094 561.441406 C 426.160156 562.835938 429.988281 562.921875 431.292969 561.617188 C 432.078125 560.832031 431.816406 559.960938 430.421875 558.132812 C 428.160156 555 426.074219 554.910156 424.160156 557.960938 Z M 424.160156 557.960938 "/>
<path style=" stroke:none;fill-rule:nonzero;fill:rgb(0%,0%,0%);fill-opacity:1;" d="M 382.394531 558.222656 C 382.132812 558.65625 382.222656 559.089844 382.742188 559.089844 C 383.179688 559.089844 383.875 558.65625 384.136719 558.222656 C 384.398438 557.699219 384.308594 557.351562 383.789062 557.351562 C 383.351562 557.351562 382.65625 557.699219 382.394531 558.222656 Z M 382.394531 558.222656 "/>
<path style=" stroke:none;fill-rule:nonzero;fill:rgb(0%,0%,0%);fill-opacity:1;" d="M 783.496094 672.304688 C 783.238281 672.738281 783.757812 673.175781 784.804688 673.175781 C 785.847656 673.175781 786.367188 672.738281 786.109375 672.304688 C 785.847656 671.78125 785.238281 671.433594 784.804688 671.433594 C 784.367188 671.433594 783.757812 671.78125 783.496094 672.304688 Z M 783.496094 672.304688 "/>
</g>
</svg>
