<?xml version="1.0" standalone="no"?>
<!DOCTYPE svg PUBLIC "-//W3C//DTD SVG 20010904//EN"
 "http://www.w3.org/TR/2001/REC-SVG-20010904/DTD/svg10.dtd">
<svg version="1.0" xmlns="http://www.w3.org/2000/svg"
 width="506.000000pt" height="342.000000pt" viewBox="0 0 506.000000 342.000000"
 preserveAspectRatio="xMidYMid meet">

<g transform="translate(0.000000,342.000000) scale(0.100000,-0.100000)"
fill="#000000" stroke="none">
<path d="M0 3198 l0 -223 19 40 c24 51 33 75 38 100 2 10 8 22 14 26 7 4 6 17
-6 38 -12 23 -13 36 -6 45 6 7 8 16 4 19 -7 7 -15 93 -14 145 1 28 -2 32 -24
32 l-25 0 0 -222z"/>
<path d="M2884 3409 c-3 -6 -15 -9 -25 -6 -10 3 -22 1 -25 -5 -3 -5 -12 -7
-20 -4 -8 3 -14 2 -14 -2 0 -4 -13 -15 -28 -24 -16 -10 -62 -47 -103 -84 -41
-37 -108 -93 -150 -124 -41 -32 -86 -72 -100 -89 -13 -17 -31 -31 -40 -31 -16
0 -57 -50 -42 -50 5 0 1 -5 -7 -10 -12 -8 -12 -10 -1 -10 11 0 11 -3 1 -15
-10 -12 -10 -15 0 -15 10 0 10 -3 1 -14 -8 -10 -9 -16 -2 -21 16 -9 -11 -46
-28 -40 -8 3 -18 0 -23 -7 -7 -10 -11 -10 -21 3 -6 8 -20 18 -29 22 -20 7 -14
35 10 53 12 9 11 11 -9 10 -15 -1 -24 5 -24 14 0 11 -10 14 -40 13 -29 -2 -35
0 -20 6 15 6 6 10 -39 15 -33 5 -66 12 -75 16 -29 15 -249 32 -268 21 -10 -6
-12 -11 -6 -11 7 0 12 -3 11 -7 -4 -14 23 -53 36 -53 14 0 108 -103 140 -152
16 -25 17 -28 2 -34 -14 -5 -13 -10 6 -38 12 -17 25 -33 28 -36 4 -3 9 -12 12
-21 3 -8 44 -71 90 -140 47 -68 97 -146 113 -174 16 -27 32 -52 35 -55 14 -13
60 -80 55 -80 -6 0 31 -58 45 -70 3 -3 11 -17 18 -31 8 -15 24 -37 35 -50 12
-13 35 -44 52 -69 16 -25 34 -48 38 -51 5 -3 8 -10 6 -14 -3 -11 73 -88 103
-104 22 -11 29 -11 54 5 27 18 27 19 7 22 -12 2 -31 -2 -42 -8 -17 -9 -21 -8
-21 7 0 9 -10 27 -21 39 -19 21 -20 27 -9 53 20 49 33 55 77 32 22 -11 45 -27
52 -35 21 -25 28 -19 35 33 4 34 17 62 43 95 20 25 34 49 31 52 -3 3 -28 -18
-56 -45 -55 -57 -77 -62 -128 -31 -32 20 -53 62 -69 134 -8 38 -24 17 -26 -34
-1 -52 -12 -73 -42 -76 -20 -2 -35 7 -62 37 l-36 40 22 30 22 31 -36 -3 c-41
-4 -59 9 -61 43 -1 13 -7 22 -12 21 -6 -1 -23 18 -39 43 -15 24 -31 44 -35 44
-8 0 -90 118 -90 131 0 5 -7 9 -15 9 -8 0 -15 6 -15 14 0 8 -18 38 -40 67 -22
30 -40 59 -40 66 0 7 -4 13 -9 13 -5 0 -11 10 -14 23 -6 21 -5 21 16 -3 12
-14 35 -41 51 -60 15 -19 25 -30 22 -23 -4 6 5 36 19 67 14 30 25 59 25 64 0
5 12 15 28 22 25 12 26 13 7 21 -15 6 -16 8 -4 8 9 1 30 8 45 16 31 16 104 21
104 7 0 -5 11 -21 24 -37 17 -20 28 -25 39 -19 9 5 15 14 14 19 -4 19 48 17
88 -3 22 -12 52 -23 67 -26 14 -4 39 -17 55 -30 16 -13 60 -31 103 -42 61 -14
81 -24 107 -53 37 -40 49 -84 34 -124 -6 -16 -8 -33 -5 -38 10 -17 -23 -55
-58 -68 -18 -7 -42 -17 -53 -22 -11 -5 -27 -8 -35 -7 -48 4 -54 -3 -17 -23 32
-17 43 -18 77 -8 31 9 58 9 137 -4 54 -9 116 -14 138 -11 140 16 262 38 340
61 102 31 178 34 455 20 245 -13 300 -37 300 -133 0 -40 4 -54 18 -60 9 -4 85
-8 167 -8 126 -1 154 -4 175 -18 17 -13 43 -18 87 -18 34 0 65 -5 69 -11 3 -6
17 -8 31 -4 16 4 22 2 18 -5 -5 -8 10 -14 35 -12 3 0 48 3 100 6 52 4 115 9
140 12 41 5 43 4 26 -9 -10 -8 -16 -19 -12 -25 4 -7 1 -12 -8 -12 -8 0 -16 5
-18 12 -3 9 -6 9 -12 0 -4 -7 -2 -12 3 -12 6 0 11 -7 11 -15 0 -8 -7 -15 -15
-15 -8 0 -12 -6 -9 -14 3 -8 -3 -19 -15 -26 -12 -6 -21 -17 -21 -24 0 -12
-129 -66 -158 -66 -7 0 -22 -9 -34 -20 -19 -17 -19 -20 -4 -26 9 -3 31 -3 49
0 17 4 45 6 61 6 15 0 33 4 40 9 10 8 34 13 144 27 23 3 42 10 42 16 0 5 5 6
10 3 7 -4 10 242 10 729 l0 736 -1084 0 c-770 0 -1087 -3 -1092 -11z m-906
-658 c3 -8 -1 -12 -9 -9 -7 2 -15 10 -17 17 -3 8 1 12 9 9 7 -2 15 -10 17 -17z"/>
<path d="M600 3211 c0 -6 -11 -16 -24 -21 -19 -7 -23 -14 -19 -32 3 -13 9 -27
13 -33 4 -5 10 -23 14 -40 8 -31 19 -59 67 -161 16 -33 29 -67 29 -76 0 -8 14
-45 30 -82 32 -70 73 -233 101 -397 l10 -66 72 -16 c230 -53 477 -60 642 -18
87 22 373 125 387 139 5 5 -9 6 -35 2 -24 -3 -54 -3 -66 2 -18 6 -20 11 -11
28 6 11 7 20 3 20 -12 0 39 26 63 32 12 3 29 1 38 -4 21 -12 12 3 -105 173
-82 118 -119 185 -119 215 0 8 -14 37 -32 65 -31 52 -31 52 -14 83 18 30 18
31 -2 13 -17 -15 -40 -18 -173 -17 -88 0 -189 6 -235 14 -107 19 -244 57 -244
68 0 4 -10 8 -23 8 -13 0 -27 4 -32 8 -6 5 -26 15 -45 22 -19 7 -63 26 -98 41
-34 16 -77 28 -95 28 -17 -1 -47 2 -64 6 -23 5 -33 4 -33 -4z"/>
<path d="M1 2624 l-1 -232 31 -6 c36 -7 80 -7 62 1 -20 8 8 31 30 25 17 -4 18
-2 7 17 -13 25 -6 41 11 24 12 -12 42 -6 34 7 -3 4 3 7 13 6 13 -1 17 7 18 37
2 63 -23 117 -77 169 -30 28 -52 59 -55 78 -4 16 -13 30 -20 30 -8 0 -14 6
-14 13 0 6 -9 23 -20 37 -19 25 -19 24 -19 -206z"/>
<path d="M2340 2485 c0 -7 41 -23 78 -31 l27 -5 -24 20 c-20 18 -81 30 -81 16z"/>
<path d="M2740 2306 c0 -2 8 -10 18 -17 15 -13 16 -12 3 4 -13 16 -21 21 -21
13z"/>
<path d="M2071 2295 c0 -14 28 -50 34 -43 3 3 -3 16 -14 29 -11 13 -20 20 -20
14z"/>
<path d="M2818 2245 c23 -20 42 -44 42 -53 0 -9 11 -27 24 -41 21 -22 26 -42
35 -125 7 -67 7 -105 0 -118 -6 -11 -9 -31 -8 -46 2 -33 -3 -47 -51 -144 l-38
-77 29 14 c38 20 42 19 37 -10 -3 -14 -4 -25 -2 -25 6 0 38 65 36 73 -1 4 2 7
8 7 5 0 6 7 3 17 -4 10 -2 14 4 10 25 -16 53 142 53 300 l0 96 -43 41 c-23 23
-71 58 -107 79 l-65 38 43 -36z"/>
<path d="M2132 2198 c1 -15 7 -24 14 -21 7 2 24 -11 38 -30 31 -40 29 -66 -9
-113 -22 -27 -25 -28 -40 -13 -19 19 -22 48 -11 99 l7 35 -20 -25 c-32 -39
-27 -84 13 -126 27 -29 43 -37 89 -43 30 -4 67 -15 81 -24 14 -9 41 -17 61
-17 32 0 34 1 21 18 -8 9 -50 62 -94 117 -44 55 -96 116 -116 135 l-36 34 2
-26z"/>
<path d="M2 1828 l3 -253 50 -5 c55 -6 40 -20 -21 -20 l-34 0 0 -116 c0 -73 4
-113 10 -109 5 3 31 8 57 11 27 3 54 7 62 10 25 8 225 34 301 39 41 3 99 10
129 16 29 6 69 8 90 4 20 -4 109 -7 199 -6 123 1 162 -2 162 -12 1 -6 10 5 21
25 32 62 54 71 145 59 74 -11 101 -8 77 7 -6 4 -14 22 -18 40 -6 29 -8 31 -19
16 -11 -14 -15 -15 -34 -3 -30 19 -35 37 -12 49 21 11 27 45 10 55 -5 3 -10
14 -10 24 0 39 -70 79 -125 71 -40 -6 -74 -1 -130 19 -16 5 -57 15 -90 22 -33
6 -73 15 -89 20 -16 5 -55 9 -87 9 -32 0 -70 5 -86 11 -15 6 -43 11 -60 11
-30 0 -83 30 -83 46 0 18 127 46 137 30 2 -5 11 -1 17 8 9 12 21 15 42 11 23
-4 37 2 67 28 45 39 42 58 -6 44 -40 -11 -37 -12 -37 7 0 8 -5 12 -10 9 -8 -5
-8 -11 0 -20 8 -10 4 -18 -18 -34 -16 -11 -32 -18 -35 -14 -4 3 -41 8 -84 10
-90 5 -132 25 -111 50 11 14 10 16 -14 10 -19 -5 -29 -3 -35 8 -6 10 -31 16
-91 18 -45 2 -85 7 -89 10 -3 4 -24 7 -45 7 -27 0 -37 4 -32 11 5 8 -1 10 -20
7 -14 -3 -29 -1 -32 3 -20 33 -24 -12 -22 -243z m333 152 c3 -6 -1 -7 -9 -4
-18 7 -21 14 -7 14 6 0 13 -4 16 -10z m55 -105 c0 -8 -4 -15 -10 -15 -5 0 -10
7 -10 15 0 8 5 15 10 15 6 0 10 -7 10 -15z m364 -331 c28 -17 -372 -28 -489
-14 -182 22 -154 26 155 26 212 -1 321 -5 334 -12z"/>
<path d="M4238 2023 c-48 -19 -48 -37 -2 -51 44 -13 107 5 113 34 2 10 8 22
15 26 22 15 -90 7 -126 -9z"/>
<path d="M410 1999 c0 -11 5 -17 10 -14 6 3 10 13 10 21 0 8 -4 14 -10 14 -5
0 -10 -9 -10 -21z"/>
<path d="M977 1935 c-9 -23 11 -28 23 -5 8 16 8 20 -4 20 -7 0 -16 -7 -19 -15z"/>
<path d="M5030 1926 c-22 -20 -143 -84 -182 -95 -26 -7 -6 -9 90 -10 l122 -1
0 60 c0 62 -5 70 -30 46z"/>
<path d="M2263 1874 c-13 -14 -23 -29 -23 -32 0 -4 -15 -24 -34 -44 -18 -20
-39 -51 -45 -69 -14 -40 -14 -40 5 -32 9 3 23 -3 35 -16 22 -23 34 -28 23 -8
-4 6 2 3 14 -7 12 -11 24 -17 26 -15 1 2 9 13 15 24 9 15 11 16 7 3 -4 -15 1
-18 29 -18 29 0 36 -4 41 -25 3 -14 12 -25 19 -25 7 0 28 -2 46 -5 l34 -5 -29
11 c-25 10 -28 15 -23 45 3 18 15 53 25 78 17 38 26 46 56 52 47 8 46 22 -3
30 -24 4 -50 17 -66 34 -17 18 -33 26 -46 23 -10 -3 -19 0 -19 6 0 14 -37 15
-45 1 -4 -6 -11 -8 -16 -4 -5 3 -7 10 -4 15 11 17 0 9 -22 -17z"/>
<path d="M1567 1825 c32 -46 115 -121 162 -144 53 -27 52 -41 -1 -41 -58 0
-118 -18 -118 -35 0 -12 6 -12 36 1 39 17 89 8 89 -16 0 -30 23 -19 29 14 7
39 46 76 80 76 30 0 102 -50 86 -60 -8 -5 -3 -10 15 -14 37 -9 75 -50 75 -81
0 -31 -34 -47 -82 -40 -27 5 -29 4 -13 -5 15 -7 6 -8 -35 -4 -30 3 -62 8 -72
10 -9 3 -19 0 -23 -6 -3 -5 -25 -10 -48 -10 l-42 -1 30 -14 c39 -17 8 -20 -47
-3 -45 13 -78 49 -78 84 0 25 -14 29 -58 17 -18 -4 -20 -8 -10 -14 38 -24 -50
-79 -127 -79 -97 -1 -21 -18 105 -23 140 -7 223 -16 230 -27 9 -14 598 -30
705 -19 55 5 142 12 194 15 52 2 96 6 97 7 2 1 -18 27 -43 57 -24 30 -55 67
-67 83 -22 27 -25 28 -63 18 -32 -9 -79 -6 -234 13 -179 23 -199 28 -264 61
-48 25 -93 39 -145 46 -41 6 -92 19 -113 29 -28 14 -35 15 -27 4 10 -11 10
-14 0 -14 -23 0 -79 41 -121 88 -23 26 -37 38 -31 27 12 -23 93 -101 132 -126
44 -29 12 -33 -44 -5 -35 17 -78 52 -117 94 -35 37 -53 53 -42 37z m738 -255
c4 -6 -6 -10 -22 -10 -59 0 -57 -18 3 -25 77 -10 94 -19 94 -54 0 -38 -36 -51
-141 -51 -69 0 -80 2 -93 22 -17 23 -21 84 -8 105 12 19 156 30 167 13z"/>
<path d="M2713 1823 c1 -19 6 -28 11 -23 6 6 5 18 -2 32 -10 22 -10 21 -9 -9z"/>
<path d="M2650 1762 c0 -2 8 -17 17 -33 13 -21 14 -32 7 -37 -7 -4 -14 -27
-18 -52 -3 -26 -3 -37 2 -26 7 17 10 15 30 -15 25 -40 28 -28 7 31 -23 66 -17
71 9 7 13 -32 30 -64 37 -73 10 -13 10 -17 -1 -24 -11 -7 -8 -17 14 -49 16
-23 36 -41 45 -41 12 0 13 -2 3 -8 -19 -13 -3 -42 24 -42 13 0 53 11 90 25 36
14 74 25 83 25 9 0 21 13 27 28 9 24 8 30 -13 45 -17 14 -27 15 -42 7 -23 -12
-87 -6 -107 11 -11 9 -18 6 -35 -15 -11 -14 -26 -26 -33 -26 -7 0 -26 28 -41
63 -15 34 -36 82 -48 106 -16 36 -18 49 -10 72 10 27 10 28 -18 26 -16 -1 -29
-4 -29 -5z"/>
<path d="M4870 1540 c0 -5 7 -10 16 -10 8 0 12 5 9 10 -3 6 -10 10 -16 10 -5
0 -9 -4 -9 -10z"/>
<path d="M2710 1500 c6 -11 13 -20 16 -20 2 0 0 9 -6 20 -6 11 -13 20 -16 20
-2 0 0 -9 6 -20z"/>
<path d="M3167 1500 c3 -11 9 -20 14 -20 11 0 11 3 3 24 -9 23 -23 20 -17 -4z"/>
<path d="M4916 1506 c3 -9 13 -16 22 -16 8 0 13 1 11 3 -2 1 -12 9 -22 16 -15
12 -17 12 -11 -3z"/>
<path d="M5025 1470 c10 -11 20 -20 23 -20 3 0 -3 9 -13 20 -10 11 -20 20 -23
20 -3 0 3 -9 13 -20z"/>
<path d="M4870 1476 c0 -2 8 -10 18 -17 15 -13 16 -12 3 4 -13 16 -21 21 -21
13z"/>
<path d="M4945 1469 c-4 -6 -4 -13 -1 -16 3 -4 6 -1 6 7 0 10 3 10 15 0 11 -9
12 -15 5 -20 -7 -5 -6 -11 5 -20 11 -9 15 -9 15 -1 0 7 5 9 11 5 7 -4 1 7 -12
25 -24 33 -34 37 -44 20z"/>
<path d="M4800 1466 c0 -2 8 -10 18 -17 15 -13 16 -12 3 4 -13 16 -21 21 -21
13z"/>
<path d="M4570 1446 c0 -2 8 -10 18 -17 15 -13 16 -12 3 4 -13 16 -21 21 -21
13z"/>
<path d="M4708 1443 c7 -3 16 -2 19 1 4 3 -2 6 -13 5 -11 0 -14 -3 -6 -6z"/>
<path d="M388 1233 c7 -3 16 -2 19 1 4 3 -2 6 -13 5 -11 0 -14 -3 -6 -6z"/>
<path d="M258 1203 c7 -3 16 -2 19 1 4 3 -2 6 -13 5 -11 0 -14 -3 -6 -6z"/>
<path d="M125 1170 c-7 -12 2 -12 30 0 19 8 19 9 -2 9 -12 1 -25 -3 -28 -9z"/>
<path d="M4700 1165 c-390 -17 -538 -27 -518 -34 12 -4 4 -12 -33 -30 -27 -14
-49 -29 -49 -33 0 -4 50 -7 111 -5 61 1 106 1 100 -1 -23 -8 -10 -22 16 -18
37 7 45 -1 27 -29 -14 -22 -14 -25 4 -41 12 -9 18 -24 15 -35 -5 -17 -1 -18
27 -13 42 9 52 -7 44 -72 -4 -39 -2 -54 10 -67 11 -11 14 -25 10 -47 -5 -23
-2 -34 10 -43 16 -12 16 -15 2 -42 -9 -17 -16 -35 -16 -41 0 -10 -67 -58 -129
-93 -29 -16 -70 -61 -71 -77 0 -6 7 -17 15 -24 20 -17 19 -30 -2 -30 -16 0
-16 -2 -3 -11 12 -8 9 -9 -12 -5 -22 5 -26 3 -22 -9 4 -8 10 -15 14 -15 5 0 6
-10 2 -22 -5 -21 -6 -21 -13 -2 -7 16 -8 16 -8 -7 -1 -38 -74 -96 -129 -102
-15 -2 -32 -6 -37 -9 -9 -5 -100 -20 -205 -33 -25 -3 -92 -7 -150 -9 -120 -4
-188 -14 -197 -29 -3 -5 -1 -7 5 -3 5 3 12 3 14 -2 5 -12 73 -52 89 -52 8 0
26 -6 40 -14 14 -7 42 -16 62 -20 21 -4 37 -10 37 -14 0 -28 80 -32 683 -32
l617 0 0 590 0 590 -37 -1 c-21 -1 -166 -7 -323 -14z"/>
<path d="M3933 1123 c15 -2 37 -2 50 0 12 2 0 4 -28 4 -27 0 -38 -2 -22 -4z"/>
<path d="M3843 1113 c9 -2 25 -2 35 0 9 3 1 5 -18 5 -19 0 -27 -2 -17 -5z"/>
</g>
</svg>
