<?xml version="1.0" standalone="no"?>
<!DOCTYPE svg PUBLIC "-//W3C//DTD SVG 20010904//EN"
 "http://www.w3.org/TR/2001/REC-SVG-20010904/DTD/svg10.dtd">
<svg version="1.0" xmlns="http://www.w3.org/2000/svg"
 width="950.000000pt" height="633.000000pt" viewBox="0 0 950.000000 633.000000"
 preserveAspectRatio="xMidYMid meet">

<g transform="translate(0.000000,633.000000) scale(0.100000,-0.100000)"
fill="#000000" stroke="none">
<path d="M7351 6303 c0 -25 1 -26 9 -8 12 27 12 35 0 35 -5 0 -10 -12 -9 -27z"/>
<path d="M7420 6310 c-6 -11 -14 -19 -18 -16 -11 6 -5 -94 6 -107 6 -7 9 -23
8 -37 -1 -14 3 -31 8 -39 8 -10 8 -15 -1 -18 -7 -2 -9 -11 -6 -20 4 -10 2 -14
-4 -10 -5 3 -23 -7 -38 -23 -29 -30 -85 -42 -85 -19 0 8 -5 7 -15 -1 -9 -7
-18 -10 -22 -6 -3 3 -2 6 4 6 6 0 13 7 16 14 4 10 1 13 -9 9 -8 -3 -20 -1 -27
4 -6 5 -30 8 -52 7 -28 -1 -47 4 -62 18 -12 11 -26 17 -31 14 -5 -3 -21 5 -35
18 -14 13 -28 22 -30 19 -8 -7 -61 64 -67 89 -4 14 -13 23 -25 23 -11 0 -25 6
-31 14 -7 9 -23 12 -44 9 -22 -3 -56 5 -104 24 -76 31 -104 32 -241 10 -33 -6
-90 -13 -127 -17 -38 -4 -68 -11 -68 -16 0 -4 12 -7 28 -4 80 12 112 14 112 7
0 -7 -145 -30 -233 -37 -64 -5 -87 -14 -87 -34 0 -17 7 -18 78 -14 42 2 92 8
109 13 19 5 35 5 39 -1 3 -5 12 -5 23 0 9 5 23 6 31 1 7 -4 24 -4 38 1 26 10
129 -9 187 -35 75 -33 83 -39 78 -54 -5 -11 -3 -13 7 -7 8 5 11 4 6 -3 -5 -8
-18 -7 -47 3 -23 8 -45 12 -50 9 -5 -3 -9 2 -9 10 0 12 -7 14 -30 10 -18 -4
-30 -2 -30 4 0 16 -73 2 -87 -17 -10 -14 -12 -14 -18 2 -6 14 -16 17 -54 13
-25 -2 -54 -7 -63 -11 -13 -5 -18 -2 -18 8 0 12 -9 11 -47 -8 l-48 -23 -9 27
c-13 38 -14 38 -46 0 -29 -33 -30 -33 -36 -11 -5 18 -9 20 -20 11 -11 -9 -14
-8 -14 3 0 15 -37 18 -57 5 -17 -11 -16 1 1 19 8 8 23 14 34 14 23 0 46 25 37
40 -8 12 -52 13 -59 1 -3 -5 -22 -12 -41 -15 -25 -5 -35 -12 -35 -26 0 -14 5
-17 23 -12 19 5 20 4 8 -11 -7 -9 -17 -14 -22 -11 -5 3 -9 0 -9 -6 0 -7 -8 -9
-20 -5 -12 4 -20 2 -20 -4 0 -6 -15 -19 -34 -28 -23 -10 -36 -25 -39 -43 -7
-31 2 -72 13 -65 4 3 11 -11 14 -30 4 -19 11 -35 16 -35 6 0 10 -5 10 -11 0
-7 -10 -9 -25 -5 -15 4 -25 2 -25 -4 0 -7 -8 -9 -20 -5 -14 5 -20 2 -20 -9 0
-9 5 -16 11 -16 5 0 7 -5 3 -11 -4 -8 0 -9 15 -4 24 7 25 3 12 -63 -9 -46 4
-67 24 -39 7 9 16 13 20 9 5 -4 6 1 2 10 -3 10 0 19 9 22 24 9 24 8 24 -28 0
-22 6 -36 17 -40 12 -5 13 -10 5 -18 -7 -7 -4 -17 14 -33 26 -25 31 -37 12
-34 -28 3 -38 -2 -38 -21 0 -11 5 -20 11 -20 20 0 37 -27 37 -61 0 -53 29
-235 41 -258 7 -12 17 -21 23 -21 9 0 9 3 0 12 -21 21 -14 100 14 156 34 68
48 67 23 -3 -33 -94 -21 -179 27 -191 41 -10 305 23 384 48 19 6 41 13 49 15
11 3 12 16 7 60 -13 109 -93 183 -201 183 -46 1 -48 2 -31 15 11 8 28 15 38
15 10 0 18 4 18 9 0 13 102 1 128 -15 12 -8 22 -12 22 -10 0 12 70 -62 84 -89
8 -17 15 -23 16 -14 0 18 -46 84 -81 115 -13 12 -42 31 -64 43 -38 20 -38 21
-10 17 17 -3 51 -8 78 -11 26 -3 71 -17 100 -30 54 -24 147 -108 147 -132 0
-7 -16 -27 -35 -44 -40 -35 -44 -49 -14 -49 16 0 19 -4 14 -20 -6 -19 -4 -19
32 -6 21 7 52 12 68 11 17 -1 56 -3 89 -3 49 -2 57 -5 52 -18 -5 -13 -1 -15
19 -11 19 3 25 1 21 -8 -3 -8 2 -16 10 -19 9 -3 14 -14 12 -24 -1 -10 9 -30
25 -45 58 -59 29 -164 -51 -183 -15 -4 -37 -18 -49 -31 -27 -28 -38 -29 -55
-5 -16 23 -45 34 -53 21 -4 -5 -11 -6 -17 -3 -5 3 -30 7 -54 8 -24 1 -39 -1
-33 -5 11 -7 -66 -63 -110 -81 -15 -6 -21 -12 -13 -15 21 -8 13 -20 -20 -34
-18 -7 -60 -25 -93 -41 -66 -32 -216 -78 -252 -78 -13 0 -23 -4 -23 -9 0 -12
-103 -51 -134 -51 -12 0 -26 -3 -30 -7 -4 -4 -13 -8 -19 -9 -26 -3 -57 -17
-57 -26 0 -6 11 -7 28 -3 15 4 34 8 42 8 8 0 20 4 27 9 17 14 83 28 83 18 0
-4 8 -10 19 -13 14 -3 18 -13 16 -42 -1 -20 -8 -41 -16 -46 -11 -6 -9 -12 6
-30 l20 -22 -23 6 c-21 5 -23 3 -18 -18 3 -13 2 -26 -2 -29 -5 -3 -7 -20 -4
-38 5 -33 5 -33 -16 -14 -20 17 -22 17 -28 2 -3 -9 -4 -23 -1 -31 4 -8 2 -17
-2 -20 -5 -3 -12 2 -15 11 -3 8 -10 13 -16 9 -6 -4 -5 -14 2 -30 9 -20 7 -27
-13 -47 -13 -13 -32 -27 -42 -31 -9 -3 -17 -14 -17 -22 0 -9 -4 -13 -10 -10
-5 3 -10 0 -10 -7 0 -16 -84 -73 -120 -81 -56 -13 -100 -33 -100 -44 0 -15
-19 -17 -54 -3 -21 8 -34 4 -76 -22 -27 -17 -50 -34 -50 -39 0 -4 -29 -11 -64
-14 -57 -6 -71 -4 -122 19 -45 21 -59 24 -65 14 -5 -8 -3 -14 6 -16 8 -2 15
-12 15 -23 0 -11 13 -31 30 -45 17 -15 27 -31 23 -40 -7 -18 26 -56 43 -50 19
7 72 -22 79 -43 5 -17 15 -19 79 -17 l74 2 -34 -79 c-19 -44 -42 -109 -50
-144 l-16 -63 -62 0 c-49 -1 -57 -3 -42 -11 10 -6 43 -9 72 -7 30 3 54 1 54
-4 0 -5 -18 -55 -40 -111 -59 -150 -75 -251 -60 -376 7 -55 18 -108 26 -118
13 -17 13 -17 14 4 0 12 -4 33 -10 47 -12 34 -13 69 -1 198 10 104 20 139 78
282 l28 70 3 -40 c2 -21 -2 -93 -9 -159 -18 -168 -12 -598 15 -970 l5 -60 -14
60 c-7 33 -13 50 -14 38 -1 -13 -6 -23 -12 -23 -6 0 -8 -11 -4 -28 11 -51 -23
-34 -53 27 -23 47 -28 52 -30 32 -5 -32 36 -119 59 -126 23 -8 30 -29 15 -50
-11 -15 -14 -15 -39 5 -21 17 -27 18 -27 7 0 -9 -3 -22 -6 -31 -4 -11 -1 -16
10 -16 9 0 16 -8 16 -20 0 -11 -7 -20 -16 -20 -8 0 -34 -9 -57 -19 -57 -26
-97 -36 -97 -23 0 12 68 95 81 100 5 2 9 11 9 19 0 12 -3 13 -14 4 -18 -15
-28 -2 -57 82 -13 37 -27 67 -31 67 -4 0 -8 -26 -10 -57 l-3 -58 -28 85 c-16
47 -31 92 -34 100 -4 11 -7 9 -14 -8 -6 -16 -4 -45 5 -85 15 -64 9 -90 -17
-68 -9 7 -16 38 -19 79 -5 66 -23 122 -40 122 -14 0 -9 -103 7 -134 25 -47 14
-76 -15 -41 -7 8 -22 15 -34 15 -37 0 -51 17 -52 62 -1 45 -22 95 -49 118 -15
13 -17 10 -14 -28 2 -22 0 -44 -4 -48 -10 -10 -37 16 -31 31 3 7 1 16 -5 19
-5 3 -12 -7 -16 -23 -3 -16 -13 -32 -21 -35 -13 -5 -15 -13 -14 -83 0 -22 -4
-33 -14 -33 -21 0 -29 34 -21 93 7 46 6 50 -8 38 -9 -7 -19 -33 -23 -57 -4
-27 -11 -44 -20 -44 -10 0 -14 21 -16 77 -2 50 -7 78 -16 81 -18 6 -52 -75
-52 -125 0 -24 -4 -43 -8 -43 -4 0 -7 49 -6 110 2 94 5 114 23 136 39 50 217
229 291 294 41 36 117 109 169 163 52 53 100 97 106 97 6 0 29 18 50 40 21 22
45 40 52 40 18 0 17 64 -1 79 -8 7 -18 54 -26 119 -13 109 -25 139 -76 190
-31 30 -54 29 -54 -3 0 -34 -16 -32 -35 5 -9 17 -21 30 -28 30 -7 0 -37 -15
-67 -32 -53 -32 -64 -55 -25 -50 13 1 16 -1 8 -6 -8 -5 -2 -16 23 -35 l34 -28
-35 -37 c-19 -20 -35 -41 -35 -46 0 -5 34 -42 75 -82 68 -68 126 -138 99 -121
-7 4 -14 -3 -18 -18 -4 -14 -16 -37 -29 -52 -40 -48 -167 -170 -172 -165 -3 3
-5 1 -5 -4 0 -18 -78 -96 -89 -89 -6 3 -10 3 -9 -2 4 -11 -47 -63 -62 -63 -6
0 -23 -9 -37 -20 -31 -24 -78 -26 -101 -4 -9 9 -26 57 -39 106 -26 100 -64
183 -90 196 -10 5 -52 12 -93 16 -148 12 -256 27 -305 43 -53 16 -143 69 -185
108 -33 31 -210 138 -230 139 -8 1 -49 20 -91 43 -58 33 -94 45 -155 54 l-79
12 -65 67 c-71 74 -109 96 -227 136 -43 14 -107 43 -143 64 -62 36 -290 224
-290 238 0 14 -46 58 -73 70 -27 12 -27 13 -22 82 4 38 2 77 -3 86 -7 12 -9 0
-8 -39 0 -49 -3 -59 -29 -83 -30 -28 -91 -42 -122 -28 -24 10 -53 13 -53 4 0
-4 11 -24 25 -44 l24 -36 -24 -6 c-20 -5 -25 -12 -25 -40 0 -18 6 -37 14 -41
11 -6 12 -20 6 -58 -9 -59 -2 -79 14 -40 l12 28 54 -62 c30 -34 73 -73 95 -87
48 -29 35 -30 -77 -5 -109 24 -242 15 -284 -18 -15 -12 -36 -21 -46 -21 -14 0
-18 -5 -14 -16 3 -9 6 -20 6 -25 0 -6 4 -7 10 -4 5 3 10 1 10 -4 0 -6 -5 -11
-11 -11 -5 0 -7 -5 -4 -10 4 -6 11 -8 16 -5 5 4 4 -5 -3 -20 -14 -31 -21 -24
-37 35 -7 25 -22 61 -32 80 -25 49 -24 17 3 -82 25 -92 20 -88 153 -112 49 -9
91 -20 95 -24 3 -4 31 -8 63 -10 32 -1 64 -5 70 -9 7 -4 19 -6 27 -5 9 1 25
-7 37 -18 12 -11 27 -20 33 -20 15 0 43 -31 57 -63 7 -15 17 -27 22 -27 5 0
17 -14 25 -31 15 -30 15 -31 -4 -26 -10 3 -21 -1 -24 -8 -2 -7 -26 -16 -53
-19 -54 -8 -155 -54 -193 -89 -52 -48 -88 -105 -115 -182 -22 -66 -27 -99 -29
-187 0 -58 2 -101 6 -95 5 8 8 5 9 -8 4 -53 7 -68 16 -74 14 -9 38 -55 24 -47
-17 11 -13 -21 5 -38 8 -9 20 -14 25 -11 5 4 9 2 9 -4 0 -5 -4 -13 -10 -16
-16 -10 52 -77 72 -72 10 3 18 1 18 -4 0 -5 11 -11 24 -15 37 -9 22 -42 -23
-50 -20 -3 -45 -8 -56 -11 -16 -3 -17 -2 -5 6 12 8 12 13 -4 30 -14 15 -16 24
-8 34 8 10 6 16 -10 26 -18 11 -20 11 -14 -4 7 -19 -9 -45 -29 -45 -8 0 -11 8
-8 21 6 23 -12 40 -34 32 -7 -3 -13 -14 -13 -24 0 -26 -8 -24 -37 9 -51 58
-53 63 -23 55 11 -3 20 -9 20 -14 0 -5 7 -9 15 -9 8 0 15 5 15 10 0 6 -5 10
-12 10 -6 0 -4 7 5 18 21 23 21 27 1 46 -14 15 -14 16 5 16 14 0 21 6 20 18 0
10 -3 12 -6 5 -9 -23 -82 -15 -114 12 -23 19 -37 23 -62 18 -18 -3 -38 -11
-46 -17 -11 -8 -15 -8 -18 2 -3 6 -17 12 -33 12 -20 0 -29 -6 -34 -22 -5 -20
-8 -21 -17 -8 -8 12 -9 10 -4 -7 7 -25 1 -29 -18 -13 -7 6 -21 18 -32 26 -19
15 -19 15 6 10 29 -6 62 18 37 26 -9 3 -4 15 15 37 15 18 27 27 27 21 0 -6 5
-8 11 -5 6 4 8 9 5 12 -3 3 0 10 5 17 5 6 27 38 48 71 31 51 40 75 49 145 5
47 9 99 6 116 -3 27 0 33 22 38 28 7 23 23 -12 36 -13 5 -24 17 -24 25 0 10
-5 13 -11 9 -8 -5 -10 3 -7 25 3 22 1 30 -7 27 -7 -2 -20 10 -30 27 -27 46
-84 97 -132 119 -56 25 -166 16 -238 -20 -145 -71 -236 -264 -222 -467 11
-155 64 -249 164 -290 50 -21 152 -19 213 4 27 10 49 16 48 12 -2 -20 4 -31
18 -31 8 0 20 -13 25 -30 6 -16 18 -30 26 -30 9 0 13 6 9 15 -3 9 0 15 9 15 8
0 15 -9 15 -21 0 -12 4 -17 11 -13 6 3 3 -6 -7 -20 -11 -18 -20 -23 -24 -16
-11 18 -45 7 -42 -13 2 -14 -1 -15 -23 -7 -34 13 -58 13 -50 -1 9 -13 -96 -3
-380 40 -66 9 -122 16 -125 13 -7 -6 47 -47 101 -77 99 -53 316 -120 584 -179
89 -19 285 -42 485 -57 85 -6 159 -15 165 -20 16 -16 -182 -9 -350 12 -88 11
-170 20 -182 20 -13 1 -20 5 -17 10 3 5 -7 9 -23 10 -15 0 -41 2 -58 4 -16 2
-55 7 -85 10 -30 3 -98 15 -151 25 -65 13 -106 16 -125 10 -16 -4 -21 -9 -11
-9 17 -1 26 -41 9 -41 -5 0 -17 -8 -28 -18 -10 -10 -26 -21 -36 -24 -9 -4 -19
-23 -23 -47 -6 -37 -25 -68 -25 -42 0 6 -9 11 -19 11 -12 0 -19 -7 -19 -17 0
-10 -3 -30 -7 -45 -5 -19 -3 -28 4 -28 9 0 9 -5 1 -20 -17 -31 10 -71 96 -141
55 -45 72 -64 62 -70 -7 -5 -19 -9 -26 -9 -8 0 -29 -7 -48 -16 -37 -18 -46
-44 -14 -44 11 0 20 3 20 8 0 4 20 18 45 31 l45 24 78 -37 c43 -20 83 -36 90
-36 6 0 16 -9 22 -20 14 -26 -2 -26 -77 0 -74 26 -96 26 -65 0 13 -11 21 -24
18 -29 -4 -5 7 -12 24 -16 28 -6 43 -25 20 -25 -16 0 -11 -20 6 -27 10 -4 22
1 30 12 14 19 59 45 79 45 6 0 20 -9 30 -20 16 -18 16 -20 1 -26 -9 -3 -16
-13 -16 -20 0 -11 -4 -12 -19 -5 -19 11 -31 5 -31 -14 0 -7 13 -15 28 -18 19
-4 28 -12 29 -26 2 -19 -4 -21 -66 -21 -49 0 -72 4 -81 15 -16 20 -40 19 -40
-1 0 -13 -3 -14 -14 -5 -11 10 -16 8 -21 -9 -7 -23 14 -130 27 -130 4 0 8 -10
8 -22 0 -19 2 -20 10 -8 8 12 10 10 10 -8 0 -13 4 -21 9 -18 5 3 14 -1 21 -9
9 -11 16 -12 30 -2 25 15 34 4 34 -41 -1 -20 1 -29 3 -19 3 9 9 17 15 17 6 0
8 -8 5 -17 -38 -122 -79 -178 -137 -188 -25 -4 -40 -12 -40 -21 0 -8 7 -14 15
-14 8 0 15 -8 16 -17 0 -15 3 -14 16 4 9 13 26 23 40 23 19 0 28 10 45 48 11
26 24 49 28 52 4 3 10 15 14 28 4 12 12 20 17 17 5 -4 9 3 9 14 0 12 4 21 9
21 5 0 7 -18 4 -39 -4 -31 0 -50 20 -85 14 -25 21 -46 15 -46 -6 0 -5 -7 3
-17 12 -15 12 -16 -3 -10 -10 3 -18 2 -18 -4 0 -6 -16 -25 -35 -43 -27 -26
-35 -29 -38 -17 -3 10 -5 7 -6 -7 -1 -26 -17 -59 -38 -80 -7 -7 -13 -26 -13
-42 0 -36 -10 -61 -20 -55 -16 10 -22 -36 -23 -166 0 -71 -4 -129 -9 -129 -4
0 -8 21 -8 47 0 25 -2 44 -4 42 -4 -4 -19 -295 -18 -354 1 -143 4 -165 22
-175 12 -7 443 -10 1232 -10 1038 1 1216 3 1232 15 20 15 41 11 30 -7 -5 -8
28 -9 112 -3 143 8 178 9 225 0 34 -6 36 -5 42 23 6 30 -15 85 -56 142 -9 13
-17 30 -17 36 0 7 -15 28 -32 47 -18 19 -47 57 -65 85 -29 46 -32 58 -38 164
-9 165 -10 170 -51 196 -44 29 -45 65 -1 70 15 2 25 8 22 13 -4 5 -1 9 5 9 7
0 9 7 5 18 -3 9 -8 50 -10 91 -3 54 -9 77 -21 86 -10 7 -15 19 -11 29 4 10 1
16 -7 16 -8 0 -16 -7 -20 -15 -3 -8 -13 -15 -22 -15 -10 0 -14 -5 -11 -14 3
-8 2 -16 -4 -18 -5 -2 -11 -40 -13 -84 -2 -45 -6 -87 -10 -93 -12 -18 -23 -13
-30 14 -6 24 -9 24 -64 19 -46 -5 -62 -3 -74 10 -26 26 -58 21 -58 -9 0 -39
-27 -84 -55 -91 -16 -4 -25 -13 -25 -25 0 -11 -5 -28 -12 -38 -10 -16 -7 -25
15 -55 l27 -35 -20 -52 c-12 -29 -19 -59 -17 -68 1 -9 11 8 21 37 16 48 36 62
36 26 0 -9 5 -24 11 -35 8 -16 13 -18 25 -8 8 6 14 22 14 35 0 12 5 26 11 30
22 13 30 -22 24 -99 -4 -64 -3 -78 10 -83 21 -8 19 -21 -4 -29 -13 -4 -22 -20
-27 -51 -11 -56 -28 -58 -32 -4 -4 47 16 45 -207 25 -330 -29 -438 -32 -463
-16 -13 7 -35 14 -50 15 -25 1 -28 6 -46 83 -10 47 -15 90 -11 100 5 10 7 24
6 31 -1 7 11 28 28 47 37 42 50 98 28 123 -8 9 -17 26 -20 37 -4 17 -5 18 -6
2 -1 -16 -9 -18 -59 -16 -32 1 -63 -1 -69 -4 -6 -4 -17 16 -27 51 -9 31 -27
91 -39 132 l-24 75 53 1 c64 1 104 24 104 59 0 29 0 29 -168 -12 -13 -3 -21
-12 -20 -22 2 -11 -4 -15 -19 -14 -13 2 -23 0 -23 -3 0 -4 18 -33 39 -65 40
-60 67 -148 58 -191 -4 -20 -4 -19 -6 4 -2 41 -33 117 -72 176 -32 50 -36 53
-66 47 -30 -5 -33 -3 -33 18 0 13 -7 32 -15 43 -14 18 -14 18 -15 1 0 -10 -4
-17 -9 -15 -8 3 -93 97 -156 172 -30 36 -30 36 -125 41 -53 2 -100 1 -105 -3
-13 -9 -35 -72 -35 -100 0 -11 -4 -23 -9 -26 -4 -3 -11 -20 -15 -37 -4 -23
-10 -30 -21 -25 -9 3 -13 2 -10 -4 3 -6 2 -10 -3 -10 -19 0 -21 14 -6 31 20
22 22 85 5 118 -7 12 -27 31 -44 41 -18 11 -27 20 -22 20 6 0 20 -7 32 -15 19
-13 22 -13 34 2 8 10 9 14 2 10 -6 -4 -14 -3 -18 3 -3 5 3 10 15 10 12 0 19 4
16 8 -3 5 18 17 45 26 56 20 119 17 168 -9 16 -8 47 -16 68 -18 21 -1 44 -6
51 -10 6 -5 12 -3 12 2 0 6 5 11 11 11 6 0 9 -7 5 -15 -3 -9 3 -19 14 -25 11
-6 20 -9 20 -6 0 24 -25 120 -41 154 -11 24 -17 47 -14 52 3 5 -5 10 -17 12
-13 2 -24 11 -26 22 -4 17 0 18 36 13 37 -6 42 -4 66 28 15 19 25 36 24 39 -6
9 36 46 48 42 13 -5 7 31 -7 40 -22 13 -7 26 24 20 17 -3 43 -8 56 -10 54 -10
100 -68 70 -87 -28 -17 45 -108 86 -109 18 0 17 -2 -5 -13 -14 -7 -26 -22 -28
-34 -2 -12 -9 -27 -17 -33 -8 -7 -11 -24 -8 -49 l5 -38 -45 1 c-41 1 -47 4
-61 34 -18 37 -36 42 -36 10 0 -13 -3 -33 -6 -45 -4 -16 -2 -23 8 -23 7 0 20
-9 28 -20 10 -14 17 -17 27 -8 9 7 21 7 42 -2 32 -13 73 -55 63 -65 -3 -3 13
-3 36 1 36 6 47 3 79 -22 36 -27 42 -28 138 -27 83 1 160 9 198 19 4 1 13 2
20 3 7 0 21 18 31 39 18 35 19 36 27 15 9 -25 29 -31 30 -10 0 6 15 44 34 82
32 67 33 70 14 79 -10 5 -19 12 -19 15 0 3 25 37 56 76 31 38 51 71 45 73 -18
6 -13 27 14 58 53 62 70 75 92 71 25 -5 26 -3 27 63 1 34 5 45 19 48 19 4 56
-34 57 -57 0 -11 3 -10 13 3 12 17 15 17 29 3 14 -14 18 -14 34 -2 42 32 75 4
39 -32 -22 -21 -16 -23 30 -13 93 22 131 -1 58 -35 -75 -33 -87 -41 -127 -81
-72 -71 -107 -117 -102 -131 7 -18 50 3 91 47 17 17 45 41 63 52 24 15 30 23
22 32 -16 20 -1 25 28 10 33 -17 57 -18 85 -2 12 6 37 14 56 17 27 5 37 13 44
35 8 25 6 31 -14 47 -20 15 -21 19 -6 19 11 0 17 8 17 24 0 13 7 29 15 36 8 7
15 23 15 36 0 12 5 26 10 29 6 4 8 16 5 26 -9 28 20 69 48 69 13 0 38 11 57
25 19 14 41 25 49 25 9 0 39 10 67 21 39 16 53 28 57 46 2 13 0 26 -5 29 -5 3
-4 11 2 19 8 10 2 12 -32 8 -24 -2 -49 0 -57 5 -41 29 46 82 91 56 13 -7 33
-18 46 -23 30 -14 28 -33 -5 -53 -25 -15 -26 -18 -10 -24 12 -4 27 2 46 20 15
14 36 26 47 26 18 -1 18 -2 -3 -19 -13 -11 -23 -23 -23 -27 0 -4 46 -4 103 -1
100 6 105 6 138 -19 28 -21 35 -22 44 -10 38 54 36 53 31 11 -5 -40 -5 -40 44
-62 l49 -21 6 46 c3 26 12 60 20 75 8 16 15 35 15 43 0 33 116 57 188 38 18
-5 20 -9 11 -20 -9 -11 -6 -16 15 -24 14 -5 26 -15 26 -21 0 -11 -11 -10 -90
6 -36 8 -131 -6 -127 -18 1 -5 19 -11 37 -13 33 -3 70 -8 148 -20 24 -4 32 -9
28 -20 -6 -17 -2 -17 61 -5 26 5 62 12 78 15 l31 5 2 -64 c1 -35 7 -87 12
-116 6 -28 10 -65 10 -80 l0 -29 -79 0 c-44 0 -86 3 -95 6 -22 9 -20 23 3 17
16 -4 18 0 13 46 -3 33 1 64 12 91 12 30 13 40 3 40 -9 0 -9 2 1 9 11 6 11 10
0 18 -16 13 -98 15 -98 3 0 -5 -14 -7 -31 -3 -28 5 -30 4 -24 -20 7 -28 -10
-46 -28 -28 -8 8 -7 18 3 36 10 18 11 28 3 36 -13 13 -33 3 -33 -16 0 -24 -23
-65 -36 -65 -7 0 -16 10 -20 22 -6 19 -7 19 -16 5 -5 -10 -17 -17 -27 -17 -27
0 -33 -64 -9 -90 10 -11 23 -20 28 -20 5 0 6 -8 3 -17 -6 -16 -5 -16 11 -4 12
10 14 17 6 25 -5 5 -10 20 -10 33 0 20 4 23 28 17 15 -3 38 -14 52 -23 14 -10
42 -21 62 -25 32 -6 37 -4 32 9 -4 8 -1 15 6 15 8 0 10 -8 6 -23 -8 -34 27
-87 59 -87 29 0 29 0 45 -150 6 -58 15 -136 19 -175 11 -92 -7 -159 -59 -229
-22 -29 -40 -61 -40 -70 0 -9 -4 -14 -10 -11 -13 8 -50 -53 -50 -82 0 -12 -6
-28 -13 -35 -16 -15 -77 -123 -77 -134 0 -4 9 2 20 14 11 12 20 26 20 33 0 6
8 9 20 6 16 -4 18 -2 10 13 -14 25 -13 37 2 22 9 -9 14 -6 22 11 7 13 23 23
41 25 l29 4 -37 -45 c-20 -25 -37 -52 -37 -60 0 -8 -13 -40 -29 -70 -36 -69
-36 -101 2 -105 15 -2 27 -7 27 -11 0 -4 -25 -34 -56 -65 -38 -38 -54 -62 -50
-73 8 -19 -38 -83 -60 -83 -8 0 -14 -10 -14 -25 0 -14 -4 -25 -10 -25 -5 0
-10 7 -10 15 0 9 -6 12 -15 9 -11 -5 -15 1 -15 25 0 31 -23 44 -33 19 -4 -10
-8 -10 -15 1 -7 10 -14 11 -28 2 -18 -10 -18 -10 -1 -11 14 0 17 -5 12 -19 -4
-14 0 -23 15 -31 11 -6 20 -21 20 -33 l0 -21 -16 22 c-8 12 -22 22 -30 22 -11
0 -10 -5 6 -22 11 -12 20 -26 20 -31 0 -14 -40 -61 -41 -48 -4 32 -6 36 -19
33 -8 -2 -18 -9 -22 -15 -16 -25 -8 14 11 53 15 31 16 40 5 44 -15 6 -47 -51
-37 -67 3 -6 1 -7 -5 -3 -16 10 -14 -5 3 -27 11 -16 11 -23 0 -50 -8 -18 -19
-31 -25 -29 -6 1 -10 -10 -9 -25 1 -16 1 -32 -1 -38 -5 -21 0 -36 11 -29 8 5
7 9 -1 14 -8 5 -3 7 13 7 36 -3 34 -16 -3 -30 -45 -17 -35 -46 13 -38 4 0 7
-6 7 -14 0 -13 130 -15 1113 -15 1096 0 1112 0 1125 20 7 11 18 17 27 14 8 -4
15 -1 15 6 0 6 5 8 10 5 6 -4 29 9 50 29 22 20 45 36 50 36 6 0 19 9 31 21 11
11 27 18 37 14 20 -6 42 9 121 81 31 28 66 55 78 58 13 4 29 13 35 19 7 7 36
27 63 44 28 18 62 43 76 56 14 14 36 28 50 32 40 13 65 34 85 70 10 20 24 33
31 31 7 -3 26 15 43 39 28 41 52 63 34 33 -4 -7 4 -3 17 8 13 12 41 28 62 35
20 7 37 17 37 21 0 4 3 7 8 6 4 -1 19 4 33 10 15 6 44 14 65 18 22 3 44 11 51
16 13 10 29 -25 18 -41 -3 -5 -1 -12 5 -16 5 -3 10 -14 10 -23 0 -10 9 -24 19
-32 11 -7 18 -17 16 -21 -3 -4 2 -20 10 -35 8 -16 15 -37 15 -48 0 -15 3 -16
15 -6 12 10 15 7 20 -13 4 -14 4 -34 1 -44 -3 -10 1 -30 9 -46 10 -19 12 -43
8 -79 -5 -44 -4 -51 10 -45 34 13 31 -70 -5 -128 -10 -16 -18 -39 -18 -50 0
-21 -39 -78 -40 -58 0 6 5 15 10 18 18 11 11 35 -7 28 -17 -5 -17 -5 -1 8 11
9 17 28 17 49 0 19 0 51 0 70 0 55 -7 67 -25 44 -14 -18 -15 -18 -5 3 18 37
14 79 -8 80 -18 2 -19 -5 -17 -83 2 -49 -1 -84 -7 -84 -5 0 -4 -7 3 -15 9 -10
9 -19 2 -28 -8 -9 -42 -110 -42 -123 0 -2 207 -4 460 -4 l460 0 0 660 c0 496
-3 659 -12 657 -7 -1 -14 7 -16 17 -3 14 0 17 12 13 15 -6 16 40 16 502 l0
509 -40 -5 c-21 -3 -47 -3 -56 1 -15 6 -15 9 6 31 13 14 29 25 36 25 19 0 25
29 8 38 -26 15 -13 47 19 47 25 -1 27 2 25 35 -1 19 -10 49 -20 66 -19 33 -16
59 8 68 11 4 14 28 14 103 -1 107 -8 121 -72 137 -16 3 -28 13 -28 21 0 8 -7
15 -15 15 -18 0 -19 31 -3 76 15 43 34 49 53 20 17 -25 11 -56 -11 -56 -8 0
-14 -5 -14 -11 0 -6 8 -8 18 -4 11 3 30 -3 45 -16 l27 -20 0 530 0 530 -50 7
c-73 10 -78 17 -86 114 -4 56 -13 96 -25 116 -24 40 -24 62 1 99 23 35 25 75
7 113 -8 15 -19 54 -27 87 -22 106 -98 228 -160 260 -16 8 -49 15 -74 15 -41
0 -45 -2 -48 -27 -3 -26 -6 -28 -59 -31 l-56 -3 -10 -69 c-5 -39 -6 -70 -1
-70 4 0 8 -18 8 -40 0 -48 -20 -54 -37 -11 -9 24 -15 28 -36 24 -20 -4 -27
-12 -29 -35 -2 -25 -10 -33 -43 -45 -59 -21 -95 -32 -138 -38 -28 -5 -40 -12
-47 -30 -6 -16 -22 -27 -48 -34 -54 -15 -232 -110 -239 -128 -10 -27 12 -35
39 -13 15 11 34 20 45 20 14 0 15 2 4 9 -9 6 -10 11 -2 15 16 10 31 -2 24 -20
-5 -13 0 -14 31 -9 26 5 43 3 61 -9 13 -9 40 -16 60 -16 29 0 37 -5 46 -27 15
-41 7 -76 -21 -90 -30 -15 -62 -26 -75 -27 -5 -1 -11 -11 -13 -22 -3 -21 -1
-21 49 -12 36 7 60 6 79 -2 23 -9 43 -8 109 10 45 13 85 20 88 16 3 -3 7 -24
8 -47 3 -50 15 -59 81 -59 37 0 54 -4 58 -15 7 -18 -23 -35 -63 -35 -43 0 -61
-10 -61 -34 0 -11 -4 -26 -8 -32 -4 -6 -63 -30 -132 -54 -104 -35 -134 -41
-177 -37 -47 5 -52 4 -55 -16 -3 -23 -18 -29 -283 -113 -149 -47 -145 -45
-110 -55 43 -13 78 -46 71 -65 -6 -14 -16 -16 -74 -10 -91 10 -101 10 -123
-10 -28 -25 -24 -33 22 -40 51 -9 58 -25 25 -65 -18 -21 -26 -42 -26 -69 0
-89 -44 -121 -65 -48 -5 21 -16 43 -23 50 -6 6 -12 20 -12 29 0 10 -5 30 -10
45 -16 42 -32 15 -31 -53 0 -62 -13 -128 -29 -138 -13 -8 -70 22 -77 41 -3 9
-1 25 4 37 25 56 32 87 18 87 -32 0 -65 -21 -81 -52 -9 -18 -24 -38 -32 -44
-12 -9 -11 -16 7 -50 l21 -39 -25 -3 c-34 -4 -49 9 -64 58 -14 46 -7 67 15 49
18 -15 27 -7 18 15 -3 9 -13 15 -22 14 -33 -6 -55 88 -32 133 12 21 -5 135
-21 153 -5 6 -9 30 -9 55 0 108 -113 248 -254 316 -55 26 -76 42 -76 55 0 14
-10 21 -37 27 -51 10 -183 7 -229 -6 -48 -13 -59 -3 -45 41 15 45 104 121 200
171 42 22 117 60 166 86 97 50 182 104 231 148 30 28 131 160 153 201 6 12 15
22 20 22 10 0 29 -93 36 -185 12 -145 23 -166 51 -100 21 51 18 215 -8 388
l-22 149 82 76 c168 158 199 189 254 252 85 98 151 184 213 279 6 8 31 45 58
83 26 37 47 72 47 77 0 5 10 22 23 38 46 57 108 173 134 255 14 45 32 92 39
103 7 11 19 47 28 80 8 33 18 70 22 83 l6 22 -370 0 c-338 0 -371 -1 -374 -17
-2 -9 -13 -17 -26 -18 -17 -1 -21 2 -16 17 5 17 -5 18 -200 18 -196 0 -206 -1
-216 -20z m-57 -315 c-3 -9 -8 -14 -10 -11 -3 3 -2 9 2 15 9 16 15 13 8 -4z
m-929 -100 c-4 -10 0 -15 12 -15 9 0 15 -3 11 -6 -3 -4 -18 -3 -32 0 -22 6
-25 9 -15 21 16 19 31 19 24 0z m-69 -25 c-3 -5 -12 -10 -18 -10 -7 0 -6 4 3
10 19 12 23 12 15 0z m39 -35 c-4 -10 -10 -12 -18 -7 -6 5 -18 12 -26 15 -8 3
-1 6 17 6 25 1 31 -2 27 -14z m-113 -31 c-41 -17 -163 -44 -173 -37 -5 2 -8
-1 -8 -6 0 -6 -4 -11 -10 -11 -14 0 -12 13 4 36 11 15 17 16 27 7 9 -9 18 -9
38 1 14 7 41 14 60 14 18 0 36 3 39 6 3 3 17 6 31 6 24 -1 24 -2 -8 -16z m223
-150 c51 -7 63 -24 16 -24 -39 0 -169 -26 -254 -51 -119 -36 -103 7 19 49 76
27 150 35 219 26z m122 -29 c17 -13 16 -14 -16 -3 -43 14 -49 18 -24 18 11 0
29 -7 40 -15z m-446 -75 c0 -5 -2 -10 -4 -10 -3 0 -8 5 -11 10 -3 6 -1 10 4
10 6 0 11 -4 11 -10z m50 -125 c0 -18 -5 -25 -20 -25 -20 0 -28 28 -13 43 15
16 33 6 33 -18z m-3540 -1389 c0 -2 -7 -6 -15 -10 -8 -3 -15 -1 -15 4 0 6 7
10 15 10 8 0 15 -2 15 -4z m3447 -51 c7 -11 9 -23 4 -28 -14 -14 -251 -22
-252 -8 -1 6 -2 16 -3 23 -1 16 112 37 183 34 39 -2 58 -8 68 -21z m-461 -16
c7 -11 -63 -42 -76 -34 -17 10 -11 43 8 47 23 5 61 -2 68 -13z m312 -218 c9
-4 34 -11 55 -14 l38 -6 -21 26 c-20 26 -20 26 0 43 20 18 70 16 70 -2 0 -5 4
-7 9 -3 5 3 12 1 16 -5 3 -5 16 -15 28 -22 21 -11 21 -10 7 8 -8 10 -24 27
-35 37 -17 16 -18 18 -2 13 31 -10 126 -90 126 -108 1 -15 6 -15 59 -3 91 20
152 27 152 17 0 -13 -29 -24 -43 -15 -7 3 -9 3 -5 -2 4 -4 3 -13 -2 -20 -5 -6
-16 -36 -23 -66 -14 -54 -14 -54 -58 -59 -34 -5 -38 -7 -19 -11 14 -2 24 -10
22 -17 -1 -8 2 -11 8 -7 6 3 22 -3 36 -14 15 -12 38 -21 52 -21 15 0 39 -13
58 -30 31 -31 31 -31 15 -65 -11 -24 -23 -34 -38 -35 -13 0 -23 -5 -23 -11 0
-5 -5 -7 -11 -4 -5 4 -18 0 -27 -8 -9 -8 -28 -18 -42 -22 -14 -4 -31 -15 -38
-24 -10 -12 -12 -12 -6 -1 6 12 4 13 -7 3 -18 -18 -27 -16 -32 5 -3 12 -5 10
-7 -8 -1 -23 -2 -23 -10 -5 -6 14 -9 15 -10 5 -1 -10 -4 -9 -9 5 -7 17 -14
-75 -35 -445 -2 -30 -2 107 -1 305 1 198 6 373 10 389 5 19 4 27 -2 23 -15
-10 -32 -163 -38 -354 -6 -154 -30 -339 -36 -273 -1 15 -4 7 -8 -19 -3 -25
-12 -46 -19 -47 -7 -1 -8 0 -2 3 5 2 8 9 4 14 -10 17 -22 9 -29 -21 -4 -16
-11 -30 -16 -30 -5 0 -7 -17 -3 -37 4 -30 1 -43 -15 -62 -19 -22 -23 -36 -26
-111 -1 -14 -5 -32 -9 -38 -4 -7 -5 -20 -2 -29 4 -10 -2 -21 -15 -31 -15 -11
-20 -21 -16 -41 3 -15 2 -33 -4 -41 -8 -13 -9 -13 -9 0 0 17 -19 1 -25 -21 -1
-8 -6 -24 -10 -37 -7 -21 -8 -21 -21 -5 -12 16 -14 15 -15 -17 -1 -19 -1 -51
1 -70 1 -19 -1 -32 -5 -29 -3 4 -12 78 -20 165 -40 473 -46 1001 -11 1099 l17
50 111 -3 c102 -4 110 -3 106 15 -3 15 -13 18 -58 18 -30 -1 -77 -3 -105 -5
-43 -4 -50 -2 -50 12 0 10 -4 18 -8 18 -112 1 -150 -2 -137 -10 12 -8 12 -10
-5 -10 -11 0 -30 -3 -42 -6 -19 -5 -23 -2 -23 15 0 30 18 61 35 61 8 0 21 13
29 29 19 37 82 91 104 90 10 0 12 -3 5 -6 -17 -6 -17 -23 0 -23 7 0 23 -9 35
-20 23 -22 24 -22 43 35 l14 40 3 -42 c2 -28 9 -46 20 -52z m3305 -2 c8 -29
-8 -65 -33 -79 -26 -14 -41 -5 -36 23 3 12 5 27 5 34 1 16 30 43 46 43 7 0 15
-9 18 -21z m-6203 -28 c0 -9 -27 -14 -120 -26 l-45 -5 29 15 c16 9 35 14 43
11 7 -3 15 -1 18 4 8 13 75 13 75 1z m6363 -8 c4 -3 6 -17 3 -31 -4 -16 0 -39
9 -56 19 -36 19 -36 -10 -36 -19 0 -25 5 -23 17 2 11 -7 20 -27 26 -63 20 -75
27 -75 46 0 31 39 53 80 46 19 -4 39 -9 43 -12z m-6380 -30 c-7 -2 -21 -2 -30
0 -10 3 -4 5 12 5 17 0 24 -2 18 -5z m5787 -73 c0 -46 -11 -56 -34 -31 -16 18
-16 21 -1 50 20 40 35 31 35 -19z m368 3 c4 -26 -36 -113 -52 -113 -45 1 -53
48 -16 99 33 45 63 52 68 14z m-3342 -50 c-34 -105 -39 -181 -33 -463 7 -300
27 -660 53 -923 13 -132 14 -171 5 -180 -10 -9 -14 -8 -22 6 -13 22 -30 22
-22 0 5 -13 2 -15 -15 -11 -13 4 -22 1 -23 -5 -1 -17 -34 172 -59 333 -24 159
-47 452 -56 705 -5 137 -3 215 10 325 9 80 17 172 19 205 l2 60 70 5 c39 3 74
2 79 -2 4 -3 1 -28 -8 -55z m1471 61 c-3 -3 -12 -4 -19 -1 -8 3 -5 6 6 6 11 1
17 -2 13 -5z m1433 -9 c9 -11 10 -19 2 -27 -14 -14 -32 -1 -32 23 0 23 13 25
30 4z m-2150 -45 c0 -12 -30 -12 -85 -1 -38 8 -37 9 23 10 35 1 62 -3 62 -9z
m1630 -10 c3 -3 21 -11 41 -17 32 -9 43 -7 85 13 60 29 74 30 74 3 0 -25 -47
-89 -66 -89 -8 0 -14 -5 -14 -11 0 -5 5 -7 10 -4 6 3 10 1 10 -5 0 -6 12 -2
26 9 15 12 40 21 56 21 27 0 29 -2 23 -29 -5 -25 -2 -30 27 -41 43 -17 41 -15
28 -39 -6 -12 -17 -21 -25 -21 -8 0 -15 -4 -15 -10 0 -5 7 -10 15 -10 8 0 19
-8 24 -18 5 -10 28 -24 50 -31 23 -6 41 -18 41 -26 0 -14 -68 -49 -144 -74
-32 -11 -40 -11 -48 0 -8 11 -9 10 -4 -3 3 -12 0 -18 -9 -18 -17 0 -20 -16 -4
-26 8 -4 8 -9 0 -17 -18 -18 -12 -28 9 -17 31 17 42 3 25 -31 -17 -31 -52 -40
-61 -14 -4 10 -11 12 -23 6 -15 -9 -65 -14 -105 -12 -15 1 -18 7 -13 34 3 17
8 39 12 48 5 13 1 15 -20 11 -16 -3 -33 2 -44 12 -17 16 -21 15 -54 -4 -64
-38 -77 -2 -22 59 23 25 33 45 29 55 -3 9 -8 16 -11 16 -11 0 -50 -25 -75 -47
-29 -27 -61 -27 -66 0 -2 9 8 42 22 73 14 31 26 71 26 89 0 29 4 34 29 40 33
7 56 29 46 45 -3 5 -1 10 4 10 6 0 11 6 11 14 0 8 11 28 25 44 19 22 31 29 48
24 12 -3 24 -8 27 -12z m-5580 -44 c0 -3 -4 -8 -10 -11 -5 -3 -10 -1 -10 4 0
6 5 11 10 11 6 0 10 -2 10 -4z m6377 -23 c11 -40 6 -209 -8 -271 -10 -44 -9
-55 3 -70 9 -9 18 -35 21 -57 7 -44 31 -68 59 -59 35 11 33 -25 -3 -56 -36
-31 -77 -38 -97 -18 -9 9 -12 9 -12 -2 0 -23 -32 -50 -59 -50 -16 0 -34 -10
-47 -27 -21 -25 -24 -27 -39 -12 -10 10 -16 35 -17 72 -1 31 -5 57 -9 57 -5 0
-13 9 -18 19 -10 18 -8 19 29 14 33 -5 40 -3 40 12 0 14 5 16 28 10 38 -9 72
-9 83 2 5 5 11 24 15 43 5 33 4 34 -10 16 -13 -17 -22 -18 -68 -10 -48 8 -53
12 -56 37 -3 23 -7 27 -23 22 -28 -9 -53 13 -37 32 17 21 79 44 100 37 10 -3
25 -1 33 6 19 15 37 -17 24 -42 -8 -14 -6 -18 9 -18 16 0 20 10 25 61 6 66 -5
104 -36 130 -24 20 -14 44 12 29 12 -6 22 -5 29 2 18 18 15 32 -13 58 -27 26
-32 46 -12 53 30 13 47 6 54 -20z m-377 12 c0 -3 -10 -19 -22 -35 -21 -30 -51
-39 -63 -20 -3 5 -12 7 -20 3 -20 -7 -19 16 2 39 11 12 30 18 60 18 23 0 43
-2 43 -5z m420 -150 c10 -12 10 -15 -4 -15 -9 0 -16 7 -16 15 0 8 2 15 4 15 2
0 9 -7 16 -15z m-436 -4 c8 -12 -30 -58 -40 -49 -9 10 12 58 25 58 5 0 12 -4
15 -9z m-1987 -48 c-3 -10 -5 -2 -5 17 0 19 2 27 5 18 2 -10 2 -26 0 -35z
m2192 1 c-8 -10 -16 -11 -32 -2 -20 10 -20 11 -2 24 24 18 52 -1 34 -22z m391
3 c0 -18 -7 -43 -16 -55 -15 -22 -17 -22 -35 -6 -24 22 -24 34 3 67 30 37 48
35 48 -6z m-7225 -22 c38 -22 85 -67 85 -82 0 -3 7 -14 15 -23 8 -9 16 -25 18
-36 2 -10 7 -27 12 -37 15 -36 0 -199 -25 -257 -24 -58 -84 -130 -108 -130 -7
0 -10 -4 -7 -10 3 -5 1 -10 -5 -10 -6 0 -18 -6 -25 -12 -39 -35 -45 -38 -67
-30 -13 5 -43 10 -67 11 -24 2 -51 9 -58 17 -8 8 -20 14 -27 14 -13 0 -56 37
-89 76 -48 57 -39 231 18 349 80 167 209 229 330 160z m7424 22 c13 -16 5 -27
-20 -27 -21 0 -33 15 -24 30 9 14 31 12 44 -3z m-2792 -119 c-3 -8 -6 -5 -6 6
-1 11 2 17 5 13 3 -3 4 -12 1 -19z m2489 -43 c16 -25 13 -55 -6 -55 -13 0 -51
61 -44 72 10 16 34 8 50 -17z m-322 -15 c17 -16 -4 -30 -25 -17 -17 10 -22 9
-35 -7 -8 -11 -14 -28 -14 -38 0 -27 -13 -22 -28 12 -10 22 -10 34 -2 50 9 17
17 19 53 14 23 -4 46 -10 51 -14z m-5389 -15 c66 -8 121 -19 123 -25 2 -6 7
-8 12 -5 11 7 111 -103 134 -148 22 -42 15 -59 -12 -34 -11 10 -38 18 -63 19
-34 1 -50 8 -71 30 -31 33 -59 31 -99 -6 -14 -13 -35 -29 -47 -35 -20 -11 -21
-14 -8 -34 8 -12 18 -39 22 -60 3 -21 18 -50 31 -64 19 -18 23 -27 14 -36 -6
-6 -11 -23 -11 -38 0 -15 -5 -31 -10 -34 -23 -14 -42 -67 -32 -89 12 -23 25
-166 16 -166 -19 0 -36 34 -30 60 5 28 3 30 -34 36 -41 7 -64 24 -42 32 16 5
15 42 0 43 -10 0 -10 2 0 6 21 8 13 24 -10 19 -47 -9 -58 -18 -58 -48 0 -16
-4 -27 -9 -23 -6 3 -7 66 -3 158 9 196 5 296 -12 377 -8 36 -12 68 -9 73 7 11
77 9 208 -8z m5220 4 c4 -5 -5 -28 -19 -50 -20 -29 -23 -39 -12 -39 20 0 66
-21 66 -30 0 -9 -72 -30 -105 -30 -18 0 -28 6 -32 19 -3 12 -17 21 -39 26 -56
10 -48 22 65 97 29 20 66 23 76 7z m-992 -28 c21 -36 22 -51 2 -51 -15 0 -35
37 -35 66 0 23 14 16 33 -15z m-4803 -14 c53 -13 123 -78 150 -141 25 -54 46
-189 32 -194 -6 -2 -9 -9 -6 -16 3 -8 -2 -20 -10 -29 -9 -9 -16 -20 -16 -26 0
-5 -7 -14 -16 -19 -11 -6 -13 -12 -6 -16 6 -4 8 -14 5 -23 -4 -11 -3 -14 5 -9
21 13 13 -11 -14 -43 -14 -17 -32 -31 -40 -31 -17 0 -14 31 5 54 8 9 11 20 7
23 -4 4 -10 3 -14 -3 -22 -35 -132 -48 -211 -25 -53 15 -110 69 -145 137 -24
46 -26 60 -23 132 4 57 10 89 24 109 10 15 25 40 32 55 40 79 111 98 241 65z
m6464 7 c10 -27 7 -47 -21 -106 -29 -64 -40 -72 -41 -30 0 15 -4 43 -7 62 -5
27 -2 41 15 63 24 30 45 35 54 11z m-1404 -44 c0 -5 -5 -10 -11 -10 -5 0 -7 5
-4 10 3 6 8 10 11 10 2 0 4 -4 4 -10z m40 -50 c0 -5 -4 -10 -9 -10 -6 0 -13 5
-16 10 -3 6 1 10 9 10 9 0 16 -4 16 -10z m398 -13 c3 -12 -3 -17 -22 -17 -25
0 -35 18 -19 34 12 12 38 2 41 -17z m-1288 -11 c0 -26 -15 -43 -24 -28 -7 12
4 52 15 52 5 0 9 -11 9 -24z m40 -21 c7 -9 13 -32 14 -53 l1 -37 -45 3 c-25 2
-48 7 -51 10 -11 11 9 52 25 52 8 0 18 9 21 20 8 24 18 25 35 5z m1031 5 c28
-16 23 -32 -8 -28 -17 2 -29 10 -31 21 -4 19 10 22 39 7z m1064 -9 c3 -5 1
-13 -5 -16 -15 -9 -43 3 -35 15 8 13 32 13 40 1z m-710 -31 c0 -16 -6 -26 -19
-28 -27 -6 -40 12 -26 38 15 28 45 22 45 -10z m630 20 c3 -5 1 -10 -4 -10 -6
0 -11 5 -11 10 0 6 2 10 4 10 3 0 8 -4 11 -10z m-835 -20 c8 -5 23 -31 33 -58
13 -38 23 -51 40 -54 29 -4 31 -42 2 -46 -18 -2 -20 -10 -20 -70 0 -65 -1 -67
-25 -64 -14 1 -62 3 -107 5 -45 1 -83 4 -86 7 -2 3 -7 33 -11 68 l-7 62 27 0
c26 0 27 0 9 20 -10 11 -23 20 -28 20 -18 0 -47 32 -47 52 0 33 40 38 88 11
35 -21 45 -23 58 -12 11 9 14 22 9 46 -6 33 -5 33 22 27 15 -4 35 -10 43 -14z
m-4692 -62 c-6 -18 -28 -21 -28 -4 0 9 7 16 16 16 9 0 14 -5 12 -12z m4992 3
c0 -12 -20 -25 -27 -18 -7 7 6 27 18 27 5 0 9 -4 9 -9z m-98 -36 c13 -29 8
-38 -16 -29 -17 7 -23 54 -6 54 6 0 16 -11 22 -25z m743 -10 c0 -23 -5 -31
-22 -33 -19 -3 -23 1 -23 26 0 33 8 44 30 40 9 -2 15 -14 15 -33z m-805 -6 c0
-5 -7 -9 -15 -9 -15 0 -20 12 -9 23 8 8 24 -1 24 -14z m-860 1 c0 -6 6 -10 13
-9 26 6 147 -13 153 -23 4 -7 2 -8 -4 -4 -12 7 -74 -21 -80 -36 -2 -5 -12 -8
-21 -8 -10 0 -26 -9 -35 -19 -22 -25 -13 -45 14 -31 41 22 39 8 -5 -25 -25
-20 -50 -33 -55 -30 -6 3 -7 0 -4 -8 6 -17 -34 -49 -49 -40 -6 4 -7 1 -3 -6 5
-7 0 -21 -9 -31 -21 -23 -14 -36 25 -43 40 -8 40 -39 0 -68 -16 -13 -41 -39
-54 -59 -17 -27 -31 -37 -48 -36 -21 1 -23 5 -20 51 2 41 8 55 32 76 17 15 30
35 30 45 0 9 7 26 17 36 9 10 13 21 10 24 -8 9 -66 -38 -66 -53 -1 -7 -5 -13
-10 -13 -5 0 -11 -8 -15 -17 -14 -42 -44 -78 -75 -88 -22 -7 -22 -5 -19 52 1
33 -3 72 -11 90 -17 41 -8 93 22 125 13 13 32 35 42 49 30 36 72 61 145 86 78
26 80 26 80 13z m1732 -2 c7 -19 -2 -38 -17 -38 -21 0 -28 19 -15 35 15 18 26
19 32 3z m-2303 -46 c-10 -29 -29 -44 -29 -23 0 23 24 71 31 64 6 -6 5 -23 -2
-41z m-3343 23 c53 -27 88 -61 81 -78 -4 -10 -14 -17 -22 -17 -21 0 -125 81
-125 97 0 17 30 16 66 -2z m2561 -77 c-2 -18 -4 -4 -4 32 0 36 2 50 4 33 2
-18 2 -48 0 -65z m2482 19 c1 -5 -3 -5 -9 -2 -5 3 -10 16 -9 28 0 21 1 21 9 2
5 -11 9 -24 9 -28z m-234 23 c-3 -5 -11 -10 -16 -10 -6 0 -7 5 -4 10 3 6 11
10 16 10 6 0 7 -4 4 -10z m941 -26 c8 -20 14 -47 12 -61 -5 -40 -35 -6 -43 50
-9 58 9 64 31 11z m-123 -19 c1 -5 -6 -11 -15 -13 -11 -2 -18 3 -18 13 0 17
30 18 33 0z m-2278 -14 c3 -6 -2 -14 -11 -19 -13 -7 -9 -11 20 -16 31 -6 35
-10 26 -21 -7 -8 -9 -19 -5 -25 4 -6 2 -24 -5 -40 -12 -29 -13 -29 -41 -15
-26 14 -29 14 -39 -5 -9 -17 -7 -26 10 -47 32 -41 8 -53 -29 -15 -35 34 -38
50 -16 92 9 17 12 41 9 58 -4 20 -1 34 11 45 18 18 60 23 70 8z m-933 -18 c6
-22 -1 -43 -13 -43 -5 0 -9 14 -9 30 0 33 15 41 22 13z m1855 -9 c-3 -3 -12
-4 -19 -1 -8 3 -5 6 6 6 11 1 17 -2 13 -5z m-5732 -64 c3 -5 1 -10 -4 -10 -6
0 -11 5 -11 10 0 6 2 10 4 10 3 0 8 -4 11 -10z m1533 -66 c24 -17 28 -50 8
-76 -12 -16 -14 -16 -44 2 -36 22 -43 62 -14 79 23 14 24 14 50 -5z m4280 0
c27 -8 28 -18 3 -43 -14 -14 -16 -22 -8 -30 14 -14 1 -27 -15 -14 -7 6 -28 14
-46 18 -18 4 -36 13 -39 21 -3 9 -13 12 -25 8 -15 -4 -19 -2 -16 7 3 8 19 14
36 15 18 0 38 6 44 12 13 13 31 15 66 6z m62 2 c0 -3 -4 -8 -10 -11 -5 -3 -10
-1 -10 4 0 6 5 11 10 11 6 0 10 -2 10 -4z m-4760 -16 c0 -5 -7 -7 -15 -4 -8 4
-15 8 -15 10 0 2 7 4 15 4 8 0 15 -4 15 -10z m738 -57 c33 -39 39 -53 23 -53
-5 0 -16 -3 -24 -6 -9 -3 -25 8 -42 30 -23 30 -25 39 -15 51 18 21 21 20 58
-22z m3602 22 c-14 -17 -30 -20 -30 -6 0 5 8 12 18 14 9 3 19 5 21 6 2 0 -2
-6 -9 -14z m-732 -25 c15 -25 8 -40 -19 -40 -21 0 -22 3 -13 38 8 27 16 28 32
2z m-1767 -16 c11 -14 8 -15 -26 -12 -21 2 -40 9 -43 16 -6 18 53 15 69 -4z
m2398 -22 c-39 -36 -40 -39 -23 -52 16 -13 17 -13 11 2 -5 15 -1 17 36 11 39
-5 71 -29 61 -45 -3 -5 0 -8 5 -8 17 0 13 -48 -6 -77 -27 -41 -24 -188 6 -271
18 -51 20 -66 10 -78 -7 -8 -8 -14 -3 -13 21 4 34 -2 59 -25 28 -26 26 -44
-12 -82 -17 -17 -17 -17 6 -11 15 4 30 0 41 -11 17 -16 18 -18 1 -39 -13 -15
-22 -18 -32 -12 -12 8 -11 12 6 25 19 16 19 16 -9 11 -18 -3 -35 1 -44 9 -7 8
-17 12 -21 10 -3 -2 -15 17 -26 42 -10 26 -25 53 -32 61 -8 7 -17 27 -20 43
-3 16 -8 26 -11 23 -7 -7 -43 54 -45 76 -1 11 -4 19 -8 19 -10 0 -56 92 -64
127 -7 36 3 145 14 139 3 -2 7 7 7 21 2 32 41 86 85 117 50 36 54 31 8 -12z
m-2405 -8 c9 -3 16 -10 16 -15 0 -14 -44 -10 -66 6 -18 14 -18 14 8 15 14 0
33 -3 42 -6z m1824 -19 c6 -14 18 -25 27 -25 8 0 15 -9 15 -20 0 -29 -17 -25
-51 12 -30 34 -33 40 -22 51 12 12 20 8 31 -18z m42 -1 c0 -8 -4 -12 -10 -9
-5 3 -10 13 -10 21 0 8 5 12 10 9 6 -3 10 -13 10 -21z m-3610 -44 c0 -33 -5
-50 -15 -54 -17 -6 -20 26 -9 83 9 45 24 28 24 -29z m-877 33 c-7 -2 -19 -2
-25 0 -7 3 -2 5 12 5 14 0 19 -2 13 -5z m1207 -2 c0 -5 -6 -12 -12 -14 -7 -3
-1 -6 13 -6 32 -1 44 -40 22 -71 -19 -26 -70 -25 -65 2 1 9 -7 22 -19 28 -21
12 -21 12 8 41 28 28 53 38 53 20z m1957 -33 c-3 -8 -6 -5 -6 6 -1 11 2 17 5
13 3 -3 4 -12 1 -19z m-1617 -8 c25 -25 36 -68 23 -89 -12 -19 -66 -19 -88 -1
-22 18 -18 59 8 86 27 29 32 29 57 4z m801 -51 c-28 -23 -51 -25 -51 -4 0 8 4
15 10 15 5 0 7 7 4 15 -4 8 -3 23 0 32 6 15 10 13 34 -11 l27 -27 -24 -20z
m89 50 c6 -11 10 -25 8 -31 -5 -14 -38 19 -38 38 0 21 18 17 30 -7z m370 -44
c0 -24 -17 -26 -41 -5 -20 16 -22 21 -10 29 18 12 51 -4 51 -24z m-160 -7 c0
-6 -7 -7 -16 -4 -9 3 -18 6 -20 6 -3 0 -3 4 1 10 7 11 35 2 35 -12z m1755 12
c15 -6 7 -9 -30 -9 -37 0 -45 3 -30 9 11 5 25 9 30 9 6 0 19 -4 30 -9z m2205
6 c0 -3 -4 -8 -10 -11 -5 -3 -10 -1 -10 4 0 6 5 11 10 11 6 0 10 -2 10 -4z
m-5536 -30 c-21 -15 -30 -14 -19 3 3 6 14 11 23 11 13 0 13 -2 -4 -14z m1463
-12 c-9 -9 -28 6 -21 18 4 6 10 6 17 -1 6 -6 8 -13 4 -17z m4138 -26 c4 -16 4
-32 1 -35 -9 -10 -46 28 -46 47 0 41 36 32 45 -12z m-4260 22 c-3 -5 -13 -10
-21 -10 -8 0 -14 5 -14 10 0 6 9 10 21 10 11 0 17 -4 14 -10z m75 0 c0 -13
-20 -13 -40 0 -12 8 -9 10 13 10 15 0 27 -4 27 -10z m4025 -20 c8 -16 15 -44
15 -62 0 -30 -1 -31 -16 -16 -18 18 -37 108 -23 108 5 0 15 -13 24 -30z
m-5910 0 c-3 -5 -10 -10 -16 -10 -5 0 -9 5 -9 10 0 6 7 10 16 10 8 0 12 -4 9
-10z m2210 -10 c3 -5 1 -10 -4 -10 -6 0 -11 5 -11 10 0 6 2 10 4 10 3 0 8 -4
11 -10z m-245 -10 c0 -5 -2 -10 -4 -10 -3 0 -8 5 -11 10 -3 6 -1 10 4 10 6 0
11 -4 11 -10z m3653 -5 c8 -19 1 -22 -61 -31 -43 -5 -52 -4 -52 9 0 30 103 50
113 22z m-3533 -29 c-13 -13 -35 7 -25 24 5 8 11 8 21 -1 10 -8 12 -15 4 -23z
m3777 -11 c-2 -5 -13 -11 -25 -13 -18 -3 -22 2 -22 23 0 15 4 24 10 20 6 -3
10 0 10 7 1 8 6 5 15 -7 9 -10 14 -24 12 -30z m-3831 -9 c41 -19 74 -39 74
-45 0 -15 -10 -14 -61 5 -52 18 -79 22 -222 30 -136 9 -139 27 -6 35 52 3 104
6 117 7 13 1 57 -13 98 -32z m442 -15 c25 -15 -15 -35 -95 -46 -57 -8 -63 10
-11 34 46 21 85 26 106 12z m-1728 -31 c0 -5 -5 -10 -11 -10 -5 0 -7 5 -4 10
3 6 8 10 11 10 2 0 4 -4 4 -10z m138 -6 c-9 -9 -22 -14 -30 -11 -8 3 -4 8 12
15 35 15 37 14 18 -4z m102 -19 c0 -7 -7 -18 -15 -25 -8 -7 -15 -20 -15 -29 0
-9 -8 -25 -17 -36 -13 -16 -15 -17 -10 -3 4 10 9 40 13 67 5 41 9 48 25 44 11
-3 19 -11 19 -18z m1010 14 c35 -5 79 -19 98 -31 31 -19 34 -19 52 -3 24 22
134 33 145 15 5 -8 2 -17 -7 -24 -8 -6 -13 -16 -11 -23 5 -15 -63 -67 -77 -58
-16 10 -12 27 12 52 23 25 14 31 -14 9 -23 -17 -92 -12 -125 10 -21 13 -49 16
-142 16 -64 -1 -128 1 -143 4 -34 7 -37 31 -5 37 44 8 153 7 217 -4z m-900 -9
c0 -5 -2 -10 -4 -10 -3 0 -8 5 -11 10 -3 6 -1 10 4 10 6 0 11 -4 11 -10z
m-295 -50 c16 0 20 -15 7 -24 -13 -8 -39 19 -45 49 l-7 30 15 -27 c9 -16 22
-28 30 -28z m5296 43 c10 -71 8 -103 -5 -103 -8 0 -18 5 -22 11 -9 15 -15 79
-8 91 6 10 34 11 35 1z m-5221 -14 c0 -20 -38 -60 -46 -48 -4 6 0 16 10 21 9
5 16 16 16 23 0 8 5 15 10 15 6 0 10 -5 10 -11z m440 -19 c0 -5 -11 -10 -25
-10 -16 0 -25 -6 -25 -16 0 -13 -7 -16 -38 -11 -21 2 -46 0 -55 -5 -11 -6 -17
-5 -17 1 0 17 41 33 70 27 19 -3 30 -1 34 9 6 17 56 21 56 5z m4670 -10 c13
-8 13 -10 -2 -10 -9 0 -20 5 -23 10 -8 13 5 13 25 0z m-4921 -59 c-8 -18 -30
-37 -58 -51 l-46 -22 23 -19 c13 -10 21 -23 17 -29 -10 -15 -66 -12 -79 5 -10
14 -13 14 -34 -1 -16 -11 -21 -22 -17 -35 4 -10 2 -19 -3 -19 -6 0 -12 5 -14
11 -5 14 -40 -2 -73 -32 -23 -20 -75 -42 -75 -31 0 18 120 117 167 138 29 12
53 27 53 31 0 5 27 19 61 33 41 16 65 32 72 48 6 13 13 19 15 13 2 -6 -2 -24
-9 -40z m4836 39 c3 -5 19 -10 35 -10 32 0 43 -11 34 -33 -6 -17 -95 -42 -124
-34 -12 3 -20 -1 -22 -11 -3 -14 -5 -13 -20 2 -21 21 -24 40 -4 33 17 -7 42
23 38 46 -3 13 3 17 27 17 16 0 33 -4 36 -10z m-217 -17 c15 -10 45 -31 67
-48 22 -16 42 -31 44 -32 2 -1 1 -10 -3 -19 -5 -13 -13 -10 -46 20 -22 20 -48
37 -58 37 -66 5 -81 14 -82 47 0 18 46 15 78 -5z m-5084 1 c9 -3 16 -12 16
-20 0 -7 16 -25 35 -40 35 -26 46 -54 23 -54 -18 1 -72 59 -86 93 -12 29 -12
30 12 21z m5181 -14 c3 -6 -1 -7 -9 -4 -18 7 -21 14 -7 14 6 0 13 -4 16 -10z
m-3691 -15 c-6 -16 -24 -21 -24 -7 0 11 11 22 21 22 5 0 6 -7 3 -15z m1343 -8
c4 -5 0 -13 -10 -18 -9 -6 -17 -22 -17 -36 0 -22 -3 -24 -27 -18 -35 8 -54 25
-29 25 10 0 14 5 11 11 -4 6 -14 8 -22 5 -8 -3 -12 -2 -9 3 11 17 -39 19 -304
12 -146 -4 -267 -5 -269 -4 -2 1 -1 8 2 15 3 10 74 13 335 13 182 0 334 -4
339 -8z m-2942 -19 c48 -11 49 -12 21 -19 -16 -5 -33 -6 -37 -3 -4 2 -39 6
-77 8 -72 4 -96 11 -87 26 7 11 107 4 180 -12z m1201 11 c10 -18 -11 -31 -60
-36 -49 -6 -52 -3 -36 28 8 14 21 19 50 19 21 0 42 -5 46 -11z m4461 -35 c68
-51 103 -86 103 -101 0 -21 -42 4 -70 42 -24 33 -56 53 -66 42 -12 -12 -6 -76
12 -120 l19 -48 -25 -19 -25 -19 -8 67 c-10 94 -14 102 -36 73 -23 -31 -41
-20 -41 25 0 30 4 35 30 41 21 4 32 13 36 29 3 13 10 24 14 24 5 0 30 -16 57
-36z m-3383 -16 c9 -12 16 -37 16 -56 0 -18 4 -31 9 -28 4 3 6 28 3 56 -3 32
-1 50 6 50 14 0 26 -81 17 -109 -4 -12 -2 -27 3 -34 20 -25 21 -82 2 -107 -16
-21 -20 -22 -25 -9 -4 11 -14 14 -30 11 -15 -2 -27 1 -30 9 -8 22 -33 223 -28
232 9 15 42 6 57 -15z m465 13 c12 -8 9 -11 -11 -16 -15 -4 -35 -5 -45 -2 -14
4 -14 5 5 6 12 0 22 6 22 11 0 12 10 13 29 1z m2491 -32 c0 -6 -4 -7 -10 -4
-5 3 -10 11 -10 16 0 6 5 7 10 4 6 -3 10 -11 10 -16z m-4232 -1 c-6 -18 -28
-21 -28 -4 0 9 7 16 16 16 9 0 14 -5 12 -12z m1830 -40 c7 -38 6 -44 -12 -53
-12 -5 -23 -12 -26 -15 -22 -23 -130 -99 -130 -91 0 11 -39 9 -58 -3 -7 -4
-12 -2 -12 3 0 6 -6 11 -13 11 -7 0 -32 16 -55 35 -22 20 -58 42 -79 49 -35
12 -38 16 -41 54 l-3 42 178 3 c98 1 192 4 210 5 30 2 32 0 41 -40z m-2076 6
c-18 -8 -38 -11 -45 -7 -13 8 23 21 58 21 14 0 10 -4 -13 -14z m1228 -9 c0 -8
-4 -17 -10 -20 -6 -4 -10 5 -10 20 0 15 4 24 10 20 6 -3 10 -12 10 -20z m2695
15 c-3 -5 -11 -10 -16 -10 -6 0 -7 5 -4 10 3 6 11 10 16 10 6 0 7 -4 4 -10z
m-5198 -24 c5 -4 -11 -86 -17 -86 -12 0 -71 80 -65 89 4 7 71 5 82 -3z m651
-35 c-13 -21 -38 -29 -38 -12 0 9 43 41 48 36 2 -2 -3 -12 -10 -24z m3372 9
c47 0 131 3 188 6 57 3 115 3 130 -1 l27 -8 -25 -7 c-14 -5 -59 -8 -102 -9
-43 -1 -78 -6 -80 -11 -2 -6 -44 -15 -94 -20 -111 -12 -124 -16 -121 -43 2
-18 -6 -23 -40 -30 -36 -8 -45 -7 -75 16 -18 14 -50 32 -70 41 -48 19 -51 46
-5 46 18 0 37 4 43 9 15 15 46 20 94 15 25 -2 83 -4 130 -4z m1888 -22 c-3 -7
-17 -15 -33 -16 -25 -3 -27 -2 -16 12 16 19 55 22 49 4z m-1439 -22 c9 -10 15
-41 12 -60 0 -4 -16 3 -35 18 -19 14 -41 26 -50 26 -17 0 -29 14 -19 23 10 11
83 5 92 -7z m434 -3 c-7 -2 -19 -2 -25 0 -7 3 -2 5 12 5 14 0 19 -2 13 -5z
m-5003 -34 c0 -5 -7 -9 -15 -9 -8 0 -15 7 -15 15 0 9 6 12 15 9 8 -4 15 -10
15 -15z m890 6 c0 -8 -4 -15 -10 -15 -5 0 -10 7 -10 15 0 8 5 15 10 15 6 0 10
-7 10 -15z m-1002 -26 c-2 -6 -8 -10 -13 -10 -5 0 -11 4 -13 10 -2 6 4 11 13
11 9 0 15 -5 13 -11z m245 -3 c9 -7 17 -18 17 -25 0 -19 -24 -11 -43 14 -20
28 -5 34 26 11z m3755 -18 c19 -16 14 -28 -10 -29 -23 0 -23 0 1 -10 17 -7 21
-13 14 -20 -8 -8 -17 -8 -32 0 -12 7 -22 9 -22 6 -1 -3 -2 -8 -3 -12 -8 -43
-59 -45 -76 -4 -15 37 -9 46 35 61 19 6 35 16 35 21 0 11 38 2 58 -13z m-454
-8 c-10 -4 -48 -10 -84 -13 -53 -5 -59 -4 -30 4 19 6 49 10 67 9 17 0 34 4 38
10 3 6 11 7 17 4 7 -5 4 -10 -8 -14z m1356 9 c0 -5 4 -8 9 -5 5 4 11 1 13 -5
2 -7 17 -7 45 -1 41 10 42 9 32 -12 -7 -11 -23 -33 -37 -48 -22 -24 -23 -28
-8 -28 9 0 14 -4 11 -10 -10 -15 -45 -12 -52 5 -5 14 -8 14 -29 0 -37 -24 -47
-19 -40 20 6 29 4 34 -9 29 -18 -7 -20 16 -2 38 19 25 67 37 67 17z m-4850 -9
c0 -5 10 -9 22 -7 14 1 23 -4 26 -14 4 -23 -24 -31 -43 -12 -9 8 -18 13 -21
10 -4 -3 10 -22 30 -42 20 -19 36 -40 36 -45 0 -5 -15 -20 -33 -34 -47 -36
-96 -35 -137 3 -30 26 -31 32 -25 75 8 51 19 64 39 46 17 -13 63 -3 70 16 6
16 36 19 36 4z m4594 -6 c4 -9 4 -19 1 -22 -7 -8 -35 19 -29 29 8 14 21 11 28
-7z m-4894 -5 c0 -26 -22 -49 -48 -49 l-26 0 23 -16 c19 -13 22 -22 17 -49
l-6 -32 93 -6 c94 -5 152 -21 174 -49 11 -13 1 -12 -70 3 -103 23 -143 24
-151 4 -4 -12 -24 -15 -86 -15 l-80 0 0 41 c0 60 14 81 46 69 33 -13 31 -13
29 11 -2 26 -39 59 -66 59 -37 0 -18 18 29 28 65 13 122 14 122 1z m1420 -23
c0 -3 -4 -8 -10 -11 -5 -3 -10 -1 -10 4 0 6 5 11 10 11 6 0 10 -2 10 -4z
m5345 -40 c12 -35 -11 -53 -37 -29 -21 19 -24 49 -5 56 21 9 32 2 42 -27z
m-6935 9 c11 -13 10 -18 -6 -30 -37 -28 -55 -15 -34 26 13 23 23 24 40 4z
m4741 -11 c8 -6 22 -14 32 -17 9 -4 17 -14 17 -22 0 -12 6 -15 20 -10 14 5 20
2 20 -9 0 -9 6 -16 14 -16 17 0 27 -37 19 -68 -3 -13 -1 -22 6 -22 6 0 11 10
11 23 0 12 3 32 6 45 7 23 7 23 25 3 22 -24 24 -49 5 -74 -16 -21 -66 -33 -66
-16 0 6 -9 9 -20 6 -11 -3 -22 -1 -25 4 -3 4 -12 6 -19 3 -19 -7 -30 14 -16
31 8 10 8 15 0 20 -7 4 -14 -2 -17 -14 -7 -26 -15 -26 -38 -1 -10 11 -23 20
-28 20 -16 0 -77 50 -77 62 0 7 11 24 25 38 27 28 79 35 106 14z m-4837 -43
c-6 -39 -25 -54 -39 -31 -6 10 34 85 41 77 3 -2 2 -23 -2 -46z m381 19 c11
-17 -5 -32 -21 -19 -8 6 -14 15 -14 20 0 12 27 11 35 -1z m5135 -25 c0 -5 -67
-35 -78 -35 -3 0 3 9 13 20 16 17 65 29 65 15z m-4580 -35 c0 -11 -7 -20 -15
-20 -27 0 -18 30 13 39 1 1 2 -8 2 -19z m5380 -10 c0 -22 -5 -30 -17 -30 -58
1 -50 50 10 59 4 0 7 -12 7 -29z m26 -15 c-8 -33 -15 -45 -29 -45 -17 0 -17 1
-3 16 9 8 16 29 16 45 0 17 5 29 13 29 11 0 11 -9 3 -45z m-5198 -4 c4 -43
-11 -60 -33 -37 -9 9 -21 16 -26 16 -15 0 -10 27 7 45 26 25 49 15 52 -24z
m4834 22 c-5 -10 -7 -23 -5 -30 7 -19 -14 -50 -37 -56 -13 -3 -28 1 -39 12 -9
9 -23 15 -30 13 -25 -8 9 38 42 58 42 26 81 27 69 3z m978 -7 c0 -30 -18 -46
-51 -46 -30 0 -86 41 -77 56 4 5 34 9 67 10 56 1 61 0 61 -20z m-5960 -20 c0
-17 -14 -29 -23 -20 -8 8 3 34 14 34 5 0 9 -6 9 -14z m280 -27 c0 -20 -4 -29
-12 -27 -15 5 -22 33 -14 54 9 24 26 6 26 -27z m5442 4 c10 -9 18 -27 18 -40
0 -19 -5 -23 -33 -23 -22 0 -41 8 -53 21 -19 21 -18 21 5 40 29 23 39 24 63 2z
m-1622 -7 c0 -3 -4 -8 -10 -11 -5 -3 -10 -1 -10 4 0 6 5 11 10 11 6 0 10 -2
10 -4z m-5107 -33 c-7 -2 -19 -2 -25 0 -7 3 -2 5 12 5 14 0 19 -2 13 -5z
m6972 -27 c12 -9 16 -19 11 -32 -7 -18 -9 -18 -27 5 -31 38 -22 55 16 27z
m-5855 -40 c0 -19 -5 -47 -11 -63 l-11 -28 -9 23 c-8 21 -6 49 7 90 7 25 24
11 24 -22z m380 4 c0 -5 -5 -10 -11 -10 -5 0 -7 5 -4 10 3 6 8 10 11 10 2 0 4
-4 4 -10z m-443 -22 c-3 -8 -6 -5 -6 6 -1 11 2 17 5 13 3 -3 4 -12 1 -19z
m111 -19 c-2 -6 -8 -10 -13 -10 -5 0 -11 4 -13 10 -2 6 4 11 13 11 9 0 15 -5
13 -11z m4855 -20 c-14 -14 -91 -25 -78 -11 11 11 77 31 84 25 3 -2 0 -8 -6
-14z m-6288 -9 c-3 -5 -13 -10 -21 -10 -8 0 -14 5 -14 10 0 6 9 10 21 10 11 0
17 -4 14 -10z m35 -20 c0 -5 -7 -10 -15 -10 -8 0 -15 5 -15 10 0 6 7 10 15 10
8 0 15 -4 15 -10z m136 -25 l29 -15 -31 0 c-17 0 -37 7 -44 15 -17 20 7 20 46
0z m90 -15 c12 0 35 -7 50 -15 17 -8 30 -11 32 -5 2 5 9 4 16 -3 11 -9 10 -14
-3 -24 -11 -8 -16 -26 -15 -62 0 -42 6 -57 29 -81 28 -29 24 -37 -9 -24 -9 3
-37 36 -63 73 -57 78 -67 97 -77 137 -6 23 -5 27 5 17 7 -7 23 -13 35 -13z
m1186 -32 c5 -71 -37 -129 -57 -80 -16 37 -16 82 -1 82 9 0 20 9 26 20 17 32
29 23 32 -22z m-1055 16 c-3 -3 -12 -4 -19 -1 -8 3 -5 6 6 6 11 1 17 -2 13 -5z
m6893 -9 c0 -8 -4 -15 -10 -15 -5 0 -10 7 -10 15 0 8 5 15 10 15 6 0 10 -7 10
-15z m-7210 -35 c0 -5 -5 -10 -11 -10 -5 0 -7 5 -4 10 3 6 8 10 11 10 2 0 4
-4 4 -10z m175 -72 c4 -15 4 -32 0 -38 -3 -5 -1 -10 4 -10 6 0 11 5 11 11 0 5
4 8 10 4 12 -8 2 -32 -16 -39 -8 -3 -13 -2 -10 3 3 5 0 11 -8 14 -8 3 -12 16
-10 34 4 24 3 25 -5 8 -10 -20 -10 -20 -10 1 -1 11 4 25 11 32 9 9 7 13 -5 18
-9 3 -17 13 -17 21 0 8 -5 11 -12 7 -7 -5 -8 -3 -3 6 11 17 52 -32 60 -72z
m673 -92 c32 -43 48 -56 64 -54 20 3 23 -4 33 -68 6 -38 7 -86 4 -104 -4 -19
-5 -39 -1 -45 4 -5 5 -21 3 -34 -2 -15 1 -21 8 -17 8 5 11 -15 11 -63 0 -41 4
-71 10 -71 6 0 10 5 10 10 0 6 19 10 43 10 24 0 48 5 55 12 22 22 26 -2 7 -38
-15 -28 -16 -37 -6 -43 20 -13 38 -56 51 -118 6 -32 15 -75 20 -96 7 -32 5
-39 -11 -48 -14 -7 -18 -16 -14 -30 4 -10 2 -19 -4 -19 -5 0 -17 -23 -27 -52
-16 -49 -18 -51 -26 -28 -10 25 -6 83 8 128 6 22 5 23 -28 17 -31 -6 -36 -4
-41 17 -4 12 -7 35 -7 50 0 40 -11 63 -21 46 -6 -9 -9 -6 -9 10 0 13 4 21 8
18 5 -3 9 16 9 42 l1 47 -7 -40 c-7 -36 -8 -38 -14 -15 -4 14 -9 42 -11 63 -3
21 -10 45 -17 53 -9 11 -9 17 1 29 12 15 11 16 -12 19 -17 2 -18 46 -1 46 8 0
11 5 8 10 -4 6 -11 8 -16 5 -5 -4 -9 8 -9 25 0 17 -4 29 -9 26 -5 -3 -12 18
-16 46 -4 29 -12 59 -18 67 -14 16 -33 49 -46 78 -5 11 -20 31 -32 42 -14 13
-18 21 -9 21 10 0 9 5 -3 18 -10 10 -17 26 -17 36 0 11 -4 15 -12 9 -7 -4 -5
6 6 21 10 16 14 26 8 22 -5 -3 -9 6 -9 21 l0 27 21 -26 c11 -14 40 -51 64 -82z
m6422 -77 c0 -10 -10 -23 -21 -30 -17 -9 -20 -8 -17 3 3 7 1 24 -4 37 -5 14
-6 31 -3 39 4 12 9 10 25 -8 11 -13 20 -31 20 -41z m-6296 -25 c3 -8 2 -12 -4
-9 -6 3 -10 10 -10 16 0 14 7 11 14 -7z m2463 0 c-3 -3 -12 -4 -19 -1 -8 3 -5
6 6 6 11 1 17 -2 13 -5z m-3386 -70 l25 1 -13 -90 c-7 -49 -12 -96 -13 -104 0
-7 -6 -11 -15 -7 -9 3 -15 0 -15 -10 0 -10 6 -14 14 -11 11 5 14 -4 11 -41 -4
-48 -15 -158 -20 -202 -13 -107 -28 -270 -28 -292 0 -21 -7 -30 -31 -39 -17
-7 -34 -18 -38 -23 -5 -7 -8 -4 -8 7 0 9 8 17 18 18 10 0 12 3 5 6 -25 9 -13
22 12 13 16 -6 25 -6 25 0 0 6 -6 10 -12 11 -10 0 -10 2 -1 5 7 3 9 12 6 20
-3 8 0 14 6 14 17 0 13 18 -9 40 -11 11 -20 15 -20 8 0 -6 -3 -8 -6 -5 -4 4
-1 13 6 21 18 23 31 89 16 83 -8 -3 -12 8 -13 37 0 22 1 31 4 18 6 -29 23 -19
23 14 0 14 -4 22 -10 19 -6 -4 -10 7 -9 27 1 30 2 31 8 8 7 -22 9 -20 16 20 5
30 4 45 -4 48 -14 5 -14 32 0 52 9 12 10 12 5 -3 -3 -11 -4 -23 -1 -27 8 -13
35 0 35 17 0 8 -4 11 -10 8 -13 -8 -13 16 1 146 5 57 11 113 12 124 1 12 -3
19 -12 17 -10 -2 -12 4 -7 20 3 13 6 32 7 43 0 16 2 17 7 4 4 -9 18 -15 33
-15z m2029 -84 c0 -11 -7 -20 -15 -20 -8 0 -15 9 -15 20 0 11 7 20 15 20 8 0
15 -9 15 -20z m210 -4 c0 -3 -4 -8 -10 -11 -5 -3 -10 -1 -10 4 0 6 5 11 10 11
6 0 10 -2 10 -4z m-1513 -38 c-3 -8 -6 -5 -6 6 -1 11 2 17 5 13 3 -3 4 -12 1
-19z m1331 -50 c-6 -18 -28 -21 -28 -4 0 9 7 16 16 16 9 0 14 -5 12 -12z m122
-13 c0 -14 -7 -28 -15 -31 -20 -8 -31 -70 -15 -89 18 -21 4 -47 -22 -43 -29 4
-41 57 -22 90 19 33 22 40 33 71 13 35 41 36 41 2z m-1223 -47 c-3 -8 -6 -5
-6 6 -1 11 2 17 5 13 3 -3 4 -12 1 -19z m2423 18 c0 -3 -4 -8 -10 -11 -5 -3
-10 -1 -10 4 0 6 5 11 10 11 6 0 10 -2 10 -4z m-2180 -116 c0 -11 -4 -20 -10
-20 -5 0 -10 9 -10 20 0 11 5 20 10 20 6 0 10 -9 10 -20z m-1460 -80 c0 -5 -5
-10 -11 -10 -5 0 -7 5 -4 10 3 6 8 10 11 10 2 0 4 -4 4 -10z m3630 -50 c0 -5
-4 -11 -9 -15 -5 -3 -12 -18 -16 -34 -3 -15 -17 -38 -31 -50 -26 -22 -39 -28
-29 -11 3 6 1 10 -4 10 -35 0 9 98 50 112 17 6 39 -1 39 -12z m-1250 -75 c0
-10 10 -15 30 -15 38 0 41 -26 5 -42 -19 -9 -25 -19 -25 -43 0 -39 -26 -67
-41 -44 -12 19 -11 22 7 69 9 22 14 51 12 65 -3 14 -1 25 3 25 5 0 9 -7 9 -15z
m2675 -176 c-5 -29 -3 -39 7 -39 20 0 -13 -20 -34 -20 -13 0 -16 10 -16 52 -1
63 3 71 29 57 17 -9 19 -17 14 -50z m-4893 -11 c-9 -9 -12 -7 -12 12 0 19 3
21 12 12 9 -9 9 -15 0 -24z m3108 22 c8 -5 11 -10 5 -10 -5 0 -17 5 -25 10 -8
5 -10 10 -5 10 6 0 17 -5 25 -10z m-2049 -47 c-4 -28 -6 -32 -9 -15 -3 22 3
52 11 52 1 0 1 -17 -2 -37z m2029 -33 c0 -5 -4 -10 -10 -10 -5 0 -10 5 -10 10
0 6 5 10 10 10 6 0 10 -4 10 -10z"/>
<path d="M6138 3724 c-4 -5 -9 -27 -12 -49 l-6 -40 15 39 c14 38 16 72 3 50z"/>
<path d="M8477 3403 c-13 -13 -7 -21 13 -16 11 3 17 9 14 14 -6 11 -18 12 -27
2z"/>
<path d="M8430 3289 c0 -11 5 -17 10 -14 6 4 8 10 5 15 -3 4 1 11 7 13 8 3 6
6 -4 6 -12 1 -18 -6 -18 -20z"/>
<path d="M7545 2600 c-3 -5 -1 -10 4 -10 6 0 11 5 11 10 0 6 -2 10 -4 10 -3 0
-8 -4 -11 -10z"/>
<path d="M5940 1789 c0 -2 7 -22 15 -44 14 -40 14 -40 15 -9 0 17 -7 37 -15
44 -8 7 -15 11 -15 9z"/>
<path d="M7215 1510 c-3 -5 -1 -10 4 -10 6 0 11 5 11 10 0 6 -2 10 -4 10 -3 0
-8 -4 -11 -10z"/>
<path d="M8688 1493 c7 -3 16 -2 19 1 4 3 -2 6 -13 5 -11 0 -14 -3 -6 -6z"/>
<path d="M2233 710 c-6 -17 -7 -32 -3 -35 8 -5 26 53 18 60 -2 2 -9 -9 -15
-25z"/>
<path d="M9375 6180 c-3 -5 -1 -10 4 -10 6 0 11 5 11 10 0 6 -2 10 -4 10 -3 0
-8 -4 -11 -10z"/>
<path d="M5790 6160 c-18 -12 -2 -12 25 0 13 6 15 9 5 9 -8 0 -22 -4 -30 -9z"/>
<path d="M5916 6151 c-4 -5 -2 -12 3 -15 5 -4 12 -2 15 3 4 5 2 12 -3 15 -5 4
-12 2 -15 -3z"/>
<path d="M5719 6100 c-7 -19 -18 -30 -29 -30 -11 0 -22 -5 -26 -11 -5 -8 -8
-8 -13 0 -5 8 -13 6 -27 -5 -19 -15 -18 -15 3 -11 13 3 26 1 29 -4 3 -5 23 -9
45 -9 29 0 39 4 39 16 0 12 3 14 13 6 10 -8 20 -3 40 24 15 18 37 34 47 34 11
0 20 5 20 10 0 13 -42 3 -92 -20 -21 -10 -38 -14 -38 -10 0 5 5 12 10 15 13 8
13 25 -1 25 -5 0 -15 -13 -20 -30z"/>
<path d="M5400 5976 c0 -6 -25 -28 -55 -50 -29 -21 -56 -45 -60 -53 -4 -13 -9
-13 -30 1 -24 16 -25 15 -25 -3 0 -11 -6 -24 -13 -28 -20 -12 -52 -66 -48 -82
2 -9 -4 -12 -18 -8 -16 4 -21 -1 -26 -24 -4 -16 -13 -29 -21 -29 -16 0 -29
-42 -20 -65 3 -8 10 -15 15 -15 6 0 8 6 5 14 -4 10 1 15 13 14 10 0 25 2 34 6
9 4 25 -2 40 -15 20 -18 24 -18 27 -5 4 20 16 20 32 1 7 -8 21 -15 31 -15 11
0 19 -4 19 -10 0 -5 7 -10 15 -10 8 0 15 5 15 10 0 14 37 13 46 -2 5 -8 2 -9
-9 -5 -11 4 -17 1 -17 -9 0 -12 8 -13 36 -8 28 5 35 4 29 -5 -4 -7 1 -21 14
-32 25 -24 50 -26 30 -3 -11 14 -10 16 11 13 14 -2 31 0 37 4 7 5 21 3 30 -3
15 -10 15 -11 1 -6 -10 3 -18 -2 -21 -16 -5 -17 -2 -19 18 -14 16 4 27 1 33
-10 5 -9 15 -14 21 -10 6 4 9 12 6 17 -4 5 2 6 12 2 17 -6 17 -5 1 14 -25 27
-22 34 6 23 14 -5 26 -5 28 -1 2 4 15 11 31 15 23 5 27 3 27 -14 0 -11 5 -20
10 -20 13 0 53 22 62 34 10 14 -14 33 -37 29 -11 -2 -14 -1 -7 3 6 3 12 14 12
24 0 10 6 21 13 24 10 5 10 7 0 12 -7 3 -13 19 -13 36 0 24 -3 29 -17 24 -10
-4 -14 -4 -11 0 4 4 3 15 -2 25 -7 12 -6 19 3 22 6 3 3 5 -9 4 -16 -1 -19 -6
-16 -24 6 -31 -6 -29 -18 2 -5 14 -17 25 -25 25 -9 0 -13 -4 -10 -10 3 -5 -1
-10 -10 -10 -8 0 -18 7 -21 15 -6 15 -25 21 -23 8 3 -19 -2 -33 -11 -33 -13 0
-13 43 1 57 7 7 6 12 -5 16 -9 4 -16 2 -16 -3 0 -6 -9 -10 -20 -10 -11 0 -20
4 -20 10 0 5 -7 7 -15 4 -8 -4 -15 -1 -15 5 0 6 4 11 8 11 4 0 9 10 9 22 1 13
7 24 13 26 14 5 13 19 -7 64 -16 36 -19 38 -60 36 -24 -1 -43 -6 -43 -12z
m257 -254 c1 -12 -2 -22 -9 -22 -6 0 -8 3 -5 6 3 4 2 16 -4 26 -8 16 -8 19 2
16 7 -2 14 -14 16 -26z m-142 8 c3 -5 1 -10 -4 -10 -6 0 -11 5 -11 10 0 6 2
10 4 10 3 0 8 -4 11 -10z m115 -30 c0 -5 -4 -10 -10 -10 -5 0 -10 5 -10 10 0
6 5 10 10 10 6 0 10 -4 10 -10z m50 -5 c0 -8 -4 -15 -10 -15 -5 0 -7 7 -4 15
4 8 8 15 10 15 2 0 4 -7 4 -15z m-80 -6 c0 -7 7 -17 16 -24 15 -11 15 -12 -5
-18 -15 -4 -29 1 -43 15 -23 23 -16 37 9 17 15 -12 16 -12 10 4 -3 9 -2 17 3
17 6 0 10 -5 10 -11z m110 -29 c0 -16 -4 -30 -8 -30 -5 0 -9 14 -9 30 0 17 4
30 9 30 4 0 8 -13 8 -30z m-435 6 c18 -13 18 -14 -8 -9 -15 3 -27 9 -27 14 0
13 13 11 35 -5z m268 -36 c-3 -11 -9 -20 -15 -20 -5 0 -4 9 2 20 6 11 12 20
14 20 2 0 2 -9 -1 -20z m103 -2 c4 -6 3 -13 -3 -15 -6 -2 -8 -14 -5 -26 5 -22
5 -22 -17 -3 -16 15 -18 21 -9 28 10 6 10 8 1 8 -7 0 -13 5 -13 10 0 14 37 13
46 -2z m-66 -38 c0 -5 -5 -10 -11 -10 -5 0 -7 5 -4 10 3 6 8 10 11 10 2 0 4
-4 4 -10z"/>
<path d="M5761 5824 c0 -11 3 -14 6 -6 3 7 2 16 -1 19 -3 4 -6 -2 -5 -13z"/>
<path d="M5772 5745 c0 -16 2 -22 5 -12 2 9 2 23 0 30 -3 6 -5 -1 -5 -18z"/>
<path d="M5965 5560 c-3 -5 -1 -10 4 -10 6 0 11 5 11 10 0 6 -2 10 -4 10 -3 0
-8 -4 -11 -10z"/>
<path d="M5710 5516 c0 -8 5 -18 10 -21 6 -3 10 3 10 14 0 12 -4 21 -10 21 -5
0 -10 -6 -10 -14z"/>
<path d="M5475 5510 c-3 -5 -23 -11 -43 -11 -20 -1 -29 -3 -19 -6 10 -3 17
-14 17 -28 0 -18 4 -23 15 -19 8 4 21 2 28 -4 6 -5 19 -9 27 -9 9 0 28 -3 44
-7 26 -6 28 -5 17 8 -8 9 -19 16 -25 16 -19 1 -62 42 -48 47 14 5 16 23 3 23
-6 0 -13 -4 -16 -10z m-5 -36 c0 -2 -7 -4 -15 -4 -8 0 -15 4 -15 10 0 5 7 7
15 4 8 -4 15 -8 15 -10z"/>
<path d="M5760 5510 c0 -5 5 -10 10 -10 6 0 10 5 10 10 0 6 -4 10 -10 10 -5 0
-10 -4 -10 -10z"/>
<path d="M5347 5494 c-13 -13 -7 -24 14 -24 11 0 19 5 17 12 -5 14 -22 21 -31
12z"/>
<path d="M5628 5493 c6 -2 18 -2 25 0 6 3 1 5 -13 5 -14 0 -19 -2 -12 -5z"/>
<path d="M5397 5463 c-4 -3 -7 -11 -7 -17 0 -6 5 -5 12 2 6 6 9 14 7 17 -3 3
-9 2 -12 -2z"/>
<path d="M5236 5425 c-3 -8 -1 -15 4 -15 5 0 6 -7 3 -17 -4 -11 -3 -14 5 -9
14 8 16 56 3 56 -5 0 -11 -7 -15 -15z"/>
<path d="M5610 5370 c0 -5 5 -10 11 -10 5 0 7 5 4 10 -3 6 -8 10 -11 10 -2 0
-4 -4 -4 -10z"/>
<path d="M5166 5349 c-14 -9 -15 -13 -6 -19 7 -5 21 -3 32 3 36 23 12 37 -26
16z"/>
<path d="M5480 5340 c-117 -11 -150 -24 -188 -75 -40 -52 -62 -120 -62 -185 0
-54 23 -135 48 -168 l17 -21 76 19 c85 22 205 82 251 126 27 24 29 32 24 67
-7 43 -45 114 -75 141 -29 27 -17 46 21 35 40 -11 74 -44 83 -77 5 -19 9 -22
15 -12 16 25 -62 123 -109 136 l-26 7 25 7 25 8 -25 -1 c-14 0 -59 -3 -100 -7z
m-152 -248 c-2 -15 -7 -27 -12 -27 -15 0 -24 39 -14 65 8 23 10 23 19 7 6 -10
9 -30 7 -45z"/>
<path d="M5624 5325 c11 -8 25 -15 30 -15 6 0 2 7 -8 15 -11 8 -25 15 -30 15
-6 0 -2 -7 8 -15z"/>
<path d="M5197 5222 c-34 -37 -75 -212 -50 -212 6 0 13 30 16 66 3 42 14 83
30 115 28 53 29 59 4 31z"/>
<path d="M6090 5231 c0 -6 4 -13 10 -16 6 -3 7 1 4 9 -7 18 -14 21 -14 7z"/>
<path d="M5860 5003 c-46 -13 -102 -37 -124 -54 -22 -16 -52 -29 -66 -29 -38
0 -90 -20 -90 -34 0 -7 6 -20 13 -29 10 -14 17 -15 49 -5 30 9 48 8 93 -5 66
-19 73 -17 100 26 25 40 84 80 108 73 24 -6 57 28 57 59 0 32 -24 32 -140 -2z"/>
<path d="M8795 5010 c-3 -11 -12 -20 -18 -20 -7 0 -6 -4 3 -10 23 -15 26 -13
28 20 3 34 -4 39 -13 10z"/>
<path d="M5146 4975 c-3 -8 -1 -15 4 -15 6 0 10 7 10 15 0 8 -2 15 -4 15 -2 0
-6 -7 -10 -15z"/>
<path d="M6220 4671 c0 -6 5 -13 10 -16 6 -3 10 1 10 9 0 9 -4 16 -10 16 -5 0
-10 -4 -10 -9z"/>
<path d="M6008 4643 c6 -2 18 -2 25 0 6 3 1 5 -13 5 -14 0 -19 -2 -12 -5z"/>
<path d="M1956 3939 c-57 -52 -91 -59 -61 -13 22 35 12 44 -50 44 -51 0 -57
-3 -92 -42 -21 -23 -46 -50 -55 -60 -10 -10 -18 -22 -18 -27 0 -5 -7 -11 -15
-15 -8 -3 -15 -10 -15 -16 0 -5 -18 -26 -40 -46 -45 -41 -53 -80 -21 -108 10
-9 56 -33 102 -52 46 -19 98 -41 116 -49 50 -24 74 -18 123 29 66 63 159 120
255 156 l83 32 -12 30 c-14 38 -119 154 -157 173 -52 27 -83 19 -143 -36z"/>
<path d="M5490 3846 c-44 -16 -140 -65 -140 -71 0 -2 21 6 48 17 26 12 67 26
91 33 25 6 46 16 49 23 5 15 -3 14 -48 -2z"/>
<path d="M2367 3810 c-5 -19 0 -20 66 -20 l72 1 -24 19 c-33 28 -107 28 -114
0z"/>
<path d="M5333 3729 c-23 -11 -47 -27 -54 -35 -6 -8 9 -3 34 11 60 34 131 42
181 21 45 -19 46 -19 46 -6 0 13 -67 30 -120 30 -25 0 -63 -9 -87 -21z"/>
<path d="M2328 2903 c-12 -3 -18 -13 -17 -31 2 -23 2 -24 6 -5 3 13 13 23 26
25 12 2 18 6 12 9 -5 3 -18 4 -27 2z"/>
<path d="M2343 2798 c2 -7 10 -13 17 -13 7 0 15 6 18 13 2 7 -5 12 -18 12 -13
0 -20 -5 -17 -12z"/>
<path d="M1445 2755 c-22 -8 -41 -15 -42 -15 -1 0 1 -7 4 -17 4 -11 3 -14 -5
-9 -7 4 -12 6 -12 4 0 -2 -10 -46 -23 -98 -17 -69 -22 -110 -18 -150 l6 -55
40 0 40 0 6 52 c10 76 15 86 41 77 13 -4 28 -14 34 -22 8 -11 12 3 17 64 4 43
9 102 13 129 l6 50 -33 2 c-19 1 -52 -5 -74 -12z"/>
<path d="M2234 2685 c0 -23 4 -35 13 -35 16 0 17 31 1 53 -11 15 -13 13 -14
-18z"/>
<path d="M2292 2670 c0 -14 2 -19 5 -12 2 6 2 18 0 25 -3 6 -5 1 -5 -13z"/>
<path d="M2170 2663 c0 -19 21 -27 33 -13 9 10 9 11 -2 5 -8 -4 -17 -2 -22 6
-6 9 -9 10 -9 2z"/>
<path d="M2396 2653 c-6 -14 -5 -15 5 -6 7 7 10 15 7 18 -3 3 -9 -2 -12 -12z"/>
<path d="M5642 2600 c0 -19 2 -27 5 -17 2 9 2 25 0 35 -3 9 -5 1 -5 -18z"/>
<path d="M0 2516 c0 -47 3 -56 18 -56 32 0 62 12 62 24 0 7 16 20 35 29 46 22
44 33 -7 41 -24 4 -58 9 -75 12 l-33 6 0 -56z"/>
<path d="M5200 2533 c0 -31 37 -137 49 -141 15 -5 14 96 -2 128 -15 30 -47 39
-47 13z"/>
<path d="M5616 2541 c-4 -5 4 -31 16 -58 l22 -48 4 44 c2 24 1 50 -2 57 -6 16
-32 19 -40 5z"/>
<path d="M5040 2500 c0 -5 5 -10 10 -10 6 0 10 5 10 10 0 6 -4 10 -10 10 -5 0
-10 -4 -10 -10z"/>
<path d="M5691 2424 c0 -11 3 -14 6 -6 3 7 2 16 -1 19 -3 4 -6 -2 -5 -13z"/>
<path d="M2610 2416 c0 -2 7 -7 16 -10 8 -3 12 -2 9 4 -6 10 -25 14 -25 6z"/>
<path d="M2650 2400 c0 -5 7 -10 16 -10 8 0 12 5 9 10 -3 6 -10 10 -16 10 -5
0 -9 -4 -9 -10z"/>
<path d="M1 2226 c-1 -80 1 -87 15 -75 11 9 14 21 9 43 -4 17 -11 51 -15 76
-6 38 -8 31 -9 -44z"/>
<path d="M2 1990 c0 -14 2 -19 5 -12 2 6 2 18 0 25 -3 6 -5 1 -5 -13z"/>
<path d="M5150 1896 c0 -8 14 -16 32 -18 l32 -5 -23 18 c-28 23 -41 24 -41 5z"/>
<path d="M4938 1868 c9 -9 15 -9 24 0 9 9 7 12 -12 12 -19 0 -21 -3 -12 -12z"/>
<path d="M5093 1855 c26 -14 47 -30 47 -35 0 -5 11 -12 25 -16 29 -7 27 -1 29
-84 1 -39 9 -77 19 -95 9 -16 16 -25 17 -18 0 7 7 10 15 7 20 -8 19 5 -5 68
-18 47 -26 98 -16 98 1 0 17 -5 34 -11 27 -9 33 -18 43 -65 7 -30 16 -57 20
-59 3 -3 18 4 32 15 28 22 49 25 78 10 15 -8 19 -7 19 5 0 8 -8 15 -17 15 -17
0 -63 49 -75 80 -3 8 -28 24 -54 34 -27 11 -71 29 -99 42 -27 12 -75 25 -105
28 l-55 6 48 -25z"/>
<path d="M677 1790 c5 -20 3 -21 -30 -15 -43 8 -55 -7 -22 -29 40 -26 31 -40
-20 -33 -53 8 -58 -3 -12 -26 17 -9 39 -21 47 -26 8 -5 24 -12 34 -16 15 -4
17 -8 7 -18 -9 -9 -16 -9 -32 1 -13 9 -49 12 -98 11 -43 -1 -83 1 -89 4 -11 8
-88 -17 -109 -34 -17 -15 -16 -49 2 -73 11 -15 30 -20 76 -23 33 -1 70 -10 82
-18 27 -19 37 -19 37 0 0 8 -9 15 -20 15 -11 0 -23 7 -27 16 -7 19 11 41 21
25 4 -6 18 -11 31 -11 18 0 26 -8 35 -34 10 -33 14 -35 58 -38 40 -3 47 -6 44
-23 -14 -107 -13 -116 10 -135 31 -25 21 -31 -25 -17 -25 8 -40 19 -43 34 -3
12 -23 38 -45 57 -36 34 -39 35 -48 17 -9 -16 -7 -20 14 -25 14 -4 25 -13 25
-21 0 -8 7 -15 15 -15 8 0 15 -4 15 -9 0 -6 15 -24 33 -40 27 -26 30 -34 21
-48 -9 -13 -22 -17 -50 -15 -56 5 -71 23 -56 65 15 42 15 57 -1 36 -7 -9 -23
-21 -36 -28 -23 -13 -23 -12 -17 13 4 16 2 26 -5 26 -7 0 -9 9 -5 23 4 18 0
27 -18 37 -13 7 -28 10 -33 7 -5 -3 -31 6 -58 19 -30 15 -68 25 -95 26 -41 0
-42 1 -19 9 19 7 25 15 22 28 -2 9 5 41 15 69 l20 52 -26 -6 c-78 -17 -92 -34
-92 -115 0 -20 -5 -29 -16 -29 -14 0 -16 8 -11 50 6 47 5 50 -16 50 -28 0 -67
-26 -67 -46 0 -8 -4 -22 -9 -32 -5 -9 -12 -26 -16 -36 -4 -14 -9 -16 -17 -8
-26 26 -3 106 33 115 31 8 22 27 -13 27 -23 0 -38 -8 -54 -27 -20 -25 -20 -29
-7 -50 14 -21 14 -23 -1 -23 -13 0 -16 -13 -16 -77 0 -60 3 -74 12 -65 16 16
28 15 28 -3 0 -8 -9 -15 -20 -15 -20 0 -20 -7 -20 -660 l0 -660 114 0 c63 0
117 4 120 9 11 17 140 86 201 108 136 49 345 67 443 38 62 -19 65 -32 19 -89
-18 -23 -37 -47 -41 -54 -6 -9 38 -12 207 -12 l214 0 12 143 c19 248 19 261
-1 281 -18 20 -109 38 -215 45 -12 0 -24 10 -28 20 -3 11 -15 23 -26 26 -19 6
-19 7 3 48 43 81 81 137 93 137 7 0 18 7 25 15 7 8 24 15 38 15 40 0 93 21
143 57 26 18 49 33 53 33 10 0 7 -69 -10 -272 -12 -142 -14 -192 -5 -197 6 -4
55 -2 109 5 97 12 156 19 267 29 106 11 99 5 113 97 12 75 31 345 32 440 0 29
-3 36 -15 32 -10 -4 -15 0 -15 15 0 12 7 24 15 27 29 11 17 232 -14 254 -15
11 -58 96 -54 108 3 6 0 12 -6 12 -6 0 -11 7 -11 15 0 8 -5 15 -11 15 -6 0 -9
6 -6 13 5 17 -23 36 -53 36 -38 1 -103 -33 -139 -70 -17 -19 -47 -64 -65 -101
-29 -56 -36 -65 -46 -53 -7 8 -17 15 -22 15 -5 0 -24 11 -42 25 -18 14 -38 25
-44 25 -7 0 -12 5 -12 10 0 6 -3 10 -7 10 -5 0 -9 -26 -10 -58 0 -31 1 -52 4
-45 3 8 21 -5 48 -32 24 -25 50 -45 59 -45 10 0 16 -9 17 -22 1 -22 1 -22 9 2
7 24 7 24 14 -10 9 -44 -23 -136 -59 -170 -14 -13 -25 -18 -25 -12 0 7 -4 12
-10 12 -5 0 -10 -6 -10 -14 0 -8 -4 -18 -10 -21 -6 -3 -7 1 -4 10 4 8 1 22 -6
30 -7 8 -10 22 -6 30 7 20 -3 19 -26 -2 -20 -17 -85 -20 -101 -4 -5 5 -31 -15
-58 -44 -27 -29 -71 -63 -98 -75 -28 -14 -48 -30 -47 -39 1 -8 -11 -21 -26
-29 -16 -7 -33 -23 -39 -35 -29 -56 -84 -127 -99 -127 -12 0 -17 -9 -18 -31
-1 -31 -50 -144 -59 -136 -2 3 5 20 16 38 12 19 21 48 20 64 0 17 -3 23 -5 15
-22 -65 -41 -93 -80 -116 -32 -19 -41 -29 -37 -44 4 -16 2 -19 -11 -14 -9 3
-19 17 -22 31 -8 30 3 102 18 120 7 9 7 13 -1 13 -7 0 -10 4 -7 9 8 13 -31 54
-44 46 -7 -4 -14 2 -17 14 -5 19 -39 29 -77 22 -5 -1 -23 11 -40 26 -17 16
-43 35 -58 42 -24 12 -31 12 -53 -3 -31 -21 -41 -16 -26 13 9 16 8 22 -5 29
-9 5 -14 15 -12 23 3 10 -10 19 -43 29 -102 32 -60 45 186 55 171 6 221 11
411 39 25 4 33 20 55 106 12 47 32 105 45 130 13 25 20 46 14 48 -17 6 -11 22
8 22 10 0 33 20 50 44 45 62 105 107 164 122 47 13 52 12 84 -10 l35 -23 39
38 c25 25 49 39 65 39 15 0 25 6 25 14 0 16 -36 9 -79 -13 -27 -15 -36 4 -28
54 4 21 1 36 -6 39 -8 3 -7 9 5 18 18 15 36 88 21 88 -11 0 -43 -53 -43 -72 0
-8 -11 -25 -25 -38 l-25 -23 0 27 c0 29 -25 45 -43 27 -6 -6 -17 -11 -25 -11
-11 0 -12 17 -7 93 4 50 9 95 12 100 2 4 0 7 -6 7 -10 0 -27 -50 -33 -100 -4
-34 -32 -32 -36 3 -3 23 -22 41 -22 20 0 -5 -13 -15 -28 -24 -17 -9 -32 -29
-38 -49 -13 -45 -27 -47 -42 -5 -16 42 -7 63 43 101 49 37 48 60 -2 38 -41
-18 -77 -21 -105 -9 -15 6 -18 2 -18 -19 0 -16 -6 -26 -15 -26 -17 0 -20 16
-5 25 5 3 7 12 3 21 -7 19 24 43 57 44 39 1 64 24 51 48 -9 17 -14 18 -56 8
-25 -7 -50 -17 -57 -24 -7 -7 -18 -12 -26 -12 -11 0 -13 -8 -9 -29 7 -32 -18
-66 -28 -40 -3 8 -21 14 -40 15 -41 1 -53 10 -37 26 7 7 12 18 12 26 0 12 -3
12 -15 2 -8 -6 -20 -8 -27 -4 -7 5 -20 9 -28 9 -8 0 -15 9 -15 20 0 11 -8 21
-17 23 -12 2 -15 -2 -11 -18z m136 -135 c7 -16 -8 -29 -23 -20 -15 9 -12 35 4
35 8 0 16 -7 19 -15z m187 -16 c-7 -11 -14 -18 -17 -15 -8 8 5 36 17 36 7 0 7
-6 0 -21z m-540 -75 c0 -8 -9 -14 -20 -14 -19 0 -28 28 -13 43 9 9 33 -12 33
-29z m300 16 c0 -5 -7 -10 -15 -10 -8 0 -15 5 -15 10 0 6 7 10 15 10 8 0 15
-4 15 -10z m170 -20 c12 -8 11 -10 -7 -10 -13 0 -23 5 -23 10 0 13 11 13 30 0z
m197 -16 c9 -23 -11 -38 -26 -20 -13 16 -7 36 10 36 5 0 12 -7 16 -16z m-397
-41 c20 -26 21 -28 4 -32 -18 -3 -44 23 -44 46 0 21 17 15 40 -14z m345 -3 c3
-5 1 -10 -4 -10 -6 0 -11 5 -11 10 0 6 2 10 4 10 3 0 8 -4 11 -10z m-769 -98
c5 -5 31 -17 57 -26 27 -10 53 -27 60 -37 6 -10 19 -19 29 -19 9 0 20 -5 23
-11 8 -12 -22 -49 -40 -49 -19 0 -94 63 -94 79 -1 9 -9 12 -30 8 -34 -7 -71
16 -71 44 0 14 7 19 28 19 15 0 32 -4 38 -8z m-102 -21 c29 -25 36 -53 18 -73
-16 -19 -52 -25 -52 -9 0 5 -15 8 -32 7 -27 -1 -34 3 -36 21 -4 27 35 70 63
70 11 0 28 -7 39 -16z m703 -3 c-3 -8 -6 -5 -6 6 -1 11 2 17 5 13 3 -3 4 -12
1 -19z m438 -18 c3 -5 2 -10 -4 -10 -5 0 -13 5 -16 10 -3 6 -2 10 4 10 5 0 13
-4 16 -10z m377 -105 c6 -30 -19 -57 -32 -35 -5 8 -7 17 -6 20 2 3 6 13 9 23
9 25 24 21 29 -8z m114 -83 c-4 -11 -13 -23 -21 -26 -11 -4 -15 2 -15 23 0 29
18 45 33 31 5 -5 6 -17 3 -28z m-228 -33 c-4 -27 -23 -36 -32 -14 -8 22 13 60
26 47 5 -5 8 -20 6 -33z m102 -58 c0 -4 -11 -6 -25 -3 -27 5 -36 -8 -39 -53
-1 -19 -7 -25 -23 -25 -29 0 -29 7 2 53 20 29 32 37 55 37 17 0 30 -4 30 -9z
m-130 -99 c0 -19 -18 -42 -32 -42 -12 0 -9 35 4 48 17 17 28 15 28 -6z m246
-218 c-3 -9 -6 -21 -6 -27 0 -7 -4 -7 -9 2 -10 16 -4 41 11 41 6 0 7 -7 4 -16z
m-224 -40 c-2 -10 -6 -21 -8 -24 -9 -8 -22 23 -17 37 8 20 29 9 25 -13z m108
-70 c0 -14 -5 -24 -11 -22 -6 2 -10 7 -10 11 1 4 1 14 1 22 0 8 5 15 10 15 6
0 10 -12 10 -26z m60 -209 c0 -8 -4 -15 -10 -15 -5 0 -10 6 -10 13 0 22 -38
18 -43 -5 -3 -11 -10 -17 -16 -14 -6 4 -8 13 -4 21 3 8 0 15 -7 15 -6 0 -8 5
-4 11 4 8 9 7 15 -2 7 -11 12 -9 25 9 l16 23 19 -20 c10 -11 19 -27 19 -36z
m-156 -20 c-4 -8 -8 -15 -10 -15 -2 0 -4 7 -4 15 0 8 4 15 10 15 5 0 7 -7 4
-15z m-64 -5 c0 -5 -4 -10 -10 -10 -5 0 -10 5 -10 10 0 6 5 10 10 10 6 0 10
-4 10 -10z m-862 -212 c-6 -18 -13 -27 -15 -21 -4 11 13 53 22 53 2 0 -1 -15
-7 -32z"/>
<path d="M4958 1793 c-10 -2 -18 -9 -18 -14 0 -5 11 -7 25 -3 14 3 49 10 78
14 l52 8 -60 0 c-33 0 -68 -2 -77 -5z"/>
<path d="M170 1775 c0 -11 6 -14 24 -9 13 3 27 1 30 -5 4 -6 19 -11 34 -11
l27 1 -30 13 c-56 24 -85 28 -85 11z"/>
<path d="M1346 1758 c-10 -15 -16 -34 -14 -42 2 -13 7 -12 27 3 21 16 23 23
15 42 l-11 23 -17 -26z"/>
<path d="M1703 1745 c-22 -9 -33 -21 -33 -34 0 -41 21 -35 58 17 25 36 22 38
-25 17z"/>
<path d="M4848 1732 c-30 -18 -39 -39 -10 -23 28 16 58 40 47 40 -5 -1 -22 -8
-37 -17z"/>
<path d="M1277 1720 c-6 -20 -5 -61 2 -112 1 -5 6 -8 12 -8 6 0 9 6 6 13 -2 6
2 24 9 39 11 22 11 27 -1 31 -7 3 -15 18 -17 34 l-4 28 -7 -25z"/>
<path d="M1587 1720 c-29 -23 -34 -48 -16 -81 13 -25 29 -15 29 17 0 14 5 34
11 45 17 33 5 42 -24 19z"/>
<path d="M125 1685 c-10 -27 -24 -57 -32 -66 -18 -22 -16 -29 8 -29 13 0 25
11 34 34 8 19 19 38 25 41 7 4 8 11 2 18 -6 7 -12 21 -14 32 -3 14 -9 6 -23
-30z"/>
<path d="M1 1684 c0 -11 3 -14 6 -6 3 7 2 16 -1 19 -3 4 -6 -2 -5 -13z"/>
<path d="M56 1678 c-17 -24 -21 -48 -8 -48 5 0 13 16 19 35 13 41 10 44 -11
13z"/>
<path d="M1482 1663 c-39 -34 -54 -89 -27 -99 23 -9 48 7 50 32 1 10 5 36 9
57 4 20 5 37 4 37 -2 0 -18 -12 -36 -27z"/>
<path d="M5087 1644 c-27 -37 -16 -94 18 -94 14 0 25 5 25 10 0 6 7 10 15 10
8 0 15 2 15 5 0 10 -44 95 -49 95 -4 0 -14 -12 -24 -26z"/>
<path d="M4954 1623 c-9 -35 -22 -53 -41 -53 -11 0 -14 7 -10 26 3 15 1 22 -5
16 -5 -5 -10 -22 -11 -38 -2 -27 0 -28 34 -26 23 2 40 -2 48 -12 18 -22 55
-21 47 0 -3 9 -6 22 -6 30 0 8 -9 14 -20 14 -20 0 -24 8 -20 48 2 31 -8 28
-16 -5z"/>
<path d="M4580 1626 c0 -9 7 -16 16 -16 17 0 14 22 -4 28 -7 2 -12 -3 -12 -12z"/>
<path d="M4603 1575 c-3 -9 -3 -19 1 -22 7 -7 36 16 36 28 0 15 -30 10 -37 -6z"/>
<path d="M4819 1551 c-8 -29 -9 -45 -2 -52 7 -7 12 5 17 37 8 61 1 68 -15 15z"/>
<path d="M1948 1553 c7 -3 16 -2 19 1 4 3 -2 6 -13 5 -11 0 -14 -3 -6 -6z"/>
<path d="M4744 1523 c-10 -16 -13 -16 -28 -4 -14 12 -20 11 -41 -9 -14 -13
-25 -33 -25 -45 0 -11 -5 -26 -10 -31 -6 -6 -7 -24 -4 -42 5 -22 16 -35 39
-47 32 -15 35 -14 59 8 14 14 26 35 26 49 0 13 4 28 9 34 10 10 3 104 -8 104
-3 0 -11 -8 -17 -17z m-52 -78 c0 -5 -5 -11 -11 -13 -6 -2 -11 4 -11 13 0 9 5
15 11 13 6 -2 11 -8 11 -13z"/>
<path d="M3094 1511 c4 -7 2 -18 -4 -26 -10 -12 -9 -15 9 -15 17 0 22 5 19 22
-2 12 -9 23 -17 26 -9 3 -11 0 -7 -7z"/>
<path d="M1426 1495 c4 -8 1 -22 -6 -30 -19 -23 2 -18 33 9 34 30 34 36 -3 36
-22 0 -28 -4 -24 -15z"/>
<path d="M1502 1460 c-16 -26 -16 -71 1 -64 6 3 20 16 30 30 16 21 16 26 3 39
-19 19 -19 19 -34 -5z"/>
<path d="M631 1434 c0 -11 3 -14 6 -6 3 7 2 16 -1 19 -3 4 -6 -2 -5 -13z"/>
<path d="M3110 1420 c-8 -15 -21 -20 -50 -20 -22 0 -40 -4 -40 -10 0 -17 56
-15 77 2 6 5 17 8 25 6 14 -3 18 3 18 27 0 21 -17 19 -30 -5z"/>
<path d="M4383 1370 c-3 -11 -10 -20 -17 -20 -6 0 -33 -23 -61 -51 -27 -28
-62 -58 -77 -67 -16 -9 -28 -25 -28 -35 0 -11 -11 -33 -25 -49 -14 -17 -24
-33 -21 -35 9 -10 126 100 126 118 0 25 12 24 35 -1 24 -27 36 -25 69 9 16 17
40 31 55 33 23 3 26 7 23 36 -2 25 2 32 15 32 14 1 11 6 -12 25 -37 31 -75 33
-82 5z"/>
<path d="M3230 1331 c0 -11 4 -22 8 -25 14 -9 35 12 29 28 -9 23 -37 20 -37
-3z"/>
<path d="M4140 1274 c0 -12 -7 -15 -30 -12 -22 3 -31 0 -35 -12 -3 -9 -16 -27
-29 -39 -24 -22 -24 -23 -5 -42 24 -24 64 -11 73 25 4 17 13 26 26 26 21 0 29
20 8 20 -8 0 -6 5 4 11 10 5 15 16 12 24 -8 20 -24 19 -24 -1z"/>
<path d="M3990 1261 c0 -25 14 -34 40 -26 16 5 18 10 10 26 -14 25 -50 25 -50
0z"/>
<path d="M3200 1266 c0 -2 7 -9 15 -16 12 -10 15 -10 15 4 0 9 -7 16 -15 16
-8 0 -15 -2 -15 -4z"/>
<path d="M3986 1189 c-12 -40 -13 -59 -1 -69 17 -14 23 -3 21 37 -1 35 -13 54
-20 32z"/>
<path d="M4310 1135 c-6 -8 -10 -21 -8 -30 2 -13 8 -10 26 14 16 23 19 31 9
31 -8 0 -20 -7 -27 -15z"/>
<path d="M3050 1119 c0 -5 5 -7 10 -4 6 3 10 8 10 11 0 2 -4 4 -10 4 -5 0 -10
-5 -10 -11z"/>
<path d="M4198 1040 c-16 -18 -16 -20 -1 -36 16 -15 17 -15 24 2 10 26 11 54
1 54 -4 0 -15 -9 -24 -20z"/>
<path d="M4960 1000 c0 -5 5 -10 11 -10 5 0 7 5 4 10 -3 6 -8 10 -11 10 -2 0
-4 -4 -4 -10z"/>
<path d="M4360 912 c0 -12 23 -32 37 -32 7 0 13 9 13 20 0 15 -7 20 -25 20
-14 0 -25 -4 -25 -8z"/>
<path d="M5566 783 c-6 -14 -5 -15 5 -6 7 7 10 15 7 18 -3 3 -9 -2 -12 -12z"/>
<path d="M1902 630 c0 -14 2 -19 5 -12 2 6 2 18 0 25 -3 6 -5 1 -5 -13z"/>
<path d="M4998 253 c7 -3 16 -2 19 1 4 3 -2 6 -13 5 -11 0 -14 -3 -6 -6z"/>
<path d="M4996 224 c-9 -25 -7 -34 8 -34 8 0 21 -6 28 -14 19 -18 78 -9 78 13
0 25 -13 37 -40 37 -14 0 -35 3 -46 7 -15 5 -23 3 -28 -9z"/>
<path d="M5120 206 c0 -9 5 -16 10 -16 6 0 10 4 10 9 0 6 -4 13 -10 16 -5 3
-10 -1 -10 -9z"/>
<path d="M644 63 c-3 -10 -19 -28 -37 -40 -17 -13 -26 -23 -19 -23 16 0 72 54
72 69 0 17 -11 13 -16 -6z"/>
<path d="M5137 24 c-13 -13 5 -24 36 -24 30 1 31 1 13 15 -21 16 -39 19 -49 9z"/>
</g>
</svg>
