<?xml version="1.0" standalone="no"?>
<!DOCTYPE svg PUBLIC "-//W3C//DTD SVG 20010904//EN"
 "http://www.w3.org/TR/2001/REC-SVG-20010904/DTD/svg10.dtd">
<svg version="1.0" xmlns="http://www.w3.org/2000/svg"
 width="355.000000pt" height="353.000000pt" viewBox="0 0 355.000000 353.000000"
 preserveAspectRatio="xMidYMid meet">

<g transform="translate(0.000000,353.000000) scale(0.100000,-0.100000)"
fill="#000000" stroke="none">
<path d="M0 3386 c0 -139 1 -146 24 -173 14 -16 43 -38 65 -48 43 -19 51 -32
26 -41 -20 -8 -19 -33 2 -56 27 -30 8 -31 -37 -3 -26 16 -48 24 -61 20 -18 -6
-19 -16 -19 -140 0 -97 3 -135 13 -138 10 -4 10 -6 0 -6 -10 -1 -13 -28 -13
-102 0 -107 2 -113 55 -139 56 -28 115 -65 115 -72 0 -10 -29 2 -70 29 -19 13
-40 23 -47 23 -7 0 -21 10 -32 21 l-20 22 0 -344 -1 -345 22 -1 c12 -1 27 2
33 7 8 7 19 0 34 -21 21 -28 21 -32 7 -48 -9 -10 -16 -23 -16 -29 0 -15 -17
-16 -25 -2 -3 6 -15 10 -27 10 -16 0 -19 5 -16 25 3 14 1 28 -3 31 -5 3 -9
-68 -9 -156 l0 -162 24 6 c16 4 29 -1 41 -15 18 -19 18 -20 -2 -40 -17 -17
-24 -19 -42 -10 -21 12 -21 11 -21 -91 1 -102 1 -103 19 -80 27 32 37 28 47
-20 7 -34 15 -43 41 -52 48 -17 49 -23 9 -58 -30 -27 -38 -42 -42 -78 -3 -25
-8 -47 -10 -49 -3 -3 -18 3 -34 13 l-30 17 0 -141 c0 -133 1 -143 21 -159 20
-16 21 -21 10 -54 -7 -21 -17 -35 -22 -32 -5 4 -9 -136 -9 -349 l0 -356 1775
0 1775 0 0 44 c0 41 -2 44 -32 51 -18 4 -44 8 -58 10 -63 6 -110 18 -116 27
-5 7 5 9 27 5 19 -3 57 -9 84 -12 28 -3 60 -8 73 -11 18 -4 22 0 22 20 0 22
-6 26 -47 32 -45 7 -72 25 -73 49 0 6 4 4 9 -3 4 -8 11 -13 15 -12 3 0 23 -4
44 -10 20 -5 40 -10 45 -10 4 0 7 430 7 955 0 903 -1 955 -17 955 -10 0 -27 3
-38 6 -12 3 -29 -3 -42 -15 -31 -29 -43 -26 -43 9 0 23 -6 33 -25 42 -32 15
-32 23 4 37 18 8 32 23 37 43 l9 30 28 -22 c20 -16 35 -20 57 -15 l30 7 0 659
0 659 -222 0 -223 0 -20 -29 c-25 -39 -55 -48 -55 -17 0 12 5 27 12 34 9 9
-29 12 -173 12 -102 0 -189 -3 -192 -7 -11 -10 -58 -13 -52 -2 4 5 -259 9
-684 9 -647 0 -691 -1 -700 -17 -9 -17 -10 -17 -16 0 -6 15 -25 17 -197 17
-163 0 -189 -2 -185 -15 10 -24 -15 -30 -34 -7 -16 20 -27 22 -128 22 -94 0
-111 -2 -111 -16 0 -22 20 -57 43 -73 20 -14 20 -14 -1 -22 -13 -5 -22 -17
-22 -29 0 -27 -12 -25 -38 5 -12 14 -31 25 -42 25 -16 0 -20 7 -20 36 0 75 3
74 -215 74 -167 0 -195 -2 -195 -15 0 -8 -4 -15 -9 -15 -5 0 -14 7 -21 15 -7
8 -21 15 -31 15 -18 0 -19 -10 -19 -144z m3420 82 c0 -14 -30 -48 -42 -48 -13
0 -9 22 9 42 18 21 33 23 33 6z m-571 -74 c16 10 14 -9 -3 -23 -8 -7 -18 -26
-21 -42 -5 -24 -12 -29 -35 -29 -16 0 -32 -4 -35 -10 -12 -20 -20 -9 -21 29
-2 32 2 41 22 50 13 6 30 22 36 37 l12 25 17 -22 c9 -12 21 -19 28 -15z
m-2485 1 c14 -14 23 -32 20 -40 -7 -17 -7 -17 -29 -9 -8 4 -22 19 -30 34 -14
28 -14 29 12 39 1 1 13 -10 27 -24z m456 5 c24 -17 29 -18 46 -5 28 21 31 19
38 -22 3 -21 17 -50 31 -65 27 -29 33 -50 13 -47 -29 4 -38 -2 -38 -26 0 -30
-15 -33 -30 -6 -17 33 -40 51 -66 51 -27 0 -29 8 -13 43 9 19 7 31 -5 55 -25
49 -20 54 24 22z m2674 14 c18 -7 22 -34 6 -34 -6 0 -16 -11 -22 -25 -7 -15
-19 -25 -33 -25 -11 0 -26 -5 -33 -12 -16 -16 -28 -2 -13 16 7 8 10 20 6 26
-3 5 4 14 17 19 13 5 30 16 37 25 15 18 14 18 35 10z m-1834 -35 c0 -24 -23
-21 -28 4 -2 10 3 17 12 17 10 0 16 -9 16 -21z m221 -29 c34 0 34 -1 13 -41
-12 -24 -13 -37 -5 -60 11 -31 9 -32 -27 -29 -13 1 -35 -8 -48 -21 l-24 -22 0
36 c0 27 -7 41 -27 57 -27 21 -27 22 -8 36 38 26 45 35 45 58 0 35 13 40 33
12 13 -18 28 -26 48 -26z m282 34 c12 -5 16 -12 11 -23 -3 -9 -9 -26 -12 -39
-3 -14 -10 -21 -18 -18 -7 3 -16 1 -19 -4 -4 -6 -11 -10 -16 -10 -6 0 -8 4 -4
10 3 5 0 19 -7 30 -11 18 -10 23 5 31 9 6 17 17 17 25 0 9 5 13 13 10 6 -3 20
-9 30 -12z m-1960 -41 c12 -15 23 -35 24 -46 3 -15 -1 -17 -19 -12 -21 7 -67
52 -68 67 0 3 8 9 18 11 9 3 19 5 21 6 2 0 13 -11 24 -26z m950 -17 c14 -21
14 -25 0 -38 -14 -14 -17 -14 -33 2 -15 15 -18 33 -11 58 4 11 32 -3 44 -22z
m1168 -28 c13 -30 18 -33 52 -30 20 2 37 0 37 -3 0 -4 -13 -22 -29 -41 -25
-28 -29 -39 -24 -70 l6 -37 -36 6 c-30 5 -43 1 -67 -20 l-30 -25 0 46 c0 35
-4 48 -20 56 -29 15 -25 25 18 47 27 15 41 30 52 61 8 23 17 42 20 42 4 0 13
-15 21 -32z m819 6 c0 -8 9 -14 22 -14 21 0 21 0 -4 -27 -14 -16 -28 -37 -30
-48 -3 -14 -11 -19 -27 -17 -13 1 -32 -5 -41 -13 -16 -14 -17 -12 -16 29 1 36
5 47 23 55 12 6 29 22 39 35 17 26 34 26 34 0z m-1146 -33 c9 -14 -4 -41 -19
-41 -21 0 -28 19 -15 35 14 17 26 19 34 6z m-604 -41 c0 -11 -7 -20 -15 -20
-8 0 -15 9 -15 20 0 11 7 20 15 20 8 0 15 -9 15 -20z m111 -30 c19 -11 28 -70
10 -70 -5 0 -16 -3 -25 -6 -10 -4 -16 -1 -16 9 0 8 -7 18 -15 21 -14 5 -14 8
1 31 19 29 19 29 45 15z m1925 -16 c-3 -9 -6 -18 -6 -20 0 -2 -7 -4 -15 -4
-18 0 -19 12 -3 28 17 17 31 15 24 -4z m-908 -6 c16 -16 15 -23 -4 -42 -34
-35 -58 -9 -32 34 15 23 20 24 36 8z m-1989 -54 c12 -20 34 -40 51 -45 33 -12
38 -24 14 -33 -11 -4 -14 -13 -10 -31 7 -28 0 -31 -28 -10 -11 8 -32 15 -48
15 -23 0 -28 4 -28 25 0 14 -11 37 -25 51 -31 31 -31 38 0 30 18 -5 27 -1 35
14 6 11 12 20 14 20 2 0 13 -16 25 -36z m711 -9 c7 -8 21 -15 31 -15 13 0 19
-7 19 -22 0 -13 3 -33 6 -46 5 -18 3 -21 -10 -16 -9 3 -23 1 -31 -6 -12 -10
-16 -9 -21 6 -4 11 -16 27 -28 37 -20 16 -20 18 -3 28 12 7 16 17 12 30 -8 23
7 25 25 4z m-855 -15 c21 -23 12 -39 -13 -24 -19 12 -29 44 -14 44 5 0 17 -9
27 -20z m505 4 c0 -9 -5 -14 -12 -12 -18 6 -21 28 -4 28 9 0 16 -7 16 -16z
m1114 -40 c23 -9 21 -54 -3 -54 -29 0 -46 26 -29 44 16 18 13 17 32 10z
m-1706 -24 c21 -17 39 -60 25 -60 -11 0 -61 31 -73 45 -12 14 -12 18 1 26 19
12 17 12 47 -11z m2452 5 c0 -8 -7 -15 -15 -15 -8 0 -15 7 -15 15 0 8 7 15 15
15 8 0 15 -7 15 -15z m177 -25 l27 0 -26 -27 c-14 -16 -28 -37 -30 -48 -2 -14
-11 -20 -29 -20 -13 0 -37 -8 -53 -18 l-28 -19 7 32 c4 19 2 36 -5 45 -9 11
-5 17 23 29 20 8 43 26 53 41 17 27 18 27 26 6 5 -14 16 -21 35 -21z m250 19
c4 -21 -18 -45 -49 -52 -23 -6 -25 -5 -20 15 6 25 42 59 57 54 6 -1 11 -9 12
-17z m-1337 -25 c11 -12 11 -18 -2 -31 -19 -18 -38 -10 -38 16 0 33 20 40 40
15z m-1102 -30 c-10 -10 -28 6 -28 24 0 15 1 15 17 -1 9 -9 14 -19 11 -23z
m862 16 c0 -23 -25 -27 -33 -6 -7 16 1 26 20 26 7 0 13 -9 13 -20z m1690 -20
c0 -16 7 -20 33 -20 l32 0 -37 -33 c-21 -17 -42 -44 -47 -59 -9 -24 -14 -27
-41 -22 -19 4 -38 1 -55 -10 -37 -24 -46 -19 -27 15 13 24 14 33 5 36 -23 8
-14 22 30 41 23 11 53 31 66 46 29 31 41 33 41 6z m-1105 1 c5 -10 -21 -41
-35 -41 -4 0 -10 6 -13 14 -10 25 33 50 48 27z m-2120 -37 c31 -27 28 -28 -17
-5 -16 8 -28 18 -28 23 0 14 14 8 45 -18z m2925 12 c0 -14 -29 -31 -38 -21 -6
6 18 35 29 35 5 0 9 -6 9 -14z m-530 -20 c0 -17 -27 -29 -35 -16 -4 6 -3 15 0
20 9 15 35 12 35 -4z m-2425 -26 c3 -5 1 -10 -4 -10 -6 0 -11 5 -11 10 0 6 2
10 4 10 3 0 8 -4 11 -10z m1959 -5 c3 -9 12 -12 21 -9 13 5 15 1 9 -22 -9 -39
-14 -45 -25 -38 -5 3 -16 1 -23 -5 -10 -9 -17 -6 -30 13 -15 24 -15 26 4 36
11 6 20 17 20 25 0 19 16 19 24 0z m544 3 c15 -20 -3 -55 -32 -60 -20 -4 -26
-1 -26 13 0 18 27 56 41 58 4 1 11 -5 17 -11z m-2289 -17 c7 -5 10 -14 6 -20
-5 -9 -10 -9 -21 0 -26 22 -14 38 15 20z m813 -6 c0 -5 -5 -11 -11 -13 -6 -2
-11 4 -11 13 0 9 5 15 11 13 6 -2 11 -8 11 -13z m181 -15 c22 0 26 -4 25 -27
-1 -16 2 -37 7 -47 7 -16 5 -18 -13 -14 -12 4 -26 0 -33 -8 -17 -20 -26 -17
-33 10 -3 14 -15 28 -26 31 -24 8 -26 23 -5 31 8 4 15 18 15 32 0 24 1 24 18
9 10 -10 30 -17 45 -17z m237 -5 c0 -27 -30 -38 -48 -19 -15 16 -15 27 -1 41
17 17 49 3 49 -22z m1944 26 c8 -13 -30 -43 -50 -39 -16 3 -16 6 6 26 26 24
36 27 44 13z m-2847 -25 c4 -7 18 -19 31 -25 18 -10 21 -15 12 -26 -7 -8 -9
-19 -5 -25 3 -5 2 -10 -4 -10 -5 0 -13 5 -16 10 -3 6 -17 10 -31 10 -17 0 -24
6 -24 19 0 10 -7 25 -16 32 -15 12 -14 14 7 20 36 10 37 10 46 -5z m-397 -2
c0 -3 -7 -12 -15 -21 -20 -19 -32 -10 -14 11 14 15 29 21 29 10z m1437 -34
c18 -14 33 -18 51 -13 22 5 24 4 17 -13 -5 -10 -9 -34 -9 -51 0 -29 -3 -33
-27 -33 -14 0 -32 -7 -39 -15 -18 -22 -30 -18 -30 10 0 17 -8 29 -25 37 -14 6
-25 14 -25 18 0 4 11 12 25 18 17 8 25 20 25 37 0 30 4 31 37 5z m663 10 c0
-5 7 -10 16 -10 11 0 14 -5 9 -17 -4 -10 -8 -24 -8 -30 0 -7 -8 -13 -18 -13
-9 0 -23 -2 -31 -5 -7 -3 -17 5 -23 17 -8 18 -6 27 10 44 21 23 45 31 45 14z
m-920 -35 c0 -8 -7 -15 -15 -15 -8 0 -15 7 -15 15 0 8 7 15 15 15 8 0 15 -7
15 -15z m-491 -8 c6 -8 8 -17 4 -20 -7 -8 -33 11 -33 24 0 13 16 11 29 -4z
m2071 4 c0 -25 -14 -41 -36 -41 -28 0 -30 7 -7 32 17 19 43 24 43 9z m-2823
-33 c-3 -8 -6 -5 -6 6 -1 11 2 17 5 13 3 -3 4 -12 1 -19z m295 5 c24 -21 23
-43 -1 -43 -26 0 -56 41 -38 52 17 11 18 10 39 -9z m573 -29 c15 -23 15 -24
-9 -24 -28 0 -49 21 -40 43 7 20 28 12 49 -19z m1565 11 c0 -8 -7 -15 -15 -15
-8 0 -15 7 -15 15 0 8 7 15 15 15 8 0 15 -7 15 -15z m220 7 c0 -12 -23 -32
-37 -32 -17 0 -17 27 0 33 19 8 37 8 37 -1z m-955 -22 c0 -8 -10 -16 -22 -18
-22 -3 -32 16 -16 32 12 11 38 2 38 -14z m-1175 0 c0 -5 -2 -10 -4 -10 -3 0
-8 5 -11 10 -3 6 -1 10 4 10 6 0 11 -4 11 -10z m2418 -2 c-6 -17 -36 -34 -45
-24 -4 4 1 14 11 22 24 17 39 18 34 2z m-2978 -8 c0 -5 -2 -10 -4 -10 -3 0 -8
5 -11 10 -3 6 -1 10 4 10 6 0 11 -4 11 -10z m291 -17 c6 -16 16 -36 21 -47 9
-16 7 -18 -16 -14 -14 3 -28 0 -31 -6 -3 -6 -4 4 -2 21 2 18 -1 34 -7 36 -12
4 0 37 14 37 6 0 15 -12 21 -27z m157 0 c6 -19 -25 -16 -32 3 -4 11 -1 14 11
12 9 -2 18 -9 21 -15z m263 -9 c8 -3 24 -19 34 -36 17 -30 17 -31 0 -24 -10 4
-21 2 -25 -5 -12 -18 -59 36 -53 61 3 11 11 18 17 15 6 -3 18 -8 27 -11z
m-531 -9 c0 -16 -17 -19 -46 -8 -16 6 -16 7 2 14 30 12 44 10 44 -6z m-173
-17 c-3 -8 -6 -5 -6 6 -1 11 2 17 5 13 3 -3 4 -12 1 -19z m2784 -1 c16 -12 16
-14 0 -33 -9 -12 -29 -23 -44 -26 -23 -4 -27 -2 -27 18 0 15 6 24 15 24 9 0
18 7 21 15 7 18 14 18 35 2z m-1441 -17 c0 -21 -16 -26 -39 -11 -18 11 -5 31
20 31 12 0 19 -7 19 -20z m597 -6 c-9 -9 -28 6 -21 18 4 6 10 6 17 -1 6 -6 8
-13 4 -17z m-1547 -16 c0 -4 -5 -10 -11 -13 -11 -8 -40 25 -33 37 5 8 44 -13
44 -24z m1675 22 c3 -5 15 -10 26 -10 20 0 26 -15 9 -25 -5 -3 -10 -16 -10
-28 0 -19 -6 -22 -40 -24 -33 -1 -40 2 -40 18 0 10 -4 19 -10 19 -5 0 -10 5
-10 10 0 6 7 10 15 10 8 0 20 9 27 20 14 22 24 25 33 10z m235 -3 c0 -17 -20
-37 -37 -37 -17 0 -17 37 0 43 22 10 37 7 37 -6z m-2190 -1 c0 -3 -4 -8 -10
-11 -5 -3 -10 -1 -10 4 0 6 5 11 10 11 6 0 10 -2 10 -4z m57 -18 c-3 -8 -6 -5
-6 6 -1 11 2 17 5 13 3 -3 4 -12 1 -19z m831 -6 c2 -7 -3 -12 -12 -12 -9 0
-16 7 -16 16 0 17 22 14 28 -4z m197 0 c0 -18 -20 -15 -23 4 -3 10 1 15 10 12
7 -3 13 -10 13 -16z m1253 -24 l27 4 -22 -24 c-11 -12 -23 -32 -25 -43 -2 -14
-10 -19 -26 -17 -13 2 -34 -4 -48 -12 -24 -17 -28 -14 -25 16 1 9 -3 19 -9 23
-17 11 -11 23 15 29 14 4 32 18 42 32 16 25 17 25 30 8 9 -13 23 -18 41 -16z
m-2008 5 c14 -10 32 -23 40 -30 8 -7 46 -34 84 -60 66 -46 91 -73 67 -73 -6 0
-19 9 -28 20 -10 11 -22 20 -28 20 -6 0 -27 14 -45 30 -18 17 -37 30 -40 30
-4 0 -19 12 -34 27 -29 29 -42 24 -48 -17 l-3 -25 -13 22 c-8 15 -9 29 -2 47
11 31 17 32 50 9z m1045 -3 c0 -22 -29 -18 -33 3 -3 14 1 18 15 15 10 -2 18
-10 18 -18z m685 -9 c0 -5 -7 -11 -15 -15 -9 -3 -15 0 -15 9 0 8 7 15 15 15 8
0 15 -4 15 -9z m-442 -13 c-6 -18 -28 -21 -28 -4 0 9 7 16 16 16 9 0 14 -5 12
-12z m-355 -49 c6 -24 -32 -33 -54 -13 -16 14 -16 17 -2 34 13 15 20 16 34 7
10 -6 20 -19 22 -28z m437 10 c0 -14 -7 -19 -25 -19 -26 0 -33 18 -14 37 16
16 39 5 39 -18z m-1670 11 c0 -5 -2 -10 -4 -10 -3 0 -8 5 -11 10 -3 6 -1 10 4
10 6 0 11 -4 11 -10z m190 -5 c17 -2 42 -24 36 -34 -8 -12 -56 -15 -56 -3 0 4
-3 18 -7 31 -5 19 -3 22 8 15 8 -5 16 -9 19 -9z m240 5 c0 -5 -4 -10 -10 -10
-5 0 -10 5 -10 10 0 6 5 10 10 10 6 0 10 -4 10 -10z m358 -24 c3 -13 -2 -17
-20 -14 -15 2 -24 11 -26 25 -3 20 0 22 20 14 13 -4 25 -16 26 -25z m-233 14
c3 -5 17 -10 31 -10 17 0 24 -5 24 -19 0 -11 5 -23 12 -27 8 -5 2 -11 -17 -16
-20 -5 -34 -3 -45 6 -8 7 -23 16 -32 19 -14 5 -15 10 -5 31 13 28 22 32 32 16z
m1855 0 c0 -12 -28 -25 -36 -17 -9 9 6 27 22 27 8 0 14 -5 14 -10z m-2110 -22
c0 -7 -4 -19 -9 -27 -11 -17 -23 1 -15 23 7 19 24 21 24 4z m650 -28 c16 0 20
-4 15 -19 -3 -11 -1 -22 5 -26 16 -10 12 -28 -5 -21 -9 3 -25 0 -35 -7 -17
-10 -22 -8 -35 11 -9 12 -23 22 -31 22 -19 0 -18 19 1 26 8 4 15 15 15 26 0
19 1 19 25 4 13 -9 34 -16 45 -16z m531 20 c5 0 9 -11 9 -25 0 -14 -4 -25 -9
-25 -5 0 -15 -2 -23 -5 -20 -8 -42 33 -27 51 7 8 19 12 26 9 8 -3 19 -5 24 -5z
m-791 -20 c0 -5 -7 -10 -15 -10 -8 0 -15 5 -15 10 0 6 7 10 15 10 8 0 15 -4
15 -10z m-378 -55 c-16 -59 -27 -63 -27 -12 -1 19 7 39 19 50 10 9 20 17 21
17 1 0 -5 -25 -13 -55z m1718 41 c0 -18 -27 -29 -36 -14 -4 5 0 14 7 19 20 13
29 11 29 -5z m-1795 -16 c-10 -11 -20 -18 -23 -15 -7 6 18 35 31 35 5 0 2 -9
-8 -20z m-204 -32 c120 -73 163 -98 206 -118 23 -12 40 -26 38 -33 -7 -20
-124 -503 -141 -580 -9 -40 -17 -79 -20 -87 -2 -8 -9 -36 -16 -62 -6 -27 -15
-48 -20 -48 -11 0 0 60 14 78 6 6 8 12 5 12 -4 0 -1 17 19 95 2 11 9 42 14 68
5 27 12 52 15 57 3 5 6 26 7 47 0 21 4 43 8 48 4 6 11 30 15 55 3 25 9 58 11
75 3 16 10 32 15 36 6 3 7 18 3 34 -5 20 -4 26 5 21 7 -5 11 2 11 21 0 15 3
37 6 49 3 12 -1 27 -9 35 -18 19 -10 39 16 39 17 0 13 4 -16 20 -20 11 -46 29
-57 40 -11 11 -24 20 -29 20 -5 0 -37 18 -71 41 -34 22 -64 38 -67 36 -5 -5
-43 29 -43 38 0 10 11 4 81 -37z m1859 28 c0 -8 -4 -17 -9 -21 -12 -7 -24 12
-16 25 9 15 25 12 25 -4z m-802 -19 c2 -10 -3 -17 -12 -17 -10 0 -16 9 -16 21
0 24 23 21 28 -4z m622 13 c0 -5 -4 -10 -10 -10 -5 0 -10 5 -10 10 0 6 5 10
10 10 6 0 10 -4 10 -10z m435 -10 c3 -6 -1 -13 -10 -16 -19 -8 -30 0 -20 15 8
14 22 14 30 1z m-1571 -36 c26 -20 53 -34 60 -31 18 7 40 -8 32 -22 -11 -17
-40 -13 -64 9 -12 11 -24 20 -27 20 -10 0 -65 44 -65 52 0 15 17 8 64 -28z
m-554 -4 c8 -5 11 -10 5 -10 -5 0 -17 5 -25 10 -8 5 -10 10 -5 10 6 0 17 -5
25 -10z m758 -18 c3 -9 -2 -13 -14 -10 -9 1 -19 9 -22 16 -3 9 2 13 14 10 9
-1 19 -9 22 -16z m507 8 c3 -5 1 -10 -4 -10 -6 0 -11 5 -11 10 0 6 2 10 4 10
3 0 8 -4 11 -10z m730 -22 c1 -21 -2 -25 -12 -17 -6 6 -17 8 -24 4 -19 -12
-29 17 -11 32 26 20 47 11 47 -19z m-592 5 c10 -3 17 -15 17 -30 0 -17 -4 -23
-13 -20 -8 3 -20 1 -28 -3 -9 -6 -20 -2 -33 12 -14 15 -16 23 -8 26 7 2 12 11
12 19 0 10 5 13 18 8 9 -4 25 -10 35 -12z m177 3 c0 -20 -19 -31 -32 -18 -6 6
-7 15 -4 21 10 16 36 13 36 -3z m-682 -34 c2 -7 -3 -12 -12 -12 -9 0 -16 7
-16 16 0 17 22 14 28 -4z m818 5 c18 1 19 -2 10 -33 -9 -27 -15 -32 -32 -28
-12 3 -25 1 -28 -5 -9 -14 -26 -14 -26 0 0 7 -8 18 -17 25 -17 12 -17 13 2 20
11 4 24 14 28 21 6 9 15 12 25 7 10 -4 26 -7 38 -7z m-236 -7 c0 -5 -4 -10
-10 -10 -5 0 -10 5 -10 10 0 6 5 10 10 10 6 0 10 -4 10 -10z m-370 -10 c0 -5
-7 -10 -15 -10 -8 0 -15 5 -15 10 0 6 7 10 15 10 8 0 15 -4 15 -10z m-511 -54
c14 -55 14 -86 1 -86 -5 0 -10 9 -10 20 0 23 -25 27 -34 5 -6 -17 -26 -20 -26
-4 0 17 42 109 50 109 4 0 13 -20 19 -44z m101 24 c14 -11 66 -51 117 -90 104
-79 109 -85 93 -105 -16 -19 -24 -13 -44 29 -10 21 -37 48 -66 67 -28 18 -50
36 -50 41 0 4 -6 8 -13 8 -7 0 -30 16 -50 35 -39 37 -29 48 13 15z m105 3 c16
-15 16 -17 0 -25 -18 -11 -45 6 -45 28 0 19 25 18 45 -3z m381 6 c7 -12 -15
-31 -28 -23 -4 3 -8 12 -8 20 0 17 26 19 36 3z m644 -8 c0 -14 -18 -23 -30
-16 -6 4 -8 11 -5 16 8 12 35 12 35 0z m-809 -21 c27 -15 25 -42 -3 -38 -15 2
-24 11 -26 26 -4 25 1 27 29 12z m494 -30 c3 -5 -3 -10 -14 -10 -12 0 -21 5
-21 10 0 6 6 10 14 10 8 0 18 -4 21 -10z m265 0 c0 -5 -5 -10 -11 -10 -5 0 -7
5 -4 10 3 6 8 10 11 10 2 0 4 -4 4 -10z m-539 -23 c-13 -13 -26 -3 -16 12 3 6
11 8 17 5 6 -4 6 -10 -1 -17z m164 14 c7 -12 -12 -24 -25 -16 -11 7 -4 25 10
25 5 0 11 -4 15 -9z m225 -21 c0 -5 -6 -10 -14 -10 -8 0 -18 5 -21 10 -3 6 3
10 14 10 12 0 21 -4 21 -10z m-116 -26 c25 -10 19 -34 -9 -34 -24 0 -34 18
-18 33 8 8 8 8 27 1z m-498 -14 c23 0 16 -37 -8 -43 -30 -8 -63 20 -46 40 6 8
18 11 25 8 8 -3 21 -5 29 -5z m145 -5 c-1 -15 -24 -12 -29 3 -3 9 2 13 12 10
10 -1 17 -7 17 -13z m-1166 -22 c3 -16 18 -38 33 -50 l27 -23 -27 -20 c-18
-14 -24 -26 -21 -40 7 -27 -18 -26 -43 1 -13 14 -27 19 -47 16 -35 -5 -43 8
-26 39 11 21 10 29 -4 53 -21 35 -14 42 26 29 26 -10 33 -9 41 5 16 25 33 21
41 -10z m1270 6 c4 -6 13 -8 20 -5 8 3 15 -5 17 -19 4 -19 0 -24 -26 -29 -18
-4 -32 -2 -34 4 -2 5 -10 10 -18 10 -18 0 -18 6 4 29 20 23 28 25 37 10z
m1702 -5 c6 -17 -20 -44 -43 -44 -18 0 -26 30 -13 46 16 19 48 18 56 -2z
m-1877 -4 c0 -5 -4 -10 -10 -10 -5 0 -10 5 -10 10 0 6 5 10 10 10 6 0 10 -4
10 -10z m-479 -78 c3 -4 9 -31 12 -60 l6 -54 -42 34 c-23 19 -62 42 -87 53
-25 10 -46 20 -48 21 -2 1 6 20 17 42 l21 41 57 -35 c31 -19 60 -38 64 -42z
m232 42 c-2 -6 0 -15 6 -19 14 -8 14 -45 1 -45 -6 0 -8 -11 -4 -27 l6 -28 -24
29 c-14 16 -23 38 -22 50 1 12 3 33 3 49 1 24 3 26 20 15 10 -6 17 -17 14 -24z
m782 7 c-3 -6 -11 -11 -17 -11 -6 0 -6 6 2 15 14 17 26 13 15 -4z m-225 -6 c0
-8 -4 -15 -9 -15 -13 0 -22 16 -14 24 11 11 23 6 23 -9z m-430 -26 c0 -5 -4
-9 -10 -9 -5 0 -10 -7 -10 -16 0 -12 4 -14 13 -7 6 6 27 13 45 16 24 5 32 3
32 -8 0 -8 -7 -15 -16 -15 -9 0 -12 -5 -8 -12 4 -7 3 -8 -5 -4 -17 11 -51 -3
-51 -22 -1 -18 -23 -52 -34 -52 -10 0 -7 98 4 105 6 3 10 15 10 25 0 13 5 17
15 14 8 -4 15 -10 15 -15z m-790 2 c0 -5 -7 -12 -16 -15 -14 -5 -15 -4 -4 9
14 17 20 19 20 6z m2448 -18 c-3 -32 -32 -43 -42 -17 -7 19 10 44 31 44 10 0
13 -9 11 -27z m-1493 7 c-3 -5 -10 -10 -16 -10 -5 0 -9 5 -9 10 0 6 7 10 16
10 8 0 12 -4 9 -10z m105 -20 c0 -5 -4 -10 -10 -10 -5 0 -10 5 -10 10 0 6 5
10 10 10 6 0 10 -4 10 -10z m-75 -29 c3 -5 1 -13 -5 -16 -15 -9 -43 3 -35 15
8 13 32 13 40 1z m-73 -24 c26 -22 26 -23 16 -84 -7 -38 -15 -60 -22 -57 -14
5 -19 64 -6 64 6 0 10 13 10 29 0 24 -3 28 -20 24 -16 -4 -20 0 -20 21 0 32 7
32 42 3z m1767 -6 c24 -26 33 -29 69 -24 23 3 42 3 42 0 0 -3 -9 -21 -20 -40
-21 -36 -20 -76 3 -105 16 -20 2 -24 -43 -12 -40 11 -44 10 -69 -14 -39 -38
-51 -33 -51 19 0 41 -4 48 -30 63 -38 22 -38 30 5 48 24 10 36 22 41 42 14 63
15 64 53 23z m-1854 9 c-3 -5 -10 -10 -16 -10 -5 0 -9 5 -9 10 0 6 7 10 16 10
8 0 12 -4 9 -10z m23 -67 l-1 -48 -14 33 c-14 33 -28 41 -36 20 -3 -7 -6 -4
-6 8 -1 26 7 34 36 34 21 0 23 -4 21 -47z m1356 32 c3 -8 17 -15 32 -15 21 0
25 -3 18 -17 -4 -10 -7 -33 -7 -51 2 -31 -1 -33 -22 -28 -14 4 -27 0 -35 -9
-18 -21 -30 -19 -30 7 0 12 -8 30 -17 40 -16 18 -15 19 5 34 12 8 22 24 22 35
0 22 25 26 34 4z m-707 -27 c-3 -8 -6 -5 -6 6 -1 11 2 17 5 13 3 -3 4 -12 1
-19z m-863 6 c20 -8 21 -24 2 -24 -8 0 -17 -8 -19 -17 -3 -10 -5 -3 -6 15 -1
34 -1 35 23 26z m1394 -30 c-4 -23 -34 -30 -41 -10 -8 20 22 51 35 38 6 -6 8
-18 6 -28z m-230 -41 c4 -24 -26 -40 -34 -18 -8 21 3 47 19 43 6 -3 13 -14 15
-25z m-1191 -15 c-3 -8 -6 -5 -6 6 -1 11 2 17 5 13 3 -3 4 -12 1 -19z m2446
-2 c11 12 29 -7 18 -20 -6 -7 -8 -21 -5 -33 5 -17 0 -21 -28 -26 -18 -2 -35 0
-36 4 -2 5 -10 16 -18 23 -18 19 -18 20 8 49 20 23 25 24 39 11 8 -8 18 -11
22 -8z m-2427 -66 c23 0 16 -33 -13 -60 l-26 -25 7 25 c5 14 8 43 8 65 0 22 2
30 5 18 2 -13 11 -23 19 -23z m1322 15 c9 -19 19 -25 42 -25 35 0 36 -6 11
-39 -15 -19 -17 -31 -10 -55 13 -46 12 -48 -22 -41 -24 5 -36 2 -55 -16 l-24
-22 0 40 c0 27 -6 46 -20 58 -26 24 -25 33 5 47 14 6 29 25 35 44 14 40 23 43
38 9z m-1158 -125 c0 -11 -7 -20 -15 -20 -8 0 -15 9 -15 20 0 11 7 20 15 20 8
0 15 -9 15 -20z m1403 -40 c-7 -31 -4 -27 -28 -32 -11 -1 -20 2 -20 7 0 6 -4
16 -9 23 -5 8 -2 20 9 32 24 27 57 7 48 -30z m-1023 30 c0 -5 7 -10 15 -10 17
0 20 -16 5 -25 -6 -4 -8 -15 -5 -26 4 -13 2 -19 -9 -19 -8 0 -22 -3 -32 -7
-13 -5 -16 -3 -12 9 4 9 2 20 -4 26 -7 7 -4 18 8 36 20 26 34 33 34 16z
m-1325 -25 c0 -13 -8 -21 -22 -23 -19 -3 -23 1 -23 23 0 22 4 26 23 23 14 -2
22 -10 22 -23z m1228 0 c-6 -16 -16 -19 -26 -8 -9 8 13 34 24 28 4 -3 6 -12 2
-20z m-343 -31 c0 -14 7 -27 15 -30 17 -7 20 -40 5 -49 -5 -3 -10 -19 -10 -36
0 -32 -11 -37 -30 -15 -6 8 -18 12 -26 9 -11 -4 -14 4 -14 33 0 22 -3 49 -6
62 -5 16 -2 22 9 22 9 0 21 9 27 20 14 26 30 17 30 -16z m210 11 c0 -8 -7 -15
-15 -15 -16 0 -20 12 -8 23 11 12 23 8 23 -8z m1624 0 c3 -9 18 -15 37 -15 26
0 30 -3 23 -17 -4 -10 -8 -35 -8 -56 0 -35 -2 -38 -24 -32 -14 3 -34 0 -48
-10 -23 -15 -24 -15 -24 15 0 19 -7 34 -20 42 -27 17 -25 27 5 38 15 6 25 17
25 30 0 23 25 27 34 5z m-1677 -15 c7 -11 10 -32 7 -49 -6 -27 -8 -29 -30 -19
-37 17 -33 81 6 87 3 1 11 -8 17 -19z m1977 -15 c3 -8 17 -15 31 -15 25 0 35
-23 15 -35 -5 -3 -7 -18 -4 -33 5 -26 4 -27 -37 -27 -34 0 -43 4 -45 19 -1 11
-10 23 -18 28 -22 12 -20 25 3 33 11 3 23 15 26 26 8 23 21 25 29 4z m-486
-18 c4 -20 -25 -34 -40 -19 -15 15 -1 44 19 40 10 -2 19 -11 21 -21z m-1358
-12 c0 -7 8 -18 17 -24 15 -8 15 -13 5 -36 -7 -14 -12 -37 -12 -50 0 -18 -4
-23 -15 -19 -8 4 -23 0 -32 -7 -15 -13 -16 -11 -11 15 3 16 1 38 -6 48 -9 15
-8 22 5 31 9 7 19 22 23 35 8 25 26 30 26 7z m820 -65 c0 -6 12 -15 27 -21 20
-7 23 -13 15 -21 -7 -7 -12 -26 -12 -42 0 -28 -3 -31 -36 -33 -29 -1 -34 1
-30 14 4 9 -1 24 -11 35 -16 18 -15 19 5 34 12 8 22 22 22 30 0 8 5 14 10 14
6 0 10 -5 10 -10z m-1893 -57 c-3 -10 -5 -2 -5 17 0 19 2 27 5 18 2 -10 2 -26
0 -35z m-76 4 c-8 -8 -11 -7 -11 4 0 20 13 34 18 19 3 -7 -1 -17 -7 -23z m653
-9 c-4 -18 -11 -51 -15 -73 -4 -28 -7 -32 -8 -14 -2 44 11 119 21 119 6 0 6
-13 2 -32z m1533 14 c17 -14 20 -23 15 -52 -6 -29 -12 -35 -34 -37 -21 -1 -28
3 -28 16 0 9 -6 23 -12 30 -11 10 -10 15 5 25 9 7 17 18 17 25 0 15 11 14 37
-7z m-919 -28 c-4 -23 -26 -30 -34 -10 -8 20 15 51 29 37 5 -5 7 -17 5 -27z
m-300 -11 c-4 -39 -28 -42 -28 -4 0 21 5 31 16 31 11 0 14 -8 12 -27z m-979
-20 c-15 -56 -20 -63 -13 -18 6 39 11 55 19 55 2 0 -1 -17 -6 -37z m761 12 c0
-7 5 -15 11 -17 12 -4 -1 -70 -14 -69 -4 1 -17 1 -29 1 -20 0 -23 6 -25 44 -1
33 2 43 11 40 8 -3 16 2 20 11 7 18 26 11 26 -10z m1648 -18 c3 -21 -1 -27
-16 -27 -30 0 -48 26 -32 45 19 23 45 14 48 -18z m-2337 -37 c-7 -36 -9 -39
-10 -15 -1 33 11 85 16 70 1 -6 -1 -30 -6 -55z m1292 13 c-3 -7 -9 -13 -14
-13 -11 0 -12 34 -2 43 9 10 22 -13 16 -30z m-278 -81 c-5 -25 -31 -50 -40
-40 -10 10 -7 57 5 75 12 19 17 21 28 9 9 -9 12 -24 7 -44z m-199 20 c13 -21
0 -66 -18 -60 -17 6 -27 50 -15 66 13 16 20 15 33 -6z m303 -16 c13 -15 -1
-66 -18 -66 -14 0 -23 36 -16 60 7 23 18 25 34 6z m210 -24 c0 -24 -1 -25 -9
-7 -12 28 -12 47 0 40 6 -3 10 -18 9 -33z m-1344 -22 c-4 -17 -9 -29 -12 -26
-3 2 -2 19 2 36 4 17 9 29 12 26 3 -2 2 -19 -2 -36z m2122 8 c-3 -8 -6 -5 -6
6 -1 11 2 17 5 13 3 -3 4 -12 1 -19z m-880 -4 c8 -21 -13 -42 -28 -27 -13 13
-5 43 11 43 6 0 13 -7 17 -16z m1173 -29 c17 -27 28 -35 50 -35 40 0 45 -15
19 -51 -20 -29 -21 -33 -6 -69 8 -21 13 -41 10 -44 -3 -3 -19 2 -36 11 -28 14
-33 14 -58 -1 -38 -22 -39 -21 -39 26 0 32 -7 49 -27 71 -16 16 -23 31 -18 33
38 15 60 32 63 49 4 28 11 45 16 45 2 0 14 -16 26 -35z m350 20 c7 -8 21 -15
31 -15 20 0 27 -34 9 -45 -7 -4 -7 -13 0 -26 15 -27 4 -42 -22 -28 -14 8 -23
8 -31 0 -17 -17 -27 -13 -27 13 0 13 -7 29 -15 36 -19 16 -19 40 -1 40 8 0 18
9 21 20 8 24 18 25 35 5z m-1840 -26 c0 -20 -15 -26 -25 -9 -9 15 3 43 15 35
5 -3 10 -15 10 -26z m420 -11 c-1 -28 -2 -30 -11 -15 -6 10 -8 25 -5 33 9 24
16 16 16 -18z m819 9 c6 -8 8 -17 4 -20 -7 -8 -33 11 -33 24 0 13 16 11 29 -4z
m-2278 -20 c-10 -9 -11 -8 -5 6 3 10 9 15 12 12 3 -3 0 -11 -7 -18z m3139 13
c0 -5 6 -10 14 -10 9 0 14 -11 14 -33 0 -30 -3 -34 -29 -34 -21 0 -29 5 -29
18 0 10 -4 21 -10 24 -6 4 -5 13 3 25 12 21 37 27 37 10z m-3049 -122 c-8 -60
-19 -108 -24 -108 -5 0 -7 15 -3 33 3 17 10 59 15 92 8 56 21 100 26 93 1 -2
-5 -51 -14 -110z m2027 72 c8 0 9 -8 2 -25 -5 -14 -7 -32 -4 -40 4 -9 0 -15
-9 -15 -9 0 -22 -2 -30 -6 -23 -8 -30 62 -10 93 15 22 18 23 28 9 7 -9 17 -16
23 -16z m-2118 11 c0 -5 -7 -24 -16 -42 -11 -25 -14 -27 -10 -9 3 14 6 33 6
43 0 9 5 17 10 17 6 0 10 -4 10 -9z m1457 -38 c-3 -10 -5 -4 -5 12 0 17 2 24
5 18 2 -7 2 -21 0 -30z m843 -4 c0 -11 -4 -17 -10 -14 -5 3 -10 15 -10 26 0
11 5 17 10 14 6 -3 10 -15 10 -26z m-1486 -13 c3 -13 3 -37 0 -54 -5 -22 -10
-28 -24 -25 -26 7 -35 61 -14 85 23 24 31 23 38 -6z m556 0 c0 -8 10 -20 21
-28 18 -12 20 -17 10 -35 -6 -12 -11 -35 -11 -52 0 -31 -13 -41 -25 -20 -5 7
-13 5 -25 -6 -16 -15 -18 -13 -22 42 -4 40 -2 60 7 65 7 4 16 19 19 33 7 26
26 26 26 1z m-320 -10 c0 -2 -7 -7 -16 -10 -8 -3 -12 -2 -9 4 6 10 25 14 25 6z
m89 -20 c5 -6 12 -26 16 -43 9 -45 -12 -43 -31 3 -17 40 -37 41 -42 1 -2 -15
-8 -27 -14 -27 -12 0 -3 57 12 76 12 13 44 8 59 -10z m321 -27 c0 -16 -4 -28
-9 -25 -8 5 -3 56 5 56 2 0 4 -14 4 -31z m-542 -11 c2 -15 -3 -28 -12 -31 -17
-7 -27 13 -19 42 7 29 27 21 31 -11z m-955 2 c-3 -11 -7 -20 -9 -20 -2 0 -4 9
-4 20 0 11 4 20 9 20 5 0 7 -9 4 -20z m1267 -15 c0 -26 -14 -33 -25 -15 -9 14
1 40 15 40 5 0 10 -11 10 -25z m-1288 -57 c-8 -8 -9 -4 -5 13 4 13 8 18 11 10
2 -7 -1 -18 -6 -23z m2350 -40 c-9 -9 -12 -7 -12 12 0 19 3 21 12 12 9 -9 9
-15 0 -24z m-2365 -20 c-3 -7 -5 -2 -5 12 0 14 2 19 5 13 2 -7 2 -19 0 -25z
m134 -9 c-5 -13 -10 -19 -10 -12 -1 15 10 45 15 40 3 -2 0 -15 -5 -28z m-144
-31 c-3 -8 -6 -5 -6 6 -1 11 2 17 5 13 3 -3 4 -12 1 -19z m2392 -28 c0 -8 -5
-4 -13 10 -7 14 -10 29 -8 34 6 11 20 -20 21 -44z m758 -7 c12 -13 34 -23 48
-23 29 0 31 -10 10 -49 -11 -22 -12 -36 -3 -65 15 -47 6 -53 -32 -26 -29 20
-32 21 -49 6 -29 -26 -41 -19 -41 22 0 29 -7 45 -30 67 -16 16 -30 32 -30 35
0 4 15 11 32 16 21 6 34 17 36 29 7 44 13 51 25 31 7 -11 22 -30 34 -43z
m-1587 31 c0 -2 -7 -4 -15 -4 -8 0 -15 4 -15 10 0 5 7 7 15 4 8 -4 15 -8 15
-10z m-650 -29 c0 -7 7 -16 16 -19 14 -5 14 -8 0 -28 -9 -12 -16 -35 -16 -50
0 -16 -4 -28 -10 -28 -5 0 -10 5 -10 12 0 9 -3 9 -12 0 -20 -20 -29 -14 -26
21 1 18 -2 38 -6 45 -4 7 4 24 21 41 28 29 43 31 43 6z m230 4 c0 -6 -4 -7
-10 -4 -5 3 -10 11 -10 16 0 6 5 7 10 4 6 -3 10 -11 10 -16z m100 6 c0 -8 5
-23 11 -34 7 -11 8 -24 3 -34 -8 -14 -12 -13 -33 4 -13 10 -18 19 -12 19 6 0
11 14 11 30 0 17 5 30 10 30 6 0 10 -7 10 -15z m-190 -75 c-15 -47 -27 -51
-32 -12 -4 33 20 78 35 63 7 -7 6 -23 -3 -51z m1516 20 c11 0 13 -10 8 -42 -4
-24 -7 -44 -8 -45 -1 -1 -13 1 -27 4 -17 3 -32 16 -43 39 -20 42 -20 44 -2 44
7 0 17 10 20 23 l7 22 16 -22 c8 -13 22 -23 29 -23z m-1180 -24 c-3 -14 -13
-26 -20 -26 -19 0 -30 48 -15 66 19 23 44 -6 35 -40z m844 30 c0 -33 -16 -42
-30 -16 -12 23 -6 40 16 40 8 0 14 -10 14 -24z m-1040 2 c0 -5 -17 -8 -37 -8
-21 0 -33 4 -26 8 15 9 63 9 63 0z m285 -18 c8 -13 -4 -50 -16 -50 -5 0 -9 14
-9 30 0 30 13 40 25 20z m895 -6 c0 -2 -9 -4 -20 -4 -11 0 -20 4 -20 9 0 5 9
7 20 4 11 -3 20 -7 20 -9z m70 6 c0 -5 -13 -10 -30 -10 -16 0 -30 5 -30 10 0
6 14 10 30 10 17 0 30 -4 30 -10z m325 -38 c-3 -8 -5 -19 -5 -27 0 -7 -10 -12
-23 -12 -32 0 -52 48 -29 70 13 14 17 14 38 -1 13 -9 21 -23 19 -30z m-1545
-53 c0 -6 -6 -17 -14 -24 -12 -12 -16 -12 -26 0 -16 19 -25 19 -45 -1 -19 -20
-33 -11 -16 10 7 8 29 17 49 19 20 2 40 4 45 5 4 1 7 -3 7 -9z m420 -48 c0 -5
-16 -9 -35 -9 -19 0 -32 4 -29 9 3 5 18 9 35 9 16 0 29 -4 29 -9z m100 -1 c-8
-5 -19 -10 -25 -10 -5 0 -3 5 5 10 8 5 20 10 25 10 6 0 3 -5 -5 -10z m741 -32
c15 -27 6 -32 -15 -9 -21 23 -46 17 -46 -10 0 -10 -4 -19 -10 -19 -17 0 -11
29 10 50 22 22 45 18 61 -12z m-2541 -20 c0 -14 -19 1 -31 25 -12 22 -12 22
10 3 11 -11 21 -23 21 -28z m860 22 c0 -11 -7 -20 -15 -20 -8 0 -15 9 -15 20
0 11 7 20 15 20 8 0 15 -9 15 -20z m1046 -6 c18 -14 31 -31 28 -36 -4 -6 -10
-6 -16 0 -6 6 -17 8 -26 5 -9 -4 -13 -2 -9 4 7 11 -17 36 -43 46 -10 3 -7 6 8
6 13 1 39 -11 58 -25z m-398 -1 c-3 -5 -11 -23 -18 -40 -16 -37 -30 -43 -30
-13 0 11 5 20 10 20 6 0 10 9 10 20 0 12 7 20 16 20 9 0 14 -3 12 -7z m602
-33 c0 -5 -5 -10 -11 -10 -5 0 -7 5 -4 10 3 6 8 10 11 10 2 0 4 -4 4 -10z
m958 -12 c7 -7 12 -22 12 -35 0 -33 -37 -31 -46 1 -10 40 10 58 34 34z m-361
-23 c-4 -8 -11 -15 -17 -15 -7 0 -7 6 0 21 13 23 26 19 17 -6z m-1017 -25 c47
-5 91 -10 98 -10 6 0 12 -8 12 -17 1 -17 2 -17 15 1 7 10 19 15 25 11 7 -4 29
1 50 10 76 34 140 -2 140 -79 0 -44 -26 -112 -46 -120 -11 -4 -9 4 6 34 22 43
25 54 11 46 -5 -3 -11 4 -15 17 -6 24 -66 91 -74 82 -3 -3 2 -13 11 -23 10
-10 14 -22 10 -26 -4 -4 -15 3 -25 16 -14 19 -18 20 -18 6 0 -9 5 -20 10 -23
6 -3 10 -15 10 -26 0 -14 4 -18 13 -13 9 6 9 5 0 -7 -8 -10 -9 -27 -3 -52 4
-21 4 -37 -1 -37 -5 0 -9 11 -9 24 0 14 -4 28 -10 31 -5 3 -10 16 -10 28 -1
20 -51 87 -66 87 -3 0 -2 -10 2 -22 l7 -23 -19 23 c-21 25 -39 28 -184 37
-130 8 -288 30 -270 37 19 8 218 1 330 -12z m-760 -20 c0 -23 -4 -30 -20 -30
-36 0 -25 55 13 59 4 1 7 -12 7 -29z m1878 19 c-2 -6 -8 -10 -13 -10 -5 0 -11
4 -13 10 -2 6 4 11 13 11 9 0 15 -5 13 -11z m-2713 -57 c-7 -7 -25 9 -37 31
-10 20 -9 20 15 -3 14 -14 24 -26 22 -28z m1700 -22 c3 -5 1 -10 -4 -10 -6 0
-11 5 -11 10 0 6 2 10 4 10 3 0 8 -4 11 -10z m-60 -10 c3 -5 1 -10 -4 -10 -6
0 -11 5 -11 10 0 6 2 10 4 10 3 0 8 -4 11 -10z m123 -25 c-3 -3 -9 2 -12 12
-6 14 -5 15 5 6 7 -7 10 -15 7 -18z m932 -1 c0 -14 -4 -23 -10 -19 -5 3 -10
15 -10 26 0 10 5 19 10 19 6 0 10 -12 10 -26z m-1150 -4 c0 -5 -5 -10 -11 -10
-5 0 -7 5 -4 10 3 6 8 10 11 10 2 0 4 -4 4 -10z m140 -33 c0 -16 -18 3 -23 25
-6 22 -5 22 8 4 8 -11 15 -24 15 -29z m-197 19 c4 -10 1 -13 -8 -10 -7 3 -18
-4 -25 -15 -9 -17 -8 -22 5 -27 8 -3 15 -10 15 -15 0 -15 -19 -10 -40 11 -11
11 -15 20 -10 20 6 0 10 7 10 15 0 13 25 34 41 35 4 0 9 -7 12 -14z m1682 -7
c4 -5 18 -14 31 -20 21 -7 23 -12 14 -29 -6 -12 -8 -30 -5 -40 7 -21 -9 -28
-21 -9 -3 6 -15 8 -26 6 -13 -4 -22 1 -28 18 -5 13 -14 26 -19 30 -18 10 -12
30 12 41 30 15 35 16 42 3z m-1790 -9 c-28 -12 -37 -12 -30 0 3 6 16 10 28 9
21 0 21 -1 2 -9z m175 -14 c0 -3 -4 -8 -10 -11 -5 -3 -10 -1 -10 4 0 6 5 11
10 11 6 0 10 -2 10 -4z m-190 -15 c0 -5 10 -12 23 -14 20 -4 20 -4 1 -6 -11 0
-29 6 -40 14 -17 13 -17 14 -1 15 9 0 17 -4 17 -9z m-145 -11 c-3 -5 -11 -10
-16 -10 -6 0 -7 5 -4 10 3 6 11 10 16 10 6 0 7 -4 4 -10z m-80 -20 c3 -5 -1
-10 -9 -10 -9 0 -16 5 -16 10 0 6 4 10 9 10 6 0 13 -4 16 -10z m632 -52 c-2
-13 -4 -5 -4 17 -1 22 1 32 4 23 2 -10 2 -28 0 -40z m81 -47 c-1 -68 -3 -74
-5 -28 -3 35 -8 57 -16 57 -8 0 -6 4 3 11 11 8 12 12 3 16 -18 7 -16 30 2 30
12 0 15 -16 13 -86z m-643 29 c2 -11 2 -20 0 -20 -5 0 -35 56 -35 65 0 14 31
-26 35 -45z m1882 17 c8 -9 -20 -9 -69 -1 -21 4 -36 10 -33 14 5 8 92 -3 102
-13z m-1747 3 c0 -5 -4 -10 -10 -10 -5 0 -10 5 -10 10 0 6 5 10 10 10 6 0 10
-4 10 -10z m-55 -10 c3 -5 1 -10 -4 -10 -6 0 -11 5 -11 10 0 6 2 10 4 10 3 0
8 -4 11 -10z m244 -30 c0 -10 -3 -8 -9 5 -12 27 -12 43 0 25 5 -8 9 -22 9 -30z
m-212 -2 c-3 -8 -6 -5 -6 6 -1 11 2 17 5 13 3 -3 4 -12 1 -19z m-337 2 c0 -5
-2 -10 -4 -10 -3 0 -8 5 -11 10 -3 6 -1 10 4 10 6 0 11 -4 11 -10z m809 -51
c6 -39 5 -59 -4 -72 -12 -17 -14 -16 -23 15 -11 32 -8 90 4 109 10 16 14 5 23
-52z m-399 35 c0 -8 -4 -12 -10 -9 -5 3 -10 10 -10 16 0 5 5 9 10 9 6 0 10 -7
10 -16z m1677 0 c-3 -3 -12 -4 -19 -1 -8 3 -5 6 6 6 11 1 17 -2 13 -5z m-2289
-13 c11 -7 10 -10 -3 -15 -20 -7 -38 1 -30 15 7 11 16 11 33 0z m82 -21 c-14
-26 -13 -30 10 -30 28 0 25 -19 -4 -30 -13 -5 -30 -18 -38 -29 -15 -21 -15
-21 -42 10 -15 16 -25 38 -23 47 3 15 5 14 12 -3 5 -11 17 -28 26 -39 17 -17
18 -17 33 12 8 16 13 32 9 35 -9 10 7 58 17 52 7 -4 6 -13 0 -25z m173 -31
c-8 -8 -16 -3 -27 19 -23 44 -20 49 11 18 19 -19 23 -30 16 -37z m2067 51 c0
-5 -2 -10 -4 -10 -3 0 -8 5 -11 10 -3 6 -1 10 4 10 6 0 11 -4 11 -10z m-2410
-30 c18 -12 2 -12 -25 0 -13 6 -15 9 -5 9 8 0 22 -4 30 -9z m-70 -10 c0 -5 -2
-10 -4 -10 -3 0 -8 5 -11 10 -3 6 -1 10 4 10 6 0 11 -4 11 -10z m687 -22 c-3
-8 -6 -5 -6 6 -1 11 2 17 5 13 3 -3 4 -12 1 -19z m-87 -3 c0 -8 -2 -15 -4 -15
-2 0 -6 7 -10 15 -3 8 -1 15 4 15 6 0 10 -7 10 -15z m995 -5 c-3 -5 -11 -10
-16 -10 -6 0 -7 5 -4 10 3 6 11 10 16 10 6 0 7 -4 4 -10z m-2034 -33 c-8 -8
-11 -7 -11 4 0 20 13 34 18 19 3 -7 -1 -17 -7 -23z m1591 -39 c-7 -7 -12 -8
-12 -2 0 14 12 26 19 19 2 -3 -1 -11 -7 -17z m-1592 -28 c0 -5 -5 -10 -11 -10
-5 0 -7 5 -4 10 3 6 8 10 11 10 2 0 4 -4 4 -10z"/>
<path d="M767 2113 c-4 -3 -7 -11 -7 -17 0 -6 5 -5 12 2 6 6 9 14 7 17 -3 3
-9 2 -12 -2z"/>
<path d="M795 2080 c-3 -5 -1 -10 4 -10 6 0 11 5 11 10 0 6 -2 10 -4 10 -3 0
-8 -4 -11 -10z"/>
<path d="M508 3523 c6 -2 18 -2 25 0 6 3 1 5 -13 5 -14 0 -19 -2 -12 -5z"/>
<path d="M3532 2167 c-11 -13 -11 -20 0 -39 l13 -23 3 23 c2 12 2 30 0 39 -3
15 -4 15 -16 0z"/>
</g>
</svg>
