<?xml version="1.0" standalone="no"?>
<!DOCTYPE svg PUBLIC "-//W3C//DTD SVG 1.0//EN" "http://www.w3.org/TR/2001/REC-SVG-20010904/DTD/svg10.dtd">
<svg xmlns="http://www.w3.org/2000/svg" xmlns:xlink="http://www.w3.org/1999/xlink" id="body_1" width="634" height="634">

<g transform="matrix(0.6673684 0 0 0.6673684 0 0)">
	<g transform="matrix(0.1 0 -0 -0.1 0 950)">
        <path d="M3530 9493C 3528 9395 3517 9234 3510 9200C 3505 9175 3498 9112 3494 9060C 3491 9008 3479 8913 3468 8850C 3457 8787 3446 8713 3444 8685C 3441 8658 3435 8622 3430 8605C 3425 8589 3418 8539 3415 8495C 3411 8451 3400 8345 3389 8260C 3378 8175 3367 8085 3364 8060C 3362 8035 3355 7991 3350 7961C 3344 7931 3340 7888 3340 7866C 3340 7843 3328 7780 3314 7725C 3280 7592 3273 7555 3249 7420C 3228 7296 3206 7195 3189 7141C 3169 7081 3212 7075 3341 7119C 3446 7155 3557 7167 3634 7149L3634 7149L3690 7137L3758 7184C 3795 7210 3837 7240 3852 7252C 3868 7264 3899 7275 3928 7278C 3974 7282 3980 7280 3995 7256C 4011 7233 4011 7223 4001 7172C 3984 7096 3983 6962 3998 6810C 4004 6741 4014 6633 4019 6570C 4025 6507 4035 6437 4043 6415C 4061 6365 4076 6361 4290 6360C 4424 6360 4451 6357 4490 6339C 4524 6324 4560 6318 4640 6316C 4815 6311 5015 6291 5046 6276C 5062 6268 5136 6252 5210 6240C 5284 6229 5374 6210 5409 6200C 5444 6189 5493 6180 5519 6180C 5577 6180 5655 6158 5681 6134C 5698 6118 5707 6118 5745 6128C 5769 6134 5808 6152 5832 6168C 5855 6184 5908 6209 5948 6223C 5989 6238 6044 6266 6072 6285C 6099 6305 6125 6319 6128 6315C 6131 6312 6127 6269 6119 6220L6119 6220L6103 6130L6137 6104C 6194 6061 6204 6038 6190 5981C 6183 5953 6164 5915 6146 5893C 6128 5872 6098 5828 6080 5795C 6061 5762 6031 5718 6013 5697C 5978 5658 5973 5641 5991 5623C 5998 5616 5997 5595 5986 5552C 5967 5482 5966 5460 5980 5460C 5995 5460 6108 5575 6172 5655C 6247 5750 6285 5784 6305 5776C 6323 5770 6370 5813 6370 5836C 6370 5854 6365 5854 6334 5834C 6304 5813 6262 5808 6238 5821C 6213 5834 6215 5864 6251 6059C 6307 6367 6304 6358 6378 6362L6378 6362L6433 6365L6488 6498C 6518 6571 6540 6633 6536 6637C 6533 6640 6507 6633 6478 6619C 6423 6593 6396 6552 6407 6511C 6411 6495 6408 6488 6393 6484C 6383 6481 6368 6464 6362 6447C 6351 6419 6348 6417 6339 6432C 6332 6445 6336 6466 6355 6513C 6369 6548 6380 6586 6380 6597C 6380 6622 6324 6660 6288 6660C 6258 6660 6250 6651 6210 6579C 6182 6527 6180 6526 6180 6556C 6180 6573 6189 6616 6200 6651C 6234 6757 6254 6988 6264 7400C 6266 7474 6270 7612 6274 7705C 6277 7799 6282 7998 6284 8148C 6289 8383 6288 8422 6275 8426C 6256 8434 6255 8460 6274 8460C 6295 8460 6299 8479 6293 8553L6293 8553L6287 8620L6225 8614C 6190 8610 6160 8612 6157 8617C 6151 8626 6149 8702 6153 8756C 6154 8777 6159 8786 6168 8782C 6178 8779 6181 8790 6180 8826C 6179 8897 6200 8970 6222 8970C 6244 8970 6246 8996 6225 9004C 6217 9007 6210 9014 6210 9020C 6210 9025 6217 9030 6225 9030C 6233 9030 6240 9036 6240 9043C 6240 9050 6251 9067 6265 9082C 6294 9113 6296 9120 6275 9120C 6267 9120 6260 9116 6260 9110C 6260 9105 6256 9100 6250 9100C 6245 9100 6240 9109 6240 9120C 6240 9131 6244 9140 6249 9140C 6254 9140 6261 9148 6264 9158C 6272 9182 6311 9205 6320 9191C 6329 9175 6350 9249 6355 9313C 6359 9361 6377 9439 6395 9483C 6402 9499 6330 9500 4966 9500C 4176 9500 3530 9497 3530 9493zM6205 8580C 6202 8575 6190 8570 6179 8570C 6169 8570 6160 8575 6160 8580C 6160 8586 6172 8590 6186 8590C 6200 8590 6209 8586 6205 8580zM6223 8533C 6210 8531 6190 8531 6178 8533C 6165 8535 6175 8537 6200 8537C 6225 8537 6235 8535 6223 8533zM6220 8506C 6220 8503 6216 8498 6210 8495C 6205 8492 6200 8494 6200 8499C 6200 8505 6205 8510 6210 8510C 6216 8510 6220 8508 6220 8506zM6180 8420C 6180 8415 6176 8410 6170 8410C 6165 8410 6160 8415 6160 8420C 6160 8426 6165 8430 6170 8430C 6176 8430 6180 8426 6180 8420zM6220 8420C 6220 8415 6216 8410 6210 8410C 6205 8410 6200 8415 6200 8420C 6200 8426 6205 8430 6210 8430C 6216 8430 6220 8426 6220 8420zM6157 8318C 6155 8305 6153 8315 6153 8340C 6153 8365 6155 8375 6157 8363C 6159 8350 6159 8330 6157 8318zM6120 8260C 6120 8238 6116 8220 6110 8220C 6105 8220 6100 8238 6100 8260C 6100 8282 6105 8300 6110 8300C 6116 8300 6120 8282 6120 8260z" stroke="none" fill="#000000" fill-rule="nonzero" />
        <path d="M6225 8630C 6222 8625 6224 8620 6229 8620C 6235 8620 6240 8625 6240 8630C 6240 8636 6238 8640 6236 8640C 6233 8640 6228 8636 6225 8630z" stroke="none" fill="#000000" fill-rule="nonzero" />
        <path d="M1090 8310C 1071 8305 1017 8294 970 8285C 923 8275 858 8257 825 8243C 792 8230 726 8211 678 8200C 585 8180 508 8148 444 8105C 377 8059 210 7983 102 7949L102 7949L0 7917L0 7709L0 7500L27 7494C 58 7486 231 7403 240 7392C 243 7388 271 7368 303 7346C 371 7300 403 7264 450 7179C 472 7139 513 7089 559 7045C 811 6808 965 6625 1066 6440C 1076 6421 1087 6403 1090 6400C 1093 6397 1110 6366 1128 6330C 1147 6294 1192 6207 1229 6135C 1266 6064 1307 5978 1320 5945C 1333 5912 1347 5881 1351 5875C 1355 5870 1370 5835 1384 5797C 1398 5760 1416 5715 1424 5697C 1438 5667 1454 5627 1521 5445C 1537 5401 1566 5327 1585 5280C 1603 5233 1635 5141 1656 5075C 1676 5009 1699 4946 1706 4935C 1713 4924 1729 4883 1741 4845C 1764 4767 1797 4725 1841 4716C 1889 4707 1942 4666 2069 4545C 2211 4408 2363 4222 2499 4020C 2659 3781 2668 3771 2725 3744C 2805 3706 2828 3677 3067 3314C 3085 3286 3100 3259 3100 3253C 3100 3247 3107 3237 3115 3230C 3124 3223 3129 3211 3126 3204C 3123 3197 3128 3186 3136 3179C 3151 3167 3180 3117 3180 3105C 3180 3101 3169 3112 3155 3128C 3141 3145 3130 3162 3130 3168C 3130 3173 3112 3196 3090 3219C 3068 3241 3050 3264 3050 3268C 3050 3272 3034 3294 3014 3316C 2994 3337 2966 3373 2952 3395C 2938 3417 2908 3458 2885 3485C 2862 3513 2837 3546 2830 3560C 2811 3597 2736 3699 2728 3700C 2723 3700 2720 3684 2720 3663C 2720 3627 2720 3627 2699 3646C 2687 3656 2607 3771 2521 3899C 2435 4028 2339 4161 2308 4194C 2276 4228 2250 4260 2250 4267C 2250 4273 2206 4322 2153 4377C 2099 4431 2051 4487 2045 4501C 2023 4558 1854 4710 1813 4710C 1784 4710 1789 4680 1845 4500C 1858 4459 1879 4385 1890 4335C 1905 4272 1925 4223 1956 4171C 1980 4131 2000 4096 2000 4094C 2000 4092 1993 4093 1985 4096C 1973 4101 1970 4093 1970 4054C 1971 4027 1975 3987 1979 3965C 1984 3943 2000 3862 2015 3785C 2041 3646 2087 3481 2120 3405C 2143 3352 2185 3213 2205 3125C 2214 3087 2225 3046 2230 3035C 2247 2996 2258 2944 2264 2875C 2270 2805 2279 2753 2306 2630C 2336 2488 2386 2139 2388 2054C 2389 2022 2427 1921 2531 1680C 2680 1332 2689 1308 2725 1200C 2740 1153 2764 1084 2777 1045C 2823 915 2824 835 2780 785C 2751 752 2712 669 2700 615C 2688 560 2695 465 2715 416C 2722 399 2728 383 2728 380C 2729 372 2740 339 2770 260C 2786 219 2813 143 2832 93L2832 93L2865 0L6183 0L9500 0L9500 3760C 9500 5828 9497 7520 9493 7520C 9453 7517 9314 7399 9237 7302C 9179 7229 9087 7075 9069 7020C 9062 7001 9054 6981 9050 6975C 9041 6962 8976 6771 8955 6695C 8946 6662 8930 6613 8920 6585C 8847 6393 8829 6327 8795 6149C 8787 6107 8776 6061 8771 6047C 8766 6033 8756 5995 8750 5962C 8744 5929 8733 5889 8725 5873C 8717 5857 8704 5800 8695 5745C 8685 5682 8671 5636 8658 5618C 8642 5595 8639 5579 8643 5548C 8648 5508 8641 5416 8620 5275C 8614 5237 8607 5185 8605 5160C 8602 5135 8595 5081 8590 5040C 8585 4999 8576 4907 8569 4835C 8563 4764 8554 4689 8549 4670C 8544 4651 8540 4592 8539 4540C 8538 4444 8526 4296 8514 4228C 8510 4204 8514 4174 8524 4144C 8542 4091 8544 4047 8531 4022C 8526 4013 8520 3978 8517 3944C 8511 3881 8490 3818 8471 3806C 8465 3802 8460 3786 8460 3770C 8460 3754 8456 3739 8451 3736C 8447 3733 8440 3707 8437 3679C 8433 3651 8424 3618 8417 3606C 8409 3595 8400 3560 8396 3529C 8392 3498 8382 3464 8375 3454C 8367 3443 8360 3417 8360 3394C 8360 3372 8357 3350 8353 3346C 8342 3336 8320 3267 8320 3243C 8320 3231 8315 3218 8309 3215C 8303 3211 8301 3201 8305 3192C 8308 3184 8308 3157 8304 3133C 8299 3099 8292 3086 8274 3080C 8245 3068 8243 3050 8270 3043C 8285 3039 8289 3032 8284 3018C 8274 2986 8221 2913 8194 2893C 8171 2876 8168 2866 8165 2801C 8162 2735 8159 2725 8131 2696C 8107 2672 8103 2661 8112 2652C 8130 2634 8102 2561 8072 2547C 8053 2538 8049 2531 8054 2509C 8063 2465 8040 2455 7939 2458C 7863 2461 7845 2459 7816 2441C 7797 2429 7775 2404 7765 2384C 7756 2365 7743 2347 7737 2344C 7729 2341 7726 2323 7728 2297C 7731 2267 7727 2250 7716 2241C 7707 2233 7700 2219 7700 2209C 7700 2184 7749 2184 7845 2209C 7914 2227 7960 2222 7960 2197C 7960 2177 7876 2074 7793 1992C 7748 1946 7710 1903 7710 1895C 7710 1878 7631 1779 7570 1721C 7545 1697 7515 1663 7503 1647C 7468 1600 7337 1460 7328 1460C 7316 1460 7280 1422 7280 1409C 7280 1403 7268 1400 7253 1402C 7228 1405 7225 1409 7228 1438C 7230 1474 7220 1478 7176 1455C 7161 1447 7141 1440 7134 1440C 7126 1440 7120 1436 7120 1430C 7120 1425 7115 1420 7109 1420C 7104 1420 7102 1425 7105 1430C 7108 1435 7106 1440 7101 1440C 7095 1440 7090 1445 7090 1450C 7090 1461 7151 1542 7229 1633C 7275 1688 7297 1726 7288 1736C 7278 1745 7199 1720 7116 1679C 7034 1640 6985 1629 6992 1653C 6994 1659 7030 1682 7071 1702C 7149 1741 7183 1772 7174 1794C 7171 1802 7149 1819 7124 1831C 7081 1854 7070 1872 7090 1885C 7100 1891 7133 1873 7191 1829C 7210 1814 7237 1800 7251 1798C 7293 1794 7391 1820 7397 1838C 7401 1848 7412 1866 7421 1880C 7456 1930 7455 1969 7414 2045C 7394 2084 7370 2124 7360 2135C 7350 2146 7328 2183 7310 2218C 7293 2252 7273 2280 7266 2280C 7258 2280 7247 2287 7240 2295C 7221 2318 7200 2313 7200 2285C 7200 2270 7194 2260 7185 2260C 7176 2260 7173 2254 7176 2245C 7180 2237 7177 2230 7171 2230C 7165 2230 7160 2235 7160 2240C 7160 2251 7064 2252 7015 2241C 6990 2236 6984 2229 6982 2202C 6979 2175 6975 2170 6962 2175C 6953 2179 6930 2186 6912 2190C 6894 2194 6874 2203 6866 2209C 6836 2234 6626 2239 6600 2215C 6592 2208 6554 2194 6515 2185C 6477 2177 6428 2160 6407 2149C 6386 2138 6346 2125 6320 2119C 6293 2113 6266 2102 6260 2094C 6253 2087 6244 2082 6240 2085C 6236 2088 6227 2083 6220 2075C 6213 2067 6201 2060 6193 2060C 6186 2060 6168 2052 6153 2043C 6129 2027 6127 2027 6111 2047C 6101 2058 6068 2080 6037 2095C 6006 2109 5980 2126 5980 2131C 5980 2136 5974 2140 5968 2140C 5951 2141 5918 2187 5929 2194C 5943 2203 5988 2183 6058 2138C 6092 2116 6135 2094 6153 2091C 6185 2084 6270 2105 6270 2120C 6270 2125 6294 2145 6323 2166C 6351 2187 6392 2219 6413 2237C 6433 2255 6459 2270 6470 2270C 6480 2270 6494 2279 6500 2289C 6509 2306 6502 2317 6460 2359C 6402 2417 6397 2432 6440 2420C 6469 2412 6469 2412 6454 2436C 6439 2457 6439 2460 6453 2460C 6462 2460 6472 2451 6475 2440C 6481 2421 6500 2412 6500 2428C 6500 2432 6507 2444 6515 2454C 6529 2472 6532 2471 6597 2429C 6634 2406 6673 2378 6683 2368C 6707 2344 6728 2345 6850 2382C 6958 2414 7188 2440 7242 2427C 7256 2423 7289 2400 7315 2375C 7342 2350 7364 2330 7365 2330C 7369 2330 7358 2568 7354 2589C 7349 2612 7348 2612 7334 2594C 7322 2577 7321 2577 7326 2593C 7330 2603 7327 2610 7320 2610C 7313 2610 7314 2616 7324 2626C 7333 2634 7340 2647 7340 2653C 7340 2660 7336 2659 7330 2650C 7310 2618 7305 2659 7307 2836C 7309 2959 7306 3020 7299 3020C 7294 3020 7292 3015 7295 3010C 7298 3004 7298 2995 7294 2988C 7290 2981 7285 2962 7283 2946C 7281 2929 7275 2911 7269 2905C 7261 2898 7260 2906 7266 2935C 7281 3008 7274 3141 7252 3195C 7241 3222 7227 3246 7220 3248C 7211 3251 7209 3247 7213 3237C 7216 3228 7211 3211 7200 3198C 7186 3181 7184 3171 7192 3156C 7201 3140 7199 3138 7181 3143C 7169 3146 7162 3144 7166 3139C 7169 3134 7167 3130 7161 3130C 7156 3130 7148 3135 7145 3140C 7141 3146 7134 3148 7129 3145C 7121 3139 7116 3164 7118 3200C 7134 3472 7134 3472 7130 3540C 7129 3565 7131 3630 7135 3685C 7141 3768 7139 3788 7126 3805C 7111 3824 7111 3823 7110 3787C 7110 3744 7067 3689 7048 3708C 7042 3714 7031 3716 7024 3713C 7008 3707 7005 3726 7020 3735C 7035 3744 7021 3762 7004 3756C 6986 3749 6976 3767 6994 3777C 7004 3783 7005 3792 6999 3809C 6991 3829 6985 3832 6955 3827C 6936 3824 6920 3824 6920 3827C 6920 3832 6961 3895 7030 3995C 7051 4025 7112 4126 7128 4156C 7141 4181 7182 4419 7182 4470C 7182 4484 7180 4536 7178 4585L7178 4585L7175 4675L7131 4678C 7086 4681 6996 4656 6905 4614C 6823 4577 6801 4570 6795 4580C 6791 4586 6779 4590 6767 4589C 6747 4588 6747 4587 6770 4581C 6787 4576 6791 4572 6782 4566C 6776 4562 6766 4561 6761 4565C 6756 4568 6746 4564 6738 4557C 6707 4527 6667 4509 6646 4514C 6612 4522 6531 4597 6534 4618C 6536 4628 6557 4643 6588 4655C 6617 4666 6640 4678 6640 4682C 6640 4695 6684 4736 6745 4780C 6778 4804 6819 4836 6835 4853C 6864 4882 6865 4883 6840 4875C 6794 4861 6696 4798 6598 4718C 6544 4675 6493 4637 6485 4634C 6466 4626 6420 4666 6420 4691C 6420 4700 6413 4713 6405 4720C 6384 4737 6343 4709 6334 4672C 6330 4657 6322 4642 6316 4638C 6310 4634 6309 4628 6313 4624C 6317 4620 6327 4625 6335 4636C 6348 4652 6351 4653 6360 4640C 6375 4617 6372 4604 6345 4572C 6331 4555 6320 4538 6320 4532C 6320 4520 6291 4508 6279 4516C 6265 4524 6280 4542 6295 4536C 6304 4533 6307 4539 6306 4554C 6293 4672 6220 4532 6201 4355C 6195 4300 6183 4186 6174 4101L6174 4101L6157 3946L6182 3926C 6196 3914 6213 3888 6219 3868C 6229 3836 6229 3827 6216 3808C 6196 3779 6195 3693 6215 3618C 6223 3587 6232 3513 6234 3454C 6237 3394 6242 3327 6246 3304C 6251 3270 6246 3252 6217 3194C 6151 3065 6138 3032 6140 2988C 6143 2919 6142 2917 6113 2945C 6081 2975 6021 3014 6015 3009C 6013 3007 6014 2992 6017 2977C 6021 2956 6033 2944 6069 2928C 6094 2916 6121 2907 6128 2907C 6134 2907 6140 2901 6140 2893C 6140 2882 6132 2883 6103 2896C 6082 2905 6057 2912 6047 2912C 6038 2912 6018 2918 6002 2926C 5987 2933 5968 2940 5959 2940C 5950 2940 5932 2949 5919 2961L5919 2961L5895 2981L5920 2977C 5934 2975 5951 2971 5959 2969C 5983 2962 5982 2987 5956 3017C 5936 3041 5933 3053 5937 3091C 5942 3133 5940 3139 5906 3170C 5870 3204 5860 3230 5881 3230C 5889 3230 5889 3234 5882 3243C 5858 3272 5894 3452 5933 3494C 5942 3505 5950 3518 5950 3523C 5950 3528 5956 3546 5964 3563C 5972 3581 5981 3622 5984 3655C 5988 3704 5985 3720 5968 3748C 5947 3782 5915 3789 5915 3758C 5915 3738 5873 3700 5852 3700C 5843 3700 5839 3693 5843 3681C 5846 3667 5843 3664 5829 3667C 5816 3671 5810 3667 5810 3657C 5810 3649 5806 3640 5800 3638C 5781 3632 5781 3556 5800 3515C 5812 3489 5815 3471 5809 3464C 5804 3458 5801 3426 5802 3394C 5805 3341 5803 3335 5784 3332C 5773 3330 5729 3347 5688 3370C 5646 3392 5577 3424 5533 3440C 5490 3455 5438 3476 5417 3484C 5349 3514 5256 3529 5145 3531L5145 3531L5035 3532L4925 3586C 4865 3616 4784 3657 4745 3678C 4675 3715 4515 3790 4505 3790C 4502 3790 4474 3806 4444 3825C 4414 3845 4363 3866 4332 3874C 4301 3881 4253 3898 4225 3912C 4198 3926 4160 3941 4142 3945C 4124 3949 4081 3964 4047 3980C 4013 3995 3937 4019 3877 4034C 3818 4049 3756 4068 3740 4077C 3703 4095 3521 4143 3409 4165C 3312 4183 3130 4268 3034 4340C 2927 4420 2878 4454 2841 4477C 2802 4501 2725 4566 2750 4554C 2758 4550 2773 4540 2782 4532C 2791 4525 2804 4521 2809 4525C 2815 4528 2820 4527 2820 4521C 2820 4507 2907 4451 2949 4437C 2969 4430 2984 4421 2982 4417C 2976 4400 3052 4349 3074 4355C 3088 4359 3091 4358 3082 4352C 3065 4340 3099 4310 3134 4306C 3148 4305 3168 4295 3179 4286C 3192 4274 3206 4271 3219 4275C 3234 4279 3242 4276 3246 4265C 3250 4256 3259 4251 3266 4254C 3273 4257 3284 4251 3290 4242C 3297 4229 3302 4228 3308 4238C 3315 4248 3321 4246 3335 4230C 3355 4208 3390 4203 3391 4223C 3391 4229 3395 4225 3400 4213C 3409 4190 3430 4181 3430 4200C 3430 4206 3425 4210 3419 4210C 3414 4210 3412 4215 3415 4220C 3419 4227 3428 4227 3441 4220C 3452 4214 3465 4212 3470 4215C 3476 4218 3480 4216 3480 4211C 3480 4205 3490 4200 3501 4200C 3530 4200 3775 4097 3790 4079C 3795 4073 3833 4063 3883 4054C 3962 4041 4018 4025 4035 4010C 4061 3988 4107 3971 4150 3967C 4169 3966 4205 3951 4228 3935C 4254 3918 4287 3905 4310 3904C 4330 3903 4358 3899 4371 3896C 4385 3892 4381 3897 4360 3907C 4341 3917 4322 3929 4319 3934C 4315 3939 4300 3940 4286 3936C 4264 3931 4258 3934 4249 3957C 4239 3981 4237 3983 4231 3967C 4225 3950 4223 3951 4212 3974C 4206 3988 4194 4000 4186 4000C 4178 4000 4169 4006 4167 4013C 4164 4019 4161 4016 4160 4005C 4159 3988 4157 3988 4148 4010C 4142 4024 4136 4030 4133 4023C 4130 4013 4122 4014 4100 4025C 4084 4033 4065 4037 4057 4034C 4045 4030 4042 4036 4044 4059C 4045 4076 4041 4091 4033 4094C 4026 4097 4020 4095 4020 4090C 4020 4070 3993 4081 3982 4106C 3974 4121 3965 4128 3958 4124C 3949 4118 3949 4115 3958 4112C 3965 4110 3967 4104 3964 4098C 3960 4092 3947 4100 3934 4116C 3921 4132 3913 4137 3916 4128C 3919 4118 3917 4110 3911 4110C 3905 4110 3900 4116 3900 4124C 3900 4132 3893 4141 3884 4144C 3876 4147 3872 4155 3876 4161C 3881 4169 3875 4171 3856 4168C 3837 4164 3830 4167 3830 4178C 3830 4186 3827 4190 3823 4187C 3820 4183 3811 4185 3804 4191C 3796 4197 3783 4200 3775 4196C 3766 4193 3760 4196 3760 4206C 3760 4217 3766 4220 3783 4215C 3797 4211 3801 4212 3792 4218C 3785 4223 3782 4234 3786 4243C 3793 4262 3801 4264 3816 4251C 3823 4244 3906 4217 3955 4205C 3961 4204 3978 4198 3993 4191C 4009 4185 4043 4173 4068 4165C 4094 4157 4157 4137 4209 4120C 4261 4104 4306 4092 4308 4095C 4311 4097 4320 4095 4329 4091C 4338 4086 4362 4079 4383 4076C 4404 4073 4431 4065 4443 4058C 4455 4052 4466 4047 4467 4048C 4469 4049 4485 4043 4502 4036C 4520 4028 4596 3996 4670 3966C 4844 3893 5080 3758 5080 3730C 5080 3703 5016 3695 4988 3718C 4981 3724 4971 3729 4965 3730C 4960 3731 4945 3736 4932 3741C 4919 3746 4903 3750 4895 3750C 4888 3750 4880 3755 4878 3761C 4876 3768 4865 3770 4853 3766C 4839 3761 4833 3754 4837 3744C 4840 3736 4845 3731 4847 3734C 4856 3743 4878 3716 4873 3703C 4870 3696 4873 3690 4879 3690C 4885 3690 4890 3696 4891 3703C 4891 3709 4896 3705 4902 3693C 4908 3680 4919 3670 4926 3670C 4933 3670 4946 3658 4954 3643C 4962 3627 4972 3616 4977 3617C 4993 3622 5040 3595 5040 3582C 5040 3567 5061 3570 5062 3585C 5062 3591 5069 3604 5076 3615C 5084 3626 5090 3643 5090 3653C 5090 3663 5097 3685 5106 3703C 5115 3720 5124 3757 5125 3785C 5129 3860 5148 3989 5162 4027C 5169 4047 5181 4060 5192 4060C 5203 4060 5207 4065 5204 4074C 5201 4082 5203 4091 5209 4095C 5223 4103 5223 4146 5208 4169C 5199 4184 5201 4197 5223 4238C 5238 4266 5247 4296 5243 4308C 5240 4321 5246 4336 5259 4349C 5285 4375 5286 4392 5262 4413C 5240 4433 5224 4435 5216 4418C 5213 4411 5212 4417 5213 4432C 5216 4448 5212 4461 5204 4464C 5196 4467 5190 4476 5190 4484C 5190 4491 5184 4500 5176 4503C 5168 4506 5159 4529 5155 4557C 5151 4583 5146 4613 5143 4623C 5140 4636 5144 4639 5158 4637C 5194 4632 5212 4609 5208 4573C 5204 4543 5206 4540 5230 4540C 5248 4540 5260 4548 5268 4563C 5282 4593 5292 4680 5280 4680C 5275 4680 5268 4696 5264 4715C 5257 4756 5243 4759 5208 4728C 5170 4693 5137 4675 5142 4692C 5147 4706 5115 4776 5099 4786C 5094 4789 5090 4782 5090 4771C 5090 4760 5085 4748 5080 4745C 5074 4741 5073 4733 5077 4727C 5082 4720 5086 4684 5087 4645C 5088 4607 5090 4528 5093 4470C 5095 4412 5095 4362 5093 4358C 5091 4354 5057 4378 5017 4411C 4939 4477 4834 4550 4818 4550C 4806 4550 4836 4514 4974 4364C 5063 4266 5094 4222 5084 4211C 5082 4209 5071 4215 5060 4225C 5049 4235 5040 4238 5040 4232C 5040 4226 5045 4218 5050 4215C 5064 4206 5090 4142 5090 4116C 5090 4105 5086 4089 5081 4081C 5074 4071 5069 4071 5051 4086C 5040 4096 5030 4110 5030 4117C 5030 4124 5025 4130 5019 4130C 5013 4130 5011 4138 5015 4149C 5019 4163 5015 4172 5000 4180C 4988 4186 4980 4199 4982 4208C 4986 4227 4907 4286 4891 4276C 4886 4273 4880 4277 4876 4285C 4873 4295 4877 4300 4888 4300C 4901 4300 4900 4304 4880 4320C 4866 4331 4840 4347 4823 4355C 4805 4364 4790 4377 4790 4384C 4790 4392 4783 4403 4775 4410C 4767 4417 4762 4426 4765 4430C 4768 4434 4748 4443 4722 4450C 4696 4457 4670 4467 4664 4471C 4658 4476 4650 4477 4647 4473C 4643 4470 4640 4472 4640 4478C 4640 4484 4614 4496 4583 4505C 4551 4514 4510 4530 4492 4541C 4474 4551 4453 4560 4446 4560C 4438 4560 4427 4567 4420 4575C 4413 4583 4398 4590 4386 4590C 4375 4590 4354 4599 4340 4610C 4326 4621 4311 4630 4306 4630C 4301 4630 4276 4643 4251 4658C 4226 4674 4180 4695 4150 4705C 4120 4715 4093 4726 4090 4729C 4084 4737 4051 4752 3930 4803C 3911 4812 3870 4829 3840 4843C 3810 4857 3774 4871 3760 4875C 3746 4879 3731 4886 3725 4890C 3720 4895 3677 4913 3630 4930C 3583 4948 3540 4966 3535 4971C 3529 4975 3506 4983 3485 4989C 3463 4994 3412 5011 3371 5025C 3331 5039 3295 5048 3292 5045C 3281 5034 3331 4864 3357 4821C 3375 4793 3410 4759 3453 4730C 3490 4705 3528 4676 3538 4666C 3554 4648 3554 4647 3537 4653C 3526 4657 3521 4656 3525 4649C 3529 4643 3538 4641 3545 4644C 3552 4646 3584 4628 3617 4603C 3649 4578 3702 4545 3735 4528C 3813 4490 3830 4477 3835 4450C 3840 4422 3858 4400 3885 4390C 3897 4384 3899 4381 3890 4381C 3871 4380 3795 4423 3794 4435C 3787 4485 3749 4516 3717 4499C 3705 4492 3685 4497 3648 4516C 3566 4557 3536 4581 3552 4591C 3562 4598 3560 4600 3546 4600C 3519 4600 3460 4648 3466 4664C 3472 4680 3413 4733 3398 4724C 3387 4717 3286 4811 3268 4845C 3258 4864 3258 4864 3276 4851C 3286 4843 3307 4825 3321 4812C 3358 4779 3365 4799 3329 4837C 3313 4855 3300 4872 3300 4876C 3300 4880 3286 4896 3269 4912L3269 4912L3238 4942L3268 4935L3298 4929L3290 4967C 3286 4988 3278 5016 3272 5030C 3259 5064 3255 5250 3258 5685C 3261 6025 3243 6252 3194 6498C 3180 6565 3164 6633 3159 6648C 3153 6663 3144 6689 3139 6705C 3116 6787 3099 6841 3075 6905C 3061 6944 3040 7001 3030 7033C 3013 7088 2996 7121 2954 7185C 2943 7201 2941 7211 2948 7207C 2955 7202 2960 7204 2960 7214C 2960 7222 2956 7232 2950 7235C 2945 7238 2940 7236 2940 7230C 2940 7224 2929 7232 2915 7247C 2820 7355 2796 7380 2792 7376C 2790 7373 2777 7383 2763 7398L2763 7398L2738 7425L2745 7385C 2749 7363 2758 7339 2764 7331C 2773 7320 2772 7318 2760 7322C 2752 7324 2742 7342 2739 7360C 2735 7379 2727 7396 2721 7398C 2715 7400 2710 7406 2710 7411C 2710 7417 2715 7418 2720 7415C 2734 7406 2732 7416 2717 7428C 2707 7437 2704 7423 2705 7359C 2706 7313 2712 7274 2718 7268C 2725 7261 2730 7249 2730 7241C 2730 7232 2744 7209 2761 7190C 2817 7126 2843 7052 2819 7024C 2800 7001 2803 6889 2823 6860C 2851 6820 2845 6800 2805 6800C 2786 6800 2755 6792 2735 6783L2735 6783L2700 6766L2722 6743C 2748 6715 2760 6714 2760 6739C 2760 6750 2765 6762 2770 6765C 2784 6774 2810 6752 2804 6736C 2792 6705 2836 6647 2959 6530C 3117 6382 3148 6331 3129 6257C 3123 6232 3103 6193 3084 6171C 3065 6150 3050 6121 3050 6107C 3050 6074 3077 6000 3097 5978C 3115 5958 3117 5924 3106 5817C 3101 5773 3103 5736 3111 5713C 3120 5685 3120 5662 3110 5608C 3097 5541 3097 5537 3128 5445C 3171 5321 3171 5254 3130 5183C 3095 5122 3041 5077 3014 5086C 3000 5090 2999 5089 3008 5082C 3019 5075 3018 5071 3004 5066C 2995 5063 2985 5062 2982 5065C 2979 5068 2980 5070 2985 5070C 2989 5070 2980 5081 2965 5094C 2949 5108 2932 5116 2927 5113C 2922 5110 2914 5114 2909 5121C 2902 5132 2898 5131 2886 5115C 2877 5104 2870 5100 2870 5106C 2870 5112 2843 5120 2808 5124C 2774 5127 2739 5137 2729 5146C 2716 5158 2711 5158 2707 5148C 2703 5138 2700 5137 2689 5148C 2682 5154 2670 5160 2663 5160C 2648 5160 2587 5200 2582 5213C 2580 5217 2570 5220 2560 5220C 2551 5220 2537 5227 2530 5235C 2523 5243 2521 5250 2524 5250C 2528 5250 2525 5257 2516 5265C 2497 5284 2486 5284 2494 5265C 2497 5257 2495 5250 2490 5250C 2484 5250 2480 5259 2480 5269C 2480 5280 2474 5290 2468 5293C 2458 5296 2458 5300 2468 5313C 2478 5325 2479 5333 2471 5342C 2465 5349 2450 5367 2439 5383C 2428 5398 2414 5408 2409 5405C 2400 5399 2396 5419 2400 5454C 2401 5467 2397 5471 2387 5467C 2361 5457 2337 5485 2331 5531C 2326 5569 2322 5575 2301 5575C 2288 5575 2275 5581 2273 5588C 2270 5596 2274 5598 2286 5593C 2300 5588 2302 5590 2296 5606C 2291 5616 2286 5632 2283 5641C 2281 5649 2265 5661 2249 5667C 2228 5675 2218 5687 2214 5709C 2210 5726 2196 5750 2181 5763C 2167 5775 2156 5792 2158 5802C 2160 5811 2153 5821 2141 5825C 2129 5828 2115 5840 2110 5851C 2104 5861 2092 5870 2084 5870C 2074 5870 2070 5876 2073 5884C 2076 5892 2072 5904 2064 5910C 2056 5917 2050 5929 2050 5936C 2050 5944 2043 5950 2035 5950C 2027 5950 2020 5959 2020 5970C 2020 5981 2016 5990 2010 5990C 1996 5990 1959 6033 1963 6045C 1965 6050 1948 6060 1926 6065C 1896 6073 1884 6082 1882 6097C 1880 6109 1870 6122 1860 6125C 1850 6128 1839 6137 1836 6145C 1833 6153 1824 6160 1815 6160C 1805 6160 1798 6174 1794 6200C 1790 6222 1784 6240 1780 6240C 1773 6240 1743 6335 1734 6388C 1729 6413 1730 6413 1785 6406C 1839 6400 1857 6409 1825 6428C 1815 6433 1812 6443 1816 6453C 1821 6467 1825 6468 1836 6459C 1848 6449 1849 6450 1844 6464C 1841 6473 1843 6480 1849 6480C 1856 6480 1871 6489 1883 6500C 1901 6518 1903 6522 1890 6530C 1879 6537 1883 6540 1908 6540C 1940 6540 1952 6554 1928 6563C 1921 6566 1930 6571 1948 6575C 1965 6579 1980 6586 1980 6589C 1980 6593 1996 6604 2015 6613C 2048 6629 2062 6650 2040 6650C 2035 6650 2030 6655 2030 6660C 2030 6666 2037 6670 2045 6670C 2054 6670 2063 6676 2066 6684C 2069 6692 2086 6704 2103 6711C 2121 6718 2137 6727 2140 6730C 2155 6748 2211 6780 2227 6780C 2237 6780 2254 6786 2265 6794C 2276 6801 2296 6811 2310 6815C 2324 6819 2352 6829 2373 6838C 2453 6872 2393 6934 2306 6905C 2284 6898 2234 6884 2195 6875C 2157 6866 2115 6854 2103 6848C 2091 6842 2068 6837 2052 6838C 2030 6838 2013 6828 1986 6800C 1948 6759 1914 6742 1900 6757C 1892 6765 2196 7071 2205 7062C 2211 7055 2339 7090 2345 7100C 2348 7105 2328 7111 2301 7115C 2258 7121 2249 7119 2229 7099C 2213 7083 2205 7080 2202 7089C 2199 7097 2210 7112 2226 7124C 2277 7162 2370 7260 2370 7275C 2370 7283 2374 7290 2379 7290C 2384 7290 2392 7299 2395 7311C 2407 7347 2422 7316 2422 7260C 2421 7221 2424 7210 2432 7218C 2438 7224 2443 7245 2442 7264C 2441 7293 2445 7300 2472 7311C 2489 7318 2499 7325 2493 7327C 2480 7332 2491 7392 2506 7397C 2513 7399 2520 7391 2523 7379C 2528 7360 2531 7359 2544 7370C 2553 7377 2560 7379 2560 7374C 2560 7369 2566 7376 2573 7389C 2583 7410 2680 7478 2680 7464C 2680 7459 2689 7466 2734 7505C 2769 7535 2776 7536 2783 7509C 2788 7492 2786 7491 2773 7501C 2761 7512 2759 7509 2762 7483C 2765 7460 2784 7434 2833 7385C 2870 7349 2900 7325 2900 7334C 2900 7350 2825 7497 2804 7521C 2792 7535 2793 7541 2812 7565C 2824 7580 2856 7603 2884 7616C 2912 7629 2946 7649 2960 7660L2960 7660L2985 7681L2960 7675C 2946 7671 2926 7666 2916 7663C 2901 7659 2898 7662 2903 7675C 2907 7684 2910 7698 2910 7706C 2910 7714 2917 7720 2926 7720C 2934 7720 2938 7725 2935 7731C 2931 7737 2936 7748 2946 7755C 2962 7768 2963 7771 2950 7779C 2942 7785 2936 7806 2935 7830C 2934 7854 2927 7877 2916 7888C 2900 7904 2899 7904 2902 7888C 2904 7879 2901 7871 2895 7870C 2890 7869 2882 7860 2877 7848C 2873 7837 2864 7830 2856 7833C 2849 7836 2832 7831 2819 7822C 2795 7806 2716 7795 2725 7810C 2728 7815 2724 7821 2718 7823C 2709 7827 2716 7839 2738 7859C 2755 7876 2770 7894 2770 7899C 2770 7905 2759 7898 2745 7885C 2708 7848 2689 7851 2711 7892C 2727 7921 2713 7926 2691 7899C 2679 7885 2673 7867 2676 7855C 2680 7839 2679 7838 2671 7850C 2664 7859 2657 7861 2653 7855C 2648 7850 2637 7844 2628 7844C 2613 7843 2614 7846 2632 7871C 2644 7886 2659 7901 2667 7904C 2674 7907 2680 7917 2680 7926C 2680 7941 2677 7941 2657 7922C 2639 7905 2631 7903 2622 7912C 2612 7922 2608 7922 2601 7912C 2595 7902 2588 7901 2567 7911C 2537 7925 2535 7931 2553 7949C 2563 7959 2561 7960 2546 7954C 2533 7949 2529 7950 2534 7958C 2539 7966 2536 7968 2526 7964C 2518 7961 2505 7962 2498 7966C 2491 7971 2476 7976 2465 7977C 2454 7979 2434 7983 2420 7987C 2406 7990 2391 7992 2386 7991C 2381 7990 2370 7992 2361 7996C 2349 8001 2355 8005 2380 8011C 2399 8015 2422 8014 2432 8009C 2441 8004 2456 8000 2465 8000C 2477 8000 2475 8006 2455 8027C 2441 8042 2430 8058 2430 8062C 2430 8067 2423 8070 2415 8070C 2407 8070 2400 8074 2400 8080C 2400 8086 2391 8086 2376 8081C 2359 8074 2349 8076 2337 8087C 2329 8096 2308 8103 2291 8104C 2270 8105 2258 8111 2254 8124C 2249 8139 2246 8140 2239 8129C 2232 8118 2228 8119 2217 8134C 2205 8151 2204 8146 2207 8094C 2211 8040 2210 8037 2196 8054C 2188 8064 2163 8092 2141 8116C 2114 8144 2104 8161 2112 8166C 2129 8176 2092 8200 2059 8200C 2044 8200 2028 8205 2025 8210C 2022 8216 2014 8220 2009 8220C 2003 8220 2001 8216 2004 8211C 2012 8199 1975 8190 1912 8190C 1879 8190 1861 8194 1865 8200C 1868 8206 1882 8210 1896 8210C 1921 8210 1929 8227 1908 8235C 1901 8238 1880 8241 1862 8243C 1845 8245 1827 8250 1823 8253C 1820 8257 1775 8260 1724 8260C 1673 8260 1629 8264 1626 8269C 1623 8273 1579 8280 1528 8284C 1397 8294 1400 8293 1400 8302C 1400 8306 1388 8310 1374 8310C 1354 8310 1350 8306 1355 8291C 1363 8263 1346 8257 1319 8278C 1264 8319 1180 8331 1090 8310zM1070 8260C 1070 8255 1065 8250 1059 8250C 1054 8250 1052 8255 1055 8260C 1058 8266 1063 8270 1066 8270C 1068 8270 1070 8266 1070 8260zM2109 8064C 2111 8062 2114 8049 2116 8035C 2118 8013 2116 8011 2104 8021C 2096 8027 2087 8030 2083 8027C 2080 8023 2071 8025 2063 8031C 2056 8037 2050 8039 2050 8034C 2050 8029 2046 8030 2042 8036C 2038 8041 2024 8054 2010 8063C 1985 8080 1986 8080 2045 8074C 2078 8070 2107 8066 2109 8064zM2289 7999C 2271 7988 2230 7987 2230 7999C 2230 8004 2246 8008 2266 8008C 2291 8008 2299 8005 2289 7999zM2627 7884C 2624 7881 2615 7880 2608 7883C 2600 7886 2603 7889 2614 7889C 2625 7890 2631 7887 2627 7884zM2680 7799C 2680 7788 2676 7781 2670 7785C 2665 7788 2663 7797 2667 7805C 2674 7826 2680 7824 2680 7799zM2365 7673C 2369 7656 2367 7644 2361 7642C 2344 7636 2348 7620 2366 7620C 2374 7620 2378 7616 2375 7610C 2363 7591 2333 7600 2322 7626C 2313 7644 2313 7649 2321 7644C 2328 7640 2328 7645 2320 7660C 2310 7678 2311 7684 2321 7691C 2345 7706 2358 7701 2365 7673zM2294 7665C 2297 7656 2294 7653 2285 7656C 2278 7659 2269 7668 2266 7675C 2263 7684 2266 7687 2275 7684C 2282 7681 2291 7672 2294 7665zM2787 7458C 2784 7450 2781 7453 2781 7464C 2780 7475 2783 7481 2786 7477C 2789 7474 2790 7465 2787 7458zM1960 7329C 1960 7323 1956 7322 1950 7325C 1945 7328 1940 7336 1940 7341C 1940 7347 1945 7348 1950 7345C 1956 7342 1960 7334 1960 7329zM1974 7216C 1969 7201 1972 7198 1987 7202C 2003 7206 2006 7203 2002 7182C 1999 7169 1989 7155 1979 7153C 1957 7147 1954 7125 1973 7117C 1990 7110 2020 7133 2020 7154C 2020 7163 2025 7170 2030 7170C 2036 7170 2040 7177 2040 7185C 2040 7204 2049 7204 2074 7185C 2090 7173 2091 7170 2078 7165C 2062 7159 2065 7115 2081 7104C 2086 7101 2087 7105 2084 7113C 2079 7126 2106 7157 2115 7148C 2117 7146 2101 7109 2079 7066C 2052 7016 2027 6982 2009 6971C 1993 6962 1980 6949 1980 6942C 1980 6934 1972 6930 1963 6932C 1944 6935 1941 6961 1954 7029L1954 7029L1962 7072L2001 7066C 2025 7062 2040 7064 2040 7070C 2040 7075 2033 7080 2025 7080C 2017 7080 2010 7084 2010 7089C 2010 7094 1999 7097 1985 7096C 1956 7092 1945 7103 1936 7145C 1927 7188 1920 7247 1926 7233C 1933 7216 1960 7229 1960 7249C 1960 7263 1962 7263 1970 7250C 1975 7242 1977 7226 1974 7216zM2285 7219C 2278 7200 2230 7178 2230 7193C 2230 7216 2247 7231 2263 7224C 2274 7220 2280 7223 2280 7231C 2280 7238 2282 7241 2285 7238C 2288 7235 2288 7227 2285 7219zM2870 6658C 2870 6648 2866 6640 2860 6640C 2855 6640 2850 6651 2850 6665C 2850 6679 2846 6690 2840 6690C 2835 6690 2830 6695 2830 6702C 2830 6708 2839 6705 2850 6695C 2861 6685 2870 6669 2870 6658zM2267 5618C 2264 5610 2261 5613 2261 5624C 2260 5635 2263 5641 2266 5637C 2269 5634 2270 5625 2267 5618zM3193 5021C 3172 5007 3149 4951 3136 4880C 3125 4818 3124 4801 3135 4780C 3145 4761 3146 4742 3138 4702C 3132 4674 3123 4650 3119 4650C 3107 4650 3108 4667 3119 4689C 3124 4698 3125 4712 3121 4719C 3115 4728 3108 4723 3096 4699C 3080 4668 3083 4624 3100 4635C 3104 4638 3106 4630 3103 4619L3103 4619L3097 4598L3085 4620C 3076 4638 3072 4639 3067 4627C 3064 4619 3066 4608 3072 4602C 3084 4590 3074 4570 3056 4570C 3049 4570 3038 4560 3031 4548C 3021 4527 3020 4527 3026 4555C 3030 4572 3033 4592 3033 4600C 3033 4608 3036 4617 3039 4620C 3052 4630 3079 4706 3094 4770C 3115 4858 3116 4873 3106 4889C 3100 4898 3101 4901 3107 4897C 3113 4893 3118 4900 3118 4913C 3118 4940 3181 5040 3194 5032C 3198 5030 3198 5025 3193 5021zM2539 4760C 2539 4752 2531 4761 2520 4780C 2509 4799 2501 4822 2501 4830C 2501 4838 2509 4829 2520 4810C 2531 4791 2539 4768 2539 4760zM3040 4806C 3040 4804 3033 4800 3025 4796C 3017 4793 3010 4795 3010 4800C 3010 4806 3017 4810 3025 4810C 3033 4810 3040 4808 3040 4806zM2976 4742C 2958 4726 2958 4726 2970 4748C 2976 4761 2984 4769 2988 4766C 2991 4762 2986 4752 2976 4742zM2595 4700C 2598 4694 2594 4693 2586 4696C 2568 4703 2565 4710 2579 4710C 2585 4710 2592 4706 2595 4700zM2690 4613C 2714 4590 2732 4569 2730 4567C 2727 4564 2698 4589 2665 4623C 2600 4688 2616 4682 2690 4613zM2891 4618L2871 4575L2877 4610C 2884 4653 2902 4690 2907 4673C 2909 4667 2902 4642 2891 4618zM3168 4625C 3165 4622 3159 4627 3156 4637C 3150 4651 3151 4652 3161 4643C 3168 4636 3171 4628 3168 4625zM3452 4591C 3468 4577 3495 4553 3512 4538C 3528 4522 3546 4510 3551 4510C 3566 4510 3662 4449 3713 4407C 3739 4386 3760 4371 3760 4375C 3760 4378 3767 4374 3775 4366C 3784 4357 3790 4342 3788 4333C 3786 4320 3791 4316 3805 4317C 3816 4318 3820 4317 3813 4314C 3806 4311 3804 4302 3807 4294C 3810 4286 3807 4280 3801 4280C 3795 4280 3790 4284 3790 4289C 3790 4294 3777 4303 3760 4310C 3743 4317 3730 4330 3730 4339C 3730 4356 3680 4400 3660 4400C 3655 4400 3650 4405 3650 4410C 3650 4416 3644 4420 3636 4420C 3629 4420 3617 4426 3611 4434C 3605 4442 3573 4458 3540 4470C 3496 4486 3480 4497 3480 4511C 3480 4522 3473 4530 3464 4530C 3455 4530 3452 4535 3456 4542C 3461 4549 3459 4550 3451 4546C 3431 4533 3400 4569 3405 4599C 3408 4613 3407 4619 3404 4613C 3401 4606 3394 4600 3388 4600C 3382 4600 3382 4606 3390 4615C 3404 4631 3409 4629 3452 4591zM6386 4515C 6370 4491 6350 4481 6350 4498C 6350 4510 6391 4552 6397 4546C 6400 4543 6395 4529 6386 4515zM3088 4431C 3091 4423 3083 4424 3066 4435C 3034 4456 3033 4462 3062 4451C 3074 4447 3086 4437 3088 4431zM4029 4399C 4082 4377 4154 4347 4190 4331C 4275 4292 4292 4286 4309 4289C 4316 4290 4319 4287 4316 4282C 4312 4276 4319 4274 4332 4278C 4345 4281 4351 4279 4347 4273C 4343 4267 4356 4260 4379 4256C 4401 4253 4425 4243 4433 4235C 4441 4227 4450 4223 4453 4226C 4462 4235 4498 4220 4528 4195C 4543 4182 4581 4164 4612 4155C 4643 4146 4671 4133 4674 4125C 4677 4117 4684 4110 4689 4110C 4709 4110 4942 3979 4998 3936C 5061 3888 5073 3875 5084 3846C 5089 3832 5087 3829 5074 3834C 5060 3839 5059 3838 5070 3825C 5077 3816 5080 3807 5077 3803C 5064 3791 4915 3905 4905 3935C 4902 3946 4897 3950 4894 3944C 4884 3920 4610 4039 4610 4067C 4610 4088 4543 4153 4500 4175C 4481 4185 4449 4194 4428 4195C 4395 4197 4392 4195 4401 4179C 4406 4168 4407 4160 4403 4160C 4399 4159 4412 4150 4433 4139C 4483 4113 4476 4105 4423 4126C 4391 4139 4382 4147 4385 4162C 4390 4186 4381 4212 4369 4205C 4365 4202 4355 4208 4348 4220C 4341 4231 4331 4240 4326 4240C 4321 4240 4309 4246 4301 4253C 4292 4261 4262 4276 4234 4287L4234 4287L4183 4308L4193 4280C 4200 4261 4209 4254 4218 4258C 4228 4262 4231 4259 4226 4251C 4221 4244 4226 4233 4236 4224C 4254 4210 4243 4213 4164 4246C 4150 4252 4150 4280 4164 4280C 4169 4280 4165 4287 4154 4295C 4139 4306 4138 4312 4148 4318C 4156 4324 4142 4335 4101 4352L4101 4352L4042 4378L4037 4351C 4031 4323 4051 4300 4082 4300C 4092 4300 4100 4296 4100 4290C 4100 4285 4098 4280 4096 4280C 4088 4280 4020 4311 4020 4314C 4020 4317 4017 4326 4013 4336C 4009 4348 4010 4351 4018 4346C 4032 4338 4033 4341 4024 4364C 4021 4373 4012 4380 4004 4380C 3980 4380 3939 4403 3951 4410C 3957 4414 3941 4422 3916 4429C 3891 4435 3870 4443 3870 4446C 3870 4457 3933 4438 4029 4399zM2801 4394C 2831 4385 2860 4377 2865 4376C 2876 4374 2970 4309 2970 4303C 2970 4301 2953 4308 2932 4319C 2911 4330 2877 4342 2856 4345C 2836 4349 2796 4363 2769 4376C 2693 4413 2707 4422 2801 4394zM3330 4374C 3330 4372 3323 4370 3315 4370C 3307 4370 3300 4374 3300 4380C 3300 4385 3307 4387 3315 4384C 3323 4380 3330 4376 3330 4374zM3377 4348C 3374 4340 3371 4343 3371 4354C 3370 4365 3373 4371 3376 4367C 3379 4364 3380 4355 3377 4348zM3480 4350C 3480 4345 3470 4340 3458 4341C 3436 4341 3436 4342 3455 4350C 3466 4355 3476 4359 3478 4359C 3479 4360 3480 4356 3480 4350zM3545 4339C 3549 4334 3542 4331 3531 4333C 3503 4337 3497 4345 3520 4347C 3531 4348 3542 4345 3545 4339zM3840 4292C 3834 4290 3833 4283 3836 4277C 3841 4268 3840 4268 3831 4276C 3825 4282 3822 4295 3826 4304C 3831 4318 3835 4319 3841 4308C 3846 4301 3845 4294 3840 4292zM3100 4205C 3190 4194 3403 4123 3451 4087C 3464 4078 3529 4034 3595 3992C 3661 3949 3732 3896 3753 3875C 3832 3796 3919 3748 3921 3783C 3921 3793 3923 3793 3927 3783C 3929 3776 3938 3770 3945 3770C 3952 3770 3973 3758 3991 3743C 4009 3727 4035 3715 4049 3715C 4069 3715 4074 3711 4072 3696C 4069 3679 4070 3678 4084 3689C 4098 3701 4100 3699 4100 3680C 4100 3663 4105 3659 4118 3662C 4139 3668 4177 3639 4210 3591C 4223 3572 4236 3562 4238 3568C 4240 3574 4254 3568 4272 3552C 4289 3537 4308 3526 4314 3528C 4320 3530 4322 3529 4318 3525C 4314 3521 4323 3507 4338 3494C 4363 3471 4364 3469 4347 3459C 4329 3449 4329 3447 4349 3429C 4361 3418 4375 3412 4381 3415C 4387 3419 4397 3415 4403 3407C 4417 3389 4513 3367 4582 3365C 4608 3365 4632 3361 4635 3358C 4643 3350 4680 3360 4680 3370C 4680 3375 4688 3380 4698 3383C 4722 3388 4665 3415 4618 3420C 4600 3422 4599 3423 4613 3427C 4622 3429 4630 3436 4630 3441C 4630 3447 4637 3447 4648 3441C 4657 3435 4677 3429 4691 3426C 4705 3423 4737 3400 4762 3375C 4787 3350 4811 3330 4815 3330C 4830 3330 4860 3297 4860 3280C 4860 3271 4843 3246 4823 3224C 4802 3202 4785 3178 4785 3171C 4785 3148 4763 3147 4743 3169C 4730 3183 4720 3186 4710 3180C 4702 3175 4691 3175 4685 3179C 4669 3192 4582 3201 4575 3190C 4572 3185 4575 3178 4581 3174C 4588 3170 4569 3159 4536 3149C 4484 3132 4475 3132 4450 3145C 4434 3153 4412 3160 4400 3160C 4389 3160 4377 3167 4374 3175C 4370 3183 4360 3190 4350 3190C 4340 3190 4311 3214 4284 3243C 4211 3321 4163 3354 4085 3380C 4047 3393 4007 3405 3997 3407C 3939 3417 3795 3529 3820 3545C 3837 3556 3940 3541 3937 3528C 3936 3522 3967 3503 4005 3487C 4044 3471 4083 3453 4093 3448C 4104 3443 4114 3441 4117 3443C 4126 3452 3977 3550 3955 3550C 3943 3550 3916 3565 3894 3583C 3873 3601 3842 3624 3827 3633C 3812 3643 3795 3662 3790 3675C 3785 3688 3773 3707 3763 3717C 3753 3727 3729 3756 3710 3780C 3691 3805 3670 3829 3663 3833C 3656 3837 3650 3848 3650 3856C 3650 3864 3643 3873 3635 3876C 3627 3879 3618 3889 3615 3898C 3613 3908 3597 3921 3580 3928C 3564 3936 3550 3948 3550 3956C 3550 3964 3537 3976 3520 3981C 3504 3987 3490 3996 3490 4001C 3490 4006 3484 4010 3477 4010C 3469 4010 3452 4020 3439 4031C 3426 4043 3400 4059 3383 4066C 3365 4074 3350 4085 3350 4090C 3350 4096 3345 4100 3338 4100C 3332 4100 3312 4111 3293 4126C 3275 4140 3255 4148 3250 4145C 3244 4142 3240 4144 3240 4150C 3240 4156 3234 4160 3228 4158C 3210 4155 3057 4191 3043 4203C 3022 4218 3039 4231 3063 4218C 3075 4212 3092 4205 3100 4205zM3870 4125C 3870 4120 3865 4122 3860 4130C 3855 4138 3850 4150 3850 4155C 3850 4161 3855 4158 3860 4150C 3865 4142 3870 4131 3870 4125zM4020 4055C 4007 4040 3990 4043 3990 4062C 3990 4067 3997 4070 4005 4066C 4013 4063 4020 4066 4020 4072C 4020 4078 4023 4080 4026 4077C 4030 4073 4027 4064 4020 4055zM2231 3835C 2275 3780 2325 3717 2344 3695C 2362 3673 2383 3644 2390 3630C 2397 3616 2425 3576 2452 3541C 2478 3506 2500 3473 2500 3469C 2500 3446 2476 3466 2437 3521C 2414 3554 2362 3618 2322 3663C 2281 3708 2245 3754 2240 3765C 2232 3786 2155 3885 2094 3954C 2075 3976 2060 3999 2060 4005C 2060 4012 2051 4025 2040 4035C 2029 4045 2020 4058 2020 4064C 2021 4080 2140 3950 2231 3835zM3615 4050C 3628 4045 3629 4041 3620 4041C 3612 4041 3596 4045 3585 4050C 3572 4055 3571 4059 3580 4059C 3588 4059 3604 4055 3615 4050zM6997 3734C 6994 3731 6985 3730 6978 3733C 6970 3736 6973 3739 6984 3739C 6995 3740 7001 3737 6997 3734zM4835 3480L4864 3450L4839 3450C 4821 3450 4811 3458 4803 3480C 4797 3497 4795 3510 4799 3510C 4803 3510 4819 3497 4835 3480zM4610 3450C 4610 3445 4606 3440 4600 3440C 4595 3440 4590 3445 4590 3450C 4590 3456 4595 3460 4600 3460C 4606 3460 4610 3456 4610 3450zM2531 3433C 2544 3416 2544 3416 2525 3430C 2514 3438 2503 3446 2501 3447C 2499 3449 2501 3450 2507 3450C 2513 3450 2524 3442 2531 3433zM4890 3425C 4900 3413 4900 3406 4892 3398C 4883 3389 4876 3391 4865 3406C 4857 3416 4850 3428 4850 3433C 4850 3446 4877 3440 4890 3425zM7245 2812C 7237 2786 7230 2763 7230 2761C 7230 2759 7228 2759 7225 2762C 7216 2770 7241 2871 7250 2865C 7255 2862 7252 2838 7245 2812zM2980 2758C 2980 2754 2973 2753 2965 2756C 2957 2760 2950 2772 2950 2784C 2951 2805 2951 2805 2965 2786C 2973 2775 2980 2763 2980 2758zM6060 2740C 6082 2747 6103 2750 6107 2747C 6110 2743 6102 2740 6089 2739C 6068 2739 6067 2738 6084 2731C 6095 2727 6105 2713 6107 2700C 6109 2687 6118 2671 6128 2663C 6144 2650 6144 2649 6125 2651C 6087 2654 6085 2650 6115 2624L6115 2624L6145 2597L6110 2604C 6091 2607 6062 2613 6046 2616C 6007 2625 6015 2603 6060 2578C 6079 2568 6090 2560 6085 2559C 6077 2559 6035 2559 5955 2561C 5935 2561 5855 2535 5849 2526C 5845 2521 5821 2517 5794 2517C 5751 2517 5746 2519 5743 2542C 5738 2576 5779 2634 5810 2638C 5846 2641 5894 2642 5903 2640C 5922 2634 5970 2636 5970 2643C 5970 2650 5968 2651 5932 2655C 5920 2656 5901 2665 5891 2674C 5882 2683 5866 2690 5856 2690C 5847 2690 5842 2695 5845 2700C 5848 2706 5846 2710 5841 2710C 5830 2710 5826 2742 5835 2751C 5837 2754 5880 2749 5930 2741C 6006 2729 6027 2729 6060 2740zM7240 2736C 7240 2733 7236 2728 7230 2725C 7225 2722 7220 2724 7220 2729C 7220 2735 7225 2740 7230 2740C 7236 2740 7240 2738 7240 2736zM7240 2696C 7240 2693 7236 2688 7230 2685C 7225 2682 7220 2684 7220 2689C 7220 2695 7225 2700 7230 2700C 7236 2700 7240 2698 7240 2696zM5710 2429C 5710 2409 5706 2400 5698 2402C 5683 2407 5676 2435 5684 2456C 5693 2480 5710 2462 5710 2429zM6400 2439C 6400 2421 6398 2420 6385 2430C 6377 2437 6370 2446 6370 2451C 6370 2456 6377 2460 6385 2460C 6394 2460 6400 2451 6400 2439zM2719 2366C 2716 2363 2708 2371 2701 2383C 2688 2404 2689 2404 2706 2388C 2716 2378 2722 2368 2719 2366zM6321 2350C 6335 2350 6340 2343 6340 2325C 6340 2307 6335 2300 6321 2300C 6311 2300 6300 2307 6296 2315C 6293 2323 6284 2330 6277 2330C 6269 2330 6256 2338 6249 2347C 6236 2362 6238 2363 6269 2357C 6287 2353 6311 2350 6321 2350zM5960 2301C 5960 2295 5955 2288 5948 2284C 5937 2277 5871 2261 5843 2258C 5836 2257 5830 2253 5830 2248C 5830 2244 5821 2240 5811 2240C 5789 2240 5779 2217 5776 2158L5776 2158L5774 2118L5727 2114C 5686 2111 5680 2113 5680 2129C 5680 2158 5761 2250 5786 2250C 5798 2250 5813 2257 5820 2265C 5827 2273 5840 2280 5849 2280C 5858 2280 5870 2284 5876 2289C 5884 2297 5911 2305 5948 2309C 5954 2309 5960 2306 5960 2301zM6397 2290C 6400 2279 6407 2270 6412 2270C 6417 2270 6418 2265 6415 2259C 6410 2252 6399 2256 6384 2271C 6371 2283 6363 2297 6366 2301C 6375 2317 6392 2311 6397 2290zM7019 2063C 7078 1997 7114 1930 7100 1916C 7093 1909 7075 1920 7047 1948C 7016 1978 6986 1995 6934 2013C 6854 2039 6830 2054 6830 2080C 6830 2093 6842 2100 6878 2108C 6961 2125 6965 2124 7019 2063zM5620 1935C 5620 1922 5616 1908 5610 1905C 5604 1901 5600 1913 5600 1935C 5600 1957 5604 1969 5610 1965C 5616 1962 5620 1948 5620 1935zM6384 1805C 6395 1797 6401 1788 6398 1785C 6389 1776 6338 1799 6345 1810C 6353 1823 6361 1822 6384 1805zM6975 1641C 6978 1636 6976 1629 6970 1625C 6965 1622 6960 1626 6960 1634C 6960 1652 6966 1655 6975 1641zM6950 1625C 6950 1616 6942 1606 6933 1603C 6923 1599 6900 1586 6881 1573C 6862 1560 6839 1550 6829 1550C 6812 1550 6812 1553 6822 1570C 6837 1593 6888 1620 6905 1614C 6911 1611 6923 1616 6930 1625C 6946 1644 6950 1644 6950 1625zM6703 1374C 6701 1365 6731 1355 6823 1336C 6838 1332 6850 1323 6850 1315C 6850 1295 6927 1295 7004 1315C 7057 1329 7069 1329 7114 1315C 7142 1307 7180 1291 7198 1280C 7297 1219 7160 1105 6980 1101C 6888 1099 6692 1076 6587 1055C 6486 1036 6444 1036 6436 1056C 6432 1066 6439 1074 6459 1081C 6475 1087 6491 1098 6494 1106C 6497 1114 6505 1120 6512 1120C 6519 1120 6553 1133 6587 1150C 6622 1166 6665 1182 6682 1185C 6704 1189 6719 1200 6727 1216C 6737 1237 6735 1242 6717 1252C 6705 1258 6683 1273 6668 1285C 6643 1306 6642 1309 6658 1326C 6667 1337 6674 1356 6672 1368C 6669 1387 6672 1391 6687 1388C 6697 1386 6704 1379 6703 1374zM4292 1321C 4313 1316 4336 1307 4344 1301C 4352 1294 4370 1288 4383 1286C 4411 1283 4440 1258 4440 1237C 4440 1211 4392 1187 4353 1195C 4334 1198 4290 1203 4257 1206C 4223 1208 4166 1214 4130 1219C 4094 1225 4043 1232 4015 1235C 3924 1246 3912 1250 3917 1269C 3919 1278 3937 1295 3957 1306C 3987 1321 4010 1324 4091 1323C 4153 1321 4191 1324 4196 1331C 4199 1337 4214 1339 4229 1335C 4243 1332 4272 1325 4292 1321zM7098 962C 7183 927 7186 872 7104 851C 7014 828 6655 843 6626 871C 6610 885 6639 908 6688 920C 6714 926 6777 940 6829 950C 6881 961 6925 972 6928 975C 6940 987 7058 978 7098 962zM5723 823C 5726 818 5724 805 5719 792C 5711 772 5705 769 5663 772C 5609 775 5593 799 5632 818C 5659 830 5717 834 5723 823z" stroke="none" fill="#000000" fill-rule="nonzero" />
        <path d="M4650 4096C 4650 4094 4657 4089 4666 4086C 4674 4083 4678 4084 4675 4090C 4669 4100 4650 4104 4650 4096z" stroke="none" fill="#000000" fill-rule="nonzero" />
        <path d="M4625 4080C 4622 4074 4626 4070 4634 4070C 4642 4070 4652 4066 4655 4060C 4659 4054 4654 4053 4643 4056C 4628 4061 4627 4060 4640 4051C 4660 4037 4670 4037 4670 4053C 4670 4070 4633 4092 4625 4080z" stroke="none" fill="#000000" fill-rule="nonzero" />
        <path d="M4688 4063C 4685 4050 4686 4037 4692 4034C 4706 4025 4708 4032 4700 4060C 4694 4085 4694 4085 4688 4063z" stroke="none" fill="#000000" fill-rule="nonzero" />
        <path d="M4731 4051C 4720 4044 4722 4041 4739 4035C 4750 4032 4760 4025 4760 4021C 4760 4017 4778 4005 4800 3995C 4822 3985 4840 3974 4840 3970C 4840 3966 4850 3960 4863 3957C 4883 3952 4882 3954 4856 3974C 4837 3990 4832 3999 4841 4002C 4849 4005 4831 4019 4802 4033C 4772 4048 4748 4060 4747 4060C 4746 4060 4739 4056 4731 4051z" stroke="none" fill="#000000" fill-rule="nonzero" />
        <path d="M4250 3435C 4257 3427 4267 3420 4272 3420C 4278 3420 4277 3427 4270 3435C 4263 3443 4253 3450 4248 3450C 4242 3450 4243 3443 4250 3435z" stroke="none" fill="#000000" fill-rule="nonzero" />
        <path d="M4305 3330C 4324 3300 4494 3251 4514 3270C 4528 3283 4413 3330 4354 3335C 4319 3338 4301 3336 4305 3330z" stroke="none" fill="#000000" fill-rule="nonzero" />
        <path d="M4540 3280C 4540 3271 4583 3261 4650 3254C 4693 3249 4694 3249 4669 3263C 4641 3279 4540 3292 4540 3280z" stroke="none" fill="#000000" fill-rule="nonzero" />
        <path d="M4711 3243C 4718 3233 4726 3223 4727 3221C 4729 3219 4730 3226 4730 3238C 4730 3252 4724 3260 4714 3260C 4700 3260 4699 3257 4711 3243z" stroke="none" fill="#000000" fill-rule="nonzero" />
        <path d="M4770 3221C 4770 3215 4775 3208 4780 3205C 4786 3202 4790 3206 4790 3214C 4790 3223 4786 3230 4780 3230C 4775 3230 4770 3226 4770 3221z" stroke="none" fill="#000000" fill-rule="nonzero" />
        <path d="M1318 8313C 1325 8310 1334 8311 1337 8314C 1341 8317 1335 8320 1324 8319C 1313 8319 1310 8316 1318 8313z" stroke="none" fill="#000000" fill-rule="nonzero" />
        <path d="M2260 8130C 2260 8125 2265 8120 2270 8120C 2276 8120 2280 8125 2280 8130C 2280 8136 2276 8140 2270 8140C 2265 8140 2260 8136 2260 8130z" stroke="none" fill="#000000" fill-rule="nonzero" />
        <path d="M2700 7955C 2693 7946 2692 7940 2698 7940C 2703 7940 2710 7947 2714 7955C 2717 7963 2718 7970 2716 7970C 2714 7970 2707 7963 2700 7955z" stroke="none" fill="#000000" fill-rule="nonzero" />
        <path d="M2570 7320C 2570 7309 2573 7300 2578 7299C 2582 7299 2593 7297 2603 7295C 2612 7293 2620 7294 2620 7296C 2620 7302 2581 7340 2575 7340C 2572 7340 2570 7331 2570 7320z" stroke="none" fill="#000000" fill-rule="nonzero" />
        <path d="M2920 7269C 2927 7258 2934 7250 2936 7253C 2943 7260 2929 7290 2919 7290C 2913 7290 2914 7281 2920 7269z" stroke="none" fill="#000000" fill-rule="nonzero" />
        <path d="M2380 7150C 2380 7145 2385 7140 2390 7140C 2396 7140 2400 7145 2400 7150C 2400 7156 2396 7160 2390 7160C 2385 7160 2380 7156 2380 7150z" stroke="none" fill="#000000" fill-rule="nonzero" />
        <path d="M2349 6595C 2315 6560 2188 6499 2174 6511C 2168 6516 2160 6516 2155 6512C 2151 6508 2153 6515 2159 6528C 2174 6555 2173 6555 2104 6525C 2073 6511 2044 6503 2038 6506C 2033 6509 2022 6506 2013 6498C 2005 6491 1979 6480 1956 6475C 1922 6466 1914 6460 1912 6436C 1910 6421 1914 6395 1920 6379C 1930 6357 1939 6350 1961 6350C 1976 6350 1991 6354 1995 6359C 1998 6365 2035 6369 2077 6369C 2122 6369 2156 6373 2160 6380C 2164 6386 2171 6390 2176 6389C 2181 6388 2187 6389 2190 6390C 2203 6395 2238 6400 2263 6402C 2278 6402 2290 6407 2290 6412C 2290 6416 2295 6420 2301 6420C 2307 6420 2309 6411 2305 6398C 2299 6378 2302 6379 2330 6407C 2354 6430 2361 6443 2355 6457C 2348 6473 2347 6473 2341 6451C 2336 6433 2327 6427 2297 6424C 2253 6420 2251 6425 2288 6444C 2303 6452 2338 6479 2365 6505C 2395 6532 2422 6548 2433 6546C 2442 6544 2450 6546 2450 6551C 2450 6561 2390 6620 2380 6620C 2377 6620 2363 6609 2349 6595z" stroke="none" fill="#000000" fill-rule="nonzero" />
        <path d="M2589 6570C 2592 6553 2598 6539 2603 6540C 2607 6540 2615 6540 2621 6540C 2626 6540 2629 6544 2625 6549C 2622 6554 2624 6562 2630 6565C 2645 6574 2623 6600 2600 6600C 2586 6600 2584 6594 2589 6570z" stroke="none" fill="#000000" fill-rule="nonzero" />
        <path d="M2796 6445C 2800 6437 2808 6430 2816 6430C 2836 6430 2833 6437 2810 6450C 2794 6459 2792 6458 2796 6445z" stroke="none" fill="#000000" fill-rule="nonzero" />
        <path d="M2742 6389C 2729 6373 2714 6362 2709 6366C 2704 6369 2700 6366 2700 6361C 2700 6355 2695 6350 2690 6350C 2681 6350 2600 6277 2600 6268C 2600 6266 2597 6236 2594 6200C 2589 6139 2591 6131 2622 6081C 2651 6032 2660 6025 2705 6013C 2733 6006 2769 6002 2785 6005C 2802 6008 2823 6011 2833 6011C 2845 6011 2850 6019 2850 6042C 2850 6072 2850 6072 2806 6066C 2771 6060 2761 6062 2756 6076C 2749 6094 2757 6130 2768 6130C 2782 6130 2773 6192 2757 6211C 2748 6221 2744 6230 2748 6230C 2752 6230 2760 6240 2765 6253C 2773 6270 2785 6276 2820 6278C 2888 6283 2890 6294 2832 6349C 2803 6376 2780 6403 2780 6409C 2780 6427 2766 6420 2742 6389z" stroke="none" fill="#000000" fill-rule="nonzero" />
        <path d="M2976 6202C 2973 6197 2945 6189 2913 6185C 2869 6180 2850 6172 2827 6148C 2790 6111 2801 6092 2851 6109C 2874 6117 2894 6117 2923 6109C 2960 6099 2965 6101 2988 6123C 3001 6137 3014 6160 3015 6175C 3017 6190 3016 6199 3013 6196C 3009 6193 3001 6195 2994 6201C 2987 6207 2979 6207 2976 6202z" stroke="none" fill="#000000" fill-rule="nonzero" />
        <path d="M6083 6005C 6080 5996 6080 5987 6083 5984C 6092 5975 6110 5990 6110 6006C 6110 6025 6091 6024 6083 6005z" stroke="none" fill="#000000" fill-rule="nonzero" />
        <path d="M6543 5922C 6537 5891 6535 5861 6540 5857C 6544 5853 6550 5877 6554 5911C 6562 5991 6556 5996 6543 5922z" stroke="none" fill="#000000" fill-rule="nonzero" />
        <path d="M3314 5910C 3286 5899 3279 5878 3287 5825L3287 5825L3293 5780L3319 5808C 3362 5855 3391 5900 3385 5910C 3378 5922 3343 5922 3314 5910z" stroke="none" fill="#000000" fill-rule="nonzero" />
        <path d="M2960 5833C 2952 5830 2925 5811 2900 5791C 2828 5733 2775 5700 2754 5700C 2729 5700 2680 5651 2680 5626C 2680 5611 2689 5609 2753 5611C 2847 5613 2880 5619 2880 5636C 2880 5644 2886 5650 2893 5650C 2907 5650 2940 5685 2940 5699C 2940 5704 2957 5722 2977 5739C 2997 5756 3011 5773 3007 5776C 3003 5780 3008 5788 3017 5795C 3053 5822 3009 5851 2960 5833z" stroke="none" fill="#000000" fill-rule="nonzero" />
        <path d="M3460 5821C 3460 5816 3469 5802 3480 5789C 3495 5770 3499 5768 3500 5782C 3500 5809 3489 5830 3474 5830C 3466 5830 3460 5826 3460 5821z" stroke="none" fill="#000000" fill-rule="nonzero" />
        <path d="M3331 5751C 3323 5746 3311 5744 3305 5746C 3286 5754 3280 5727 3285 5658C 3288 5607 3299 5576 3349 5476C 3420 5334 3440 5285 3440 5256C 3441 5231 3480 5109 3505 5056C 3519 5027 3525 5022 3536 5031C 3553 5045 3580 5036 3580 5017C 3580 4983 3658 4971 3805 4982C 3848 4985 3855 4988 3858 5008C 3861 5028 3926 5083 3995 5125C 4011 5134 4010 5139 3988 5180C 3958 5237 3919 5290 3908 5290C 3903 5290 3878 5274 3853 5255C 3828 5236 3803 5220 3798 5220C 3792 5220 3777 5211 3763 5200C 3733 5177 3690 5173 3690 5195C 3690 5203 3695 5220 3701 5233C 3710 5253 3707 5264 3681 5302C 3664 5327 3650 5356 3650 5367C 3650 5377 3634 5402 3614 5421C 3595 5439 3565 5476 3548 5503C 3532 5529 3514 5550 3509 5550C 3504 5550 3500 5556 3500 5564C 3500 5572 3489 5592 3475 5608C 3461 5625 3435 5664 3417 5696C 3384 5755 3360 5770 3331 5751zM3496 5536C 3503 5508 3495 5490 3475 5490C 3461 5490 3450 5511 3450 5541C 3450 5570 3488 5566 3496 5536zM3644 5296C 3650 5270 3643 5240 3630 5240C 3612 5240 3589 5280 3595 5299C 3604 5328 3636 5326 3644 5296zM3945 5210C 3963 5190 3963 5189 3943 5162C 3932 5147 3910 5128 3895 5120C 3879 5112 3858 5097 3848 5088C 3815 5056 3766 5070 3772 5111C 3775 5137 3884 5230 3910 5230C 3919 5230 3935 5221 3945 5210z" stroke="none" fill="#000000" fill-rule="nonzero" />
        <path d="M3520 5705C 3520 5693 3534 5671 3551 5654C 3568 5638 3591 5605 3601 5582C 3612 5558 3640 5515 3665 5487C 3690 5458 3713 5424 3717 5410C 3727 5370 3761 5310 3774 5310C 3780 5311 3795 5319 3808 5330L3808 5330L3831 5349L3802 5392C 3735 5493 3681 5577 3665 5605C 3601 5720 3606 5715 3562 5721C 3524 5726 3520 5724 3520 5705z" stroke="none" fill="#000000" fill-rule="nonzero" />
        <path d="M6434 5573C 6381 5517 6220 5293 6220 5275C 6220 5272 6205 5249 6186 5223C 6168 5196 6136 5144 6116 5105C 6096 5067 6057 5009 6030 4977C 5992 4932 5980 4911 5980 4885C 5980 4799 6003 4800 6106 4893C 6151 4933 6198 4970 6211 4977C 6365 5051 6433 5079 6473 5085C 6524 5092 6624 5132 6635 5150C 6639 5156 6635 5167 6627 5173C 6603 5193 6589 5250 6596 5302C 6603 5353 6583 5400 6555 5400C 6529 5400 6503 5436 6485 5496C 6455 5599 6457 5597 6434 5573z" stroke="none" fill="#000000" fill-rule="nonzero" />
        <path d="M3864 5530C 3867 5516 3870 5497 3870 5488C 3870 5478 3875 5470 3881 5470C 3895 5470 3885 5530 3868 5545C 3860 5552 3859 5548 3864 5530z" stroke="none" fill="#000000" fill-rule="nonzero" />
        <path d="M2344 5527C 2336 5505 2353 5485 2374 5493C 2392 5500 2396 5540 2379 5540C 2373 5540 2371 5531 2375 5518C 2380 5497 2380 5497 2366 5520C 2353 5543 2351 5543 2344 5527z" stroke="none" fill="#000000" fill-rule="nonzero" />
        <path d="M2410 5448C 2410 5430 2428 5414 2438 5424C 2441 5428 2436 5438 2427 5447C 2411 5463 2410 5463 2410 5448z" stroke="none" fill="#000000" fill-rule="nonzero" />
        <path d="M3903 5425C 3907 5392 3915 5386 3940 5400L3940 5400L3961 5411L3936 5431C 3904 5456 3899 5455 3903 5425z" stroke="none" fill="#000000" fill-rule="nonzero" />
        <path d="M4020 5325C 4020 5309 4045 5288 4053 5297C 4066 5310 4060 5328 4040 5333C 4028 5336 4020 5333 4020 5325z" stroke="none" fill="#000000" fill-rule="nonzero" />
        <path d="M4060 5264C 4060 5260 4070 5246 4081 5234C 4097 5217 4110 5212 4131 5217C 4149 5220 4160 5218 4160 5211C 4160 5205 4167 5200 4175 5200C 4206 5200 4162 5248 4127 5252C 4109 5255 4087 5260 4078 5265C 4068 5269 4060 5269 4060 5264z" stroke="none" fill="#000000" fill-rule="nonzero" />
        <path d="M4340 5210C 4340 5205 4345 5200 4350 5200C 4356 5200 4360 5205 4360 5210C 4360 5216 4356 5220 4350 5220C 4345 5220 4340 5216 4340 5210z" stroke="none" fill="#000000" fill-rule="nonzero" />
        <path d="M4173 5132C 4166 5128 4162 5112 4163 5096C 4165 5072 4160 5067 4125 5054C 4095 5043 4080 5043 4063 5051C 4045 5061 4033 5057 3986 5029C 3955 5010 3931 4991 3933 4985C 3937 4973 4032 4966 4077 4975C 4095 4978 4127 4998 4150 5020C 4173 5042 4196 5060 4201 5060C 4206 5060 4222 5067 4236 5076L4236 5076L4261 5093L4239 5116C 4216 5141 4194 5146 4173 5132z" stroke="none" fill="#000000" fill-rule="nonzero" />
        <path d="M4448 5088C 4441 5069 4450 5050 4466 5050C 4484 5050 4484 5074 4466 5089C 4456 5098 4451 5097 4448 5088z" stroke="none" fill="#000000" fill-rule="nonzero" />
        <path d="M4660 5080C 4660 5075 4665 5070 4671 5070C 4676 5070 4678 5075 4675 5080C 4672 5086 4667 5090 4664 5090C 4662 5090 4660 5086 4660 5080z" stroke="none" fill="#000000" fill-rule="nonzero" />
        <path d="M0 2540L0 0L1000 0L2000 0L1960 40C 1938 62 1916 80 1912 80C 1907 80 1894 91 1882 105C 1870 119 1854 130 1848 131C 1841 131 1844 135 1855 140C 1871 147 1871 149 1859 149C 1829 151 1826 201 1854 223C 1861 229 1858 230 1847 226C 1833 222 1830 227 1830 261C 1830 285 1834 299 1840 295C 1858 284 1875 302 1859 314C 1851 320 1839 337 1831 353C 1823 368 1814 380 1810 380C 1806 380 1805 390 1807 402C 1809 417 1801 436 1785 454C 1771 470 1760 491 1760 500C 1760 509 1741 533 1718 553C 1678 588 1672 590 1604 590C 1564 590 1521 594 1508 599C 1472 614 1413 674 1396 714C 1388 734 1376 750 1371 750C 1365 750 1360 759 1360 769C 1360 780 1356 792 1350 795C 1345 798 1340 810 1340 821C 1340 831 1336 840 1331 840C 1327 840 1315 860 1306 885C 1296 910 1283 933 1276 937C 1262 946 1220 1053 1220 1081C 1220 1091 1216 1100 1211 1100C 1206 1100 1200 1118 1196 1140C 1193 1162 1186 1180 1182 1180C 1178 1180 1175 1192 1174 1208C 1173 1259 1151 1362 1137 1384C 1124 1404 1113 1438 1105 1490C 1093 1561 1038 1763 1026 1783C 1018 1795 1007 1831 1001 1862C 995 1894 983 1934 973 1951C 932 2023 927 2036 927 2065C 927 2081 921 2100 914 2105C 907 2111 895 2138 888 2165C 881 2193 872 2217 869 2220C 857 2229 820 2334 820 2357C 820 2370 811 2385 801 2392C 788 2400 784 2408 790 2415C 796 2422 794 2452 785 2496C 776 2534 763 2601 755 2645C 747 2689 736 2739 731 2756C 725 2778 726 2792 733 2799C 740 2806 740 2810 734 2810C 725 2810 699 2851 696 2870C 695 2873 691 2881 687 2888C 682 2894 681 2904 685 2909C 688 2914 686 2921 680 2925C 675 2928 670 2940 670 2950C 670 2967 652 3016 629 3062C 624 3072 620 3087 620 3095C 620 3104 613 3113 605 3116C 595 3120 592 3129 595 3141C 599 3152 597 3160 592 3160C 587 3160 576 3177 566 3198C 533 3272 499 3332 476 3357C 462 3372 444 3404 435 3429C 425 3454 410 3481 402 3488C 393 3494 390 3500 394 3500C 399 3500 397 3506 391 3514C 385 3521 373 3550 365 3578C 357 3605 343 3633 336 3640C 328 3646 324 3658 327 3666C 330 3674 322 3692 310 3705C 298 3718 291 3733 294 3738C 297 3743 293 3767 286 3791C 278 3815 267 3880 260 3935C 253 3990 244 4042 239 4051C 235 4060 228 4109 225 4161C 217 4300 211 4342 199 4356C 193 4363 191 4374 195 4379C 201 4390 183 4507 172 4525C 168 4530 167 4545 169 4558C 170 4570 167 4580 162 4580C 154 4580 138 4654 136 4701C 135 4710 129 4724 122 4733C 115 4741 110 4754 111 4762C 114 4790 109 4809 95 4823C 81 4838 57 4911 39 4998C 31 5040 14 5080 5 5080C 2 5080 0 3937 0 2540z" stroke="none" fill="#000000" fill-rule="nonzero" />
        <path d="M4680 5048C 4680 5045 4689 5033 4700 5020C 4711 5007 4720 5001 4720 5007C 4720 5012 4711 5025 4700 5035C 4689 5045 4680 5051 4680 5048z" stroke="none" fill="#000000" fill-rule="nonzero" />
        <path d="M5624 5028C 5620 5022 5611 4992 5604 4963C 5589 4897 5602 4884 5641 4928C 5687 4980 5693 5040 5651 5040C 5640 5040 5628 5035 5624 5028z" stroke="none" fill="#000000" fill-rule="nonzero" />
        <path d="M4310 4995C 4303 4987 4289 4980 4279 4980C 4249 4980 4257 4962 4290 4955C 4313 4950 4327 4954 4355 4975C 4374 4990 4390 5004 4390 5006C 4390 5017 4321 5008 4310 4995z" stroke="none" fill="#000000" fill-rule="nonzero" />
        <path d="M4541 4946C 4534 4938 4518 4929 4505 4926L4505 4926L4480 4920L4520 4869C 4542 4841 4560 4812 4560 4804C 4560 4787 4591 4750 4605 4750C 4610 4750 4628 4761 4645 4774L4645 4774L4675 4798L4655 4832C 4627 4880 4568 4960 4559 4960C 4556 4960 4547 4954 4541 4946z" stroke="none" fill="#000000" fill-rule="nonzero" />
        <path d="M4750 4951C 4750 4945 4755 4938 4760 4935C 4766 4932 4770 4936 4770 4944C 4770 4953 4766 4960 4760 4960C 4755 4960 4750 4956 4750 4951z" stroke="none" fill="#000000" fill-rule="nonzero" />
        <path d="M3788 4943C 3757 4929 3784 4911 3925 4855C 4002 4824 4069 4795 4075 4789C 4080 4784 4090 4780 4096 4780C 4103 4780 4173 4749 4252 4711C 4412 4634 4487 4600 4496 4600C 4500 4600 4533 4586 4569 4569C 4605 4552 4645 4537 4657 4536C 4670 4536 4682 4529 4685 4523C 4687 4516 4698 4510 4708 4510C 4718 4510 4732 4504 4739 4498C 4750 4487 4751 4490 4745 4510C 4735 4543 4719 4561 4635 4632C 4597 4664 4541 4712 4511 4738C 4407 4829 4280 4919 4243 4929C 4196 4941 3811 4953 3788 4943z" stroke="none" fill="#000000" fill-rule="nonzero" />
        <path d="M4770 4906C 4770 4897 4775 4890 4780 4890C 4786 4890 4790 4894 4790 4899C 4790 4905 4786 4912 4780 4915C 4775 4918 4770 4914 4770 4906z" stroke="none" fill="#000000" fill-rule="nonzero" />
        <path d="M4825 4850C 4828 4845 4833 4840 4836 4840C 4838 4840 4840 4845 4840 4850C 4840 4856 4835 4860 4829 4860C 4824 4860 4822 4856 4825 4850z" stroke="none" fill="#000000" fill-rule="nonzero" />
        <path d="M4843 4786C 4821 4749 4670 4704 4670 4735C 4670 4754 4656 4754 4640 4735C 4630 4723 4632 4716 4651 4695C 4691 4652 4704 4648 4747 4668C 4768 4677 4796 4695 4810 4708C 4823 4720 4843 4730 4855 4730C 4867 4730 4884 4736 4894 4743C 4910 4754 4909 4757 4881 4778C 4857 4796 4849 4797 4843 4786z" stroke="none" fill="#000000" fill-rule="nonzero" />
        <path d="M3478 4670C 3497 4637 3511 4630 3503 4658C 3501 4668 3490 4681 3480 4688C 3462 4699 3462 4698 3478 4670z" stroke="none" fill="#000000" fill-rule="nonzero" />
        <path d="M4891 4645C 4868 4631 4842 4620 4836 4620C 4814 4620 4790 4586 4800 4570C 4806 4561 4810 4560 4810 4567C 4810 4573 4826 4584 4845 4590C 4893 4606 4970 4650 4970 4661C 4970 4677 4936 4670 4891 4645z" stroke="none" fill="#000000" fill-rule="nonzero" />
        <path d="M3609 4576C 3628 4556 3648 4544 3657 4547C 3667 4551 3663 4558 3642 4570C 3625 4580 3609 4593 3606 4599C 3602 4605 3594 4610 3587 4610C 3581 4610 3591 4595 3609 4576z" stroke="none" fill="#000000" fill-rule="nonzero" />
        <path d="M4995 4530C 4998 4525 5003 4520 5006 4520C 5008 4520 5010 4525 5010 4530C 5010 4536 5005 4540 4999 4540C 4994 4540 4992 4536 4995 4530z" stroke="none" fill="#000000" fill-rule="nonzero" />
        <path d="M4824 4405C 4835 4397 4846 4393 4849 4396C 4855 4402 4830 4420 4815 4420C 4810 4419 4814 4413 4824 4405z" stroke="none" fill="#000000" fill-rule="nonzero" />
        <path d="M5298 4383C 5304 4381 5316 4381 5323 4383C 5329 4386 5324 4388 5310 4388C 5296 4388 5291 4386 5298 4383z" stroke="none" fill="#000000" fill-rule="nonzero" />
        <path d="M5330 4270C 5330 4259 5337 4250 5345 4250C 5353 4250 5360 4259 5360 4270C 5360 4281 5353 4290 5345 4290C 5337 4290 5330 4281 5330 4270z" stroke="none" fill="#000000" fill-rule="nonzero" />
        <path d="M3580 4140C 3600 4127 3613 4127 3605 4140C 3602 4146 3591 4150 3582 4150C 3567 4150 3567 4148 3580 4140z" stroke="none" fill="#000000" fill-rule="nonzero" />
        <path d="M4273 3953C 4282 3951 4296 3951 4303 3953C 4309 3956 4302 3958 4285 3958C 4269 3958 4263 3956 4273 3953z" stroke="none" fill="#000000" fill-rule="nonzero" />
        <path d="M4336 3945C 4340 3937 4346 3930 4351 3930C 4355 3930 4357 3937 4354 3945C 4350 3953 4344 3960 4339 3960C 4335 3960 4333 3953 4336 3945z" stroke="none" fill="#000000" fill-rule="nonzero" />
        <path d="M4498 3843C 4504 3841 4510 3832 4510 3824C 4510 3816 4515 3810 4520 3810C 4526 3810 4530 3814 4530 3818C 4530 3830 4508 3850 4496 3849C 4490 3849 4491 3846 4498 3843z" stroke="none" fill="#000000" fill-rule="nonzero" />
        <path d="M4540 3816C 4540 3814 4547 3810 4555 3806C 4563 3803 4570 3805 4570 3810C 4570 3816 4563 3820 4555 3820C 4547 3820 4540 3818 4540 3816z" stroke="none" fill="#000000" fill-rule="nonzero" />
        <path d="M4760 3730C 4751 3724 4750 3720 4757 3720C 4763 3720 4772 3725 4775 3730C 4783 3742 4779 3742 4760 3730z" stroke="none" fill="#000000" fill-rule="nonzero" />
        <path d="M6190 3535C 6190 3530 6195 3518 6200 3510C 6205 3502 6210 3500 6210 3505C 6210 3511 6205 3522 6200 3530C 6195 3538 6190 3541 6190 3535z" stroke="none" fill="#000000" fill-rule="nonzero" />
        <path d="M6050 3501C 6050 3491 6057 3477 6065 3470C 6077 3460 6080 3460 6080 3473C 6080 3496 6069 3520 6059 3520C 6054 3520 6050 3512 6050 3501z" stroke="none" fill="#000000" fill-rule="nonzero" />
        <path d="M6055 3428C 6026 3412 6026 3412 6039 3396C 6046 3388 6049 3376 6045 3370C 6041 3363 6047 3361 6064 3366C 6080 3370 6096 3367 6105 3360C 6133 3337 6133 3359 6106 3400C 6092 3422 6079 3440 6077 3440C 6076 3440 6066 3434 6055 3428z" stroke="none" fill="#000000" fill-rule="nonzero" />
        <path d="M6125 3323C 6133 3302 6133 3301 6131 3278C 6131 3268 6124 3260 6116 3260C 6108 3260 6089 3255 6075 3250C 6050 3241 6050 3239 6065 3223C 6074 3214 6093 3190 6106 3168C 6119 3147 6135 3130 6140 3130C 6153 3130 6153 3131 6135 3174C 6116 3218 6120 3226 6161 3235C 6179 3239 6189 3245 6184 3249C 6179 3252 6166 3274 6155 3297C 6136 3338 6110 3359 6125 3323z" stroke="none" fill="#000000" fill-rule="nonzero" />
        <path d="M5922 3257C 5908 3240 5912 3215 5932 3193C 5989 3131 6055 3070 6071 3065C 6082 3061 6090 3053 6090 3045C 6090 3038 6099 3030 6110 3027C 6126 3023 6130 3027 6130 3045C 6130 3058 6124 3073 6118 3077C 6103 3086 6016 3188 5980 3238C 5955 3272 5939 3278 5922 3257z" stroke="none" fill="#000000" fill-rule="nonzero" />
        <path d="M7430 3170C 7430 3151 7462 3080 7471 3080C 7485 3080 7482 3097 7460 3140C 7440 3179 7430 3189 7430 3170z" stroke="none" fill="#000000" fill-rule="nonzero" />
        <path d="M7480 3036C 7480 3028 7485 3018 7490 3015C 7496 3012 7500 3018 7500 3029C 7500 3041 7496 3050 7490 3050C 7485 3050 7480 3044 7480 3036z" stroke="none" fill="#000000" fill-rule="nonzero" />
        <path d="M7930 2889C 7930 2884 7935 2882 7940 2885C 7946 2888 7950 2893 7950 2896C 7950 2898 7946 2900 7940 2900C 7935 2900 7930 2895 7930 2889z" stroke="none" fill="#000000" fill-rule="nonzero" />
        <path d="M7583 2714C 7589 2677 7596 2663 7605 2671C 7613 2680 7598 2750 7587 2750C 7581 2750 7580 2735 7583 2714z" stroke="none" fill="#000000" fill-rule="nonzero" />
        <path d="M7454 2667C 7446 2646 7456 2632 7470 2646C 7475 2651 7476 2661 7470 2670C 7462 2682 7460 2682 7454 2667z" stroke="none" fill="#000000" fill-rule="nonzero" />
        <path d="M7591 2644C 7591 2633 7594 2630 7597 2638C 7600 2645 7599 2654 7596 2657C 7593 2661 7590 2655 7591 2644z" stroke="none" fill="#000000" fill-rule="nonzero" />
        <path d="M7590 2606C 7590 2598 7595 2588 7600 2585C 7606 2582 7610 2586 7610 2594C 7610 2602 7606 2612 7600 2615C 7595 2618 7590 2614 7590 2606z" stroke="none" fill="#000000" fill-rule="nonzero" />
        <path d="M6570 2420C 6570 2415 6575 2410 6580 2410C 6586 2410 6590 2415 6590 2420C 6590 2426 6586 2430 6580 2430C 6575 2430 6570 2426 6570 2420z" stroke="none" fill="#000000" fill-rule="nonzero" />
        <path d="M7482 2396C 7483 2386 7490 2379 7495 2379C 7510 2380 7507 2403 7492 2408C 7483 2411 7479 2406 7482 2396z" stroke="none" fill="#000000" fill-rule="nonzero" />
        <path d="M6595 2389C 6586 2375 6595 2367 6613 2372C 6626 2374 6626 2377 6615 2387C 6605 2396 6599 2396 6595 2389z" stroke="none" fill="#000000" fill-rule="nonzero" />
        <path d="M7491 2307C 7490 2277 7494 2261 7500 2265C 7512 2272 7512 2307 7500 2335C 7494 2350 7491 2343 7491 2307z" stroke="none" fill="#000000" fill-rule="nonzero" />
        <path d="M7320 2306C 7320 2294 7385 2177 7430 2110C 7451 2080 7475 2043 7484 2028C 7503 1996 7516 1993 7522 2018C 7529 2043 7447 2174 7377 2253C 7346 2287 7321 2311 7320 2306z" stroke="none" fill="#000000" fill-rule="nonzero" />
        <path d="M7613 2303C 7596 2297 7597 2270 7614 2270C 7621 2270 7630 2279 7633 2290C 7638 2310 7635 2312 7613 2303z" stroke="none" fill="#000000" fill-rule="nonzero" />
        <path d="M1840 180C 1840 175 1847 170 1856 170C 1864 170 1868 175 1865 180C 1862 186 1855 190 1849 190C 1844 190 1840 186 1840 180z" stroke="none" fill="#000000" fill-rule="nonzero" />
	</g>
</g>
</svg>