<?xml version="1.0" encoding="UTF-8"?>
<svg xmlns="http://www.w3.org/2000/svg" xmlns:xlink="http://www.w3.org/1999/xlink" width="600px" height="600px" viewBox="0 0 600 600" version="1.1">
<g id="surface1">
<path style=" stroke:none;fill-rule:nonzero;fill:rgb(0%,0%,0%);fill-opacity:1;" d="M 0 300 L 0 600 L 600 600 L 600 363.464844 C 600 139.332031 599.933594 127.066406 598.800781 128.398438 C 598.199219 129.199219 596.800781 131 595.734375 132.398438 C 594.601562 133.867188 593.398438 135.265625 593 135.667969 C 592.601562 136 591.398438 137.464844 590.398438 138.800781 C 589.332031 140.199219 588.066406 141.332031 587.601562 141.332031 C 587.066406 141.332031 586.667969 141.800781 586.667969 142.332031 C 586.667969 143.464844 583 147.332031 582 147.332031 C 581.601562 147.332031 581.332031 147.800781 581.332031 148.332031 C 581.332031 148.867188 580.867188 149.332031 580.332031 149.332031 C 579.800781 149.332031 578.800781 149.601562 578.132812 150 C 576.464844 150.933594 570.800781 153.332031 570.332031 153.332031 C 570.066406 153.332031 569.464844 153.734375 569 154.265625 C 568.332031 154.933594 568.265625 155.332031 568.800781 155.867188 C 569.265625 156.332031 569.332031 156.867188 569.066406 157.132812 C 568.800781 157.398438 568.265625 157.199219 567.933594 156.667969 C 567.398438 155.800781 567.332031 155.867188 567.464844 156.800781 C 567.601562 157.398438 567.132812 158.332031 566.464844 158.800781 C 565.734375 159.332031 565.199219 160.800781 565.066406 163 C 564.800781 165.800781 564.464844 166.535156 562.398438 168.199219 C 561 169.332031 560 169.734375 560 169.265625 C 560 168.800781 558.535156 170.066406 556.734375 172 C 554.867188 174 553.535156 175.800781 553.667969 176.066406 C 554.398438 177.199219 547.867188 178.800781 543.535156 178.464844 C 537.734375 178.132812 526.265625 176.199219 524.667969 175.332031 C 524 174.933594 522.601562 174.667969 521.667969 174.667969 C 520.734375 174.667969 518.332031 173.933594 516.464844 173.066406 C 514.535156 172.199219 511.398438 171.265625 509.535156 171 C 507.601562 170.734375 506 170.265625 506 169.867188 C 506 169.535156 505.734375 169.398438 505.398438 169.667969 C 505.066406 169.867188 504.601562 169.734375 504.332031 169.332031 C 504.132812 169 503.265625 168.667969 502.464844 168.667969 C 501.667969 168.667969 498.464844 167.734375 495.332031 166.667969 C 488.667969 164.265625 479.066406 163.398438 473.464844 164.601562 C 471.464844 165 469.464844 165.066406 468.800781 164.734375 C 461.265625 161.066406 455.199219 159.667969 451.066406 160.734375 C 448.398438 161.398438 444.667969 161.332031 436.800781 160.464844 C 435.265625 160.332031 433.398438 159.667969 432.734375 159.066406 C 432.132812 158.464844 430.933594 158 430.199219 158 C 428.601562 158 426.199219 155.667969 427.332031 155.132812 C 427.734375 154.933594 427.667969 154.867188 427.199219 154.933594 C 426.734375 155.066406 425.265625 154.667969 424 154 C 422.734375 153.398438 419.601562 152.535156 417 152.132812 C 414.464844 151.667969 411.601562 151.199219 410.667969 150.933594 C 409.734375 150.734375 408.265625 150.398438 407.332031 150.199219 C 406.464844 149.933594 405.132812 149.199219 404.398438 148.535156 C 403.667969 147.867188 402.667969 147.464844 402.265625 147.601562 C 401.867188 147.734375 401.132812 147.535156 400.734375 147.132812 C 400.199219 146.601562 400 146.667969 400 147.332031 C 400 148.066406 399.867188 148.066406 399.199219 147.265625 C 398.734375 146.667969 396.066406 145.398438 393.332031 144.332031 C 390.601562 143.265625 387.734375 142 387 141.535156 C 386.265625 141.066406 385.132812 140.667969 384.464844 140.667969 C 383.199219 140.667969 382 140.132812 377 137.398438 C 375.535156 136.601562 372.800781 135.199219 371 134.332031 C 369.132812 133.535156 367.265625 132.398438 366.867188 131.933594 C 366.464844 131.398438 365.933594 128.332031 365.667969 125.132812 L 365.199219 119.265625 L 361.535156 117.199219 C 359.332031 116 357.601562 114.464844 357.199219 113.398438 C 356.800781 112.464844 354.734375 106.601562 352.535156 100.332031 C 350.398438 94.132812 348.464844 88.933594 348.332031 88.800781 C 348.199219 88.667969 347.066406 89.464844 345.867188 90.601562 C 343.132812 93.132812 342.601562 93.132812 340.199219 90.734375 C 339.132812 89.667969 337.066406 88.199219 335.535156 87.464844 C 329.867188 84.535156 325.332031 77 323.464844 67.464844 C 322.066406 60.066406 320.867188 58 318.066406 58 C 316.734375 58 315.132812 56.800781 311.867188 53.464844 C 308.332031 49.800781 306.601562 47.199219 303.132812 40.265625 C 300.265625 34.535156 298.265625 31.398438 297.265625 30.867188 C 296.398438 30.398438 292.199219 28.933594 288 27.601562 C 278.601562 24.535156 278.535156 24.464844 273.265625 19.933594 C 270.933594 17.867188 268.265625 15.601562 267.398438 14.933594 C 263 11.535156 258.398438 6.800781 257.601562 4.867188 C 257.066406 3.734375 255.800781 2.132812 254.734375 1.398438 L 252.800781 0 L 0 0 Z M 569 159.332031 C 569.199219 159.667969 569.066406 160 568.734375 160 C 568.332031 160 568 159.667969 568 159.332031 C 568 158.933594 568.132812 158.667969 568.265625 158.667969 C 568.464844 158.667969 568.800781 158.933594 569 159.332031 Z M 542.800781 191.132812 C 542.933594 191.464844 542.933594 240.667969 542.800781 300.464844 L 542.667969 409.332031 L 56.667969 409.332031 L 56.667969 190.667969 L 299.601562 190.667969 C 433.265625 190.667969 542.667969 190.867188 542.800781 191.132812 Z M 542.800781 191.132812 "/>
<path style=" stroke:none;fill-rule:nonzero;fill:rgb(0%,0%,0%);fill-opacity:1;" d="M 369.332031 237.667969 L 369.332031 254 L 382.667969 254 L 382.667969 343.332031 L 369.332031 343.332031 L 369.332031 376 L 434.667969 376 L 434.734375 364.800781 C 434.800781 358.667969 434.800781 351.398438 434.800781 348.667969 L 434.734375 343.667969 L 428.066406 343.464844 L 421.332031 343.265625 L 421.332031 309.464844 L 424 307.132812 C 428.734375 302.800781 433 301.066406 438.667969 301 C 444.867188 301 449.199219 302.867188 452.066406 306.867188 C 455.867188 312.132812 456 313.398438 456 346.132812 L 456 376 L 508 376 L 508 343.332031 L 494.800781 343.332031 L 494.464844 323.464844 C 494.132812 301.535156 493.734375 299.066406 489.667969 290.199219 C 485.800781 281.867188 479.464844 275.132812 472.066406 271.332031 C 456.535156 263.535156 437.601562 264.800781 424.867188 274.464844 C 423.265625 275.667969 421.867188 276.667969 421.667969 276.667969 C 421.464844 276.667969 421.332031 264.199219 421.332031 249 L 421.332031 221.332031 L 369.332031 221.332031 Z M 369.332031 237.667969 "/>
<path style=" stroke:none;fill-rule:nonzero;fill:rgb(0%,0%,0%);fill-opacity:1;" d="M 91.332031 244.199219 L 91.332031 260.398438 L 92.867188 260.398438 C 93.667969 260.398438 97.132812 260.464844 100.535156 260.535156 L 106.667969 260.667969 L 106.535156 301.800781 L 106.332031 343 L 98.867188 343.199219 L 91.332031 343.398438 L 91.332031 376 L 160.667969 376 L 160.667969 343.332031 L 146.667969 343.332031 L 146.667969 320.867188 C 146.667969 299 146.734375 298.398438 147.867188 299.667969 C 148.535156 300.398438 153.601562 306.199219 159.066406 312.601562 C 171.667969 327.332031 192.601562 351.667969 203 363.601562 C 207.398438 368.667969 211.535156 373.535156 212.199219 374.398438 L 213.464844 376 L 244.667969 376 L 244.667969 260.667969 L 247.867188 260.601562 C 249.601562 260.535156 252.933594 260.464844 255.332031 260.398438 L 259.667969 260.332031 L 259.867188 244.132812 L 260 228 L 190 228 L 190.132812 244.132812 L 190.332031 260.332031 L 194.601562 260.132812 C 196.933594 260 200.199219 260.066406 201.800781 260.332031 L 204.667969 260.734375 L 204.667969 284.066406 C 204.667969 298.066406 204.398438 307.332031 204.066406 307.199219 C 203.734375 307.066406 201.535156 304.734375 199.199219 301.933594 C 196.867188 299.199219 189.933594 290.933594 183.667969 283.601562 C 173 271.066406 167.464844 264.464844 158.265625 253.601562 C 156.132812 251.066406 150.332031 244.199219 145.464844 238.464844 L 136.601562 228 L 91.332031 228 Z M 144.933594 281.066406 C 147 283.066406 145.464844 285.667969 142.535156 285.199219 C 140.535156 284.933594 140 282.132812 141.734375 280.867188 C 143.265625 279.734375 143.667969 279.800781 144.933594 281.066406 Z M 144.933594 281.066406 "/>
<path style=" stroke:none;fill-rule:nonzero;fill:rgb(0%,0%,0%);fill-opacity:1;" d="M 283.867188 253.132812 L 283.667969 269 L 273.199219 269.199219 L 262.667969 269.398438 L 262.667969 301.933594 L 273.199219 302.132812 L 283.667969 302.332031 L 284.066406 323 C 284.332031 340.265625 284.601562 344.265625 285.601562 347.332031 C 293.398438 371.398438 310.800781 381.867188 338 378.667969 C 344.265625 378 359.667969 374.535156 360.535156 373.734375 C 361.066406 373.132812 356.933594 341.667969 356.265625 341.800781 C 355.933594 341.867188 351.667969 342.398438 346.800781 343 C 333.265625 344.734375 327.398438 343.199219 323.867188 337 C 322.398438 334.464844 322.332031 333.601562 322.132812 318.132812 L 321.933594 302 L 356 302 L 356 269.332031 L 322 269.332031 L 322 237.332031 L 284 237.332031 Z M 283.867188 253.132812 "/>
<path style=" stroke:none;fill-rule:nonzero;fill:rgb(0%,0%,0%);fill-opacity:1;" d="M 562.667969 162.734375 C 562.667969 163.066406 563 163.199219 563.332031 163 C 563.734375 162.800781 564 162.464844 564 162.265625 C 564 162.132812 563.734375 162 563.332031 162 C 563 162 562.667969 162.332031 562.667969 162.734375 Z M 562.667969 162.734375 "/>
</g>
</svg>
