<?xml version="1.0" encoding="UTF-8"?>
<svg xmlns="http://www.w3.org/2000/svg" xmlns:xlink="http://www.w3.org/1999/xlink" width="900px" height="499px" viewBox="0 0 899 499" version="1.1">
<g id="surface1">
<path style=" stroke:none;fill-rule:nonzero;fill:rgb(0%,0%,0%);fill-opacity:1;" d="M 574.46875 6.785156 C 574.308594 10.664062 574.144531 16.96875 573.984375 21.007812 C 573.660156 27.632812 571.078125 43.953125 566.394531 68.191406 C 565.425781 73.363281 564.136719 77.566406 563.328125 77.566406 C 562.683594 77.566406 561.550781 80.3125 560.90625 83.542969 C 560.261719 86.9375 558.808594 91.625 557.675781 94.046875 C 556.386719 96.472656 555.417969 100.511719 555.417969 103.097656 C 555.417969 105.84375 554.449219 108.265625 552.996094 108.914062 C 551.703125 109.398438 550.574219 110.851562 550.574219 111.984375 C 550.574219 115.699219 544.113281 129.273438 542.339844 129.273438 C 540.402344 129.273438 534.589844 141.71875 534.425781 146.242188 C 534.425781 148.019531 532.652344 151.089844 530.550781 153.027344 C 528.453125 155.128906 525.546875 159.332031 524.09375 162.402344 C 522.640625 165.472656 520.378906 168.058594 519.089844 168.058594 C 517.796875 168.058594 516.667969 168.863281 516.667969 169.835938 C 516.667969 170.804688 517.957031 171.128906 519.574219 170.640625 C 521.027344 170.15625 519.410156 172.421875 515.699219 175.8125 C 512.144531 179.367188 509.5625 182.921875 509.886719 183.894531 C 510.207031 184.863281 508.917969 186.640625 507.140625 187.769531 C 505.203125 188.902344 503.75 190.519531 503.75 191.488281 C 503.75 192.457031 502.296875 194.234375 500.519531 195.527344 C 498.746094 196.820312 497.292969 198.757812 497.292969 200.050781 C 497.292969 202.636719 490.027344 210.070312 487.605469 210.070312 C 486.636719 210.070312 485.183594 211.847656 484.375 214.109375 C 483.566406 216.375 481.628906 218.636719 480.339844 219.121094 C 479.046875 219.765625 477.917969 221.058594 477.917969 222.351562 C 477.917969 223.644531 476.464844 224.613281 474.6875 224.613281 C 472.910156 224.613281 471.457031 225.261719 471.457031 226.230469 C 471.457031 227.039062 470.003906 227.847656 468.230469 227.847656 C 466.453125 227.847656 465 228.816406 465 229.785156 C 465 232.046875 441.589844 244.167969 437.550781 244.003906 C 436.261719 244.003906 433.191406 245.136719 430.769531 246.269531 C 428.1875 247.5625 426.25 248.046875 426.25 247.398438 C 426.25 246.589844 422.375 245.621094 417.53125 245.136719 C 406.875 244.003906 400.417969 239.644531 396.378906 230.753906 C 394.925781 227.199219 390.082031 220.738281 385.722656 216.375 C 381.363281 212.011719 377.8125 207.808594 377.8125 207 C 377.8125 206.355469 376.035156 203.609375 373.777344 201.023438 C 371.515625 198.4375 369.738281 195.851562 369.738281 195.203125 C 369.738281 193.589844 353.109375 173.710938 345.683594 166.441406 C 342.453125 163.210938 334.542969 154.484375 328.246094 147.050781 C 321.785156 139.453125 315.488281 132.507812 314.519531 131.699219 C 293.371094 113.921875 280.453125 105.84375 263.984375 99.703125 C 253.167969 95.664062 248 94.695312 232.5 94.207031 C 211.347656 93.238281 198.59375 95.664062 182.125 103.097656 C 127.550781 128.144531 104.464844 195.203125 131.75 249.015625 C 133.847656 253.214844 139.175781 261.457031 143.699219 267.4375 C 148.058594 273.253906 151.769531 278.75 151.769531 279.554688 C 151.769531 280.363281 153.546875 282.304688 155.808594 284.082031 C 157.90625 285.859375 159.199219 287.796875 158.550781 288.445312 C 157.90625 289.25 158.230469 289.25 159.359375 288.765625 C 160.328125 288.121094 162.589844 289.414062 164.363281 291.675781 C 166.140625 293.9375 168.5625 295.714844 169.855469 295.714844 C 170.984375 295.714844 172.921875 297.171875 174.050781 299.109375 C 175.34375 301.046875 175.503906 302.019531 174.535156 301.371094 C 173.566406 300.886719 172.761719 301.210938 172.761719 302.179688 C 172.761719 303.3125 174.214844 304.441406 175.988281 304.925781 C 177.765625 305.410156 179.21875 306.867188 179.21875 308.160156 C 179.21875 309.449219 179.863281 310.097656 180.511719 309.613281 C 181.800781 308.804688 193.75 325.609375 193.75 328.195312 C 193.75 329.003906 190.84375 329.648438 187.292969 329.648438 C 183.738281 329.648438 180.832031 330.296875 180.832031 331.265625 C 180.832031 332.074219 178.734375 332.882812 176.3125 332.882812 C 173.890625 332.882812 171.144531 333.527344 170.175781 334.5 C 169.371094 335.304688 165.011719 336.277344 160.652344 336.761719 C 135.464844 339.023438 129.167969 339.832031 129.167969 341.125 C 129.167969 341.929688 132.074219 342.578125 135.625 342.578125 C 139.175781 342.578125 142.082031 343.386719 142.082031 344.355469 C 142.082031 346.617188 117.863281 345 116.25 342.578125 C 115.441406 341.285156 114.472656 341.609375 113.019531 343.386719 C 110.761719 346.132812 106.402344 346.617188 103.980469 344.195312 C 103.171875 343.386719 98.488281 341.929688 93.644531 341.125 L 84.765625 339.667969 L 94.292969 339.507812 C 106.5625 339.347656 104.464844 336.277344 92.03125 335.789062 C 87.1875 335.628906 81.859375 334.984375 80.40625 334.175781 C 78.628906 333.367188 77.5 333.367188 77.5 334.5 C 77.5 336.597656 69.425781 336.597656 66.199219 334.5 C 64.421875 333.367188 65.390625 332.882812 70.234375 332.71875 L 76.691406 332.558594 L 70.234375 330.457031 C 66.683594 329.164062 61.515625 328.195312 58.609375 328.195312 C 55.703125 328.035156 51.019531 327.066406 48.113281 325.773438 C 34.230469 319.792969 25.832031 317.046875 25.832031 318.5 C 25.832031 321.570312 17.4375 319.792969 8.878906 314.945312 L 0 309.9375 L 0 397.519531 L 403.324219 397.679688 C 625.003906 397.679688 827.3125 398.164062 852.984375 398.488281 L 899.324219 399.296875 L 899.324219 0 L 574.792969 0 Z M 164.042969 118.769531 C 163.558594 120.0625 163.878906 121.195312 164.847656 121.195312 C 165.816406 121.195312 162.589844 125.558594 157.746094 130.730469 C 146.765625 142.6875 138.691406 155.9375 133.6875 170.15625 C 131.425781 176.78125 129.167969 180.660156 128.035156 180.339844 C 127.066406 179.851562 125.777344 180.339844 125.292969 181.46875 C 124.808594 182.601562 124.808594 180.175781 125.292969 176.136719 C 127.550781 159.332031 139.5 138.164062 154.515625 124.425781 C 163.878906 115.863281 165.65625 114.894531 164.042969 118.769531 Z M 267.214844 126.527344 C 285.621094 136.382812 301.121094 155.9375 307.417969 177.589844 C 308.871094 182.761719 310 192.296875 310 200.375 C 310 224.128906 301.765625 244.167969 284.972656 260.972656 C 274.800781 271.152344 259.949219 279.71875 247.03125 282.625 C 242.996094 283.597656 233.308594 284.402344 225.234375 284.402344 C 195.527344 284.402344 170.015625 269.539062 154.355469 243.359375 C 148.058594 232.855469 147.410156 230.917969 150.640625 231.5625 C 151.609375 231.726562 152.578125 230.59375 152.578125 229.140625 C 152.578125 227.683594 153.0625 225.90625 153.707031 225.421875 C 154.355469 224.777344 153.871094 223.160156 152.578125 222.027344 C 151.285156 220.738281 150.640625 218.636719 151.125 217.34375 C 151.769531 215.886719 150.640625 214.757812 147.894531 213.949219 C 144.183594 213.140625 143.699219 212.171875 143.699219 205.871094 C 143.699219 200.859375 144.667969 197.789062 147.089844 195.367188 C 149.511719 192.941406 149.996094 191.648438 148.542969 190.679688 C 147.25 189.871094 147.410156 188.902344 149.1875 186.964844 C 150.640625 185.671875 151.285156 183.246094 150.800781 181.953125 C 150.15625 180.339844 150.800781 179.046875 152.417969 178.398438 C 154.355469 177.589844 154.675781 176.78125 153.386719 175.328125 C 152.09375 173.875 152.417969 172.582031 154.191406 170.640625 C 155.644531 169.1875 156.292969 168.058594 155.644531 168.058594 C 155.160156 168.058594 155.484375 167.085938 156.613281 165.792969 C 157.582031 164.5 159.683594 163.855469 160.972656 164.339844 C 162.910156 165.148438 163.394531 164.664062 162.589844 162.5625 C 161.941406 161.109375 162.425781 158.199219 163.558594 156.421875 C 165.980469 151.898438 175.988281 142.203125 177.925781 142.203125 C 178.734375 142.203125 178.894531 141.234375 178.25 140.101562 C 177.605469 139.132812 177.765625 138.648438 178.410156 139.453125 C 179.21875 140.101562 181.480469 138.96875 183.578125 137.03125 C 185.675781 135.09375 187.292969 134.445312 187.292969 135.414062 C 187.292969 136.546875 188.097656 137.355469 189.066406 137.355469 C 190.035156 137.355469 190.519531 136.382812 190.035156 135.09375 C 189.390625 133.476562 192.136719 131.535156 198.917969 128.628906 C 204.246094 126.367188 209.25 124.75 210.058594 125.394531 C 210.863281 125.882812 211.511719 125.558594 211.511719 124.589844 C 211.511719 123.78125 213.285156 123.296875 215.546875 123.617188 C 217.808594 123.78125 219.582031 123.296875 219.582031 122.648438 C 219.582031 120.0625 223.621094 121.839844 225.558594 125.234375 C 227.496094 128.464844 227.496094 128.304688 227.65625 124.75 C 227.65625 122.324219 228.625 121.195312 230.886719 121.195312 C 232.660156 121.195312 234.113281 122.164062 234.277344 123.132812 C 234.277344 124.75 234.597656 124.75 235.246094 123.132812 C 236.375 120.0625 242.1875 120.710938 242.347656 123.941406 C 242.347656 126.203125 242.671875 126.367188 243.316406 124.425781 C 245.578125 118.449219 253.003906 119.09375 267.214844 126.527344 Z M 158.230469 137.839844 C 158.230469 138.164062 156.613281 139.777344 154.675781 141.554688 L 150.964844 144.625 L 154.03125 140.910156 C 156.9375 137.515625 158.230469 136.546875 158.230469 137.839844 Z M 148.378906 227.847656 C 148.378906 229.460938 147.894531 229.140625 146.925781 227.039062 C 144.988281 222.675781 144.988281 220.089844 146.925781 223 C 147.734375 224.292969 148.378906 226.554688 148.378906 227.847656 Z M 148.378906 227.847656 "/>
<path style=" stroke:none;fill-rule:nonzero;fill:rgb(0%,0%,0%);fill-opacity:1;" d="M 257.6875 128.789062 C 256.71875 131.050781 256.878906 131.214844 258.496094 129.757812 C 259.625 128.628906 260.109375 127.335938 259.625 126.851562 C 259.140625 126.367188 258.171875 127.175781 257.6875 128.789062 Z M 257.6875 128.789062 "/>
<path style=" stroke:none;fill-rule:nonzero;fill:rgb(0%,0%,0%);fill-opacity:1;" d="M 220.714844 134.445312 C 222.003906 141.878906 222.8125 142.203125 222.8125 135.253906 C 222.8125 131.859375 222.167969 129.273438 221.199219 129.273438 C 220.390625 129.273438 220.066406 131.535156 220.714844 134.445312 Z M 220.714844 134.445312 "/>
<path style=" stroke:none;fill-rule:nonzero;fill:rgb(0%,0%,0%);fill-opacity:1;" d="M 228.464844 131.050781 C 227.816406 132.023438 227.816406 133.152344 228.300781 133.636719 C 228.785156 134.285156 229.269531 133.800781 229.269531 132.667969 C 229.269531 131.535156 230.078125 131.214844 231.046875 131.699219 C 232.175781 132.507812 231.855469 134.121094 230.078125 136.707031 C 227.65625 140.425781 227.816406 140.585938 231.207031 140.425781 C 233.308594 140.425781 233.953125 139.941406 232.824219 139.453125 C 231.207031 138.808594 231.207031 138.164062 232.660156 136.382812 C 234.597656 133.960938 233.628906 129.273438 231.046875 129.273438 C 230.238281 129.273438 228.949219 130.082031 228.464844 131.050781 Z M 228.464844 131.050781 "/>
<path style=" stroke:none;fill-rule:nonzero;fill:rgb(0%,0%,0%);fill-opacity:1;" d="M 264.144531 133.476562 C 262.691406 137.355469 263.824219 137.675781 266.082031 134.121094 C 267.214844 132.34375 267.375 130.890625 266.566406 130.890625 C 265.761719 130.890625 264.628906 132.023438 264.144531 133.476562 Z M 264.144531 133.476562 "/>
<path style=" stroke:none;fill-rule:nonzero;fill:rgb(0%,0%,0%);fill-opacity:1;" d="M 191.488281 144.140625 C 191.972656 147.050781 193.425781 150.121094 194.558594 151.089844 C 195.6875 151.898438 200.691406 160.300781 205.859375 169.671875 C 211.027344 179.046875 217 189.710938 219.097656 193.265625 L 222.8125 199.890625 L 198.109375 214.757812 C 184.546875 222.835938 172.113281 229.460938 170.660156 229.460938 C 169.046875 229.460938 167.433594 230.433594 166.949219 231.726562 C 166.464844 232.855469 163.71875 235.28125 160.652344 236.894531 C 157.582031 238.511719 155.484375 240.289062 155.96875 241.097656 C 156.453125 241.742188 158.875 241.257812 161.621094 239.964844 C 164.363281 238.511719 166.300781 238.1875 166.300781 239.15625 C 166.300781 243.519531 171.628906 241.742188 183.902344 233.503906 C 191.328125 228.65625 198.109375 224.613281 198.917969 224.613281 C 199.722656 224.613281 201.5 223.484375 202.792969 222.191406 C 206.503906 218.636719 205.214844 219.121094 189.875 227.199219 C 182.125 231.238281 175.34375 234.308594 174.859375 233.824219 C 173.890625 232.695312 176.796875 230.917969 202.144531 216.859375 C 221.199219 206.355469 222.652344 205.871094 223.136719 208.941406 C 223.621094 212.980469 233.953125 218.796875 236.375 216.535156 C 237.183594 215.726562 237.019531 212.980469 235.730469 210.070312 C 233.953125 205.707031 234.113281 204.738281 236.699219 201.828125 C 239.28125 198.921875 239.28125 198.757812 236.859375 199.730469 C 231.046875 201.992188 234.597656 198.597656 242.027344 194.71875 C 250.582031 190.519531 252.683594 188.417969 251.066406 185.832031 C 250.421875 184.863281 245.902344 186.480469 239.605469 190.035156 L 229.269531 195.851562 L 229.109375 183.085938 C 229.109375 176.136719 228.464844 167.570312 227.816406 164.015625 C 226.6875 158.847656 226.363281 160.945312 226.203125 174.035156 C 226.203125 183.246094 225.394531 190.679688 224.589844 190.679688 C 222.652344 190.679688 195.363281 145.109375 195.363281 141.71875 C 195.363281 140.261719 194.234375 138.96875 192.78125 138.96875 C 190.84375 138.96875 190.519531 140.101562 191.488281 144.140625 Z M 226.847656 200.375 C 227.332031 201.183594 227.011719 201.992188 226.203125 201.992188 C 225.234375 201.992188 224.425781 201.183594 224.425781 200.375 C 224.425781 199.40625 224.75 198.757812 225.074219 198.757812 C 225.558594 198.757812 226.363281 199.40625 226.847656 200.375 Z M 226.847656 200.375 "/>
<path style=" stroke:none;fill-rule:nonzero;fill:rgb(0%,0%,0%);fill-opacity:1;" d="M 199.722656 140.261719 C 200.691406 140.910156 201.824219 143.65625 202.308594 146.242188 C 202.953125 150.605469 202.953125 150.605469 203.277344 144.949219 C 203.4375 140.261719 202.792969 138.96875 200.691406 138.96875 C 198.753906 138.96875 198.433594 139.453125 199.722656 140.261719 Z M 199.722656 140.261719 "/>
<path style=" stroke:none;fill-rule:nonzero;fill:rgb(0%,0%,0%);fill-opacity:1;" d="M 258.011719 144.625 C 258.332031 147.695312 258.980469 150.28125 259.300781 150.28125 C 259.625 150.28125 259.949219 147.695312 259.949219 144.625 C 259.949219 141.554688 259.300781 138.96875 258.65625 138.96875 C 258.011719 138.96875 257.6875 141.554688 258.011719 144.625 Z M 258.011719 144.625 "/>
<path style=" stroke:none;fill-rule:nonzero;fill:rgb(0%,0%,0%);fill-opacity:1;" d="M 292.238281 161.59375 C 290.949219 162.402344 290.300781 163.371094 290.625 163.855469 C 291.109375 164.179688 292.886719 163.53125 294.5 162.238281 C 298.050781 159.816406 296.113281 159.167969 292.238281 161.59375 Z M 292.238281 161.59375 "/>
<path style=" stroke:none;fill-rule:nonzero;fill:rgb(0%,0%,0%);fill-opacity:1;" d="M 166.140625 162.722656 C 165.65625 166.117188 166.785156 172.257812 168.078125 173.550781 C 168.886719 174.519531 169.53125 172.582031 169.53125 168.378906 C 169.53125 164.664062 168.886719 161.59375 167.917969 161.59375 C 167.109375 161.59375 166.300781 162.078125 166.140625 162.722656 Z M 166.140625 162.722656 "/>
<path style=" stroke:none;fill-rule:nonzero;fill:rgb(0%,0%,0%);fill-opacity:1;" d="M 174.375 164.015625 C 171.628906 167.410156 173.730469 174.84375 177.28125 174.199219 C 179.21875 173.875 180.027344 172.097656 180.027344 168.21875 C 180.027344 162.078125 177.605469 160.140625 174.375 164.015625 Z M 179.21875 167.894531 C 179.21875 169.671875 178.574219 171.449219 177.765625 171.933594 C 175.988281 173.066406 174.050781 168.378906 175.34375 166.28125 C 176.796875 163.695312 179.21875 164.664062 179.21875 167.894531 Z M 179.21875 167.894531 "/>
<path style=" stroke:none;fill-rule:nonzero;fill:rgb(0%,0%,0%);fill-opacity:1;" d="M 280.453125 162.722656 C 278.515625 164.664062 279.324219 166.28125 281.746094 165.472656 C 283.035156 164.824219 284.167969 165.148438 284.167969 166.117188 C 284.167969 166.925781 283.035156 168.542969 281.746094 169.671875 C 278.355469 172.582031 278.675781 174.519531 282.714844 174.519531 C 284.972656 174.519531 285.78125 173.710938 285.296875 172.421875 C 284.8125 171.128906 285.136719 169.1875 285.78125 167.894531 C 288.042969 164.5 283.199219 159.816406 280.453125 162.722656 Z M 280.453125 162.722656 "/>
<path style=" stroke:none;fill-rule:nonzero;fill:rgb(0%,0%,0%);fill-opacity:1;" d="M 157.097656 198.113281 C 156.613281 199.40625 156.9375 201.34375 157.90625 202.316406 C 158.875 203.285156 159.199219 205.0625 158.714844 206.191406 C 157.097656 210.234375 159.683594 208.457031 162.105469 203.769531 C 163.878906 200.375 164.042969 198.757812 162.589844 197.304688 C 160.167969 194.882812 158.230469 195.042969 157.097656 198.113281 Z M 161.457031 200.375 C 161.457031 201.183594 161.136719 201.992188 160.8125 201.992188 C 160.328125 201.992188 159.519531 201.183594 159.035156 200.375 C 158.550781 199.40625 158.875 198.757812 159.683594 198.757812 C 160.652344 198.757812 161.457031 199.40625 161.457031 200.375 Z M 161.457031 200.375 "/>
<path style=" stroke:none;fill-rule:nonzero;fill:rgb(0%,0%,0%);fill-opacity:1;" d="M 290.625 197.144531 C 288.527344 198.597656 288.527344 198.757812 290.625 198.757812 C 292.078125 198.757812 293.207031 200.375 293.207031 202.636719 C 293.371094 205.707031 292.886719 206.355469 290.785156 205.707031 C 288.6875 204.898438 288.6875 205.222656 290.140625 206.839844 C 293.371094 210.394531 297.246094 207.484375 296.113281 202.476562 C 294.660156 196.496094 293.53125 195.367188 290.625 197.144531 Z M 290.625 197.144531 "/>
<path style=" stroke:none;fill-rule:nonzero;fill:rgb(0%,0%,0%);fill-opacity:1;" d="M 145.3125 200.375 C 145.3125 201.183594 147.089844 201.992188 149.347656 201.992188 C 151.609375 201.992188 153.386719 201.183594 153.386719 200.375 C 153.386719 199.40625 151.609375 198.757812 149.347656 198.757812 C 147.089844 198.757812 145.3125 199.40625 145.3125 200.375 Z M 145.3125 200.375 "/>
<path style=" stroke:none;fill-rule:nonzero;fill:rgb(0%,0%,0%);fill-opacity:1;" d="M 300.3125 200.375 C 300.3125 201.183594 301.765625 201.992188 303.542969 201.992188 C 305.316406 201.992188 306.769531 201.183594 306.769531 200.375 C 306.769531 199.40625 305.316406 198.757812 303.542969 198.757812 C 301.765625 198.757812 300.3125 199.40625 300.3125 200.375 Z M 300.3125 200.375 "/>
<path style=" stroke:none;fill-rule:nonzero;fill:rgb(0%,0%,0%);fill-opacity:1;" d="M 146.925781 208.457031 C 144.828125 209.75 144.988281 210.070312 147.410156 210.070312 C 148.863281 210.070312 150.15625 209.261719 150.15625 208.457031 C 150.15625 206.515625 149.996094 206.515625 146.925781 208.457031 Z M 146.925781 208.457031 "/>
<path style=" stroke:none;fill-rule:nonzero;fill:rgb(0%,0%,0%);fill-opacity:1;" d="M 208.925781 217.503906 C 206.019531 219.765625 206.019531 219.929688 209.574219 218.152344 C 211.511719 217.179688 213.125 216.050781 213.125 215.726562 C 213.125 214.433594 212.316406 214.757812 208.925781 217.503906 Z M 208.925781 217.503906 "/>
<path style=" stroke:none;fill-rule:nonzero;fill:rgb(0%,0%,0%);fill-opacity:1;" d="M 282.066406 233.664062 C 280.292969 235.925781 279.324219 237.867188 279.644531 238.027344 C 279.808594 238.1875 281.746094 239.320312 283.84375 240.449219 C 287.234375 242.390625 287.394531 242.226562 287.394531 235.925781 C 287.394531 228.492188 286.105469 228.007812 282.066406 233.664062 Z M 282.066406 233.664062 "/>
<path style=" stroke:none;fill-rule:nonzero;fill:rgb(0%,0%,0%);fill-opacity:1;" d="M 152.417969 232.855469 C 151.933594 233.824219 152.253906 235.441406 153.386719 236.410156 C 155 237.867188 155.160156 237.867188 154.355469 236.410156 C 153.871094 235.441406 154.675781 233.824219 156.128906 232.855469 C 158.714844 231.402344 158.714844 231.238281 156.292969 231.078125 C 154.839844 231.078125 153.0625 231.886719 152.417969 232.855469 Z M 152.417969 232.855469 "/>
<path style=" stroke:none;fill-rule:nonzero;fill:rgb(0%,0%,0%);fill-opacity:1;" d="M 290.625 237.378906 C 290.625 238.835938 295.46875 241.257812 296.4375 240.289062 C 296.761719 240.128906 295.46875 238.996094 293.855469 237.867188 C 292.078125 236.734375 290.625 236.574219 290.625 237.378906 Z M 290.625 237.378906 "/>
<path style=" stroke:none;fill-rule:nonzero;fill:rgb(0%,0%,0%);fill-opacity:1;" d="M 160.652344 247.238281 C 160.167969 248.046875 160.328125 248.855469 161.296875 248.855469 C 162.105469 248.855469 163.394531 248.046875 163.878906 247.238281 C 164.363281 246.269531 164.203125 245.621094 163.234375 245.621094 C 162.425781 245.621094 161.136719 246.269531 160.652344 247.238281 Z M 160.652344 247.238281 "/>
<path style=" stroke:none;fill-rule:nonzero;fill:rgb(0%,0%,0%);fill-opacity:1;" d="M 166.300781 253.863281 C 166.300781 254.671875 167.109375 254.996094 167.917969 254.507812 C 168.886719 254.023438 169.53125 253.214844 169.53125 252.730469 C 169.53125 252.410156 168.886719 252.085938 167.917969 252.085938 C 167.109375 252.085938 166.300781 252.894531 166.300781 253.863281 Z M 166.300781 253.863281 "/>
<path style=" stroke:none;fill-rule:nonzero;fill:rgb(0%,0%,0%);fill-opacity:1;" d="M 195.6875 254.832031 C 198.269531 255.480469 198.433594 255.964844 196.171875 260.328125 C 194.71875 262.914062 194.234375 265.011719 195.042969 265.011719 C 195.847656 265.011719 197.625 262.425781 199.078125 259.355469 L 201.824219 253.703125 L 197.300781 253.863281 C 194.71875 254.023438 194.074219 254.347656 195.6875 254.832031 Z M 195.6875 254.832031 "/>
<path style=" stroke:none;fill-rule:nonzero;fill:rgb(0%,0%,0%);fill-opacity:1;" d="M 254.457031 256.285156 C 253.003906 259.84375 253.167969 260.164062 255.910156 260.164062 C 257.203125 260.164062 258.332031 260.972656 258.332031 261.941406 C 258.332031 262.914062 257.203125 263.398438 255.910156 262.75 C 254.621094 262.265625 253.488281 262.589844 253.488281 263.398438 C 253.488281 264.367188 254.941406 265.011719 256.71875 265.011719 C 260.269531 265.011719 261.238281 259.355469 258.011719 258.0625 C 256.394531 257.417969 256.558594 256.773438 258.332031 255.480469 C 260.433594 254.023438 260.433594 253.703125 258.171875 253.703125 C 256.71875 253.703125 254.941406 254.832031 254.457031 256.285156 Z M 254.457031 256.285156 "/>
<path style=" stroke:none;fill-rule:nonzero;fill:rgb(0%,0%,0%);fill-opacity:1;" d="M 224.75 264.042969 C 223.457031 267.113281 223.457031 268.40625 225.234375 269.859375 C 226.527344 270.832031 228.300781 271.316406 229.269531 270.667969 C 231.371094 269.375 231.371094 265.011719 229.109375 265.011719 C 228.140625 265.011719 227.65625 263.882812 228.300781 262.589844 C 229.753906 258.550781 226.6875 259.84375 224.75 264.042969 Z M 229.269531 267.273438 C 229.269531 267.761719 228.625 268.566406 227.65625 269.054688 C 226.847656 269.539062 226.042969 269.214844 226.042969 268.40625 C 226.042969 267.4375 226.847656 266.628906 227.65625 266.628906 C 228.625 266.628906 229.269531 266.953125 229.269531 267.273438 Z M 229.269531 267.273438 "/>
<path style=" stroke:none;fill-rule:nonzero;fill:rgb(0%,0%,0%);fill-opacity:1;" d="M 187.292969 266.628906 C 186.324219 268.566406 185.839844 270.507812 186.160156 270.992188 C 186.644531 271.316406 187.9375 270.183594 188.90625 268.246094 C 189.875 266.304688 190.359375 264.367188 190.035156 263.882812 C 189.550781 263.558594 188.261719 264.691406 187.292969 266.628906 Z M 187.292969 266.628906 "/>
<path style=" stroke:none;fill-rule:nonzero;fill:rgb(0%,0%,0%);fill-opacity:1;" d="M 263.175781 264.203125 C 263.175781 266.628906 266.082031 270.667969 267.050781 269.699219 C 267.535156 269.214844 266.890625 267.4375 265.597656 265.660156 C 264.308594 264.042969 263.339844 263.234375 263.175781 264.203125 Z M 263.175781 264.203125 "/>
<path style=" stroke:none;fill-rule:nonzero;fill:rgb(0%,0%,0%);fill-opacity:1;" d="M 226.363281 277.132812 C 226.363281 279.71875 226.6875 280.6875 227.171875 279.070312 C 227.496094 277.617188 227.496094 275.355469 227.171875 274.222656 C 226.6875 273.253906 226.363281 274.386719 226.363281 277.132812 Z M 226.363281 277.132812 "/>
<path style=" stroke:none;fill-rule:nonzero;fill:rgb(0%,0%,0%);fill-opacity:1;" d="M 242.347656 277.292969 C 242.347656 279.070312 242.832031 279.554688 243.316406 278.261719 C 243.800781 277.132812 243.640625 275.679688 243.15625 275.191406 C 242.671875 274.546875 242.1875 275.515625 242.347656 277.292969 Z M 242.347656 277.292969 "/>
<path style=" stroke:none;fill-rule:nonzero;fill:rgb(0%,0%,0%);fill-opacity:1;" d="M 218.128906 278.910156 C 218.128906 280.6875 218.613281 281.171875 219.097656 279.878906 C 219.582031 278.75 219.421875 277.292969 218.9375 276.808594 C 218.453125 276.164062 217.96875 277.132812 218.128906 278.910156 Z M 218.128906 278.910156 "/>
<path style=" stroke:none;fill-rule:nonzero;fill:rgb(0%,0%,0%);fill-opacity:1;" d="M 234.277344 278.910156 C 234.277344 280.6875 234.761719 281.171875 235.246094 279.878906 C 235.730469 278.75 235.566406 277.292969 235.082031 276.808594 C 234.597656 276.164062 234.113281 277.132812 234.277344 278.910156 Z M 234.277344 278.910156 "/>
<path style=" stroke:none;fill-rule:nonzero;fill:rgb(0%,0%,0%);fill-opacity:1;" d="M 756.917969 405.113281 C 757.886719 405.4375 759.824219 405.4375 760.953125 405.113281 C 761.921875 404.628906 761.113281 404.304688 758.855469 404.304688 C 756.59375 404.304688 755.785156 404.628906 756.917969 405.113281 Z M 756.917969 405.113281 "/>
<path style=" stroke:none;fill-rule:nonzero;fill:rgb(0%,0%,0%);fill-opacity:1;" d="M 829.574219 405.113281 C 838.613281 405.4375 853.46875 405.4375 862.671875 405.113281 C 871.714844 404.953125 864.285156 404.628906 846.042969 404.628906 C 827.796875 404.628906 820.371094 404.953125 829.574219 405.113281 Z M 829.574219 405.113281 "/>
<path style=" stroke:none;fill-rule:nonzero;fill:rgb(0%,0%,0%);fill-opacity:1;" d="M 224.910156 430.96875 C 349.074219 431.292969 551.863281 431.292969 675.378906 430.96875 C 799.058594 430.808594 697.5 430.644531 449.660156 430.644531 C 201.984375 430.644531 100.75 430.808594 224.910156 430.96875 Z M 224.910156 430.96875 "/>
</g>
</svg>
