<?xml version="1.0" standalone="no"?>
<!DOCTYPE svg PUBLIC "-//W3C//DTD SVG 20010904//EN"
 "http://www.w3.org/TR/2001/REC-SVG-20010904/DTD/svg10.dtd">
<svg version="1.0" xmlns="http://www.w3.org/2000/svg"
 width="950.000000pt" height="534.000000pt" viewBox="0 0 950.000000 534.000000"
 preserveAspectRatio="xMidYMid meet">

<g transform="translate(0.000000,534.000000) scale(0.100000,-0.100000)"
fill="#000000" stroke="none">
<path d="M0 4380 c0 -849 2 -959 15 -954 11 5 15 -1 15 -21 0 -20 -4 -26 -15
-21 -12 4 -15 -4 -15 -40 0 -50 11 -51 37 -1 9 18 25 40 36 49 17 16 22 16 48
2 24 -12 28 -18 19 -34 -14 -26 -12 -40 5 -40 10 0 15 -10 15 -31 0 -22 4 -30
14 -26 9 4 16 -5 22 -26 10 -44 12 -50 13 -66 1 -11 4 -11 17 0 14 11 19 9 35
-11 13 -16 18 -35 15 -52 -8 -42 24 -61 70 -42 40 17 45 3 8 -23 -14 -10 -37
-28 -52 -41 l-27 -23 45 5 c25 3 63 8 86 12 33 5 48 1 87 -23 45 -27 57 -46
37 -58 -18 -11 -10 -25 15 -25 17 0 23 -4 19 -14 -7 -17 41 -27 74 -15 13 5
38 9 57 9 19 0 46 5 62 11 15 6 50 11 76 10 27 -1 81 8 120 20 104 31 177 40
184 22 3 -8 16 -19 29 -24 13 -4 24 -15 24 -24 0 -8 5 -15 11 -15 6 0 24 -13
41 -30 16 -17 35 -30 43 -30 7 0 15 -6 18 -14 4 -10 -12 -18 -59 -30 -99 -25
-130 -49 -156 -125 -14 -39 -30 -66 -40 -69 -13 -3 -16 -11 -12 -26 6 -24 -21
-96 -36 -96 -6 0 -10 -21 -10 -46 0 -25 -7 -92 -16 -149 -15 -94 -18 -104 -40
-109 -28 -7 -31 -31 -10 -71 9 -17 16 -22 19 -13 2 7 7 10 11 6 4 -3 3 -15 -2
-25 -22 -41 -19 -129 3 -93 3 5 11 10 17 10 16 0 4 -89 -18 -135 -10 -22 -19
-62 -20 -90 -2 -113 -4 -125 -23 -144 -17 -17 -26 -18 -53 -10 -18 5 -33 9
-34 9 -1 0 -4 -9 -7 -21 -7 -25 -28 -21 -42 7 -26 51 -78 123 -92 128 -19 8
-46 -15 -74 -61 -17 -27 -24 -31 -35 -22 -8 7 -18 9 -21 5 -12 -12 -7 -77 6
-86 8 -4 11 -12 7 -18 -4 -7 41 -11 141 -10 82 0 161 -2 177 -4 26 -3 30 1 41
37 24 74 16 -1 -10 -103 -26 -105 -32 -234 -20 -424 4 -61 2 -104 -4 -115 -8
-15 -10 -10 -11 25 0 23 -3 42 -7 42 -5 0 -28 -11 -53 -24 -25 -13 -64 -33
-87 -45 -24 -12 -43 -23 -43 -26 0 -13 67 -36 121 -42 l62 -6 -9 -96 c-4 -53
-8 -162 -8 -243 -1 -80 -4 -150 -9 -154 -4 -4 -8 6 -8 22 -1 25 -2 24 -10 -11
-4 -22 -8 -109 -8 -192 l-1 -153 224 0 223 0 7 102 c3 57 10 218 15 358 6 140
10 264 11 275 1 16 4 14 15 -10 l13 -30 1 51 c1 44 4 53 24 59 l22 8 -21 4
c-27 5 -34 29 -34 117 0 59 2 67 16 62 12 -4 15 -2 10 9 -6 17 19 21 29 5 8
-13 45 -13 45 0 0 5 12 16 28 24 l27 15 -32 1 c-24 0 -33 5 -34 18 -4 75 -12
108 -30 133 -11 16 -24 29 -29 29 -4 0 -11 -35 -15 -78 -4 -43 -10 -94 -15
-113 -7 -31 -8 -29 -9 23 -1 54 13 223 25 296 3 18 9 30 14 27 5 -3 16 8 25
24 10 20 12 32 4 36 -6 4 -7 14 -3 24 4 9 10 81 14 161 7 135 20 200 42 200
11 0 48 -38 48 -49 0 -6 18 -20 40 -32 23 -13 39 -28 36 -36 -3 -7 0 -15 6
-19 7 -5 8 -2 4 7 -4 8 0 5 9 -6 9 -11 18 -31 21 -45 23 -124 67 -222 103
-230 32 -7 43 -41 82 -249 46 -240 45 -231 20 -238 -11 -3 -21 -9 -21 -14 0
-5 -12 -15 -28 -24 -27 -16 -27 -16 -2 -11 14 3 37 8 51 11 23 6 28 2 37 -22
9 -23 11 -15 11 52 1 89 16 132 25 74 22 -144 36 -321 36 -455 -1 -147 -2
-157 -16 -134 l-15 25 6 -25 c14 -50 18 -160 6 -160 -16 0 -13 -32 6 -60 13
-18 17 -45 16 -107 l0 -83 999 0 999 0 -17 31 c-20 40 -39 166 -26 182 12 16
-5 77 -21 77 -9 0 -9 2 0 8 10 6 10 17 3 42 -6 19 -10 44 -10 55 1 40 30 -31
45 -112 8 -43 19 -79 25 -81 5 -2 10 -10 10 -18 0 -12 -4 -12 -25 2 -14 9 -25
12 -25 8 0 -5 9 -15 20 -22 11 -7 17 -18 14 -27 -4 -8 -1 -22 6 -30 6 -7 11
-22 10 -32 -1 -10 -1 -22 0 -28 2 -5 3 -19 4 -30 1 -16 9 -21 38 -23 l37 -3
-19 70 c-24 87 -25 91 -2 91 14 0 19 -8 20 -27 1 -16 7 -50 14 -78 l13 -50
1078 -3 c592 -1 1077 1 1077 6 0 4 -6 32 -14 62 -7 30 -13 64 -13 75 0 11 -4
50 -8 88 -5 46 -4 67 3 67 15 0 19 -21 27 -130 8 -122 22 -170 48 -170 14 0
17 4 12 18 -9 22 -36 214 -31 219 12 12 35 -55 41 -118 9 -102 13 -119 31
-119 12 0 15 6 11 23 -4 12 -9 53 -13 91 -7 68 -7 69 12 50 10 -11 37 -44 59
-74 22 -30 47 -63 55 -72 13 -17 51 -18 527 -18 l513 0 1 43 c1 23 3 33 6 22
15 -71 5 -65 99 -65 l86 0 -7 60 c-5 41 -4 60 4 60 6 0 11 -13 11 -29 0 -16 3
-43 6 -61 l7 -32 466 5 c256 4 491 11 521 16 30 6 103 15 162 20 59 5 127 17
151 25 27 9 121 19 238 26 135 8 201 16 216 26 12 8 38 14 58 14 l35 0 0 130
c0 72 -1 130 -2 130 -2 0 -32 -9 -66 -20 -73 -23 -101 -24 -156 -9 -51 14 -41
19 106 54 70 17 118 33 118 40 0 21 -120 28 -170 10 -23 -8 -51 -15 -60 -15
-10 0 -69 -16 -131 -35 l-113 -36 -105 21 c-58 11 -109 24 -114 29 -12 12 102
90 143 97 19 3 55 10 79 16 35 9 40 13 24 19 -29 11 -132 13 -186 5 -39 -7
-45 -11 -36 -22 9 -10 8 -15 -2 -18 -8 -2 -43 -14 -78 -25 -83 -27 -145 -27
-170 -2 -19 19 -19 20 10 26 27 6 29 8 13 19 -10 8 -15 20 -11 29 4 10 -2 22
-15 31 -12 9 -19 19 -15 23 4 3 13 1 19 -5 13 -13 155 -17 175 -4 30 19 -37
52 -105 52 -69 0 -123 11 -119 24 7 22 139 116 163 116 13 0 31 8 41 18 30 31
92 62 136 68 23 3 62 15 87 27 25 11 55 25 68 30 12 6 22 16 22 24 0 7 11 18
25 25 57 26 7 24 -97 -4 -141 -37 -159 -39 -173 -12 -9 18 -26 40 -103 135
-25 30 -45 39 -36 16 2 -7 -27 -43 -66 -81 -70 -68 -71 -68 -113 -62 -23 4
-50 7 -59 7 -28 0 -21 14 26 50 65 52 166 147 166 158 0 5 -14 21 -31 35 -24
21 -29 30 -23 48 5 13 7 26 6 31 -1 4 5 7 13 7 21 0 19 20 -2 21 -15 0 -14 3
5 16 12 8 22 23 22 31 0 13 2 14 13 3 10 -11 10 -14 0 -18 -21 -8 -15 -20 17
-33 16 -7 27 -17 24 -22 -9 -14 47 -69 60 -59 6 5 31 12 56 15 25 4 65 11 90
16 25 5 177 35 338 66 l292 58 0 28 0 28 -62 -6 c-35 -3 -186 -31 -337 -60
-150 -30 -276 -53 -278 -50 -8 7 66 36 93 36 12 0 26 5 29 10 4 6 16 9 28 8
28 -3 169 22 182 32 6 4 28 11 50 14 111 18 126 22 126 31 0 17 -30 17 -105 1
-39 -9 -138 -29 -221 -45 -82 -16 -158 -32 -167 -36 -12 -5 -18 -3 -18 6 0 12
-2 12 -9 1 -6 -11 -10 -10 -15 3 -6 16 -8 16 -31 1 -25 -16 -57 -21 -68 -10
-3 3 -2 16 3 28 9 26 2 76 -12 76 -5 0 -21 -14 -35 -30 -32 -38 -39 -38 -48 3
-11 41 -8 65 9 102 8 17 20 45 26 62 7 18 17 33 22 33 15 0 38 66 38 108 0 62
-24 107 -76 142 -56 37 -164 93 -164 84 0 -4 -7 -1 -15 6 -8 7 -22 10 -30 6
-9 -3 -13 -2 -10 4 3 6 -4 10 -16 10 -29 0 -19 -10 46 -45 28 -15 54 -30 58
-35 17 -15 -10 -19 -37 -5 -26 14 -27 13 -21 -5 4 -12 2 -20 -4 -20 -6 0 -11
8 -12 18 0 15 -1 15 -8 -2 -5 -14 -10 -16 -15 -8 -4 7 -15 12 -25 12 -10 0
-32 7 -47 15 -16 8 -45 18 -65 21 -21 4 -51 19 -68 35 -17 16 -50 33 -72 39
-73 20 -157 77 -180 123 -21 40 -22 41 -30 18 -5 -12 -6 -27 -3 -33 4 -6 3
-13 -2 -17 -12 -8 -67 -111 -62 -116 15 -15 272 -137 453 -214 77 -33 141 -64
142 -68 3 -8 -83 -183 -95 -193 -3 -3 -2 1 2 8 9 15 2 15 -82 1 -45 -7 -79 -8
-102 -2 -39 11 -93 -2 -87 -20 2 -7 47 -21 100 -32 53 -11 97 -22 97 -26 0 -3
-15 -14 -34 -24 -27 -15 -38 -16 -48 -7 -18 15 -38 -3 -38 -34 0 -13 -16 -35
-43 -57 l-43 -35 -48 35 c-52 38 -163 143 -151 143 4 0 38 -9 74 -19 117 -34
180 -44 196 -31 22 18 18 40 -6 40 -11 0 -68 16 -127 35 -153 51 -173 53 -206
21 -14 -15 -26 -32 -26 -37 0 -6 -6 -9 -12 -7 -7 3 -33 -1 -57 -9 -59 -17 -93
-16 -136 4 -41 20 -49 15 -40 -26 5 -23 13 -31 33 -33 24 -3 27 -6 23 -38 -3
-39 -23 -59 -31 -32 -10 31 -33 72 -41 72 -5 0 -14 18 -20 40 -13 44 -35 56
-25 14 16 -64 18 -84 8 -84 -13 0 -38 82 -47 156 -6 46 -4 52 14 57 13 3 21
-1 23 -12 3 -12 5 -11 10 5 4 15 -6 34 -38 70 -24 27 -44 54 -44 60 0 6 -14
26 -30 44 -17 18 -30 37 -30 42 0 4 -7 8 -15 8 -8 0 -15 7 -15 15 0 8 -6 15
-14 15 -8 0 -44 29 -80 65 -36 36 -70 65 -76 65 -5 0 -10 5 -10 10 0 6 -8 14
-17 17 -10 4 -23 12 -30 17 -34 30 -43 36 -53 36 -5 0 -10 7 -10 15 0 7 -7 18
-17 23 -12 7 -15 18 -10 47 4 21 1 47 -5 59 -10 19 -10 20 5 7 15 -12 17 -11
17 3 0 10 -8 16 -23 16 -16 0 -28 10 -40 33 l-16 32 6 -57 c4 -45 2 -60 -11
-73 -16 -16 -23 -71 -8 -61 4 2 14 0 22 -5 13 -9 13 -10 0 -6 -16 4 -33 -9
-43 -33 -3 -8 -6 1 -8 20 l-2 35 -6 -35 c-4 -20 -2 -38 4 -42 6 -5 6 -8 -1 -8
-7 0 -14 -7 -18 -15 -7 -20 4 -46 17 -38 6 3 7 1 3 -5 -4 -6 -3 -19 3 -29 18
-36 79 -189 85 -216 5 -20 3 -27 -8 -27 -11 0 -13 -9 -9 -37 3 -21 10 -46 14
-55 5 -9 9 -27 9 -40 -1 -22 -1 -22 -15 -4 -8 10 -19 44 -25 75 -15 80 -39
171 -55 206 -22 49 -71 167 -85 205 -7 19 -25 62 -41 95 -20 43 -31 87 -38
155 -5 52 -18 124 -29 160 -11 36 -23 79 -26 95 -4 17 -12 42 -18 58 -10 25
-12 26 -24 10 -14 -19 -15 -17 -19 67 -1 14 -8 38 -17 54 -15 29 -16 29 -22 8
-5 -13 0 -44 10 -74 17 -53 15 -158 -6 -212 -5 -14 -7 -47 -3 -74 6 -51 -15
-102 -42 -102 -7 0 -15 -7 -18 -14 -5 -13 -85 -43 -91 -34 -2 2 -15 19 -29 39
-30 39 -26 57 7 34 30 -21 59 -18 84 8 26 27 27 40 7 57 -13 11 -15 8 -15 -16
l-1 -29 -17 28 c-9 15 -20 27 -24 27 -5 0 -8 7 -8 16 0 14 -2 13 -17 -1 -16
-16 -17 -16 -24 2 -4 11 -14 23 -23 26 -9 4 -16 11 -16 18 0 6 7 8 17 5 16 -6
16 -6 0 12 -15 17 -16 21 -3 31 16 13 21 134 10 214 l-6 37 -49 -6 c-34 -5
-49 -3 -49 5 0 6 18 11 44 11 36 0 46 4 51 20 7 21 -12 89 -30 105 -6 6 -20
23 -33 39 -12 16 -22 26 -22 23 0 -3 -11 4 -25 17 -14 13 -58 35 -98 50 -79
29 -91 31 -82 16 4 -6 3 -10 -2 -9 -4 1 -19 1 -33 0 -20 -1 -22 -3 -10 -11 21
-14 -5 -13 -31 1 -11 6 -25 9 -30 7 -6 -2 20 -26 57 -53 37 -27 62 -51 55 -53
-7 -2 -20 3 -30 12 -10 10 -35 21 -54 27 -20 5 -50 23 -67 40 -16 17 -31 28
-31 25 -5 -23 -2 -32 11 -38 10 -4 7 -7 -11 -7 -15 -1 -32 6 -39 14 -7 8 -17
15 -22 15 -48 0 -212 192 -279 328 -16 32 -29 45 -51 49 -16 3 -32 13 -36 21
-8 22 -43 55 -50 48 -8 -8 19 -56 32 -56 18 -1 48 -49 41 -69 -7 -22 4 -53 16
-45 5 3 6 -2 3 -11 -5 -11 0 -18 13 -21 10 -3 31 -26 45 -52 15 -26 49 -69 77
-97 28 -27 51 -56 51 -64 0 -11 -4 -10 -19 5 -10 10 -48 48 -85 83 -37 35 -78
86 -93 113 -35 64 -41 54 -10 -15 26 -56 88 -286 91 -340 2 -30 24 -169 63
-395 12 -70 13 -96 5 -101 -7 -4 -11 -18 -11 -32 7 -190 -2 -437 -17 -475 -5
-12 -24 -34 -42 -49 l-33 -28 -34 33 c-27 27 -37 49 -56 124 -33 137 -44 150
-85 99 -22 -28 -23 -28 -38 -8 -14 17 -17 18 -26 5 -24 -37 -4 -296 31 -399
11 -30 17 -56 15 -58 -2 -2 -32 -4 -67 -4 -65 -1 -127 17 -314 90 -44 17 -81
31 -82 31 -2 0 -3 -8 -4 -17 -1 -35 -51 94 -75 192 -56 230 -98 365 -115 365
-5 0 -8 3 -7 8 3 8 -14 53 -47 127 -13 28 -28 69 -34 93 -13 46 -31 57 -31 18
0 -34 46 -152 85 -216 40 -66 44 -81 50 -156 6 -64 8 -80 28 -194 12 -65 25
-102 67 -195 5 -11 13 -35 18 -54 4 -19 13 -36 20 -39 8 -2 10 3 5 15 -13 34
21 -9 41 -52 10 -22 23 -49 28 -60 7 -16 5 -16 -11 4 -26 29 -26 22 -2 -26 11
-21 23 -51 27 -68 6 -28 5 -29 -8 -10 -8 11 -29 45 -46 75 -44 76 -113 147
-204 208 -57 38 -76 56 -71 68 3 9 0 20 -8 25 -11 7 -11 9 4 9 22 0 24 45 2
54 -9 3 -15 18 -15 36 0 16 -4 30 -10 30 -5 0 -10 8 -10 18 0 14 2 15 10 2 15
-23 12 -7 -5 28 -9 17 -21 29 -28 26 -8 -2 -12 7 -13 26 -1 16 2 27 6 25 5 -3
11 3 16 13 12 28 14 71 4 77 -6 3 -10 15 -10 26 0 10 -5 19 -11 19 -7 0 -10
13 -7 34 2 19 0 32 -4 30 -4 -3 -8 -11 -8 -17 0 -7 -13 -21 -27 -31 -21 -16
-25 -17 -20 -4 10 29 -6 29 -19 1 -9 -21 -13 -23 -14 -10 -2 9 -3 23 -4 30 -1
6 1 21 5 33 9 27 -5 51 -44 70 -18 9 -43 28 -57 41 -14 14 -41 33 -60 43 -70
37 -141 111 -177 184 l-34 71 4 -51 c2 -28 11 -65 20 -83 8 -17 12 -29 8 -26
-5 2 -22 -10 -38 -28 -28 -31 -30 -40 -39 -152 -17 -219 -4 -398 28 -379 8 5
9 -7 3 -47 -9 -64 -9 -60 0 -214 6 -85 4 -146 -6 -210 -9 -56 -13 -150 -11
-250 1 -88 -2 -198 -7 -245 -6 -47 -13 -137 -16 -200 -4 -63 -13 -134 -21
-158 -8 -23 -14 -57 -15 -75 0 -18 -7 -54 -14 -82 l-13 -50 -1 42 c-1 33 -4
41 -16 37 -18 -7 -19 -2 -1 39 9 22 11 47 6 73 -7 38 -7 38 -18 14 -9 -21 -11
-22 -11 -5 0 11 4 37 8 59 11 44 3 83 -10 50 -4 -10 -6 15 -3 56 5 70 4 73
-10 50 -15 -25 -15 -25 -16 17 0 39 18 73 40 73 13 0 23 -72 11 -80 -12 -7 2
-60 26 -95 12 -19 13 -19 13 5 0 14 -7 34 -15 44 -23 30 -17 44 6 16 l21 -24
-5 74 c-3 41 -8 89 -12 105 -4 20 0 45 14 78 17 39 21 70 21 150 0 56 7 145
15 197 15 96 20 361 9 419 -4 17 -13 31 -20 31 -16 0 -19 16 -4 25 15 9 12 25
-4 25 -15 0 -34 29 -57 83 -13 31 -21 33 -43 12 -8 -8 -21 -15 -28 -15 -8 0
-19 -5 -26 -12 -9 -9 -13 -7 -18 6 -4 11 -1 21 7 26 11 7 10 10 -4 16 -24 9
-47 56 -40 82 4 17 1 22 -13 23 -11 0 -5 5 13 10 17 5 34 18 38 28 6 20 -39
112 -80 162 -12 15 -27 54 -34 87 -13 69 -38 97 -83 94 -24 -2 -29 1 -24 14 3
8 6 20 6 26 0 6 9 3 21 -8 12 -11 23 -14 27 -8 4 5 19 10 34 11 23 1 71 18
288 103 27 11 54 31 68 50 19 29 22 30 22 11 0 -11 5 -21 11 -21 5 0 16 -15
24 -34 19 -44 38 -58 24 -17 -16 46 -8 84 19 86 22 2 27 -9 24 -48 -2 -24 46
-99 59 -92 5 4 16 1 25 -5 11 -10 12 -16 2 -27 -9 -11 -8 -13 3 -11 8 2 17 7
20 12 4 4 10 3 13 -3 4 -6 0 -14 -8 -17 -9 -3 -16 -12 -16 -19 0 -14 156 -165
170 -165 5 0 14 8 19 18 10 20 12 33 13 93 0 31 4 37 34 48 19 7 38 10 43 6 5
-3 12 3 16 14 3 10 24 31 46 46 46 30 47 39 3 26 -16 -4 -59 -6 -96 -4 -58 3
-70 0 -87 -18 -19 -21 -20 -21 -45 -3 -26 20 -36 43 -35 84 0 20 3 18 15 -15
8 -22 23 -49 34 -59 18 -19 19 -19 16 8 -3 21 0 26 12 21 10 -4 13 0 9 12 -11
42 -11 48 1 45 8 -1 11 2 8 7 -11 16 11 22 24 6 7 -8 9 -15 5 -15 -4 0 -1 -8
6 -17 8 -9 9 -14 4 -11 -6 4 -12 -2 -12 -13 -1 -10 3 -19 8 -19 6 0 7 5 4 10
-9 14 8 13 23 -2 20 -20 24 14 7 54 -17 42 -5 60 23 35 9 -8 28 -18 42 -22 14
-4 40 -16 59 -26 18 -11 35 -18 38 -16 6 7 -60 58 -137 107 -44 28 -69 49 -65
58 2 7 1 11 -4 8 -11 -7 -46 32 -38 41 4 3 7 1 7 -5 0 -7 5 -12 11 -12 6 0 9
9 6 20 -8 31 26 25 45 -8 26 -43 103 -111 135 -117 15 -4 45 -16 66 -26 l37
-20 -4 36 c-3 20 -10 42 -16 50 -8 10 -5 23 11 54 24 48 39 60 39 34 1 -12 7
-6 19 17 l19 35 4 -29 c2 -23 10 -31 48 -43 56 -19 54 -17 40 -42 -14 -28 8
-28 43 -1 32 25 59 25 82 0 37 -40 46 12 20 110 -15 56 -20 160 -8 160 4 0 17
-9 29 -21 46 -43 52 14 7 79 -46 69 -28 124 78 236 80 84 119 136 102 136 -5
0 -31 -24 -59 -53 -77 -79 -196 -167 -235 -173 -24 -3 -44 1 -66 15 -46 29
-44 58 6 79 21 9 46 29 55 45 9 16 25 31 36 34 11 3 20 9 20 13 0 9 -85 20
-152 20 -51 0 -58 6 -32 25 20 14 12 65 -11 65 -27 0 -35 39 -35 174 0 128 -1
136 -24 161 -20 22 -25 23 -36 10 -17 -21 -26 -12 -60 55 -45 89 -37 187 21
268 19 26 76 37 98 19 8 -7 32 -39 54 -72 23 -35 36 -50 33 -35 -17 66 -18 80
-8 80 7 0 9 20 5 56 l-6 57 31 -5 c31 -4 31 -4 16 23 -18 36 -18 43 2 35 15
-6 15 -4 0 18 -17 27 -6 45 14 21 7 -8 16 -15 20 -15 10 0 7 56 -3 66 -4 4 -7
11 -7 15 0 16 83 -30 111 -61 45 -49 47 -27 4 35 -21 31 -35 58 -32 61 3 3 26
-13 51 -36 46 -42 46 -42 35 -12 -6 16 -19 38 -30 48 -21 19 -25 44 -8 44 8 0
7 6 -2 16 -12 15 -11 16 11 9 14 -4 37 -8 52 -7 15 0 30 -4 33 -9 4 -5 16 -14
27 -20 17 -9 13 0 -16 41 -21 30 -43 69 -48 87 -6 21 -19 38 -34 45 -13 6 -24
15 -24 20 0 11 7 10 40 -7 83 -43 109 -37 40 9 -44 29 -47 41 -24 102 15 39
15 44 0 65 -10 15 -16 44 -16 76 0 51 1 53 36 68 65 27 121 11 131 -38 7 -34
39 -49 98 -46 23 2 46 0 52 -4 6 -4 13 5 17 23 3 17 9 30 14 30 14 0 43 -72
40 -100 -1 -14 8 -39 21 -56 17 -24 23 -48 26 -110 3 -46 1 -68 -3 -54 -5 17
-10 21 -16 12 -4 -7 -4 -21 -1 -33 4 -11 1 -27 -7 -36 -9 -12 -9 -15 0 -9 6 4
12 3 12 -2 0 -12 -29 -24 -41 -16 -5 3 -9 -4 -9 -15 0 -29 -14 -26 -28 4 -15
32 -47 35 -39 3 4 -12 2 -27 -4 -34 -6 -8 4 -40 32 -100 23 -49 60 -143 84
-210 40 -113 64 -170 65 -151 0 5 -5 18 -11 30 -10 20 -10 20 4 7 8 -8 18 -25
22 -37 5 -18 3 -22 -10 -17 -16 7 -16 6 60 -194 15 -40 24 -76 20 -80 -8 -8
-55 47 -55 66 0 8 -5 10 -12 6 -8 -5 -9 -2 -5 10 4 11 3 15 -4 11 -5 -4 -21 5
-35 20 -13 14 -29 23 -34 20 -6 -3 -10 -2 -10 3 0 4 -8 17 -18 28 -10 10 -30
36 -46 57 -16 21 -31 36 -33 33 -11 -11 58 -107 141 -195 50 -53 78 -85 63
-71 -20 18 -30 21 -36 12 -10 -17 -94 69 -86 89 5 14 -51 76 -65 72 -3 -1 -7
1 -10 4 -3 4 1 3 9 -2 17 -10 14 -3 -34 72 -22 35 -44 63 -50 63 -12 1 -41 43
-86 123 -25 46 -37 57 -52 53 -12 -3 -17 0 -14 7 2 7 -6 20 -18 29 l-22 17 14
-41 c8 -23 20 -50 28 -62 20 -27 19 -46 0 -20 -10 13 -14 15 -15 5 0 -11 -5
-9 -21 5 -35 30 37 -97 94 -167 26 -33 47 -65 47 -72 0 -6 -5 -4 -11 5 -5 10
-23 32 -39 50 -16 17 -50 66 -75 108 -40 69 -48 77 -75 77 -33 0 -37 -12 -15
-41 11 -14 12 -22 4 -27 -8 -5 -8 -13 1 -29 14 -27 3 -41 -14 -17 -7 9 -17 17
-22 17 -4 0 -3 -5 4 -12 20 -20 14 -31 -14 -24 -14 4 -24 3 -21 -1 3 -4 -1
-13 -8 -20 -11 -10 -19 -8 -40 9 l-28 21 13 -22 c16 -32 10 -34 -34 -10 -21
11 -40 18 -43 15 -6 -6 43 -72 66 -89 9 -7 26 -24 39 -38 l23 -26 -61 -23
c-62 -23 -110 -54 -110 -70 0 -17 83 -50 152 -62 54 -10 75 -9 103 1 l36 12
69 -74 c39 -42 90 -87 114 -101 42 -24 44 -28 40 -62 -3 -27 -1 -34 8 -28 7 4
10 4 6 0 -4 -5 -2 -20 3 -34 8 -22 8 -23 -6 -12 -8 7 -18 10 -21 7 -3 -3 1
-49 9 -101 15 -96 54 -183 86 -194 18 -6 13 14 -33 142 -34 93 -43 135 -19 83
58 -122 76 -157 79 -154 3 2 -14 42 -35 88 -22 46 -36 86 -30 87 5 2 9 11 9
19 0 12 3 13 14 4 13 -11 13 -6 1 36 -7 26 -16 57 -21 68 -7 17 -6 18 8 8 8
-7 26 -40 39 -74 21 -53 66 -116 75 -106 6 5 -130 314 -172 391 -36 67 -36 69
-11 50 15 -10 27 -23 27 -28 0 -4 13 -25 28 -45 41 -52 112 -177 112 -195 0
-10 -6 -13 -16 -9 -11 4 -8 -5 9 -30 13 -19 34 -67 47 -106 12 -39 26 -71 31
-71 13 0 11 17 -2 26 -6 3 -9 15 -6 25 3 11 1 16 -5 13 -6 -4 -8 1 -4 12 3 11
-1 33 -10 49 -21 39 -35 75 -29 75 2 0 25 -40 51 -90 25 -49 50 -90 55 -90 5
0 -5 22 -21 50 -16 27 -43 80 -61 117 -17 37 -44 93 -60 124 -36 70 -37 83 -4
45 14 -16 25 -33 25 -38 0 -4 8 -8 17 -8 10 0 47 -28 82 -62 36 -35 55 -51 43
-37 -12 14 -22 30 -22 35 0 11 -118 127 -178 177 -18 15 -31 31 -27 37 4 6 -1
7 -12 3 -14 -5 -16 -3 -6 7 10 11 9 16 -5 27 -10 9 -11 12 -2 7 16 -9 9 3 -35
56 -19 23 -19 23 13 -3 18 -14 54 -49 79 -77 47 -51 72 -66 53 -29 -6 11 -9
25 -7 32 2 7 14 -6 26 -28 13 -25 19 -31 15 -15 l-6 25 28 -27 c16 -14 46 -43
67 -62 21 -20 71 -55 110 -78 80 -47 90 -55 100 -80 14 -38 -12 -29 -95 32
-26 19 -30 20 -18 5 8 -11 25 -28 38 -38 12 -10 22 -23 22 -28 0 -5 15 -31 34
-58 19 -27 32 -51 29 -54 -8 -9 91 -177 108 -182 16 -6 87 -55 77 -55 -2 0
-19 7 -36 16 -39 19 -56 10 -47 -25 10 -40 62 -88 111 -101 24 -7 41 -16 38
-21 -3 -5 -2 -9 3 -9 13 1 49 33 62 55 10 17 11 15 9 -19 -3 -38 -2 -40 43
-55 26 -9 53 -21 60 -26 8 -6 30 -19 49 -29 19 -11 64 -49 99 -85 56 -57 63
-62 57 -37 -4 18 -3 25 4 21 5 -3 10 -22 10 -41 0 -19 5 -34 10 -34 13 0 13
66 0 91 -6 10 -16 19 -21 19 -6 0 -24 11 -41 25 -20 17 -24 25 -14 25 9 0 16
4 16 8 0 9 -97 100 -126 119 -16 11 -15 11 7 3 15 -5 29 -7 32 -4 2 3 -1 26
-8 52 -7 26 -16 60 -19 75 -4 15 -10 26 -14 23 -5 -3 -4 15 2 39 7 29 14 41
23 38 9 -4 11 0 6 13 -3 11 -9 21 -12 24 -3 3 -11 19 -17 35 -6 17 -15 39 -19
49 -8 19 -8 19 23 1 36 -22 39 -28 48 -93 3 -26 8 -49 10 -51 3 -4 39 9 107
38 27 12 36 21 35 36 -3 18 -12 20 -75 23 -63 2 -71 5 -66 20 6 18 57 68 74
74 6 2 7 11 4 19 -5 15 -10 15 -47 2 -23 -8 -50 -13 -61 -11 -25 4 -35 28 -12
28 13 0 16 8 13 43 l-3 42 40 1 c22 1 52 4 68 9 26 7 27 6 18 -18 -5 -13 -8
-33 -6 -43 2 -11 4 -27 4 -37 1 -9 12 -23 26 -29 14 -6 25 -17 25 -25 0 -7 8
-21 18 -31 10 -10 24 -44 32 -75 12 -51 18 -60 53 -80 61 -34 59 -49 -5 -30
-29 9 -96 18 -148 20 l-95 4 1 -64 c2 -115 12 -154 45 -177 27 -20 34 -19 30
4 -1 5 6 6 15 2 13 -5 13 0 -5 29 -12 20 -21 38 -21 41 0 9 37 3 50 -8 12 -11
12 -10 1 4 -7 9 -9 23 -5 29 4 8 3 9 -4 5 -7 -4 -12 -1 -12 7 0 8 -7 20 -15
27 -22 18 -11 24 14 9 11 -7 24 -10 28 -5 4 4 0 12 -10 17 -9 6 -17 15 -17 20
0 6 4 7 10 4 6 -3 10 4 10 16 0 20 3 21 47 15 57 -8 61 -11 40 -34 -26 -28
-21 -47 21 -75 41 -29 119 -50 128 -36 9 15 37 10 31 -6 -7 -17 3 -25 63 -47
32 -12 38 -17 22 -17 -13 -1 -31 3 -41 8 -10 6 -41 13 -70 17 l-52 7 25 -38
c33 -48 72 -131 79 -170 5 -25 4 -24 -12 10 -10 22 -20 35 -23 30 -2 -6 -3 -4
-2 2 7 26 -33 94 -89 153 -32 34 -60 60 -63 58 -2 -3 9 -25 25 -51 37 -57 51
-106 51 -177 0 -30 6 -65 13 -76 32 -56 57 -104 53 -104 -2 0 -14 16 -26 35
-26 42 -40 45 -40 8 0 -16 -7 -46 -14 -68 -12 -33 -12 -44 -1 -65 7 -14 30
-82 50 -150 20 -69 48 -163 62 -209 l24 -84 16 29 c22 41 17 109 -13 160 l-25
43 26 7 c28 7 60 -14 70 -47 4 -11 11 -17 16 -14 16 11 10 44 -11 55 -11 6
-20 14 -20 18 0 9 53 42 67 42 4 0 41 -31 82 -70 41 -38 77 -67 81 -65 19 12
42 -8 37 -33 -3 -14 2 -36 10 -49 14 -22 14 -23 -2 -17 -15 6 -16 4 -5 -15 9
-17 14 -20 25 -11 10 8 15 8 20 0 4 -6 4 -14 1 -17 -3 -4 -6 -1 -6 6 0 8 -8 6
-26 -5 -17 -12 -22 -20 -15 -27 8 -8 14 -8 22 0 15 15 49 4 49 -16 0 -9 9 -22
20 -29 11 -7 20 -19 20 -28 0 -19 25 -13 25 7 1 27 54 11 102 -30 50 -43 62
-46 43 -12 -10 20 -9 21 17 15 15 -4 34 -12 42 -18 12 -9 13 0 7 59 -4 39 -9
84 -13 100 -3 17 -2 27 1 24 8 -8 33 -92 47 -159 5 -24 15 -50 22 -57 11 -11
15 -7 25 20 12 33 56 65 67 47 9 -15 -17 -180 -37 -233 -7 -18 -8 -31 -2 -35
5 -4 18 -20 28 -36 21 -33 15 -37 76 43 14 18 33 42 43 53 27 33 20 32 -22 -1
-49 -39 -101 -43 -101 -8 0 12 4 38 9 57 5 19 12 65 16 102 l7 68 54 32 c30
18 54 38 54 46 0 7 -20 31 -44 55 l-45 42 23 22 c18 17 25 19 39 8 9 -6 14
-15 10 -18 -3 -4 -1 -7 5 -7 7 0 12 -6 12 -13 0 -8 7 -14 15 -14 8 0 15 3 15
6 0 13 -40 71 -49 71 -13 0 -29 48 -34 103 -3 36 0 52 12 64 18 19 18 22 -1
34 -10 7 -10 9 0 9 16 0 15 18 -3 36 -9 10 -13 24 -9 40 4 15 2 24 -6 24 -8 0
-11 16 -8 50 1 28 0 50 -4 50 -5 0 -8 -15 -9 -32 l-1 -33 -10 28 c-5 15 -13
27 -18 27 -8 0 -15 37 -26 133 -6 51 9 65 26 25 8 -18 9 -12 5 25 -4 30 -2 47
4 47 6 0 11 -10 11 -22 0 -19 2 -20 11 -8 8 12 9 9 5 -11 -3 -15 0 -34 9 -45
13 -17 14 -12 15 56 1 62 3 71 12 50 13 -32 19 -67 18 -105 0 -17 6 -53 14
-80 9 -27 13 -59 10 -71 -3 -12 1 -35 9 -50 8 -16 12 -35 9 -43 -2 -8 0 -11 6
-7 23 14 23 -71 -1 -102 -7 -9 0 -21 25 -45 19 -18 40 -43 47 -55 6 -12 15
-22 19 -22 11 0 31 49 22 55 -5 3 -10 0 -12 -7 -3 -8 -7 -6 -11 5 -7 19 5 22
34 6 11 -5 17 -14 14 -20 -4 -5 0 -9 8 -9 17 0 27 -21 27 -58 0 -21 -2 -24
-10 -12 -13 20 -12 4 1 -43 5 -21 14 -35 20 -32 5 4 9 1 9 -4 0 -6 -6 -11 -12
-11 -9 0 -10 -3 -2 -8 6 -4 17 -24 24 -45 11 -35 20 -43 86 -73 40 -19 76 -39
79 -44 8 -13 25 -13 25 0 0 6 -5 10 -10 10 -6 0 -22 11 -37 24 l-25 24 63 20
c35 11 82 25 104 30 39 9 40 9 13 17 -27 7 -39 25 -18 25 5 0 39 14 74 30 l65
31 258 9 c142 5 339 18 438 29 99 11 225 21 281 21 84 0 105 3 122 19 l22 18
0 1437 0 1436 -473 0 c-303 0 -477 -4 -483 -10 -6 -6 -29 -13 -51 -16 -33 -4
-42 -2 -45 11 -3 15 -6 15 -30 -4 -14 -12 -32 -21 -40 -21 -8 0 -18 -4 -24 -9
-10 -10 -142 -41 -175 -41 -19 0 -18 3 15 40 20 22 36 42 36 45 0 3 -36 5 -80
5 -65 0 -80 -3 -80 -15 0 -27 -31 -66 -44 -56 -6 5 -27 13 -46 18 -21 5 -39
18 -45 31 -8 19 -18 22 -66 22 -48 0 -57 -3 -62 -20 -4 -15 -14 -20 -41 -20
-29 0 -36 4 -36 20 0 18 -7 20 -81 20 l-81 0 4 -35 c3 -31 1 -35 -24 -40 -36
-8 -44 -2 -52 40 l-7 35 -74 0 c-67 0 -75 -2 -75 -19 0 -10 6 -24 14 -30 7 -6
32 -39 56 -72 36 -51 39 -60 22 -55 -25 8 -92 -37 -92 -60 0 -8 -4 -15 -10
-15 -47 -6 -71 -9 -110 -15 l-45 -7 38 42 c41 46 51 93 17 84 -11 -3 -29 -21
-41 -39 -11 -19 -25 -34 -31 -34 -6 0 -8 -12 -5 -30 6 -26 3 -30 -21 -36 -24
-6 -129 -44 -252 -93 -35 -13 -53 -30 -83 -74 -40 -60 -56 -69 -64 -37 -4 15
-14 20 -39 20 -36 0 -44 15 -21 39 10 11 8 13 -13 7 -14 -3 -32 -6 -41 -6 -8
0 -24 -7 -35 -15 -19 -14 -19 -14 3 -30 28 -20 29 -39 3 -67 -24 -26 -31 -19
-50 41 -11 35 -12 45 -2 49 19 6 14 19 -10 25 -18 5 -19 8 -8 22 20 25 -1 37
-34 20 -42 -22 -42 -19 -2 30 21 25 35 45 31 45 -3 0 -1 9 6 21 9 17 7 25 -10
43 -12 12 -18 26 -14 31 5 4 0 5 -10 2 -10 -4 -20 -7 -22 -7 -2 0 -1 -9 2 -20
4 -14 0 -20 -11 -20 -9 0 -16 5 -16 10 0 6 -12 10 -27 10 -20 0 -36 -10 -56
-35 -39 -49 -81 -49 -120 0 -25 31 -33 35 -77 35 -27 0 -52 5 -55 10 -4 6 -29
22 -56 35 -33 17 -49 32 -49 44 0 39 -10 50 -41 44 -24 -5 -29 -2 -29 15 0 11
7 23 16 26 20 8 9 26 -17 26 -16 0 -19 -7 -19 -44 0 -33 -5 -47 -21 -57 l-21
-14 21 -53 c26 -70 20 -82 -36 -82 l-45 0 6 -33 c5 -26 2 -38 -14 -52 -11 -10
-20 -24 -20 -32 0 -18 -43 -113 -52 -113 -16 0 -19 60 -4 82 11 16 13 32 7 48
-31 97 -51 111 -51 37 -1 -41 -1 -41 -14 -17 -13 25 -32 131 -28 160 1 8 -1
36 -4 61 -5 41 -8 45 -28 42 -27 -5 -56 20 -56 48 0 10 -9 28 -20 39 -19 19
-33 20 -340 20 l-319 0 -6 -37 c-4 -21 -10 -48 -16 -61 -12 -31 -12 -32 7 -25
13 5 15 -2 12 -37 -2 -32 -8 -44 -20 -46 -10 -1 -18 3 -18 10 0 7 -6 20 -13
30 -13 18 -15 18 -60 -2 -38 -17 -47 -26 -47 -46 0 -13 5 -26 12 -28 16 -6 12
-65 -6 -84 -9 -9 -16 -32 -16 -55 0 -32 -3 -39 -20 -39 -13 0 -22 9 -26 25 -4
14 -11 24 -18 22 -14 -5 -10 -42 9 -80 19 -38 19 -57 0 -57 -9 0 -15 -9 -15
-24 0 -13 -6 -29 -14 -35 -12 -10 -18 -6 -32 21 l-17 33 -9 -25 c-5 -14 -7
-35 -5 -47 6 -30 -19 -64 -31 -45 -8 12 -13 12 -31 1 -21 -13 -28 -38 -33
-109 -3 -33 -5 -35 -37 -33 -18 1 -38 7 -42 15 -7 10 -13 7 -28 -12 l-20 -25
-3 45 c-2 37 -7 46 -25 48 -22 3 -66 79 -61 104 2 8 -10 14 -29 16 -46 4 -73
62 -30 62 23 0 91 -40 117 -67 l25 -28 6 76 c9 108 38 155 54 87 7 -32 8 -32
27 32 48 164 63 203 80 208 10 2 20 12 23 22 3 11 17 20 32 22 24 3 29 10 45
73 10 39 18 76 18 83 0 9 -83 12 -380 12 -370 0 -380 -1 -380 -19 0 -11 -9
-26 -19 -33 -11 -8 -23 -26 -26 -41 -6 -21 -16 -29 -49 -38 -61 -16 -71 -23
-74 -53 -3 -24 0 -27 20 -24 16 2 22 -2 21 -12 -2 -10 6 -16 24 -18 15 -1 32
-7 37 -12 12 -12 53 -13 60 -1 11 17 61 19 93 4 18 -8 47 -31 64 -51 36 -40
102 -178 94 -193 -4 -5 -19 -9 -34 -9 -16 0 -34 -6 -40 -14 -9 -10 -30 -13
-80 -10 -119 7 -158 -26 -76 -65 25 -12 48 -21 52 -21 3 0 15 -8 25 -17 17
-15 21 -15 52 0 42 19 102 12 116 -13 14 -27 -15 -48 -41 -32 -24 15 -39 8
-39 -19 0 -17 4 -19 23 -13 41 15 66 6 120 -40 49 -42 55 -44 73 -31 10 8 22
15 27 15 8 0 9 -52 1 -74 -6 -16 -44 -23 -44 -7 0 4 -23 4 -51 0 -30 -5 -61
-4 -76 2 -15 5 -32 8 -38 5 -7 -2 -19 4 -28 15 -9 10 -23 19 -31 19 -7 0 -19
7 -26 15 -7 8 -23 15 -36 15 -12 0 -26 5 -29 11 -4 6 -14 8 -22 5 -9 -4 -21
-2 -27 3 -8 7 -23 7 -42 2 -24 -8 -18 -16 9 -12 13 2 72 -42 129 -95 90 -83
169 -144 188 -144 12 0 20 -10 24 -35 6 -28 11 -35 31 -35 19 0 26 7 34 38 6
20 11 48 11 62 0 14 5 32 10 40 7 10 9 -15 4 -82 -5 -71 -4 -98 5 -98 6 0 11
4 11 8 0 4 11 23 25 42 l25 34 0 -117 c0 -95 -3 -119 -15 -123 -18 -7 -54 32
-56 61 -1 11 -5 2 -8 -20 -4 -22 -4 -47 1 -56 7 -17 -38 -99 -55 -99 -5 0 1
14 13 31 27 37 21 46 -17 22 -19 -12 -24 -13 -16 -3 6 8 9 27 6 43 -4 22 -8
25 -19 16 -11 -9 -19 -8 -33 5 -15 14 -24 15 -40 6 -26 -13 -26 -16 0 -74 27
-63 20 -80 -29 -72 -20 4 -61 16 -90 26 -28 11 -54 20 -57 20 -3 0 -8 0 -12 0
-5 0 -1 5 7 10 13 9 12 12 -4 25 -34 26 -106 13 -106 -19 0 -19 -43 -28 -74
-16 -37 14 -86 52 -86 66 0 6 -7 15 -17 18 -14 6 -14 8 -1 19 10 8 18 38 22
82 6 62 10 73 36 93 34 26 39 49 13 55 -24 5 -62 -15 -95 -50 -27 -28 -27 -29
-10 -55 22 -33 18 -104 -7 -137 -25 -33 -106 -40 -141 -12 -20 16 -24 28 -23
63 5 149 11 249 18 291 l7 47 -36 15 c-33 14 -42 14 -93 -1 -96 -28 -213 -5
-249 49 -20 30 -41 36 -141 37 -30 0 -33 3 -48 55 -8 30 -21 55 -28 55 -7 0
-39 20 -72 45 -33 25 -64 45 -68 45 -5 0 -22 9 -38 21 -35 24 -63 21 -118 -17
-45 -30 -84 -30 -154 1 -35 15 -82 26 -127 29 -69 5 -74 7 -110 46 -33 36 -37
46 -33 78 5 36 3 38 -44 60 -26 12 -66 22 -88 22 -52 0 -73 13 -57 33 11 13 1
20 -62 46 -41 17 -80 31 -87 31 -7 0 -37 -15 -67 -32 -46 -28 -53 -37 -49 -58
6 -27 -17 -93 -44 -128 -17 -23 -18 -23 -28 -3 -6 11 -11 33 -11 50 0 25 -4
31 -21 31 -39 0 -56 -18 -64 -67 -4 -26 -9 -52 -12 -57 -9 -14 -23 17 -23 52
0 17 -4 32 -9 32 -5 0 -28 16 -51 35 -51 42 -78 44 -163 9 -34 -14 -104 -36
-155 -49 -51 -14 -102 -30 -114 -36 -15 -8 -22 -8 -28 1 -10 16 -41 9 -50 -10
-66 -137 -71 -155 -42 -146 13 5 20 -3 30 -35 7 -23 11 -43 9 -45 -8 -8 -67
37 -79 62 -18 39 -34 40 -53 5 -8 -17 -20 -31 -25 -31 -5 0 0 16 11 35 23 38
13 47 -16 15 -10 -12 -25 -18 -33 -15 -17 6 -62 -31 -62 -51 0 -7 -3 -14 -8
-16 -4 -1 -15 -20 -26 -40 -10 -20 -23 -35 -30 -32 -6 2 -22 -19 -35 -48 -13
-29 -30 -58 -37 -65 -7 -7 -14 -18 -16 -25 -4 -10 -8 -10 -20 -1 -12 10 -19 9
-38 -9 l-23 -22 6 35 c3 19 9 49 13 68 5 25 4 32 -4 27 -7 -4 -12 -1 -12 8 0
9 7 16 15 16 8 0 15 8 15 18 0 10 6 27 14 37 12 16 12 12 5 -31 -13 -81 -8
-104 7 -29 9 46 21 76 34 87 25 21 25 39 0 80 -11 18 -20 43 -20 55 0 16 -8
25 -25 29 -18 4 -25 13 -25 29 0 13 4 27 10 30 5 3 10 10 10 15 0 32 -112 3
-146 -38 -19 -23 -21 -23 -27 -7 -9 22 7 41 55 66 21 11 38 21 38 22 0 2 -28
3 -62 3 -58 0 -148 10 -155 18 -5 4 181 81 235 97 31 9 59 30 102 76 58 61 72
91 86 176 l7 37 -292 0 -291 0 0 -960z m4460 926 c0 -7 -3 -16 -7 -19 -7 -8
-33 25 -27 35 7 11 34 -2 34 -16z m3446 -73 c-10 -10 -19 5 -10 18 6 11 8 11
12 0 2 -7 1 -15 -2 -18z m-3846 -12 c0 -4 -3 -11 -7 -14 -8 -9 -34 13 -28 24
6 9 35 1 35 -10z m1930 -11 c0 -12 -50 -33 -58 -25 -7 7 29 34 46 35 6 0 12
-5 12 -10z m-1650 -50 c7 -13 7 -20 1 -20 -6 0 -15 9 -21 20 -7 13 -7 20 -1
20 6 0 15 -9 21 -20z m-195 -70 c3 -5 1 -10 -4 -10 -6 0 -11 5 -11 10 0 6 2
10 4 10 3 0 8 -4 11 -10z m35 -144 c0 -19 -6 -25 -30 -28 -30 -5 -31 -4 -24
26 9 44 13 47 35 36 10 -6 19 -21 19 -34z m-75 24 c3 -5 -1 -10 -9 -10 -9 0
-16 5 -16 10 0 6 4 10 9 10 6 0 13 -4 16 -10z m2356 -51 c26 -14 15 -29 -22
-29 -31 0 -36 9 -17 28 15 15 15 15 39 1z m-5001 -33 c0 -42 -12 -86 -24 -86
-31 0 -40 64 -13 98 16 20 37 14 37 -12z m4690 -55 c13 -25 13 -68 0 -76 -5
-3 -10 -17 -10 -31 0 -17 -6 -24 -19 -24 -15 0 -25 15 -40 55 -31 84 -31 84
46 94 7 0 17 -8 23 -18z m590 -25 c0 -21 -12 -24 -38 -11 -17 9 -20 14 -10 18
25 10 48 7 48 -7z m-1140 -46 c0 -23 -18 -36 -32 -22 -7 7 -6 17 2 31 13 24
30 19 30 -9z m-1480 6 c0 -8 -4 -17 -9 -21 -12 -7 -24 12 -16 25 9 15 25 12
25 -4z m-3894 -94 c-4 -3 -11 -1 -17 5 -8 8 -8 15 2 26 12 13 14 13 17 -5 2
-11 1 -22 -2 -26z m5334 -4 c0 -52 -17 -69 -25 -25 -4 19 -4 40 0 46 13 21 25
10 25 -21z m140 -118 c0 -10 -5 -22 -11 -26 -7 -4 -8 -26 -4 -65 7 -59 -8
-134 -25 -124 -5 3 -12 -1 -17 -9 -4 -8 -24 -16 -43 -18 -33 -3 -35 -1 -38 29
-2 20 -11 37 -23 43 -16 9 -19 22 -19 78 1 62 3 70 34 103 19 20 46 39 60 43
15 4 29 13 32 21 8 19 54 -47 54 -75z m850 40 c0 -5 -5 -10 -11 -10 -5 0 -7 5
-4 10 3 6 8 10 11 10 2 0 4 -4 4 -10z m-5900 -166 c0 -103 0 -104 -24 -104
-22 0 -26 -7 -36 -57 -24 -115 -45 -188 -55 -188 -6 0 -23 -14 -40 -30 l-29
-30 -6 25 c-6 24 -7 23 -19 -13 -10 -31 -15 -36 -27 -26 -8 6 -14 20 -14 30 0
11 -9 28 -20 39 -11 11 -20 25 -20 30 0 14 -17 12 -24 -2 -5 -11 -2 41 6 134
2 15 9 33 16 40 10 10 12 7 12 -12 0 -17 9 -29 25 -37 23 -10 27 -9 41 18 l15
30 25 -31 c29 -34 40 -32 49 9 3 16 12 35 20 41 7 6 16 30 19 54 4 23 16 59
26 79 11 20 20 46 20 57 0 11 5 20 10 20 6 0 10 9 10 21 0 11 5 17 10 14 6 -3
10 -52 10 -111z m4079 71 c-2 -29 -7 -45 -16 -45 -17 0 -18 61 -1 78 18 18 19
16 17 -33z m-2411 -91 c-4 -3 -12 5 -18 18 -12 22 -12 22 6 6 10 -10 15 -20
12 -24z m2397 -24 c0 -33 -2 -60 -5 -60 -28 1 -40 49 -22 93 18 43 27 32 27
-33z m1080 20 c11 -12 25 -18 36 -15 11 4 23 -2 33 -17 15 -21 15 -23 -1 -29
-10 -3 -39 -8 -65 -11 -41 -5 -47 -3 -52 16 -9 35 -7 64 7 69 20 9 23 8 42
-13z m-3426 -52 c1 -5 -3 -8 -7 -8 -4 0 -8 12 -9 28 -1 23 -1 24 7 7 5 -11 9
-23 9 -27z m3348 0 c-3 -8 -6 -5 -6 6 -1 11 2 17 5 13 3 -3 4 -12 1 -19z m213
6 c0 -2 -7 -4 -15 -4 -8 0 -15 4 -15 10 0 5 7 7 15 4 8 -4 15 -8 15 -10z
m-3428 -69 c10 -18 10 -19 -6 -6 -10 8 -24 28 -32 45 l-15 31 21 -25 c11 -14
26 -34 32 -45z m-1045 26 c3 -13 11 -17 24 -14 13 4 21 -2 29 -22 5 -14 17
-33 25 -41 8 -9 15 -21 15 -29 0 -7 9 -15 20 -18 14 -4 28 5 51 34 33 42 69
51 103 26 21 -15 19 -70 -6 -167 -11 -43 -18 -55 -33 -55 -17 0 -19 -6 -17
-32 2 -18 -1 -33 -7 -33 -5 0 -12 -9 -16 -19 -3 -10 -15 -21 -25 -24 -11 -3
-20 -13 -20 -24 0 -10 -5 -25 -11 -33 -8 -11 -9 -4 -6 30 l4 45 -16 -37 c-9
-21 -19 -38 -22 -38 -13 0 -21 177 -9 199 11 21 6 61 -9 61 -4 0 -12 -5 -18
-11 -9 -9 -13 -2 -18 25 -4 20 -10 34 -14 32 -4 -3 -13 10 -20 27 -12 32 -26
58 -44 88 -6 9 -7 24 -4 33 9 22 38 20 44 -3z m1042 -78 c15 -32 8 -29 -24 13
-22 29 -23 33 -7 23 11 -7 25 -23 31 -36z m-1733 -99 c-9 -8 -16 -24 -16 -35
0 -10 -5 -19 -11 -19 -19 0 -6 130 14 145 9 7 18 18 19 26 1 8 3 -12 5 -44 3
-42 0 -62 -11 -73z m-589 66 c-3 -13 -1 -18 6 -13 7 4 8 -9 4 -42 -4 -26 -7
-63 -7 -82 0 -20 -4 -32 -10 -28 -13 8 -13 -47 -1 -60 12 -13 -9 -114 -31
-143 l-16 -24 -7 31 c-4 17 -11 31 -17 31 -22 0 8 165 33 181 16 10 24 89 10
89 -8 0 -7 6 3 16 9 8 16 26 16 40 0 13 5 24 11 24 6 0 9 -9 6 -20z m9094 1
c1 8 4 3 9 -11 9 -29 2 -106 -13 -134 -7 -15 -6 -18 4 -14 10 4 14 -4 15 -28
0 -18 8 -42 17 -52 18 -20 24 -57 7 -47 -5 3 -10 1 -10 -4 0 -6 4 -11 8 -11 4
0 8 -12 9 -27 1 -16 -1 -22 -4 -15 -7 18 -23 15 -23 -5 0 -16 -2 -16 -11 -3
-8 12 -10 12 -7 1 3 -11 30 -33 45 -37 6 -1 -19 -74 -27 -79 -6 -3 -7 1 -4 9
3 9 2 16 -4 16 -6 0 -12 -6 -15 -12 -3 -10 -6 -9 -10 2 -6 16 -55 255 -68 330
-4 25 -10 52 -14 61 -9 25 12 69 34 69 11 0 22 -6 24 -12 3 -7 6 -4 7 7 1 20
1 20 15 1 11 -15 15 -16 16 -5z m-323 -34 c7 -5 11 -16 8 -24 -3 -8 -2 -12 3
-9 5 3 12 -1 15 -10 3 -8 2 -13 -2 -10 -4 2 -14 1 -22 -4 -12 -7 -12 -14 3
-42 10 -18 16 -25 13 -16 -3 10 -1 20 4 23 6 3 9 -13 8 -40 -2 -46 -13 -58
-26 -27 -5 13 -8 9 -13 -18 -6 -31 -7 -33 -14 -13 -13 41 -27 13 -20 -40 8
-53 29 -88 38 -64 4 8 6 7 6 -3 0 -8 -6 -24 -14 -34 -8 -11 -15 -31 -15 -45 1
-26 1 -26 16 -6 15 18 16 12 11 -90 -6 -99 -5 -107 8 -80 13 29 13 28 14 -37
1 -58 -2 -69 -20 -78 -11 -7 -18 -14 -15 -17 3 -3 11 -1 19 5 24 20 35 -2 36
-68 0 -36 -2 -73 -5 -82 -7 -22 -42 -24 -50 -3 -9 22 -23 18 -17 -5 4 -15 0
-20 -14 -20 -10 0 -24 5 -31 12 -9 9 -12 8 -12 -5 0 -13 -8 -17 -32 -16 -18 1
-47 -1 -64 -5 -26 -7 -32 -4 -41 16 l-12 23 0 -24 c-1 -20 -5 -23 -31 -19 -17
3 -33 1 -36 -4 -3 -4 -18 -8 -34 -8 -25 0 -30 5 -36 35 -9 49 3 56 31 20 29
-35 34 -32 27 18 -3 24 -9 37 -19 37 -8 0 -13 5 -11 11 2 6 6 10 8 9 38 -8 48
-16 59 -47 12 -31 15 -34 23 -19 11 20 3 66 -12 66 -6 0 -10 4 -10 9 0 17 49
-14 54 -34 3 -11 16 -25 30 -31 21 -10 24 -9 22 12 0 13 -6 24 -13 24 -6 0
-16 14 -22 30 -8 24 -16 30 -40 30 -27 0 -31 3 -31 29 0 16 7 34 15 41 10 8
13 21 9 39 -11 46 -26 49 -18 4 6 -39 5 -43 -15 -43 -12 0 -24 7 -27 15 -6 14
-8 14 -18 -1 -19 -26 -59 -14 -71 22 -5 16 -24 48 -41 70 -17 21 -35 54 -39
72 -6 30 -5 33 12 30 10 -2 19 -13 21 -27 2 -13 12 -26 23 -28 10 -3 19 -12
19 -19 0 -8 5 -14 11 -14 14 0 1 42 -17 56 -8 6 -14 23 -14 38 0 14 -5 26 -11
26 -7 0 -20 10 -30 22 l-19 21 0 -36 c0 -43 -15 -48 -32 -12 -11 25 -28 34
-28 15 0 -6 -6 -10 -12 -9 -7 1 -21 -1 -31 -6 -12 -5 -22 -2 -31 10 -12 17
-13 17 -19 -4 -6 -25 -25 -28 -34 -3 -4 9 -12 21 -20 25 -7 4 -13 15 -13 23 0
10 7 13 25 8 19 -5 25 -2 25 10 0 9 -4 16 -9 16 -14 0 -24 41 -13 52 7 7 12 2
17 -13 10 -33 56 -72 69 -59 11 11 -8 60 -24 60 -5 0 -10 11 -10 25 0 26 0 26
25 8 13 -10 23 -22 22 -28 -2 -18 23 -55 38 -55 8 0 15 -4 15 -10 0 -5 5 -10
11 -10 8 0 8 4 2 13 -6 6 -16 29 -22 49 -7 20 -19 42 -27 48 -15 14 -19 50 -5
50 5 0 12 -11 15 -24 3 -13 14 -26 24 -28 11 -3 22 -18 25 -34 4 -18 16 -33
31 -41 15 -6 26 -8 26 -3 0 4 -6 10 -14 13 -7 3 -16 21 -20 40 -4 19 -13 38
-21 41 -8 3 -15 15 -15 26 0 11 -6 23 -14 26 -8 3 -18 19 -21 36 -4 16 -13 32
-21 35 -14 5 -20 33 -7 33 14 0 43 -34 43 -51 0 -10 11 -26 25 -35 14 -9 25
-25 25 -35 0 -20 15 -33 29 -24 13 8 -6 62 -25 69 -16 6 -20 71 -4 81 6 3 10
17 10 31 0 29 20 32 27 4 7 -25 23 -26 23 -2 0 16 13 21 83 29 45 6 91 11 102
12 11 0 49 5 85 10 71 10 137 5 158 -12z m-3318 3 c0 -5 -4 -10 -10 -10 -5 0
-10 5 -10 10 0 6 5 10 10 10 6 0 10 -4 10 -10z m2515 -10 c-3 -5 -12 -10 -18
-10 -7 0 -6 4 3 10 19 12 23 12 15 0z m-5963 -50 c6 0 16 6 22 14 19 24 53 29
58 8 3 -10 37 -42 77 -72 39 -29 71 -58 71 -65 0 -7 6 -18 14 -24 26 -22 26
-51 0 -61 -37 -14 -30 -33 10 -28 29 3 37 0 45 -20 6 -12 11 -32 11 -42 0 -11
6 -20 13 -20 13 0 37 45 37 70 0 8 7 26 16 38 11 16 13 34 8 67 -3 25 -9 45
-13 45 -3 0 -6 23 -7 51 -1 62 14 42 23 -30 3 -29 10 -49 17 -48 6 1 10 -10 9
-27 -1 -17 3 -36 9 -43 8 -10 7 -13 -5 -13 -9 0 -21 -9 -26 -19 -9 -16 -8 -18
7 -15 12 4 23 -6 36 -30 18 -34 18 -35 -4 -79 l-23 -45 37 -32 c28 -25 36 -39
36 -66 0 -32 -4 -36 -52 -58 -46 -20 -57 -31 -81 -79 -27 -52 -28 -58 -14 -84
87 -170 102 -212 126 -373 5 -36 19 -110 31 -165 12 -55 28 -134 37 -175 8
-41 32 -145 53 -230 21 -85 50 -225 65 -310 14 -85 37 -200 50 -254 14 -55 23
-101 22 -102 -3 -3 -120 200 -190 331 -57 106 -123 269 -167 414 -33 108 -108
270 -142 308 -18 19 -20 30 -14 85 7 60 5 64 -23 95 -27 30 -31 31 -66 22 -20
-6 -39 -8 -42 -6 -7 8 -48 -36 -61 -66 -16 -37 -4 -59 59 -115 36 -32 50 -52
55 -80 22 -131 43 -199 114 -381 75 -190 278 -607 420 -861 79 -142 217 -355
299 -461 10 -14 43 -81 71 -150 63 -150 63 -151 137 -315 51 -112 57 -130 40
-126 -16 4 -19 2 -14 -11 4 -10 10 -23 13 -31 4 -10 -7 -15 -43 -18 -40 -4
-53 0 -77 20 -37 30 -151 83 -191 88 -33 5 -61 -8 -51 -24 3 -6 32 -16 64 -22
31 -7 79 -24 106 -37 57 -29 51 -37 -34 -48 -30 -3 -92 -15 -138 -26 -46 -10
-94 -19 -106 -19 -13 0 -38 -8 -56 -17 -25 -12 -35 -13 -38 -4 -3 9 -7 9 -18
0 -7 -6 -35 -16 -61 -23 -55 -14 -61 -29 -43 -95 l11 -41 44 7 c28 3 45 2 45
-4 0 -13 -34 -23 -77 -23 -34 0 -37 6 -58 106 -7 36 9 54 64 69 l36 11 -40 18
c-22 10 -55 28 -74 39 -24 14 -48 20 -78 18 -53 -3 -123 8 -123 19 0 5 14 11
30 15 22 5 30 12 30 28 0 25 -61 61 -175 102 -78 29 -105 49 -105 78 0 17 5
19 42 13 24 -4 53 -16 65 -27 16 -16 29 -19 51 -14 68 15 66 70 -4 105 -50 26
-61 60 -19 60 52 0 16 38 -83 86 -62 30 -72 45 -72 121 0 22 1 22 48 8 26 -8
56 -15 66 -15 27 0 56 29 56 55 0 11 5 26 11 32 27 27 -31 83 -86 83 -36 0
-108 21 -117 35 -4 5 -8 35 -8 65 0 54 1 56 33 67 44 16 143 33 188 33 21 0
41 5 44 10 11 17 -48 90 -72 90 -12 0 -25 5 -28 10 -3 6 -16 10 -28 10 -12 0
-42 11 -66 25 -23 14 -50 25 -58 25 -23 0 -40 58 -48 165 -4 55 -16 154 -26
220 -23 140 -55 384 -63 470 -16 176 -29 286 -41 338 -7 31 -9 55 -4 51 5 -3
9 -12 9 -20 0 -22 27 -48 33 -31 3 9 8 9 21 -2 15 -13 19 -13 27 0 18 28 9
162 -17 269 -20 83 -23 109 -14 123 10 16 7 23 -20 45 -35 29 -65 91 -51 105
5 5 14 -9 22 -34 16 -50 76 -96 170 -130 32 -12 59 -27 59 -34 0 -8 10 -10 28
-7 15 3 22 7 15 9 -8 3 -10 15 -6 34 3 19 -1 38 -12 56 -17 25 -17 27 1 40 10
7 24 13 32 13 12 0 13 10 8 51 -6 45 -4 55 15 75 13 13 28 39 34 58 l12 34
-67 -48 c-111 -80 -139 -87 -191 -49 -22 16 -29 28 -29 54 0 30 4 36 28 41 52
11 59 16 32 24 -14 5 -39 8 -57 9 -17 1 -34 5 -37 10 -6 10 65 21 132 21 71 0
38 18 -48 26 -41 3 -78 8 -83 11 -13 8 3 23 25 23 15 0 19 5 15 20 -4 15 0 20
14 20 11 0 19 7 19 16 0 12 -7 15 -26 11 -43 -8 -54 14 -54 114 0 102 11 113
51 52 22 -34 29 -38 72 -41 58 -4 151 14 166 32 10 12 13 25 23 91 2 16 -7 23
-47 37 l-50 16 30 13 c27 11 28 13 8 16 -12 3 -42 -3 -68 -11 -25 -9 -50 -16
-56 -16 -6 0 -25 -6 -42 -14 -55 -24 -75 -25 -93 -5 -9 10 -23 19 -31 19 -7 0
-25 24 -39 54 -29 61 -25 80 25 115 l29 21 -9 -36 c-12 -40 -3 -59 13 -30 8
14 12 15 18 5 10 -15 66 29 95 76 l19 30 4 -27 c2 -16 8 -28 14 -28z m7145 3
c-3 -10 -5 -2 -5 17 0 19 2 27 5 18 2 -10 2 -26 0 -35z m-1249 30 c-14 -2 -32
-11 -38 -19 -16 -18 -40 -18 -40 0 0 14 30 23 80 23 24 0 24 0 -2 -4z m-5631
-50 c-3 -10 -5 -2 -5 17 0 19 2 27 5 18 2 -10 2 -26 0 -35z m5044 30 c0 -15 2
-15 9 2 8 19 9 18 11 -5 3 -35 3 -40 -5 -80 -4 -25 -3 -30 3 -15 8 17 10 14
10 -16 1 -19 8 -44 16 -55 8 -10 14 -30 15 -44 0 -20 -2 -22 -10 -10 -8 13
-10 12 -10 -3 0 -9 9 -25 20 -34 21 -18 27 -43 11 -43 -5 0 -12 -7 -15 -16 -3
-8 -2 -13 3 -10 5 3 12 -1 15 -10 9 -24 7 -56 -3 -49 -5 3 -13 0 -17 -6 -3 -6
-2 -14 4 -18 6 -3 16 -19 21 -34 7 -18 7 -26 1 -22 -6 4 -10 -5 -10 -19 0 -24
11 -31 41 -28 5 1 8 -15 11 -78 1 -8 -1 -44 -4 -80 -3 -36 -3 -56 -1 -45 5 17
8 14 22 -15 19 -39 17 -60 -6 -60 -11 0 -14 -7 -10 -21 9 -33 -21 -35 -52 -3
-29 30 -31 41 -71 334 -6 41 -17 125 -25 185 -17 120 -35 264 -35 281 0 10 34
32 53 33 4 1 7 -7 8 -16z m941 -8 c3 -14 1 -28 -3 -31 -5 -3 -9 1 -9 10 0 8
-3 21 -6 30 -3 9 -2 16 4 16 5 0 12 -11 14 -25z m-3995 -128 c-2 -23 -3 -1 -3
48 0 50 1 68 3 42 2 -26 2 -67 0 -90z m4940 111 c-3 -8 -6 -5 -6 6 -1 11 2 17
5 13 3 -3 4 -12 1 -19z m-6507 -9 c0 6 5 11 10 11 6 0 10 -11 10 -25 0 -25
-19 -37 -21 -12 0 6 -4 2 -9 -10 -10 -25 -29 -30 -48 -11 -7 7 -12 18 -12 25
0 19 42 33 58 21 8 -7 12 -7 12 1z m169 -16 c42 -52 37 -92 -10 -93 -23 0 -42
52 -34 89 8 38 17 39 44 4z m-1270 -46 c-1 -40 -2 -40 -9 -12 -11 44 -11 67 0
60 6 -3 9 -25 9 -48z m3620 -27 c-1 -11 -2 -11 -6 3 -2 9 -8 17 -12 17 -3 0
-15 15 -24 33 l-18 32 30 -35 c17 -19 30 -41 30 -50z m2936 49 c8 -23 1 -34
-14 -24 -13 8 -15 45 -2 45 5 0 13 -9 16 -21z m1025 -14 c0 -19 -4 -35 -10
-35 -11 0 -13 30 -4 54 10 25 14 19 14 -19z m-5224 4 c3 -6 2 -15 -3 -20 -5
-5 -14 0 -21 11 -10 17 -10 20 2 20 8 0 18 -5 22 -11z m361 -21 c-3 -7 -5 -2
-5 12 0 14 2 19 5 13 2 -7 2 -19 0 -25z m3773 6 c0 -8 -4 -14 -10 -14 -5 0
-10 9 -10 21 0 11 5 17 10 14 6 -3 10 -13 10 -21z m1137 4 c-3 -8 -6 -5 -6 6
-1 11 2 17 5 13 3 -3 4 -12 1 -19z m-7644 -134 c4 -4 7 -18 7 -31 0 -17 -9
-28 -32 -37 -45 -19 -55 -12 -60 42 -5 51 0 62 28 66 11 2 20 9 20 17 1 8 3
32 4 54 2 34 4 29 14 -32 6 -39 14 -75 19 -79z m1626 127 c6 -10 8 -21 5 -24
-3 -3 0 -15 6 -27 15 -29 -2 -49 -24 -30 -9 7 -14 16 -11 20 3 4 -2 10 -10 14
-15 5 -21 47 -8 59 12 13 32 7 42 -12z m4163 -6 c3 -13 1 -22 -3 -19 -9 5 -13
44 -5 44 2 0 6 -11 8 -25z m815 -20 c8 -22 -6 -33 -17 -15 -13 20 -12 30 0 30
6 0 13 -7 17 -15z m1053 -16 c0 -11 -4 -17 -10 -14 -5 3 -10 15 -10 26 0 11 5
17 10 14 6 -3 10 -15 10 -26z m-1110 -15 c0 -8 -4 -12 -10 -9 -5 3 -10 13 -10
21 0 8 5 12 10 9 6 -3 10 -13 10 -21z m697 -6 c-3 -7 -5 -2 -5 12 0 14 2 19 5
13 2 -7 2 -19 0 -25z m-7191 -52 c7 -46 -7 -65 -20 -28 -3 9 -11 24 -17 33 -7
9 -9 27 -5 43 6 24 8 25 21 12 9 -8 18 -35 21 -60z m7166 49 c-2 -14 -8 -22
-13 -19 -13 8 -11 32 4 37 6 3 13 6 13 6 1 1 -1 -10 -4 -24z m-8297 -183 c-8
-78 -29 -79 -33 -1 -2 29 -8 57 -14 61 -9 5 -9 10 0 21 7 8 20 39 30 68 l17
54 3 -70 c2 -38 0 -98 -3 -133z m7413 180 c6 -18 -15 -14 -22 4 -4 10 -1 14 6
12 6 -2 14 -10 16 -16z m-7743 -13 c9 -27 -3 -91 -16 -84 -12 8 -12 105 0 105
5 0 13 -9 16 -21z m1153 3 c2 -7 -7 -12 -22 -12 -27 0 -35 15 -13 23 17 7 30
3 35 -11z m2173 -24 c9 -23 28 -39 57 -52 43 -20 52 -36 30 -54 -16 -12 -96
-14 -136 -3 -37 11 -48 4 -57 -36 -8 -37 -12 -39 -51 -18 -17 9 -40 13 -56 9
-14 -3 -28 -1 -31 3 -11 17 5 93 19 93 8 0 14 4 14 9 0 18 40 23 55 7 21 -20
36 -13 74 35 39 48 63 50 82 7z m4484 22 c-3 -5 -10 -10 -16 -10 -5 0 -9 5 -9
10 0 6 7 10 16 10 8 0 12 -4 9 -10z m-3768 -67 c-3 -10 -5 -2 -5 17 0 19 2 27
5 18 2 -10 2 -26 0 -35z m683 37 c0 -5 -7 -10 -15 -10 -8 0 -15 5 -15 10 0 6
7 10 15 10 8 0 15 -4 15 -10z m4280 -47 c0 -12 -4 -25 -10 -28 -6 -4 -10 11
-10 37 0 31 3 39 10 28 5 -8 10 -25 10 -37z m-7026 31 c25 -10 22 -90 -4 -104
-32 -17 -177 -25 -194 -10 -20 16 -32 78 -18 92 22 22 175 38 216 22z m2013
-16 c-3 -8 -6 -5 -6 6 -1 11 2 17 5 13 3 -3 4 -12 1 -19z m-457 2 c0 -5 -4
-10 -10 -10 -5 0 -10 5 -10 10 0 6 5 10 10 10 6 0 10 -4 10 -10z m4190 -16 c0
-8 -4 -12 -10 -9 -5 3 -10 13 -10 21 0 8 5 12 10 9 6 -3 10 -13 10 -21z
m-6450 -9 c0 -8 -4 -15 -10 -15 -5 0 -10 7 -10 15 0 8 5 15 10 15 6 0 10 -7
10 -15z m374 9 c20 -8 22 -72 3 -98 -11 -15 -31 -20 -90 -24 -91 -6 -107 3
-107 58 0 35 3 39 33 49 60 19 133 26 161 15z m6235 -37 c1 -5 -3 -5 -9 -2 -5
3 -10 16 -9 28 0 21 1 21 9 2 5 -11 9 -24 9 -28z m-2915 -11 c24 -42 49 -96
43 -96 -2 0 -23 21 -47 46 -25 26 -40 44 -33 40 16 -9 28 13 14 27 -11 11 -15
27 -7 27 2 0 16 -20 30 -44z m336 9 c7 -8 9 -15 6 -15 -4 0 -14 7 -22 15 -9 8
-11 15 -6 15 5 0 15 -7 22 -15z m-936 -46 c0 -79 -48 -124 -88 -83 -28 27 -30
61 -6 91 24 32 46 43 75 40 17 -2 20 -9 19 -48z m4317 37 c5 3 9 0 9 -5 0 -6
-7 -11 -15 -11 -8 0 -15 8 -14 18 0 10 3 12 6 4 2 -6 9 -10 14 -6z m-4694 -28
c-3 -8 -6 -5 -6 6 -1 11 2 17 5 13 3 -3 4 -12 1 -19z m200 -10 c-3 -7 -5 -2
-5 12 0 14 2 19 5 13 2 -7 2 -19 0 -25z m3677 7 c11 -8 16 -21 12 -30 -8 -22
-46 -1 -46 25 0 23 8 25 34 5z m1126 -5 c0 -11 -2 -20 -4 -20 -2 0 -6 9 -9 20
-3 11 -1 20 4 20 5 0 9 -9 9 -20z m30 -18 c0 -7 -4 -10 -10 -7 -5 3 -10 16
-10 28 0 18 2 19 10 7 5 -8 10 -21 10 -28z m-3202 -47 c0 -16 -2 -15 -8 5 -4
14 -8 34 -8 45 0 16 2 15 8 -5 4 -14 8 -34 8 -45z m1981 39 c3 -16 1 -17 -13
-5 -19 16 -21 34 -3 29 6 -3 14 -13 16 -24z m-6434 -29 c19 -19 35 -37 35 -40
0 -12 -49 -4 -61 11 -7 8 -25 22 -41 30 -37 19 -36 34 2 34 22 0 41 -10 65
-35z m3032 -27 c-2 -13 -4 -3 -4 22 0 25 2 35 4 23 2 -13 2 -33 0 -45z m573
27 c14 -12 33 -25 43 -28 9 -4 17 -14 17 -23 0 -13 -9 -11 -52 13 -28 16 -59
40 -67 53 -15 22 -14 22 9 15 14 -4 36 -17 50 -30z m3747 -26 c4 -29 2 -41 -4
-34 -15 15 -31 68 -25 83 8 24 23 -3 29 -49z m-44 -31 c3 -33 2 -58 -4 -58 -5
0 -9 11 -9 24 0 13 -3 45 -6 72 -3 32 -2 44 4 34 5 -8 12 -41 15 -72z m-7523
35 c-1 -36 -2 -37 -15 -19 -16 21 -19 39 -8 49 15 16 23 5 23 -30z m3047 -40
c-2 -16 -4 -3 -4 27 0 30 2 43 4 28 2 -16 2 -40 0 -55z m2480 24 c1 -28 5 -71
9 -93 6 -38 4 -42 -19 -48 -16 -4 -36 0 -55 11 -30 17 -42 49 -42 111 0 32 43
72 77 72 27 0 28 -2 30 -53z m2436 15 c4 -21 3 -31 -3 -27 -6 3 -10 20 -10 37
0 38 5 34 13 -10z m-5965 11 c2 -9 -8 -13 -32 -13 -20 0 -36 4 -36 9 0 22 60
25 68 4z m5835 4 c4 3 7 -3 7 -15 0 -27 -16 -28 -30 -3 -14 27 -13 36 3 22 8
-6 17 -8 20 -4z m-7799 -41 c-3 -9 -10 -16 -15 -16 -11 0 -12 43 -2 54 10 10
24 -20 17 -38z m391 -186 c12 -36 26 -74 30 -85 7 -18 6 -18 -8 -5 -31 30 -77
129 -91 196 -8 38 -19 70 -25 72 -6 2 -11 16 -10 30 1 21 11 6 41 -58 22 -47
51 -114 63 -150z m6515 197 c0 -20 8 -39 20 -50 11 -9 20 -28 20 -42 0 -14 5
-25 12 -25 9 0 9 -3 -1 -12 -10 -11 -16 -9 -27 7 -7 11 -20 29 -28 40 -15 19
-15 19 -16 -13 0 -38 17 -75 31 -67 5 4 9 -3 9 -14 0 -12 -6 -21 -12 -21 -16
0 -58 44 -58 60 0 15 -29 39 -47 40 -18 0 -16 -29 2 -37 18 -6 47 -58 38 -66
-22 -22 -83 70 -83 125 0 30 17 38 26 13 8 -20 22 -19 20 2 -2 24 33 28 50 6
12 -16 13 -15 8 17 -3 19 -7 40 -9 47 -5 15 4 23 27 23 14 0 18 -8 18 -33z
m851 20 c-1 -4 -1 -17 -1 -29 0 -29 -12 -16 -16 17 -1 14 2 25 8 23 5 -2 9 -7
9 -11z m66 -9 c-3 -8 -6 -5 -6 6 -1 11 2 17 5 13 3 -3 4 -12 1 -19z m-4920
-60 c-2 -13 -4 -5 -4 17 -1 22 1 32 4 23 2 -10 2 -28 0 -40z m67 -128 c3 -96
9 -192 12 -212 5 -30 3 -38 -9 -38 -13 0 -25 24 -54 110 -11 33 -14 -11 -4
-66 7 -37 18 -62 31 -71 15 -11 18 -21 13 -46 -8 -42 -10 -44 -28 -21 -8 10
-15 15 -15 11 0 -14 -30 21 -30 35 0 8 5 19 12 26 9 9 9 12 0 12 -7 0 -11 3
-11 8 1 4 1 15 0 26 -1 15 -4 16 -16 6 -8 -7 -15 -9 -15 -4 0 5 -5 41 -11 79
-6 40 -7 116 -3 178 6 94 8 106 22 95 12 -11 14 -35 9 -148 -4 -101 -3 -126 5
-100 6 19 16 49 23 65 7 17 16 41 20 55 8 24 8 24 16 5 6 -15 8 -8 8 25 0 47
12 153 16 148 1 -2 5 -82 9 -178z m3613 158 c-3 -8 -6 -5 -6 6 -1 11 2 17 5
13 3 -3 4 -12 1 -19z m-4240 -31 c-3 -11 -54 -45 -69 -46 -16 -2 -7 40 12 59
17 17 24 18 41 10 11 -6 19 -16 16 -23z m3318 -3 c21 -23 24 -23 33 -8 6 11
11 13 16 5 4 -6 20 -11 35 -11 16 0 34 -7 41 -16 20 -23 82 -46 93 -35 12 12
77 -18 77 -36 0 -7 -8 -22 -17 -33 -13 -14 -20 -17 -30 -8 -7 6 -15 9 -17 7
-10 -10 16 -106 34 -129 11 -14 24 -35 30 -47 8 -20 70 -62 70 -47 0 3 8 -4
19 -17 16 -20 21 -21 35 -10 9 7 16 20 16 28 0 8 5 11 10 8 6 -3 10 -15 10
-26 0 -11 9 -37 20 -59 24 -47 25 -57 5 -36 -8 8 -15 19 -15 24 0 5 -10 17
-22 28 -18 15 -20 16 -9 2 7 -10 11 -31 9 -47 -2 -17 -1 -28 3 -25 4 2 10 -5
14 -16 4 -11 10 -18 15 -15 13 8 20 -21 8 -33 -8 -8 -21 -7 -45 3 -30 13 -33
13 -24 -2 13 -24 -10 -46 -26 -24 -11 13 -12 10 -7 -19 l5 -35 -17 34 c-14 27
-19 30 -24 16 -5 -15 -7 -15 -19 -1 -11 14 -15 14 -36 0 -26 -17 -39 -78 -39
-193 -1 -51 3 -76 12 -79 6 -2 12 -10 12 -18 0 -20 45 -59 104 -90 l48 -25 -7
60 c-5 42 -4 61 4 61 6 0 11 -20 11 -49 0 -31 5 -53 15 -61 8 -7 15 -19 15
-26 0 -8 4 -14 8 -14 5 0 9 -14 9 -31 0 -29 -2 -30 -14 -13 -7 10 -13 24 -13
31 0 21 -46 34 -77 22 -21 -8 -30 -7 -36 3 -59 98 -56 94 -56 68 0 -14 6 -34
14 -44 24 -32 17 -50 -27 -74 -50 -26 -58 -27 -58 -8 0 23 -60 106 -76 106
-18 0 -18 -14 -1 -29 23 -19 42 -90 28 -104 -9 -9 -15 -9 -29 1 -9 6 -41 23
-69 38 -54 26 -74 52 -27 34 34 -13 34 -14 34 16 0 25 -37 68 -91 105 -13 10
-21 20 -18 23 3 3 14 -2 25 -12 28 -25 93 -62 110 -62 11 0 13 6 9 20 -7 23
10 60 29 60 17 0 42 29 51 59 l7 24 -27 -21 c-31 -25 -55 -28 -73 -10 -15 15
-16 48 -2 48 6 0 10 5 10 11 0 6 -9 9 -20 6 -34 -9 -22 9 18 26 l37 16 -50 -2
c-47 -2 -50 0 -48 21 2 13 -3 33 -11 45 -8 12 -21 45 -30 73 l-17 52 26 27
c14 16 25 24 25 20 0 -5 11 2 24 15 15 13 31 20 41 16 14 -5 10 -12 -20 -41
-20 -19 -35 -40 -33 -47 6 -17 108 -24 108 -7 0 7 3 10 6 7 3 -4 1 -15 -5 -27
-22 -41 32 -98 66 -69 7 6 13 31 13 57 0 36 -8 59 -35 101 -19 30 -35 61 -35
68 0 14 -26 16 -35 2 -4 -7 -12 -7 -25 0 -28 15 -42 12 -36 -8 4 -10 -1 -22
-12 -28 -15 -10 -17 -7 -14 35 2 36 0 42 -8 29 -6 -10 -22 -18 -36 -18 -38 0
-64 29 -53 59 9 23 10 24 25 5 15 -18 15 -17 9 10 -5 25 -4 28 8 17 13 -10 16
-7 22 17 3 16 17 35 30 42 14 7 25 17 25 22 0 5 14 1 31 -7 49 -26 64 -13 34
31 -26 39 -26 56 0 34 30 -25 25 -2 -7 33 -29 30 -98 75 -98 63 0 -2 -15 0
-34 4 -19 4 -38 4 -43 -1 -6 -6 -19 1 -33 16 -13 14 -32 25 -41 25 -13 0 -16
5 -12 16 3 8 11 13 18 10 6 -2 18 0 26 5 27 17 69 10 94 -17z m-2445 0 c0 -8
-4 -12 -10 -9 -5 3 -10 10 -10 16 0 5 5 9 10 9 6 0 10 -7 10 -16z m4330 -5 c0
-18 -2 -19 -15 -9 -8 7 -15 16 -15 21 0 5 7 9 15 9 9 0 15 -9 15 -21z m-8270
7 c0 -13 -32 -76 -39 -76 -7 0 -5 36 4 68 4 10 35 18 35 8z m8547 -28 c-3 -7
-5 -2 -5 12 0 14 2 19 5 13 2 -7 2 -19 0 -25z m-9133 6 c9 -8 16 -30 16 -47 0
-48 11 -77 27 -77 10 0 13 -9 11 -27 -4 -38 -33 -42 -46 -6 -9 25 -11 26 -11
6 -1 -16 -7 -23 -20 -23 -11 0 -26 -2 -34 -6 -10 -4 -16 6 -21 37 -4 24 -11
49 -17 55 -7 9 -7 25 1 53 8 32 16 40 38 44 15 2 30 5 34 6 4 0 14 -6 22 -15z
m1285 -139 c-13 -24 -30 -46 -39 -48 -9 -2 -21 -22 -28 -44 -12 -41 -65 -93
-107 -103 -11 -3 -36 -29 -55 -59 l-35 -53 -9 71 c-12 94 5 173 57 259 49 83
71 101 122 102 22 0 47 5 55 10 11 7 20 -2 38 -41 l24 -50 -23 -44z m7868 123
c-3 -8 -6 -5 -6 6 -1 11 2 17 5 13 3 -3 4 -12 1 -19z m-5020 -25 c-3 -10 -5
-4 -5 12 0 17 2 24 5 18 2 -7 2 -21 0 -30z m4950 5 c-3 -7 -5 -2 -5 12 0 14 2
19 5 13 2 -7 2 -19 0 -25z m-4747 -10 c8 -29 9 -29 6 -5 -5 41 11 33 38 -20
13 -27 36 -64 50 -83 18 -23 26 -46 25 -70 0 -19 3 -45 6 -58 6 -18 4 -21 -9
-16 -18 7 -32 47 -22 63 3 5 2 11 -3 13 -5 1 -18 19 -30 38 -28 47 -26 19 4
-55 30 -72 30 -79 7 -73 -22 6 -42 -14 -32 -33 5 -9 0 -24 -16 -43 -14 -15
-26 -27 -28 -25 -6 10 -29 119 -32 154 -5 63 7 245 17 245 5 0 13 -15 19 -32z
m1240 22 c0 -5 -2 -10 -4 -10 -3 0 -8 5 -11 10 -3 6 -1 10 4 10 6 0 11 -4 11
-10z m2468 -19 c2 -12 12 -27 23 -34 13 -8 19 -23 19 -46 l0 -35 -34 37 c-44
48 -58 116 -22 104 6 -2 12 -14 14 -26z m1091 -38 c0 -25 -1 -25 -8 -8 -5 11
-7 23 -4 28 8 14 13 7 12 -20z m-835 0 c11 -26 -13 -42 -29 -19 -8 10 -12 23
-9 27 9 15 31 10 38 -8z m-314 -7 c0 -8 7 -16 17 -18 11 -2 16 -14 17 -36 1
-17 -2 -32 -6 -32 -5 0 -8 6 -8 14 0 7 -9 25 -20 39 -22 27 -26 47 -10 47 6 0
10 -6 10 -14z m1167 -18 c-3 -7 -5 -2 -5 12 0 14 2 19 5 13 2 -7 2 -19 0 -25z
m-1227 -9 c0 -5 -4 -9 -10 -9 -5 0 -10 7 -10 16 0 8 5 12 10 9 6 -3 10 -10 10
-16z m-3823 -41 c-3 -8 -6 -5 -6 6 -1 11 2 17 5 13 3 -3 4 -12 1 -19z m1889
-14 c12 -10 11 -12 -5 -17 -10 -2 -25 -1 -32 4 -11 7 -11 9 3 9 11 0 15 7 12
23 -2 12 -1 15 2 7 3 -8 13 -20 20 -26z m2266 20 c21 -8 32 -34 18 -48 -5 -5
-11 -8 -12 -5 -2 2 -14 19 -27 38 -13 18 -17 31 -10 27 8 -3 22 -9 31 -12z
m78 1 c0 -8 -7 -15 -15 -15 -8 0 -15 7 -15 15 0 8 7 15 15 15 8 0 15 -7 15
-15z m447 -17 c-3 -7 -5 -2 -5 12 0 14 2 19 5 13 2 -7 2 -19 0 -25z m-3112 2
c10 -11 16 -20 13 -20 -3 0 -13 9 -23 20 -10 11 -16 20 -13 20 3 0 13 -9 23
-20z m3462 -2 c-3 -8 -6 -5 -6 6 -1 11 2 17 5 13 3 -3 4 -12 1 -19z m119 -15
c-11 -11 -19 6 -11 24 8 17 8 17 12 0 3 -10 2 -21 -1 -24z m-5534 2 c-4 -26
-22 -45 -22 -25 0 12 18 50 24 50 2 0 1 -11 -2 -25z m413 -53 c-7 -61 -38
-132 -58 -132 -5 0 -20 -9 -34 -20 -34 -27 -40 -18 -14 18 11 16 18 32 14 36
-3 3 -2 6 4 6 6 0 16 28 23 63 15 74 34 111 26 52 l-5 -40 14 30 c8 17 14 38
15 48 0 11 5 15 11 11 7 -4 9 -28 4 -72z m4064 54 l23 -24 -21 -12 c-12 -6
-19 -15 -16 -20 3 -5 -5 -12 -19 -16 -34 -8 -60 -39 -53 -64 3 -11 1 -23 -4
-26 -5 -3 -9 -2 -10 3 0 4 -2 18 -3 31 -2 15 5 29 20 39 13 8 24 24 26 36 2
14 11 23 26 25 24 4 31 22 7 22 -8 0 -15 7 -15 15 0 22 13 19 39 -9z m918 2
c-3 -8 -6 -5 -6 6 -1 11 2 17 5 13 3 -3 4 -12 1 -19z m-983 -19 c-4 -6 -11 -6
-20 2 -21 17 -17 31 6 19 11 -6 18 -15 14 -21z m-148 -16 c-7 -7 -26 7 -26 19
0 6 6 6 15 -2 9 -7 13 -15 11 -17z m-1976 2 c-14 -7 -27 -11 -30 -9 -6 7 22
24 40 23 9 0 5 -6 -10 -14z m-2683 -22 c17 -22 17 -68 1 -80 -26 -21 -107 -45
-127 -38 -12 3 -21 14 -21 24 0 21 27 90 42 109 15 17 90 7 105 -15z m320 -18
c-4 -8 -11 -15 -17 -15 -6 0 -6 7 2 20 14 22 24 19 15 -5z m5181 7 c6 -18 -15
-14 -22 4 -4 10 -1 14 6 12 6 -2 14 -10 16 -16z m432 14 c0 -3 -4 -8 -10 -11
-5 -3 -10 -1 -10 4 0 6 5 11 10 11 6 0 10 -2 10 -4z m-3386 -22 c9 -8 16 -26
16 -40 0 -20 -5 -24 -30 -24 -21 0 -28 4 -24 14 3 7 -6 23 -21 34 -17 14 -21
22 -13 25 26 11 57 7 72 -9z m900 -26 c12 -32 19 -39 25 -29 7 11 10 9 13 -10
2 -15 11 -25 24 -27 18 -3 24 5 34 45 l13 48 8 -55 c4 -30 12 -70 18 -88 9
-29 8 -32 -4 -22 -8 7 -15 21 -15 31 0 12 -7 19 -19 19 -14 0 -18 -5 -14 -18
2 -10 -3 -24 -11 -31 -13 -11 -16 -11 -16 3 0 9 -4 16 -10 16 -12 0 -13 -37
-1 -44 5 -3 11 -17 14 -31 l4 -26 -22 21 c-15 14 -25 38 -29 70 -7 52 -21 73
-29 43 -3 -10 -5 8 -6 39 0 31 -4 63 -7 72 -3 9 -2 16 3 16 6 0 18 -19 27 -42z
m-4993 16 c12 -14 11 -16 -5 -13 -11 2 -21 10 -24 17 -5 17 13 15 29 -4z
m4228 -27 c1 -5 -3 -5 -9 -2 -5 3 -10 16 -9 28 0 21 1 21 9 2 5 -11 9 -24 9
-28z m808 21 c-3 -8 -6 -5 -6 6 -1 11 2 17 5 13 3 -3 4 -12 1 -19z m-2774 -24
c4 -21 0 -24 -25 -24 -32 0 -47 22 -29 44 17 20 48 8 54 -20z m-1627 -26 c28
-24 74 -61 101 -83 28 -22 64 -60 79 -85 46 -71 94 -164 94 -180 0 -8 -11 8
-24 35 -49 106 -187 265 -229 265 -13 0 -87 72 -87 85 0 13 20 1 66 -37z
m5818 23 c3 -5 -1 -12 -10 -15 -20 -8 -29 -1 -19 13 8 13 22 14 29 2z m96 -27
c0 -8 -4 -14 -10 -14 -5 0 -10 9 -10 21 0 11 5 17 10 14 6 -3 10 -13 10 -21z
m-4920 -5 c0 -5 -4 -9 -10 -9 -5 0 -10 7 -10 16 0 8 5 12 10 9 6 -3 10 -10 10
-16z m4053 -13 c-3 -4 -9 -2 -14 5 -13 22 -11 31 5 17 8 -7 12 -17 9 -22z
m717 19 c-12 -15 -30 -12 -30 6 0 5 10 9 21 9 18 0 19 -2 9 -15z m-4040 -37
c0 -25 -6 -36 -25 -44 -22 -11 -24 -10 -15 6 6 11 15 22 20 25 6 3 10 15 10
26 0 10 2 19 5 19 3 0 5 -15 5 -32z m306 -43 c-21 -50 -20 -87 4 -113 11 -12
20 -27 20 -33 0 -19 -33 21 -52 64 -26 54 -23 91 10 125 22 23 28 25 30 11 2
-9 -4 -34 -12 -54z m1470 60 c8 -19 -3 -65 -15 -65 -5 0 -8 18 -8 40 2 40 13
52 23 25z m2354 11 c0 -3 -4 -8 -10 -11 -5 -3 -10 -1 -10 4 0 6 5 11 10 11 6
0 10 -2 10 -4z m-3637 -67 c31 -51 36 -67 31 -95 -8 -44 -46 -48 -66 -6 -7 15
-23 28 -35 30 -21 3 -22 5 -9 30 7 15 16 44 20 65 4 20 10 37 14 37 4 0 24
-28 45 -61z m3422 41 c3 -5 1 -10 -4 -10 -6 0 -11 5 -11 10 0 6 2 10 4 10 3 0
8 -4 11 -10z m-6570 -50 c31 -18 62 -44 70 -61 9 -16 19 -29 23 -29 4 -1 17
-9 30 -20 l23 -19 -27 -58 c-22 -47 -38 -65 -87 -98 -61 -41 -158 -85 -185
-85 -9 0 -23 -6 -31 -14 -25 -23 -70 -27 -97 -10 -16 11 -28 13 -41 6 -19 -11
-73 13 -73 32 0 15 42 56 56 56 7 0 22 10 33 21 16 18 20 35 20 87 -1 105 46
124 58 23 8 -69 24 -44 25 39 0 34 5 63 10 66 5 3 6 22 2 41 -5 28 -4 35 7 31
8 -3 26 5 41 18 33 27 58 22 143 -26z m2822 -7 c-3 -10 -5 -2 -5 17 0 19 2 27
5 18 2 -10 2 -26 0 -35z m-183 -28 c-4 -8 -8 -15 -10 -15 -2 0 -4 7 -4 15 0 8
4 15 10 15 5 0 7 -7 4 -15z m-145 -47 l22 -43 -26 28 c-14 15 -25 35 -25 43 0
23 7 17 29 -28z m207 -5 c-10 -10 -19 5 -10 18 6 11 8 11 12 0 2 -7 1 -15 -2
-18z m178 -19 c5 -32 3 -43 -9 -47 -11 -5 -15 1 -15 25 l0 32 -36 -35 c-41
-39 -67 -83 -56 -94 4 -5 1 -5 -6 -1 -22 13 -8 40 53 101 33 33 61 60 62 60 1
0 4 -19 7 -41z m-834 -15 c13 -22 2 -42 -32 -60 -39 -21 -57 29 -25 69 15 19
45 14 57 -9z m3255 -19 c-12 -19 -22 -10 -17 16 4 22 6 24 14 10 5 -9 6 -21 3
-26z m-2382 -30 c-7 -27 -10 -25 -15 10 -3 22 -2 27 8 19 6 -5 10 -19 7 -29z
m-353 -12 c0 -6 6 -8 13 -5 7 3 13 -3 14 -14 1 -10 16 -32 32 -48 17 -17 31
-35 31 -40 0 -13 40 -81 62 -105 10 -11 18 -25 18 -32 0 -7 3 -20 7 -30 4 -11
3 -15 -4 -11 -6 4 -16 0 -23 -8 -20 -24 -40 1 -40 51 0 36 -6 51 -36 84 -35
38 -64 52 -64 29 0 -5 -4 -7 -10 -4 -14 9 -13 42 2 47 7 3 -4 22 -27 46 -21
23 -30 40 -21 36 11 -4 16 -1 16 10 0 10 6 13 15 10 8 -4 15 -11 15 -16z
m2891 -22 c5 -6 9 -18 9 -29 0 -15 -4 -14 -25 9 -29 31 -30 35 -12 53 10 10
13 9 15 -6 2 -10 8 -22 13 -27z m-3486 -6 c21 -22 35 -40 29 -40 -5 0 -28 18
-49 40 -21 22 -35 40 -29 40 5 0 28 -18 49 -40z m995 5 c0 -8 5 -15 10 -15 13
0 13 -25 0 -70 -18 -63 -23 -66 -72 -47 -24 9 -51 17 -61 17 -11 0 -17 8 -17
23 0 20 4 23 29 19 22 -3 28 -8 24 -21 -3 -9 4 -1 16 17 12 18 21 35 21 38 0
9 35 53 43 54 4 0 7 -7 7 -15z m-71 -34 c-7 -21 -15 -29 -21 -23 -6 6 -4 19 7
36 10 15 19 25 21 23 2 -2 -1 -18 -7 -36z m2969 11 c6 -18 -15 -14 -22 4 -4
10 -1 14 6 12 6 -2 14 -10 16 -16z m-1858 -23 c0 -6 -4 -7 -10 -4 -5 3 -10 11
-10 16 0 6 5 7 10 4 6 -3 10 -11 10 -16z m-1474 -25 c-11 -8 -14 -14 -8 -14
21 0 13 -28 -10 -36 -13 -5 -26 -7 -30 -6 -5 1 -8 -2 -8 -8 0 -5 -4 -10 -10
-10 -16 0 0 27 23 38 12 6 16 11 9 11 -20 1 -83 -30 -104 -51 -10 -10 -30 -19
-45 -19 -22 -1 -23 -3 -7 -6 16 -3 20 -10 16 -29 -5 -27 -11 -26 -81 2 -41 17
-36 24 44 57 33 14 94 43 135 64 46 25 79 36 85 31 6 -6 3 -14 -9 -24z m141
14 c-3 -8 -6 -5 -6 6 -1 11 2 17 5 13 3 -3 4 -12 1 -19z m1587 -3 c16 -29 23
-32 87 -39 82 -10 86 -27 4 -19 l-65 6 15 -44 c8 -24 19 -64 25 -87 11 -42 12
-43 30 -27 17 15 24 16 50 5 16 -7 30 -17 30 -22 0 -5 11 -20 24 -32 30 -31
40 -56 22 -56 -8 0 -17 6 -20 13 -3 6 -4 -1 -3 -18 2 -25 11 -35 51 -56 49
-27 86 -66 49 -52 -10 4 -20 10 -23 13 -3 4 -45 32 -95 63 -49 30 -100 66
-112 79 -12 13 -38 68 -58 123 -19 55 -44 116 -55 136 l-20 36 27 -2 c15 0 31
-10 37 -20z m33 0 c0 -8 -4 -12 -9 -9 -5 3 -6 10 -3 15 9 13 12 11 12 -6z
m-4010 -42 c-3 -10 -5 -2 -5 17 0 19 2 27 5 18 2 -10 2 -26 0 -35z m3700 -20
c-2 -16 -4 -5 -4 22 0 28 2 40 4 28 2 -13 2 -35 0 -50z m-2092 47 c3 -5 2 -10
-4 -10 -5 0 -13 5 -16 10 -3 6 -2 10 4 10 5 0 13 -4 16 -10z m-665 -35 c0 -5
-5 -3 -10 5 -5 8 -10 20 -10 25 0 6 5 3 10 -5 5 -8 10 -19 10 -25z m586 0 c-4
-14 -15 -34 -26 -45 -26 -26 -25 -13 0 20 11 14 20 31 20 38 0 6 3 12 6 12 3
0 3 -11 0 -25z m2224 -25 c0 -13 -1 -13 -10 0 -5 8 -10 22 -10 30 0 13 1 13
10 0 5 -8 10 -22 10 -30z m1200 30 c0 -5 -2 -10 -4 -10 -3 0 -8 5 -11 10 -3 6
-1 10 4 10 6 0 11 -4 11 -10z m150 -20 c9 -16 8 -20 -5 -20 -8 0 -15 9 -15 20
0 11 2 20 5 20 2 0 9 -9 15 -20z m-3683 -6 c-3 -3 -12 -4 -19 -1 -8 3 -5 6 6
6 11 1 17 -2 13 -5z m478 -14 c3 -5 1 -10 -4 -10 -6 0 -11 5 -11 10 0 6 2 10
4 10 3 0 8 -4 11 -10z m-535 -10 c0 -5 -5 -10 -11 -10 -5 0 -7 5 -4 10 3 6 8
10 11 10 2 0 4 -4 4 -10z m2780 -15 c0 -8 -7 -15 -15 -15 -8 0 -15 7 -15 15 0
8 7 15 15 15 8 0 15 -7 15 -15z m90 -16 c0 -5 -4 -9 -10 -9 -5 0 -10 7 -10 16
0 8 5 12 10 9 6 -3 10 -10 10 -16z m120 11 c0 -5 -2 -10 -4 -10 -3 0 -8 5 -11
10 -3 6 -1 10 4 10 6 0 11 -4 11 -10z m740 0 c0 -5 -4 -10 -10 -10 -5 0 -10 5
-10 10 0 6 5 10 10 10 6 0 10 -4 10 -10z m-1125 -31 c22 -41 13 -48 -14 -11
-23 33 -26 42 -11 42 5 0 17 -14 25 -31z m-1485 -19 c0 -5 -2 -10 -4 -10 -3 0
-8 5 -11 10 -3 6 -1 10 4 10 6 0 11 -4 11 -10z m-150 -42 c-5 -18 -10 -42 -12
-53 -4 -20 -4 -20 -15 0 -9 17 -8 27 9 53 25 40 29 40 18 0z m2845 -115 c7
-21 4 -23 -35 -23 l-42 0 7 -47 c3 -27 17 -73 31 -103 22 -50 22 -53 3 -30
-44 54 -57 67 -107 111 l-52 47 40 26 c22 14 48 26 59 26 21 0 51 40 51 68 0
10 6 30 13 45 11 25 12 23 18 -36 4 -34 10 -72 14 -84z m-3329 99 c-9 -8 -26
10 -26 26 1 15 2 15 15 -2 8 -11 13 -21 11 -24z m2371 30 c13 -2 73 -105 73
-127 0 -22 -18 -18 -31 8 -6 12 -33 45 -60 72 -48 50 -48 51 -22 49 16 0 33
-2 40 -2z m-2487 -32 c0 -22 -16 -26 -40 -10 -13 8 -12 10 3 10 9 0 17 5 17
10 0 6 5 10 10 10 6 0 10 -9 10 -20z m-30 -102 c0 -21 -4 -22 -31 -8 -21 12
-26 46 -6 53 15 5 36 -21 37 -45z m-76 -7 c-6 -6 -24 19 -24 34 1 6 7 1 15 -9
8 -11 12 -22 9 -25z m-314 9 c0 -5 -7 -10 -16 -10 -8 0 -12 5 -9 10 3 6 10 10
16 10 5 0 9 -4 9 -10z m1102 -46 c21 -15 38 -28 38 -29 0 -7 -101 2 -107 10
-5 4 4 5 19 1 23 -5 25 -3 21 15 -3 12 -11 18 -19 15 -8 -3 -14 -1 -14 4 0 17
23 11 62 -16z m1245 -51 c-3 -10 -5 -2 -5 17 0 19 2 27 5 18 2 -10 2 -26 0
-35z m457 -18 c54 -28 57 -32 50 -60 -3 -16 -6 -39 -6 -50 1 -16 -2 -14 -14 8
-22 41 -27 28 -8 -21 17 -42 13 -105 -7 -118 -17 -10 -19 0 -7 39 9 29 8 47
-5 92 -8 30 -11 53 -6 50 5 -4 9 -2 9 2 0 5 -8 13 -19 20 -21 13 -70 78 -54
72 5 -2 35 -17 67 -34z m1342 -20 c7 -17 -21 -65 -36 -65 -15 0 -50 38 -50 54
0 13 15 18 68 25 7 0 15 -6 18 -14z m-3299 -21 c-3 -3 -12 -4 -19 -1 -8 3 -5
6 6 6 11 1 17 -2 13 -5z m-589 -25 c-17 -11 -49 -11 -67 0 -10 6 1 9 33 9 29
-1 42 -4 34 -9z m3725 -101 c-14 -29 -31 -69 -38 -88 -7 -19 -18 -35 -26 -35
-8 0 -17 -4 -22 -10 -6 -8 -4 36 3 55 1 3 1 21 1 40 -1 27 1 31 8 20 9 -13 18
-8 53 28 24 23 43 42 44 42 1 0 -9 -24 -23 -52z m-1126 -25 c-3 -10 -5 -2 -5
17 0 19 2 27 5 18 2 -10 2 -26 0 -35z m-129 25 c16 -16 15 -36 -2 -54 -22 -22
-29 -17 -22 16 3 17 1 30 -4 30 -6 0 -10 5 -10 10 0 14 23 13 38 -2z m58 -16
c-17 -16 -18 -16 -5 5 7 12 15 20 18 17 3 -2 -3 -12 -13 -22z m-129 -32 c0
-16 -4 -27 -9 -24 -4 3 -8 16 -8 30 0 13 4 24 8 24 5 0 9 -13 9 -30z m-2517
-36 c0 -55 57 -231 106 -329 26 -52 51 -95 56 -95 4 0 8 -5 8 -10 0 -6 25 -44
55 -85 32 -43 55 -84 55 -99 0 -14 11 -36 25 -50 29 -29 33 -71 9 -104 -14
-20 -14 -22 1 -22 9 0 15 -6 12 -12 -2 -9 -19 -12 -50 -10 -43 3 -47 2 -47
-18 0 -19 -2 -20 -15 -10 -13 11 -15 7 -15 -31 0 -32 10 -60 41 -111 22 -38
39 -79 38 -91 -2 -12 2 -38 9 -57 6 -19 14 -51 16 -70 3 -19 8 -48 12 -64 5
-22 4 -27 -6 -21 -15 9 -5 -28 17 -63 9 -14 12 -34 9 -48 -4 -16 0 -36 11 -55
16 -26 16 -31 3 -39 -13 -8 -12 -16 10 -56 17 -34 21 -49 12 -52 -14 -4 -6
-46 14 -77 16 -22 19 -49 5 -41 -5 4 -11 0 -14 -6 -2 -7 -7 9 -11 36 -7 44
-16 58 -79 121 -40 40 -97 102 -127 139 -49 60 -58 78 -82 169 -15 56 -27 120
-28 143 0 47 -35 191 -50 209 -16 19 -25 131 -11 139 6 4 11 36 12 74 1 106 5
110 67 53 64 -59 90 -68 102 -37 4 12 25 37 45 55 l37 32 -26 33 c-62 82 -121
175 -143 226 -13 30 -28 64 -34 74 -35 61 -77 234 -71 290 5 38 22 14 22 -30z
m4565 16 c10 -16 -12 -12 -29 6 -9 8 -16 18 -16 20 0 7 38 -15 45 -26z m-2336
-164 c-7 -39 -15 -63 -17 -53 -2 10 1 47 7 81 6 35 12 83 13 107 2 41 2 41 5
-10 2 -30 -1 -87 -8 -125z m-2192 72 c-3 -8 -6 -5 -6 6 -1 11 2 17 5 13 3 -3
4 -12 1 -19z m2648 -8 c7 -34 -2 -73 -16 -65 -5 4 -9 -3 -9 -14 0 -10 -3 -28
-6 -38 -4 -11 -3 -14 3 -6 4 6 8 -15 9 -52 0 -35 -3 -62 -7 -59 -9 5 -17 -22
-23 -79 -2 -21 -11 -46 -20 -55 -15 -15 -16 -13 -16 26 0 30 -4 41 -11 36 -13
-8 -4 -241 11 -310 5 -22 5 -44 0 -53 -7 -11 -9 -2 -10 31 0 26 -4 49 -9 52
-4 3 -11 32 -14 65 -4 33 -10 79 -13 102 -5 31 -4 40 4 35 9 -5 12 8 11 46 -2
37 -4 44 -7 23 l-5 -30 -12 40 c-12 39 -13 36 -20 -73 l-8 -113 -58 4 c-56 4
-64 0 -60 -26 2 -13 -52 5 -73 25 -20 18 -62 26 -51 8 3 -5 13 -6 23 -3 16 6
16 5 -1 -14 -9 -11 -15 -22 -12 -25 3 -3 -6 -8 -20 -10 -20 -4 -25 -1 -25 15
0 27 68 147 87 154 29 11 105 91 98 103 -4 6 8 28 27 49 18 22 47 55 63 75
l30 37 6 -38 6 -38 2 45 c1 39 8 52 53 103 29 31 55 57 59 57 4 0 10 -13 14
-30z m1105 15 c7 -9 8 -15 2 -15 -5 0 -12 7 -16 15 -3 8 -4 15 -2 15 2 0 9 -7
16 -15z m-300 -5 c0 -5 -4 -10 -10 -10 -5 0 -10 5 -10 10 0 6 5 10 10 10 6 0
10 -4 10 -10z m-349 -60 l55 0 18 -52 c21 -59 43 -114 57 -140 9 -18 13 -68 4
-68 -10 0 -81 43 -101 61 -11 10 -25 19 -31 19 -6 0 -22 14 -35 31 -13 17 -39
47 -58 67 -20 20 -44 50 -54 66 l-18 29 53 -6 c30 -4 79 -7 110 -7z m-308 -50
c3 -11 1 -18 -4 -14 -5 3 -9 12 -9 20 0 20 7 17 13 -6z m-3151 -190 c6 -135
-6 -95 -16 60 -4 59 -3 89 2 80 5 -8 12 -71 14 -140z m3184 28 c10 -43 21 -78
24 -78 3 0 4 -16 2 -35 -5 -40 -22 -37 -22 3 0 15 -6 36 -14 47 -7 11 -15 58
-18 105 -6 90 -2 83 28 -42z m-2624 17 c30 -58 118 -258 118 -268 0 -4 -4 -6
-9 -3 -5 4 -11 0 -14 -6 -2 -7 -12 2 -21 21 -10 18 -13 30 -7 27 27 -17 -1 46
-95 215 -30 54 -54 101 -54 105 0 16 63 -53 82 -91z m1081 25 c10 -33 17 -68
17 -77 -1 -35 -27 14 -35 64 -4 25 -9 52 -12 59 -3 8 -1 14 4 14 5 0 17 -27
26 -60z m-362 40 c16 -9 28 -50 15 -50 -2 0 -11 -3 -20 -6 -13 -5 -16 1 -16
25 0 41 -26 41 -35 1 -7 -33 -25 -41 -25 -11 0 23 25 51 46 51 9 0 24 -5 35
-10z m4149 -40 c0 -5 -4 -10 -10 -10 -5 0 -10 5 -10 10 0 6 5 10 10 10 6 0 10
-4 10 -10z m-2919 -110 c-7 -96 -8 -99 -9 -35 -2 65 7 150 14 143 1 -2 -1 -51
-5 -108z m2834 100 c3 -5 1 -10 -4 -10 -6 0 -11 5 -11 10 0 6 2 10 4 10 3 0 8
-4 11 -10z m-4077 -28 c2 -7 -6 -12 -17 -12 -21 0 -27 11 -14 24 9 9 26 2 31
-12z m4247 -11 c-9 -16 -25 -3 -18 15 4 10 9 12 15 6 6 -6 7 -15 3 -21z
m-5228 -28 c-3 -10 -5 -2 -5 17 0 19 2 27 5 18 2 -10 2 -26 0 -35z m892 -38
c21 -19 43 -35 49 -35 14 0 93 -52 88 -58 -7 -6 -66 21 -66 30 0 5 -11 8 -24
8 -14 0 -31 7 -40 15 -8 8 -18 15 -22 15 -9 0 -44 41 -44 52 0 17 21 7 59 -27z
m2380 -64 c28 -15 41 -49 52 -136 5 -38 14 -71 19 -73 6 -2 10 -11 10 -20 0
-9 9 -28 20 -42 11 -14 20 -33 20 -42 0 -31 -25 -19 -39 17 -7 19 -17 35 -22
35 -5 0 -9 11 -9 25 0 43 -55 165 -75 165 -8 0 -15 4 -15 9 0 4 -11 24 -24 44
l-24 35 32 -3 c18 -1 43 -8 55 -14z m-2679 -16 c0 -8 -7 -15 -15 -15 -16 0
-20 12 -8 23 11 12 23 8 23 -8z m2358 -91 c-2 -41 0 -74 4 -74 5 0 8 -5 8 -12
0 -6 6 -19 14 -27 13 -15 40 -59 72 -120 15 -29 6 -51 -11 -28 -15 20 -25 22
-25 4 0 -30 81 -177 131 -237 29 -36 43 -56 31 -46 -36 31 -35 13 2 -30 42
-49 61 -88 70 -139 4 -22 21 -61 37 -86 36 -57 38 -75 4 -53 -38 25 -54 12
-22 -18 16 -15 24 -29 18 -32 -6 -4 -25 10 -43 31 -18 20 -43 47 -55 59 -13
12 -23 29 -23 38 0 9 -4 16 -8 16 -5 0 -17 27 -28 60 -15 48 -22 59 -36 54
-13 -4 -23 7 -41 43 -13 26 -22 54 -20 61 3 6 0 12 -6 12 -6 0 -11 9 -11 20 0
12 -6 31 -14 43 -20 31 -34 118 -42 260 -7 124 -21 137 -24 22 -1 -51 -3 -56
-11 -35 -10 24 -9 67 7 244 9 102 28 77 22 -30z m-1929 14 c5 -18 12 -51 15
-73 3 -22 3 -32 0 -22 -12 39 -33 5 -35 -58 0 -16 -3 -24 -6 -17 -8 21 -18 13
-20 -15 -1 -32 -23 -104 -35 -118 -4 -5 -8 -19 -8 -32 0 -21 18 -30 53 -24 4
0 7 -5 7 -13 0 -15 64 -31 81 -20 19 12 -16 -143 -46 -201 -25 -50 -51 -54
-47 -7 2 21 -5 48 -21 75 -13 23 -27 60 -30 82 -4 22 -12 44 -19 50 -24 19
-21 107 7 180 13 37 23 71 20 76 -3 4 -1 16 6 26 13 22 -2 89 -20 86 -6 -2
-11 8 -11 21 0 17 9 28 32 39 40 19 63 9 77 -35z m148 2 c36 -22 69 -40 74
-40 5 0 9 -4 9 -10 0 -5 5 -10 11 -10 6 0 30 -13 54 -30 24 -16 48 -30 54 -30
6 0 11 -7 11 -15 0 -8 4 -15 8 -15 4 0 32 -23 61 -52 38 -37 51 -57 47 -71 -3
-11 12 -50 36 -95 29 -55 38 -80 31 -91 -6 -10 -3 -31 9 -64 10 -26 16 -52 13
-57 -3 -5 -1 -19 5 -30 6 -11 8 -26 4 -32 -13 -20 -34 23 -34 69 0 28 -5 46
-14 49 -13 5 -30 56 -27 81 1 6 -7 14 -17 17 -28 9 -57 116 -31 116 6 0 8 9 4
21 -5 16 -4 19 5 14 8 -5 11 -3 9 4 -3 7 -8 12 -13 11 -12 -3 -66 52 -66 67 0
7 -9 17 -20 23 -11 6 -20 17 -20 25 0 8 -6 15 -13 15 -8 0 -22 9 -32 20 -10
11 -22 20 -26 20 -5 0 -32 15 -61 33 -29 18 -73 43 -98 56 -25 12 -56 29 -70
37 l-25 16 28 -7 c16 -3 58 -24 94 -45z m-1440 3 c-3 -10 -5 -4 -5 12 0 17 2
24 5 18 2 -7 2 -21 0 -30z m1810 -79 c53 -84 74 -132 54 -120 -6 4 -11 13 -11
20 0 7 -11 26 -25 42 -14 16 -28 39 -31 52 -4 12 -10 22 -14 22 -11 0 -50 64
-50 81 0 20 19 -3 77 -97z m679 -9 c10 -152 9 -150 18 -163 11 -17 -12 -42
-38 -42 -17 0 -18 -2 -6 -10 13 -8 13 -10 -1 -10 -16 0 -32 -30 -45 -82 -4
-20 -2 -27 13 -30 26 -6 93 13 93 26 1 6 12 -20 25 -59 13 -38 35 -97 49 -130
26 -62 35 -105 16 -75 -6 8 -15 32 -21 53 -7 26 -18 41 -36 48 -28 10 -53 -2
-53 -27 0 -8 -6 -11 -16 -7 -14 5 -14 3 -4 -14 10 -15 10 -24 2 -39 -11 -18
-12 -17 -9 5 1 13 -4 26 -10 28 -7 3 -13 -3 -13 -12 0 -15 -1 -15 -16 0 -10 9
-24 13 -36 10 -10 -4 -25 -2 -33 5 -11 9 -12 7 -8 -9 3 -12 9 -18 14 -16 9 6
-5 -45 -23 -82 -6 -11 -8 -26 -4 -31 3 -6 2 -13 -4 -17 -6 -4 -10 5 -10 20 0
15 -5 35 -11 46 -8 15 -5 35 11 85 12 35 25 62 29 59 5 -2 7 9 5 26 -2 16 0
28 5 25 5 -4 11 15 14 42 13 109 18 136 27 147 6 7 13 39 16 71 3 33 11 84 19
115 8 31 17 80 21 108 4 29 8 50 10 49 1 -2 6 -53 10 -113z m-3687 5 c0 -23
-15 7 -22 45 l-6 30 14 -30 c8 -16 14 -37 14 -45z m3966 60 c4 -6 -5 -10 -19
-10 -14 0 -26 5 -26 10 0 6 9 10 19 10 11 0 23 -4 26 -10z m-1950 -20 c3 -5 2
-10 -4 -10 -5 0 -13 5 -16 10 -3 6 -2 10 4 10 5 0 13 -4 16 -10z m1852 -6 c-3
-3 -12 -4 -19 -1 -8 3 -5 6 6 6 11 1 17 -2 13 -5z m-3860 -76 c-3 -8 -6 -5 -6
6 -1 11 2 17 5 13 3 -3 4 -12 1 -19z m6559 1 c39 -24 74 -69 74 -96 -1 -20 3
-24 -47 45 -11 15 -22 20 -35 16 -11 -3 -17 -1 -16 6 3 12 -8 20 -52 38 -24
10 -24 11 9 11 18 1 49 -8 67 -20z m-176 -9 c0 -16 -27 -23 -58 -14 l-27 7 30
7 c45 11 55 11 55 0z m-3861 -60 c1 -13 0 -13 -9 0 -5 8 -9 26 -9 40 l1 25 8
-25 c4 -14 8 -32 9 -40z m-2474 -50 c5 -16 4 -22 -3 -15 -9 10 -43 103 -41
114 1 8 35 -69 44 -99z m4725 55 c0 -8 4 -15 10 -15 5 0 12 -11 16 -25 3 -14
13 -25 20 -25 8 0 22 -16 31 -35 9 -19 20 -35 25 -35 4 0 8 -9 8 -19 0 -11 7
-26 15 -35 8 -8 15 -20 15 -27 0 -7 -18 5 -40 26 -22 21 -40 42 -40 47 0 4
-12 20 -26 35 -23 25 -74 119 -74 137 0 4 9 2 20 -4 11 -6 20 -17 20 -25z
m-2884 -22 c4 -27 7 -73 6 -103 -8 -218 -7 -223 48 -200 36 15 49 7 28 -17
-17 -20 -58 -137 -58 -165 0 -10 -4 -18 -9 -18 -9 0 -24 112 -23 168 0 17 -4
32 -9 32 -5 0 -9 23 -9 50 0 47 -11 63 -26 39 -11 -19 -24 5 -34 65 -10 63 1
96 31 96 20 0 29 20 29 66 0 50 18 41 26 -13z m1128 17 c3 -11 9 -29 12 -40 3
-11 1 -20 -5 -20 -5 0 -13 10 -16 23 -4 12 -9 30 -11 40 -3 9 -1 17 5 17 5 0
12 -9 15 -20z m416 1 c5 -11 10 -29 10 -40 0 -11 6 -35 14 -53 8 -18 17 -45
21 -60 6 -31 25 -38 25 -10 0 21 18 42 37 42 11 0 12 -9 7 -37 -4 -21 -7 -66
-7 -100 1 -49 -2 -60 -13 -56 -8 3 -14 2 -12 -3 2 -5 -8 -27 -21 -49 -14 -22
-24 -47 -22 -55 2 -9 -7 -6 -24 11 -14 14 -27 35 -28 47 -1 12 -4 22 -7 22
-19 0 -160 158 -160 179 0 6 -8 11 -17 11 -12 0 -1 14 32 43 27 23 58 53 70
66 56 67 76 76 95 42z m2980 1 c0 -11 -8 -27 -19 -36 -17 -16 -19 -16 -24 5
-8 29 2 49 24 49 12 0 19 -7 19 -18z m-518 -48 c35 -31 73 -63 86 -72 17 -11
22 -21 17 -39 -3 -13 -1 -23 5 -23 7 0 10 -28 9 -79 -3 -76 -10 -95 -22 -51
-3 11 -1 20 4 20 10 0 -14 36 -101 150 -48 63 -88 150 -70 150 5 0 38 -25 72
-56z m698 26 c0 -5 -4 -10 -10 -10 -5 0 -10 5 -10 10 0 6 5 10 10 10 6 0 10
-4 10 -10z m-4031 -98 c1 -8 -9 -11 -31 -7 -18 4 -33 7 -34 8 -1 1 5 25 13 52
l15 50 19 -45 c10 -25 18 -51 18 -58z m37 50 c-9 -8 -26 10 -26 26 1 15 2 15
15 -2 8 -11 13 -21 11 -24z m-2527 -57 c0 -5 -4 -3 -9 5 -5 8 -9 22 -9 30 0
16 17 -16 18 -35z m5291 5 c0 -5 -7 -7 -15 -4 -8 4 -12 10 -9 15 6 11 24 2 24
-11z m1237 -29 c10 -6 14 -10 8 -10 -19 0 -57 38 -49 50 5 9 10 6 15 -8 4 -12
16 -26 26 -32z m-3967 6 c0 -5 -4 -5 -10 -2 -5 3 -10 14 -10 23 0 15 2 15 10
2 5 -8 10 -19 10 -23z m3895 23 c3 -5 2 -10 -4 -10 -5 0 -13 5 -16 10 -3 6 -2
10 4 10 5 0 13 -4 16 -10z m-895 -24 c0 -16 -18 -31 -27 -22 -8 8 5 36 17 36
5 0 10 -6 10 -14z m-3652 -30 c13 -22 16 -33 8 -30 -11 4 -36 45 -36 59 0 12
10 2 28 -29z m598 7 c-10 -10 -19 5 -10 18 6 11 8 11 12 0 2 -7 1 -15 -2 -18z
m454 7 c0 -5 -4 -10 -10 -10 -5 0 -10 5 -10 10 0 6 5 10 10 10 6 0 10 -4 10
-10z m2140 -5 c0 -8 -2 -15 -4 -15 -2 0 -6 7 -10 15 -3 8 -1 15 4 15 6 0 10
-7 10 -15z m-3163 -17 c-3 -8 -6 -5 -6 6 -1 11 2 17 5 13 3 -3 4 -12 1 -19z
m-1907 -23 c0 -5 -5 -3 -10 5 -5 8 -10 20 -10 25 0 6 5 3 10 -5 5 -8 10 -19
10 -25z m2950 4 c0 -5 -4 -9 -10 -9 -5 0 -10 7 -10 16 0 8 5 12 10 9 6 -3 10
-10 10 -16z m2524 8 c23 -17 18 -60 -8 -65 -10 -2 -22 2 -27 10 -7 11 -9 10
-9 -2 0 -9 -5 -7 -16 8 -15 21 -15 25 2 43 20 22 34 24 58 6z m-1487 -29 c-3
-8 -6 -5 -6 6 -1 11 2 17 5 13 3 -3 4 -12 1 -19z m2300 -55 c-2 -16 -4 -3 -4
27 0 30 2 43 4 28 2 -16 2 -40 0 -55z m180 40 c-3 -10 -5 -4 -5 12 0 17 2 24
5 18 2 -7 2 -21 0 -30z m-3927 -25 c44 -70 101 -140 107 -134 3 3 14 -6 25
-19 27 -35 64 -157 73 -240 9 -99 6 -361 -5 -391 -7 -17 -29 -34 -66 -51 -50
-22 -59 -24 -81 -12 -22 12 -27 11 -38 -4 -11 -16 -13 -14 -18 13 -4 16 -8 60
-11 97 -3 47 -2 55 3 28 6 -34 8 -27 14 55 10 152 21 362 19 395 -1 17 -3 73
-6 125 -3 80 -8 102 -31 143 -36 63 -27 60 15 -5z m96 -91 l17 -32 -22 19
c-11 11 -21 25 -21 31 0 7 -9 24 -20 38 -11 14 -20 31 -20 37 0 14 41 -43 66
-93z m364 57 c25 -59 26 -74 0 -46 -11 11 -17 28 -14 36 3 9 1 16 -5 16 -6 0
-11 9 -11 20 0 31 7 24 30 -26z m2970 -20 c0 -8 -4 -12 -10 -9 -5 3 -10 10
-10 16 0 5 5 9 10 9 6 0 10 -7 10 -16z m405 -35 c17 -31 17 -72 1 -67 -5 2
-10 14 -11 28 -1 14 -6 36 -9 48 -11 32 1 27 19 -9z m-1221 -3 c3 -13 9 -32
12 -43 4 -14 1 -13 -15 6 -21 23 -29 61 -12 61 5 0 12 -11 15 -24z m786 -14
c0 -15 -2 -15 -10 -2 -13 20 -13 33 0 25 6 -3 10 -14 10 -23z m50 -26 c-1 -20
-1 -20 -20 3 -11 13 -20 30 -20 39 0 13 3 12 20 -3 11 -10 20 -28 20 -39z
m-2960 2 c0 -18 -2 -20 -9 -8 -6 8 -7 18 -5 22 9 14 14 9 14 -14z m595 2 c-8
-25 10 -27 24 -2 6 9 10 13 11 7 0 -17 -14 -32 -37 -37 -26 -7 -26 -8 -13 26
11 30 24 35 15 6z m-422 3 c-7 -2 -21 -2 -30 0 -10 3 -4 5 12 5 17 0 24 -2 18
-5z m61 -18 c3 -9 0 -15 -8 -15 -7 0 -13 7 -13 15 0 8 4 15 8 15 4 0 9 -7 13
-15z m1666 5 c0 -5 -21 -10 -47 -10 -35 0 -44 3 -33 10 20 13 80 13 80 0z
m616 -35 c1 -14 -2 -25 -7 -25 -5 0 -9 14 -9 32 0 36 12 31 16 -7z m-2239 -36
c-4 -15 -2 -19 9 -15 8 3 14 0 14 -8 0 -8 -12 -13 -30 -14 -16 0 -30 3 -30 8
0 5 7 7 15 4 11 -5 13 -2 9 10 -3 9 -10 16 -15 16 -5 0 -9 5 -9 10 0 6 10 10
21 10 17 0 20 -5 16 -21z m-1470 -21 c-3 -8 -6 -5 -6 6 -1 11 2 17 5 13 3 -3
4 -12 1 -19z m4856 5 c9 -9 -13 -34 -24 -27 -14 8 -11 34 4 34 8 0 17 -3 20
-7z m-3676 -45 c-3 -7 -5 -2 -5 12 0 14 2 19 5 13 2 -7 2 -19 0 -25z m1878 12
c4 -6 -10 -10 -39 -10 -58 0 -67 14 -11 18 24 1 46 -2 50 -8z m151 -9 l24 -19
-63 -6 c-66 -8 -97 -2 -97 18 0 21 12 26 63 26 33 0 57 -6 73 -19z m-2816 -32
c0 -16 -4 -29 -9 -29 -4 0 -6 -11 -4 -24 3 -13 -1 -27 -8 -31 -9 -6 -11 -3 -6
9 4 10 2 26 -3 37 -7 13 -7 19 0 19 5 0 10 14 10 31 0 17 4 28 10 24 6 -3 10
-19 10 -36z m116 28 c11 4 14 -6 14 -40 0 -34 -8 -59 -31 -96 -43 -68 -61 -70
-38 -3 8 22 7 36 -1 53 -10 18 -9 24 4 31 9 5 16 22 16 40 0 24 3 29 11 21 6
-6 18 -9 25 -6z m4089 4 c5 -9 -44 -53 -112 -100 -40 -27 -70 -21 -84 17 -9
24 -7 30 28 59 34 29 45 33 100 33 34 0 64 -4 68 -9z m-2507 -23 c-2 -6 4 -20
14 -30 10 -10 18 -31 18 -47 0 -23 6 -30 28 -37 15 -4 30 -7 35 -6 13 3 7 -25
-8 -38 -19 -16 -19 -39 1 -80 l17 -33 13 33 c8 18 14 42 14 54 0 11 5 28 10
36 8 13 10 12 10 -2 0 -10 5 -18 11 -18 5 0 17 -17 25 -37 8 -21 20 -48 26
-60 6 -12 8 -33 4 -47 -5 -19 -3 -24 8 -20 8 3 22 -8 35 -29 27 -45 27 -56 -2
-29 -13 12 -38 24 -57 27 -19 3 -28 2 -20 -1 8 -4 27 -16 43 -26 24 -17 27
-26 27 -73 0 -30 5 -57 10 -60 6 -3 10 -13 10 -21 0 -8 11 -27 25 -41 l24 -27
10 27 c7 17 18 27 30 27 40 0 111 -126 111 -199 l0 -33 -27 34 c-75 90 -173
176 -193 171 -5 -1 -26 14 -47 35 -26 26 -50 66 -77 132 -22 52 -63 140 -91
195 -29 55 -55 116 -59 136 -6 32 8 99 21 99 2 0 3 -5 1 -12z m2702 -3 c0 -8
-7 -15 -15 -15 -16 0 -20 12 -8 23 11 12 23 8 23 -8z m-4360 -57 c0 -5 -4 -8
-10 -8 -5 0 -10 10 -10 23 0 18 2 19 10 7 5 -8 10 -18 10 -22z m803 -5 c4 -19
2 -33 -3 -33 -6 0 -10 17 -10 37 0 43 5 41 13 -4z m2887 24 c0 -7 -30 -20 -72
-30 -40 -10 -89 -22 -108 -27 -45 -12 -90 -13 -90 -1 0 5 12 11 28 14 26 5 40
9 147 40 64 19 95 20 95 4z m-3423 -44 c-3 -10 -5 -2 -5 17 0 19 2 27 5 18 2
-10 2 -26 0 -35z m917 -28 c8 -62 -8 -31 -18 35 -5 30 -4 40 3 30 5 -8 12 -37
15 -65z m3122 46 c-8 -13 -36 -15 -36 -3 0 4 5 13 12 20 14 14 34 0 24 -17z
m-1490 11 c6 -4 14 -24 17 -44 5 -31 2 -38 -14 -43 -22 -7 -79 29 -79 50 0 15
37 45 55 45 5 0 15 -4 21 -8z m1124 -50 c0 -13 -3 -12 -20 3 -11 10 -17 22
-14 27 8 12 34 -11 34 -30z m-535 -2 c-3 -5 -15 -10 -26 -10 -10 0 -19 5 -19
10 0 6 12 10 26 10 14 0 23 -4 19 -10z m833 -12 c-3 -7 -11 -13 -18 -13 -7 0
-15 6 -17 13 -3 7 4 12 17 12 13 0 20 -5 18 -12z m-3435 -79 c-5 -5 -6 11 -3
34 4 41 5 41 8 8 2 -18 0 -37 -5 -42z m1179 -39 c21 -36 24 -50 16 -70 l-9
-25 -20 23 c-10 13 -24 43 -30 65 -6 23 -17 54 -25 69 -41 78 21 22 68 -62z
m-1715 -7 c-2 -21 -4 -6 -4 32 0 39 2 55 4 38 2 -18 2 -50 0 -70z m3893 77 c0
-5 -2 -10 -4 -10 -3 0 -8 5 -11 10 -3 6 -1 10 4 10 6 0 11 -4 11 -10z m-2951
-43 c0 -21 -1 -21 -9 -2 -12 28 -12 37 0 30 6 -3 10 -16 9 -28z m1186 14 c-3
-6 -11 -8 -17 -5 -6 4 -5 9 3 15 16 10 23 4 14 -10z m-2277 -27 c3 -23 -32
-44 -73 -44 -25 0 -26 8 -3 56 8 17 16 20 41 15 22 -5 33 -13 35 -27z m2721
-80 c-13 -83 -17 -99 -26 -91 -3 4 0 47 8 97 7 53 16 85 21 77 4 -8 2 -45 -3
-83z m-2302 24 c-2 -13 -4 -5 -4 17 -1 22 1 32 4 23 2 -10 2 -28 0 -40z m273
-20 c0 -51 -5 -47 -13 10 -3 24 -1 40 4 36 5 -3 9 -24 9 -46z m1117 20 c-3 -8
-6 -5 -6 6 -1 11 2 17 5 13 3 -3 4 -12 1 -19z m-2547 -40 c0 -10 -4 -18 -9
-18 -11 0 -21 25 -21 53 1 22 1 22 15 3 8 -11 15 -28 15 -38z m887 -30 c-2
-13 -4 -3 -4 22 0 25 2 35 4 23 2 -13 2 -33 0 -45z m2045 -2 l21 -31 -36 34
c-21 19 -37 39 -37 44 0 14 28 -11 52 -47z m-2292 29 c0 -9 -6 -12 -15 -9 -8
4 -12 10 -9 15 8 14 24 10 24 -6z m1940 -6 c0 -6 -4 -7 -10 -4 -5 3 -10 11
-10 16 0 6 5 7 10 4 6 -3 10 -11 10 -16z m128 -21 c7 -17 8 -28 2 -28 -6 0
-10 -9 -10 -20 0 -23 -10 -26 -28 -8 -15 15 -15 38 -2 74 11 29 19 25 38 -18z
m-841 -20 c-3 -7 -5 -2 -5 12 0 14 2 19 5 13 2 -7 2 -19 0 -25z m-1253 6 c15
-14 22 -34 12 -34 -2 0 -21 7 -41 16 -29 12 -35 18 -24 25 21 13 36 11 53 -7z
m2190 -26 c14 -53 4 -60 -38 -27 l-27 21 23 13 c32 18 35 18 42 -7z m-2725
-130 c17 -38 27 -68 23 -68 -13 0 -99 185 -94 200 5 14 13 -1 71 -132z m1348
80 c-2 -13 -4 -3 -4 22 0 25 2 35 4 23 2 -13 2 -33 0 -45z m2261 -8 c14 -45
17 -108 7 -139 -7 -23 -8 -23 -18 -6 -6 11 -12 64 -14 120 -3 99 1 103 25 25z
m-2858 8 c0 -26 -2 -48 -5 -48 -6 0 -19 32 -29 72 -5 23 -3 27 14 25 17 -1 20
-8 20 -49z m1796 20 c14 -28 15 -31 2 -20 -14 11 -31 52 -22 52 2 0 11 -15 20
-32z m-738 -38 c0 -9 -3 -7 -8 5 -5 11 -8 29 -8 40 0 16 2 15 8 -5 4 -14 8
-32 8 -40z m1642 40 c0 -52 -31 -152 -44 -139 -6 5 11 137 20 150 9 16 24 10
24 -11z m-2893 -14 c-3 -7 0 -19 6 -25 8 -8 7 -11 -3 -11 -23 0 -37 13 -37 33
0 10 8 17 20 17 12 0 17 -5 14 -14z m-498 -30 c24 -38 27 -60 9 -54 -11 4 -43
88 -33 88 2 0 13 -15 24 -34z m-1461 -12 c19 -5 33 -34 16 -34 -21 0 -94 24
-94 31 0 10 44 12 78 3z m1563 -41 c-9 -15 -10 -12 -10 17 0 29 1 32 10 18 7
-12 7 -24 0 -35z m615 5 c-11 -15 -16 -18 -16 -7 0 16 21 42 28 34 2 -2 -3
-14 -12 -27z m1573 -32 c11 -24 41 -61 66 -81 25 -21 43 -40 40 -43 -10 -11
-105 93 -131 143 -16 30 -20 45 -11 37 8 -7 24 -33 36 -56z m-1594 3 c4 -11 4
-23 1 -27 -9 -8 -32 18 -41 46 -6 21 -5 23 13 13 12 -6 24 -20 27 -32z m-2212
-10 c30 -12 38 -33 10 -25 -10 2 -37 8 -60 11 -33 5 -43 11 -43 25 0 16 4 17
33 9 17 -5 44 -14 60 -20z m6083 12 c-3 -5 -36 -14 -73 -21 -38 -7 -81 -18
-98 -25 -16 -7 -43 -17 -59 -24 -49 -20 -39 -5 15 23 28 15 83 33 123 40 92
17 98 18 92 7z m-2799 -48 c-3 -10 -5 -2 -5 17 0 19 2 27 5 18 2 -10 2 -26 0
-35z m1700 -89 c-6 -46 -15 -84 -20 -84 -4 0 -23 7 -42 14 -34 15 -46 38 -25
51 6 3 10 15 10 26 0 11 16 46 37 77 l36 57 8 -28 c4 -16 2 -66 -4 -113z m883
112 c0 -3 -4 -8 -10 -11 -5 -3 -10 -1 -10 4 0 6 5 11 10 11 6 0 10 -2 10 -4z
m200 -6 c0 -5 -10 -10 -22 -10 -19 0 -20 2 -8 10 19 13 30 13 30 0z m-4415
-97 c-7 -48 -25 -59 -25 -14 0 16 -3 42 -6 59 -5 24 -2 31 12 34 23 4 28 -18
19 -79z m665 83 c0 -2 -7 -9 -15 -16 -13 -11 -14 -10 -9 4 5 14 24 23 24 12z
m-2022 -21 c51 -11 46 -22 -15 -29 -32 -4 -66 -9 -78 -12 -25 -6 -58 17 -50
36 6 16 79 18 143 5z m1746 -16 c28 -33 33 -49 15 -49 -6 0 -16 14 -22 30 -13
35 -23 37 -47 10 -14 -17 -19 -18 -35 -6 -28 20 -12 46 29 46 26 0 40 -7 60
-31z m746 7 c0 -3 -4 -8 -10 -11 -5 -3 -10 -1 -10 4 0 6 5 11 10 11 6 0 10 -2
10 -4z m3187 -2 c-3 -3 -12 -4 -19 -1 -8 3 -5 6 6 6 11 1 17 -2 13 -5z m-3686
-31 c-8 -15 -10 -15 -11 -2 0 17 10 32 18 25 2 -3 -1 -13 -7 -23z m115 -35 c4
-7 -4 -2 -19 11 -20 18 -23 26 -14 36 10 10 13 8 18 -10 4 -13 10 -29 15 -37z
m2212 32 c17 -27 10 -25 -19 6 -13 14 -17 23 -9 19 9 -3 21 -14 28 -25z
m-2358 -16 c0 -14 -4 -23 -10 -19 -5 3 -10 15 -10 26 0 10 5 19 10 19 6 0 10
-12 10 -26z m-2339 -11 c13 -15 12 -15 -8 -4 -24 12 -29 21 -14 21 5 0 15 -7
22 -17z m5974 -13 c36 -6 98 -5 159 0 55 6 101 8 103 6 2 -2 -4 -12 -14 -23
-22 -26 -74 -43 -126 -43 -28 0 -70 -14 -134 -46 -52 -26 -96 -44 -99 -41 -4
3 -3 43 1 87 7 77 8 81 29 75 11 -3 48 -10 81 -15z m-1689 -47 c8 -21 21 -50
29 -65 13 -26 13 -28 -4 -28 -10 0 -26 9 -36 20 -17 19 -37 95 -27 105 13 12
24 3 38 -32z m290 -10 c-4 -4 -11 -1 -16 7 -16 25 -11 35 7 17 9 -9 13 -20 9
-24z m-481 7 c13 -15 15 -24 8 -31 -8 -8 -13 -5 -18 10 -3 12 -11 21 -16 21
-5 0 -9 5 -9 10 0 16 15 12 35 -10z m-3445 0 c0 -5 -7 -10 -16 -10 -8 0 -12 5
-9 10 3 6 10 10 16 10 5 0 9 -4 9 -10z m1678 -52 c17 -67 22 -108 14 -108 -8
0 -28 63 -38 124 -9 53 10 40 24 -16z m1819 -17 c10 -16 9 -18 -8 -14 -10 3
-19 12 -19 19 0 20 13 17 27 -5z m17 -46 c3 -8 1 -15 -4 -15 -6 0 -10 7 -10
15 0 8 2 15 4 15 2 0 6 -7 10 -15z"/>
<path d="M9270 3799 c0 -6 7 -17 15 -25 13 -14 15 -13 15 4 0 11 -7 22 -15 26
-8 3 -15 1 -15 -5z"/>
<path d="M8540 4081 c0 -20 5 -31 15 -31 7 0 19 -8 24 -17 6 -10 11 -13 11 -6
0 7 -11 29 -25 49 l-25 37 0 -32z"/>
<path d="M8483 4065 c2 -23 9 -40 16 -40 7 0 19 -11 27 -25 l14 -25 -6 30 c-4
17 -18 46 -31 65 l-24 35 4 -40z"/>
<path d="M8908 4060 c-10 -9 -18 -23 -18 -31 1 -10 3 -9 11 4 5 9 17 17 24 17
8 0 15 4 15 9 0 18 -15 18 -32 1z"/>
<path d="M8921 4024 c0 -11 3 -14 6 -6 3 7 2 16 -1 19 -3 4 -6 -2 -5 -13z"/>
<path d="M8616 3965 c4 -8 8 -15 10 -15 2 0 4 7 4 15 0 8 -4 15 -10 15 -5 0
-7 -7 -4 -15z"/>
<path d="M8500 3923 c0 -20 17 -50 24 -43 2 3 2 17 -1 33 -6 30 -23 37 -23 10z"/>
<path d="M8610 3770 c0 -13 8 -24 20 -27 10 -3 22 -14 25 -24 4 -11 10 -17 15
-14 4 3 13 -9 19 -25 5 -17 13 -30 16 -30 11 0 -8 53 -26 71 -11 11 -19 22
-19 27 0 4 -12 15 -25 25 -24 18 -25 17 -25 -3z"/>
<path d="M8705 3770 c3 -5 8 -10 11 -10 2 0 4 5 4 10 0 6 -5 10 -11 10 -5 0
-7 -4 -4 -10z"/>
<path d="M8546 3762 c-4 -7 15 -34 68 -92 7 -8 17 -25 20 -37 4 -13 12 -23 17
-23 15 0 -2 53 -22 73 -11 10 -19 24 -19 32 0 8 -5 15 -11 15 -5 0 -8 4 -4 9
3 6 -3 15 -14 20 -24 13 -28 13 -35 3z"/>
<path d="M8890 3748 c0 -7 5 -20 10 -28 8 -12 10 -11 10 7 0 12 -4 25 -10 28
-5 3 -10 0 -10 -7z"/>
<path d="M8740 3716 c0 -8 5 -18 10 -21 6 -3 10 3 10 14 0 12 -4 21 -10 21 -5
0 -10 -6 -10 -14z"/>
<path d="M8825 3702 c6 -4 16 -18 23 -32 7 -14 10 -17 7 -7 -3 10 -5 25 -5 33
0 8 -8 14 -17 14 -11 0 -14 -3 -8 -8z"/>
<path d="M8781 3663 c0 -4 4 -17 9 -28 8 -19 9 -19 9 2 1 12 -3 25 -9 28 -5 3
-10 3 -9 -2z"/>
<path d="M8710 3635 c0 -3 7 -14 16 -23 15 -14 16 -14 13 3 -4 17 -29 35 -29
20z"/>
<path d="M8570 3611 c0 -5 5 -13 10 -16 6 -3 10 -2 10 4 0 5 -4 13 -10 16 -5
3 -10 2 -10 -4z"/>
<path d="M8640 3580 c0 -5 5 -10 10 -10 6 0 10 5 10 10 0 6 -4 10 -10 10 -5 0
-10 -4 -10 -10z"/>
<path d="M8889 3573 c-5 -31 -3 -36 19 -39 12 -2 22 1 22 7 0 5 -5 7 -10 4 -6
-3 -14 4 -19 17 -6 13 -11 17 -12 11z"/>
<path d="M8952 3545 c0 -16 2 -22 5 -12 2 9 2 23 0 30 -3 6 -5 -1 -5 -18z"/>
<path d="M8830 3530 c0 -5 5 -10 10 -10 6 0 10 5 10 10 0 6 -4 10 -10 10 -5 0
-10 -4 -10 -10z"/>
<path d="M8836 3461 c-3 -5 1 -14 9 -21 13 -10 15 -9 15 9 0 21 -14 28 -24 12z"/>
<path d="M8796 3403 c20 -27 38 -50 40 -52 2 -2 4 7 4 22 0 16 -11 36 -27 52
-46 41 -55 28 -17 -22z"/>
<path d="M8941 3424 c0 -11 3 -14 6 -6 3 7 2 16 -1 19 -3 4 -6 -2 -5 -13z"/>
<path d="M8878 3425 c-8 -8 2 -45 13 -45 10 0 10 8 0 33 -3 10 -9 15 -13 12z"/>
<path d="M2556 3813 c4 -15 7 -33 7 -40 0 -18 14 -16 21 2 6 17 -13 65 -26 65
-5 0 -5 -12 -2 -27z"/>
<path d="M2537 3793 c-4 -3 -7 -11 -7 -17 0 -6 5 -5 12 2 6 6 9 14 7 17 -3 3
-9 2 -12 -2z"/>
<path d="M2529 3698 c-20 -7 -28 -18 -33 -46 -9 -57 -7 -72 9 -72 12 0 35 55
35 87 0 6 5 13 12 15 6 2 9 9 7 15 -3 6 -13 7 -30 1z"/>
<path d="M2271 2558 c-1 -16 4 -28 9 -28 12 0 12 8 0 35 -8 18 -9 17 -9 -7z"/>
<path d="M2290 2361 c0 -55 24 -140 36 -128 7 7 -18 172 -27 182 -5 5 -9 -16
-9 -54z"/>
<path d="M2351 2157 c-1 -10 5 -39 13 -65 8 -26 24 -92 36 -147 22 -96 61
-198 81 -210 5 -4 9 -16 9 -28 0 -12 7 -40 15 -62 l14 -40 1 38 c0 20 5 37 10
37 6 0 10 11 10 24 0 37 -18 76 -35 76 -8 0 -15 5 -15 10 0 6 7 10 15 10 9 0
15 9 15 25 0 26 -51 161 -74 198 -8 12 -18 39 -21 59 -6 30 -12 37 -33 40 -18
2 -28 11 -33 28 -5 17 -7 19 -8 7z m69 -113 c0 -19 -4 -34 -9 -34 -10 0 -21
35 -21 69 0 20 2 21 15 11 8 -7 15 -28 15 -46z"/>
<path d="M2535 1518 c-3 -7 -1 -33 4 -58 l9 -45 1 58 c1 55 -4 71 -14 45z"/>
<path d="M2551 1343 c1 -35 14 -70 21 -57 8 14 -3 84 -13 84 -5 0 -9 -12 -8
-27z"/>
<path d="M2582 1338 c6 -18 28 -21 28 -4 0 9 -7 16 -16 16 -9 0 -14 -5 -12
-12z"/>
<path d="M2573 1064 c-3 -8 -1 -20 6 -27 8 -8 11 -4 11 16 0 30 -7 35 -17 11z"/>
<path d="M2570 980 c1 -22 2 -23 11 -7 5 9 19 17 30 17 11 0 17 4 14 10 -3 5
-17 9 -30 8 -20 -2 -25 -8 -25 -28z"/>
<path d="M2573 650 c-2 -21 2 -30 13 -30 11 0 14 6 10 16 -3 9 -6 22 -6 30 0
27 -15 14 -17 -16z"/>
<path d="M2610 671 c0 -6 5 -13 10 -16 6 -3 10 1 10 9 0 9 -4 16 -10 16 -5 0
-10 -4 -10 -9z"/>
<path d="M7561 3567 c-2 -16 22 -102 30 -111 12 -14 11 65 -1 84 -5 8 -10 11
-11 5 0 -5 -4 -1 -9 10 -5 11 -9 16 -9 12z"/>
<path d="M7483 3270 c1 -11 6 -20 11 -20 5 0 6 -3 3 -7 -4 -3 -2 -12 4 -20 9
-10 7 -13 -6 -13 -15 0 -15 -2 -4 -16 17 -20 56 -40 97 -47 29 -6 32 -4 32 17
0 26 -44 86 -63 86 -7 0 -23 9 -37 20 -32 25 -39 25 -37 0z m58 -67 c13 -16
12 -17 -3 -4 -10 7 -18 15 -18 17 0 8 8 3 21 -13z"/>
<path d="M7408 2693 c-10 -2 -18 -9 -18 -14 0 -14 16 -11 30 6 7 8 11 14 9 14
-2 -1 -12 -3 -21 -6z"/>
<path d="M4565 3431 c12 -47 34 -95 35 -76 0 18 -35 125 -41 125 -4 0 -1 -22
6 -49z"/>
<path d="M3670 1524 c0 -34 4 -43 21 -47 15 -4 19 -2 15 10 -3 8 -6 20 -6 27
0 7 -7 21 -15 32 -13 18 -14 16 -15 -22z"/>
<path d="M5990 1919 c0 -11 5 -17 10 -14 6 3 10 13 10 21 0 8 -4 14 -10 14 -5
0 -10 -9 -10 -21z"/>
<path d="M4851 1464 c13 -17 26 -30 28 -27 3 2 -8 16 -24 31 l-28 27 24 -31z"/>
<path d="M4888 1343 c7 -3 16 -2 19 1 4 3 -2 6 -13 5 -11 0 -14 -3 -6 -6z"/>
<path d="M5535 1174 c-9 -9 -14 -18 -11 -21 7 -7 46 16 46 27 0 15 -17 12 -35
-6z"/>
<path d="M5495 1100 c3 -5 8 -10 11 -10 2 0 4 5 4 10 0 6 -5 10 -11 10 -5 0
-7 -4 -4 -10z"/>
<path d="M5558 1083 c7 -3 16 -2 19 1 4 3 -2 6 -13 5 -11 0 -14 -3 -6 -6z"/>
<path d="M5471 1028 c0 -13 5 -32 10 -43 9 -19 9 -18 5 3 -2 12 0 22 4 22 4 0
6 9 3 20 -7 27 -23 25 -22 -2z"/>
<path d="M3840 1110 c0 -5 5 -10 11 -10 5 0 7 5 4 10 -3 6 -8 10 -11 10 -2 0
-4 -4 -4 -10z"/>
<path d="M5406 1111 c-12 -5 -15 -10 -9 -14 6 -4 16 0 23 8 14 17 13 17 -14 6z"/>
<path d="M7936 1255 c4 -8 8 -15 10 -15 2 0 4 7 4 15 0 8 -4 15 -10 15 -5 0
-7 -7 -4 -15z"/>
<path d="M1237 5321 c7 -26 40 -31 80 -12 26 11 43 12 80 4 63 -14 309 -6 365
11 39 13 14 14 -244 15 -279 1 -286 0 -281 -18z"/>
<path d="M6837 5234 c-12 -12 27 -64 48 -64 33 0 88 -44 100 -81 12 -32 14
-34 54 -31 23 2 53 9 67 17 l26 13 -29 16 c-17 8 -38 26 -47 40 -9 15 -25 26
-35 26 -25 0 -131 49 -131 61 0 10 -43 12 -53 3z"/>
<path d="M3420 5150 c-19 -4 -61 -15 -92 -24 -32 -10 -63 -14 -68 -11 -6 4
-19 0 -28 -8 -10 -9 -30 -18 -46 -21 -37 -7 -40 -10 -27 -33 10 -20 56 -31
231 -54 108 -14 161 -12 180 7 15 15 22 114 8 114 -5 0 -17 9 -28 20 -21 21
-63 24 -130 10z m88 -32 c-3 -7 -15 -15 -28 -16 -21 -3 -22 -2 -11 12 16 19
44 21 39 4z m-18 -114 c0 -8 -4 -12 -10 -9 -5 3 -10 10 -10 16 0 5 5 9 10 9 6
0 10 -7 10 -16z"/>
<path d="M4657 5103 c-11 -17 3 -43 24 -43 10 0 19 5 19 10 0 6 -6 10 -14 10
-8 0 -16 8 -18 18 -2 11 -6 13 -11 5z"/>
<path d="M2980 5021 c-45 -24 -50 -41 -11 -41 17 0 31 4 31 9 0 5 16 15 36 21
39 13 40 15 3 23 -16 4 -38 0 -59 -12z"/>
<path d="M6624 4956 c-10 -8 -15 -18 -11 -22 4 -4 15 0 24 9 22 21 12 31 -13
13z"/>
<path d="M4454 4767 c-2 -34 0 -37 6 -17 11 33 12 60 3 60 -5 0 -9 -19 -9 -43z"/>
<path d="M4376 4758 c-10 -40 -6 -54 9 -28 8 14 14 31 15 38 0 21 -17 13 -24
-10z"/>
<path d="M5220 4665 c0 -3 9 -24 20 -45 11 -22 16 -40 11 -40 -5 0 -12 6 -14
13 -3 6 -6 3 -6 -8 0 -11 10 -40 24 -63 35 -61 66 -134 55 -127 -16 10 -11
-19 6 -41 15 -18 15 -18 9 4 -10 34 3 26 25 -18 24 -47 26 -72 4 -44 -14 18
-15 18 -8 -6 10 -36 34 -70 50 -70 8 0 14 -6 14 -12 0 -7 11 -26 25 -43 l26
-30 -15 35 c-8 19 -27 64 -44 100 -35 77 -49 120 -34 105 6 -5 31 -57 57 -115
68 -154 78 -174 85 -180 3 -3 14 -22 23 -42 10 -20 22 -40 28 -44 6 -3 -8 31
-31 76 -23 45 -56 119 -75 164 -18 44 -45 107 -59 139 -14 31 -24 57 -21 57
17 0 -125 239 -142 240 -7 0 -13 -2 -13 -5z m65 -125 c22 -42 18 -51 -5 -12
-20 33 -24 42 -15 42 2 0 11 -13 20 -30z m55 -104 c0 -6 -7 -2 -15 8 -8 11
-15 25 -15 30 0 6 7 2 15 -8 8 -11 15 -25 15 -30z m20 -37 c0 -6 -4 -7 -10 -4
-5 3 -10 11 -10 16 0 6 5 7 10 4 6 -3 10 -11 10 -16z"/>
<path d="M3744 4565 c-4 -8 -18 -15 -33 -15 -47 0 -98 -50 -85 -84 9 -22 119
-23 128 -1 3 8 12 15 19 15 10 0 14 14 13 50 -1 41 -4 50 -19 50 -10 0 -20 -7
-23 -15z"/>
<path d="M5340 4557 c0 -6 46 -110 81 -182 37 -78 36 -54 -4 65 -20 58 -37 94
-44 93 -7 -2 -12 2 -10 8 1 6 -4 14 -10 16 -7 3 -13 3 -13 0z"/>
<path d="M5245 4373 c4 -10 10 -26 12 -35 3 -10 9 -18 14 -18 12 0 12 2 -7 38
-16 34 -31 45 -19 15z"/>
<path d="M5110 4365 c0 -5 11 -23 25 -40 13 -16 24 -25 24 -20 0 6 -11 24 -24
40 -14 17 -25 26 -25 20z"/>
<path d="M5295 4266 c10 -14 19 -26 22 -26 7 0 -17 39 -28 46 -6 3 -3 -5 6
-20z"/>
<path d="M3924 4236 c-7 -7 -4 -16 6 -26 8 -8 27 -30 41 -48 22 -29 28 -32 52
-23 32 12 58 88 35 102 -17 11 -122 7 -134 -5z"/>
<path d="M5486 3959 c3 -8 21 -27 40 -43 19 -15 32 -22 28 -15 -3 8 -21 27
-40 43 -19 15 -32 22 -28 15z"/>
<path d="M4830 3620 c-11 -7 -7 -10 18 -10 17 0 32 5 32 10 0 13 -30 13 -50 0z"/>
<path d="M5643 3553 c1 -13 5 -23 9 -23 4 0 20 -19 37 -42 37 -54 139 -161
168 -176 12 -7 28 -31 36 -54 14 -38 16 -40 16 -15 1 15 -5 43 -13 62 -8 18
-12 36 -8 39 3 3 1 6 -4 6 -5 0 -29 25 -54 56 -41 52 -94 96 -75 62 5 -7 15
-21 23 -31 8 -9 13 -20 10 -23 -3 -3 -25 18 -49 47 -99 118 -98 116 -96 92z"/>
<path d="M6460 3496 c0 -8 7 -16 15 -20 9 -3 15 0 15 8 0 8 -7 16 -15 20 -9 3
-15 0 -15 -8z"/>
<path d="M5595 3351 c4 -14 18 -36 31 -50 13 -14 24 -29 24 -32 0 -12 146
-187 178 -214 l32 -27 -10 26 c-5 15 -31 53 -58 84 -26 32 -54 73 -61 90 -7
18 -17 32 -22 32 -5 0 -6 6 -3 13 2 7 -3 21 -11 32 -15 19 -16 19 -5 -3 22
-45 -3 -37 -52 18 -37 40 -48 48 -43 31z"/>
<path d="M158 3223 c7 -3 12 -24 13 -51 1 -42 2 -44 9 -17 15 58 12 75 -12 74
-13 0 -17 -3 -10 -6z"/>
<path d="M170 3109 c0 -8 7 -24 15 -35 11 -15 14 -16 15 -3 0 8 -7 24 -15 35
-11 15 -14 16 -15 3z"/>
<path d="M6535 3000 c3 -14 9 -43 12 -65 4 -22 15 -53 26 -70 10 -16 17 -22
13 -13 -3 10 -8 40 -12 67 -3 27 -15 62 -26 78 -19 27 -20 27 -13 3z"/>
<path d="M6384 2921 c22 -32 37 -69 41 -99 3 -26 7 -54 8 -62 1 -8 11 -16 22
-19 11 -2 25 -11 33 -20 7 -9 4 3 -8 26 -24 50 -24 49 -6 56 11 4 13 1 10 -11
-5 -14 -3 -14 6 1 10 16 5 27 -32 74 -23 31 -58 67 -76 81 l-33 25 35 -52z"/>
<path d="M5175 2883 c11 -59 22 -61 27 -3 2 27 -1 35 -16 38 -17 4 -18 0 -11
-35z"/>
<path d="M6526 2887 c3 -10 9 -15 12 -12 3 3 0 11 -7 18 -10 9 -11 8 -5 -6z"/>
<path d="M7632 2870 c0 -14 2 -19 5 -12 2 6 2 18 0 25 -3 6 -5 1 -5 -13z"/>
<path d="M5192 2725 c0 -16 2 -22 5 -12 2 9 2 23 0 30 -3 6 -5 -1 -5 -18z"/>
<path d="M4120 2620 c0 -5 5 -10 10 -10 6 0 10 5 10 10 0 6 -4 10 -10 10 -5 0
-10 -4 -10 -10z"/>
<path d="M6430 2578 c0 -37 50 -105 69 -94 12 8 15 102 4 109 -5 3 -23 8 -40
12 -32 6 -33 6 -33 -27z"/>
<path d="M7710 2557 c0 -8 6 -14 14 -14 8 0 12 6 9 14 -3 7 -9 13 -14 13 -5 0
-9 -6 -9 -13z"/>
<path d="M5613 2475 c0 -27 2 -38 4 -22 2 15 2 37 0 50 -2 12 -4 0 -4 -28z"/>
<path d="M7834 2335 c-9 -19 -9 -27 2 -36 20 -17 26 -6 17 30 l-8 30 -11 -24z"/>
<path d="M4450 2322 c0 -5 7 -15 15 -22 8 -7 15 -8 15 -2 0 5 -7 15 -15 22 -8
7 -15 8 -15 2z"/>
<path d="M9210 2290 c-19 -12 62 -12 100 0 19 6 12 8 -30 9 -30 0 -62 -4 -70
-9z"/>
<path d="M6831 2264 c0 -11 3 -14 6 -6 3 7 2 16 -1 19 -3 4 -6 -2 -5 -13z"/>
<path d="M7829 2253 c18 -24 22 -39 17 -64 -8 -39 1 -34 13 8 9 31 2 45 -33
73 -16 12 -16 9 3 -17z"/>
<path d="M8829 2259 c-176 -15 -181 -25 -14 -33 105 -6 150 -5 153 3 2 6 15
11 29 11 15 0 23 5 21 13 -6 15 -63 17 -189 6z"/>
<path d="M7075 2240 c-3 -5 -1 -10 4 -10 6 0 11 5 11 10 0 6 -2 10 -4 10 -3 0
-8 -4 -11 -10z"/>
<path d="M6820 2195 c0 -8 7 -15 15 -15 8 0 15 4 15 9 0 5 -7 11 -15 15 -9 3
-15 0 -15 -9z"/>
<path d="M7031 2186 c-8 -14 -10 -29 -5 -38 12 -20 131 -120 180 -150 41 -27
151 -138 188 -192 80 -114 90 -126 108 -120 14 4 18 0 18 -21 0 -43 24 -24 32
25 4 24 14 50 21 58 12 11 10 18 -14 43 -25 27 -46 40 -36 22 3 -5 1 -17 -3
-28 -6 -17 -9 -14 -19 18 -7 21 -13 52 -14 70 -1 19 -7 32 -15 32 -7 0 -23 10
-35 21 -19 18 -25 20 -40 9 -9 -7 -17 -22 -17 -33 0 -18 -15 -10 -100 54 -55
41 -105 84 -110 95 -6 10 -17 19 -25 19 -8 0 -22 11 -31 25 -9 14 -19 23 -23
21 -4 -3 -6 7 -5 21 0 18 10 29 35 41 26 13 30 18 15 20 -10 2 -23 -1 -29 -7
-14 -14 -48 -14 -44 0 4 23 -20 19 -32 -5z"/>
<path d="M8939 2200 c-137 -9 -406 -40 -434 -50 -13 -5 1 -11 49 -20 65 -12
68 -14 45 -26 -14 -7 -62 -18 -108 -25 -75 -10 -82 -13 -66 -25 11 -8 23 -10
29 -5 6 5 31 11 56 13 76 8 241 38 320 58 41 11 111 27 155 36 44 9 105 25
135 34 l55 18 -60 0 c-33 -1 -112 -4 -176 -8z"/>
<path d="M3850 2075 c0 -8 4 -15 10 -15 5 0 7 7 4 15 -4 8 -8 15 -10 15 -2 0
-4 -7 -4 -15z"/>
<path d="M7415 2070 c3 -5 8 -10 11 -10 2 0 4 5 4 10 0 6 -5 10 -11 10 -5 0
-7 -4 -4 -10z"/>
<path d="M7516 2023 c8 -35 10 -37 23 -28 6 3 11 17 11 31 0 17 -5 24 -20 24
-17 0 -19 -4 -14 -27z"/>
<path d="M7817 2012 c-10 -10 -17 -22 -17 -26 0 -4 -18 -25 -39 -47 -21 -23
-53 -61 -71 -85 -29 -41 -30 -44 -10 -44 11 0 23 -6 25 -12 3 -7 20 -14 39
-15 33 -3 34 -2 59 70 24 67 46 177 35 177 -3 0 -12 -8 -21 -18z"/>
<path d="M7524 1959 c-3 -6 0 -17 8 -25 12 -12 14 -10 16 11 2 26 -11 34 -24
14z"/>
<path d="M126 1921 c-3 -4 -20 -11 -37 -15 -17 -3 -44 -20 -60 -37 -29 -31
-29 -32 -29 -152 0 -119 0 -120 20 -102 11 10 20 13 20 7 0 -7 -9 -17 -20 -24
-31 -19 -24 -28 12 -15 24 9 32 9 35 0 3 -7 18 -13 34 -13 25 0 29 -4 29 -27
0 -21 3 -24 12 -15 10 10 10 17 0 32 -6 10 -9 26 -6 34 3 8 1 24 -5 35 -9 16
-7 22 8 33 19 13 19 15 -4 63 -25 52 -29 75 -27 137 l2 37 65 -6 c44 -4 65 -2
65 5 0 15 -9 19 -62 26 -26 4 -49 2 -52 -3z"/>
<path d="M1 1890 c0 -33 1 -34 10 -11 6 16 6 28 -1 35 -7 7 -10 -1 -9 -24z"/>
<path d="M7728 1749 c-17 -18 -17 -19 1 -19 10 0 21 9 24 20 6 25 -2 24 -25
-1z"/>
<path d="M1444 1726 c-8 -21 3 -36 27 -36 25 0 25 26 -1 40 -16 9 -22 8 -26
-4z"/>
<path d="M4840 1651 c5 -11 15 -23 21 -27 6 -3 3 5 -6 20 -20 30 -30 35 -15 7z"/>
<path d="M7461 1564 c0 -11 3 -14 6 -6 3 7 2 16 -1 19 -3 4 -6 -2 -5 -13z"/>
<path d="M515 1520 c3 -5 11 -10 16 -10 6 0 7 5 4 10 -3 6 -11 10 -16 10 -6 0
-7 -4 -4 -10z"/>
<path d="M870 1415 c12 -15 30 -12 30 6 0 5 -10 9 -21 9 -18 0 -19 -2 -9 -15z"/>
<path d="M8590 1309 c0 -2 26 -29 57 -59 31 -30 54 -47 50 -37 -4 10 -2 17 5
17 7 0 -5 18 -27 40 -26 27 -41 36 -46 28 -6 -9 -11 -9 -23 1 -9 8 -16 12 -16
10z"/>
<path d="M8726 1145 c8 -23 64 -82 64 -67 0 5 -16 27 -35 48 -22 25 -33 32
-29 19z"/>
<path d="M394 1122 c-5 -4 -18 -34 -28 -67 -10 -33 -25 -68 -33 -77 -8 -9 -13
-27 -11 -40 3 -22 7 -23 64 -20 46 3 63 0 73 -12 11 -13 11 -19 1 -31 -10 -13
-9 -15 11 -16 47 -2 153 3 161 7 4 3 8 18 8 34 0 21 -9 36 -35 56 -37 28 -45
57 -20 72 24 13 9 38 -43 72 -34 22 -57 30 -91 30 -25 0 -51 -4 -57 -8z"/>
<path d="M100 1024 c0 -23 55 -74 79 -74 12 0 21 4 21 10 0 13 -39 49 -72 66
-25 13 -28 13 -28 -2z"/>
<path d="M9402 918 c-88 -25 -91 -44 -6 -41 89 4 104 10 104 38 0 29 -3 30
-98 3z"/>
<path d="M1502 852 c-21 -7 -22 -8 -7 -29 19 -27 53 -30 71 -5 29 38 2 52 -64
34z"/>
<path d="M8790 820 c-13 -9 -13 -10 0 -10 8 0 22 5 30 10 13 9 13 10 0 10 -8
0 -22 -5 -30 -10z"/>
<path d="M3923 756 c4 -22 11 -44 17 -50 17 -17 11 47 -7 69 -15 19 -15 18
-10 -19z"/>
<path d="M9243 682 c-59 -4 -54 -18 10 -25 77 -10 247 3 247 18 0 12 -139 15
-257 7z"/>
<path d="M1794 549 c-57 -23 -88 -66 -82 -115 3 -26 6 -29 33 -25 16 1 47 12
67 22 20 10 44 19 53 19 13 0 15 10 13 57 -4 68 -10 71 -84 42z"/>
<path d="M8675 550 c-26 -11 70 -11 105 0 19 6 12 8 -30 8 -30 0 -64 -3 -75
-8z"/>
<path d="M0 447 c0 -26 3 -29 23 -23 12 3 46 6 75 6 28 0 52 4 52 9 0 4 -34
15 -75 23 l-75 15 0 -30z"/>
<path d="M180 451 c0 -15 57 -23 103 -15 38 7 40 8 17 15 -37 10 -120 10 -120
0z"/>
<path d="M365 318 c11 -39 26 -91 36 -133 14 -54 25 -65 71 -65 29 0 45 7 63
26 27 29 20 54 -16 54 -32 0 -21 19 22 36 31 13 39 21 37 38 -3 19 -10 21 -61
21 -49 0 -62 4 -77 23 -12 14 -29 22 -50 22 -29 0 -32 -2 -25 -22z"/>
<path d="M37 323 c-3 -5 -7 -29 -11 -55 -6 -40 -4 -48 14 -61 18 -13 19 -15 5
-27 -12 -10 -15 -23 -10 -51 4 -22 2 -45 -5 -55 -8 -14 -9 -27 -1 -46 10 -27
13 -28 81 -28 56 0 75 4 91 19 19 17 19 21 6 47 -8 16 -20 48 -26 71 -7 27
-19 44 -31 48 -27 9 -41 38 -38 81 2 26 -3 40 -17 50 -20 15 -51 19 -58 7z"/>
<path d="M1849 157 c-9 -7 -31 -36 -49 -66 -22 -35 -44 -58 -67 -67 -18 -8
-33 -17 -33 -20 0 -3 43 -4 95 -2 l95 3 0 83 c0 85 -6 96 -41 69z"/>
<path d="M278 57 c-31 -14 -48 -28 -48 -39 0 -16 11 -18 95 -18 l95 0 -4 26
c-11 59 -57 70 -138 31z"/>
<path d="M9056 24 c-38 -7 -71 -16 -74 -19 -10 -10 175 -5 207 6 82 29 -9 38
-133 13z"/>
</g>
</svg>
