<?xml version="1.0" standalone="no"?>
<!DOCTYPE svg PUBLIC "-//W3C//DTD SVG 20010904//EN"
 "http://www.w3.org/TR/2001/REC-SVG-20010904/DTD/svg10.dtd">
<svg version="1.0" xmlns="http://www.w3.org/2000/svg"
 width="366.000000pt" height="418.000000pt" viewBox="0 0 366.000000 418.000000"
 preserveAspectRatio="xMidYMid meet">

<g transform="translate(0.000000,418.000000) scale(0.100000,-0.100000)"
fill="#000000" stroke="none">
<path d="M1 3448 l0 -733 55 160 c30 88 69 202 86 253 22 65 35 92 47 92 15 0
561 -131 570 -137 2 -1 -4 -41 -13 -89 -12 -58 -15 -107 -11 -152 9 -103 37
-215 56 -229 9 -7 22 -26 29 -43 7 -16 18 -30 25 -30 14 0 25 -52 25 -122 0
-55 7 -78 25 -78 8 0 23 -26 35 -57 l22 -58 -31 -26 c-31 -25 -40 -54 -20 -61
5 -2 11 -10 12 -18 2 -8 6 -20 10 -26 4 -7 0 -14 -7 -17 -10 -4 -16 3 -19 21
-3 24 -4 23 -6 -7 -1 -35 1 -36 58 -20 10 3 17 -8 22 -31 7 -30 4 -38 -16 -55
-13 -11 -27 -31 -31 -45 -7 -22 -9 -20 -20 25 -10 42 -12 -15 -13 -352 l-1
-401 34 -20 34 -20 -18 -84 c-9 -46 -20 -100 -24 -121 -6 -30 -14 -41 -46 -57
-22 -11 -44 -28 -49 -38 -11 -21 -153 -94 -219 -113 -42 -12 -92 -58 -223
-202 -24 -27 -62 -58 -86 -70 -67 -35 -170 -119 -188 -154 -9 -18 -20 -33 -25
-33 -6 0 -10 -8 -10 -18 0 -28 -10 -33 -35 -16 -21 14 -23 13 -29 -8 -3 -13
-6 -76 -6 -140 l0 -118 834 0 835 0 24 23 c14 12 26 31 29 42 2 13 11 20 26
19 12 0 22 3 22 8 0 4 -4 8 -9 8 -12 0 -13 108 -1 115 6 4 10 16 10 28 1 31
25 61 42 51 19 -12 51 -13 66 -1 22 18 -6 116 -33 113 -5 0 -15 13 -20 31 -6
17 -18 40 -28 51 -9 10 -17 23 -17 29 0 6 -9 22 -20 36 -11 13 -26 49 -34 78
-16 64 -77 213 -88 217 -4 2 -8 21 -8 42 0 30 -5 42 -22 51 -19 10 -25 8 -45
-15 -13 -15 -24 -37 -24 -49 -1 -12 -2 -26 -4 -32 -1 -5 -3 -16 -3 -22 -3 -23
-26 -14 -63 25 -34 35 -60 102 -39 102 17 0 11 38 -16 101 -19 47 -25 78 -25
135 0 41 -4 74 -10 74 -5 0 -9 7 -9 15 0 8 -4 15 -9 15 -5 0 -33 44 -61 97
-42 79 -102 167 -131 193 -21 19 -60 86 -83 143 -26 62 -49 84 -58 56 -2 -7
-14 -2 -30 12 -23 21 -25 28 -17 57 11 39 24 40 94 7 38 -19 83 -56 159 -136
59 -61 115 -127 126 -147 11 -20 25 -44 30 -52 10 -14 43 -89 45 -100 3 -19
50 -88 67 -99 11 -7 57 -26 101 -41 81 -29 92 -37 205 -145 63 -59 148 -176
192 -265 13 -25 35 -63 49 -85 15 -22 44 -78 65 -125 21 -47 45 -97 52 -113
39 -84 49 -271 19 -352 -37 -98 -55 -141 -69 -157 -9 -10 -14 -23 -11 -28 4
-6 300 -10 781 -10 l774 0 0 719 c0 566 -3 720 -12 724 -10 4 -10 6 0 6 6 1
12 13 12 27 0 24 -2 25 -42 20 -84 -11 -843 -76 -885 -76 -17 0 -18 59 0 65
14 6 72 13 107 14 46 2 54 15 27 45 -23 25 -57 35 -57 17 0 -5 -11 -12 -24
-15 -13 -3 -32 -9 -42 -13 -15 -6 -16 -1 -10 43 4 27 7 58 8 69 0 11 6 40 14
65 53 179 60 254 32 331 -22 62 -19 104 14 179 19 44 27 52 62 61 23 5 47 12
54 14 14 5 16 37 2 51 -17 17 31 14 115 -7 77 -20 83 -20 205 -4 69 9 150 20
180 25 30 5 97 14 148 21 l92 13 -1 238 c0 142 -4 236 -10 232 -5 -3 -9 9 -9
26 0 18 4 29 10 25 16 -10 12 25 -5 42 -8 8 -13 18 -10 23 3 4 -2 13 -10 20
-7 6 -11 18 -8 26 9 24 -32 94 -55 94 -6 0 -13 6 -15 13 -4 9 -8 9 -15 -2 -11
-15 -27 2 -17 19 11 17 -5 32 -21 19 -9 -7 -12 -23 -8 -45 5 -34 4 -35 -23
-30 -40 6 -40 6 -16 16 22 9 23 40 2 40 -4 0 -6 -7 -3 -15 5 -11 -2 -15 -27
-15 -18 0 -29 -3 -26 -7 14 -13 -27 -43 -59 -43 -21 0 -43 -9 -60 -25 -15 -14
-22 -25 -15 -25 6 0 11 -4 11 -10 0 -5 -12 -10 -26 -10 -17 0 -28 -6 -31 -19
-4 -15 -13 -19 -46 -17 -50 3 -87 -11 -66 -25 11 -7 10 -9 -4 -9 -10 0 -24 6
-32 13 -8 9 -26 12 -47 9 -18 -3 -27 -7 -20 -9 17 -6 15 -43 -2 -43 -8 0 -17
10 -19 23 -2 12 -5 -2 -6 -30 0 -29 -5 -53 -9 -53 -5 0 -19 24 -31 53 -12 28
-29 64 -36 78 -8 14 -12 29 -8 32 3 4 -8 20 -26 36 -17 16 -31 34 -31 40 0 17
34 30 107 41 37 5 94 16 126 25 32 8 60 15 62 15 3 0 5 7 5 15 0 11 10 13 48
9 40 -5 52 -2 82 21 19 14 36 21 38 15 5 -15 52 -12 52 3 0 17 47 44 92 52 41
8 51 -6 21 -25 -21 -13 2 -10 99 12 87 20 98 35 98 135 0 54 -4 82 -10 78 -6
-3 -10 -1 -10 4 0 6 5 11 10 11 7 0 10 51 9 140 -1 79 -5 137 -10 134 -5 -3
-9 -11 -9 -19 0 -9 -17 -16 -47 -20 -27 -4 -64 -11 -83 -16 -19 -5 -50 -9 -68
-9 -42 0 -47 -15 -34 -97 10 -62 9 -70 -13 -118 -32 -66 -31 -78 3 -91 25 -10
28 -15 24 -48 -3 -26 -13 -42 -34 -57 -16 -12 -31 -19 -34 -17 -2 3 -7 81 -10
174 -6 218 -9 234 -36 234 -47 0 -138 -24 -138 -37 0 -17 -16 -17 -23 1 -4 11
-17 11 -78 1 -40 -7 -75 -18 -77 -24 -2 -7 -12 -20 -21 -29 -16 -15 -19 -34
-24 -127 0 -11 0 -48 1 -81 2 -55 5 -62 24 -68 17 -4 20 -8 11 -17 -9 -9 -9
-16 0 -30 16 -25 2 -35 -27 -19 -23 12 -29 9 -81 -35 -30 -26 -58 -45 -62 -41
-12 11 17 57 47 74 31 18 40 42 15 42 -8 0 -40 11 -70 25 -46 20 -57 22 -61
10 -3 -8 3 -26 15 -41 11 -14 18 -30 16 -35 -9 -14 -32 0 -44 28 -9 20 -16 24
-36 19 -18 -5 -25 -2 -25 9 0 9 -9 15 -22 15 -13 0 -30 5 -38 11 -12 8 -9 9
13 5 15 -4 27 -2 27 4 0 5 -17 10 -39 10 -30 0 -40 4 -44 20 -4 16 -11 18 -41
13 -24 -4 -36 -2 -36 6 0 7 -5 9 -10 6 -6 -3 -13 1 -16 9 -3 9 -15 16 -26 16
-10 0 -45 16 -76 36 -65 42 -135 74 -163 74 -16 0 -17 3 -7 28 7 15 23 39 36
53 18 20 21 29 11 35 -8 4 -15 2 -17 -5 -2 -7 -13 -21 -23 -29 -11 -9 -19 -23
-20 -32 0 -12 -2 -12 -6 -1 -3 7 -14 22 -24 32 -10 10 -16 25 -13 32 5 13 -10
22 -55 32 -8 2 -17 8 -20 13 -7 10 -42 26 -68 31 -5 1 -1 6 7 12 11 7 6 8 -19
4 -23 -5 -31 -4 -27 4 5 7 -6 11 -33 11 -28 0 -43 5 -50 18 -7 11 -13 13 -18
6 -5 -7 -44 -11 -98 -11 -192 0 -460 -39 -478 -69 -4 -8 -17 -14 -27 -14 -10
0 -22 -4 -25 -10 -3 -5 -15 -10 -26 -10 -10 0 -19 -5 -19 -11 0 -6 -7 -8 -16
-5 -9 3 -12 2 -9 -5 4 -5 1 -16 -5 -24 -9 -11 -16 -11 -29 -3 -21 13 -71 3
-71 -13 0 -7 11 -9 25 -7 14 3 25 1 25 -3 0 -5 -6 -9 -12 -9 -7 0 -25 -7 -40
-14 -25 -13 -29 -13 -38 2 -8 14 -9 12 -10 -10 0 -16 -4 -28 -10 -28 -10 0
-14 20 -12 53 2 17 1 17 -15 2 -11 -12 -25 -15 -50 -10 -20 3 -33 2 -33 -5 0
-5 -10 -10 -22 -10 -19 0 -20 1 -6 13 9 6 21 28 26 47 7 25 10 28 11 13 1 -28
31 -20 31 8 0 14 7 19 25 19 16 0 25 6 25 15 0 11 -11 15 -40 15 -22 0 -40 4
-40 8 0 5 -21 14 -47 20 l-48 10 48 -1 c26 -1 47 1 47 5 0 4 15 8 33 11 l32 3
-32 8 c-18 5 -33 15 -33 22 0 18 -80 20 -81 2 0 -7 -6 -2 -12 11 -9 19 -9 25
1 29 6 2 12 11 12 20 1 15 2 15 14 0 18 -24 29 -23 21 1 -4 13 1 27 14 40 12
12 21 27 21 35 0 8 7 16 15 20 19 7 20 42 1 49 -8 3 -21 -4 -28 -15 -9 -13
-19 -18 -26 -14 -17 10 -15 63 3 70 17 6 20 36 4 36 -7 0 -18 -8 -25 -17 -13
-17 -13 -17 -14 0 0 24 -17 21 -23 -4 -3 -12 -10 -18 -16 -14 -14 8 -14 35 0
35 6 0 8 8 5 18 -4 12 3 26 21 42 17 15 28 19 31 12 6 -18 22 -14 22 4 0 13
-7 15 -42 9 -24 -4 -48 -12 -55 -17 -17 -14 -33 -1 -32 25 1 17 2 18 6 5 2
-10 9 -18 14 -18 6 0 9 8 7 18 -4 21 -44 28 -64 12 -10 -9 -14 -9 -14 -1 0 8
-94 11 -335 11 l-335 0 1 -732z m783 491 c-3 -5 -10 -7 -15 -3 -5 3 -7 10 -3
15 3 5 10 7 15 3 5 -3 7 -10 3 -15z m-84 -29 c0 -5 -5 -10 -11 -10 -5 0 -7 5
-4 10 3 6 8 10 11 10 2 0 4 -4 4 -10z m130 -25 c0 -8 -4 -17 -10 -20 -6 -4
-10 5 -10 20 0 15 4 24 10 20 6 -3 10 -12 10 -20z m-30 -5 c0 -13 -7 -20 -20
-20 -13 0 -20 7 -20 20 0 13 7 20 20 20 13 0 20 -7 20 -20z m-90 -84 c0 -11
-19 -15 -25 -6 -3 5 1 10 9 10 9 0 16 -2 16 -4z m2917 -128 c-3 -7 -5 -2 -5
12 0 14 2 19 5 13 2 -7 2 -19 0 -25z m-127 -18 c0 -13 -5 -18 -15 -14 -16 7
-19 17 -8 27 12 13 23 7 23 -13z m60 4 c0 -2 -9 -4 -20 -4 -11 0 -20 4 -20 9
0 5 9 7 20 4 11 -3 20 -7 20 -9z m-102 -12 c2 -7 -6 -12 -17 -12 -21 0 -27 11
-14 24 9 9 26 2 31 -12z m-2728 -22 c0 -5 -5 -10 -11 -10 -5 0 -7 5 -4 10 3 6
8 10 11 10 2 0 4 -4 4 -10z m2872 -20 c7 -11 18 -20 24 -20 22 0 25 -33 5 -54
-19 -20 -21 -24 -21 -45 0 -5 -9 -13 -21 -16 -11 -4 -25 -17 -31 -30 -10 -23
-36 -40 -45 -31 -8 8 42 76 60 82 9 3 17 12 17 20 0 8 5 14 10 14 6 0 10 5 10
10 0 6 -9 10 -20 10 -12 0 -20 -7 -20 -16 0 -24 -33 -12 -36 14 -3 14 1 22 11
22 9 0 15 9 15 23 0 41 22 49 42 17z m-512 -49 c0 -12 -29 -23 -42 -15 -6 4
-5 10 3 15 18 11 39 11 39 0z m-2155 -51 c-11 -5 -27 -9 -35 -9 -13 -1 -13 0
0 9 8 5 24 9 35 9 l20 0 -20 -9z m2254 -56 c2 -2 1 -10 -2 -18 -7 -18 -67 -36
-120 -36 -34 0 -38 3 -35 22 4 28 60 49 113 41 22 -3 42 -7 44 -9z m-69 -68
c0 -3 -4 -8 -10 -11 -5 -3 -10 -1 -10 4 0 6 5 11 10 11 6 0 10 -2 10 -4z m137
-36 c-12 -17 -16 -18 -20 -6 -4 9 1 20 11 25 23 13 27 6 9 -19z m-47 -25 c7
-9 10 -18 6 -22 -3 -3 -6 -1 -6 5 0 7 -5 11 -11 10 -6 -2 -14 3 -16 10 -6 17
12 15 27 -3z m27 -27 c-3 -8 -6 -5 -6 6 -1 11 2 17 5 13 3 -3 4 -12 1 -19z
m83 -4 c0 -17 -22 -14 -28 4 -2 7 3 12 12 12 9 0 16 -7 16 -16z m-154 -6 c9
-15 -27 -41 -40 -28 -6 6 -5 15 4 25 15 18 26 19 36 3z m-116 -27 c0 -14 -18
-23 -30 -16 -6 4 -8 11 -5 16 8 12 35 12 35 0z m-873 -60 c34 -11 77 -31 96
-43 38 -25 91 -57 119 -73 10 -5 18 -13 18 -18 0 -4 5 -5 10 -2 9 5 14 -6 12
-26 -1 -3 12 -19 28 -34 17 -16 30 -37 30 -46 0 -10 4 -20 9 -23 5 -3 14 -28
21 -55 6 -27 20 -58 31 -70 11 -12 15 -21 9 -21 -24 0 -6 -64 53 -180 52 -103
66 -142 80 -220 39 -221 48 -391 26 -475 -6 -22 -13 -53 -16 -70 -3 -16 -11
-37 -18 -45 -17 -20 -40 -99 -56 -188 -10 -60 -17 -75 -35 -82 -12 -5 -24 -20
-28 -34 -4 -16 -11 -23 -20 -20 -9 4 -20 -7 -31 -30 -12 -25 -24 -36 -39 -36
-12 0 -27 -9 -33 -19 -7 -11 -26 -22 -43 -26 -16 -4 -30 -13 -30 -21 0 -21
-18 -17 -25 6 -4 11 -11 18 -16 15 -5 -3 -6 0 -3 8 3 8 -9 21 -33 33 -21 10
-41 23 -44 27 -3 5 -12 10 -20 11 -8 2 -21 6 -29 9 -19 8 -37 10 -79 8 -25 -1
-32 -5 -27 -16 4 -11 -2 -15 -24 -15 -22 0 -28 -4 -24 -15 5 -11 -1 -15 -25
-15 -34 0 -39 7 -44 58 -2 19 -9 37 -15 41 -23 14 -25 59 -3 87 26 33 26 39 0
65 -21 21 -23 21 -71 5 -56 -18 -84 -20 -92 -7 -3 4 -20 11 -38 15 -36 7 -68
32 -68 53 0 7 -13 16 -30 19 -26 6 -29 9 -23 38 3 17 22 58 43 91 l38 60 -6
233 -7 234 -30 24 c-33 28 -89 54 -113 54 -8 0 -24 8 -35 17 -36 34 -231 10
-329 -38 -10 -5 -18 -8 -18 -7 0 2 7 25 15 52 12 38 12 51 3 57 -9 6 -9 14 -2
31 16 35 17 108 2 126 -10 12 -10 16 0 19 6 3 12 9 12 15 0 6 12 27 27 47 15
20 26 37 23 37 -3 1 3 11 13 22 10 11 19 26 21 34 1 7 16 34 34 60 17 26 32
51 32 57 0 6 7 11 15 11 8 0 15 4 15 9 0 8 71 64 140 111 12 8 39 27 59 41 45
31 71 43 93 40 10 -1 27 3 38 9 63 34 338 22 457 -19z m1035 7 c-7 -7 -12 -8
-12 -2 0 6 3 14 7 17 3 4 9 5 12 2 2 -3 -1 -11 -7 -17z m-158 -4 c4 -10 1 -14
-6 -12 -15 5 -23 28 -10 28 5 0 13 -7 16 -16z m-7 -276 c-3 -8 -6 -5 -6 6 -1
11 2 17 5 13 3 -3 4 -12 1 -19z m-13 -66 c-4 -13 -14 -22 -25 -22 -19 0 -19 2
-3 31 17 34 37 28 28 -9z m-64 -132 c0 -5 -2 -10 -4 -10 -3 0 -8 5 -11 10 -3
6 -1 10 4 10 6 0 11 -4 11 -10z m51 -160 c10 -6 19 -20 19 -31 0 -19 -4 -20
-37 -14 -57 10 -77 23 -62 41 13 16 52 18 80 4z m464 -16 c-8 -9 -19 -12 -25
-9 -6 3 -10 -4 -11 -17 l0 -23 -11 23 c-14 28 -28 29 -28 2 0 -14 11 -26 33
-35 17 -8 27 -14 20 -15 -7 0 -10 -6 -7 -14 3 -8 1 -23 -5 -33 -9 -16 -10 -14
-11 12 -1 29 -1 29 -16 10 -15 -20 -16 -19 -12 5 2 16 -2 25 -10 25 -8 0 -24
12 -36 27 -19 25 -25 27 -54 19 -21 -6 -34 -6 -38 1 -10 17 18 29 54 23 19 -4
32 -2 32 5 0 5 10 9 23 9 16 -1 18 -2 5 -6 -15 -4 -16 -8 -6 -26 l11 -21 8 22
c6 16 17 22 38 22 16 0 33 5 36 10 4 6 11 8 16 5 5 -4 3 -13 -6 -21z m-178
-100 c-3 -3 -12 -4 -19 -1 -8 3 -5 6 6 6 11 1 17 -2 13 -5z m-1864 -191 c-7
-2 -21 -2 -30 0 -10 3 -4 5 12 5 17 0 24 -2 18 -5z m-463 -93 c0 -5 -7 -10
-16 -10 -8 0 -12 5 -9 10 3 6 10 10 16 10 5 0 9 -4 9 -10z m500 -20 c0 -5 -12
-10 -27 -9 -25 0 -26 1 -8 9 27 12 35 12 35 0z m35 -120 c6 0 16 5 23 12 23
23 24 -2 2 -39 -14 -24 -20 -46 -16 -64 7 -36 -8 -86 -43 -141 -28 -45 -30
-46 -76 -42 -32 2 -54 9 -67 23 -10 12 -25 21 -33 21 -8 0 -15 5 -15 11 0 5
-5 7 -11 4 -6 -4 -13 2 -16 13 -2 11 -16 25 -29 32 -13 8 -24 17 -24 22 0 4
-8 8 -18 8 -10 0 -28 9 -41 21 -21 20 -21 22 -5 40 9 10 23 19 29 19 7 0 23 9
37 19 13 11 42 22 64 26 21 4 53 13 69 20 17 7 53 20 80 28 49 14 50 14 65 -9
8 -13 19 -24 25 -24z m-64 -391 c11 -5 17 -14 14 -20 -9 -14 -65 -11 -81 5
-14 15 -12 16 39 25 5 0 17 -4 28 -10z m-395 -56 c-4 -9 1 -17 12 -20 10 -2
23 -16 30 -31 6 -15 15 -34 20 -42 5 -8 19 -37 31 -65 36 -80 94 -172 121
-190 14 -10 36 -33 48 -53 20 -31 23 -44 17 -89 -4 -36 -11 -53 -21 -53 -8 0
-14 -7 -14 -15 0 -12 -7 -10 -34 6 -33 19 -46 48 -46 105 0 14 -15 46 -32 73
-70 103 -164 274 -169 306 -4 28 21 96 32 89 6 -3 8 -13 5 -21z m1050 -280
c47 -8 84 -30 84 -49 0 -4 8 -12 17 -19 23 -17 21 -74 -3 -92 -10 -8 -18 -19
-17 -24 2 -5 -2 -9 -7 -9 -5 0 -10 -11 -10 -25 0 -15 -5 -25 -12 -24 -7 1 -20
-1 -29 -5 -9 -4 -36 -6 -60 -4 -37 3 -46 8 -63 37 l-19 33 34 -8 c62 -14 74
-11 75 16 1 14 4 35 8 47 7 23 -17 44 -61 50 -12 2 -37 10 -55 18 -28 11 -34
19 -32 42 1 15 2 30 3 31 1 5 77 -3 147 -15z m460 -329 c4 -15 4 -72 0 -128
-12 -188 -55 -326 -102 -326 -12 0 -25 -4 -28 -9 -4 -5 -14 -8 -24 -6 -9 2
-26 4 -37 4 -15 1 -16 4 -7 13 18 18 14 28 -12 28 -20 0 -24 6 -30 42 -5 27
-3 44 5 49 6 4 8 12 5 18 -4 6 2 24 13 40 12 16 21 35 21 41 0 17 65 122 89
144 12 11 35 41 52 67 17 27 35 49 40 49 5 0 12 -12 15 -26z m-1625 -7 c-10
-9 -11 -8 -5 6 3 10 9 15 12 12 3 -3 0 -11 -7 -18z"/>
<path d="M1267 2764 c-8 -8 1 -24 14 -24 5 0 9 7 9 15 0 15 -12 20 -23 9z"/>
<path d="M2073 2525 c-3 -9 -23 -34 -45 -56 -22 -22 -38 -46 -35 -53 3 -6 -1
-23 -9 -37 -23 -41 -18 -48 34 -45 34 2 61 11 93 32 98 67 172 64 254 -8 53
-47 75 -49 75 -9 0 19 -8 36 -24 48 -64 49 -80 58 -97 55 -11 -2 -19 2 -19 7
0 6 -11 11 -24 11 -13 0 -29 6 -35 14 -19 22 -98 56 -131 56 -18 0 -33 -6 -37
-15z"/>
<path d="M2079 2302 c-48 -33 -53 -42 -33 -57 25 -19 64 -19 64 0 0 8 7 15 15
15 8 0 15 -4 15 -9 0 -41 84 -54 138 -21 18 11 41 20 52 20 10 0 21 4 24 9 10
15 -60 41 -126 46 -34 3 -77 8 -94 10 -19 2 -42 -3 -55 -13z"/>
<path d="M2110 2181 c0 -13 58 -31 101 -31 55 0 48 14 -12 28 -61 14 -89 15
-89 3z"/>
<path d="M1990 1460 c0 -5 5 -10 11 -10 6 0 9 -6 6 -14 -4 -10 0 -12 14 -9 19
5 19 7 3 24 -19 21 -34 25 -34 9z"/>
<path d="M883 3877 c-7 -15 -7 -29 -1 -40 16 -29 28 -19 28 23 0 45 -11 52
-27 17z"/>
<path d="M2030 3731 c0 -10 30 -24 37 -17 3 2 -5 9 -16 16 -12 6 -21 7 -21 1z"/>
<path d="M2292 3688 c-20 -20 -14 -27 13 -15 14 7 25 15 25 20 0 11 -25 8 -38
-5z"/>
<path d="M1000 3646 c0 -7 7 -19 15 -26 13 -11 15 -8 15 14 0 16 -5 26 -15 26
-8 0 -15 -6 -15 -14z"/>
<path d="M1020 3590 c0 -5 5 -10 11 -10 5 0 7 5 4 10 -3 6 -8 10 -11 10 -2 0
-4 -4 -4 -10z"/>
<path d="M2850 3357 c-42 -10 -43 -11 -15 -15 17 -2 34 -8 40 -13 19 -19 45
-10 45 16 0 27 -4 28 -70 12z"/>
<path d="M3642 3203 c-6 -2 -10 -8 -8 -12 3 -4 0 -13 -5 -21 -8 -13 -10 -13
-19 0 -8 13 -10 13 -10 -2 0 -9 7 -23 15 -32 8 -8 15 -19 15 -25 0 -6 4 -11 9
-11 6 0 12 -19 14 -42 2 -24 4 1 5 55 1 53 1 97 0 96 -2 0 -9 -3 -16 -6z"/>
<path d="M3568 3193 c-21 -3 -28 -10 -27 -26 1 -18 2 -19 6 -4 3 10 10 16 17
14 6 -3 20 1 31 9 10 8 15 13 9 13 -5 -1 -21 -4 -36 -6z"/>
<path d="M3220 3110 c0 -5 7 -10 15 -10 8 0 15 5 15 10 0 6 -7 10 -15 10 -8 0
-15 -4 -15 -10z"/>
<path d="M3270 3106 c0 -8 5 -18 10 -21 6 -3 10 3 10 14 0 12 -4 21 -10 21 -5
0 -10 -6 -10 -14z"/>
<path d="M3193 3067 c-25 -11 -27 -15 -14 -36 8 -12 14 -13 35 -3 29 13 32 24
14 40 -9 6 -20 6 -35 -1z"/>
<path d="M3075 3020 c-8 -13 3 -30 20 -30 19 0 26 27 9 34 -21 8 -22 8 -29 -4z"/>
<path d="M3151 3011 c-17 -11 -5 -31 19 -31 24 0 36 20 19 31 -8 5 -16 9 -19
9 -3 0 -11 -4 -19 -9z"/>
<path d="M2952 2885 c0 -16 2 -22 5 -12 2 9 2 23 0 30 -3 6 -5 -1 -5 -18z"/>
<path d="M3560 2314 c-14 -3 -52 -9 -85 -15 -33 -6 -78 -13 -100 -15 -22 -2
-56 -7 -75 -11 -19 -3 -44 -7 -55 -8 -28 -3 -185 -23 -277 -36 l-78 -11 -1
-67 c0 -36 -2 -77 -5 -91 -12 -72 -46 -225 -50 -232 -3 -5 -3 -20 0 -32 6 -26
50 -43 70 -27 6 5 55 8 111 6 55 -2 141 -6 191 -7 83 -3 90 -4 80 -20 -15 -25
7 -47 28 -29 21 18 39 5 26 -19 -5 -10 -10 -29 -10 -42 0 -13 -7 -33 -15 -44
-15 -20 -20 -64 -7 -64 8 0 47 86 82 183 20 54 23 57 56 57 19 0 34 -2 34 -5
0 -2 -10 -25 -22 -49 -19 -40 -20 -48 -8 -71 8 -16 19 -24 28 -20 15 5 14 3
-5 -72 -4 -18 -1 -23 13 -23 30 0 42 12 64 63 12 27 28 47 37 47 11 0 14 -6 8
-22 -21 -68 -20 -68 24 -68 38 0 41 2 40 28 -1 22 -2 24 -7 7 -4 -11 -13 -21
-21 -23 -19 -4 -7 69 14 84 13 10 15 51 15 285 -1 193 -4 269 -11 256 -13 -22
-24 -15 -45 29 -12 24 -14 38 -6 46 18 18 47 4 53 -27 6 -25 7 -22 8 18 l1 47
-37 -1 c-21 -1 -49 -3 -63 -5z m-21 -513 c20 -13 6 -61 -17 -61 -10 0 -23 -5
-29 -11 -18 -18 -22 4 -6 44 15 37 27 44 52 28z"/>
<path d="M2842 2157 c-22 -23 -29 -47 -14 -47 11 1 44 50 40 61 -2 6 -13 0
-26 -14z"/>
<path d="M3377 1643 c-12 -20 -34 -93 -28 -93 8 0 43 91 37 97 -2 2 -6 0 -9
-4z"/>
<path d="M2860 1623 c1 -13 29 -59 30 -48 0 6 3 20 6 33 5 18 2 22 -15 22 -11
0 -21 -3 -21 -7z"/>
<path d="M3393 1575 c-3 -9 -3 -18 -1 -21 3 -3 8 4 11 16 6 23 -1 27 -10 5z"/>
</g>
</svg>
